<svg id="Layer_1" data-name="Layer 1" xmlns="http://www.w3.org/2000/svg" xmlns:xlink="http://www.w3.org/1999/xlink" viewBox="0 0 64.67 64.67"><defs><style>.cls-1{fill:#fff;}.cls-2{fill:url(#linear-gradient);}.cls-3{fill:#919191;}.cls-4{fill:#ed2224;}.cls-5{fill:#f69e1d;}.cls-6{fill:#19ac5b;}.cls-7{fill:#8150a0;}.cls-8{fill:#347fc2;}</style><linearGradient id="linear-gradient" x1="32.33" y1="65.14" x2="32.33" y2="-1.35" gradientUnits="userSpaceOnUse"><stop offset="0" stop-color="#bcbcbc" stop-opacity="0.8"/><stop offset="0.03" stop-color="#b9b9b9" stop-opacity="0.75"/><stop offset="0.19" stop-color="#adadad" stop-opacity="0.52"/><stop offset="0.35" stop-color="#a3a3a3" stop-opacity="0.33"/><stop offset="0.51" stop-color="#9b9b9b" stop-opacity="0.19"/><stop offset="0.67" stop-color="#959595" stop-opacity="0.08"/><stop offset="0.83" stop-color="#929292" stop-opacity="0.02"/><stop offset="1" stop-color="#919191" stop-opacity="0"/></linearGradient></defs><circle class="cls-1" cx="32.33" cy="32.33" r="32.13"/><circle class="cls-2" cx="32.33" cy="32.33" r="32.13"/><path class="cls-3" d="M36.94,36a17.79,17.79,0,0,1-4.14,2.45,12.75,12.75,0,0,1-4.43.84,8.94,8.94,0,0,1-4-.92,6.4,6.4,0,0,1-2-9.87,7.72,7.72,0,0,1,4.21-2.3l2.75-.61c1.46-.3,2.76-.53,3.83-.84s2.22-.54,3.44-.92a6.85,6.85,0,0,0-.92-3.44c-.53-.69-1.68-1.07-3.44-1.07a7.27,7.27,0,0,0-3.37.61A5.52,5.52,0,0,0,27,21.74a11.61,11.61,0,0,1-1.15,1.6,1.93,1.93,0,0,1-1.45.39,2.66,2.66,0,0,1-1.69-.62,1.85,1.85,0,0,1-.68-1.6,4.76,4.76,0,0,1,1.07-3,7.55,7.55,0,0,1,3.52-2.45,15,15,0,0,1,5.81-.91,16.27,16.27,0,0,1,6,.91A5.59,5.59,0,0,1,41.6,19a12.35,12.35,0,0,1,.92,5.28v6.66a13.25,13.25,0,0,0,.54,3.44,11.94,11.94,0,0,1,.53,2.3,2.24,2.24,0,0,1-.84,1.68,3,3,0,0,1-1.91.77,2.28,2.28,0,0,1-1.76-.85,13.47,13.47,0,0,1-1.84-2.44m-.53-8.27a30.84,30.84,0,0,1-3.75,1c-1.61.38-2.76.61-3.45.76a4.28,4.28,0,0,0-1.83,1,2.27,2.27,0,0,0-.84,2,3.08,3.08,0,0,0,1.07,2.29,3.8,3.8,0,0,0,2.68.92,6.29,6.29,0,0,0,3.13-.77,4.83,4.83,0,0,0,2.15-2,8.69,8.69,0,0,0,.76-4.36Z"/><circle class="cls-4" cx="15.64" cy="47" r="2.52"/><circle class="cls-5" cx="23.98" cy="47" r="2.52"/><circle class="cls-6" cx="32.33" cy="47" r="2.52"/><circle class="cls-7" cx="40.67" cy="47" r="2.52"/><circle class="cls-8" cx="49.03" cy="47" r="2.52"/></svg>