<svg id="Layer_1" data-name="Layer 1" xmlns="http://www.w3.org/2000/svg" xmlns:xlink="http://www.w3.org/1999/xlink" viewBox="0 0 64.67 64.67"><defs><style>.cls-1{fill:url(#linear-gradient);}.cls-2{fill:#fff;}.cls-3{fill:red;}</style><linearGradient id="linear-gradient" x1="12.04" y1="58.83" x2="52.35" y2="6.2" gradientUnits="userSpaceOnUse"><stop offset="0" stop-color="#ff3636"/><stop offset="1" stop-color="red"/></linearGradient></defs><circle class="cls-1" cx="32.33" cy="32.33" r="32.18"/><path class="cls-2" d="M53.45,44a23.82,23.82,0,0,1-4.1,5.41,19.71,19.71,0,0,1-2.17,1.93,15.85,15.85,0,0,1-1.51,1.07,13.92,13.92,0,0,1-1.47.92,24.3,24.3,0,0,1-22.26.77,25.29,25.29,0,0,1-3.89-2.32v0a20.58,20.58,0,0,1-1.64-1.32,22.82,22.82,0,0,1-3.06-3.24,23.82,23.82,0,0,1-4.57-9.62l1.51,0c.87,0,1.71,0,2.58,0s1.52.06,2.29.08l.58,0v-.07c0-1.74,0-3.52,0-5.26a.39.39,0,0,1,.18-.37c2.52-1.89,5-3.76,7.52-5.67a.3.3,0,0,1,.43,0c2.41,1.87,4.84,3.72,7.26,5.57a.42.42,0,0,1,.18.38c0,2.52,0,5,0,7.57,1.25.24,2.49.52,3.68.84,4.24,1.09,7.34,1.79,10.24,2.28,1.49.26,3,.5,4.5.66,1.19.12,2.38.24,3.56.34Z"/><circle class="cls-2" cx="32.33" cy="32.33" r="24.14"/><path class="cls-3" d="M53.45,44a23.82,23.82,0,0,1-4.1,5.41,19.71,19.71,0,0,1-2.17,1.93,15.85,15.85,0,0,1-1.51,1.07,13.92,13.92,0,0,1-1.47.92,24.3,24.3,0,0,1-22.26.77,25.29,25.29,0,0,1-3.89-2.32v0a20.58,20.58,0,0,1-1.64-1.32,22.82,22.82,0,0,1-3.06-3.24,23.82,23.82,0,0,1-4.57-9.62l1.51,0c.87,0,1.71,0,2.58,0s1.52.06,2.29.08l.58,0v-.07c0-1.74,0-3.52,0-5.26a.39.39,0,0,1,.18-.37c2.52-1.89,5-3.76,7.52-5.67a.3.3,0,0,1,.43,0c2.41,1.87,4.84,3.72,7.26,5.57a.42.42,0,0,1,.18.38c0,2.52,0,5,0,7.57,1.25.24,2.49.52,3.68.84,4.24,1.09,7.34,1.79,10.24,2.28,1.49.26,3,.5,4.5.66,1.19.12,2.38.24,3.56.34Z"/></svg>