<svg id="Layer_1" data-name="Layer 1" xmlns="http://www.w3.org/2000/svg" xmlns:xlink="http://www.w3.org/1999/xlink" viewBox="0 0 64.67 64.67"><defs><style>.cls-1{fill:url(#linear-gradient);}.cls-2{fill:#fff;}</style><linearGradient id="linear-gradient" x1="54.65" y1="9.15" x2="10.02" y2="55.52" gradientUnits="userSpaceOnUse"><stop offset="0" stop-color="#2772af"/><stop offset="1" stop-color="#0a437c"/></linearGradient></defs><circle class="cls-1" cx="32.33" cy="32.33" r="32.18"/><path class="cls-2" d="M34.84,44.79H30.68L43.14,31.48a5.47,5.47,0,0,0,1.39-1.81,4.37,4.37,0,0,0,.53-2,2.91,2.91,0,0,0-3-3,3.14,3.14,0,0,0-2.35,1,4.13,4.13,0,0,0-1.06,2.66H33.24a8.28,8.28,0,0,1,1-3.94,7.54,7.54,0,0,1,2-2.45A8.61,8.61,0,0,1,39,20.41a11.23,11.23,0,0,1,3.3-.53,10.47,10.47,0,0,1,3.19.42,8.39,8.39,0,0,1,2.77,1.39A5.89,5.89,0,0,1,50.17,24a6.59,6.59,0,0,1,.74,3.3,8,8,0,0,1-.32,2.34,8.15,8.15,0,0,1-1,1.92,7.06,7.06,0,0,1-1.39,1.6c-.53.53-1.06,1.27-1.59,1.81l-4.48,5.21H52v4.48H34.84Z"/><path class="cls-2" d="M30.05,33.83a6.21,6.21,0,0,0-1.6-1.18A6.55,6.55,0,0,0,26.53,32v-.11A7,7,0,0,0,29.41,30a4.94,4.94,0,0,0,1.06-3.3,5.2,5.2,0,0,0-.74-3,8.53,8.53,0,0,0-1.92-1.92,13.68,13.68,0,0,0-2.66-.85,13.45,13.45,0,0,0-2.88-.32H12.69V44.69h9.58a18.74,18.74,0,0,0,3.41-.32,9.11,9.11,0,0,0,3-1.18,5.47,5.47,0,0,0,2-2.12,6.29,6.29,0,0,0,.75-3.31A4.71,4.71,0,0,0,31,35.64,3.68,3.68,0,0,0,30.05,33.83ZM18.33,25.2h2.88a6.39,6.39,0,0,1,2.77.53,2,2,0,0,1,.95,1.81,2.32,2.32,0,0,1-.85,1.92,4.5,4.5,0,0,1-2.55.64H18.44V25.2Zm7,13.42a1.86,1.86,0,0,1-1,.85,5.64,5.64,0,0,1-1.28.42,6.28,6.28,0,0,1-1.38.11h-3.3V34.46h3.19a7.5,7.5,0,0,1,3,.54,2.16,2.16,0,0,1,1.17,2A5.12,5.12,0,0,1,25.36,38.62Z"/></svg>