<svg id="Layer_1" data-name="Layer 1" xmlns="http://www.w3.org/2000/svg" xmlns:xlink="http://www.w3.org/1999/xlink" viewBox="0 0 64.67 64.67"><defs><style>.cls-1{fill:url(#linear-gradient);}.cls-2{fill:none;}.cls-3{fill:#fff;}.cls-4{opacity:0.75;}.cls-5{opacity:0.5;}</style><linearGradient id="linear-gradient" x1="32.33" y1="64.84" x2="32.33" y2="0.98" gradientUnits="userSpaceOnUse"><stop offset="0" stop-color="#329cf4"/><stop offset="1" stop-color="#0968c0"/></linearGradient></defs><circle class="cls-1" cx="32.33" cy="32.33" r="32.18"/><circle class="cls-2" cx="32.33" cy="32.33" r="32.18"/><path class="cls-3" d="M12.29,32H12a2.1,2.1,0,0,1-1.83-2.33A22.36,22.36,0,0,1,46.27,14.83a2.09,2.09,0,1,1-2.6,3.28A18,18,0,0,0,32.4,14.2a18.18,18.18,0,0,0-18,16A2.08,2.08,0,0,1,12.29,32Z"/><g class="cls-4"><path class="cls-3" d="M30.72,54.66h-.17A22.36,22.36,0,0,1,10.3,35.74c0-.09,0-.19-.05-.28a2.1,2.1,0,0,1,4.15-.58,2.23,2.23,0,0,1,0,.23A18.07,18.07,0,0,0,30.89,50.48a2.09,2.09,0,0,1-.17,4.18Z"/></g><g class="cls-5"><path class="cls-3" d="M36.38,54.34A2.1,2.1,0,0,1,36,50.19a18.2,18.2,0,0,0,7.68-3.55,2.09,2.09,0,0,1,2.59,3.29,22.49,22.49,0,0,1-9.45,4.37A3,3,0,0,1,36.38,54.34Z"/></g><path class="cls-3" d="M32.4,41.82A9.45,9.45,0,1,1,39.47,26.1a2.1,2.1,0,0,1-3.14,2.78,5.26,5.26,0,1,0,0,7,2.1,2.1,0,0,1,3.1,2.82A9.44,9.44,0,0,1,32.4,41.82Z"/></svg>