<svg id="Layer_1" data-name="Layer 1" xmlns="http://www.w3.org/2000/svg" xmlns:xlink="http://www.w3.org/1999/xlink" viewBox="0 0 64.67 64.67"><defs><style>.cls-1{fill:url(#linear-gradient);}.cls-2,.cls-3,.cls-4{fill:#fff;}.cls-2{opacity:0.7;}.cls-2,.cls-3{isolation:isolate;}.cls-3{opacity:0.4;}</style><linearGradient id="linear-gradient" x1="54.65" y1="9.15" x2="10.02" y2="55.52" gradientUnits="userSpaceOnUse"><stop offset="0" stop-color="#00a8e8"/><stop offset="1" stop-color="#063776"/></linearGradient></defs><circle class="cls-1" cx="32.33" cy="32.33" r="32.18"/><path id="_Path_" data-name=" Path " class="cls-2" d="M15.28,19.35l6.59-5.43A1.36,1.36,0,0,1,23,13.65l11.46,2.88a1.3,1.3,0,0,1,.94,1.55c0,.05-.05.16-.05.22l-3,6.53a1.22,1.22,0,0,1-.94.72L22.26,27a1.19,1.19,0,0,1-1.05-.33l-6-5.37a1.36,1.36,0,0,1-.11-1.83A.26.26,0,0,0,15.28,19.35Z"/><path id="_Path_2" data-name=" Path 2" class="cls-3" d="M32.51,27.93l1.77-4.43a1,1,0,0,1,.55-.61l8.86-5.15a1.29,1.29,0,0,1,1.66.34l4.27,5.48a1.25,1.25,0,0,1-.22,1.77.41.41,0,0,1-.23.11l-13,6.48a1.28,1.28,0,0,1-1.56-.33l-2-2.38A1.16,1.16,0,0,1,32.51,27.93Z"/><path id="_Path_3" data-name=" Path 3" class="cls-2" d="M23.76,29.48l5.48-2.32a1.25,1.25,0,0,1,1.6.55L35,34.86a1.33,1.33,0,0,1-.45,1.77l-.38.16L28.57,38a1.44,1.44,0,0,1-.83-.11l-5.65-3a1.3,1.3,0,0,1-.55-1.72v-.06l1.66-2.93A.81.81,0,0,1,23.76,29.48Z"/><path id="_Path_4" data-name=" Path 4" class="cls-3" d="M12,26.77l7.87,1.05A1.26,1.26,0,0,1,21,29.26c0,.06-.06.17-.06.22L18.77,36a1.29,1.29,0,0,1-1.6.83c-.12-.06-.17-.06-.28-.11L12,33.8a1.15,1.15,0,0,1-.61-.88l-.78-4.65a1.25,1.25,0,0,1,1.06-1.44A.84.84,0,0,1,12,26.77Z"/><path id="_Path_5" data-name=" Path 5" class="cls-2" d="M16.39,43l3.27-6.21a1.29,1.29,0,0,1,1.71-.55.06.06,0,0,1,.06.06l7.36,4.54a1.21,1.21,0,0,1,.61,1.22l-.49,4.2a1.25,1.25,0,0,1-1.17,1.11L21.26,48a1.16,1.16,0,0,1-1-.34l-3.55-3.15A1.36,1.36,0,0,1,16.39,43Z"/><path id="_Path_6" data-name=" Path 6" class="cls-4" d="M31.51,39.45l-.67,2.22a1.3,1.3,0,0,0,.61,1.49l1.11.61a1.26,1.26,0,0,0,1.5-.16l3-2.88a1.14,1.14,0,0,0,.39-.94v-.72a1.26,1.26,0,0,0-1.27-1.28.46.46,0,0,0-.28.06l-3.49.72A1.36,1.36,0,0,0,31.51,39.45Z"/><path id="_Path_7" data-name=" Path 7" class="cls-2" d="M36.82,34.63,43.08,47a1.3,1.3,0,0,0,1.72.56c.05,0,.05-.06.11-.06l8.58-5.26a1.3,1.3,0,0,0,.5-1.66l-3.1-6.2a1.22,1.22,0,0,0-.33-.44L45.69,30a1.31,1.31,0,0,0-1.33-.16l-6.93,3.1a1.26,1.26,0,0,0-.66,1.66A0,0,0,0,0,36.82,34.63Z"/><path id="_Path_8" data-name=" Path 8" class="cls-3" d="M31.34,45.21l2.44.33a1.2,1.2,0,0,1,.88.56l1.61,2.38a1.3,1.3,0,0,1-.33,1.77,1.56,1.56,0,0,1-.56.22l-4,.56a1.26,1.26,0,0,1-1.44-1.11V46.49a1.26,1.26,0,0,1,1.28-1.28A.1.1,0,0,1,31.34,45.21Z"/><path id="_Path_9" data-name=" Path 9" class="cls-2" d="M36.94,45.54h0A1.3,1.3,0,0,0,38,46.82l1.33.16a1.25,1.25,0,0,0,1.44-1.1,2.51,2.51,0,0,0-.05-.61l-.17-.45A1.36,1.36,0,0,0,39.1,44l-1.17.28A1.25,1.25,0,0,0,36.94,45.54Z"/><path id="_Path_10" data-name=" Path 10" class="cls-3" d="M47.79,30l.83.72a1.31,1.31,0,0,0,1.83-.16.69.69,0,0,0,.22-.45l.22-.77A1.24,1.24,0,0,0,50.56,28l-.56-.6a1.29,1.29,0,0,0-1.82,0c-.06,0-.06.11-.11.11l-.5.66A1.3,1.3,0,0,0,47.79,30Z"/></svg>