<svg id="Layer_1" data-name="Layer 1" xmlns="http://www.w3.org/2000/svg" xmlns:xlink="http://www.w3.org/1999/xlink" viewBox="0 0 64.67 64.67"><defs><style>.cls-1{fill:url(#linear-gradient);}.cls-2{fill:#fff;}.cls-3{fill:#fd9914;}</style><linearGradient id="linear-gradient" x1="54.65" y1="9.15" x2="10.02" y2="55.52" gradientUnits="userSpaceOnUse"><stop offset="0" stop-color="#4198f7"/><stop offset="1" stop-color="#2677e2"/></linearGradient></defs><circle class="cls-1" cx="32.33" cy="32.33" r="32.18"/><path class="cls-2" d="M49.8,39.7a3,3,0,0,0-.72-1.28,2.38,2.38,0,0,0-1.82-.78,4.07,4.07,0,0,0-.63,0,4.58,4.58,0,0,0-.53.11,2.69,2.69,0,0,0-1.84,2,11.36,11.36,0,0,0-.1,1.27,8.65,8.65,0,0,1-.5,2.92,8.81,8.81,0,0,1-4.36,4.72,8.94,8.94,0,0,1-5.59.58A8.5,8.5,0,0,1,30.66,48a6.69,6.69,0,0,1-.72-.65c-.29-.3-.6-.64-.86-.95a8.7,8.7,0,0,1-1.38-2.51,10.24,10.24,0,0,1-.56-4,11.34,11.34,0,0,1,.51-3.07c.1-.37.19-.69.19-.73s-.16-.18-.26-.15a8,8,0,0,0-1.3,3,7.28,7.28,0,0,0-.21,1.68,12.65,12.65,0,0,0,.18,3.21l.06.23a20.16,20.16,0,0,0,.92,2.59,11.82,11.82,0,0,0,2,2.81h0A11.11,11.11,0,0,0,31.1,51a13.18,13.18,0,0,0,2.72,1.33,2.39,2.39,0,0,1,.65.28c0,.11-.52.1-1.29,0a10.89,10.89,0,0,1-1.92-.37A11.15,11.15,0,0,1,29,51.38,11.27,11.27,0,0,1,25.63,49,11.68,11.68,0,0,1,23.09,45a12.33,12.33,0,0,1-.39-7.85A11.6,11.6,0,0,1,23.57,35a12,12,0,0,1,4.07-4.77c1-.68,1.68-.83,2.23-.52a1.49,1.49,0,0,1,.41,1.4,4,4,0,0,1-1.17,2,5.94,5.94,0,0,0-.48.61c-.05.15.1.32.29.36a6.4,6.4,0,0,0,1.75-.15,7.13,7.13,0,0,0,3.51-2.11A6.45,6.45,0,0,0,36,29.12a7.82,7.82,0,0,0,.39-2.72c0-.52.06-.71.41-.91a26.06,26.06,0,0,1,4-1.46l1.59-.48.7-.22s0,0,0-.09S43,23,42.83,23a4.86,4.86,0,0,1-2.22-1c-.26-.24-.11-.32.27-.15a5,5,0,0,0,2.18.51c2.21.17,3.86-.34,4.93-1.52a3,3,0,0,0,.44-.62,2.22,2.22,0,0,0-.09-2,2.41,2.41,0,0,0-.9-.8A6,6,0,0,0,45.1,17c-.48,0-.67-.06-.74-.23a4.17,4.17,0,0,1-.07-.66,2.8,2.8,0,0,0-.17-1,5.58,5.58,0,0,0-1.44-2.3,6.92,6.92,0,0,0-2.86-1.67,7,7,0,0,0-2-.48,7.58,7.58,0,0,0-1.83,0,27.76,27.76,0,0,0-3.4.66,24.44,24.44,0,0,0-6.09,2.88,32.21,32.21,0,0,0-3.79,3.06c-.6.55-.78.7-.86.68a8.56,8.56,0,0,0-2.79-.4,9,9,0,0,0-3.55.47,7.15,7.15,0,0,0-3.41,2.08A4.73,4.73,0,0,0,11,21.94c-.19.47-.22.56-.18.71.1.39.48.38,1.63,0a5.86,5.86,0,0,1,1.93-.49,2.45,2.45,0,0,1,1.17.3,1.54,1.54,0,0,1,.94,1.43,2.72,2.72,0,0,1-.45,1.4,28,28,0,0,0-1.2,2.95,22.93,22.93,0,0,0-.75,3.28A13.33,13.33,0,0,0,13.88,34a16,16,0,0,0,.23,3.68,18.18,18.18,0,0,0,1.08,3.8,17,17,0,0,0,1.9,3.61A19.66,19.66,0,0,0,23,50.91a28.46,28.46,0,0,0,3.67,1.78,20.73,20.73,0,0,0,2.93.84l.79.14c.24,0,2.68.34,3.78.35a19,19,0,0,0,2.63-.23A22.27,22.27,0,0,0,40.1,53a28,28,0,0,0,4-1.74,12.36,12.36,0,0,0,4.05-4,16.38,16.38,0,0,0,1-2.1,15.19,15.19,0,0,0,.62-2.54A12.89,12.89,0,0,0,49.8,39.7Zm-11-22.24a.37.37,0,0,1-.34-.16.37.37,0,0,1,0-.57.4.4,0,0,1,.63,0A.42.42,0,0,1,38.8,17.46Zm-2.71.16a2.15,2.15,0,0,1,1.6-1.81,1.82,1.82,0,0,1,1,0,.16.16,0,0,1,.08.14c0,.09,0,.12-.13.15a1.53,1.53,0,0,0-1.25,1.29,1.46,1.46,0,0,0,.52,1.42,1.48,1.48,0,0,0,1.12.41c.26,0,.34,0,.38.06s0,.23-.36.4a1.92,1.92,0,0,1-1.79,0A2.11,2.11,0,0,1,36.09,17.62Z"/><path class="cls-3" d="M46.32,36a3.1,3.1,0,0,0-.88-1.2,2.23,2.23,0,0,0-1.86-.53,3.8,3.8,0,0,0-1.06.3,2.69,2.69,0,0,0-1.47,2.27,11.24,11.24,0,0,0,.1,1.29,10.08,10.08,0,0,1,0,3,8.85,8.85,0,0,1-3.44,5.38,8.18,8.18,0,0,1-5.23,1.37,8.87,8.87,0,0,1-2.49-.6,6.69,6.69,0,0,0,.72.65,8.5,8.5,0,0,0,3.05,1.31,8.94,8.94,0,0,0,5.59-.58A8.81,8.81,0,0,0,43.66,44a8.65,8.65,0,0,0,.5-2.92,11.36,11.36,0,0,1,.1-1.27,2.69,2.69,0,0,1,1.84-2,4.58,4.58,0,0,1,.53-.11A10.66,10.66,0,0,0,46.32,36Z"/></svg>