<svg id="Layer_1" data-name="Layer 1" xmlns="http://www.w3.org/2000/svg" xmlns:xlink="http://www.w3.org/1999/xlink" viewBox="0 0 64.67 64.67"><defs><style>.cls-1{fill:#fff;}.cls-2{fill:url(#linear-gradient);}.cls-3{fill:#ed1163;}</style><linearGradient id="linear-gradient" x1="54.65" y1="9.15" x2="10.02" y2="55.52" gradientUnits="userSpaceOnUse"><stop offset="0" stop-color="#ff4591"/><stop offset="1" stop-color="#ed1163"/></linearGradient></defs><circle class="cls-1" cx="32.33" cy="32.33" r="32.18"/><circle class="cls-2" cx="32.33" cy="32.33" r="32.18"/><path class="cls-1" d="M15.65,16.51h0S15.63,16.16,15.65,16.51Z"/><path class="cls-1" d="M49.06,28.52c.15,14.39-16.6,25.61-16.72,25.7h0c-.13-.09-16.87-11.31-16.72-25.7.09-9,.07-11.43,0-12h6.06v4.41h3l0-4.41h6.06v4.41h3V16.51H39.9l0,4.41h3V16.51H49C49,17.09,49,19.54,49.06,28.52Z"/><path class="cls-1" d="M49.06,16.51h0C49,16.16,49.06,16.51,49.06,16.51Z"/><path class="cls-3" d="M39.22,32.43c-.06,6.37-6.88,11.24-6.88,11.24s-6.86-4.87-6.88-11.24c0-5.85,5.65-6.55,6.88-6.55S39.28,26.58,39.22,32.43Z"/><path class="cls-1" d="M36.6,32.78c0,3.8-4.26,7.3-4.26,7.3s-4.26-3.5-4.26-7.3a4.26,4.26,0,0,1,8.52,0Z"/></svg>