<svg id="Layer_1" data-name="Layer 1" xmlns="http://www.w3.org/2000/svg" xmlns:xlink="http://www.w3.org/1999/xlink" viewBox="0 0 64.67 64.67"><defs><style>.cls-1{fill:url(#linear-gradient);}.cls-2{fill:#fff;}</style><linearGradient id="linear-gradient" x1="54.23" y1="9.59" x2="11.13" y2="54.36" gradientUnits="userSpaceOnUse"><stop offset="0" stop-color="#ed9e5d"/><stop offset="1" stop-color="#ca7a28"/></linearGradient></defs><circle class="cls-1" cx="32.33" cy="32.33" r="32.18"/><path class="cls-2" d="M37.47,18.65c-6.84-.13-5.53-.13-10.52,0-4.71.13-7.16.48-9.14,1.65-2.76,1.62-4.61,3-4.61,5.13v14s-.26,2.38,3.69,4.62,14.85,2,14.85,2S41,46.34,45.16,45s6.31-2.63,6.31-4.47v-3a1.14,1.14,0,0,0-1.13-1.13H36.52a1.69,1.69,0,0,0-1.68,1.69V40a1.41,1.41,0,0,1-1.41,1.4H30.72a1.53,1.53,0,0,1-1.54-1.53V34.22A1.23,1.23,0,0,1,30.42,33h19a2.05,2.05,0,0,0,2-2.05V23.52S51.55,18.93,37.47,18.65Zm-2.7,8.59a2,2,0,0,1-2,2H31.24a2,2,0,0,1-2-2V24.53a2,2,0,0,1,2-2h1.53a2,2,0,0,1,2,2Z"/></svg>