<?xml version="1.0" encoding="utf-8"?>
<!-- Generator: Adobe Illustrator 27.8.1, SVG Export Plug-In . SVG Version: 6.00 Build 0)  -->
<svg version="1.1" id="Layer_1" xmlns="http://www.w3.org/2000/svg" xmlns:xlink="http://www.w3.org/1999/xlink" x="0px" y="0px"
	 viewBox="0 0 32 32" style="enable-background:new 0 0 32 32;" xml:space="preserve">
<style type="text/css">
	.st0{fill:#FD8F0C;}
	.st1{fill:#FFFFFF;}
</style>
<circle class="st0" cx="16" cy="16" r="15"/>
<g>
	<path class="st1" d="M17,22.4c1.3,0.6,2.6,1.2,4,1.7c0.1-0.1,0-0.1,0-0.1c-0.3-0.7-0.4-1.4-0.3-2.2c0.1-0.9,0.3-1.8,0.7-2.6
		c0.1-0.1,0.1-0.2,0.2-0.4c0.2-0.4,0.5-0.6,1-0.8c0.3-0.1,0.7-0.1,1-0.1c0.3,0,0.5,0.1,0.7,0.4c0.2,0.2,0.3,0.5,0.4,0.7
		c0.3,0.7,0.4,1.5,0.4,2.3c0,0.5-0.1,1-0.2,1.4c-0.2,0.8-0.6,1.4-1.3,1.9c-0.4,0.2-0.8,0.3-1.2,0.3c-0.2,0-0.4-0.1-0.7-0.1
		c-0.1,0-0.2,0-0.3,0.1c0,0,0,0.1-0.1,0.1C21.2,25,21.1,25,21,25c-0.8-0.1-1.5-0.3-2.1-0.6c-0.9-0.4-1.7-0.8-2.6-1.2
		c-0.2-0.1-0.3-0.1-0.5-0.1c-0.1,0.2-0.1,0.3,0,0.5c0,0.3,0,0.6,0,0.9c0,0.3-0.2,0.4-0.4,0.5c-0.2,0-0.4,0-0.5-0.2
		c-0.1-0.2-0.1-0.4-0.1-0.6c0-0.3,0-0.5,0-0.8c0-0.3-0.1-0.4-0.5-0.4c-0.2,0-0.3,0.1-0.4,0.2c-0.4,0.3-0.9,0.5-1.4,0.8
		c-1.2,0.7-2.6,0.9-3.9,0.5c-1-0.3-1.6-1.4-1.5-2.1c0-0.5,0.1-1,0.4-1.4c0.4-0.6,1-1.2,1.6-1.6c0.6-0.4,1.2-0.7,1.9-1
		c0.3-0.1,0.5-0.2,0.8-0.2c0.2,0,0.3,0,0.5,0.1c0.3,0.2,0.3,0.4,0,0.6c-0.1,0.1-0.3,0.2-0.5,0.2c-0.6,0.2-1.2,0.4-1.7,0.7
		c-0.5,0.3-1,0.6-1.3,1C8.3,21,8.1,21.4,8,21.8c-0.1,0.6,0.1,1.1,0.6,1.3c0.2,0.1,0.5,0.2,0.7,0.2c0.9,0.1,1.8,0,2.6-0.4
		c0.6-0.3,1.1-0.6,1.6-1.1c0.2-0.2,0.5-0.4,0.7-0.6c0.2-0.2,0.3-0.4,0.4-0.6c0.1-0.4,0.1-0.7,0.2-1.1c0-0.2,0-0.3-0.2-0.2
		c-0.1,0-0.3,0-0.4,0c-0.1,0-0.3,0-0.4-0.1c-0.1-0.1-0.1-0.2,0-0.3c0.1-0.1,0.1-0.1,0.2-0.1c0.2-0.1,0.4-0.1,0.7-0.2
		c0.3-0.1,0.6-0.2,0.9-0.4c0.2-0.2,0.3-0.2,0.5,0.1c0.1,0.2,0.3,0.2,0.5,0.3c0.6,0.2,1.3,0.4,1.9,0.5c0.4,0.1,0.7,0.2,1.1,0.4
		c0.2,0.1,0.3,0.1,0.4,0.3c0.1,0.1,0.1,0.2,0.1,0.3c0,0.2-0.1,0.3-0.2,0.5c-0.3,0.3-0.5,0.6-0.9,0.8c-0.4,0.2-0.9,0.5-1.4,0.7
		C17.4,22.1,17.2,22.2,17,22.4z M24.2,21.4c0-0.7-0.1-1.3-0.2-1.8c-0.1-0.3-0.2-0.5-0.4-0.7c-0.1-0.1-0.2-0.2-0.4-0.1
		c-0.5,0.1-0.8,0.4-1,0.8c-0.5,1-0.7,2.1-0.5,3.3c0,0.3,0.1,0.5,0.3,0.7c0.3,0.4,0.7,0.6,1.2,0.3c0.4-0.2,0.6-0.5,0.7-0.9
		C24.1,22.4,24.2,21.8,24.2,21.4z M15.6,21.2c0,0.2,0,0.3,0,0.5c0,0.2,0,0.2,0.2,0.1c0.4-0.1,0.9-0.3,1.3-0.4
		c0.6-0.2,1.1-0.4,1.6-0.8c0.2-0.2,0.2-0.2,0-0.4c0,0-0.1,0-0.1,0c-0.5-0.2-1-0.4-1.5-0.5c-0.4-0.1-0.7-0.2-1.1-0.2
		c-0.2,0-0.2,0-0.3,0.2C15.7,20.2,15.6,20.7,15.6,21.2z"/>
	<path class="st1" d="M21.6,10.6c-0.1,0.5-0.3,1.2-0.9,1.6c-0.8,0.7-1.8,1.2-2.8,1.6c-0.2,0.1-0.4,0.2-0.7,0.3
		C17,14.2,17,14.3,17,14.4c0,0.4,0,0.8,0,1.2c0,0.5,0,0.9-0.2,1.3c-0.1,0.3-0.3,0.4-0.6,0.4c-0.2,0-0.3-0.1-0.3-0.3
		c-0.1-0.2-0.1-0.4-0.1-0.6c0-0.5,0-1.1-0.1-1.6c0-0.4,0-0.4-0.4-0.3c-0.4,0-0.7,0.1-1.1,0.3C13,15.1,12,15.6,11,16.2
		c-0.3,0.2-0.6,0.3-0.9,0.5c-0.2,0.1-0.4,0.1-0.6,0.2c-0.3,0.1-0.6-0.1-0.8-0.4c-0.2-0.2-0.2-0.5-0.3-0.8c-0.2-0.7-0.3-1.3-0.4-2
		c0-0.1,0-0.3-0.1-0.4c0-0.2-0.1-0.4-0.3-0.6c-0.1-0.1-0.2-0.1-0.2-0.2c-0.1-0.2-0.1-0.3,0-0.4c0.4-0.4,0.6-0.9,0.7-1.5
		c0.1-0.4,0.2-0.5-0.4-0.6c-0.3,0-0.4-0.3-0.5-0.5c0-0.1,0-0.1,0.1-0.2C7.7,9.1,7.9,9,8.2,8.8C8.7,8.6,9.3,8.4,9.8,8
		C9.9,8,10,8,10.1,8.1c0.3,0.4,0.7,0.3,1.1,0.2c0.5-0.1,1-0.2,1.5-0.3c0.3-0.1,0.5-0.1,0.8-0.1c0.2,0,0.3,0,0.2,0.2
		c-0.1,0.5-0.3,0.8-0.8,0.9c-0.7,0.2-1.4,0.4-2.1,0.5c-0.2,0-0.4,0-0.6,0.1c-0.4,0.1-0.6,0.3-0.7,0.7c-0.1,0.2-0.1,0.4-0.2,0.7
		c0,0.1,0,0.2,0.1,0.2c0.2,0,0.5,0,0.7-0.1c0.7-0.1,1.4-0.2,2.2-0.3c0.3,0,0.5,0,0.8,0c0.1,0,0.3,0,0.3,0.2c0.1,0.2,0,0.4-0.1,0.5
		c-0.1,0.1-0.3,0.2-0.5,0.2c-0.6,0.1-1.2,0.2-1.7,0.3c-0.5,0.1-1,0.1-1.5,0.3c-0.3,0.1-0.3,0.1-0.3,0.4c0,0.8,0.1,1.6,0.3,2.4
		c0.1,0.4,0.1,0.4,0.5,0.3c0.6-0.2,1.2-0.4,1.8-0.6c1-0.4,1.9-0.7,2.9-0.9c0.1,0,0.2-0.1,0.4-0.1c0.2,0,0.2-0.1,0.2-0.3
		c0,0,0-0.1,0-0.1c0-1,0.1-2,0.2-3c0-0.4,0.1-0.7,0.1-1.1c0-0.3,0-0.3-0.3-0.3c-0.2,0-0.4-0.2-0.4-0.4c0-0.2,0.1-0.4,0.3-0.5
		c0.5-0.2,0.9-0.5,1.3-0.8C16.8,7,16.9,7,17,7.1c0.1,0.1,0.3,0.2,0.4,0.3c0.1,0.2,0.2,0.2,0.4,0.3C18.2,7.8,18.6,8,19,8.1
		c0.6,0.2,1.1,0.4,1.6,0.8c0.1,0.1,0.3,0.2,0.4,0.3C21.4,9.5,21.6,9.9,21.6,10.6z M16.7,13.1c0.1,0,0.2,0,0.3,0
		c0.8-0.3,1.5-0.7,2.3-1.1c0.4-0.2,0.7-0.5,0.9-0.9c0.3-0.4,0.1-1.1-0.3-1.3c-0.8-0.4-1.5-0.7-2.4-0.9C17.1,8.7,17,8.8,17,9.3
		c-0.1,0.8-0.1,1.7-0.2,2.5C16.7,12.2,16.7,12.6,16.7,13.1z"/>
	<path class="st1" d="M22.1,14.2c0-1.2,0.1-2.5,0.2-3.7c0.1-0.7,0.1-1.3,0.2-2c0-0.3,0.1-0.5,0.1-0.8c0.1-0.5,0.3-0.6,0.8-0.6
		c0.1,0,0.3,0,0.4,0.1c0.2,0,0.2,0.1,0.2,0.3c-0.1,0.4-0.2,0.7-0.2,1.1c-0.3,1.1-0.3,2.2-0.3,3.3c0,1.1,0,2.1-0.1,3.2
		c0,0.3,0,0.7-0.1,1c0,0.1,0,0.1,0,0.2c-0.1,0.5-0.5,0.6-0.9,0.5c-0.1,0-0.1-0.1-0.2-0.2c0-0.2-0.1-0.4-0.1-0.6
		C22.1,15.4,22.1,14.8,22.1,14.2z"/>
</g>
</svg>
