<?xml version="1.0" encoding="utf-8"?>
<!-- Generator: Adobe Illustrator 25.2.1, SVG Export Plug-In . SVG Version: 6.00 Build 0)  -->
<svg version="1.1" id="Layer_1" xmlns="http://www.w3.org/2000/svg" xmlns:xlink="http://www.w3.org/1999/xlink" x="0px" y="0px"
	 viewBox="0 0 32 32" style="enable-background:new 0 0 32 32;" xml:space="preserve">
<style type="text/css">
	.st0{fill:#2A586A;}
	.st1{fill:#FFFFFF;}
	.st2{fill:#6EC7BB;}
	.st3{fill:#E0E1E5;}
	.st4{fill:#AAE7DE;}
</style>
<circle class="st0" cx="16" cy="16" r="15"/>
<g>
	<path class="st1" d="M19.05,9c0,0.86-0.01,1.72,0.01,2.58c0.01,0.35-0.11,0.45-0.45,0.44c-1.72-0.02-3.44-0.01-5.15,0
		c-0.32,0-0.48-0.05-0.48-0.43c0.02-1.74,0.01-3.48,0-5.22c0-0.29,0.06-0.43,0.4-0.43c1.76,0.01,3.52,0.01,5.29,0
		c0.33,0,0.4,0.12,0.4,0.42C19.04,7.24,19.05,8.12,19.05,9z"/>
	<path class="st2" d="M8.98,12.96c0.86,0,1.72,0.01,2.58-0.01c0.34-0.01,0.47,0.1,0.46,0.45c-0.01,1.72-0.02,3.44,0,5.15
		c0,0.39-0.15,0.48-0.51,0.48c-1.7-0.01-3.39-0.01-5.09,0c-0.37,0-0.5-0.11-0.49-0.49c0.02-1.7,0.02-3.39,0-5.09
		c-0.01-0.42,0.15-0.52,0.54-0.51C7.31,12.97,8.14,12.96,8.98,12.96z"/>
	<path class="st3" d="M19.05,16.03c0,0.84-0.01,1.67,0.01,2.51c0.01,0.36-0.11,0.51-0.49,0.51c-1.72-0.01-3.43-0.01-5.15,0
		c-0.35,0-0.46-0.14-0.46-0.47c0.01-1.72,0.01-3.43,0-5.15c0-0.33,0.1-0.47,0.45-0.47c1.72,0.01,3.43,0.01,5.15,0
		c0.38,0,0.5,0.14,0.49,0.51C19.03,14.31,19.05,15.17,19.05,16.03z"/>
	<path class="st4" d="M26.06,16.07c0,0.84-0.01,1.67,0,2.51c0.01,0.34-0.11,0.47-0.46,0.47c-1.72-0.01-3.43-0.01-5.15,0
		c-0.39,0-0.49-0.15-0.48-0.51c0.01-1.69,0.01-3.39,0-5.08c0-0.37,0.12-0.5,0.49-0.5c1.7,0.01,3.39,0.02,5.09,0
		c0.42,0,0.53,0.16,0.52,0.54C26.05,14.35,26.06,15.21,26.06,16.07z"/>
	<path class="st2" d="M19.05,23c0,0.86-0.02,1.72,0.01,2.57c0.01,0.37-0.11,0.49-0.49,0.49c-1.69-0.02-3.39-0.02-5.08,0
		c-0.41,0-0.52-0.14-0.52-0.53c0.02-1.69,0.02-3.39,0-5.08c0-0.38,0.12-0.49,0.49-0.49c1.72,0.02,3.43,0.01,5.15,0
		c0.36,0,0.45,0.13,0.44,0.46C19.03,21.28,19.05,22.14,19.05,23z"/>
	<path class="st2" d="M23.08,12.02c-0.86,0-1.72-0.01-2.58,0.01c-0.34,0.01-0.53-0.05-0.52-0.46c0.02-1.72,0.01-3.44,0-5.15
		c0-0.33,0.09-0.47,0.45-0.47c0.95,0.02,1.9-0.02,2.84,0.01c1.43,0.06,2.72,1.35,2.78,2.79c0.04,0.95,0,1.89,0.02,2.84
		c0.01,0.37-0.15,0.45-0.47,0.44C24.75,12.01,23.92,12.02,23.08,12.02z"/>
	<path class="st3" d="M12.03,9c0,0.84-0.02,1.67,0.01,2.51c0.01,0.41-0.14,0.53-0.54,0.53c-1.67-0.02-3.35-0.02-5.02,0
		c-0.39,0-0.55-0.11-0.54-0.52c0.02-0.92-0.02-1.85,0.02-2.77C6,7.38,7.39,6,8.74,5.95c0.92-0.03,1.85,0.01,2.78-0.01
		c0.42-0.01,0.53,0.16,0.52,0.55C12.01,7.32,12.03,8.16,12.03,9z"/>
	<path class="st1" d="M8.98,19.97c0.86,0,1.72,0.01,2.58-0.01c0.33-0.01,0.46,0.08,0.46,0.44c-0.02,1.74-0.02,3.48,0,5.21
		c0,0.35-0.1,0.46-0.45,0.45c-0.86-0.02-1.72,0.02-2.57-0.02c-1.77-0.07-3.03-1.39-3.05-3.16c-0.01-0.81,0.02-1.63-0.01-2.44
		c-0.01-0.37,0.09-0.49,0.47-0.48C7.27,19.99,8.12,19.97,8.98,19.97z"/>
	<path class="st1" d="M25.92,19.97c-1.98,1.97-3.94,3.94-5.93,5.92c0-1.85,0-3.74,0-5.62c0-0.23,0.1-0.31,0.31-0.31
		C22.19,19.97,24.08,19.97,25.92,19.97z"/>
</g>
</svg>
