<svg id="Layer_1" data-name="Layer 1" xmlns="http://www.w3.org/2000/svg" xmlns:xlink="http://www.w3.org/1999/xlink" viewBox="0 0 64.67 64.67"><defs><style>.cls-1{fill:url(#linear-gradient);}.cls-2{fill:#fabc00;}.cls-3{fill:#3e85f4;}.cls-4{fill:#32aa50;}.cls-5{fill:#e84233;}</style><linearGradient id="linear-gradient" x1="51.32" y1="6.35" x2="13.35" y2="58.32" gradientUnits="userSpaceOnUse"><stop offset="0" stop-color="#fff"/><stop offset="0.99" stop-color="#d8dfe5"/></linearGradient></defs><path class="cls-1" d="M64.51,32.33a32.18,32.18,0,0,1-64.35,0A32.17,32.17,0,0,1,55.08,9.59,32,32,0,0,1,64.51,32.33Z"/><path class="cls-2" d="M20.44,28.2l-7.09-5.45c-.18.37-.35.75-.52,1.13a21.64,21.64,0,0,0,0,16.91c.18.42.37.82.57,1.23l7-5.52a13.68,13.68,0,0,1,0-8.3Z"/><path class="cls-3" d="M53.56,32.33a32.19,32.19,0,0,1-.24,4.29,16.26,16.26,0,0,1-1.11,4.28,21.45,21.45,0,0,1-3.89,6.78,15.46,15.46,0,0,1-1.15,1.14l-7.05-5.39a10.79,10.79,0,0,0,4.33-6.81H32.72V28.28H53.16A20.76,20.76,0,0,1,53.56,32.33Z"/><path class="cls-4" d="M47.17,48.82a18.94,18.94,0,0,1-4.4,2.87c-.46.22-.92.43-1.38.62a21.89,21.89,0,0,1-23.88-4.63c-.41-.42-.81-.84-1.19-1.29A21.36,21.36,0,0,1,13.4,42l7-5.52a13,13,0,0,0,12.5,9.07A13.47,13.47,0,0,0,37.06,45a11.08,11.08,0,0,0,3.06-1.52Z"/><path class="cls-5" d="M47.23,16.19l-6.36,6.35a10.29,10.29,0,0,0-8-3.44,13,13,0,0,0-10.13,4.8,13.49,13.49,0,0,0-2.34,4.3l-7.09-5.45a21.67,21.67,0,0,1,3.56-5.14l.6-.62a21.93,21.93,0,0,1,23.88-4.63A19.7,19.7,0,0,1,47.23,16.19Z"/></svg>