<svg id="Layer_1" data-name="Layer 1" xmlns="http://www.w3.org/2000/svg" xmlns:xlink="http://www.w3.org/1999/xlink" viewBox="0 0 64.67 64.67"><defs><style>.cls-1{fill:url(#linear-gradient);}.cls-2{fill:#fff;}</style><linearGradient id="linear-gradient" x1="54.23" y1="9.59" x2="11.13" y2="54.36" gradientUnits="userSpaceOnUse"><stop offset="0" stop-color="#7a54ef"/><stop offset="1" stop-color="#612ace"/></linearGradient></defs><circle class="cls-1" cx="32.33" cy="32.33" r="32.18"/><path class="cls-2" d="M40.88,41.69l-.22.13a3.91,3.91,0,0,1-5.4-1.16,4,4,0,0,1-.55-1.37,4.66,4.66,0,0,1,1.15-4.59,3.84,3.84,0,0,1,4.59-.62l.41.24c.1-.53.1-.53.67-.53H43c.28,0,.4.08.4.37v7.92a4.09,4.09,0,0,1-4.09,4,4.86,4.86,0,0,1-3.4-1.17A7.25,7.25,0,0,1,35,43.86c-.17-.23-.13-.38.18-.45.59-.15,1.17-.32,1.75-.49a.4.4,0,0,1,.46.18,2.08,2.08,0,0,0,2.93.21,2,2,0,0,0,.2-.21A1.7,1.7,0,0,0,40.88,41.69ZM37.09,38a1.94,1.94,0,0,0,1.84,2.05H39A2,2,0,0,0,39,36a1.94,1.94,0,0,0-1.91,2,.28.28,0,0,0,0,.09Z"/><path class="cls-2" d="M32.76,23.63a3,3,0,0,1,2.5-.93,2.88,2.88,0,0,1,2.19,1.18,7.92,7.92,0,0,1,1.34-.95,3.25,3.25,0,0,1,4.28,1.67,3.21,3.21,0,0,1,.27,1.29V31c0,.33-.11.42-.42.41H41.27c-.29,0-.39-.1-.39-.4V26.42a1.42,1.42,0,0,0-1.36-1.48,1.32,1.32,0,0,0-.28,0,1.42,1.42,0,0,0-1.19,1.2,5.61,5.61,0,0,0,0,.58V31c0,.28-.09.38-.38.38H36c-.31,0-.42-.08-.42-.41V26.62a2.3,2.3,0,0,0-.18-.9A1.34,1.34,0,0,0,33.82,25a1.48,1.48,0,0,0-1.07,1.43v4.66c0,.27-.1.34-.34.34H30.66c-.26,0-.35-.11-.32-.35V23.31c0-.31.07-.43.4-.41h1.57c.33,0,.51.06.45.43A.87.87,0,0,0,32.76,23.63Z"/><path class="cls-2" d="M13.84,23.72a3.25,3.25,0,0,1,5.58,1.48,3.35,3.35,0,0,1,.07.71v5c0,.34-.09.44-.42.43H17.46c-.31,0-.39-.1-.39-.4V26.66a1.64,1.64,0,0,0-3.26-.28V31c0,.33-.1.43-.42.42H11.74c-.24,0-.35-.06-.35-.33V19.43a.32.32,0,0,1,.27-.37h0l1.75-.46c.27-.08.37,0,.37.28v4.53C13.81,23.48,13.83,23.56,13.84,23.72Z"/><path class="cls-2" d="M53.08,28H46.84a2,2,0,0,0,1.6,1.47,2.27,2.27,0,0,0,2-.55.43.43,0,0,1,.36-.1c.61.14,1.21.31,1.82.47.28.08.24.22.11.4a4.52,4.52,0,0,1-2.16,1.62,4.79,4.79,0,0,1-5.41-1.49,4.32,4.32,0,0,1-.49-4.6,4.18,4.18,0,0,1,3.57-2.53,4.38,4.38,0,0,1,4.73,2.84A4.25,4.25,0,0,1,53.08,28Zm-6.25-1.83h3.84a2,2,0,0,0-2-1.43,1.92,1.92,0,0,0-1.81,1.43Z"/><path class="cls-2" d="M20.38,27.11a4.4,4.4,0,0,1,4.31-4.47h.21a4.48,4.48,0,0,1,.34,9H24.9a4.39,4.39,0,0,1-4.52-4.23Zm4.53-2.05a2.05,2.05,0,0,0-.09,4.1h.09a2.06,2.06,0,0,0,0-4.12Z"/><path class="cls-2" d="M26.48,42.47a4.44,4.44,0,1,1,4.46-4.41,4.45,4.45,0,0,1-4.46,4.41Zm2-4.42a2,2,0,1,0-2,2,2,2,0,0,0,2-2v0Z"/><path class="cls-2" d="M53.28,38a4.53,4.53,0,1,1-4.64-4.41h.12a4.39,4.39,0,0,1,4.52,4.24Zm-2.53,0a2,2,0,1,0-2,2h0A2,2,0,0,0,50.75,38.08Z"/><path class="cls-2" d="M19.51,35.91V39.2a.82.82,0,0,0,.79.77,5.75,5.75,0,0,0,.83,0c.22,0,.33.08.32.32v1.65c0,.16,0,.31-.22.31A7.46,7.46,0,0,1,19,42.09a2.61,2.61,0,0,1-1.84-2.5V32.54c0-.29.1-.39.38-.38h1.74c.23,0,.31.08.3.3v1c0,.29.06.4.38.38s.82,0,1.23,0c.23,0,.33.07.33.31V35.6c0,.26-.1.33-.35.33C20.58,35.91,20.07,35.91,19.51,35.91Z"/></svg>