<svg id="Layer_1" data-name="Layer 1" xmlns="http://www.w3.org/2000/svg" xmlns:xlink="http://www.w3.org/1999/xlink" viewBox="0 0 64.67 64.67"><defs><style>.cls-1{fill:url(#linear-gradient);}.cls-2{fill:#fff;}</style><linearGradient id="linear-gradient" x1="54.65" y1="9.15" x2="10.02" y2="55.52" gradientUnits="userSpaceOnUse"><stop offset="0" stop-color="#2ee4ed"/><stop offset="1" stop-color="#1dbece"/></linearGradient></defs><circle class="cls-1" cx="32.33" cy="32.33" r="32.18"/><polygon class="cls-2" points="31.77 18.67 40.95 27.45 39.19 27.64 39.19 35.06 24.55 35.06 24.55 27.45 22.8 27.45 31.77 18.67"/><path class="cls-2" d="M45.05,15a18.54,18.54,0,0,0-26.16,1.56,18.75,18.75,0,0,0,0,24.79L32.16,54.38,45.05,41.31A18.74,18.74,0,0,0,45.05,15ZM32,40.33A12.3,12.3,0,1,1,44.26,28,12.25,12.25,0,0,1,32,40.33Z"/><polygon class="cls-2" points="40.95 27.45 39.19 27.64 39.19 35.06 24.55 35.06 24.55 27.45 22.8 27.45 31.77 18.67 40.95 27.45"/><polygon class="cls-2" points="40.95 27.45 39.19 27.64 39.19 35.06 24.55 35.06 24.55 27.45 22.8 27.45 31.77 18.67 40.95 27.45"/></svg>