<svg id="Layer_1" data-name="Layer 1" xmlns="http://www.w3.org/2000/svg" xmlns:xlink="http://www.w3.org/1999/xlink" viewBox="0 0 64.67 64.67"><defs><style>.cls-1{fill:url(#linear-gradient);}.cls-2{fill:#fff;}.cls-3{fill:#f7c201;}</style><linearGradient id="linear-gradient" x1="54.65" y1="9.15" x2="10.02" y2="55.52" gradientUnits="userSpaceOnUse"><stop offset="0" stop-color="#e0344c"/><stop offset="1" stop-color="#ba0e20"/></linearGradient></defs><circle class="cls-1" cx="32.33" cy="32.33" r="32.18"/><path class="cls-2" d="M39.67,21.57a6,6,0,0,1,1-3.22A51.81,51.81,0,0,0,31,25a38.31,38.31,0,0,0-6.43,7.45L23,34.84l4.83-18.71H22.58c-1.21,0-1.41,0-1.61,1.21C19.76,22.57,18.55,27.8,17.15,33c-1.21,4.83-2.42,10.06-3.62,14.88-.21.61,0,.61.6.61h5.23c.4,0,.6-.2.8-.61l2.21-8.85S24,44.9,24.59,47.91c0,.41.4.61.8.61H31c.81,0,.81,0,.61-.81-1-3.62-3-11.26-3-11.26s2-5,8.85-9.86c1-.8,2.21-1.4,3.42-2.21A3.94,3.94,0,0,1,39.67,21.57Z"/><path class="cls-3" d="M41.08,21.16a4.81,4.81,0,0,1,5-4.82,4.72,4.72,0,0,1,4.62,4.82,4.93,4.93,0,0,1-5,4.83A4.86,4.86,0,0,1,41.08,21.16Z"/><path class="cls-2" d="M43.29,36.25c0-.2.2-.2.4-.2H45.5c-.2,1-.4,2-.6,2.81-.4,2.21-1,4.23-1.41,6.24-.2,1-.6,3.22-.6,3.22H40.68l.2-1.21a7.83,7.83,0,0,1-1.21,1,1.57,1.57,0,0,1-2.21-.8,4.45,4.45,0,0,1-.2-2.82,7.93,7.93,0,0,1,1-2.81,4.15,4.15,0,0,1,1.61-1.61,1.7,1.7,0,0,1,2.22.8A36.77,36.77,0,0,0,43.29,36.25ZM39.47,46.1a.74.74,0,0,0,1,.41c1-.61,1.2-2.22,1.2-3.22a.81.81,0,0,0-.4-.81c-.2-.2-.6,0-1,.41A3.29,3.29,0,0,0,39.47,46.1Z"/><path class="cls-2" d="M50.53,45.9a3.85,3.85,0,0,1-1.81,2.21,3.47,3.47,0,0,1-2.81.21A2.18,2.18,0,0,1,44.5,46.1a6.5,6.5,0,0,1,1.61-4.62,3.51,3.51,0,0,1,3.42-1.21,1.93,1.93,0,0,1,1.61,1.81,7.17,7.17,0,0,1-.2,2.82.2.2,0,0,1-.21.2H47.32c-.21,0-.61,0-.61.2v1a.87.87,0,0,0,1.41.41c.4-.2.4-.41.6-.61A5.05,5.05,0,0,1,50.53,45.9Zm-2.21-2.21c.81,0,.81,0,.81-.8h0c0-.41-.41-.61-.81-.61-.8,0-1.21.81-1.41,1.41Z"/><circle class="cls-2" cx="35.25" cy="47.31" r="1.21"/></svg>