<svg id="Layer_1" data-name="Layer 1" xmlns="http://www.w3.org/2000/svg" xmlns:xlink="http://www.w3.org/1999/xlink" viewBox="0 0 64.67 64.67"><defs><style>.cls-1{fill:#fff;}.cls-2{fill:url(#linear-gradient);}</style><linearGradient id="linear-gradient" x1="54.65" y1="9.15" x2="10.02" y2="55.52" gradientUnits="userSpaceOnUse"><stop offset="0" stop-color="#1e1e1e"/><stop offset="1"/></linearGradient></defs><circle class="cls-1" cx="32.33" cy="32.33" r="32.18"/><circle class="cls-2" cx="32.33" cy="32.33" r="32.18"/><path class="cls-1" d="M39,38.21c2.48,2.9,4.9,5.8,7.4,8.62a5.38,5.38,0,0,0,3.86,1.81c.15,0,.3.17.45.27-.15.09-.31.28-.46.28-1.71,0-3.42,0-5.13-.13a4,4,0,0,1-2.61-1.37A34.57,34.57,0,0,1,40,44.77c-1.18-1.56-2.31-3.18-3.44-4.79a1.23,1.23,0,0,0-1.13-.59,19.87,19.87,0,0,1-2.18-.09c-.37,0-.56.07-.55.48.06,2.33.08,4.68.19,7,.06,1.33.4,1.61,1.72,1.76.31,0,.63,0,.94.09a1.59,1.59,0,0,1,.45.26,2.74,2.74,0,0,1-.46.29,1,1,0,0,1-.35,0H27.1a.54.54,0,0,1-.18,0l-.64-.29a2,2,0,0,1,.62-.27c1.43-.09,1.74-.26,1.86-1.66.16-1.78.16-3.58.21-5.36,0-.75,0-1.49,0-2.27H25.58l-10.44-.06s-.09,0-.12,0L14.25,39a2.68,2.68,0,0,1,.71-.23c1.3-.08,1.59-.29,1.76-1.59a23,23,0,0,0,.19-3q0-7.5,0-15c0-.44,0-.87-.06-1.3-.12-1.27-.54-1.68-1.82-1.79-.27,0-.55,0-.82,0-.09,0-.24-.16-.23-.21a.43.43,0,0,1,.23-.28,1.14,1.14,0,0,1,.46,0h8.5a.7.7,0,0,1,.29,0,4,4,0,0,1,.42.3,1.26,1.26,0,0,1-.41.25c-.45.06-.9.06-1.35.12a1.14,1.14,0,0,0-1.07,1A5.29,5.29,0,0,0,21,18q0,8.27,0,16.52a6.54,6.54,0,0,0,.08.88c.19,1.43.52,1.91,1.92,2a31.66,31.66,0,0,0,4.87-.06C28.87,37.3,29,37,29,36c0-2.7,0-5.39-.08-8.09,0-1.46-.55-1.87-2-1.94a3.39,3.39,0,0,1-.64,0,1.38,1.38,0,0,1-.42-.24,2.55,2.55,0,0,1,.43-.3.8.8,0,0,1,.35,0c3,0,6,0,9,0a15.81,15.81,0,0,1,3,.32c4.32.87,5.38,4.85,4.1,8A9.65,9.65,0,0,1,40.29,37C39.91,37.37,39.51,37.72,39,38.21ZM32.7,32.28h0c0,1.55,0,3.11,0,4.66,0,.45.16.71.63.75.74.06,1.48.14,2.23.19a3.23,3.23,0,0,0,3.35-2.19,7.57,7.57,0,0,0,.56-3.7c-.25-3.53-2.48-5.4-6-5.09-.54.05-.81.23-.79.84C32.72,29.25,32.7,30.77,32.7,32.28Z"/></svg>