<svg id="Layer_1" data-name="Layer 1" xmlns="http://www.w3.org/2000/svg" xmlns:xlink="http://www.w3.org/1999/xlink" viewBox="0 0 64.67 64.67"><defs><style>.cls-1{fill:url(#linear-gradient);}.cls-2{fill:#fff;}</style><linearGradient id="linear-gradient" x1="54.65" y1="9.15" x2="10.02" y2="55.52" gradientUnits="userSpaceOnUse"><stop offset="0" stop-color="#44444c"/><stop offset="1" stop-color="#2d2d36"/></linearGradient></defs><circle class="cls-1" cx="32.33" cy="32.33" r="32.18"/><path class="cls-2" d="M12.07,44.94H8.85a.17.17,0,0,1-.1,0s0-.09-.05-.13,0-.1.05-.11.06,0,.09,0H15.3s.1.07.14.11-.09.13-.13.13Z"/><path class="cls-2" d="M52.88,45.22h-3s-.06,0-.08,0,0-.09-.05-.13a.43.43,0,0,1,0-.11s.06,0,.09,0h5.91s.08.07.13.11-.09.13-.13.13Z"/><path class="cls-2" d="M17.15,43.87a1,1,0,0,1,.2.27,11.24,11.24,0,0,0,.38,1.11c.11-.36.2-.72.33-1.07a.86.86,0,0,1,.21-.27c.07.08.18.16.21.26.13.35.22.71.36,1.17.07-.26.13-.42.17-.58s.08-.34.14-.5,0-.41.36-.32c-.17.56-.33,1.12-.5,1.68,0,.05-.13.12-.16.1a.3.3,0,0,1-.18-.17c-.14-.39-.25-.8-.4-1.28-.15.47-.26.87-.39,1.25,0,.08-.12.14-.19.21s-.16-.12-.19-.2C17.34,45,17.19,44.48,17,44Z"/><path class="cls-2" d="M30.85,44.83a.9.9,0,0,1,1-1,1,1,0,1,1,0,1.92A.91.91,0,0,1,30.85,44.83Zm.94.72a.71.71,0,0,0,.72-.71.73.73,0,0,0-.68-.76.74.74,0,0,0,0,1.47Z"/><path class="cls-2" d="M40,45.24c0-.37,0-.74,0-1.11,0-.07.08-.14.12-.21s.12.13.12.2c0,.47,0,1,0,1.42a.88.88,0,0,1,0,.16c-.22.1-.34,0-.45-.18a7.24,7.24,0,0,0-.83-1.15c0,.26,0,.51,0,.77s.1.47-.1.61l-.13,0V43.94a.34.34,0,0,1,.46.17c.23.39.49.77.75,1.15Z"/><path class="cls-2" d="M28.32,45.78a1,1,0,1,1,1-1A.94.94,0,0,1,28.32,45.78Zm0-.23a.7.7,0,0,0,.7-.73.7.7,0,1,0-1.4,0A.7.7,0,0,0,28.32,45.55Z"/><path class="cls-2" d="M35.39,45.73V43.92c.51,0,1-.12,1.41.34a.93.93,0,0,1,.07,1C36.52,45.83,36,45.73,35.39,45.73Zm.25-.25a.85.85,0,0,0,1-.3.66.66,0,0,0,0-.78.84.84,0,0,0-.93-.23Z"/><path class="cls-2" d="M25.18,43.92c.51,0,1-.13,1.4.34a.84.84,0,0,1,.07,1c-.33.58-.91.47-1.47.47Zm.24,1.56a.88.88,0,0,0,1-.29.69.69,0,0,0,0-.79.86.86,0,0,0-.94-.23Z"/><path class="cls-2" d="M43.16,43.92c.27,0,.5,0,.74,0a.48.48,0,0,1,.49.39.45.45,0,0,1-.29.54l-.12.07.45.76-.06.08a1.28,1.28,0,0,1-.3-.19c-.12-.16-.18-.35-.3-.5s-.16-.1-.25-.15a1,1,0,0,0-.1.24c0,.14,0,.28,0,.42s-.08.1-.12.15-.12-.1-.12-.14C43.16,45,43.16,44.49,43.16,43.92Zm.27.85a4.07,4.07,0,0,0,.65-.23.34.34,0,0,0,0-.28,5.77,5.77,0,0,0-.65-.19Z"/><path class="cls-2" d="M33.44,43.91H34c.26,0,.53,0,.62.35s-.07.54-.4.65l.46.78-.06.08a1.2,1.2,0,0,1-.31-.21c-.12-.16-.2-.36-.31-.52a.32.32,0,0,0-.24-.11s-.09.12-.1.19,0,.31,0,.46-.07.1-.11.15-.13-.11-.13-.17C33.44,45,33.44,44.49,33.44,43.91Zm.28.13v.74a6.13,6.13,0,0,0,.66-.25s0-.23,0-.25A6.57,6.57,0,0,0,33.72,44Z"/><path class="cls-2" d="M40.81,45.68c.24-.54.47-1.08.71-1.61a.26.26,0,0,1,.18-.15.26.26,0,0,1,.18.13,13.64,13.64,0,0,1,.65,1.7c-.09,0-.25-.09-.27-.17-.07-.29-.26-.31-.51-.3s-.56,0-.64.35c0,0-.16.08-.24.13ZM42,45.05l-.34-.84-.33.84Z"/><path class="cls-2" d="M20.35,44.66h.93c0-.21,0-.4,0-.59s.07-.1.1-.15.14.1.14.16c0,.49,0,1,0,1.48,0,.07-.1.13-.16.2l-.09-.06v-.79h-.93c0,.22,0,.43,0,.64s-.08.12-.12.18-.12-.12-.12-.18c0-.49,0-1,0-1.46,0-.06.08-.11.12-.17s.12.12.12.18A5.14,5.14,0,0,1,20.35,44.66Z"/><path class="cls-2" d="M44.9,43.9c.5,0,.44.56.75.75.3-.16.27-.7.81-.77-.13.21-.21.36-.31.49a1.5,1.5,0,0,0-.39,1.16c0,.06-.08.13-.13.2s-.12-.11-.11-.15c.12-.6-.25-1-.53-1.44L44.9,44S44.9,44,44.9,43.9Z"/><path class="cls-2" d="M22.9,44.66c.29-.2.27-.71.8-.77-.33.61-.9,1.06-.65,1.81l-.08,0c-.07,0-.18-.07-.2-.12a5.38,5.38,0,0,0-.17-.89,4.74,4.74,0,0,0-.52-.82C22.64,43.92,22.59,44.47,22.9,44.66Z"/><path class="cls-2" d="M46.88,44.39c.19-.48.49-.62.82-.47a.46.46,0,0,1,.2.7,6.58,6.58,0,0,1-.38.54s-.12,0-.19.05l-.07-.08c.1-.16.19-.33.3-.48s.27-.3.08-.47-.34-.1-.48.1C47.12,44.33,47,44.34,46.88,44.39Z"/><path class="cls-2" d="M37.9,44.84c0,.23,0,.47,0,.71,0,.06-.07.12-.11.18s-.13-.11-.13-.17q0-.73,0-1.47c0-.06.09-.12.13-.17s.11.12.11.18C37.91,44.34,37.9,44.59,37.9,44.84Z"/><circle class="cls-2" cx="47.34" cy="45.6" r="0.13"/><path class="cls-2" d="M45.64,35.38c0,1.69,0,3.38,0,5.07,0,.47.1.58.51.6.2,0,.29,0,.25-.25a4.08,4.08,0,0,1-.09-.69c0-.12.1-.33.18-.34a.62.62,0,0,1,.41.14c.1.07.14.21.22.31a1.78,1.78,0,0,0,1.46.8.94.94,0,0,0,.91-.57.84.84,0,0,0-.32-1c-.48-.36-1-.68-1.48-1-.19-.13-.38-.26-.56-.41a1.64,1.64,0,0,1-.58-1.89,1.69,1.69,0,0,1,1.62-1.09,4.2,4.2,0,0,1,1.16.15.56.56,0,0,0,.57-.07c.22-.17.41-.09.47.17s.18.81.24,1.22c0,.12-.08.24-.12.36-.14-.06-.33-.08-.4-.18a1.9,1.9,0,0,0-1.19-.94,1.34,1.34,0,0,0-.66.08.58.58,0,0,0-.23.95,4.89,4.89,0,0,0,.82.67c.5.37,1.05.69,1.52,1.09a1.71,1.71,0,0,1,.51,1.65,1.76,1.76,0,0,1-1.65,1.48c-.52,0-1.05,0-1.58-.06l-3.36,0a1.28,1.28,0,0,1-.34,0c-.1,0-.24-.13-.25-.22a.33.33,0,0,1,.17-.27c.38-.06.43-.31.43-.63,0-1.79,0-3.59,0-5.38,0-1.17,0-2.33,0-3.5,0-.35-.12-.54-.49-.57a.37.37,0,0,1-.27-.18.41.41,0,0,1,.18-.32c.47-.22.94-.43,1.43-.61s.47-.05.47.33c0,1.73,0,3.45,0,5.17Z"/><path class="cls-2" d="M20.41,36.48v3.68c0,.59.05.64.6.84a.42.42,0,0,1,.22.29.38.38,0,0,1-.26.25c-.92,0-1.85,0-2.77,0a.37.37,0,0,1-.24-.27c0-.09.13-.23.23-.27.57-.19.63-.27.64-.88V32.9a1.48,1.48,0,0,0,0-.21c0-.57-.15-.67-.7-.72a1.85,1.85,0,0,0-2,1c-.11.21-.28.35-.53.24s-.19-.36-.11-.57a10.62,10.62,0,0,1,.5-1.14.52.52,0,0,1,.39-.25c2.15,0,4.3,0,6.45,0a.43.43,0,0,1,.45.3c.17.41.35.81.49,1.23a.48.48,0,0,1-.1.41.63.63,0,0,1-.49-.07,4,4,0,0,1-.47-.6,2,2,0,0,0-2-.41.83.83,0,0,0-.25.63C20.4,34,20.41,35.22,20.41,36.48Z"/><path class="cls-2" d="M30.05,41.13a2.37,2.37,0,0,1-1.5.59,2,2,0,0,1-2.09-1.16,2,2,0,0,1,.72-2.27,3.48,3.48,0,0,1,2-.78.87.87,0,0,1,.4.06.33.33,0,0,1,.1.27.45.45,0,0,1-.22.23,7.14,7.14,0,0,0-.81.31,1.55,1.55,0,0,0-.78,1.82,1,1,0,0,0,.91.78,1.07,1.07,0,0,0,1.1-.68,2.72,2.72,0,0,0,.16-.84c0-.82,0-1.64,0-2.46s-.41-1.18-1.14-1.13a5.94,5.94,0,0,0-1.28.35c-.13,0-.24.16-.37.18s-.36,0-.39-.06a.53.53,0,0,1,0-.46,1.5,1.5,0,0,1,.55-.41,3.93,3.93,0,0,1,2.5-.33,1.57,1.57,0,0,1,1.47,1.77c0,1.12,0,2.25,0,3.37,0,.36-.05.74.47.8a.31.31,0,0,1,.15.24c0,.08-.13.22-.2.22a12.33,12.33,0,0,1-1.49,0C30.21,41.53,30.14,41.29,30.05,41.13Z"/><path class="cls-2" d="M37.89,38.38a3.1,3.1,0,0,1,2.26-3.23,2.91,2.91,0,0,1,2.93.66,2.2,2.2,0,0,1,.35.51.79.79,0,0,1-.3,1.17c-.85.55-1.73,1.06-2.61,1.57-.19.11-.42.13-.54-.1s0-.4.17-.53l1.3-.79c.66-.41.83-.88.5-1.4a1.16,1.16,0,0,0-1.65-.3,1.83,1.83,0,0,0-.72,1,4.35,4.35,0,0,0-.09,2.4,1.91,1.91,0,0,0,3.07,1.19c.21-.14.38-.35.6-.47a.52.52,0,0,1,.45,0,.48.48,0,0,1,0,.45,2.23,2.23,0,0,1-1.36,1A3.19,3.19,0,0,1,37.89,38.38Z"/><path class="cls-2" d="M35.33,39.93l1.37-3.62a.34.34,0,0,0-.26-.5c-.09,0-.2,0-.27-.07s-.18-.17-.17-.26.13-.22.21-.22q1,0,2,0c.08,0,.22.15.21.21s-.13.27-.21.27c-.55,0-.68.45-.84.85l-1.89,4.65c-.09.24-.2.46-.49.48s-.42-.23-.52-.47q-1-2.37-1.94-4.75c-.14-.36-.29-.7-.76-.75a.34.34,0,0,1-.18-.27c0-.08.15-.22.23-.23h2.6c.09,0,.24.14.24.22s-.11.22-.2.27-.52.14-.55.27a1.36,1.36,0,0,0,.1.76c.4,1.06.81,2.11,1.22,3.16Z"/><path class="cls-2" d="M24,36a1.69,1.69,0,0,1,1.57-.87,1.52,1.52,0,0,1,.21,0c.28.09.68.19.63.52a1.89,1.89,0,0,1-.56.79s-.23,0-.33-.09a.78.78,0,0,0-1.23.37,2.31,2.31,0,0,0-.21.86c0,1,0,1.94,0,2.91a.44.44,0,0,0,.4.51c.11,0,.19.17.29.26-.11.08-.21.22-.32.23-.68,0-1.37,0-2.05,0-.1,0-.19-.15-.29-.22.08-.1.15-.25.25-.27a.46.46,0,0,0,.39-.53V36.83a.43.43,0,0,0-.45-.49c-.12,0-.23-.14-.34-.21a1.21,1.21,0,0,1,.28-.31c.43-.2.87-.38,1.31-.55s.45-.06.46.32C24,35.74,24,35.89,24,36Z"/><path class="cls-2" d="M18.53,29.86c-2.75,0-4.65-1.76-4.8-4.75a7.07,7.07,0,0,1,.32-2.58,4.38,4.38,0,0,1,4.1-3.07,7.48,7.48,0,0,1,1.89.17,4,4,0,0,1,3,2.87,6.9,6.9,0,0,1,.1,3.9A4.43,4.43,0,0,1,18.53,29.86Zm.28-9.56A2.72,2.72,0,0,0,16,22,6.88,6.88,0,0,0,16,27.19a2.73,2.73,0,0,0,5.14,0A6.5,6.5,0,0,0,21,21.84,2.41,2.41,0,0,0,18.81,20.3Z"/><path class="cls-2" d="M41.44,28.09c-.4.34-.8.69-1.21,1a3.41,3.41,0,0,1-3.74.32,3.21,3.21,0,0,1-1.44-3.27,2.88,2.88,0,0,1,2.26-2.7,2.78,2.78,0,0,1,2.73.67,1.8,1.8,0,0,1,.34.49.74.74,0,0,1-.26,1.11c-.84.54-1.7,1-2.57,1.53a.54.54,0,0,1-.49-.09c-.16-.19-.05-.4.16-.53l1.23-.74c.69-.43.84-.91.45-1.43a1.1,1.1,0,0,0-1.65-.13,2.44,2.44,0,0,0-.6,1,4,4,0,0,0-.06,2.34,1.79,1.79,0,0,0,2.75,1.19,4.1,4.1,0,0,0,2-2.61,4.2,4.2,0,0,0,0-1.37c0-.11-.22-.2-.34-.29s-.27-.15-.41-.22A1.6,1.6,0,0,1,41,24c.39-.19.8-.35,1.2-.51s.46-.08.48.31v.51c.15-.2.25-.35.36-.47a1.44,1.44,0,0,1,1.78-.27.41.41,0,0,1,.12.7c-.06.07-.13.13-.18.2-.18.28-.38.3-.66.11a.68.68,0,0,0-1,.23,2.59,2.59,0,0,0-.3,1.05c0,.94,0,1.9,0,2.85a.43.43,0,0,0,.41.5c.1,0,.17.18.26.27-.1.07-.2.19-.3.19q-1,0-2,0c-.09,0-.26-.11-.26-.16s.1-.28.17-.3c.37-.06.43-.31.42-.61V28Z"/><path class="cls-2" d="M24.06,19.54a3,3,0,0,1-.47-.1c-.1,0-.24-.12-.25-.2A.31.31,0,0,1,23.5,19c.44-.21.89-.41,1.35-.58s.5-.07.5.36v9.42c0,.16,0,.32,0,.47,0,.31.09.51.43.57a.3.3,0,0,1,.18.25.31.31,0,0,1-.24.2q-1,0-2,0c-.08,0-.24-.13-.23-.17s.11-.27.19-.29a.43.43,0,0,0,.4-.48Z"/><path class="cls-2" d="M48.81,29.86c-.33-.06-.68-.1-1-.19a.59.59,0,0,0-.56.08c-.29.2-.48.11-.55-.24a11.77,11.77,0,0,1-.18-1.19c0-.13.07-.36.15-.38a.53.53,0,0,1,.42.14c.3.26.53.6.84.84a1.24,1.24,0,0,0,1.09.19.8.8,0,0,0,.36-1.37c-.45-.39-1-.7-1.47-1l-.52-.37a1.63,1.63,0,0,1-.65-1.86,1.68,1.68,0,0,1,1.65-1.09,10,10,0,0,1,1.08.15.9.9,0,0,0,.49-.06c.3-.15.43-.12.51.22a10.89,10.89,0,0,1,.22,1.11c0,.11-.06.32-.13.33a.41.41,0,0,1-.36-.12c-.19-.18-.31-.41-.5-.59a1.18,1.18,0,0,0-1.1-.35.62.62,0,0,0-.35,1.1,7.82,7.82,0,0,0,1,.72c.31.21.63.39.92.62a1.81,1.81,0,0,1-1.09,3.32h-.24Z"/><path class="cls-2" d="M32.58,28c.24-.63.49-1.26.73-1.9s.38-1,.56-1.5.1-.53-.32-.62c-.17,0-.36-.1-.29-.31a.46.46,0,0,1,.34-.22c.54,0,1.09,0,1.64,0,.12,0,.24.14.36.21-.11.1-.2.28-.32.3a.73.73,0,0,0-.58.5c-.63,1.57-1.28,3.14-1.92,4.71a2.12,2.12,0,0,1-.14.31.42.42,0,0,1-.77,0c-.16-.32-.29-.65-.42-1-.53-1.28-1.05-2.57-1.57-3.85-.13-.33-.28-.62-.7-.68a.34.34,0,0,1-.2-.27c0-.08.17-.21.26-.21.82,0,1.64,0,2.45,0,.1,0,.19.14.28.22a1.6,1.6,0,0,1-.25.27.82.82,0,0,1-.28.07c-.24.05-.33.21-.25.42.43,1.2.87,2.38,1.31,3.57Z"/><path class="cls-2" d="M28.44,26.22v2.32c0,.32,0,.6.45.66a.31.31,0,0,1,.17.26.32.32,0,0,1-.24.19c-.68,0-1.37,0-2.05,0a.28.28,0,0,1-.21-.18c0-.1.09-.26.16-.27.39-.06.43-.32.43-.64,0-1.16,0-2.33,0-3.49,0-.42-.06-.47-.46-.54-.11,0-.2-.14-.3-.21.08-.09.13-.24.23-.28.44-.21.9-.39,1.36-.57s.45-.06.46.31c0,.81,0,1.63,0,2.44Z"/><path class="cls-2" d="M47,22.25a2.81,2.81,0,0,1-.89,2,.56.56,0,0,1-.24.17.91.91,0,0,1-.33,0c0-.11,0-.25,0-.33.15-.24.34-.44.49-.68a1.61,1.61,0,0,0,.19-.49.24.24,0,0,0-.24-.32c-.59-.1-.78-.3-.77-.77a.77.77,0,0,1,.65-.81.88.88,0,0,1,1,.67A3.12,3.12,0,0,1,47,22.25Z"/><path class="cls-2" d="M27.73,22.73a.82.82,0,0,1-.85-.84.84.84,0,0,1,.86-.84.86.86,0,0,1,.86.85A.83.83,0,0,1,27.73,22.73Z"/></svg>