<?xml version="1.0" encoding="utf-8"?>
<!-- Generator: Adobe Illustrator 27.8.1, SVG Export Plug-In . SVG Version: 6.00 Build 0)  -->
<svg version="1.1" id="Layer_1" xmlns="http://www.w3.org/2000/svg" xmlns:xlink="http://www.w3.org/1999/xlink" x="0px" y="0px"
	 viewBox="0 0 32 32" style="enable-background:new 0 0 32 32;" xml:space="preserve">
<style type="text/css">
	.st0{fill:#58B4E3;}
	.st1{fill:#FFFFFF;}
</style>
<circle class="st0" cx="16" cy="16" r="15"/>
<g>
	<path class="st1" d="M11.1,10c0.7,0,1.4,0.1,2,0.4c0.5,0.3,1,0.7,1.3,1.2c0.3,0.6,0.5,1.2,0.5,1.8c0,0.6-0.1,1.3-0.5,1.8
		c-0.3,0.5-0.8,1-1.3,1.2c-0.6,0.3-1.3,0.5-2,0.4H7.6v5H6.7V10H11.1z M7.6,16.1H11c0.8,0,1.5-0.2,2.1-0.7c0.5-0.5,0.8-1.2,0.8-1.9
		c0-0.7-0.3-1.4-0.8-1.9c-0.6-0.5-1.3-0.8-2.1-0.7H7.6L7.6,16.1z"/>
	<path class="st1" d="M15.6,10h0.4l4.4,11.5L24.9,10h0.4l-4.6,12h-0.5L15.6,10z"/>
</g>
</svg>
