<svg id="Layer_1" data-name="Layer 1" xmlns="http://www.w3.org/2000/svg" xmlns:xlink="http://www.w3.org/1999/xlink" viewBox="0 0 64.67 64.67"><defs><style>.cls-1{fill:#fff;}.cls-2{fill:url(#linear-gradient);}</style><linearGradient id="linear-gradient" x1="54.65" y1="9.15" x2="10.02" y2="55.52" gradientUnits="userSpaceOnUse"><stop offset="0" stop-color="#d8d5c5"/><stop offset="1" stop-color="#c6c2a7"/></linearGradient></defs><circle class="cls-1" cx="32.33" cy="32.33" r="32.18"/><circle class="cls-2" cx="32.33" cy="32.33" r="32.18"/><path class="cls-1" d="M48.83,46.69c-2.25,3.94-4.88,4.69-8.08,2.44a27.11,27.11,0,0,1-3.56-3,6.78,6.78,0,0,0-6.95-2.25,14.81,14.81,0,0,1-14.65-4.51c-4.32-4.69-5.26-10.14-2.82-16C15,18,19.53,15,25.54,14.38a15.24,15.24,0,0,1,16.9,12.4,13.71,13.71,0,0,1-3,11.64c-.94,1.32-1.13,2.44.56,3.76a11.45,11.45,0,0,1,1.69,1.5C43.76,45.56,45.64,47.25,48.83,46.69ZM35.31,29.78a19.86,19.86,0,0,0-1.69-9A6.73,6.73,0,0,0,27,16.45c-3.19,0-5.07,1.88-6.19,4.51-2.07,4.31-1.88,8.82-1.13,13.52A12.43,12.43,0,0,0,22,40.11c2.82,4,9,3,11.27-.56A19.16,19.16,0,0,0,35.31,29.78Z"/><path class="cls-1" d="M50.71,43.87c-.38-1.69-.56-3.19-1.88-4.32-.38-.38-1.13-.94-1.13-1.5,0-.76,1.51-.57,2.07-.57,3.94,0,4.13.57,2.44,4A21.54,21.54,0,0,1,50.71,43.87Z"/></svg>