<svg id="Layer_1" data-name="Layer 1" xmlns="http://www.w3.org/2000/svg" xmlns:xlink="http://www.w3.org/1999/xlink" viewBox="0 0 64.67 64.67"><defs><style>.cls-1{fill:url(#linear-gradient);}.cls-2{fill:#fff;}</style><linearGradient id="linear-gradient" x1="54.65" y1="9.15" x2="10.02" y2="55.52" gradientUnits="userSpaceOnUse"><stop offset="0" stop-color="#ff4545"/><stop offset="1" stop-color="#e50000"/></linearGradient></defs><circle class="cls-1" cx="32.33" cy="32.33" r="32.18"/><path id="path4032" class="cls-2" d="M27,44.16l1-5H14.51c-.93,8.52,5.75,11.93,14.33,11.93,8.23,0,16.94-2.75,18.88-10.26L27,44.16m-.45-8.5c-4.8-1.52-8.43-4.35-8.43-9.7,0-7.84,7.83-12.33,18.29-12.35,8.87,0,14.74,3.66,13.7,11H37.51c.44-2-.72-3.15-2.88-3.15-1.67,0-3,.86-3.18,1.88-.29,1.46.64,2.38,2.9,3,1.91.52,3.21.87,5.09,1.41,5.34,1.52,7.89,4.71,8.55,8L32.13,37.45Z"/></svg>