<svg id="Layer_1" data-name="Layer 1" xmlns="http://www.w3.org/2000/svg" xmlns:xlink="http://www.w3.org/1999/xlink" viewBox="0 0 64.67 64.67"><defs><style>.cls-1{fill:#fff;}.cls-2{fill:url(#linear-gradient);}</style><linearGradient id="linear-gradient" x1="54.65" y1="9.15" x2="10.02" y2="55.52" gradientUnits="userSpaceOnUse"><stop offset="0" stop-color="#cea165"/><stop offset="1" stop-color="#b88a47"/></linearGradient></defs><circle class="cls-1" cx="32.33" cy="32.33" r="32.18"/><circle class="cls-2" cx="32.33" cy="32.33" r="32.18"/><path class="cls-1" d="M22.92,51.2a50.92,50.92,0,0,1,4.51-3.58c.54-.35,1.55,0,2.33.08A17.63,17.63,0,0,0,39,46.91c2-.8,3.67-2,3.93-4.38a5.15,5.15,0,0,0-3-5.55C37,35.68,34,34.79,31.1,33.77S25.49,32,22.75,30.92A8.69,8.69,0,0,1,17,23.18c-.33-3.57.84-6.88,4.52-9.64s16-2.62,20.14-.39S47.45,19,48,23.66c-1.78,0-3.44.09-5.08-.06-.44,0-1-.7-1.19-1.21-1.72-4.36-4.08-6.07-8.82-6a32.7,32.7,0,0,0-6.47.71,4.52,4.52,0,0,0-3.47,4.3A4.31,4.31,0,0,0,25.4,26c2.33,1.1,4.8,1.93,7.23,2.82,3.35,1.23,6.8,2.23,10.07,3.64,4.47,1.92,6.55,5.46,6.12,10.38-.38,4.43-2.93,7.16-6.89,8.69A25.82,25.82,0,0,1,24.8,52,20.1,20.1,0,0,1,22.92,51.2Z"/><path class="cls-1" d="M18.09,47.89c-.83-2.63-1.59-4.83-2.21-7.07-.28-1,.12-1.72,1.35-1.6.23,0,.46,0,.69,0,3.89,0,4.2.21,4.92,4a1.42,1.42,0,0,1-.44,1.13C21.2,45.42,19.92,46.41,18.09,47.89Z"/></svg>