<svg id="Layer_1" data-name="Layer 1" xmlns="http://www.w3.org/2000/svg" xmlns:xlink="http://www.w3.org/1999/xlink" viewBox="0 0 64.67 64.67"><defs><style>.cls-1{fill:url(#linear-gradient);}.cls-2{fill:url(#linear-gradient-2);}.cls-3{fill:#c93f1f;}.cls-4{fill:#f39200;}.cls-5{fill:#007db0;}</style><linearGradient id="linear-gradient" x1="0.18" y1="32.33" x2="64.49" y2="32.33" gradientUnits="userSpaceOnUse"><stop offset="0" stop-color="#fff"/><stop offset="1" stop-color="#e5e5e5"/></linearGradient><linearGradient id="linear-gradient-2" x1="54.64" y1="9.17" x2="10.03" y2="55.5" gradientUnits="userSpaceOnUse"><stop offset="0" stop-color="#4f6268" stop-opacity="0"/><stop offset="1" stop-color="#37474d" stop-opacity="0.4"/></linearGradient></defs><circle class="cls-1" cx="32.33" cy="32.33" r="32.16"/><circle class="cls-2" cx="32.33" cy="32.33" r="32.16"/><path class="cls-3" d="M25.8,45.7C9.24,37.35,11.71,22.48,16,15.83a31.68,31.68,0,0,0-3.26,3.92h0a18.27,18.27,0,0,0-2.35,14c1.56,6.65,6.26,11.21,10,13.69A26.52,26.52,0,0,0,36.36,52a15.61,15.61,0,0,0,12.26-7.18,17.2,17.2,0,0,0,2-4.43C49.92,41.26,42.1,53.78,25.8,45.7Z"/><path class="cls-4" d="M36.88,45.31a2.54,2.54,0,0,0-.91.13A23.62,23.62,0,0,1,26.19,43a19.64,19.64,0,0,1-6.52-5.35c-9.78-12.65,3-25.56,6.52-27.12-.65.13-1.44.26-2.35.52A21.23,21.23,0,0,0,16,15.83c-.39.53-.79,1.18-1.18,1.7h0a17.9,17.9,0,0,0-2.47,13.56,22.39,22.39,0,0,0,9.78,13.3,25,25,0,0,0,15.51,4.44,15.29,15.29,0,0,0,11.87-6.92,9.7,9.7,0,0,0,.91-1.56.57.57,0,0,1,.13-.39,17.74,17.74,0,0,1,.4-1.83,23.06,23.06,0,0,0-.27-7.43C50.05,35.26,46.4,44.39,36.88,45.31ZM18.36,35.13ZM36.1,45.31Z"/><path class="cls-5" d="M47.57,22.75a14.22,14.22,0,0,1-.91-1.57c-.52-.65-1-1.43-1.43-2a2.94,2.94,0,0,0-4.18-.39A3.08,3.08,0,0,0,40.53,23a16.19,16.19,0,0,1,2.61,4.43,20.26,20.26,0,0,1,1.44,4.83c.26,1.95.52,5.86-1.57,9a8.59,8.59,0,0,1-5.61,3.92h0a5.63,5.63,0,0,1-.65.13h1a13.44,13.44,0,0,0,10.44-6.13A16.36,16.36,0,0,0,50.05,35a9.6,9.6,0,0,0,.26-1.56,9.71,9.71,0,0,0,.13-2.74c-.26-1-.39-2-.65-2.74A16.81,16.81,0,0,0,47.57,22.75Z"/><path class="cls-5" d="M18.36,35.13a19.94,19.94,0,0,1-1-3,11.61,11.61,0,0,1,1.7-8.6c2.47-3.52,5.21-5.74,11.6-5.87,2.09,0,3.65-1,3.91-3.13a3.7,3.7,0,0,0-3.39-4.17,14.13,14.13,0,0,0-2.34-.13h0a17.58,17.58,0,0,0-2.61.26,18.42,18.42,0,0,0-8.48,7.17h0a15.51,15.51,0,0,0-2.08,12,18.42,18.42,0,0,0,4.17,8A15.78,15.78,0,0,1,18.36,35.13Zm0,0Z"/></svg>