<svg id="Layer_1" data-name="Layer 1" xmlns="http://www.w3.org/2000/svg" xmlns:xlink="http://www.w3.org/1999/xlink" viewBox="0 0 64.67 64.67"><defs><style>.cls-1{fill:url(#linear-gradient);}.cls-2{fill:#fff;}</style><linearGradient id="linear-gradient" x1="54.65" y1="9.15" x2="10.02" y2="55.52" gradientUnits="userSpaceOnUse"><stop offset="0" stop-color="#e2404c"/><stop offset="1" stop-color="#c0272d"/></linearGradient></defs><circle class="cls-1" cx="32.33" cy="32.33" r="32.18"/><path class="cls-2" d="M16.91,27.22c1.52,0,3,0,4.56,0a2.22,2.22,0,0,1,2.05,3.09,2.26,2.26,0,0,1-1.33,1,11.83,11.83,0,0,1-2.31.24c-.54,0-.89.17-.75.84.69,3.29,1.77,6.41,4.18,8.89,4.26,4.39,9.43,4.44,13.82.16a21.83,21.83,0,0,0,4.23-6.18c.29-.57.55-1.14.87-1.69.66-1.13,1.22-1.32,2.37-.87s1.28.9,1,2.2c-1.48,5.83-4.27,10.77-9.66,13.85a11.85,11.85,0,0,1-15.06-2.41c-3.2-3.5-4.78-7.77-5.76-12.33-.07-.34-.15-.68-.21-1a1.09,1.09,0,0,0-1.37-1l-.42,0c-2.24.26-2.92-.35-2.88-2.58,0-1.67.56-2.21,2.25-2.24C13.93,27.2,15.42,27.22,16.91,27.22Z"/><path class="cls-2" d="M47,25.2a3.47,3.47,0,1,1,3.5-3.45A3.41,3.41,0,0,1,47,25.2Z"/></svg>