<svg id="Layer_1" data-name="Layer 1" xmlns="http://www.w3.org/2000/svg" xmlns:xlink="http://www.w3.org/1999/xlink" viewBox="0 0 64.67 64.67"><defs><style>.cls-1{fill:url(#linear-gradient);}.cls-2{fill:#fff;}.cls-3{fill:#29abe2;}</style><linearGradient id="linear-gradient" x1="53.88" y1="2.84" x2="12.68" y2="59.24" gradientUnits="userSpaceOnUse"><stop offset="0" stop-color="#353535"/><stop offset="1"/></linearGradient></defs><circle class="cls-1" cx="32.33" cy="32.33" r="32.27"/><path class="cls-2" d="M22.38,46.76c-.95,0-1.69-.47-1.72-1.36h1.15a.5.5,0,0,0,.54.5c.32,0,.52-.16.52-.41,0-.82-2.21-.38-2.2-2,0-.84.69-1.3,1.61-1.3s1.62.48,1.66,1.32H22.78a.48.48,0,0,0-.51-.46c-.26,0-.46.13-.46.4,0,.77,2.19.42,2.19,1.9C24,46.15,23.42,46.76,22.38,46.76Z"/><path class="cls-2" d="M24.83,44.1H24.4v-.89h.43v-.86H25.9v.86h.71v.89H25.9v1.41c0,.21.09.3.33.3h.38v.91h-.54a1.09,1.09,0,0,1-1.24-1.22Z"/><path class="cls-2" d="M28.55,43.16a1.24,1.24,0,0,1,1.08.54v-.49h1.08v3.51H29.63v-.5a1.23,1.23,0,0,1-1.09.55,1.83,1.83,0,0,1,0-3.61Zm.31.93a.88.88,0,1,0,.77.87.79.79,0,0,0-.77-.87Z"/><path class="cls-2" d="M33.91,43.21h1.16l-2.2,5.18H31.71l.81-1.79-1.43-3.39h1.2l.81,2.19Z"/><path class="cls-2" d="M37.82,43.23a1.78,1.78,0,0,1,0,3.54A1.46,1.46,0,0,1,36.46,46v2.38H36V43.28h.44V44A1.45,1.45,0,0,1,37.82,43.23Zm-.08.39A1.39,1.39,0,1,0,39,45a1.25,1.25,0,0,0-1.27-1.37Z"/><path class="cls-2" d="M40.17,42.31a.32.32,0,0,1,.32-.32.32.32,0,0,1,.32.32.32.32,0,0,1-.32.32.33.33,0,0,1-.32-.32Zm.1,1h.44v3.44h-.44Z"/><path class="cls-2" d="M43.18,43.23a1.49,1.49,0,0,1,1.58,1.17h-.47a1,1,0,0,0-1.11-.79,1.41,1.41,0,0,0,0,2.79,1.05,1.05,0,0,0,1.11-.8h.47a1.51,1.51,0,0,1-1.58,1.17,1.77,1.77,0,0,1,0-3.54Z"/><path class="cls-2" d="M45.57,42.06H46v2.76l1.39-1.54H48L46.38,45,48,46.72h-.6L46,45.18v1.54h-.44Z"/><path class="cls-2" d="M50.08,46.77a1.77,1.77,0,0,1,0-3.54,1.54,1.54,0,0,1,1.62,1.6,1.93,1.93,0,0,1,0,.34H48.84a1.19,1.19,0,0,0,1.24,1.23,1.08,1.08,0,0,0,1.11-.77h.46A1.5,1.5,0,0,1,50.08,46.77Zm-1.24-2h2.42a1.12,1.12,0,0,0-1.2-1.2,1.18,1.18,0,0,0-1.22,1.2Z"/><path class="cls-2" d="M53,46.72h-.44V43.28H53v.61a1.18,1.18,0,0,1,1.18-.67v.46H54c-.58,0-1.06.26-1.06,1.12Z"/><path class="cls-3" d="M28.2,16.17c.3.08.38.25.26.51a84.33,84.33,0,0,0-5.17,10.16q-2.25,5.27-4.1,10.7c-.81,2.37-1.56,4.77-2.25,7.17l-.51,1.76-.36,1.07-.12.38a.84.84,0,0,1-1,.6.85.85,0,0,1-.79-.55,6.64,6.64,0,0,1-.32-1.16c-.27-1.41-.52-2.82-.75-4.24q-.85-5.43-1.67-10.84c-.17-1.17-.34-2.34-.49-3.5l-.55-3.71c-.16-1-.33-2-.5-2.95-.08-.47-.15-.93-.23-1.38a1.28,1.28,0,0,1,0-.27.5.5,0,0,0,0-.12h0a1.93,1.93,0,0,1,0-.24A4.89,4.89,0,0,1,9.53,19a.35.35,0,0,1,.35-.37.71.71,0,0,1,.89.63v0c.22,1,.42,1.94.59,2.9q.45,2.82.87,5.61a1.18,1.18,0,0,0,0,.2l.81,5.44.39,2.66c0,.32.09.64.14,1,.15.93.29,1.87.43,2.8.22,1.42.45,2.84.68,4.28l.2,1.33a1,1,0,0,1,0,.1.34.34,0,0,0,0,.1c0,.09.06.13.14.12l.09,0a.09.09,0,0,0,.06-.06c.11-.3.2-.61.29-.92a154.87,154.87,0,0,1,5.94-17Q22.68,25,24.1,22.25c.94-1.82,1.94-3.6,3-5.36a3.82,3.82,0,0,1,.31-.47A.75.75,0,0,1,28.2,16.17Z"/><path class="cls-3" d="M27.5,37.57a5.16,5.16,0,0,1-.95,1.28,2.88,2.88,0,0,1-1.52.89,1.69,1.69,0,0,1-1.62-.58,2.24,2.24,0,0,1-.44-.78,2.44,2.44,0,0,1-.1-.89V37.2c0-.31,0-.66,0-1.06a5.07,5.07,0,0,1,.18-1.09.77.77,0,0,1,.43-.58c.57-.15.88.05.93.59a4.35,4.35,0,0,1,0,.51c0,.09,0,.18,0,.26l0,.75c0,.2,0,.4,0,.6,0,.87.18,1.39.58,1.55s.86,0,1.38-.52a5,5,0,0,0,1-1.29c.16-.34.28-.41.35-.22A1.19,1.19,0,0,1,27.5,37.57Zm-3.16-5a.64.64,0,0,1-.29.13.48.48,0,0,1-.29,0,.38.38,0,0,1-.13-.21,1.53,1.53,0,0,1,0-.3s0-.06,0-.08a1.67,1.67,0,0,1,.08-.32.69.69,0,0,1,.76-.4.43.43,0,0,1,.3.16.33.33,0,0,1,0,.32A1.62,1.62,0,0,1,24.34,32.6Z"/><path class="cls-3" d="M39.44,37.21c.24-.76.41-1.13.52-1.09s.1.25,0,.67-.24.85-.4,1.29a2.59,2.59,0,0,1-.93,1.2,2.84,2.84,0,0,1-1.3.55,3.09,3.09,0,0,1-1.78-.24,2.47,2.47,0,0,1-1-1,4.33,4.33,0,0,1-.54-1.4,11.41,11.41,0,0,1-.8,1.65,4.1,4.1,0,0,1-1.22,1.3,2.53,2.53,0,0,1-1.76.38,2.7,2.7,0,0,1-1.67-.86,4.42,4.42,0,0,1-.87-1.59,8.28,8.28,0,0,1-.35-1.77c-.11-.93-.19-2.17-.24-3.69s0-3.14.05-4.83a29,29,0,0,1,.6-4.73,8.46,8.46,0,0,1,1.43-3.4,1.61,1.61,0,0,1,1.24-.58,1.69,1.69,0,0,1,1.27.54,3.33,3.33,0,0,1,.82,1.86A11.49,11.49,0,0,1,32.31,25a25.05,25.05,0,0,1-1.05,3.79c-.46,1.25-.93,2.38-1.41,3.4s-.89,1.84-1.24,2.45c0,.53.08,1.06.16,1.59a9.51,9.51,0,0,0,.45,1.84,3.61,3.61,0,0,0,.84,1.44,1,1,0,0,0,1.33,0,5.49,5.49,0,0,0,1.35-1.51,10.51,10.51,0,0,0,1-2c-.09-.81-.16-1.89-.21-3.22s0-2.74.06-4.21a25.87,25.87,0,0,1,.56-4.11,7.15,7.15,0,0,1,1.26-2.95,1.48,1.48,0,0,1,1.11-.5,1.54,1.54,0,0,1,1.12.46,2.93,2.93,0,0,1,.74,1.63A10.81,10.81,0,0,1,38,27.4a29.18,29.18,0,0,1-1.52,4.26C35.88,33,35.38,34,35,34.72a13.46,13.46,0,0,0,.14,1.41,8.79,8.79,0,0,0,.39,1.61A3.39,3.39,0,0,0,36.26,39a1.55,1.55,0,0,0,1.91,0A3.37,3.37,0,0,0,39.44,37.21ZM28.87,28.05c0,.36-.07.88-.11,1.57s-.06,1.41-.09,2.15-.07,1.42-.1,1.88a21.67,21.67,0,0,0,1.15-2.52,28.78,28.78,0,0,0,1.2-3.89,27.34,27.34,0,0,0,.7-4.85,4.52,4.52,0,0,0-.47-2.07c-.25-.36-.53-.39-.83-.09a3.85,3.85,0,0,0-.7,1.88q-.42,2.38-.63,4.77Q28.93,27.45,28.87,28.05Zm6.32.89c0,.3-.06.76-.09,1.37S35,31.54,35,32.17s0,1.25-.08,1.66a19.29,19.29,0,0,0,1-2.22A24.84,24.84,0,0,0,37,28.22,24.11,24.11,0,0,0,37.64,24a3.84,3.84,0,0,0-.41-1.82c-.23-.32-.47-.34-.74-.08a3.46,3.46,0,0,0-.63,1.66,41.53,41.53,0,0,0-.55,4.16l-.12,1Z"/><path class="cls-3" d="M49.79,34.49a1.47,1.47,0,0,1,.88-.34,2.16,2.16,0,0,1,.76,0,1.49,1.49,0,0,1,.65.33.39.39,0,0,1,.08.14.24.24,0,0,1,0,.2.32.32,0,0,1-.29.18,1.26,1.26,0,0,1-.28,0l-.26-.12-.15-.08c-.18-.07-.31-.06-.4,0a.51.51,0,0,0-.14.39,1.9,1.9,0,0,0,.38,1,10.87,10.87,0,0,0,.71,1l.24.29c.06.07.24.06.52,0A10.34,10.34,0,0,0,54,36.7c.75-.4,1.12-.52,1.12-.39s-.29.39-.87.74-1,.61-1.28.79-.42.29-.42.33a3,3,0,0,1,.17.6,4,4,0,0,1,.07.92,1.48,1.48,0,0,1-.32.88,1.41,1.41,0,0,1-1,.47,2.31,2.31,0,0,1-1.24-.21,1.22,1.22,0,0,1-.68-.77,1.43,1.43,0,0,1,.34-1.18,3.15,3.15,0,0,1,.75-.66c.11-.06.21-.14.32-.21-.36-.39-.7-.78-1-1.19a5.53,5.53,0,0,1-.32-.46,11.48,11.48,0,0,1-1.19,1.75,4.43,4.43,0,0,1-1.78,1.47,2.07,2.07,0,0,1-1.6-.07c-.53-.24-.83-.87-.89-1.9a5.65,5.65,0,0,1-1.74,2.26,2.58,2.58,0,0,1-1.69.38,1.77,1.77,0,0,1-1.38-.79A2.2,2.2,0,0,1,39.17,38a5,5,0,0,1,.49-1.56,4.1,4.1,0,0,1,.81-1,4.43,4.43,0,0,1,1.11-.75A2.92,2.92,0,0,1,43,34.34a3.47,3.47,0,0,1,1.53.48s0,0,0,0a.71.71,0,0,1,0-.2.46.46,0,0,1,.14-.2,1.08,1.08,0,0,1,.65-.19.62.62,0,0,1,.58.37,4.76,4.76,0,0,1-.12,1.21,4.47,4.47,0,0,0,0,2.34c.2.47.61.5,1.23.08A10.55,10.55,0,0,0,49.42,35,2.07,2.07,0,0,1,49.79,34.49ZM41,39.14a.76.76,0,0,0,.94-.08,4.81,4.81,0,0,0,1-1.07,9.34,9.34,0,0,0,.84-1.39,3.94,3.94,0,0,0,.38-1,1.94,1.94,0,0,0-1.75-.18,2.51,2.51,0,0,0-1.14,1.16,4.57,4.57,0,0,0-.51,1.57A1.16,1.16,0,0,0,41,39.14Zm10.17,1.22a.36.36,0,0,0,.35-.28,1.52,1.52,0,0,0,.07-.6,3.93,3.93,0,0,0-.06-.48.18.18,0,0,0-.12-.13.23.23,0,0,0-.18,0,1.56,1.56,0,0,0-.42.59.66.66,0,0,0,0,.64.75.75,0,0,0,.14.17.41.41,0,0,0,.19.08Z"/></svg>