<svg id="Layer_1" data-name="Layer 1" xmlns="http://www.w3.org/2000/svg" xmlns:xlink="http://www.w3.org/1999/xlink" viewBox="0 0 64.67 64.67"><defs><style>.cls-1{fill:#fff;}.cls-2{fill:none;}.cls-3{fill:url(#linear-gradient);}.cls-4{clip-path:url(#clip-path);}.cls-5{fill:url(#linear-gradient-2);}.cls-6{clip-path:url(#clip-path-2);}.cls-7{fill:url(#linear-gradient-3);}.cls-8{clip-path:url(#clip-path-3);}.cls-9{clip-path:url(#clip-path-4);}.cls-10{clip-path:url(#clip-path-5);}.cls-11{fill:url(#radial-gradient);}.cls-12{clip-path:url(#clip-path-8);}.cls-13{clip-path:url(#clip-path-9);}.cls-14{fill:url(#radial-gradient-2);}.cls-15{opacity:0.5;}.cls-16{clip-path:url(#clip-path-11);}.cls-17{fill:#e3ebf4;}.cls-18{opacity:0.6;}.cls-19{clip-path:url(#clip-path-13);}.cls-20{clip-path:url(#clip-path-15);}.cls-21{clip-path:url(#clip-path-17);}.cls-22{clip-path:url(#clip-path-19);}.cls-23{clip-path:url(#clip-path-23);}.cls-24{clip-path:url(#clip-path-27);}.cls-25{clip-path:url(#clip-path-30);}.cls-26{clip-path:url(#clip-path-33);}.cls-27{clip-path:url(#clip-path-35);}.cls-28{clip-path:url(#clip-path-37);}.cls-29{clip-path:url(#clip-path-39);}.cls-30{clip-path:url(#clip-path-40);}.cls-31{fill:url(#radial-gradient-3);}.cls-32{clip-path:url(#clip-path-42);}.cls-33{clip-path:url(#clip-path-43);}.cls-34{fill:url(#radial-gradient-4);}.cls-35{clip-path:url(#clip-path-45);}.cls-36{clip-path:url(#clip-path-46);}.cls-37{fill:url(#radial-gradient-5);}.cls-38{clip-path:url(#clip-path-48);}.cls-39{clip-path:url(#clip-path-49);}.cls-40{fill:url(#radial-gradient-6);}.cls-41{clip-path:url(#clip-path-51);}.cls-42{clip-path:url(#clip-path-52);}.cls-43{fill:url(#radial-gradient-7);}.cls-44{clip-path:url(#clip-path-54);}.cls-45{clip-path:url(#clip-path-55);}.cls-46{fill:url(#radial-gradient-8);}.cls-47{clip-path:url(#clip-path-57);}.cls-48{clip-path:url(#clip-path-58);}.cls-49{fill:url(#radial-gradient-9);}</style><linearGradient id="linear-gradient" x1="54.65" y1="9.15" x2="10.02" y2="55.52" gradientUnits="userSpaceOnUse"><stop offset="0" stop-color="#404f7a"/><stop offset="1" stop-color="#303d6c"/></linearGradient><clipPath id="clip-path"><path class="cls-1" d="M15.33,27.15c0,5,1.93,8.75,4.44,12.29,3.78,5.34,8,10.46,12,15.64a.69.69,0,0,0,1.11,0c4-5.18,8.23-10.3,12-15.64,2.51-3.54,4.44-7.29,4.44-12.29,0-11.88-8.5-17.84-17-17.84s-17,6-17,17.84"/></clipPath><linearGradient id="linear-gradient-2" x1="28.53" y1="2175.51" x2="48.42" y2="2187.35" gradientTransform="matrix(1, 0, 0, -1, 0, 2204.57)" gradientUnits="userSpaceOnUse"><stop offset="0" stop-color="#487293"/><stop offset="0.07" stop-color="#4b7495"/><stop offset="0.12" stop-color="#547b9b"/><stop offset="0.18" stop-color="#6486a5"/><stop offset="0.23" stop-color="#7c98b4"/><stop offset="0.28" stop-color="#9cb1c8"/><stop offset="0.33" stop-color="#c5d1e1"/><stop offset="0.38" stop-color="#fafbfc"/><stop offset="0.38" stop-color="#fff"/><stop offset="0.41" stop-color="#e9f4fd"/><stop offset="0.46" stop-color="#c9e4f9"/><stop offset="0.51" stop-color="#a9d4f5"/><stop offset="0.57" stop-color="#8cc7f1"/><stop offset="0.62" stop-color="#71bced"/><stop offset="0.69" stop-color="#5bb4ea"/><stop offset="0.76" stop-color="#49afe8"/><stop offset="0.85" stop-color="#3dabe7"/><stop offset="1" stop-color="#39aae6"/></linearGradient><clipPath id="clip-path-2"><path class="cls-2" d="M17.85,26.73a14.6,14.6,0,1,0,14.59-14.6,14.62,14.62,0,0,0-14.59,14.6"/></clipPath><linearGradient id="linear-gradient-3" x1="28.53" y1="2175.51" x2="48.42" y2="2187.35" xlink:href="#linear-gradient-2"/><clipPath id="clip-path-3"><path class="cls-2" d="M19.28,26.23A13.2,13.2,0,1,0,32.48,13a13.21,13.21,0,0,0-13.2,13.19"/></clipPath><clipPath id="clip-path-4"><rect class="cls-2" x="9.42" y="4.21" width="45.82" height="45.82"/></clipPath><clipPath id="clip-path-5"><path class="cls-2" d="M20.25,26.36a12.1,12.1,0,1,0,12.1-12.11,12.11,12.11,0,0,0-12.1,12.11"/></clipPath><radialGradient id="radial-gradient" cx="766.13" cy="996.49" r="0.06" gradientTransform="translate(-187298.37 -243633.56) scale(244.52)" gradientUnits="userSpaceOnUse"><stop offset="0" stop-color="#66a8de"/><stop offset="0.1" stop-color="#63a5db"/><stop offset="0.22" stop-color="#5d9acf"/><stop offset="0.36" stop-color="#5389bc"/><stop offset="0.51" stop-color="#4772a4"/><stop offset="0.66" stop-color="#3b5787"/><stop offset="0.82" stop-color="#2f3b6a"/><stop offset="0.83" stop-color="#2d3867"/><stop offset="0.85" stop-color="#303d6c"/><stop offset="0.88" stop-color="#364c7b"/><stop offset="0.93" stop-color="#416696"/><stop offset="0.97" stop-color="#568fc3"/><stop offset="1" stop-color="#66a8de"/></radialGradient><clipPath id="clip-path-8"><rect class="cls-2" x="20.31" y="15.53" width="24.02" height="20.03"/></clipPath><clipPath id="clip-path-9"><path class="cls-2" d="M44,29.7a.65.65,0,0,0-.37.12c0,.06-.22.16-.28.19a1,1,0,0,0-.25.34c0,.06-.22.06-.28.09s-.19.13-.22.22,0,.07-.09,0l-.07.06-.09.13c-.06.19-.25.44-.31.44s-.09.34-.09.46a.81.81,0,0,0,.12.38v.09l0,.22a.43.43,0,0,0,.13.34,1.37,1.37,0,0,0,.43-.09.31.31,0,0,0,.16-.06A12,12,0,0,0,44,29.7H44m-20,.31s.19.25.28.34a2.47,2.47,0,0,1,.31.56,1.59,1.59,0,0,1,0,.38.43.43,0,0,0,.06.18,2.65,2.65,0,0,0,0,.53c0,.16-.15.6-.15.82s.09.49.15.49.06.19,0,.22-.15.22-.09.22,0,.19,0,.25.06.53.09.66a2.43,2.43,0,0,0,.22.49,1.9,1.9,0,0,0,.09.32.1.1,0,0,0,0,.06l.19.09a1.6,1.6,0,0,0,.38,0c.09,0,0-.09,0-.12s-.07-.25-.13-.28a.66.66,0,0,1,0-.35c0-.06.19-.15.22-.18s0-.28,0-.32,0-.31,0-.43.24-.25.24-.38.32-.21.38-.28a.75.75,0,0,0,.09-.43c0-.07.1-.13.16-.13a1.3,1.3,0,0,0,.15,0s.1-.12.13-.16.12-.37.19-.4a.67.67,0,0,0,.12-.31c0-.07.13-.22.16-.28s.31-.19.34-.19a2.29,2.29,0,0,0,.16-.62c0-.16.09-.38.09-.41s.09-.09.09-.13.1-.21.13-.24a1.6,1.6,0,0,0,.19-.29,1.64,1.64,0,0,1,.06-.25v-.24c-.06-.13-.19-.32-.22-.25s-.22-.13-.28-.16a2,2,0,0,0-.34-.06c-.07,0-.25-.16-.32-.19a2.65,2.65,0,0,1-.34-.09s-.09-.35-.25-.44a1.31,1.31,0,0,1-.5-.44c0-.09-.37-.28-.47-.34a.58.58,0,0,0-.28-.06s-.15-.19-.22-.22-.28-.09-.28-.06-.12,0-.18,0-.13,0-.19,0-.22.28-.28.34-.16-.06-.22-.09a.43.43,0,0,0-.28.06c-.06,0-.19-.28-.16-.41a.47.47,0,0,0-.25-.43c-.12,0-.15-.32-.12-.41s-.22-.19-.28-.19a.4.4,0,0,0-.22.22c0,.06-.56-.09-.5-.4a1.34,1.34,0,0,1,.38-.69.9.9,0,0,1,.49,0c.07,0,.16,0,.16,0s.28,0,.38,0,.21.37.28.41.12-.22.12-.28a.57.57,0,0,0-.06-.25.72.72,0,0,1,.28-.5c.12-.07.28-.28.25-.32s.09-.06.12-.09,0-.34.07-.4a2,2,0,0,1,.37-.25.61.61,0,0,0,.12-.28s.19-.22.32-.29.22.07.18.1a.73.73,0,0,0,.25-.16c.1-.06,0-.22-.06-.25s0-.22,0-.22.13-.15.1-.18.25,0,.37-.07,0,.19-.06.32.06.22.09.18.1.07.13.1.12,0,.18,0,.13-.1.13-.16-.16-.19-.19-.25-.06-.59-.06-.68-.13-.22-.16-.19-.12-.22-.15-.28a.28.28,0,0,1-.07-.22,2.78,2.78,0,0,0-.25-.34c-.06-.1-.12-.07-.12,0s-.16.06-.19,0-.09-.22-.09-.32S25,19.9,25,19.84s-.22,0-.25-.06-.19-.1-.22-.07a5.8,5.8,0,0,0,0,.78c0,.16-.16.32-.22.32s0,.12,0,.09-.09.19-.12.31-.16,0-.16-.12-.16-.25-.16-.22-.09,0-.15,0-.28-.13-.38-.19-.15-.34-.18-.37,0-.07,0-.1a1.44,1.44,0,0,1,.25-.28c.06-.06.24-.34.34-.37s.15-.22.12-.25a2.34,2.34,0,0,1,.44-.16c.09,0,.19-.31.19-.37a.57.57,0,0,0-.1-.25s.13,0,.19,0,.25-.07.31,0l.31.18,0,.19,0,.34c-.28.13-.37.32-.25.32a2.14,2.14,0,0,1,.66.28c.12.09.15-.13.18-.22a.53.53,0,0,0,0-.35s.16,0,.19,0,.1-.07.16-.07a.57.57,0,0,0,.06-.25s-.09-.06-.09-.12-.22-.13-.28-.16,0-.12,0-.15,0-.19-.07-.25-.25-.1-.31-.1-.15-.15-.19-.18a.65.65,0,0,0-.37,0c-.06,0-.19-.19-.31-.13s-.22-.06-.28-.09-.31.25-.31.43.09.41.15.41,0,.19-.06.25-.16-.06-.13-.09-.12-.25-.15-.35-.19-.12-.28-.15l-.16.18a.66.66,0,0,1,0,.25c0,.13-.12.13-.15.1s-.07,0-.13-.07A12,12,0,0,0,20.31,25a2.39,2.39,0,0,1,.16.22c0,.1.21.19.24.19s0-.22,0-.25,0-.09,0-.06a3.13,3.13,0,0,0,.22.31c.06.06.12.53.18.62a2.36,2.36,0,0,0,.75.35,1,1,0,0,1,.44.28c0,.06.25.09.31.09s.16.19.22.22a.21.21,0,0,1,.09.16s.31.12.38.21a.13.13,0,0,0,.21,0s.1.16.13.22a.35.35,0,0,1,0,.25s-.06.35-.13.41a1.3,1.3,0,0,0-.12.59c0,.09.16.28.22.28s0,.13,0,.13,0,.43.09.5a1.53,1.53,0,0,1,.16.31m1.4-7.4h0m-.81-5.11a2.19,2.19,0,0,0,.41-.09v-.16H25c.06,0,.15-.31.22-.38a3.13,3.13,0,0,1,.46-.21c.1-.07.25-.22.32-.25a.48.48,0,0,0,.15-.22.92.92,0,0,1,.31-.22c.1,0,.13-.16.1-.16a9.11,9.11,0,0,0-1,.53,14.51,14.51,0,0,0-1.5,1.19c.16,0,.38,0,.47,0m8.77,15.1a6.13,6.13,0,0,0,.5-.56,1,1,0,0,0,.15-.44,1.13,1.13,0,0,1,.19-.19c.06,0,.22-.65.34-.81a2.41,2.41,0,0,0,.28-1.09,3,3,0,0,1,.13-.84,1.05,1.05,0,0,1,.25-.35,8.46,8.46,0,0,0,.5-.71,1.73,1.73,0,0,0,.18-.66c0-.09-.25-.16-.28-.12a.93.93,0,0,1-.34.09c-.06,0-.22-.37-.34-.44s-.19-.5-.25-.59-.22-.28-.28-.34-.07-.28-.07-.35.1,0,.13.13.28.47.34.59a6.47,6.47,0,0,1,.34.63c.07.12.53.06.69,0s.34-.19.34-.25.25-.16.32-.22.12-.35.15-.38a.75.75,0,0,0-.09-.4.39.39,0,0,0-.35-.13c-.06,0-.15-.18-.18-.25s-.22-.18-.25-.22.06-.12.09-.15.38.22.47.34a1.88,1.88,0,0,1,.22.38s.28.06.34,0,.13,0,.16,0h.09l.28,0a.81.81,0,0,1,.19.31s.09.15.15.15.1.22.13.25a4.22,4.22,0,0,1,.22.47,3.61,3.61,0,0,0,.22.44,1.13,1.13,0,0,1,.06.31.21.21,0,0,0,.19.16c.06,0,.18-.44.25-.6s.12-.28.15-.28.06-.09.06-.12.16,0,.19-.06a.91.91,0,0,1,.13-.38l.34-.22c.06,0,.28.16.31.22s.09.28.06.31.1.22.22.19.13.13.13.19.12.18.15.25a.45.45,0,0,1,0,.28s0,.25,0,.31a4.13,4.13,0,0,0,.47.47c.12.09.19-.19.12-.28s-.28-.32-.31-.38a.6.6,0,0,1,0-.4c0-.07.19,0,.25.09s.16.16.16.22.43-.19.43-.47.16-.56.16-.62,0-.16-.06-.16.06-.19.18-.19.41-.31.47-.43.22-.22.22-.25a1,1,0,0,0,.13-.44.67.67,0,0,0-.1-.37.62.62,0,0,0-.15-.25.32.32,0,0,1,0-.25s.13-.06.13-.1.12-.15.12-.21.07.06.13.12.12.34.19.41.34-.35.31-.57a.83.83,0,0,1,.15-.56c.07,0,.19-.22.29-.34a12.15,12.15,0,0,0-3-4.71h0l-.09,0c-.19,0-.29-.22-.25-.28v-.1a1.61,1.61,0,0,0-.32-.25h-.21c-.1,0-.35-.06-.38-.12s-.19,0-.19.12-.25.13-.28.16-.15.06-.15,0-.25.06-.35.1a1.07,1.07,0,0,0-.37.12.5.5,0,0,0-.19.19.51.51,0,0,1-.22.15s0,.22,0,.25-.1,0-.19-.06-.16.09-.19.13-.09,0-.09-.1S37.06,18,37,18s-.16,0-.22,0-.28.22-.37.28a1,1,0,0,1-.56.12c-.07,0-.16.19-.1.19H35.5a2,2,0,0,0-.59.22c-.1.06-.16,0-.16-.06s-.12-.1-.18-.13-.13.28-.19.34-.16-.21-.35-.28-.43-.21-.49-.21-.22-.19-.29-.22a.86.86,0,0,0-.34-.1,1,1,0,0,0-.34.19c-.06.06-.16,0-.19.06s-.28.28-.37.35a4.1,4.1,0,0,0-.35.5.18.18,0,0,1-.18.09s-.07.09-.07.12-.28.19-.31.32a3.57,3.57,0,0,0,0,.56c0,.09.13.31.19.31s0,.19,0,.22.06.09.06.15-.21.1-.28.13a.56.56,0,0,0-.18.22c0,.06-.22.09-.28.15s0-.09.06-.15a.26.26,0,0,0,0-.22s0-.38-.1-.47-.18-.22-.21-.22,0-.12,0-.15-.16-.07-.22,0-.06.37-.1.46.1.25.13.25,0,.19,0,.19-.13.25-.1.31,0,.16-.09.19.25,0,.38,0a.42.42,0,0,1,.21.06s-.25,0-.28.09-.18.16-.22.22.07.13.13.13.16.22.19.28,0,.15,0,.19-.35,0-.47,0a.54.54,0,0,0-.28.37c0,.09,0,.37,0,.44s.28.12.31.15.28,0,.34,0,.22-.25.25-.37.28-.34.35-.44.34-.06.4-.12,0,.22.06.34.32.13.25,0,0-.19,0-.12.24.15.31.21,0,.22,0,.22-.07.16,0,.19.12-.19.21-.22.13-.15.1-.19.06-.12.09-.09a1.2,1.2,0,0,0-.25-.37c-.09-.1,0-.07.16.09l.12.19s.07.15.1.18l0,.07a1.13,1.13,0,0,1,.06.31c0,.06.12.16.19.16s.12,0,.09,0,0,.12.13.12.09-.15,0-.19S33,23.39,33,23.3a.4.4,0,0,1,.07-.19s0,.22,0,.28a.55.55,0,0,0,.06.22l.06.07.16.12a.75.75,0,0,1,.5,0s.15.06.18,0,0,0,0,.06-.15.25-.15.35-.53,0-.75,0a.79.79,0,0,0-.56.12c0,.06-.38-.16-.53-.22s-.28-.31-.31-.34,0-.09,0-.16-.38-.06-.47,0-.63.1-.78.16a.8.8,0,0,1-.38,0c-.06,0-.18.15-.28.18a1.39,1.39,0,0,0-.21.57l.12.25-.06.12a2.39,2.39,0,0,0-.44.69,4.35,4.35,0,0,0-.09,1,2.49,2.49,0,0,0,.25.81,1.6,1.6,0,0,0,.5.47,1.68,1.68,0,0,0,.59.07.34.34,0,0,0,.28-.25l.16,0H31c0,.09.25.18.31.22a.88.88,0,0,0,.28,0c.06,0,.09.43.06.56a3,3,0,0,0,.13.71c0,.13.18.5.22.66s-.1.59-.1.72a2.55,2.55,0,0,0,.25.75,2.17,2.17,0,0,1,.1.53c0,.06.21.53.28.71s.62.19.78.1m10-5.52s.16-.1.25-.1.16-.25.06-.25-.15-.18-.22-.22-.15.07-.15.16-.16.09-.19.16,0,.09,0,.09.22.12.25.16m-.19,1.27s0-.25-.09-.28-.34.32-.28.5.09.19.12.13.19,0,.22,0,0,0,0-.09a.3.3,0,0,1,0-.29m-.5-.21c0-.1,0-.35,0-.41s-.15-.19-.21-.22-.32.5-.5.59a.45.45,0,0,0-.19.5c0,.07.41.13.47.16s.12,0,.18,0,0,0,0,0a1.2,1.2,0,0,0,.16-.25,1.51,1.51,0,0,0,.06-.31m-1,.87c-.13-.06-.32,0-.32.09s.53.13.72.19.28.06.25,0a6.93,6.93,0,0,0-.65-.31m1.09-3.53c0-.06-.07-.34-.13-.28s0,.22,0,.28a.07.07,0,0,0,.13,0m.34.6c0-.07,0-.16-.16-.19s-.09.34-.06.37.19-.09.22-.18m.59,2.21c.16.1.47.06.47-.12s-.47-.1-.47.12M43.58,24c-.06,0-.09.15-.06.18h0s-.07.19,0,.22.15-.15.22-.19a.76.76,0,0,1,.21-.06l.25-.06s0,0,.07-.09-.07-.28-.1-.41a.49.49,0,0,0-.15.13c-.07.06-.32.21-.41.28m-3.21,3.71h0m.87.81a1.6,1.6,0,0,0-.37-.44L40.8,28l-.06-.09a.82.82,0,0,0-.25-.25s-.06.09-.12.06l.18.12c.16.13.47.91.57,1s.18-.16.12-.28M38.75,27.2c0,.09.21.28.24.25s0-.25-.09-.31-.12,0-.15.06M35.1,31.44c0,.1.18.16.24.16s.22-.31.22-.38a1.2,1.2,0,0,0,0-.31.34.34,0,0,1,.07-.15s.06-.1.06-.22a5.58,5.58,0,0,0-.13-.69c0-.09-.09,0-.12.13s-.28.28-.34.34a.56.56,0,0,0-.1.37s0,.22-.06.25.09.41.13.5m-9,3.43h.16c0-.18-.16-.15-.16,0M30.57,16.1a.77.77,0,0,1-.28-.07.75.75,0,0,0-.37,0c-.1,0,0-.19.09-.22s0-.18-.09-.18-.41,0-.47,0-.19-.06-.25-.06-.41.1-.56.1a4.44,4.44,0,0,0-.66,0,.23.23,0,0,0-.12.25c0,.06-.38.06-.5.06a4.63,4.63,0,0,0-1,.25c-.18.09-.31.34-.25.34s-.09.16-.18.19-.32,0-.38.09.06.1.06.13.1,0,.16,0a1.13,1.13,0,0,0,.31.06c.06,0-.15.06-.28.06s-.09.22,0,.25.31.06.31,0,.25,0,.38.07.18.28.22.34a1.09,1.09,0,0,1,0,.31c0,.06.18.16.21.13s0,.09-.06.09,0,.22.06.25,0,.15,0,.22,0,.18-.09.21.19.5.19.72a.54.54,0,0,0,.18.41c.07,0,.25,0,.29.09s.12,0,.15-.06a.9.9,0,0,0,.16-.25c.06-.09.18-.56.22-.59s.21,0,.28,0l.21-.16s.35-.16.44-.22.22-.31.28-.37,0,0-.12-.1,0-.12,0-.15.28,0,.34.06.25-.09.19-.12,0,0,0,0,.06-.15,0-.18.25-.25.18-.44.07-.41.16-.41.06-.21,0-.25,0,0,0-.06a.76.76,0,0,0,.06-.25s.13-.09.16-.12a2.32,2.32,0,0,1,.28-.16c.09,0,.16-.18.06-.18m1.59.18c-.09,0-.25.06-.25.1s-.15-.07-.25,0-.15.25-.09.28.09.18.09.21.22,0,.28,0,.07.16,0,.22,0,.16.1.19.15.16.22.16.18-.25.18-.35.25,0,.35,0,.12-.34,0-.4-.25,0-.28-.07a.43.43,0,0,0-.16-.09c-.09,0-.12-.19-.22-.22m.85.16a.62.62,0,0,0,.4-.16,1.86,1.86,0,0,0-.65-.15c-.19,0-.35,0-.35.06a1.86,1.86,0,0,0,.6.25m-3.12,4.65s-.07.15-.07.21.16.07.25.07a.14.14,0,0,0,.13-.13.74.74,0,0,0-.13-.31s-.15.16-.18.16m.5-2c0-.06-.32-.06-.38-.06s-.28-.07-.31-.13-.06.16-.13.19,0,.06.07,0,0,.09,0,.16.18.06.21.15a.15.15,0,0,0,.19.1c.09,0,.25-.1.31-.1s.1-.28.07-.34M36,17.56c.09-.09.47-.22.53-.31s0-.19-.06-.19-.09.06-.09.06a4.36,4.36,0,0,1-.6.19,1.67,1.67,0,0,0-.34.22c-.06.06-.16.5-.19.53s.16.22.22.28a.19.19,0,0,0,.22,0,.81.81,0,0,0-.09-.4c0-.1.31-.29.4-.38m-.47-1.12c.16.15.22-.06.38,0,0-.31-.38-.19-.38,0m2.78.06c0,.06.41.09.5.06s0-.22-.19-.18a.38.38,0,0,0-.31.12m-14.51,3s0,.25.07.25.22-.31.31-.25.15.1.15.07a3.45,3.45,0,0,0-.34-.19s-.12.09-.19.12m1,6.68s.19,0,.22,0,0-.1,0-.1-.19.07-.19.13m-.78-.31c.1,0,0,.12.07.15s.21.1.25.13.15-.06.21-.06,0-.28-.15-.28-.25-.13-.28-.13a.44.44,0,0,1-.22-.16,2.06,2.06,0,0,0-.5-.06.33.33,0,0,0-.25.16s.19.06.25,0a.53.53,0,0,1,.37.09c.07.13.16.16.25.13m-.37.31s.19,0,.22,0,0,0,0-.06-.22,0-.22.06m.12-.94s-.09.07-.09.1a.06.06,0,0,0,.06.06s.1-.13,0-.16m.38,0a.22.22,0,0,0-.13-.06s0,.06,0,.13.19,0,.16-.07m.28.41c.06,0,.09-.12,0-.12s-.12-.13-.16-.16-.09.06-.09.12a.07.07,0,0,0,.06.07s.07.15.16.09m19.68,2.78a.36.36,0,0,1-.25,0s-.06.06-.09.09,0,.13,0,.09.22.07.34.16a1.41,1.41,0,0,0,.07-.41s-.07.07-.1.07"/></clipPath><radialGradient id="radial-gradient-2" cx="766.23" cy="996.6" r="0.06" gradientTransform="translate(-189854.05 -246952.05) scale(247.82)" gradientUnits="userSpaceOnUse"><stop offset="0" stop-color="#66a8de"/><stop offset="0.22" stop-color="#69aadf"/><stop offset="0.38" stop-color="#72aee0"/><stop offset="0.52" stop-color="#82b4e1"/><stop offset="0.66" stop-color="#97bee3"/><stop offset="0.78" stop-color="#afcae5"/><stop offset="0.9" stop-color="#ccd9e7"/><stop offset="1" stop-color="#e6e7e8"/></radialGradient><clipPath id="clip-path-11"><rect class="cls-2" x="23.18" y="14.38" width="18.22" height="15.32"/></clipPath><clipPath id="clip-path-13"><rect class="cls-2" x="24.8" y="14.32" width="10.64" height="23.65"/></clipPath><clipPath id="clip-path-15"><rect class="cls-2" x="20.59" y="26.36" width="23.96" height="8.77"/></clipPath><clipPath id="clip-path-17"><rect class="cls-2" x="22.46" y="16.72" width="15.5" height="20.99"/></clipPath><clipPath id="clip-path-19"><rect class="cls-2" x="23.68" y="21.02" width="4.27" height="4.27"/></clipPath><clipPath id="clip-path-23"><rect class="cls-2" x="38.65" y="23.21" width="3.65" height="3.65"/></clipPath><clipPath id="clip-path-27"><rect class="cls-2" x="37.81" y="32.13" width="1.87" height="1.87"/></clipPath><clipPath id="clip-path-30"><rect class="cls-2" x="28.39" y="33.81" width="2.62" height="2.62"/></clipPath><clipPath id="clip-path-33"><rect class="cls-2" x="30.35" y="12.6" width="10.11" height="26.95"/></clipPath><clipPath id="clip-path-35"><rect class="cls-2" x="20.4" y="13.94" width="22.68" height="22.68"/></clipPath><clipPath id="clip-path-37"><rect class="cls-2" x="18.59" y="22.77" width="26.17" height="10.23"/></clipPath><clipPath id="clip-path-39"><rect class="cls-2" x="28.86" y="34.34" width="1.72" height="1.72"/></clipPath><clipPath id="clip-path-40"><path class="cls-2" d="M29.57,36.06a.89.89,0,0,1-.71-1,.87.87,0,1,1,1.71.28.9.9,0,0,1-1,.72"/></clipPath><radialGradient id="radial-gradient-3" cx="721.96" cy="1080.2" r="0.06" gradientTransform="translate(17780.56 -8317.74) rotate(98.56) scale(15.1)" gradientUnits="userSpaceOnUse"><stop offset="0" stop-color="#fff"/><stop offset="1" stop-color="#08080a"/></radialGradient><clipPath id="clip-path-42"><rect class="cls-2" x="39.62" y="24.14" width="1.72" height="1.72"/></clipPath><clipPath id="clip-path-43"><path class="cls-2" d="M40.34,25.86a.87.87,0,1,1,1-.72.87.87,0,0,1-1,.72"/></clipPath><radialGradient id="radial-gradient-4" cx="734.65" cy="1090.16" r="0.06" gradientTransform="matrix(-2.25, 14.93, -14.93, -2.25, 17967.69, -8494.66)" xlink:href="#radial-gradient-3"/><clipPath id="clip-path-45"><rect class="cls-2" x="24.89" y="22.3" width="1.72" height="1.72"/></clipPath><clipPath id="clip-path-46"><path class="cls-2" d="M25.64,24a.87.87,0,1,1,1-.72.87.87,0,0,1-1,.72"/></clipPath><radialGradient id="radial-gradient-5" cx="734.3" cy="1074" r="0.06" gradientTransform="translate(17711.1 -8527.66) rotate(98.56) scale(15.1)" xlink:href="#radial-gradient-3"/><clipPath id="clip-path-48"><rect class="cls-2" x="28.95" y="15.75" width="1.12" height="1.12"/></clipPath><clipPath id="clip-path-49"><path class="cls-2" d="M29.42,16.87a.55.55,0,1,1,.62-.46.55.55,0,0,1-.62.46"/></clipPath><radialGradient id="radial-gradient-6" cx="726.47" cy="1119.76" r="0.06" gradientTransform="translate(11844.09 -5347.35) rotate(98.56) scale(9.72)" xlink:href="#radial-gradient-3"/><clipPath id="clip-path-51"><rect class="cls-2" x="22.18" y="23.49" width="1.12" height="1.12"/></clipPath><clipPath id="clip-path-52"><path class="cls-2" d="M22.68,24.58a.55.55,0,1,1,.16-1.09.54.54,0,0,1,.46.62.55.55,0,0,1-.62.47"/></clipPath><radialGradient id="radial-gradient-7" cx="711.9" cy="1110.39" r="0.06" gradientTransform="translate(11726.38 -5213.26) rotate(98.56) scale(9.72)" xlink:href="#radial-gradient-3"/><clipPath id="clip-path-54"><rect class="cls-2" x="25.96" y="35.75" width="1.12" height="1.12"/></clipPath><clipPath id="clip-path-55"><path class="cls-2" d="M26.42,36.87a.54.54,0,0,1-.46-.62.55.55,0,0,1,.62-.47.56.56,0,0,1,.47.62.57.57,0,0,1-.63.47"/></clipPath><radialGradient id="radial-gradient-8" cx="692.28" cy="1119.81" r="0.06" gradientTransform="translate(11791.44 -4998.37) rotate(98.56) scale(9.72)" xlink:href="#radial-gradient-3"/><clipPath id="clip-path-57"><rect class="cls-2" x="37.97" y="32.25" width="1.72" height="1.72"/></clipPath><clipPath id="clip-path-58"><path class="cls-2" d="M38.68,34A.87.87,0,0,1,39,32.25.87.87,0,0,1,38.68,34"/></clipPath><radialGradient id="radial-gradient-9" cx="725.66" cy="1089.7" r="0.06" gradientTransform="matrix(-2.25, 14.93, -14.93, -2.25, 17939.01, -8353.23)" xlink:href="#radial-gradient-3"/></defs><circle class="cls-1" cx="32.33" cy="32.33" r="32.18"/><circle class="cls-3" cx="32.33" cy="32.33" r="32.18"/><path id="SVGID" class="cls-1" d="M15.33,27.15c0,5,1.93,8.75,4.44,12.29,3.78,5.34,8,10.46,12,15.64a.69.69,0,0,0,1.11,0c4-5.18,8.23-10.3,12-15.64,2.51-3.54,4.44-7.29,4.44-12.29,0-11.88-8.5-17.84-17-17.84s-17,6-17,17.84"/><path class="cls-1" d="M15.33,27.15c0,5,1.93,8.75,4.44,12.29,3.78,5.34,8,10.46,12,15.64a.69.69,0,0,0,1.11,0c4-5.18,8.23-10.3,12-15.64,2.51-3.54,4.44-7.29,4.44-12.29,0-11.88-8.5-17.84-17-17.84s-17,6-17,17.84"/><g class="cls-4"><rect class="cls-1" x="15.33" y="9.31" width="34" height="46.04"/></g><path id="SVGID-2" data-name="SVGID" class="cls-5" d="M17.85,26.73a14.6,14.6,0,1,0,14.59-14.6,14.62,14.62,0,0,0-14.59,14.6"/><g class="cls-6"><rect class="cls-7" x="17.85" y="12.13" width="29.2" height="29.2"/></g><path id="SVGID-3" data-name="SVGID" class="cls-1" d="M19.28,26.23A13.2,13.2,0,1,0,32.48,13a13.21,13.21,0,0,0-13.2,13.19"/><g class="cls-8"><rect class="cls-1" x="19.28" y="13.04" width="26.39" height="26.39"/></g><g class="cls-9"><g class="cls-10"><rect class="cls-11" x="20.25" y="14.25" width="24.21" height="24.21"/></g></g><g class="cls-9"><g class="cls-9"><g class="cls-12"><g class="cls-13"><rect class="cls-14" x="20.31" y="15.53" width="24.02" height="20.06"/></g></g></g><g class="cls-9"><g class="cls-15"><g class="cls-16"><path class="cls-17" d="M41.43,22.05c0,4.25-4.09,7.68-9.11,7.68s-9.11-3.43-9.11-7.68,4.09-7.67,9.11-7.67,9.11,3.43,9.11,7.67"/></g></g></g><g class="cls-9"><g class="cls-18"><g class="cls-19"><path class="cls-1" d="M35.44,14.6a1.92,1.92,0,0,0-.63-.19c-1.87-.4-3.86.53-5.61,2.43a18.12,18.12,0,0,0-3.87,7.9h0a17.67,17.67,0,0,0,0,8.76c.66,2.22,1.84,3.81,3.43,4.43-1.56-.62-2.71-2.21-3.36-4.4a17.66,17.66,0,0,1,0-8.76h0a18.12,18.12,0,0,1,3.87-7.9C31,15,33,14,34.88,14.44a4.33,4.33,0,0,1,.56.16"/></g></g></g><g class="cls-9"><g class="cls-18"><g class="cls-20"><path class="cls-1" d="M20.59,29.6a4.91,4.91,0,0,0,.06.66c.38,1.87,2.06,3.33,4.46,4.15a17.69,17.69,0,0,0,8.77.37h0a17.46,17.46,0,0,0,8-3.52c1.75-1.47,2.75-3.22,2.66-4.9.06,1.68-.94,3.37-2.66,4.8a18,18,0,0,1-8,3.53h0a18.07,18.07,0,0,1-8.77-.38c-2.4-.81-4.08-2.24-4.46-4.15a3.43,3.43,0,0,1-.06-.56"/></g></g></g><g class="cls-9"><g class="cls-18"><g class="cls-21"><path class="cls-1" d="M25,16.72a4.65,4.65,0,0,0-.56.34c-1.56,1.13-2.19,3.25-1.94,5.8A17.69,17.69,0,0,0,25.8,31h0a17.68,17.68,0,0,0,6.55,5.83c2.06,1,4.06,1.18,5.58.37-1.49.75-3.46.53-5.52-.43a18.29,18.29,0,0,1-6.55-5.84h0a18.26,18.26,0,0,1-3.3-8.14c-.29-2.56.34-4.68,1.93-5.8.19-.09.34-.19.5-.28"/></g></g></g><g class="cls-9"><g class="cls-15"><g class="cls-22"><path class="cls-1" d="M25.8,24.52a1.35,1.35,0,1,1,1.34-1.34,1.32,1.32,0,0,1-1.34,1.34m0-2.69a1.35,1.35,0,1,0,1.34,1.35,1.34,1.34,0,0,0-1.34-1.35"/></g><g class="cls-22"><path class="cls-1" d="M25.8,25.3A2.16,2.16,0,1,1,28,23.14,2.16,2.16,0,0,1,25.8,25.3m0-4.25a2.13,2.13,0,1,0,2.12,2.13,2.13,2.13,0,0,0-2.12-2.13"/></g><g class="cls-22"><path class="cls-1" d="M25.8,23.83a.66.66,0,1,1,0-1.31.66.66,0,0,1,.65.66.61.61,0,0,1-.65.65m0-1.31a.66.66,0,1,0,0,1.31.66.66,0,0,0,0-1.31"/></g></g></g><g class="cls-9"><g class="cls-15"><g class="cls-23"><path class="cls-1" d="M40.46,26.26a1.22,1.22,0,1,1,1.22-1.21,1.2,1.2,0,0,1-1.22,1.21m0-2.46A1.22,1.22,0,1,0,41.68,25a1.22,1.22,0,0,0-1.22-1.22"/></g><g class="cls-23"><path class="cls-1" d="M40.46,26.83A1.81,1.81,0,1,1,42.27,25a1.8,1.8,0,0,1-1.81,1.81m0-3.62A1.81,1.81,0,1,0,42.27,25a1.81,1.81,0,0,0-1.81-1.81"/></g><g class="cls-23"><path class="cls-1" d="M40.46,25.77a.75.75,0,0,1,0-1.5.75.75,0,0,1,0,1.5m0-1.47a.72.72,0,1,0,0,1.43.7.7,0,0,0,.72-.71.69.69,0,0,0-.72-.72"/></g></g></g><g class="cls-9"><g class="cls-15"><g class="cls-24"><path class="cls-1" d="M38.75,34a.94.94,0,1,1,.93-.94.94.94,0,0,1-.93.94m0-1.87a.94.94,0,1,0,.93.93,1,1,0,0,0-.93-.93"/></g><g class="cls-24"><path class="cls-1" d="M38.75,33.63a.57.57,0,1,1,.56-.57.56.56,0,0,1-.56.57m0-1.13a.57.57,0,1,0,.56.56.56.56,0,0,0-.56-.56"/></g></g></g><g class="cls-9"><g class="cls-15"><g class="cls-25"><path class="cls-1" d="M29.7,36.46A1.31,1.31,0,1,1,31,35.15a1.28,1.28,0,0,1-1.31,1.31m0-2.62A1.31,1.31,0,1,0,31,35.15a1.3,1.3,0,0,0-1.31-1.31"/></g><g class="cls-25"><path class="cls-1" d="M29.7,35.93a.78.78,0,1,1,.78-.78.77.77,0,0,1-.78.78m0-1.56a.78.78,0,1,0,.78.78.77.77,0,0,0-.78-.78"/></g></g></g><g class="cls-9"><g class="cls-18"><g class="cls-26"><path class="cls-1" d="M39.46,17c-.93-2.65-2.34-4.18-4-4.37a4.06,4.06,0,0,0-3.56,1.65H32a4,4,0,0,1,3.43-1.52c1.62.15,3,1.68,3.9,4.3a22.49,22.49,0,0,1,.84,9.7,22.84,22.84,0,0,1-2.87,9.33c-1.43,2.37-3.12,3.56-4.74,3.4a3.59,3.59,0,0,1-2.09-1.09c-.06,0-.12,0-.16,0a3.56,3.56,0,0,0,2.25,1.21l.31,0c1.56,0,3.15-1.21,4.53-3.46a23.14,23.14,0,0,0,2.86-9.36A23.19,23.19,0,0,0,39.46,17"/></g></g></g><g class="cls-9"><g class="cls-18"><g class="cls-27"><path class="cls-1" d="M42,15c-1.25-1.24-3.52-1.4-6.33-.37l-.13,0c.07,0,.13,0,.19.06,2.78-1,5-.87,6.21.35s1.34,3.43.34,6.23A25.46,25.46,0,0,1,36.44,30a24.91,24.91,0,0,1-8.71,5.86c-2.77,1-5,.88-6.24-.34-1.09-1.09-1.31-3-.65-5.3a.58.58,0,0,0-.06-.19c-.72,2.46-.5,4.43.62,5.55a4.06,4.06,0,0,0,2.93,1.06,10,10,0,0,0,3.4-.68,24.88,24.88,0,0,0,8.74-5.9h0a25,25,0,0,0,5.89-8.73c1.06-2.81.94-5.09-.34-6.34"/></g></g></g><g class="cls-9"><g class="cls-18"><g class="cls-28"><path class="cls-1" d="M41.27,25.36a22.48,22.48,0,0,0-9.14-2.5h0A22.88,22.88,0,0,0,22.71,24c-2.53,1-4,2.37-4.12,4s1,3.09,3.22,4.4l-.1-.16c-2.06-1.25-3.12-2.75-3-4.21s1.56-2.93,4-3.9A22.25,22.25,0,0,1,32.13,23h0a22.2,22.2,0,0,1,9.11,2.49c2.31,1.31,3.53,2.9,3.43,4.46a4,4,0,0,1-2,2.91c0,.06-.09.12-.12.18.34-.22.59-.43.87-.65a3.63,3.63,0,0,0,1.41-2.44c.06-1.62-1.16-3.21-3.53-4.55"/></g></g></g><g class="cls-9"><g class="cls-29"><g class="cls-30"><polygon class="cls-31" points="30.91 34.31 30.6 36.4 28.51 36.09 28.82 34 30.91 34.31"/></g></g></g><g class="cls-9"><g class="cls-32"><g class="cls-33"><polygon class="cls-34" points="41.68 24.14 41.37 26.23 39.27 25.89 39.59 23.83 41.68 24.14"/></g></g></g><g class="cls-9"><g class="cls-35"><g class="cls-36"><polygon class="cls-37" points="26.95 22.3 26.64 24.36 24.55 24.05 24.86 21.96 26.95 22.3"/></g></g></g><g class="cls-9"><g class="cls-38"><g class="cls-39"><polygon class="cls-40" points="30.26 15.75 30.07 17.09 28.73 16.88 28.92 15.53 30.26 15.75"/></g></g></g><g class="cls-9"><g class="cls-41"><g class="cls-42"><polygon class="cls-43" points="23.52 23.46 23.34 24.8 21.96 24.61 22.18 23.27 23.52 23.46"/></g></g></g><g class="cls-9"><g class="cls-44"><g class="cls-45"><polygon class="cls-46" points="27.3 35.75 27.08 37.09 25.74 36.87 25.96 35.53 27.3 35.75"/></g></g></g><g class="cls-9"><g class="cls-47"><g class="cls-48"><polygon class="cls-49" points="40.02 32.22 39.71 34.31 37.62 34 37.93 31.91 40.02 32.22"/></g></g></g></g></svg>