<svg id="Layer_1" data-name="Layer 1" xmlns="http://www.w3.org/2000/svg" xmlns:xlink="http://www.w3.org/1999/xlink" viewBox="0 0 64.67 64.67"><defs><style>.cls-1{fill:url(#linear-gradient);}.cls-2{fill:#fff;}</style><linearGradient id="linear-gradient" x1="54.65" y1="9.15" x2="10.02" y2="55.52" gradientUnits="userSpaceOnUse"><stop offset="0" stop-color="#3673cc"/><stop offset="1" stop-color="#245abc"/></linearGradient></defs><circle class="cls-1" cx="32.33" cy="32.33" r="32.18"/><path id="path38" class="cls-2" d="M30.72,46.05l.92-1.95L27.49,23.93c-.78-3.91-.44-5.95.85-7.11v-.06H26.1c-.68,1.46-.89,2.92-.1,6.8Zm-1.91,3.89L29.73,48,24.54,23.5c-.91-3.81-.7-5.55-.33-6.74h-2a22.07,22.07,0,0,0,.79,6.1Zm-8.4-33.18H18.08v.06c1,1.27,1.35,2.81,2.18,6.23l6.23,28.89h1.4L21.66,23A52.19,52.19,0,0,1,20.41,16.76Zm-4.67,0h-2.5v.06c2.28.9,3.4,2.64,4.31,6.69L23.7,51.93h1.4L18.91,23.34C17.84,18.38,16.72,17.46,15.74,16.76Zm31.83,0c-3,1.72-4.7,4.91-8.38,12.81l.09.05C43.53,21.67,46,18.5,51.43,16.85v-.09ZM39,29.41l.1.06c3.48-8.21,4.4-10.5,5.82-12.65v-.06H42.08v.08c.29,3.29-.81,6.32-3.1,12.57Z"/></svg>