<?xml version="1.0" encoding="utf-8"?>
<!-- Generator: Adobe Illustrator 24.1.2, SVG Export Plug-In . SVG Version: 6.00 Build 0)  -->
<svg version="1.1" id="Layer_1" xmlns="http://www.w3.org/2000/svg" xmlns:xlink="http://www.w3.org/1999/xlink" x="0px" y="0px"
	 viewBox="0 0 81.667 42" style="enable-background:new 0 0 81.667 42;" xml:space="preserve">
<style type="text/css">
	.st0{fill:#09AF55;}
	.st1{fill:#A24699;}
	.st2{fill:#08A8DE;}
	.st3{fill:#FBB616;}
	.st4{fill:#ED363F;}
	.st5{fill:#5A5B5B;}
</style>
<g>
	<g>
		<circle class="st0" cx="40.833" cy="35.186" r="6.299"/>
		<circle class="st1" cx="57.716" cy="35.186" r="6.299"/>
		<circle class="st2" cx="74.6" cy="35.186" r="6.299"/>
		<circle class="st3" cx="23.951" cy="35.186" r="6.299"/>
		<circle class="st4" cx="7.067" cy="35.186" r="6.299"/>
	</g>
	<g>
		<path class="st5" d="M24.192,5.876c-3.741,0-6.785,3.044-6.785,6.786s3.043,6.786,6.785,6.786c1.978,0,3.745-0.866,4.986-2.221
			v0.871c0,2.749-2.237,4.986-4.986,4.986c-1.719,0-2.99-0.32-3.676-0.927c-0.373-0.33-0.942-0.294-1.271,0.078
			c-0.329,0.372-0.295,0.942,0.078,1.271c1.034,0.915,2.672,1.378,4.868,1.378c3.741,0,6.786-3.044,6.786-6.786v-5.057
			c0-0.045-0.019-0.084-0.026-0.127c0.003-0.086,0.026-0.166,0.026-0.253C30.978,8.92,27.934,5.876,24.192,5.876z M24.192,17.648
			c-2.748,0-4.985-2.237-4.985-4.986s2.237-4.986,4.985-4.986c2.749,0,4.986,2.237,4.986,4.986S26.942,17.648,24.192,17.648z"/>
		<path class="st5" d="M40.833,5.876c-3.741,0-6.786,3.044-6.786,6.786s3.044,6.786,6.786,6.786s6.785-3.044,6.785-6.786
			S44.575,5.876,40.833,5.876z M40.833,17.648c-2.749,0-4.986-2.237-4.986-4.986s2.237-4.986,4.986-4.986
			c2.748,0,4.985,2.237,4.985,4.986S43.582,17.648,40.833,17.648z"/>
		<path class="st5" d="M7.552,5.876c-3.741,0-6.786,3.044-6.786,6.786s3.044,6.786,6.786,6.786c1.978,0,3.745-0.866,4.986-2.221
			v1.536c0,0.497,0.402,0.9,0.9,0.9s0.9-0.402,0.9-0.9v-6.55c0-0.132-0.032-0.255-0.083-0.368
			C13.846,8.492,11.014,5.876,7.552,5.876z M7.552,17.648c-2.749,0-4.986-2.237-4.986-4.986s2.237-4.986,4.986-4.986
			s4.986,2.237,4.986,4.986S10.301,17.648,7.552,17.648z"/>
		<path class="st5" d="M80.818,11.845c-0.409-3.353-3.241-5.969-6.704-5.969c-3.741,0-6.785,3.044-6.785,6.786
			s3.043,6.786,6.785,6.786c1.979,0,3.746-0.865,4.987-2.22v1.535c0,0.497,0.403,0.9,0.9,0.9s0.9-0.402,0.9-0.9v-6.55
			C80.9,12.081,80.869,11.958,80.818,11.845z M74.114,17.648c-2.748,0-4.985-2.237-4.985-4.986s2.237-4.986,4.985-4.986
			c2.75,0,4.987,2.237,4.987,4.986S76.864,17.648,74.114,17.648z"/>
		<path class="st5" d="M63.359,0.513c-0.496,0-0.9,0.402-0.9,0.9v6.683c-1.241-1.355-3.008-2.22-4.987-2.22
			c-3.741,0-6.785,3.044-6.785,6.786s3.043,6.786,6.785,6.786c3.743,0,6.787-3.044,6.787-6.786V1.413
			C64.259,0.916,63.856,0.513,63.359,0.513z M57.473,17.648c-2.748,0-4.985-2.237-4.985-4.986s2.237-4.986,4.985-4.986
			c2.75,0,4.987,2.237,4.987,4.986S60.223,17.648,57.473,17.648z"/>
	</g>
</g>
</svg>
