<?xml version="1.0" encoding="utf-8"?>
<!-- Generator: Adobe Illustrator 23.0.3, SVG Export Plug-In . SVG Version: 6.00 Build 0)  -->
<svg version="1.2" baseProfile="tiny" id="Layer_1" xmlns="http://www.w3.org/2000/svg" xmlns:xlink="http://www.w3.org/1999/xlink"
	 x="0px" y="0px" viewBox="0 0 150 42" xml:space="preserve">
<g>
	<path fill="#FB2525" d="M8.8,11.6c1.9,0,3.7,0,5.6,0c2.2,0,3,0.7,3.2,3c0,0.2,0,0.3,0,0.5c0,1.3-0.6,2-2,2.1
		c-1.2,0.1-2.4,0.2-3.6,0.3c-0.3,0-0.5,0.1-0.4,0.5c0.7,4.3,2.2,8.3,5.1,11.6c1.9,2.1,4,3.7,6.8,4.4c3.4,0.7,6.3,0,9.1-1.9
		c2.9-2,4.9-4.7,6.5-7.6c0.7-1.3,1.3-2.7,2-4c0.2-0.4,0.5-0.8,0.7-1.1c0.5-0.7,1-0.8,1.9-0.7c2,0.5,2.8,1.4,2.2,3.4
		c-1.8,6.5-4.9,12.3-10.5,16.4c-3,2.2-6.4,3.5-10.2,3.5c-4.4,0-7.9-1.9-11-4.8c-2.9-2.9-4.7-6.3-6.1-10.1c-1-2.8-1.8-5.7-2.2-8.6
		c-0.1-0.4-0.2-0.5-0.6-0.5c-0.7,0-1.6,0-2.3,0.1c-0.3,0-0.7,0-0.9,0c-1-0.1-1.8-0.6-2-1.6c-0.3-1.1-0.3-2.2,0.1-3.4
		c0.3-0.9,0.9-1.5,2-1.5C4.4,11.6,6.6,11.7,8.8,11.6C8.8,11.7,8.8,11.7,8.8,11.6z"/>
	<path fill="#FB2525" d="M132.3,19.2c0,3.9,0,7.8,0,11.7c0,1.5,0.3,2.9,0.8,4.2c0.7,1.8,0.5,2.7-1.2,3.6c-0.8,0.5-1.7,0.8-2.5,1.2
		c-2.2,0.9-3.5,0.5-4.7-1.7c-0.4-0.7-0.6-0.7-1.1-0.2c-1.7,1.4-3.7,2-5.9,2.3c-2.6,0.4-5.2,0.3-7.7-0.6c-4.3-1.4-6.4-4.6-7-8.9
		c-0.2-1.6-0.2-3.3-0.2-4.8c0-6.3,0-12.7,0-19c0-2.3,0.6-3,2.8-3.4c1.4-0.2,2.9-0.2,4.3,0.1c1.5,0.3,2,1.1,2,2.7
		c0,6.8,0,13.7,0,20.5c0,0.5,0,0.9,0,1.4c0.2,2.4,1.4,3.7,3.9,3.9c0.7,0.1,1.2,0.1,1.9,0c3.4-0.3,5.3-2.2,5.3-5.6
		c0-6.4,0-12.9,0-19.4c0-2.5,0-3.7,3.9-3.9c0.9,0,2,0,2.9,0.2c1.8,0.3,2.4,1,2.4,2.8C132.3,10.8,132.3,15,132.3,19.2z"/>
	<path fill="#FB2525" d="M91.7,25.2c0,3.9,0,7.8,0,11.7c0,1.8-0.6,2.5-2.2,2.8c-1.7,0.3-3.4,0.3-5.1-0.1c-1.1-0.3-1.7-0.9-1.8-2
		c0-0.5-0.1-0.9-0.1-1.3c0-7.5,0-14.8,0-22.3c0-0.8-0.2-1.1-1-0.9c-1.1,0.2-2.3,0.2-3.4,0.3c-2,0.1-3.2-0.8-3.5-2.8
		c-0.3-1.4-0.3-2.9,0.1-4.3C75,4.8,76,4,77.6,4c6.3,0,12.8,0,19.1,0c0.5,0,0.9,0.1,1.3,0.3c2,0.8,2.9,5.4,1.5,6.9
		c-0.6,0.6-1.2,0.8-2,0.9c-1.6,0.1-3.2,0.3-4.8,0.4c-0.8,0-1,0.3-1,1.1C91.7,17.3,91.7,21.3,91.7,25.2z"/>
	<path fill="#FB2525" d="M149.9,22c0,4.9,0,9.9,0,14.8c0,2.2-0.6,2.9-2.7,3.2c-1.4,0.2-2.8,0.2-4.2-0.1c-1.5-0.3-2.1-1-2.2-2.5
		c-0.1-0.8,0-1.7,0-2.6c0-9.2,0-18.3,0-27.6c0-2.6,0.7-3.4,3.3-3.5c1.2-0.1,2.4-0.1,3.7,0.2c1.6,0.3,2.2,1,2.2,2.7
		C149.9,11.6,149.9,16.8,149.9,22z"/>
	<path fill="#FB2525" d="M52.3,4.7c0,2.5-2,4.7-4.6,4.7s-4.7-2-4.7-4.7s2-4.7,4.7-4.7C50.3,0,52.3,2,52.3,4.7z"/>
</g>
</svg>
