<?xml version="1.0" encoding="utf-8"?>
<!-- Generator: Adobe Illustrator 28.0.0, SVG Export Plug-In . SVG Version: 6.00 Build 0)  -->
<svg version="1.1" id="Layer_1" xmlns="http://www.w3.org/2000/svg" xmlns:xlink="http://www.w3.org/1999/xlink" x="0px" y="0px"
	 viewBox="0 0 244.3 42" style="enable-background:new 0 0 244.3 42;" xml:space="preserve">
<style type="text/css">
	.st0{fill:#56575B;}
	.st1{fill-rule:evenodd;clip-rule:evenodd;fill:#AAC89B;}
	.st2{fill-rule:evenodd;clip-rule:evenodd;fill:#9DE9E5;}
	.st3{fill-rule:evenodd;clip-rule:evenodd;fill:#214E3C;}
	.st4{fill-rule:evenodd;clip-rule:evenodd;fill:#B1A89C;}
	.st5{fill-rule:evenodd;clip-rule:evenodd;fill:#00B875;}
</style>
<g id="g48" transform="translate(-140.88,-404.68266)">
	<g id="g22">
		<g id="g20">
			<path id="path4" class="st0" d="M145.3,405.7v21.6c1-2.1,2.5-3.8,4.4-5.1c1.9-1.3,4.1-1.9,6.4-1.9c3.3,0,6.2,1.2,8.5,3.7
				c2.4,2.5,3.5,5.5,3.5,9s-1.2,6.5-3.7,9c-2.5,2.5-5.5,3.7-9,3.7c-3.5,0-6.5-1.2-9-3.7c-2.5-2.4-3.7-5.4-3.7-9v-27.3H145.3z
				 M155.4,443.1c2.8,0,5.2-1,7.2-3c2-2,3-4.4,3-7.2c0-2.8-1-5.2-3-7.2c-2-2-4.4-3-7.2-3c-2.8,0-5.2,1-7.2,3c-2,2-3,4.4-3,7.2
				c0,2.8,1,5.2,3,7.2C150.2,442.1,152.6,443.1,155.4,443.1L155.4,443.1z"/>
			<path id="path6" class="st0" d="M190.9,444.2c-1.9,1-4,1.5-6.3,1.5c-3.7,0-6.9-1.2-9.4-3.7c-2.6-2.4-3.9-5.4-3.9-9
				c0-3.5,1.2-6.4,3.5-8.9c2.3-2.5,5.2-3.8,8.5-3.8c3.3,0,6.2,1.3,8.5,3.8c2.3,2.5,3.5,5.4,3.5,8.9c0,0.6,0,1-0.1,1.2h-21.2
				c0.3,2.5,1.5,4.7,3.6,6.4s4.4,2.6,7.2,2.6c1.8,0,3.5-0.4,5.1-1.2 M183.2,422.8c-2.4,0-4.5,0.9-6.2,2.6c-1.8,1.7-2.8,3.8-3.1,6.4
				h18.7c-0.3-2.5-1.3-4.7-3.1-6.4C187.7,423.7,185.6,422.8,183.2,422.8z"/>
			<path id="path8" class="st0" d="M207.1,445.7c-1.7,0-3.2-0.3-4.6-0.9c-1.4-0.6-2.7-1.5-4-2.8l1.8-1.8c1.9,2,4.2,3,6.9,3
				c1.9,0,3.5-0.5,4.7-1.7c1.1-1,1.7-2.2,1.7-3.6c0-1.6-0.6-2.7-1.7-3.4c-0.9-0.5-2.4-0.9-4.6-1.3c-2.5-0.4-4.2-0.9-5.2-1.5
				c-1.9-1-2.8-2.7-2.8-5.1c0-1.9,0.8-3.5,2.3-4.7c1.4-1.1,3.2-1.7,5.5-1.7c2.6,0,5,0.8,7.2,2.4l-1.5,2c-1.8-1.3-3.6-1.9-5.7-1.9
				c-1.7,0-3,0.4-4,1.1c-0.9,0.7-1.3,1.6-1.3,2.7c0,1.4,0.5,2.4,1.5,2.9c1.2,0.6,2.7,1.1,4.5,1.3c2.8,0.4,4.6,0.9,5.4,1.4
				c2,1.2,2.9,3,2.9,5.6c0,2.2-0.9,4-2.6,5.5C211.7,444.9,209.6,445.7,207.1,445.7z"/>
			<path id="path10" class="st0" d="M225.5,436.2c0,1.9,0.7,3.6,2,4.9c1.4,1.4,3,2,4.9,2v2.5c-2.6,0-4.8-0.9-6.7-2.8
				c-1.9-1.9-2.8-4.1-2.8-6.7v-12.6h-5.2v-2.5h5.2v-6.9l2.5-1.3v8.1h7.2v2.5h-7.2L225.5,436.2L225.5,436.2z"/>
			<path id="path12" class="st0" d="M239.4,421.1h7v2.5h-7v21.3h-2.5v-21.3h-4.1v-2.5h4.1v-5.9c0-2.6,0.9-4.8,2.8-6.7
				c1.9-1.9,4.1-2.8,6.7-2.8v2.5c-1.9,0-3.6,0.7-4.9,2c-1.4,1.4-2,3-2,4.9L239.4,421.1z"/>
			<path id="path14" class="st0" d="M265.5,444.2c-1.9,1-4,1.5-6.3,1.5c-3.7,0-6.8-1.2-9.4-3.7c-2.6-2.4-3.9-5.4-3.9-9
				c0-3.5,1.1-6.4,3.4-8.9c2.3-2.5,5.1-3.8,8.4-3.8c3.3,0,6.2,1.3,8.5,3.8c2.3,2.5,3.4,5.4,3.4,8.9c0,0.6,0,1-0.1,1.2h-21.2
				c0.3,2.5,1.5,4.7,3.6,6.4c2,1.7,4.4,2.6,7.2,2.6c1.8,0,3.5-0.4,5.1-1.2 M257.8,422.8c-2.4,0-4.4,0.9-6.2,2.6
				c-1.8,1.7-2.8,3.8-3.1,6.4h18.7c-0.3-2.5-1.3-4.7-3.1-6.4C262.3,423.7,260.2,422.8,257.8,422.8z"/>
			<path id="path16" class="st0" d="M302.9,421.1h2.6l-6.5,23.7c-0.2,0.6-0.5,0.9-1.1,0.9h-0.1c-0.6,0-1-0.3-1.2-0.8L289,425
				l-7.6,19.8c-0.2,0.5-0.6,0.8-1.2,0.8c-0.6,0-1-0.3-1.1-0.9l-6.5-23.7h2.6l5.3,19.3l7.4-19.3c0.2-0.5,0.5-0.8,1.1-0.8
				c0.6,0,1,0.3,1.2,0.8l7.4,19.3L302.9,421.1z"/>
			<path id="path18" class="st0" d="M320.6,445.7c-3.5,0-6.5-1.2-9-3.7c-2.5-2.5-3.7-5.5-3.7-9c0-3.6,1.2-6.6,3.7-9
				c2.5-2.5,5.5-3.7,9-3.7c3.4,0,6.4,1.2,9,3.7c2.5,2.5,3.7,5.5,3.7,9c0,3.5-1.3,6.5-3.8,9C327,444.4,324.1,445.7,320.6,445.7z
				 M320.6,422.8c-2.8,0-5.2,1-7.2,3c-2,2-3,4.4-3,7.2c0,2.8,1,5.2,3,7.2c2,2,4.4,3,7.2,3c2.8,0,5.2-1,7.2-3c2-2,3-4.4,3-7.2
				c0-2.8-1-5.2-3-7.2C325.8,423.8,323.4,422.8,320.6,422.8z"/>
		</g>
	</g>
	<g id="g34">
		<g id="g30">
			<g id="g28">
				<path id="path24" class="st1" d="M377,408.5c-6.5-2.9-15.5,2.9-20.1,12.9c-4.6,10-3.1,20.6,3.5,23.4c6.5,2.8,15.5-2.9,20.1-12.9
					C385.1,421.9,383.5,411.4,377,408.5L377,408.5z"/>
				<path id="path26" class="st2" d="M345.3,407.3c6.6-4.2,17.3,0.6,23.9,10.7c6.6,10.1,6.7,21.8,0.1,26
					c-6.6,4.2-17.3-0.6-23.9-10.7C338.8,423.1,338.8,411.5,345.3,407.3L345.3,407.3z"/>
			</g>
		</g>
		<path id="path32" class="st3" d="M364,411.8c2.4,2,4.6,4.5,6.4,7.5c6.2,10.1,5.6,21.3-1.2,25c-0.7,0.4-1.4,0.6-2.1,0.8
			c-1,0.2-2,0.4-3,0.4c-1,0-2-0.1-3-0.4c-0.7-0.2-1.4-0.5-2.1-0.8c-6.8-3.7-7.4-14.9-1.2-25C359.5,416.3,361.7,413.8,364,411.8
			L364,411.8z"/>
	</g>
	<g id="g46">
		<g id="g42">
			<g id="g40">
				<path id="path36" class="st4" d="M377.2,408.5c-6.5-2.9-15.6,2.9-20.2,13c-4.6,10.1-3.1,20.7,3.5,23.5c6.5,2.8,15.6-3,20.2-13
					C385.3,421.9,383.7,411.4,377.2,408.5z"/>
				<path id="path38" class="st5" d="M345.4,407.2c6.6-4.3,17.4,0.6,24,10.8c6.7,10.2,6.8,21.9,0.1,26.2c-6.6,4.2-17.4-0.6-24-10.8
					C338.8,423.2,338.8,411.5,345.4,407.2L345.4,407.2z"/>
			</g>
		</g>
		<path id="path44" class="st3" d="M364.1,411.8c2.4,2,4.6,4.6,6.4,7.5c6.2,10.1,5.6,21.4-1.3,25.1c-0.7,0.4-1.4,0.6-2.1,0.8
			c-1,0.2-2,0.4-3,0.4c-1,0-2-0.1-3-0.4c-0.7-0.2-1.4-0.5-2.1-0.8c-6.9-3.8-7.4-15-1.2-25.1C359.6,416.3,361.8,413.8,364.1,411.8z"
			/>
	</g>
</g>
</svg>
