<?xml version="1.0" encoding="utf-8"?>
<!-- Generator: Adobe Illustrator 25.2.1, SVG Export Plug-In . SVG Version: 6.00 Build 0)  -->
<svg version="1.1" id="Layer_1" xmlns="http://www.w3.org/2000/svg" xmlns:xlink="http://www.w3.org/1999/xlink" x="0px" y="0px"
	 viewBox="0 0 223.5 42" style="enable-background:new 0 0 223.5 42;" xml:space="preserve">
<style type="text/css">
	.st0{fill:#3C3C3D;}
	.st1{fill:#EF7126;}
	.st2{fill:#EA0677;}
	.st3{fill:#BDD532;}
	.st4{fill:#019EDF;}
	.st5{fill:#414143;}
</style>
<g>
	<path class="st0" d="M78.73,15.85h-1.01c-4.91,0-8.89,3.98-8.89,8.89v3.92c0,4.91,3.98,8.89,8.89,8.89h1.01
		c4.91,0,8.89-3.98,8.89-8.89v-3.92C87.62,19.83,83.64,15.85,78.73,15.85z M81.66,28.45c0,1.9-1.54,3.43-3.43,3.43
		c-1.9,0-3.43-1.54-3.43-3.43v-3.51c0-1.9,1.54-3.43,3.43-3.43c1.9,0,3.43,1.54,3.43,3.43V28.45z"/>
	<path class="st0" d="M57.22,15.85H56.7c-0.29,0-0.58,0.02-0.86,0.05c-1.07,0.12-1.97-0.77-1.97-1.85V9.42
		c0-0.31-0.25-0.55-0.55-0.55h-1.1c-2.43,0-4.4,1.97-4.4,4.4v11.47v1.67v6.33c0,2.66,2.15,4.81,4.81,4.81h4.59
		c4.91,0,8.89-3.98,8.89-8.89v-3.92C66.1,19.83,62.12,15.85,57.22,15.85z M60.42,28.45c0,1.9-1.54,3.43-3.43,3.43
		c-1.9,0-3.43-1.54-3.43-3.43v-3.51c0-1.9,1.54-3.43,3.43-3.43c1.9,0,3.43,1.54,3.43,3.43V28.45z"/>
	<path class="st0" d="M182.67,15.85h-1.01c-4.91,0-8.89,3.98-8.89,8.89v3.92c0,4.91,3.98,8.89,8.89,8.89h1.01
		c4.91,0,8.89-3.98,8.89-8.89v-3.92C191.56,19.83,187.58,15.85,182.67,15.85z M185.6,28.45c0,1.9-1.54,3.43-3.43,3.43
		s-3.43-1.54-3.43-3.43v-3.51c0-1.9,1.54-3.43,3.43-3.43s3.43,1.54,3.43,3.43V28.45z"/>
	<path class="st0" d="M112.81,15.76h-0.51c-0.29,0-0.58,0.02-0.86,0.05c-1.07,0.12-1.97-0.76-1.97-1.82l0-4.58
		c0-0.3-0.25-0.55-0.55-0.55h-1.1c-2.43,0-4.4,1.95-4.4,4.35v11.34v1.65v6.25c0,2.62,2.15,4.75,4.81,4.75h0
		c0.72,0,1.3-0.58,1.3-1.29l0-11.73c0-1.4,0.97-2.69,2.36-2.92c1.78-0.29,3.31,1.06,3.31,2.77v11.12c0,1.13,0.93,2.04,2.07,2.04h0
		c2.45,0,4.44-1.96,4.44-4.38v-8.27C121.7,19.7,117.72,15.76,112.81,15.76z"/>
	<path class="st0" d="M166.65,31.13c-0.68,0.55-1.58,0.85-2.55,0.73c-1.78-0.21-3.02-1.9-3.02-3.69l0-3c0-1.71,1.14-3.32,2.82-3.61
		c0.81-0.14,1.59,0.01,2.23,0.36c1.21,0.65,2.66,0.6,3.63-0.37v0c1.42-1.42,1.04-3.8-0.74-4.72c-1.2-0.62-2.56-0.97-4.01-0.97h-0.92
		c-4.96,0-8.98,4.02-8.98,8.98v3.73c0,4.96,4.02,8.98,8.98,8.98h0.92c1.48,0,2.87-0.36,4.09-1c1.92-1,2.29-3.6,0.76-5.13v0
		C169.01,30.55,167.6,30.36,166.65,31.13z"/>
	<path class="st0" d="M99,31.82c-1.07,0-1.94-0.87-1.94-1.94v-1.3V9.42c0-0.31-0.25-0.55-0.55-0.55h-1.26c-2.43,0-4.4,1.97-4.4,4.4
		v15.31v3.24v0c0,3.13,2.54,5.67,5.67,5.67h0.54h2.51c0.89,0,1.62-0.72,1.62-1.62v-1.87C101.19,32.8,100.21,31.82,99,31.82L99,31.82
		z"/>
	<path class="st1" d="M148.29,31.95c-2.13,0.01-3.89-1.75-3.93-3.94c-0.04-2.06,1.78-3.89,3.89-3.91c2.18-0.02,3.98,1.72,4,3.85
		C152.27,30.2,150.55,31.93,148.29,31.95z"/>
	<path class="st0" d="M132.71,15.85h-0.62c-2.18,0-4.17,0.78-5.71,2.08c-1,0.84-1.04,2.36-0.12,3.28l0.3,0.3
		c0.86,0.86,2.18,0.98,3.24,0.38c0.95-0.54,1.59-0.66,2.31-0.66c1.98,0,3.57,0.61,3.53,3.14c-1.43,0-3.28-0.02-4.96-0.03
		c-1.69-0.01-3.32,0.64-4.55,1.81l-0.19,0.18c-2.37,2.28-2.53,6.07-0.27,8.45c1.61,1.7,3.89,2.75,6.42,2.75h5.47
		c2.24,0,4.05-1.81,4.05-4.05v-8.76C141.6,19.83,137.62,15.85,132.71,15.85z M133.68,32.39h-1.71c-1.04,0-1.88-0.84-1.88-1.88
		c0-1.04,0.84-1.88,1.88-1.88h1.71c1.04,0,1.88,0.84,1.88,1.88C135.56,31.55,134.72,32.39,133.68,32.39z"/>
	<path class="st0" d="M215.24,16.25h-2.37c-1.1,0-2.13,0.26-3.05,0.72c-0.82,0.41-1.76,0.45-2.59,0.04
		c-1.1-0.54-2.34-0.84-3.65-0.84h-4.31c-2.44,0-4.42,1.98-4.42,4.42v3.8v1.15v7.72c0,2.02,1.64,3.66,3.66,3.66h1
		c0.81,0,1.47-0.66,1.47-1.47v-9.91V24.4v-0.54c0-1.36,1.1-2.45,2.45-2.45c1.36,0,2.45,1.1,2.45,2.45v0.54v1.15v7.72
		c0,2.02,1.64,3.66,3.66,3.66h1c0.81,0,1.47-0.66,1.47-1.47v-9.91V24.4v-0.54c0-1.36,1.1-2.45,2.45-2.45c1.36,0,2.45,1.1,2.45,2.45
		v1.7h0.02v7.72c0,2.02,1.64,3.66,3.66,3.66h1c0.81,0,1.47-0.66,1.47-1.47v-9.91V24.4v-0.29C223.1,19.77,219.58,16.25,215.24,16.25z
		"/>
	<g>
		<path class="st2" d="M12.44,28.07c0.01-5.22,4.21-9.38,9.46-9.38c5.19,0.01,9.4,4.22,9.39,9.4c-0.01,5.23-4.21,9.45-9.42,9.44
			C16.61,37.54,12.43,33.35,12.44,28.07z"/>
		<path class="st3" d="M7.95,6.75c4.19,0,7.54,3.38,7.53,7.6c-0.01,4.07-3.42,7.48-7.5,7.48C3.8,21.84,0.4,18.45,0.4,14.27
			C0.4,10.12,3.8,6.74,7.95,6.75z"/>
		<path class="st4" d="M29.35,10.34c-0.05,3.29-2.67,5.78-6.03,5.73c-3.16-0.05-5.63-2.74-5.58-6.07c0.05-3.06,2.75-5.6,5.89-5.55
			C26.84,4.51,29.4,7.14,29.35,10.34z"/>
		<path class="st5" d="M33.47,21.01c-1.99,0.01-3.63-1.61-3.65-3.61c-0.02-2.01,1.61-3.66,3.64-3.68c1.96-0.02,3.64,1.65,3.65,3.61
			C37.12,19.36,35.5,21,33.47,21.01z"/>
		<path class="st1" d="M6.05,31.74c-1.97,0.01-3.6-1.62-3.63-3.64c-0.04-1.91,1.65-3.6,3.6-3.62c2.01-0.02,3.69,1.59,3.7,3.56
			C9.73,30.12,8.14,31.73,6.05,31.74z"/>
	</g>
</g>
</svg>
