<?xml version="1.0" encoding="utf-8"?>
<!-- Generator: Adobe Illustrator 23.0.3, SVG Export Plug-In . SVG Version: 6.00 Build 0)  -->
<svg version="1.1" id="Layer_1" xmlns="http://www.w3.org/2000/svg" xmlns:xlink="http://www.w3.org/1999/xlink" x="0px" y="0px"
	 viewBox="0 0 283.4 47" style="enable-background:new 0 0 283.4 47;" xml:space="preserve">
<style type="text/css">
	.st0{fill:#203F7A;}
	.st1{fill:#03ACED;}
</style>
<g>
	<path class="st0" d="M0.2,3.5c0-2.3,1.5-2.5,5-2.5c3.5,0.1,6.9-0.3,10.4,0.3C20.3,2,23.2,5,23.7,9.4c0.3,2.9-0.6,5.4-2.8,7.5
		c-0.3,0.3-0.6,0.6-0.9,0.9c5.1,3.5,6.6,8.5,3.8,13.4c-1.9,3.5-5,5-8.8,5.3c-4.4,0.4-8.8,0.1-13.4,0.1c-0.6,0-1.2-0.1-1.6,0.1
		C0.2,25.7,0.2,14.7,0.2,3.5z M7.1,26.4L7.1,26.4c0,1,0,2.1,0,3.1c0,0.7,0.1,1,1,1c1.8,0,3.7,0,5.4,0c2.5,0,4.1-1.6,4.4-4.3
		c0.3-2.2-1.2-4.4-3.2-5c-1.6-0.4-3.4-0.3-5-0.3s-2.3,0.7-2.5,2.3C7.1,24.4,7.1,25.4,7.1,26.4z M7.2,12C7.1,12,7.1,12,7.2,12
		c0,0.9,0,1.8,0,2.6c0,0.4,0,0.9,0.6,0.9c1.8,0,3.7,0.1,5.4-0.1c2.2-0.3,3.5-2.1,3.4-4.3c0-2.2-1.3-3.7-3.7-4c-1.2-0.1-2.3,0-3.5,0
		C8.1,7.1,7.3,8,7.2,9.3C7.1,10.1,7.2,11,7.2,12z"/>
	<path class="st1" d="M251.3,14c6.5-5,10.6-4.8,15,0.7c2.1-2.5,4.7-4.1,8.1-4.3c5.4-0.1,8.7,2.8,9,8.4c0.1,5.7,0,11.5,0,17.2
		c0,0.4,0,0.9-0.6,0.9c-1.3,0-2.6,0-3.8-0.1c-1.9-0.3-2.8-1.3-2.8-3.4c0-3.8,0-7.6,0-11.6c0-0.7,0-1.3-0.1-2.1
		c-0.4-2.3-1.9-3.2-4.1-2.3c-2.9,1-4.1,3.5-4.3,6.5c-0.3,3.8-0.1,7.8-0.1,11.6c0,1.2-0.3,1.5-1.5,1.5c-1.6-0.1-3.1-0.1-4.7,0
		c-0.9,0-1.2-0.3-1.2-1.2c0-4.3,0-8.7,0-12.9c0-0.9,0-1.6-0.1-2.5c-0.3-2.9-2.8-4.1-5.3-2.5c-2.5,1.6-3.2,4.3-3.4,7
		c-0.1,3.5-0.1,7.2,0,10.7c0,1-0.1,1.3-1.3,1.3c-1.6-0.1-3.1-0.1-4.7,0c-0.9,0-1.2-0.3-1.2-1.2c0-5.7,0-11.5,0-17c0-2.2,0-4.4,0-6.6
		c0-0.7,0.1-1,0.9-1s1.5,0,2.2,0C249.4,11,250.9,11.8,251.3,14z"/>
	<path class="st0" d="M168.7,34.7c-5.6,3.2-11.2,1.5-13.9-1.3c-3.1-3.1-4.1-6.9-3.8-11.2c0.1-2.1,0.6-4,1.5-5.9
		c2.9-5.7,10.7-7.9,16.1-4.3c0.7,0.4,1.2,0.6,1.8-0.1c0.3-0.6-0.1-1.4,0.8-1.4c1.5,0,3.7,0.1,4.5,0c0.7,0,0.7,0.6,0.7,1.3
		s0.1,16.1,0,24.2c-0.1,5.4-4.1,9.5-10,10.6c-4.3,0.7-8.4,0.1-12.3-1.6c-0.9-0.4-1-0.7-0.6-1.6c0.4-0.9,0.6-1.8,1-2.5
		c0.7-1.8,1.5-2.1,3.2-1.5c2.3,0.6,4.7,1.2,7,0.6C167.5,39.2,168.8,37.4,168.7,34.7z M158.5,23.1c0,1.5,0.3,2.8,1,4.1
		c1,1.9,2.8,2.6,4.8,2.5c2.2-0.1,3.5-1.3,4.1-3.5c0.6-1.9,0.6-3.8,0.1-5.7c-0.4-1.8-1.5-2.9-3.2-3.4
		C161.3,16.2,158.5,18.5,158.5,23.1z"/>
	<path class="st0" d="M110.1,11c-1,1.5-1.8,2.6-2.6,3.8c-1.8,2.5-3.4,5-5.1,7.3c-0.4,0.6-0.1,0.9,0,1.3c2.5,4.4,4.8,8.7,7.5,12.9
		c0,0,0,0.1,0,0.3c-2.3,0-4.7,0.1-7,0c-1.3,0-2.2-0.9-2.9-2.1c-1.3-2.3-2.5-4.7-3.8-7c-0.1-0.3-0.3-0.6-0.4-0.9
		c-0.4-0.7-1-0.7-1.7-0.5c-0.6,0.1-0.5,0.8-0.5,1.3c0,2.8,0,5.4,0,8.2c0,0.9-0.1,1.3-1.2,1.3c-1.8-0.1-3.7,0-5.4,0c-0.7,0-1-0.1-1-1
		c0-11.3,0-22.6,0-33.9c0-0.7,0.3-1,1-1c1,0,2.1,0,3.1,0c2.5,0,3.5,1,3.5,3.4c0,4.4,0,9,0,13.4c0,0.6-0.1,1.6,0.7,1.9
		c0.9,0.3,1.6,0,2.2-1c1.5-2.2,2.9-4.6,4.4-6.8c0.4-0.7,0.9-0.9,1.6-0.9C105,11,107.3,11,110.1,11z"/>
	<path class="st0" d="M131.1,13.7c2.6-2.6,5.6-3.7,9-3.2c5.3,0.4,8.1,3.4,8.2,8.8c0.1,2.9,0.1,6,0,9c0,2.6,0,5.1,0.1,7.8
		c0,0.7-0.1,0.9-0.9,0.9c-0.9,0-1.9,0-2.8,0c-2.8,0-4-1.2-4-3.8c0-3.5,0-5.6,0-9.2c0-0.6-0.1-2.2-0.1-3c0-2.9-1.4-3.6-4.6-3.2
		c-3.1,0.7-4.8,3.4-5,7.2c0,3.7,0,7.3,0,11c0,1-0.3,1.2-1.2,1.2c-1.8-0.1-3.7,0-5.4,0c-0.7,0-0.9-0.1-0.9-0.9c0-8.1,0-16,0-24.1
		c0-0.7,0.1-1,0.9-1c1,0.1,1.9-0.1,2.9,0C129.3,11,130.5,11.8,131.1,13.7z"/>
	<path class="st0" d="M69.6,10.4c7.9,0,13.7,5.6,13.7,13.4s-5.7,13.5-13.7,13.5c-7.8,0-13.7-5.7-13.7-13.4
		C55.9,16,61.7,10.4,69.6,10.4z M63.4,23.9c-0.1,1.3,0.3,2.5,0.9,3.8c2.1,4,7.8,4.3,10.4,0.6c1.8-2.5,1.6-6.8-0.3-9.1
		c-1.6-2.1-4.3-2.8-6.8-1.9C65,17.9,63.4,20.6,63.4,23.9z"/>
	<path class="st1" d="M228.1,10.4c7.9,0,13.7,5.6,13.7,13.4s-5.7,13.5-13.7,13.5c-7.8,0-13.5-5.6-13.7-13.2
		C214.6,16,220.1,10.4,228.1,10.4z M234.4,24.1c0.1-3.8-2.1-6.8-5.3-7.2c-3.4-0.4-6,1.5-6.9,5s0.7,7.3,3.7,8.5
		C230.2,32.2,234.3,29.1,234.4,24.1z"/>
	<path class="st0" d="M27,23.8c0-7.8,5.6-13.4,13.5-13.4c8.1,0,13.8,5.6,13.8,13.5c0,7.6-5.9,13.4-13.7,13.4
		C32.6,37.3,27,31.7,27,23.8z M46.8,23.8c0-3.8-2.2-6.6-5.4-7c-4-0.4-7.2,2.6-6.9,7.5c0.1,3.5,2.3,6,5.1,6.5
		C43.8,31.4,46.8,28.5,46.8,23.8z"/>
	<path class="st1" d="M188.9,23.9c0-7.9,6-13.7,14.2-13.5c2.1,0,4.1,0.4,6,1.3c2.5,1.2,3.7,3.1,3.5,5.9c-0.1,2.3-0.1,2.3-2.5,2.3
		c-1.9,0-3.4-0.1-4.3-2.2c-0.6-1.2-2.1-1.2-3.2-1.2c-4.3,0.3-7,4-6.5,8.4c0.6,4,4.3,6.6,8.4,5.9c2.2-0.4,4-1.5,5.6-2.9
		c0.6-0.6,0.9-0.7,1.3,0.1c0.6,1.2,1.5,2.3,2.2,3.5c0.4,0.6,0.3,1-0.1,1.6c-5.9,6.3-17.6,5.4-22.3-1.6
		C189.7,29.2,188.9,26.7,188.9,23.9z"/>
	<path class="st0" d="M112,12.5c0-1,0.1-1.5,1.1-1.5c1.1,0,4.2,0,5.2,0c1.1,0,1.2,0.7,1.2,1.5s0,17.1,0,23.4c0,1.1-0.3,1.1-1.3,1.1
		c-0.7,0-4.2,0-5,0s-1.4,0-1.4-1.2S112,13.5,112,12.5z"/>
	<path class="st0" d="M119.9,4.3c0,2.5-1.9,4.4-4.4,4.4c-2.3,0-4.4-1.9-4.4-4.4c0-2.3,1.9-4.3,4.3-4.3C118-0.1,119.9,1.8,119.9,4.3z
		"/>
	<path class="st1" d="M187.9,32.7c0,2.5-1.9,4.4-4.4,4.4s-4.4-2.1-4.4-4.4s2.1-4.3,4.4-4.3C185.9,28.3,187.9,30.4,187.9,32.7z"/>
</g>
</svg>
