<?xml version="1.0" encoding="utf-8"?>
<!-- Generator: Adobe Illustrator 25.2.1, SVG Export Plug-In . SVG Version: 6.00 Build 0)  -->
<svg version="1.1" id="Layer_1" xmlns="http://www.w3.org/2000/svg" xmlns:xlink="http://www.w3.org/1999/xlink" x="0px" y="0px"
	 viewBox="0 0 229.63 42" style="enable-background:new 0 0 229.63 42;" xml:space="preserve">
<style type="text/css">
	.st0{fill:#053875;}
	.st1{fill:#00A8E8;}
	.st2{fill:#007EA7;}
</style>
<g>
	<path class="st0" d="M13.49,15.62c-0.53,0.05-1.04-0.04-1.49-0.45c-1.91-1.78-3.85-3.55-5.77-5.33C5.42,9.08,5.37,7.99,6.21,7.27
		c2.19-1.87,4.41-3.7,6.64-5.52c0.48-0.39,1.13-0.41,1.69-0.27C18.27,2.41,22,3.36,25.71,4.36c1.64,0.44,1.87,1.15,1.14,2.69
		c-0.87,1.84-1.77,3.67-2.52,5.57c-0.54,1.37-1.56,1.61-2.83,1.78c-2.52,0.34-5.02,0.82-7.53,1.23
		C13.83,15.64,13.68,15.62,13.49,15.62z"/>
	<path class="st0" d="M36.7,18.14c0.43-0.03,0.77,0.19,1.09,0.44c1.4,1.1,2.82,2.18,4.19,3.32c0.64,0.53,1.2,1.14,1.57,1.95
		c0.84,1.82,1.77,3.58,2.67,5.37c0.57,1.13,0.41,1.72-0.74,2.44c-1.57,0.98-3.17,1.93-4.76,2.89c-1.21,0.74-2.41,1.5-3.63,2.24
		c-0.96,0.59-1.78,0.36-2.3-0.66c-2.09-4.1-4.17-8.2-6.24-12.31c-0.68-1.35-0.49-1.93,0.89-2.57c2.2-1.01,4.42-1.96,6.62-2.97
		C36.29,18.2,36.48,18.14,36.7,18.14z"/>
	<path class="st1" d="M42.18,12.46c-0.09,0.84-0.34,1.36-0.97,1.68c-4.36,2.17-8.71,4.38-13.08,6.54c-0.89,0.44-1.75,0.42-2.26-0.65
		c-0.03-0.06-0.09-0.12-0.13-0.17c-2.91-3.34-2.17-2.22-0.84-6.16c0.12-0.34,0.29-0.67,0.38-1.01c0.44-1.82,2.14-2.23,3.45-3.04
		c2.15-1.34,4.37-2.57,6.55-3.88c0.83-0.5,1.61-0.38,2.16,0.29c1.52,1.86,2.96,3.78,4.41,5.69C42.01,11.97,42.22,12.28,42.18,12.46z
		"/>
	<path class="st0" d="M12.61,37.46c-1.36,0.39-1.93-1.07-2.91-1.72c-0.66-0.44-1.17-1.1-1.82-1.59c-0.99-0.74-1.08-1.36-0.51-2.47
		c1.03-2,2.06-3.99,3.1-5.98c0.46-0.89,1.41-1.19,2.3-0.66c2.54,1.53,5.04,3.11,7.57,4.66c0.45,0.28,0.7,0.69,0.66,1.17
		c-0.14,1.52-0.34,3.04-0.54,4.55c-0.15,1.14-1.04,1.44-1.96,1.54C16.61,37.17,14.72,37.29,12.61,37.46z"/>
	<path class="st2" d="M26.8,24.16c0.05,0.86-0.34,1.32-1.15,1.49c-1.95,0.41-3.89,0.84-5.83,1.29c-0.34,0.08-0.58-0.07-0.82-0.2
		c-1.88-0.96-3.76-1.92-5.61-2.92c-1.2-0.64-1.41-1.67-0.66-2.83c0.02-0.03,0.06-0.05,0.07-0.08c0.97-3.22,3.95-3.82,6.5-4.98
		c0.26-0.12,0.54-0.19,0.8-0.32c1.04-0.5,1.85-0.32,2.41,0.62c1.39,2.33,2.75,4.67,4.15,7C26.85,23.55,26.75,23.87,26.8,24.16z"/>
	<path class="st1" d="M1.22,17.26c0-1.88,0.79-2.44,2.13-2.21c2,0.34,4.02,0.57,6.04,0.85c0.57,0.08,1.16,0.13,1.72,0.28
		c0.96,0.26,1.43,1.41,0.94,2.55c-0.84,1.96-1.33,4.04-2.12,6.03c-0.45,1.14-1.12,1.51-2.19,0.93c-1.75-0.95-3.46-1.97-5.16-3.01
		c-0.71-0.44-0.64-1.24-0.74-1.97C1.65,19.39,1.37,18.08,1.22,17.26z"/>
	<path class="st2" d="M21.24,37.28c0-0.41,0.04-0.82-0.01-1.22c-0.17-1.49,0.52-2.03,2.03-1.93c2.38,0.16,4.25,1.55,5.03,3.85
		c0.25,0.74-0.22,1.75-1,1.9c-1.49,0.29-3,0.54-4.51,0.69c-1.02,0.1-1.53-0.48-1.54-1.51C21.23,38.46,21.24,37.87,21.24,37.28z"/>
	<path class="st1" d="M29.24,28.62c0.36,0.95-0.44,1.51-1.12,2.05c-0.78,0.62-1.5,1.29-2.18,2c-0.88,0.92-1.76,0.6-2.65,0.07
		c-1.13-0.68-1.17-1.28-1.08-2.41c0.23-3.14,2.56-3.37,4.84-3.74C28.79,26.31,29.24,26.72,29.24,28.62z"/>
	<path class="st2" d="M43.26,17.43c0.01,1.24-0.82,2.47-1.67,2.47c-0.87-0.01-2.32-1.43-2.33-2.29c-0.01-1.06,1.12-2.39,2.01-2.36
		C42.14,15.3,43.25,16.51,43.26,17.43z"/>
	<path class="st1" d="M28.61,34.69c-0.23-1.29,0.69-1.37,1.49-1.66c1.06-0.38,1.89-0.15,2.42,0.81c0.44,0.8,0.39,1.61-0.44,2.21
		c-0.91,0.66-1.85,0.16-2.71-0.05C28.84,35.87,28.32,35.36,28.61,34.69z"/>
</g>
<g>
	<path class="st0" d="M54.45,21.63c0-4.07,3.13-6.99,7.33-6.99c2.33,0,4.29,0.85,5.56,2.39l-2.01,1.85
		c-0.91-1.04-2.05-1.58-3.4-1.58c-2.53,0-4.32,1.78-4.32,4.32s1.8,4.32,4.32,4.32c1.35,0,2.49-0.54,3.4-1.6l2.01,1.85
		c-1.27,1.56-3.22,2.41-5.58,2.41C57.58,28.62,54.45,25.7,54.45,21.63z"/>
	<path class="st0" d="M81.92,28.39l-2.61-3.76h-0.15h-2.72v3.76h-3.13V14.88h5.85c3.61,0,5.87,1.87,5.87,4.9
		c0,2.03-1.02,3.51-2.78,4.27l3.03,4.34H81.92z M78.98,17.42h-2.55v4.71h2.55c1.91,0,2.88-0.89,2.88-2.35
		C81.86,18.29,80.89,17.42,78.98,17.42z"/>
	<path class="st0" d="M90.51,21.63c0-4.01,3.13-6.99,7.39-6.99c4.25,0,7.39,2.95,7.39,6.99s-3.15,6.99-7.39,6.99
		C93.64,28.62,90.51,25.65,90.51,21.63z M102.13,21.63c0-2.57-1.81-4.32-4.23-4.32s-4.23,1.76-4.23,4.32s1.81,4.32,4.23,4.32
		S102.13,24.2,102.13,21.63z"/>
	<path class="st0" d="M131.49,14.88l-4.42,13.51h-3.36l-2.97-9.15l-3.07,9.15h-3.34l-4.44-13.51h3.24l3.05,9.5l3.19-9.5h2.9
		l3.09,9.57l3.15-9.57H131.49z"/>
	<path class="st0" d="M136.09,21.63c0-4.01,3.13-6.99,7.39-6.99c4.25,0,7.39,2.95,7.39,6.99s-3.15,6.99-7.39,6.99
		C139.22,28.62,136.09,25.65,136.09,21.63z M147.71,21.63c0-2.57-1.81-4.32-4.23-4.32s-4.23,1.76-4.23,4.32s1.81,4.32,4.23,4.32
		S147.71,24.2,147.71,21.63z"/>
	<path class="st0" d="M169.49,14.88v13.51h-2.57l-6.74-8.2v8.2h-3.09V14.88h2.59l6.72,8.2v-8.2H169.49z"/>
	<path class="st0" d="M176.55,14.88h6.14c4.42,0,7.45,2.66,7.45,6.76c0,4.09-3.03,6.76-7.45,6.76h-6.14V14.88z M182.54,25.82
		c2.68,0,4.44-1.6,4.44-4.19c0-2.59-1.76-4.19-4.44-4.19h-2.86v8.38H182.54z"/>
	<path class="st0" d="M206.82,25.88v2.51h-10.46V14.88h10.21v2.51h-7.1v2.93h6.27v2.43h-6.27v3.13H206.82z"/>
	<path class="st0" d="M221.79,28.39l-2.61-3.76h-0.15h-2.72v3.76h-3.13V14.88h5.85c3.61,0,5.87,1.87,5.87,4.9
		c0,2.03-1.02,3.51-2.78,4.27l3.03,4.34H221.79z M218.85,17.42h-2.55v4.71h2.55c1.91,0,2.88-0.89,2.88-2.35
		C221.73,18.29,220.76,17.42,218.85,17.42z"/>
</g>
</svg>
