<?xml version="1.0" encoding="utf-8"?>
<!-- Generator: Adobe Illustrator 23.0.3, SVG Export Plug-In . SVG Version: 6.00 Build 0)  -->
<svg version="1.2" baseProfile="tiny" id="Layer_1" xmlns="http://www.w3.org/2000/svg" xmlns:xlink="http://www.w3.org/1999/xlink"
	 x="0px" y="0px" viewBox="0 0 258.6 42" xml:space="preserve">
<g>
	<g>
		<polygon fill="#CB7623" points="198.6,40.8 207.1,40.8 207.1,13.6 198.6,14.4 		"/>
		<polygon fill="#CB7623" points="236.2,40.8 244.7,40.8 244.7,13.6 236.2,14.4 		"/>
		<polygon fill="#CB7623" points="236.2,9.3 244.7,8.2 244.7,0.6 236.2,1.4 		"/>
		<polygon fill="#CB7623" points="206.6,0.6 198.1,1.4 198.1,9.3 206.6,8.2 		"/>
		<polygon fill="#CB7623" points="250,0.8 250,40.8 258.6,40.8 258.6,0 		"/>
		<polygon fill="#CB7623" points="229.2,19.4 229.2,19.4 232.3,13.6 211.6,13.6 210.9,19.4 221.7,19.4 213.5,35 213.5,35 
			210.4,40.8 231.8,40.8 232.5,34.9 221,35 		"/>
		<polygon fill="#CB7623" points="70.8,29.6 86.2,29.6 88.6,23.2 73.1,23.2 		"/>
		<path fill="#CB7623" d="M185.2,12.4c-2.8,0-6.4,1.9-8.5,4.4c-1.3-2.6-3.8-4.4-6.7-4.4c-3,0-7,2.2-9,5v-3.9l-8.5,0.8v26.4h8.5
			c0,0,0-15.9,0-18.2s2.4-3.3,4.1-3.3c1.6,0,3.9,1.7,3.9,3.8c0,2.4,0,17.7,0,17.7h7.7c0,0,0-16.7,0-18.3c0-1.6,2.3-3.2,3.9-3.2
			c2,0,4.5,1.6,4.5,4.1c0,2.5,0,17.4,0,17.4h7.7V20.5h0c0,0,0,0,0,0C192.8,16,189.4,12.4,185.2,12.4z"/>
		<path fill="#CB7623" d="M108.2,13.9c-2.4-0.6-5.4-0.5-7.4-0.2c-6.1,0.9-10.9,6.5-10.9,14.3c0,7.8,5,14.1,11.1,14.1
			c2.8,0,5.3-1.3,7.2-3.4v2.5h8.5V0.3l-8.5,1.2V13.9z M108.1,32.6c-1.3,1.7-3,2.7-4.8,2.5c-3.3-0.3-5.6-4.4-5.2-9
			c0.5-4.7,3.5-8.2,6.8-7.8c1.2,0.1,2.3,0.8,3.2,1.7V32.6z"/>
		<path fill="#CB7623" d="M134.6,12.8c-7.8,0-14.1,6.5-14.1,14.4c0,8,6.3,14.4,14.1,14.4s14.1-6.5,14.1-14.4
			C148.7,19.2,142.4,12.8,134.6,12.8z M134.6,36.9c-2.9,0-5.2-4.3-5.2-9.7c0-5.4,2.3-9.7,5.2-9.7s5.2,4.3,5.2,9.7
			C139.8,32.5,137.5,36.9,134.6,36.9z"/>
	</g>
	<g>
		<path fill="#CB7623" d="M60.3,3.1C53.5,1.4,49.6,0,33.6,0c-15.9,0-21,1.3-25.5,2.6C3.6,3.8,0,7.5,0,11.8v0.3v17.8v0.3
			c0,4.3,0.5,7.1,7.3,8.7C14.1,40.6,18,42,34,42s21-1.3,25.5-2.6c4.6-1.2,8.1-4.9,8.1-9.2v-0.3V12.1v-0.3
			C67.6,7.5,67.1,4.7,60.3,3.1z"/>
		<path fill="#FFFFFF" d="M59.5,25.3c-5.9,0.1-11.8,0.2-17.7,0c-2.9-0.1-3.9,0.5-3.9,3.8c0,0.1,0,2,0,2.1c0,0.9-0.2,1-1.6,1
			c-1.8,0-4.2,0-5.4,0c-1.3,0-1.5,0-1.5-1.3c0-1,0-3.8,0-6.3c0-2.4,0.5-2.8,2.6-2.7c4.5,0.1,9.1,0,13.6,0c4.6,0,9.3,0,13.9,0
			c0.9,0,2.1,0.3,2.1-1.3c0-3.2,0-6.5-0.1-9.7c0-1.3-1-2.1-2-2.7c-1.6-1-3.4-1.5-5.2-2C45.9,4.3,37.4,4.3,29,4.4
			c-5.6,0.1-11.2,0.3-16.7,1.9C7.5,7.9,6,9.9,5.9,14.9c0,4.4,0,8.9,0,13.3c0,2.6,1.1,4.5,3.2,5.9c3.1,2,6.9,2.7,10.3,3.1
			c6.5,0.7,13.1,0.4,19.7,0.3c5.7,0,11.4-0.6,16.9-2.3c4.6-1.4,5.7-3.1,5.6-7.7C61.6,25.8,61.1,25.3,59.5,25.3z M29.5,13.4
			c0-3.8,0.4-4.2,4.2-4.2c3.6,0,4,0.4,4,4.4c0,2.9,0,3.3,0,3.3l-8.2,0C29.5,17,29.5,16.2,29.5,13.4z"/>
	</g>
</g>
</svg>
