<?xml version="1.0" encoding="utf-8"?>
<!-- Generator: Adobe Illustrator 23.0.3, SVG Export Plug-In . SVG Version: 6.00 Build 0)  -->
<svg version="1.2" baseProfile="tiny" id="Layer_1" xmlns="http://www.w3.org/2000/svg" xmlns:xlink="http://www.w3.org/1999/xlink"
	 x="0px" y="0px" viewBox="0 0 171.9 42" xml:space="preserve">
<g>
	<g>
		<path fill="#203662" d="M35.7,12.3c1.9,5.6,1.3,11-1.9,15.9c-4,6.3-11.3,9.4-18.5,8.1C7.6,34.9,1.8,29.3,0.3,22
			c5.1-1.2,10.3-2.4,15.3-3.6c2-0.5,3.9-1.1,5.9-1.6c0.2-0.1,0.5-0.3,0.6,0.2c0.1,0.7,0.5,1.5,0.4,2.3c-0.3,2.9-0.5,5.8-0.7,8.7
			c0,0.4-0.1,0.7,0,1.1c0.7,0,1.1-0.5,1.3-1.1c1.2-4,2.5-8,3.8-12c0.2-0.5,0.5-0.8,1-1C30.5,14.1,33.2,13.8,35.7,12.3z"/>
		<path fill="#203662" d="M0.2,21.1C-1.4,11.5,5.3,2,15,0.3c8.2-1.5,16.2,2.6,19.8,9.8c0.1,0.2,0.1,0.3,0.2,0.5
			c-1.3,0.1-2.6,0.4-3.8,0.7c-1.4,0.5-2.7,0.7-4.1,1.2c-0.5,0.2-0.8,0.1-1.2-0.3c-3.2-2.8-6.5-5.6-9.7-8.4c-0.5-0.5-1-0.5-1.6-0.1
			c1.7,2.4,3.5,4.8,5.3,7c0.6,0.8,1.1,1.7,1.5,2.7c0.2,0.5,0.2,0.7-0.5,0.8c-2.7,0.7-5.6,1.6-8.2,2.5C8.5,18.2,4.4,19.6,0.2,21.1z"
			/>
		<path fill="#F2B516" d="M0.2,21.1c4.1-1.4,8.2-2.8,12.4-4.3c2.7-1,5.5-1.7,8.2-2.5c0.5-0.2,0.5-0.4,0.5-0.8
			c-0.4-1-0.8-1.8-1.5-2.7c-1.7-2.3-3.5-4.7-5.3-7c0.5-0.4,1-0.4,1.6,0.1c3.2,2.8,6.5,5.6,9.7,8.4c0.4,0.4,0.7,0.5,1.2,0.3
			c1.4-0.5,2.7-0.7,4.1-1.2c1.3-0.4,2.6-0.7,3.8-0.7c0.3,0.5,0.5,1.1,0.6,1.6c-2.4,1.5-5.2,1.8-7.8,2.7c-0.5,0.2-0.8,0.4-1,1
			c-1.2,4-2.5,8-3.8,12c-0.2,0.6-0.5,1.1-1.3,1.1c-0.1-0.4,0-0.7,0-1.1c0.3-2.9,0.5-5.8,0.7-8.7c0.1-0.8-0.3-1.6-0.4-2.3
			c-0.1-0.5-0.4-0.2-0.6-0.2c-2,0.5-3.9,1.2-5.9,1.6C10.6,19.6,5.5,20.8,0.3,22C0.3,21.6,0.2,21.3,0.2,21.1z"/>
	</g>
	<g>
		<path fill="#203662" d="M44.5,16.3c0-3.7,0-7.3,0-11c0-2.1,1.2-3.2,3.2-3.2c4.2,0,8.5,0,12.7,0c0.7,0,0.9,0.2,0.7,0.8
			c-0.1,0.2-0.1,0.4-0.2,0.6c-0.8,2.9-0.9,3-3.9,3c-2.3,0-4.5,0-6.8,0c-0.5,0-0.8,0.1-0.7,0.7c0,1.6,0,3.2,0,4.9
			c0,0.5,0.2,0.7,0.7,0.7c2.8,0,5.7,0,8.6,0c0.6,0,0.8,0.2,0.8,0.8c-0.1,1-0.1,1.9,0,2.9c0,0.6-0.1,0.9-0.8,0.9c-2.8,0-5.6,0-8.4,0
			c-0.7,0-0.9,0.2-0.9,0.9c0,2.4,0,4.8,0,7.1c0,0.6,0.2,0.8,0.8,0.8c3.4,0,6.8,0,10.1,0c0.7,0,1,0.2,0.7,0.9c0,0.1-0.1,0.3-0.1,0.4
			c-0.8,3.1-1,3.2-4.1,3.2c-3.1,0-6.2,0-9.4,0c-1.9,0-3.1-1.2-3.1-3.1C44.5,23.8,44.5,20.1,44.5,16.3z"/>
		<path fill="#203662" d="M142.2,15.9c0,4.4,0,8.9,0,13.3c0,0.6-0.2,1-0.7,1.3c-0.9,0.5-1.8,0.8-2.7,1.2c-0.5,0.2-0.8,0.1-0.7-0.5
			c0.1-0.8-0.2-0.8-0.8-0.5c-2.8,1.3-5.8,1.6-8.7,0.1c-2.7-1.5-4.1-3.8-4.6-6.9c-0.9-5.5,2.4-10.3,7.9-11.3c1.6-0.3,3.2-0.2,4.8,0.2
			c0.7,0.2,0.8,0,0.8-0.7c0-2.6,0-5.1,0-7.7c0-0.5,0.2-0.8,0.6-1.1c1.1-0.6,2.2-1.1,3.5-1.4c0.6-0.2,0.9-0.1,0.9,0.7
			C142.2,6.9,142.2,11.4,142.2,15.9z M137.3,21.6c0-1.6,0-3,0-4.6c0-0.4-0.1-0.5-0.5-0.7c-3.1-1.5-6.5,0-7.7,3.1
			c-0.5,1.6-0.6,3.2-0.3,4.9c0.5,2.1,1.8,3.2,3.9,3.5c1.5,0.2,2.8-0.4,4.1-0.9c0.4-0.2,0.3-0.5,0.3-0.7
			C137.4,24.6,137.3,23.1,137.3,21.6z"/>
		<path fill="#203662" d="M83.8,27.4c0-4.6,0-9.1,0-13.6c0-0.7,0.2-1,0.9-0.9c2.6,0.3,4.9-0.5,7.5-0.6c4.4-0.5,8.4,2.4,9.6,6.6
			c1.4,4.7-0.5,9.4-4.4,11.5c-2.3,1.2-4.8,1.5-7.2,1.2c-1.6-0.2-1.6-0.2-1.6,1.4c0,2.2,0,4.4,0,6.6c0,0.5-0.2,0.8-0.6,1.1
			c-1,0.5-2,1-3.1,1.3c-1.2,0.3-1.2,0.3-1.2-0.9C83.8,36.4,83.8,31.9,83.8,27.4z M88.7,21.9c0,1.7,0,3.4,0,5.1c0,0.4,0,0.6,0.5,0.8
			c4.2,0.9,7.7-0.9,8.1-5.5c0.3-3.1-1.4-5.6-3.9-6.3c-1.4-0.4-2.7-0.2-3.9,0.2c-0.5,0.1-0.6,0.3-0.6,0.8
			C88.8,18.7,88.7,20.3,88.7,21.9z"/>
		<path fill="#203662" d="M167.6,29.6c-2.8,2.6-5.8,2.3-8.8,1.3c-3.1-1.1-4.8-3.6-5.3-6.7c-0.6-3.9,0.4-7.4,3.5-10
			c2.9-2.4,6.2-2.5,9.6-1.2c0.4,0.1,0.9,0.6,1-0.3c0-0.3,0.4-0.2,0.6-0.2c0.9,0,1.8,0.1,2.7,0c0.7-0.1,0.8,0.2,0.8,0.9
			c0,3.7,0,7.3,0,11c0,1.6,0,3.2,0,4.9c0,0.6-0.2,0.9-0.7,1.2c-0.9,0.5-1.8,0.9-2.8,1.2c-0.5,0.2-0.7,0-0.6-0.5
			C167.6,30.7,167.6,30.2,167.6,29.6z M166.9,21.7c0-1.5,0-2.8,0-4.3c0-0.3,0-0.5-0.4-0.7c-2.7-1.7-6-0.8-7.5,1.9
			c-0.6,1.3-0.9,2.7-0.8,4c0.2,3.3,2,5.1,4.9,5.1c1.1,0,2.1-0.5,3.1-0.9c0.5-0.2,0.6-0.5,0.6-1C166.9,24.5,166.9,23.1,166.9,21.7z"
			/>
		<path fill="#203662" d="M115.3,23c-1.9,0-3.8,0-5.7,0c-0.8,0-0.8,0.3-0.7,0.9c0.5,2.4,2.4,3.7,4.9,3.8c2.3,0.1,4.4-0.8,6.4-1.7
			c1-0.5,1-0.5,1,0.6c0,0.5,0,0.8,0,1.3c0,1.8,0,1.8-1.7,2.5c-2.4,0.8-4.8,1.6-7.3,1.2c-4.5-0.6-7.4-3.4-8.1-7.8
			c-0.9-5.5,2-9.8,6.6-11.1c1.9-0.5,3.8-0.5,5.7-0.1c3.3,0.9,5.6,3.8,5.7,7.3c0,1,0.4,2.3-0.3,3c-0.5,0.6-1.8,0.2-2.7,0.2
			C117.7,23,116.5,23,115.3,23z M113.1,20.3c1.2,0,2.4,0,3.7,0c0.4,0,0.6,0,0.6-0.5c-0.1-1.6-1.6-3.3-3.2-3.6
			c-2.5-0.4-4.6,1.1-5.2,3.6c-0.1,0.5-0.1,0.5,0.5,0.5C110.6,20.2,111.9,20.3,113.1,20.3z"/>
		<path fill="#203662" d="M62.7,12.8c1.8,0,3.5,0,5.2,0c0.5,0,0.7,0.3,0.9,0.5c1.1,1.4,2.3,2.7,3.4,4.2c0.5,0.5,0.6,0.5,1,0
			c1.1-1.4,2.3-2.7,3.4-4.1c0.4-0.5,0.7-0.5,1.2-0.5c1.3,0,2.6,0,3.8,0c0.1,0.4-0.2,0.5-0.3,0.6c-1.8,2.2-3.7,4.5-5.6,6.7
			c-0.6,0.6-0.6,1.1,0,1.8c2.3,2.7,4.4,5.3,6.6,8.1c0.2,0.2,0.3,0.4,0.5,0.7c-1.9,0-3.8,0-5.6,0c-0.5,0-0.6-0.4-0.8-0.6
			c-1.5-1.7-2.9-3.5-4.4-5.3c-1.5,1.8-2.9,3.6-4.4,5.3c-0.4,0.5-0.8,0.7-1.5,0.6c-1.2-0.1-2.5,0-3.9,0c1.2-1.5,2.2-2.7,3.2-3.9
			c1.2-1.5,2.4-2.9,3.7-4.4c0.4-0.5,0.4-0.7,0-1.2c-2-2.5-4.1-4.9-6.1-7.5C62.9,13.5,62.7,13.3,62.7,12.8z"/>
		<path fill="#203662" d="M145.9,21.8c0-2.7,0-5.5,0-8.2c0-0.5,0.1-0.8,0.7-0.8c1.1,0.1,2.3,0,3.4,0c0.5,0,0.7,0.1,0.7,0.7
			c0,5.5,0,11.1,0,16.6c0,0.5-0.1,0.7-0.6,0.7c-1.2,0-2.4,0-3.6,0c-0.5,0-0.6-0.2-0.6-0.7C145.9,27.3,145.9,24.6,145.9,21.8z"/>
		<path fill="#203662" d="M148.3,9.2c-1.6,0-3-1.3-3-2.8s1.3-2.9,2.8-2.9c1.6,0,2.9,1.3,2.9,2.9C151.2,8,150,9.2,148.3,9.2z"/>
	</g>
</g>
</svg>
