<?xml version="1.0" encoding="utf-8"?>
<!-- Generator: Adobe Illustrator 24.3.0, SVG Export Plug-In . SVG Version: 6.00 Build 0)  -->
<svg version="1.1" id="Layer_1" xmlns="http://www.w3.org/2000/svg" xmlns:xlink="http://www.w3.org/1999/xlink" x="0px" y="0px"
	 viewBox="0 0 212.56 42" style="enable-background:new 0 0 212.56 42;" xml:space="preserve">
<style type="text/css">
	.st0{fill:#3973B9;}
</style>
<g>
	<path class="st0" d="M84.9,25.01c-0.09,0.35-0.14,0.7-0.15,1.06c-0.06,0.92-0.01,1.83,0.01,2.75c0.01,0.4-0.02,0.8,0.07,1.19
		c0.11,0.47,0.18,0.93,0.23,1.42c0.12,1.26,0.53,2.48,1.18,3.57c0.18,0.31,0.4,0.57,0.66,0.8c0.64,0.56,1.38,0.97,2.19,1.23
		c0.18,0.06,0.37,0.05,0.54-0.03c0.44-0.21,0.69-0.68,0.59-1.16c-0.23-1.08-0.51-2.15-0.53-3.26l-0.18-7.29l-0.02-2.12l-0.12-3.42
		l-0.11-3.57c0.01-0.56-0.13-1.11-0.41-1.6c-0.41-0.71-1.04-0.95-1.84-0.74c-0.68,0.18-1.31,0.52-1.84,0.99
		c-0.37,0.29-0.66,0.67-0.86,1.11c-0.03,0.08-0.07,0.16-0.12,0.23c-0.48,0.52-0.78,1.14-1.08,1.76c-0.74,1.6-1.39,3.23-1.94,4.9
		c-0.33,0.99-0.58,2.01-0.77,3.04c-0.08-0.04-0.09-0.07-0.09-0.1l0.18-4.19c0-0.08,0-0.15,0.02-0.22c0.05-0.33,0.02-0.67-0.08-0.99
		c-0.04-0.12-0.06-0.24-0.06-0.36l0.16-1.03c0.14-0.71,0.19-1.43,0.15-2.15L80.6,12c-0.01-0.44,0.07-0.89,0.21-1.31
		c0.13-0.32,0.21-0.66,0.23-1.01l0.06-4.61c0-0.24-0.06-0.47-0.15-0.68C80.88,4.13,80.65,3.97,80.38,4
		c-0.55,0.05-1.09,0.08-1.56,0.47c-0.46,0.38-0.82,0.86-1.08,1.4c-0.12,0.25-0.11,0.53-0.18,0.8l-0.62,3.05
		c-0.18,1.12-0.17,2.25-0.29,3.37l-0.11,1.74l-0.19,1.96l-0.17,3.08l-0.12,4.68c-0.06,0.67,0,1.34,0.02,2.01
		c0.01,1.08,0.1,2.15,0.27,3.22c0.04,0.21,0.07,0.42,0.08,0.63c0.05,1.39,0.29,2.77,0.71,4.09c0.13,0.42,0.45,0.77,0.86,0.94
		c0.41,0.17,0.88,0.15,1.27-0.06c0.4-0.22,0.76-0.52,1.05-0.87c0.08-0.08,0.12-0.19,0.12-0.3c0.02-1.22,0.35-2.37,0.79-3.5
		l0.41-1.19l1.24-4.78c0.39-1.45,0.89-2.86,1.5-4.23c0.13-0.28,0.31-0.54,0.53-0.76c0.08,0.04,0.08,0.08,0.08,0.1l-0.04,4.69
		c0,0.16-0.02,0.32-0.06,0.48L84.9,25.01z"/>
	<path class="st0" d="M3.99,36.1c0.18-0.01,0.35-0.06,0.54-0.09c0.57-0.09,0.89-0.46,1.04-0.98c0.07-0.3,0.12-0.61,0.16-0.92
		l0.36-2.3c0.06-0.69,0.22-1.37,0.47-2.01l0.46-1.27c0.21-0.58,0.34-1.2,0.37-1.82l0.08-2.29l0.12-4.7l0.02-0.38
		c0-0.21,0.08-0.29,0.3-0.29c0.4,0,0.79,0.05,1.18,0.07c0.75,0.03,1.49-0.08,2.24-0.14c0.28-0.02,0.55-0.14,0.74-0.35
		c0.21-0.24,0.33-0.56,0.36-0.88c0.08-0.49,0-0.98-0.02-1.48c-0.03-0.49-0.31-0.74-0.8-0.71l-1.3,0.14l-2.15,0.21
		c-0.41,0.03-0.41,0.02-0.41-0.4l-0.01-0.47L7.43,8.96c-0.05-1.25-0.05-2.51-0.27-3.8C7.7,5.12,8.19,5.19,8.69,5.23l3.59,0.24
		c0.54,0.04,1.06,0.03,1.55-0.24c0.59-0.33,0.91-0.78,0.94-1.45c0.01-0.47-0.03-0.96-0.12-1.43c-0.12-0.64-0.57-0.99-1.23-1.01
		l-0.42,0.01L7.94,1.56L5.06,1.58c-0.31,0-0.62,0.04-0.92,0.12c-0.89,0.24-1.25,0.89-1,1.78C3.18,3.58,3.2,3.69,3.21,3.8L3.1,7.91
		l-0.24,4.78L2.62,29.25c-0.02,0.48-0.01,0.96,0.01,1.44c0.04,0.95,0.24,1.88,0.35,2.81c0.08,0.67,0.02,1.35,0.27,2.01
		c0.16,0.42,0.34,0.62,0.79,0.59L3.99,36.1z"/>
	<path class="st0" d="M24.13,30.98c-0.39-0.07-0.8,0.03-1.12,0.27c-0.54,0.35-1.02,0.81-1.39,1.35c-0.32,0.45-0.78,0.79-1.31,0.96
		c-0.42,0.14-0.78-0.05-1.15-0.15c-0.49-0.1-0.89-0.45-1.05-0.92c-0.62-1.59-0.94-3.22-0.81-4.92c0.01-0.14,0.04-0.28,0.06-0.42
		c0.01-0.21,0.17-0.38,0.37-0.4c0.25-0.04,0.49-0.12,0.72-0.22c1.06-0.5,2.07-1.09,3.04-1.76c0.22-0.14,0.4-0.32,0.54-0.53
		c0.51-0.83,0.95-1.7,1.3-2.61c0.43-1.15,0.7-2.32,0.65-3.56c-0.04-0.62-0.15-1.23-0.33-1.82c-0.17-0.64-0.35-1.26-0.85-1.76
		c-0.36-0.35-0.71-0.69-1.2-0.82c-0.9-0.28-1.79-0.5-2.77-0.27c-0.75,0.18-1.53,0.25-2.24,0.58c-0.17,0.07-0.32,0.18-0.43,0.32
		l-1.53,2.09c-0.1,0.12-0.17,0.26-0.22,0.41l0.02-0.01l-1.22,3.52c-0.32,1.04-0.56,2.1-0.47,3.2c0.01,0.1,0,0.2-0.01,0.29
		c-0.21,1.2-0.24,2.41-0.28,3.94c-0.04,1.57,0.24,3.42,0.77,5.24c0.24,0.83,0.64,1.61,1.21,2.26c0.57,0.72,1.45,1.14,2.37,1.13
		l1.18,0.03c1.48,0.1,2.95-0.34,4.13-1.23c1-0.75,1.7-1.75,2.34-2.81c0.11-0.18,0.18-0.38,0.22-0.59
		C24.73,31.32,24.54,31.06,24.13,30.98z M17.75,23.44L17.75,23.44C17.75,23.43,17.75,23.44,17.75,23.44c0.11-0.6,0.18-1.2,0.2-1.8
		c0.17-2.04,0.86-3.93,1.73-5.77c0.05-0.17,0.23-0.26,0.4-0.22c0.11,0.02,0.24,0.02,0.34,0.04c0.14,0,0.27,0.1,0.32,0.24
		c0.17,0.34,0.27,0.71,0.29,1.09l0.01,2.12c0,1.39-0.51,2.72-1.44,3.75l-0.69,0.8c-0.37,0.33-0.8,0.58-1.26,0.75
		C17.65,24.1,17.69,23.77,17.75,23.44C17.75,23.44,17.75,23.44,17.75,23.44z"/>
	<path class="st0" d="M170.92,14.83c0-0.3-0.11-0.58-0.34-0.79c-0.14-0.14-0.27-0.29-0.37-0.46c-0.28-0.42-0.74-0.68-1.24-0.7
		l-1.16-0.08c-0.74-0.06-1.34,0.25-1.89,0.71c-0.28,0.24-0.45,0.58-0.48,0.94c-0.07,0.48-0.07,0.96-0.01,1.44
		c0.08,0.68,0.45,1.3,1.01,1.69c0.97,0.69,2,0.69,3.09,0.45c0.15-0.03,0.28-0.1,0.38-0.2c0.61-0.69,1.17-1.4,1-2.51l0-0.5
		L170.92,14.83z"/>
	<path class="st0" d="M162.71,34.34c-0.35-0.84-0.49-1.75-0.39-2.66c0.02-0.22-0.11-0.44-0.07-0.67l0.17-1.71l0.16-2.4
		c0.01-0.87-0.07-1.73-0.1-2.6l-0.18-4.32c-0.03-0.79-0.14-1.57-0.33-2.34c-0.11-0.5-0.29-0.97-0.56-1.41
		c-0.28-0.45-0.63-0.76-1.17-0.81c-0.37-0.06-0.76,0-1.1,0.16c-0.47,0.26-0.97,0.51-1.37,0.87c-0.7,0.63-1.2,1.45-1.44,2.36
		l-0.45,1.7c-0.22,0.82-0.45,1.65-0.82,2.43c-0.22,0.47-0.4,0.96-0.55,1.45l-0.57,1.58c-0.03,0.15-0.11,0.3-0.22,0.41
		c-0.12-0.09-0.08-0.2-0.08-0.3l-0.01-3.44c0-0.45,0.04-0.9,0.13-1.35c0.14-0.67,0.16-1.35,0.05-2.03
		c-0.21-1.41-0.36-2.83-0.87-4.18c-0.15-0.45-0.47-0.81-0.9-1c-0.41-0.2-0.85-0.33-1.3-0.4c-0.45-0.07-0.92-0.07-1.34,0.17
		c-0.8,0.45-1.39,1.2-1.64,2.08l-0.36,1.4c-0.28,1.08-0.62,2.14-0.65,3.28c-0.02,0.67-0.06,1.37-0.48,1.95
		c-0.04,0.06-0.03,0.15-0.04,0.23c-0.12,0.81-0.33,1.6-0.63,2.35c-0.03,0.08-0.03,0.19-0.14,0.22c-0.06-0.06-0.03-0.13-0.03-0.19
		c0.05-0.84-0.02-1.68-0.02-2.52c0-0.4-0.19-0.74-0.24-1.12l-0.22-1.54c-0.09-0.55-0.13-1.12-0.33-1.64
		c-0.09-0.26-0.15-0.54-0.17-0.81c-0.07-0.8-0.2-1.59-0.55-2.32c-0.09-0.25-0.22-0.48-0.42-0.67c-0.56-0.53-1.3-0.82-2.07-0.83
		c-0.42-0.02-0.83,0.17-1.09,0.5c-0.4,0.49-0.63,1.1-0.64,1.74c-0.03,1.11,0.05,2.22,0.25,3.31c0.13,0.62,0.18,1.26,0.17,1.89
		c-0.03,1.16,0.03,2.32,0.08,3.48l0.08,2.92c0.02,0.97,0.14,1.93,0.06,2.89c-0.12,1.36,0.04,2.72,0.17,4.08
		c0.03,0.27,0,0.57,0.11,0.83c0.19,0.44,0.46,0.85,0.8,1.19c0.57,0.57,1.25,0.67,1.94,0.24c0.74-0.43,1.29-1.12,1.55-1.93l1.09-3.47
		l0.5-1.68c0.38-1.6,0.8-3.18,1.51-4.68c0.05-0.13,0.08-0.26,0.09-0.39c0.06-0.45,0.05-0.89,0.25-1.29c0.15-0.3,0.25-0.61,0.32-0.94
		c0.17-0.81,0.27-1.63,0.31-2.46c-0.02-0.15,0.01-0.3,0.08-0.44c0.02,0.05,0.04,0.1,0.05,0.15c0.08,0.69,0.12,1.38,0.12,2.07
		l-0.01,6.65c0,0.23-0.02,0.45-0.06,0.67c-0.15,1-0.3,2-0.26,3.03l0.07,2.45c-0.01,0.8,0.26,1.53,0.58,2.22
		c0.52,1.11,1.71,1.27,2.74,0.36c0.03-0.03,0.05-0.06,0.07-0.1c0.16-0.52,0.45-0.99,0.55-1.54c0.29-1.56,0.7-3.1,1.47-4.51
		c0.05-0.08,0.08-0.17,0.1-0.26c0.1-0.65,0.33-1.26,0.57-1.87l1.78-4.85c0.01-0.05,0.03-0.1,0.12-0.08
		c0.01,0.03,0.02,0.07,0.02,0.11l0.11,3c0.03,0.58-0.01,1.17,0.15,1.75c0.08,0.33,0.13,0.67,0.13,1l0.24,5.36
		c0.01,0.47,0.16,0.92,0.43,1.3l0.36,0.53c0.18,0.26,0.4,0.5,0.64,0.71c0.28,0.21,0.57,0.35,0.93,0.28c0.12-0.02,0.24,0,0.34,0.07
		c0.63,0.39,1.58,0.25,2.03-0.35c0.51-0.7,0.85-1.48,0.61-2.39c-0.06-0.31-0.15-0.62-0.25-0.92L162.71,34.34z"/>
	<path class="st0" d="M107.02,33.82l-0.97-3.03c0-0.01-0.01-0.02-0.02-0.03c-0.07-0.13-0.1-0.28-0.08-0.43l0.06-1.26l-0.08-2.71
		c-0.1-2.01-0.05-4.02-0.01-6.02c0.01-0.52,0.14-1.03,0.12-1.56c-0.04-1.01,0.02-2.03,0.18-3.03c0.1-0.55,0.14-1.11,0.12-1.67
		c-0.03-0.62-0.36-1.01-0.95-1.17c-0.3-0.08-0.62-0.09-0.92-0.01c-0.54,0.15-1.03,0.43-1.44,0.81c-0.34,0.29-0.65,0.61-0.94,0.96
		c-0.09,0.1-0.17,0.12-0.27,0.02c-0.06-0.06-0.13-0.12-0.19-0.18c-0.95-0.88-2.09-1.16-3.34-0.99c-0.94,0.14-1.83,0.49-2.61,1.03
		c-0.34,0.22-0.63,0.53-0.82,0.88l-1.34,2.65c-0.27,0.55-0.49,1.11-0.66,1.69c-0.48,1.58-0.77,3.2-1.03,4.83
		c-0.09,0.44-0.13,0.88-0.13,1.33l0.12,2.79l0.31,4.38c0.07,0.57,0.19,1.14,0.38,1.69c0.05,0.15,0.1,0.32,0.23,0.42
		c0.18,0.14,0.33,0.3,0.45,0.49c0.37,0.48,0.94,0.76,1.55,0.75l1.3-0.01c0.32,0,0.64-0.07,0.94-0.19c0.81-0.33,1.5-0.91,1.95-1.65
		l-0.01-0.01c0.45-0.71,0.77-1.47,1.1-2.23l1.15-2.72c0.04,0.11,0.06,0.22,0.08,0.34c0.11,1.08,0.46,2.1,0.77,3.13
		c0.26,0.79,0.65,1.53,1.18,2.18c0.38,0.53,0.97,0.88,1.62,0.94l0.93,0.1c0.77,0.08,1.31-0.38,1.41-1.16l0.01-0.29
		C107.16,34.5,107.11,34.15,107.02,33.82z M101.06,19.5l-0.29,3.93c-0.13,1.01-0.47,1.97-0.84,2.92l-2.38,5.9
		c-0.06,0.16-0.1,0.34-0.31,0.46c-0.07-0.18-0.11-0.38-0.1-0.57l-0.07-4.16l-0.02,0l0.07-1.19c0.02-0.3,0.09-0.59,0.2-0.86
		c0.15-0.36,0.17-0.77,0.21-1.16c0.07-0.57,0.11-1.14,0.11-1.71c-0.01-0.83,0.1-1.66,0.31-2.46l0.65-2.79
		c0.1-0.45,0.27-0.88,0.51-1.27c0.1-0.17,0.22-0.33,0.38-0.46c0.17-0.16,0.41-0.21,0.62-0.12c0.31,0.1,0.6,0.23,0.87,0.41
		c0.23,0.13,0.34,0.41,0.28,0.66C101.12,17.84,101.1,18.66,101.06,19.5z"/>
	<path class="st0" d="M56.68,30.6c-0.37-0.01-0.73,0.11-1.02,0.35c-0.48,0.37-0.91,0.8-1.27,1.3c-0.5,0.7-1.2,1.33-2.39,0.91
		c-0.5-0.17-0.86-0.4-1.1-0.94c-0.58-1.32-1.01-2.66-0.94-4.13l0.03-0.68c0-0.22,0.16-0.41,0.37-0.45c0.28-0.06,0.54-0.16,0.79-0.29
		c0.85-0.48,1.67-1.01,2.45-1.59c0.33-0.26,0.69-0.49,0.91-0.87c0.51-0.86,0.93-1.77,1.27-2.72c0.63-1.82,0.82-3.65,0.14-5.51
		c-0.18-0.49-0.34-0.96-0.77-1.33c-0.32-0.27-0.63-0.53-1.04-0.62c-0.94-0.2-1.88-0.38-2.81,0.04c-0.08,0.03-0.16,0.05-0.25,0.06
		c-0.71,0.19-1.39,0.38-2.03,0.73c-0.21,0.11-0.39,0.27-0.52,0.47l-1.43,2.15c-0.1,0.14-0.17,0.29-0.23,0.45l-1.24,3.73
		c-0.17,0.6-0.37,1.2-0.35,1.82c0,0.7-0.04,1.41-0.12,2.11c-0.23,2.36-0.08,4.68,0.72,6.93c0.27,0.79,0.68,1.52,1.22,2.16l0.03,0.02
		c0.57,0.68,1.37,1.12,2.25,1.22c0.45,0.06,0.9,0.02,1.45,0.06h0.82c1.21-0.02,2.38-0.45,3.32-1.21c0.99-0.81,1.69-1.84,2.23-3
		c0.05-0.12,0.09-0.24,0.12-0.36C57.41,30.93,57.18,30.63,56.68,30.6z M50.44,23.32c0.04-0.12,0.06-0.25,0.06-0.37
		c-0.02-1.56,0.35-3.06,0.85-4.51l0.77-1.97c0.09-0.21,0.2-0.33,0.44-0.29c0.1,0.01,0.2,0.01,0.29,0c0.13-0.02,0.26,0.05,0.31,0.16
		c0.17,0.29,0.27,0.62,0.29,0.96l0.05,2.12c0.03,1.42-0.47,2.65-1.33,3.75c-0.34,0.43-0.64,0.9-1.11,1.21
		c-0.24,0.19-0.51,0.34-0.8,0.43C50.28,24.31,50.34,23.81,50.44,23.32L50.44,23.32z"/>
	<path class="st0" d="M120.47,12.59c-0.31,0.01-0.61,0.11-0.87,0.29c-0.38,0.28-0.7,0.64-0.93,1.06c-0.59,0.98-0.93,2.05-1.23,3.14
		c-0.01,0.05-0.02,0.1-0.02,0.15l-0.15,1.93l-0.44,5.33c-0.2,2.19-0.7,4.33-1.3,6.44c-0.25,0.87-0.59,1.71-1.16,2.43
		c-0.1,0.12-0.19,0.34-0.39,0.29c-0.19-0.05-0.19-0.27-0.23-0.44c-0.2-1.03-0.32-2.08-0.34-3.14c-0.03-0.71,0.03-1.41,0.04-2.12
		l0.12-3.61l0.18-2.3l0.32-2.51l0.4-3.72c0.1-1.32-0.58-2.26-1.59-2.61c-0.5-0.16-1.01-0.24-1.54-0.24
		c-0.81-0.02-1.34,0.37-1.66,1.08l-0.46,1.13c-0.62,1.93-1.02,3.91-1.09,5.94l-0.11,3.53c0,0.31-0.05,0.62-0.02,0.93l0.29,4.04
		c0.02,0.47,0.01,0.96,0.21,1.39c0.14,0.33,0.25,0.67,0.34,1.02c0.09,0.35,0.21,0.69,0.34,1.02c0.07,0.15,0.11,0.31,0.12,0.47
		c0.08,0.62,0.32,1.23,0.7,1.74c0.38,0.54,0.82,1,1.45,1.23c0.52,0.19,2.21,0.21,2.72-0.01c0.83-0.34,1.54-0.93,2-1.71
		c0.5-0.87,0.94-1.78,1.31-2.71l0.62-1.47c0.14,0.25,0.16,0.49,0.24,0.7c0.54,1.53,1.5,2.79,2.57,3.97c0.06,0.07,0.13,0.1,0.21,0.14
		c0.61,0.29,1.24,0.53,1.88,0.71c0.34,0.09,0.69,0.12,1.03,0.08c0.54-0.04,0.99-0.42,1.12-0.94c0.09-0.24,0.04-0.5-0.12-0.7
		c-0.37-0.45-0.7-0.93-1-1.43c-0.17-0.27-0.3-0.57-0.37-0.88l-0.51-2.4c-0.1-0.29-0.17-0.6-0.21-0.9l-0.17-2.86
		c-0.07-2.23,0.03-4.46,0.17-6.69c0.03-0.31-0.02-0.62-0.14-0.9c-0.1-0.18-0.1-0.39-0.06-0.58c0.07-0.31,0.11-0.64,0.1-0.96
		l0.14-1.74c0.05-0.47,0.15-0.93,0.11-1.41c-0.02-0.38-0.23-0.72-0.56-0.91c-0.16-0.09-0.33-0.16-0.51-0.21
		c-0.51-0.17-1.03-0.08-1.55-0.06L120.47,12.59z"/>
	<path class="st0" d="M38.47,12.42c0.21,0.68,0.69,1.25,1.33,1.57c0.72,0.35,1.53,0.5,2.33,0.43c0.8-0.01,1.54-0.46,1.91-1.17
		c0.26-0.44,0.42-0.89,0.37-1.41l-0.07-1.01c-0.02-0.27-0.14-0.52-0.33-0.71c-0.18-0.19-0.35-0.4-0.5-0.62
		c-0.39-0.57-0.89-0.92-1.62-0.9c-0.4,0.01-0.79-0.01-1.18-0.06c-0.6-0.07-1.1,0.16-1.57,0.47c-0.66,0.45-1.02,1.04-0.92,1.84
		c0,0.53,0.09,1.05,0.26,1.55L38.47,12.42z"/>
	<path class="st0" d="M25.63,22.35l0.06,5.08c0.02,0.23,0.01,0.45-0.02,0.68c-0.04,0.41-0.06,0.82-0.06,1.23
		c0,1.59,0.12,3.18,0.36,4.76c0.04,0.3,0.04,0.63,0.24,0.89c0.21,0.32,0.46,0.61,0.68,0.92c0.21,0.33,0.58,0.51,0.97,0.49
		c0.41-0.01,0.79-0.05,1.02-0.45c0.06-0.1,0.14-0.18,0.22-0.26c0.28-0.31,0.48-0.64,0.45-1.09c0-0.35,0.02-0.71,0.06-1.06
		c0.03-0.35,0.02-0.71,0.12-1.04c0.08-0.27,0.12-0.55,0.12-0.83l0.05-0.67c0.06-0.94,0.22-1.88,0.13-2.83
		c-0.01-0.18,0-0.37,0.03-0.55l0.22-2.1c0.09-1.54,0.31-3.06,0.55-4.58c0.1-0.64,0.33-1.25,0.44-1.89c0.09-0.4,0.28-0.77,0.57-1.07
		l0.06,0.85c0.04,0.64,0.24,1.27,0.26,1.92c0.04,0.68,0.28,1.28,0.86,1.72c0.94,0.7,1.96,0.69,3.03,0.51
		c0.07-0.01,0.13-0.04,0.19-0.07c0.22-0.1,0.36-0.3,0.4-0.54c0.03-0.24-0.07-0.47-0.25-0.62c-0.11-0.09-0.24-0.17-0.35-0.24
		c-0.08-0.06-0.16-0.1-0.2-0.2c-0.16-0.52-0.37-1.06-0.35-1.61c0.06-1.3-0.02-2.6-0.24-3.88c-0.08-0.46-0.07-0.94-0.24-1.37
		c-0.19-0.5-0.52-0.89-1.21-0.87c-0.2,0-0.39-0.02-0.59-0.02c-0.11-0.01-0.23,0.01-0.33,0.05c-0.71,0.31-1.34,0.74-1.76,1.41
		c-0.35,0.52-0.63,1.07-0.85,1.65c-0.17,0.51-0.32,1.02-0.43,1.55l-0.54,2.56l-0.29-3.35c-0.09-1.07-0.4-2.11-0.92-3.06
		c-0.13-0.27-0.29-0.52-0.48-0.75c-0.1-0.15-0.27-0.26-0.45-0.29c-0.33-0.03-0.65,0.03-0.95,0.16c-0.24,0.1-0.41,0.32-0.46,0.57
		c-0.08,0.42-0.13,0.84-0.14,1.26c-0.05,1.31,0.12,2.62,0.07,3.94l-0.06,3.13L25.63,22.35z"/>
	<path class="st0" d="M37.84,22.73l0.12,1.73l0.51,5.22c0.2,1.44,0.63,2.84,1.27,4.15c0.66,1.35,1.77,2.09,3.27,2.24
		c0.49,0.06,0.98-0.1,1.32-0.45c0.45-0.47,0.49-1.01-0.13-1.37c-0.23-0.14-0.39-0.36-0.47-0.62c-0.52-1.39-0.6-2.86-0.92-4.29
		c-0.13-0.73-0.14-1.47-0.02-2.19c0.02-0.18,0.02-0.37-0.01-0.55c-0.13-1.25-0.07-2.51,0.16-3.75c0.24-1.42,0.39-2.85,0.45-4.29
		c0.01-0.62-0.03-0.76-0.31-1.47c-0.33-0.83-1.15-1.36-2.04-1.32c-0.7,0.03-1.41,0.16-2.07,0.39c-0.29,0.1-0.53,0.32-0.67,0.6
		c-0.15,0.34-0.25,0.69-0.32,1.05c-0.19,0.86-0.12,1.74-0.12,2.61c0.01,0.66,0.06,1.33-0.02,1.99c-0.01,0.11-0.02,0.24-0.01,0.34
		L37.84,22.73z"/>
	<path class="st0" d="M198.79,26.9c0.15-0.13,0.27-0.29,0.36-0.47c0.44-0.85,0.8-1.75,1.06-2.67c0.25-0.8,0.37-1.64,0.36-2.48
		c-0.04-0.84-0.23-1.67-0.55-2.44c-0.26-0.73-0.85-1.29-1.59-1.51c-0.37-0.11-0.75-0.17-1.14-0.22c-0.6-0.1-1.16,0.11-1.73,0.21
		c-0.46,0.09-0.9,0.23-1.33,0.41c-0.21,0.09-0.39,0.24-0.51,0.43l-1.11,1.66c-0.11,0.16-0.2,0.35-0.26,0.54l-0.78,2.61
		c-0.28,1.04-0.48,2.08-0.36,3.16c0.01,0.12,0.01,0.24,0,0.36c-0.11,0.69-0.08,1.38-0.09,2.04c-0.01,0.75,0.02,1.49,0.09,2.24
		c0.11,1.1,0.36,2.18,0.73,3.23c0.28,0.72,0.65,1.4,1.1,2.03c0.29,0.42,0.67,0.77,1.11,1.01c0.59,0.32,1.26,0.47,1.93,0.43
		c0.94-0.04,1.87-0.3,2.7-0.77c0.38-0.2,0.73-0.45,1.03-0.75c0.19-0.17,0.3-0.41,0.31-0.67c0-0.22-0.01-0.42-0.22-0.55
		c-0.21-0.13-0.37-0.04-0.55,0.07c-0.4,0.24-0.83,0.42-1.29,0.53c-0.85,0.18-1.67-0.11-1.99-0.98l-0.2-0.56
		c-0.24-0.64-0.3-1.32-0.4-2c-0.12-0.72-0.17-1.46-0.16-2.19l0-0.25c-0.01-0.21,0.14-0.39,0.34-0.43l-0.01,0
		c0.2-0.04,0.39-0.11,0.56-0.21C197.11,28.17,198,27.61,198.79,26.9z M195.47,26.81c-0.02-0.27-0.01-0.54,0-0.81h0
		c0.12-0.74,0.07-1.49,0.13-2.23c0.13-1.58,0.59-3.08,1.22-4.53c0.06-0.13,0.11-0.25,0.28-0.22c0.21,0.04,0.47-0.09,0.6,0.18
		c0.15,0.24,0.24,0.5,0.28,0.78l0.1,2c0.03,1.14-0.31,2.26-0.97,3.19c-0.24,0.35-0.45,0.72-0.76,1.02
		C196.1,26.45,195.8,26.66,195.47,26.81z"/>
	<path class="st0" d="M135.17,12.79c-0.32-0.28-0.7-0.41-1.11-0.5c-0.75-0.17-1.52-0.24-2.29-0.23c-0.33,0.02-0.74-0.07-1.14,0.08
		c-1,0.38-1.92,0.95-2.71,1.66c-0.82,0.75-1.41,1.69-1.96,2.65c-0.13,0.23-0.2,0.48-0.22,0.74l-0.32,3.07
		c-0.03,0.26-0.04,0.52-0.01,0.78l0.1,0.96c0.19,1.76,0.75,3.45,1.66,4.97l1.43,2.31l2.3,3.7c0.69,1.23,1.24,2.54,1.63,3.9
		c0.16,0.54-0.1,1.03-0.63,1.17c-0.91,0.25-1.84,0.16-2.57-0.7c-0.52-0.62-0.86-1.34-0.76-2.19c0.05-0.46-0.16-0.76-0.46-1.03
		c-0.49-0.45-1.5-0.34-1.9,0.21c-0.12,0.16-0.19,0.36-0.18,0.55c0,0.29,0.03,0.57,0.08,0.85c0.21,1.45,0.76,2.73,1.87,3.74
		c0.27,0.25,0.59,0.45,0.94,0.57c0.67,0.23,1.36,0.38,2.04,0.55c0.53,0.13,1.09,0.11,1.61-0.07c0.15-0.05,0.31-0.08,0.47-0.1
		c0.73-0.08,1.45-0.28,2.1-0.59c0.14-0.05,0.27-0.14,0.37-0.25c0.54-0.71,1.06-1.43,1.41-2.26c0.12-0.28,0.19-0.57,0.17-0.87
		l-0.12-1.56c-0.05-1.38-0.38-2.73-0.95-3.99l-1.39-3l-1.21-2.38c-0.56-0.87-1.05-1.77-1.49-2.7c-0.38-0.82-0.7-1.65-0.8-2.58
		c-0.1-1.03-0.06-2.05-0.03-3.08c0-0.06,0.01-0.12,0.03-0.18c0.02-0.08,0.05-0.17,0.1-0.24c0.26-0.28,0.46-0.62,0.81-0.8l0.89-0.47
		c0.38-0.18,0.83-0.16,1.19,0.05c0.36,0.21,0.6,0.59,0.64,1.01l0.17,1.79c0,0.49,0.49,0.95,0.97,1.06c0.51,0.12,1.04-0.07,1.34-0.5
		c0.3-0.42,0.48-0.93,0.49-1.45c0.05-1.55-0.56-2.84-1.54-3.99c-0.21-0.25-0.48-0.43-0.8-0.52c-0.08-0.02-0.17-0.06-0.23-0.12
		L135.17,12.79z"/>
	<path class="st0" d="M58.65,31.38c0.01,0.35,0.07,0.7,0.19,1.04c0.2,0.51,0.36,1.04,0.5,1.57c0.06,0.21,0.17,0.39,0.32,0.54
		c0.26,0.3,0.6,0.52,0.98,0.64c0.56,0.16,1.14,0.22,1.72,0.18c0.56,0,1.09-0.24,1.44-0.67c0.71-0.86,1.25-1.85,1.56-2.93
		c0.32-1.1,0.83-2.13,1.17-3.22l0.59-1.88c0.11-0.51,0.27-1.01,0.47-1.49l0.53-1.24c0.27-0.49,0.51-1,0.72-1.53
		c0-0.02,0.05-0.03,0.12-0.06c0.13,0.51,0.21,1.04,0.22,1.57c0.03,1.02-0.16,2.03-0.22,3.04c-0.06,0.86-0.16,1.71,0.04,2.57
		l0.47,2.32c0.21,0.85,0.65,1.62,1.02,2.41c0.42,0.87,1.14,1.34,2.03,1.58c0.71,0.19,1.21-0.33,1.02-1.04
		c-0.07-0.24-0.15-0.49-0.24-0.72c-0.2-0.47-0.35-0.95-0.44-1.45l-0.19-1.88c-0.05-0.94-0.16-1.88-0.05-2.83
		c0.1-0.73,0.12-1.47,0.06-2.2c-0.09-0.81,0-1.61,0.08-2.41c0.1-0.8,0.08-1.61-0.06-2.41l-0.25-1.57c-0.21-0.83-0.64-1.51-1.57-1.69
		l-0.62-0.12c-0.78-0.11-1.46,0.09-1.97,0.72c-0.77,0.99-1.41,2.08-1.9,3.23c-0.77,1.7-1.35,3.47-1.91,5.25
		c-0.28,0.87-0.54,1.75-1.08,2.51c-0.07,0.14-0.17,0.25-0.3,0.34l0.01-1.44c0.08-0.7,0.07-1.41-0.04-2.11
		c-0.11-0.64-0.28-1.28-0.27-1.92l-0.19-7.02c-0.01-0.24-0.06-0.48-0.14-0.7c-0.04-0.15-0.07-0.3-0.09-0.45
		c-0.12-0.61-0.33-1.18-0.94-1.47c-0.34-0.16-0.7-0.3-1.07-0.41c-0.55-0.17-1.13,0.12-1.32,0.67c-0.09,0.21-0.16,0.42-0.22,0.64
		c-0.41,1.63-0.61,3.3-0.61,4.98l0.14,3.89l0.28,7.19L58.65,31.38z"/>
	<path class="st0" d="M201.49,33.32c-0.42,0-0.9,0.45-0.91,0.87c0,0.43,0.33,0.79,0.76,0.83c0.55,0,0.93-0.36,0.92-0.89
		C202.25,33.76,201.84,33.33,201.49,33.32L201.49,33.32z"/>
	<path class="st0" d="M209.88,28.79c-0.01-0.09-0.08-0.17-0.16-0.2c-0.09-0.03-0.19-0.01-0.26,0.06c-0.09,0.07-0.14,0.17-0.14,0.27
		c-0.02,0.16-0.07,0.31-0.15,0.45c-0.08,0.15-0.22,0.26-0.38,0.3c-0.17,0.04-0.33-0.01-0.47-0.11c-0.4-0.29-0.73-0.67-0.95-1.11
		c-0.08-0.13-0.07-0.29,0.01-0.4c0.23-0.38,0.41-0.78,0.54-1.2c0.06-0.15,0.08-0.31,0.07-0.47l-0.11-1.03
		c-0.1-0.57-0.33-1.1-0.78-1.48c-0.33-0.28-0.6-0.34-0.98-0.11c-0.71,0.42-1.22,0.97-1.18,1.89c-0.02,0.22-0.01,0.45,0.02,0.67
		c0.14,1,0.53,1.89,1.02,2.75c0.16,0.31,0.35,0.6,0.57,0.87c0.3,0.33,0.59,0.7,1,0.92c0.27,0.15,0.57,0.28,0.89,0.14
		c0.65-0.29,1.2-0.7,1.44-1.4c0.11-0.25,0.12-0.53,0.06-0.79L209.88,28.79z M206.95,27.51l0-0.01c-0.47-0.89-0.82-1.71-0.87-2.64
		c0-0.03,0-0.06,0-0.08c-0.03-0.11,0.05-0.25,0.17-0.28c0.11-0.02,0.22,0.03,0.26,0.14c0.17,0.24,0.31,0.5,0.44,0.76
		C207.26,26.06,207.22,26.74,206.95,27.51z"/>
	<path class="st0" d="M170.97,35.61c-0.22-0.14-0.42-0.37-0.52-0.63c-0.6-1.31-0.71-2.75-1.12-4.12c-0.13-0.53-0.16-1.09-0.09-1.63
		c0.03-0.3,0.03-0.61-0.01-0.92c-0.15-1.13-0.11-2.27,0.15-3.37c0.2-1.03,0.33-2.08,0.39-3.13c0.06-0.78-0.59-1.74-1.3-1.98
		c-0.28-0.12-0.58-0.2-0.89-0.23c-0.82-0.05-1.65,0-2.47,0.13c-0.54,0.08-0.81,0.4-0.99,0.87l-0.09,0.26
		c-0.2,0.65-0.14,1.32-0.11,1.98c0.02,0.44,0.08,0.87,0.03,1.32c-0.05,0.52,0.02,1.04,0.07,1.55l0.66,4.87
		c0.21,1.36,0.66,2.68,1.33,3.88c0.71,1.41,1.84,2.25,3.36,2.6c0.35,0.08,0.71,0.11,1.07,0.07c0.35-0.02,0.68-0.19,0.89-0.47
		c0.2-0.27,0.19-0.49-0.02-0.76C171.24,35.79,171.13,35.68,170.97,35.61L170.97,35.61z"/>
	<path class="st0" d="M207.11,31.28l0,0.01c-0.44-0.29-0.8-0.67-1.07-1.12l-0.9-1.65l-0.73-1.64l-1.53-3.6
		c-0.1-0.32-0.23-0.63-0.38-0.93c-0.22-0.38-0.58-0.38-0.81-0.02c-0.08,0.11-0.13,0.24-0.13,0.37c-0.02,0.65-0.02,1.31,0.19,1.94
		c0.13,0.41,0.27,0.81,0.44,1.2c0.14,0.3,0.11,0.32-0.19,0.41c-0.26,0.09-0.52,0.21-0.76,0.36c-0.34,0.18-0.58,0.5-0.65,0.87
		c-0.1,0.46-0.1,0.93,0,1.38c0.1,0.41,0.26,0.81,0.38,1.22c0.12,0.49,0.3,0.97,0.52,1.43l0.96,1.8c0.07,0.13,0.16,0.25,0.27,0.35
		c0.36,0.37,0.83,0.43,1.36,0.19c0.48-0.22,0.64-0.49,0.59-1.05l-0.13-1c-0.06-0.42-0.15-0.83-0.05-1.27l0.35,0.62
		c0.22,0.4,0.54,0.73,0.92,0.98c0.4,0.27,0.92,0.28,1.32,0.01C207.46,31.91,207.47,31.54,207.11,31.28z M203.78,32.54L203.78,32.54
		C203.78,32.53,203.78,32.53,203.78,32.54l-0.51-1.1c-0.34-0.85-0.63-1.73-0.89-2.61c-0.11-0.49-0.18-1-0.21-1.5
		c-0.01-0.17,0.03-0.3,0.2-0.35c0.18-0.06,0.3,0.05,0.39,0.2c0.52,0.91,0.81,1.92,0.86,2.97c0.02,0.68,0.09,1.36,0.22,2.02
		C203.88,32.28,203.86,32.42,203.78,32.54L203.78,32.54z"/>
	<path class="st0" d="M191.15,35.68c-0.59-0.04-1.16-0.2-1.69-0.45c-0.22-0.11-0.45-0.21-0.57-0.42c-0.39-0.64-0.76-1.3-0.87-2.05
		c-0.09-0.57-0.15-1.14-0.16-1.71c-0.03-3.07-0.06-6.14,0.47-9.18c0.02-0.14-0.05-0.33,0.05-0.43c0.12-0.11,0.3-0.05,0.46-0.06
		c0.53-0.03,1.06-0.12,1.57-0.27c0.57-0.17,0.84-0.54,0.86-1.07c0.02-0.46-0.26-0.74-0.73-0.76c-0.2,0-0.4,0.04-0.58,0.11
		c-0.5,0.2-1.02,0.11-1.54,0.2c-0.01-0.05-0.02-0.11-0.02-0.15c0.3-1.71,0.31-3.45,0.33-5.18c0-0.09-0.01-0.19-0.02-0.28
		c-0.08-0.53-0.31-1.02-0.53-1.5c-0.21-0.47-0.86-0.68-1.33-0.5c-0.2,0.08-0.39,0.19-0.59,0.25c-0.3,0.1-0.54,0.31-0.67,0.6
		c-0.26,0.48-0.47,0.98-0.63,1.51c-0.5,1.7-0.82,3.45-0.95,5.22c-0.02,0.2-0.09,0.27-0.29,0.3c-0.28,0.03-0.55,0.1-0.83,0.14
		c-0.5,0.07-0.8,0.39-1.06,0.77c-0.04,0.06-0.06,0.11-0.07,0.19c-0.01,0.43,0.24,0.81,0.63,0.97c0.26,0.1,0.54,0.15,0.82,0.14
		c0.17,0,0.26,0.05,0.22,0.23c-0.02,0.1-0.02,0.19-0.03,0.28c-0.11,0.67-0.16,1.35-0.15,2.04l0.07,3.76
		c0.05,1.61-0.03,3.22,0.33,4.82c0.1,0.54,0.31,1.05,0.62,1.5l0.4,0.6c0.4,0.7,1.01,1.26,1.73,1.61c1.25,0.63,2.67,0.84,4.05,0.6
		c0.37-0.05,0.73-0.16,1.06-0.34c0.26-0.15,0.45-0.35,0.4-0.67c-0.03-0.42-0.36-0.76-0.78-0.82L191.15,35.68z"/>
	<path class="st0" d="M181.92,31.66l-0.01,0.03c-0.35-0.05-0.7,0.03-0.98,0.25c-0.49,0.33-0.9,0.76-1.23,1.25
		c-0.27,0.45-0.69,0.79-1.18,0.97c-0.11,0.05-0.23,0.08-0.35,0.07c-0.47-0.07-0.93-0.22-1.36-0.44c-0.16-0.09-0.3-0.22-0.37-0.4
		c-0.42-0.9-0.74-1.83-0.96-2.79c-0.16-0.83-0.22-1.67-0.16-2.51c0.01-0.27,0.11-0.44,0.41-0.5c0.44-0.08,0.82-0.3,1.2-0.52
		l2.34-1.54c0.17-0.13,0.31-0.3,0.42-0.48c0.46-0.8,0.84-1.64,1.16-2.5c0.56-1.6,0.73-3.23,0.11-4.85c-0.2-0.51-0.38-1-0.83-1.38
		c-0.28-0.26-0.61-0.47-0.97-0.6c-0.46-0.15-0.93-0.24-1.41-0.26c-0.33-0.02-0.7-0.11-1.04,0c-0.28,0.08-0.57,0.14-0.85,0.19
		c-0.55,0.09-1.1,0.25-1.61,0.45c-0.21,0.08-0.4,0.22-0.53,0.41l-1.34,1.8c-0.08,0.1-0.15,0.22-0.2,0.35L171.04,22
		c-0.2,0.75-0.39,1.5-0.32,2.28c0.04,0.23,0.05,0.45,0.03,0.67c-0.15,0.84-0.13,1.67-0.15,2.88c-0.07,1.69,0.33,3.67,1,5.6
		c0.31,0.97,0.88,1.84,1.65,2.51c0.52,0.47,1.19,0.75,1.89,0.79l1.64,0.09c0.99,0.06,1.98-0.16,2.84-0.66
		c1.37-0.77,2.16-2.02,2.8-3.4c0.05-0.12,0.08-0.26,0.08-0.39C182.52,31.94,182.33,31.72,181.92,31.66z M175.62,23.97L175.62,23.97
		c0.03-0.12,0.04-0.24,0.05-0.36c-0.06-1.94,0.45-3.74,1.25-5.49l0.25-0.54c0.05-0.14,0.2-0.23,0.34-0.19
		c0.57,0.03,0.67,0.08,0.86,0.63c0.04,0.1,0.07,0.2,0.07,0.31l0.09,2.08c0.02,0.98-0.24,1.95-0.76,2.78
		c-0.31,0.48-0.65,0.94-1.04,1.37c-0.34,0.37-0.75,0.66-1.22,0.84C175.49,24.93,175.52,24.44,175.62,23.97z"/>
</g>
</svg>
