<?xml version="1.0" encoding="utf-8"?>
<!-- Generator: Adobe Illustrator 24.3.0, SVG Export Plug-In . SVG Version: 6.00 Build 0)  -->
<svg version="1.1" id="Layer_1" xmlns="http://www.w3.org/2000/svg" xmlns:xlink="http://www.w3.org/1999/xlink" x="0px" y="0px"
	 viewBox="0 0 187.105 42" style="enable-background:new 0 0 187.105 42;" xml:space="preserve">
<style type="text/css">
	.st0{fill:#0F6FEE;}
</style>
<path class="st0" d="M54.323,27.298c-2.661,0-4.826,2.165-4.826,4.826c0,0.848,0.221,1.644,0.607,2.337
	c-4.556,2.988-9.739,3.935-15.48,2.828c6.29-2.846,10.587-6.647,10.779-6.818c0.279-0.249,0.439-0.605,0.439-0.979V13.112
	c0-0.423-0.204-0.82-0.547-1.066L31.186,1.912c-0.458-0.329-1.074-0.329-1.532,0L15.546,12.046C15.203,12.293,15,12.69,15,13.112
	v16.379c0,0.374,0.16,0.73,0.439,0.979c0.192,0.171,4.489,3.972,10.779,6.818c-5.739,1.107-10.924,0.159-15.48-2.828
	c0.385-0.693,0.607-1.489,0.607-2.337c0-2.661-2.165-4.826-4.826-4.826c-2.661,0-4.826,2.165-4.826,4.826s2.165,4.826,4.826,4.826
	c0.842,0,1.634-0.218,2.323-0.598c6.163,4.232,13.557,5.102,21.579,2.558c2.999,0.951,5.91,1.426,8.702,1.426
	c4.677,0,9.02-1.332,12.88-3.982c0.689,0.38,1.48,0.597,2.321,0.597c2.661,0,4.826-2.165,4.826-4.826S56.984,27.298,54.323,27.298z
	 M4.317,32.124c0-1.213,0.987-2.201,2.201-2.201s2.201,0.987,2.201,2.201c0,1.213-0.987,2.201-2.201,2.201
	S4.317,33.337,4.317,32.124z M30.42,36.145c-0.592-0.206-1.191-0.432-1.793-0.678c-5.467-2.23-9.676-5.494-11.002-6.585V13.786
	L30.42,4.594l12.795,9.191v15.096c-1.327,1.092-5.536,4.355-11.002,6.585C31.611,35.713,31.012,35.94,30.42,36.145z M54.323,34.324
	c-1.213,0-2.201-0.987-2.201-2.201c0-1.213,0.987-2.201,2.201-2.201c1.213,0,2.201,0.987,2.201,2.201
	C56.523,33.337,55.536,34.324,54.323,34.324z"/>
<g>
	<path class="st0" d="M88.504,37.489V23.177c0-1.51-0.317-2.624-0.941-3.312c-0.605-0.665-1.617-1.003-3.008-1.003
		c-1.916,0-3.258,0.493-4.103,1.507c-0.869,1.043-1.31,2.862-1.31,5.408v11.712h-5.047V5.936h5.047v9.574
		c0,0.31-0.005,0.61-0.014,0.898c0.469-0.403,0.999-0.752,1.587-1.046c1.261-0.63,2.696-0.95,4.264-0.95
		c2.765,0,4.898,0.692,6.341,2.056c1.455,1.376,2.193,3.549,2.193,6.459v14.563H88.504z"/>
	<path class="st0" d="M107.392,37.875c-2.051,0-3.9-0.489-5.494-1.453c-1.604-0.969-2.854-2.375-3.714-4.179
		c-0.843-1.768-1.271-3.84-1.271-6.157c0-3.627,0.936-6.51,2.783-8.57c1.869-2.085,4.504-3.143,7.831-3.143
		c3.2,0,5.786,1.077,7.687,3.201c1.878,2.099,2.831,4.962,2.831,8.511c0,3.64-0.95,6.539-2.823,8.619
		C113.328,36.808,110.694,37.875,107.392,37.875z M107.431,18.862c-2.299,0-5.355,0.749-5.355,7.224c0,2.47,0.474,4.348,1.409,5.581
		c0.897,1.183,2.207,1.758,4.003,1.758c1.772,0,3.073-0.576,3.976-1.76c0.941-1.233,1.418-3.111,1.418-5.579
		c0-2.464-0.477-4.318-1.419-5.511C110.553,19.422,109.234,18.862,107.431,18.862z"/>
	<rect x="121.561" y="5.936" class="st0" width="5.047" height="31.553"/>
	<path class="st0" d="M131.338,37.489V14.759h5.047v22.731H131.338z M133.9,12.832c-0.78,0-1.449-0.251-1.989-0.748
		c-0.559-0.513-0.843-1.273-0.843-2.258c0-1.003,0.287-1.766,0.854-2.267c0.538-0.477,1.204-0.718,1.978-0.718
		c0.73,0,1.38,0.239,1.93,0.71c0.585,0.502,0.882,1.268,0.882,2.276c0,0.989-0.293,1.752-0.872,2.266
		C135.289,12.584,134.636,12.832,133.9,12.832z"/>
	<path class="st0" d="M149.397,37.875c-2.988,0-5.348-1.059-7.013-3.149c-1.623-2.035-2.445-4.916-2.445-8.564
		c0-3.619,0.825-6.505,2.451-8.578c1.672-2.131,4.043-3.211,7.046-3.211c2.334,0,4.285,0.661,5.823,1.969
		c-0.042-0.555-0.063-0.943-0.063-1.179V5.936h5.047v31.553h-4.241l-0.362-1.971C154.073,37.083,151.98,37.875,149.397,37.875z
		 M149.917,18.823c-1.522,0-2.664,0.584-3.491,1.786c-0.879,1.278-1.325,3.172-1.325,5.63c0,2.439,0.439,4.287,1.306,5.491
		c0.819,1.14,1.98,1.694,3.548,1.694c1.852,0,3.202-0.486,4.01-1.444c0.842-0.997,1.268-2.728,1.268-5.144v-0.636
		c0-2.746-0.439-4.698-1.305-5.802C153.097,19.339,151.784,18.823,149.917,18.823z"/>
	<path class="st0" d="M173.236,37.875c-2.74,0-4.857-0.688-6.293-2.046c-1.449-1.369-2.183-3.532-2.183-6.43v-14.64h5.086v14.409
		c0,1.495,0.315,2.595,0.937,3.269c0.605,0.656,1.606,0.988,2.974,0.988c1.939,0,3.289-0.498,4.128-1.522
		c0.865-1.057,1.304-2.852,1.304-5.336V14.759h5.066v22.731h-4.302l-0.343-1.912c-0.567,0.559-1.238,1.025-2.008,1.392
		C176.344,37.57,174.875,37.875,173.236,37.875z"/>
</g>
</svg>
