<?xml version="1.0" encoding="utf-8"?>
<!-- Generator: Adobe Illustrator 25.2.1, SVG Export Plug-In . SVG Version: 6.00 Build 0)  -->
<svg version="1.1" id="Layer_1" xmlns="http://www.w3.org/2000/svg" xmlns:xlink="http://www.w3.org/1999/xlink" x="0px" y="0px"
	 viewBox="0 0 32 32" style="enable-background:new 0 0 32 32;" xml:space="preserve">
<style type="text/css">
	.st0{fill:#612ACE;}
</style>
<g>
	<path class="st0" d="M20.499,25.51c-0.217-0.031-0.438-0.045-0.651-0.095c-0.793-0.187-1.447-0.589-1.897-1.285
		c-0.058-0.09-0.104-0.19-0.148-0.289c-0.046-0.103-0.021-0.157,0.085-0.186c0.464-0.127,0.93-0.25,1.394-0.377
		c0.078-0.021,0.128,0.006,0.168,0.072c0.418,0.685,1.644,0.804,2.227,0.074c0.145-0.181,0.218-0.39,0.23-0.619
		c0.006-0.114,0.001-0.228,0.001-0.347c-0.174,0.1-0.331,0.209-0.502,0.286c-1.093,0.495-2.632,0.305-3.465-1.133
		c-0.339-0.585-0.45-1.221-0.416-1.888c0.032-0.637,0.215-1.223,0.596-1.743c0.972-1.326,2.678-1.342,3.692-0.621
		c0.024,0.017,0.05,0.031,0.097,0.061c0-0.092,0.002-0.168-0.001-0.243c-0.004-0.098,0.038-0.145,0.138-0.145
		c0.464,0.001,0.927,0.001,1.391,0c0.093,0,0.139,0.042,0.14,0.134c0,0.03,0,0.06,0,0.09c0,1.802-0.002,3.603,0.001,5.405
		c0.001,0.666-0.17,1.27-0.611,1.781c-0.554,0.643-1.253,0.999-2.104,1.049c-0.04,0.002-0.08,0.013-0.12,0.019
		C20.663,25.51,20.581,25.51,20.499,25.51z M21.914,19.937c-0.046-0.195-0.069-0.399-0.143-0.582
		c-0.378-0.928-1.571-1.112-2.192-0.341c-0.273,0.339-0.341,0.735-0.294,1.16c0.085,0.778,0.847,1.313,1.606,1.122
		C21.479,21.149,21.892,20.589,21.914,19.937z"/>
	<path class="st0" d="M16.279,9.995c0.813-0.955,2.528-0.907,3.294,0.219c0.066-0.083,0.126-0.166,0.193-0.243
		c0.376-0.434,0.866-0.624,1.427-0.647c0.874-0.037,1.573,0.293,2.07,1.02c0.233,0.34,0.326,0.727,0.327,1.135
		c0.003,1.226,0.001,2.452,0.001,3.678c0,0.148-0.03,0.179-0.176,0.179c-0.441,0.001-0.882,0.001-1.323,0
		c-0.158,0-0.183-0.025-0.183-0.181c0-1.065,0.001-2.131-0.001-3.196c-0.001-0.405-0.15-0.743-0.51-0.949
		c-0.583-0.334-1.305,0.012-1.437,0.681c-0.021,0.105-0.025,0.215-0.026,0.323c-0.002,1.043-0.001,2.086-0.001,3.129
		c0,0.17-0.024,0.194-0.194,0.194c-0.434,0-0.867,0-1.301,0c-0.165,0-0.185-0.021-0.185-0.188c0-1.054,0-2.108,0-3.163
		c0-0.399-0.134-0.736-0.479-0.958c-0.571-0.368-1.344-0.014-1.472,0.668c-0.016,0.088-0.023,0.178-0.023,0.267
		c-0.002,1.058-0.001,2.116-0.001,3.174c0,0.177-0.022,0.199-0.201,0.199c-0.43,0-0.86,0-1.29,0c-0.166,0-0.191-0.024-0.191-0.184
		c0-1.835,0-3.671,0-5.506c0-0.156,0.021-0.178,0.172-0.178c0.445,0,0.89,0,1.335,0c0.148,0,0.174,0.027,0.175,0.178
		C16.279,9.753,16.279,9.86,16.279,9.995z"/>
	<path class="st0" d="M3.237,10.03c0.919-1.066,2.831-0.944,3.611,0.395c0.205,0.352,0.291,0.734,0.292,1.136
		c0.002,1.196,0.001,2.393,0.001,3.589c0,0.161-0.027,0.187-0.191,0.187c-0.43,0-0.86,0-1.29,0c-0.169,0-0.192-0.024-0.192-0.196
		c0-1.043,0-2.086,0-3.129c0-0.502-0.326-0.949-0.786-1.083c-0.501-0.145-1.012,0.047-1.287,0.485
		c-0.121,0.193-0.158,0.408-0.158,0.632c0.001,1.024,0,2.049,0,3.073c0,0.201-0.016,0.217-0.216,0.217c-0.422,0-0.845,0-1.267,0
		c-0.175,0-0.196-0.021-0.196-0.19c0-2.695,0-5.391-0.002-8.086c0-0.116,0.033-0.173,0.152-0.203
		c0.445-0.111,0.888-0.234,1.331-0.352C3.191,6.465,3.237,6.5,3.237,6.66c0,1.08,0,2.161,0,3.241
		C3.237,9.944,3.237,9.987,3.237,10.03z"/>
	<path class="st0" d="M30.314,13.009c-1.445,0-2.887,0-4.345,0c0.073,0.25,0.198,0.452,0.375,0.622
		c0.589,0.562,1.549,0.554,2.129-0.019c0.063-0.063,0.122-0.082,0.209-0.058c0.428,0.12,0.857,0.234,1.285,0.351
		c0.169,0.046,0.188,0.096,0.087,0.244c-0.457,0.663-1.093,1.064-1.867,1.242c-0.764,0.176-1.524,0.138-2.234-0.209
		c-1.112-0.543-1.716-1.439-1.755-2.691c-0.026-0.802,0.201-1.52,0.739-2.126c0.691-0.778,1.566-1.102,2.596-1.034
		c1.092,0.072,1.909,0.601,2.462,1.53c0.378,0.634,0.462,1.332,0.345,2.057C30.334,12.946,30.324,12.974,30.314,13.009z
		 M25.99,11.753c0.894,0,1.78,0,2.668,0c-0.139-0.504-0.689-1.017-1.407-0.99C26.674,10.784,26.1,11.223,25.99,11.753z"/>
	<path class="st0" d="M10.985,9.316c1.231,0.036,2.246,0.627,2.766,1.866c0.766,1.826-0.253,3.804-2.119,4.214
		c-1.032,0.226-2.004,0.063-2.83-0.644c-0.736-0.63-1.065-1.446-1.054-2.41c0.015-1.315,0.834-2.455,2.058-2.86
		C10.154,9.367,10.512,9.324,10.985,9.316z M9.502,12.397c0,0.037-0.001,0.075,0,0.112c0.045,1.001,1.125,1.63,2.004,1.151
		c0.527-0.287,0.762-0.76,0.737-1.359c-0.029-0.697-0.686-1.455-1.608-1.295C9.956,11.123,9.5,11.686,9.502,12.397z"/>
	<path class="st0" d="M11.978,16.867c1.192,0.008,2.129,0.508,2.716,1.542c1.018,1.792,0.051,4.188-2.16,4.543
		c-0.88,0.141-1.719,0.008-2.448-0.538c-0.935-0.699-1.317-1.654-1.212-2.804c0.102-1.124,0.694-1.924,1.683-2.438
		C10.998,16.942,11.481,16.863,11.978,16.867z M11.971,18.526c-0.784,0.001-1.369,0.601-1.37,1.406
		c-0.001,0.801,0.589,1.407,1.37,1.407c0.779,0,1.373-0.616,1.371-1.422C13.341,19.147,12.728,18.525,11.971,18.526z"/>
	<path class="st0" d="M27.31,22.983c-1.162-0.01-2.093-0.466-2.7-1.473c-0.855-1.419-0.492-3.7,1.597-4.44
		c1.308-0.463,2.868-0.15,3.779,1.237c0.385,0.586,0.511,1.242,0.441,1.928c-0.12,1.189-0.755,2.019-1.837,2.507
		C28.186,22.925,27.753,22.987,27.31,22.983z M25.944,19.934c0,0.796,0.588,1.4,1.366,1.403c0.777,0.003,1.38-0.61,1.381-1.404
		c0.002-0.77-0.611-1.397-1.367-1.399C26.539,18.531,25.944,19.135,25.944,19.934z"/>
	<path class="st0" d="M7.158,17.011c0.1,0,0.185,0,0.27,0c0.299,0,0.598-0.001,0.897,0c0.123,0,0.155,0.031,0.156,0.151
		c0.001,0.385,0.001,0.77,0,1.155c0,0.123-0.028,0.149-0.156,0.149c-0.344,0.001-0.688,0-1.032,0c-0.04,0-0.08,0-0.129,0
		c-0.002,0.052-0.006,0.092-0.006,0.133c0,0.665-0.001,1.331,0,1.996c0.001,0.454,0.237,0.688,0.693,0.689
		c0.161,0,0.322,0.002,0.482-0.001c0.104-0.002,0.149,0.043,0.149,0.148c-0.002,0.426-0.001,0.852-0.001,1.279
		c0,0.084-0.031,0.143-0.121,0.141c-0.426-0.01-0.856,0.014-1.275-0.044c-0.794-0.11-1.472-0.716-1.583-1.534
		c-0.014-0.1-0.018-0.201-0.018-0.302c-0.001-1.63-0.001-3.26-0.001-4.89c0-0.19,0.013-0.203,0.205-0.203c0.43,0,0.86,0,1.29,0
		c0.161,0,0.18,0.019,0.18,0.183c0,0.273,0,0.546,0,0.819C7.158,16.92,7.158,16.96,7.158,17.011z"/>
</g>
</svg>
