<?xml version="1.0" encoding="utf-8"?>
<!-- Generator: Adobe Illustrator 23.0.3, SVG Export Plug-In . SVG Version: 6.00 Build 0)  -->
<svg version="1.1" id="Layer_1" xmlns="http://www.w3.org/2000/svg" xmlns:xlink="http://www.w3.org/1999/xlink" x="0px" y="0px"
	 viewBox="0 0 32 32" style="enable-background:new 0 0 32 32;" xml:space="preserve">
<style type="text/css">
	.st0{fill:#2569CC;}
	.st1{fill:#FFFFFF;}
</style>
<circle class="st0" cx="16" cy="16" r="15"/>
<g>
	<path class="st1" d="M13.6,20.8h-4c-1,0-1.9-0.8-1.9-1.9V11c0-1,0.9-1.9,1.9-1.9h10c1,0,1.9,0.8,1.9,1.9v2.8c0,0.3-0.2,0.5-0.5,0.5
		s-0.5-0.2-0.5-0.5V11c0-0.5-0.4-0.9-0.9-0.9h-10c-0.5,0-0.9,0.4-0.9,0.9v7.9c0,0.5,0.4,0.9,0.9,0.9h4c0.3,0,0.5,0.2,0.5,0.5
		S13.9,20.8,13.6,20.8z"/>
	<path class="st1" d="M21,12.9H8.2c-0.3,0-0.5-0.2-0.5-0.5c0-0.3,0.2-0.5,0.5-0.5H21c0.3,0,0.5,0.2,0.5,0.5
		C21.5,12.7,21.3,12.9,21,12.9z"/>
	<path class="st1" d="M11,11.5c-0.3,0-0.5-0.2-0.5-0.5V8.2c0-0.3,0.2-0.5,0.5-0.5s0.5,0.2,0.5,0.5V11C11.5,11.3,11.3,11.5,11,11.5z"
		/>
	<path class="st1" d="M18.2,11.5c-0.3,0-0.5-0.2-0.5-0.5V8.2c0-0.3,0.2-0.5,0.5-0.5c0.3,0,0.5,0.2,0.5,0.5V11
		C18.8,11.3,18.5,11.5,18.2,11.5z"/>
	<path class="st1" d="M19.8,24.3c-2.5,0-4.5-2-4.5-4.5c0-2.5,2-4.5,4.5-4.5c2.5,0,4.5,2,4.5,4.5C24.3,22.3,22.3,24.3,19.8,24.3z
		 M19.8,16.3c-1.9,0-3.4,1.5-3.4,3.4s1.5,3.4,3.4,3.4s3.4-1.5,3.4-3.4S21.7,16.3,19.8,16.3z"/>
	<path class="st1" d="M21.1,21.6c-0.1,0-0.3-0.1-0.4-0.2l-2.7-2.7c-0.2-0.2-0.2-0.5,0-0.7c0.2-0.2,0.5-0.2,0.7,0l2.7,2.7
		c0.2,0.2,0.2,0.5,0,0.7C21.4,21.6,21.3,21.6,21.1,21.6z"/>
	<path class="st1" d="M18.5,21.6c-0.1,0-0.3-0.1-0.4-0.2c-0.2-0.2-0.2-0.5,0-0.7l2.7-2.7c0.2-0.2,0.5-0.2,0.7,0
		c0.2,0.2,0.2,0.5,0,0.7l-2.7,2.7C18.7,21.6,18.6,21.6,18.5,21.6z"/>
</g>
</svg>
