<?xml version="1.0" encoding="utf-8"?>
<!-- Generator: Adobe Illustrator 23.0.3, SVG Export Plug-In . SVG Version: 6.00 Build 0)  -->
<svg version="1.2" baseProfile="tiny" id="Layer_1" xmlns="http://www.w3.org/2000/svg" xmlns:xlink="http://www.w3.org/1999/xlink"
	 x="0px" y="0px" viewBox="0 0 154 50" xml:space="preserve">
<g>
	<path fill="#BA0E20" d="M11.2,37.2c-0.6,1.4-1,2.8-1.4,4.2c-0.5,2-0.9,4-1.3,5.9c-0.1,0.5-0.3,0.7-0.9,0.7c-2,0-4,0-6,0
		c-0.6,0-0.8,0-0.6-0.7c1.4-5.7,2.8-11.4,4.2-17.2C6.7,24.2,8.1,18.1,9.6,12c0.4-1.6,0.4-1.6,2-1.6c2,0,4,0,6.1,0
		C15.8,17.8,14,25,12.1,32.3c0,0,0.1,0,0.1,0.1c0.6-0.9,1.2-1.8,1.8-2.7c2.2-3.2,4.5-6.2,7.4-8.8c3.4-3,7.2-5.5,11.3-7.6
		c6.7-3.5,13.7-6,21-8C59,3.9,64.5,2.9,70,2.2c2.5-0.3,4.9-0.5,7.4-0.6c2.6-0.1,5.2-0.2,7.8-0.1c6.3,0.2,12.5,1.1,18.3,3.6
		c1.8,0.8,3.5,1.8,5,3c-0.8,0.5-1.5,0.9-2.1,1.5c-1.7,1.5-2.7,3.5-3,5.7c-0.1,0.5-0.3,0.7-0.8,0.6c-2.3-0.2-4.7,0-7-0.1
		c-0.3,0-0.5,0.1-0.6-0.3c-0.6-2.1-2.2-3.3-4-4.2c-3.4-1.6-7-2.1-10.6-2.4c-2-0.2-4-0.3-6-0.2C69.1,9,63.9,9.5,58.7,10.5
		c-5.3,1-10.6,2.4-15.7,4.3c-5.3,2-10.3,4.5-14.7,8.1c-2.7,2.1-4.9,4.7-7,7.4c-0.9,1.2-1.8,2.3-2.7,3.4c-0.3,0.3-0.2,0.6-0.1,1
		c1.1,4.2,2.2,8.5,3.2,12.7c0.2,0.9,0.2,0.9-0.7,0.9c-2.2,0-4.4,0-6.6,0c-0.5,0-0.7-0.2-0.8-0.6C12.8,44.1,12,40.7,11.2,37.2z"/>
	<path fill="#BA0E20" d="M80.3,27.5c0.2-1,0.4-1.9,0.6-2.8c0.1-0.5,0.3-0.7,0.8-0.7c2,0,4.1,0,6.1,0c0.4,0,0.6,0,0.5,0.6
		c-1.9,7.6-3.7,15.2-5.6,22.8c-0.1,0.5-0.3,0.7-0.9,0.7c-2,0-4,0-6,0c-0.6,0-0.6-0.2-0.5-0.6c0.2-0.9,0.4-1.8,0.5-2.8
		c-0.7,0.7-1.3,1.4-2.1,2c-1.3,0.9-2.7,1.6-4.4,1.7c-2.9,0.2-4.5-1.5-5.1-4c-0.5-2-0.4-4-0.1-6.1c0.3-2.1,0.8-4.2,1.6-6.2
		c1.1-2.8,2.5-5.3,5-7.1c1.7-1.2,3.6-1.6,5.6-1.3c1.8,0.3,2.8,1.5,3.5,3C79.9,27,79.9,27.2,80.3,27.5z M76.7,29.5
		c-0.7,0-1.3,0.2-1.8,0.7c-1.4,1.2-2.1,2.9-2.6,4.6c-0.6,1.9-1.1,3.8-0.6,5.8c0.3,1.1,1.2,1.7,2.3,1.6c0.8-0.1,1.4-0.5,1.9-1.1
		c2-2.7,2.8-5.9,2.9-9.2C78.9,30.3,78.1,29.5,76.7,29.5z"/>
	<path fill="#BA0E20" d="M49,48.5c-2.1,0-4.1-0.4-5.7-1.8c-1.6-1.5-2.3-3.4-2.4-5.5c-0.3-5.3,1.2-9.9,4.8-13.9
		c2.2-2.4,4.9-3.7,8.2-3.9c2.3-0.1,4.5,0.3,6.3,1.8c2.1,1.7,3.1,4.1,2.9,6.7c-0.2,4.3-1.4,8.4-4.2,11.9c-2,2.6-4.7,4.2-8.1,4.6
		c-0.3,0-0.6,0.1-0.9,0.1C49.6,48.5,49.3,48.5,49,48.5z M55.7,32.8c0-0.1,0-0.2,0-0.4c0-1.5-0.6-2.5-1.7-2.7
		c-0.9-0.2-1.8,0.1-2.5,0.8c-2.8,2.9-3.5,6.4-3.3,10.3c0.1,1,0.7,1.5,1.8,1.7c1.4,0.2,2.3-0.6,3-1.6C54.7,38.4,55.4,35.7,55.7,32.8z
		"/>
	<path fill="#BA0E20" d="M132.2,32c1-4.2,2-8.3,3-12.4c0.1-0.4,0.2-0.7,0.7-0.6c1.5,0,2.9,0,4.4,0c-0.5,2.3-1,4.5-1.5,6.8
		c-1.1,5-2.3,9.9-3.4,14.9c-0.5,2.4-1.1,4.7-1.6,7.1c-0.1,0.3-0.1,0.4-0.4,0.4c-1.6,0-3.2,0-4.8,0c0.2-0.9,0.4-1.8,0.6-2.9
		c-1,1.1-1.9,2-3,2.6c-2.1,1-3.9,0.4-4.8-1.7c-0.8-1.9-0.9-4-0.6-6c0.4-2.5,1.1-4.9,2.5-7.1c1-1.6,2.2-3,4.1-3.6
		c2-0.6,3.6,0.1,4.5,1.9C131.9,31.5,132,31.7,132.2,32z M125.9,41.2c0.1,0.4,0,0.8,0.2,1.2c0.4,1.1,1.3,1.5,2.3,0.8
		c0.4-0.3,0.8-0.7,1-1.1c1.2-2,1.7-4.3,1.8-6.7c0-0.7-0.1-1.5-1-1.8c-0.8-0.2-1.4,0.1-1.9,0.7C126.6,36.4,126.2,38.8,125.9,41.2z"/>
	<path fill="#BA0E20" d="M98.8,17.3c1,0,2.1,0,3.1,0c0.5,0,0.6,0.1,0.5,0.6c-0.4,1.8-0.8,3.7-1.3,5.5c-0.1,0.5-0.1,0.6,0.4,0.6
		c0.7,0,1.4,0,2.1,0c0.4,0,0.5,0.1,0.4,0.5c-0.4,1.4-0.7,2.9-1.1,4.4c-0.1,0.5-0.3,0.6-0.7,0.6c-0.7,0-1.4,0-2.1,0
		c-0.4,0-0.6,0.1-0.7,0.5c-0.5,2.3-1.1,4.6-1.7,7c-0.9,3.5-1.7,7.1-2.6,10.6C95.1,47.9,95,48,94.6,48c-2.2,0-4.3,0-6.5,0
		c-0.3,0-0.5,0-0.4-0.5c1.2-5,2.4-9.9,3.6-14.9c0.2-0.9,0.4-1.8,0.7-2.7c0.1-0.4,0-0.5-0.4-0.5c-0.7,0-1.4,0-2,0
		c-0.4,0-0.5-0.1-0.4-0.5c0.4-1.5,0.8-2.9,1.1-4.4c0.1-0.4,0.2-0.6,0.7-0.5c0.6,0,1.2,0,1.7,0c0.6,0.1,0.8-0.2,0.9-0.7
		c0.4-1.8,0.9-3.6,1.3-5.4c0.1-0.5,0.3-0.6,0.7-0.6C96.7,17.4,97.7,17.3,98.8,17.3z"/>
	<path fill="#BA0E20" d="M37,24c0,0.9-0.3,1.8-0.3,2.7c0.4-0.4,0.7-0.8,1-1.1c1.5-1.4,3.3-2,5.2-2.3c0.4,0,0.6,0,0.5,0.5
		c-0.4,1.9-0.9,3.7-1.3,5.6c-0.1,0.4-0.3,0.5-0.6,0.5c-1,0-2-0.1-3,0.2c-2.2,0.7-3.3,2.3-3.9,4.4c-0.8,2.8-1.4,5.6-2.1,8.4
		c-0.4,1.5-0.8,3.1-1.1,4.6c-0.1,0.4-0.3,0.5-0.6,0.5c-2.1,0-4.3,0-6.4,0c-0.6,0-0.6-0.2-0.5-0.6c0.7-2.9,1.5-5.9,2.2-8.8
		c1.2-4.7,2.3-9.3,3.5-14c0.1-0.3,0.1-0.5,0.5-0.5C32.4,24,34.7,24,37,24z"/>
	<path fill="#BA0E20" d="M151.4,42.3c-1,2.1-1.9,4.1-3.9,5.2c-2.1,1.2-4.5,1.3-6.8,0.6c-2.5-0.8-3.2-3-3.3-5.3
		c-0.1-4.1,1-7.8,3.8-10.8c2.1-2.3,4.8-3.3,8-2.7c2.1,0.4,3.5,1.9,3.8,4.1c0.2,2.2-0.2,4.3-0.7,6.4c-0.1,0.4-0.4,0.4-0.7,0.4
		c-2.7,0-5.4,0-8.2,0c-0.5,0-0.7,0.1-0.8,0.6c-0.1,0.8-0.2,1.5,0,2.2c0.4,1.3,1.6,1.7,2.8,0.9c0.4-0.3,0.8-0.7,1-1.1
		c0.2-0.4,0.5-0.6,1-0.5C148.6,42.3,150,42.3,151.4,42.3z M145.8,37c0.3,0,0.5,0,0.8,0c1.9,0,1.9-0.1,1.8-1.9c0,0,0-0.1,0-0.1
		c-0.1-1.1-0.8-1.6-1.8-1.6c-1.7,0.1-3,1.9-3.2,3.3c0,0.3,0.1,0.4,0.4,0.4C144.5,37,145.2,37,145.8,37z"/>
	<path fill="#BA0E20" d="M103.4,48.1c-1.1,0-2.1,0-3.2,0c-0.4,0-0.5,0-0.4-0.5c1.5-6.2,3-12.4,4.5-18.6c0.3-1.4,0.7-2.8,1-4.2
		c0.1-0.5,0.3-0.8,0.9-0.8c2.1,0.1,4.1,0,6.2,0c0.5,0,0.7,0.1,0.5,0.6c-1.2,4.7-2.4,9.5-3.5,14.2c-0.7,2.9-1.4,5.7-2.1,8.6
		c-0.1,0.5-0.3,0.6-0.7,0.6C105.5,48.1,104.4,48.1,103.4,48.1z"/>
	<path fill="#F7C201" d="M104.2,15.6c0-3.9,3.1-6.9,7.2-6.9c3.6,0,6.7,3.2,6.7,6.9c0,4.1-3.5,7-7.3,6.9
		C107.2,22.4,104.1,19.3,104.2,15.6z"/>
	<path fill="#BA0E20" d="M110.9,45.2c0.1-2.1,1.9-3.8,4-3.8c1.7,0.1,3.2,1.6,3,3.3c-0.2,2.3-2.1,3.6-3.9,3.6
		C112.3,48.3,110.9,46.9,110.9,45.2z"/>
</g>
</svg>
