<?xml version="1.0" encoding="utf-8"?>
<!-- Generator: Adobe Illustrator 23.0.3, SVG Export Plug-In . SVG Version: 6.00 Build 0)  -->
<svg version="1.2" baseProfile="tiny" id="Layer_1" xmlns="http://www.w3.org/2000/svg" xmlns:xlink="http://www.w3.org/1999/xlink"
	 x="0px" y="0px" viewBox="0 0 135.7 42" xml:space="preserve">
<g>
	<path fill="#BA0E20" d="M9.2,31.9c-0.5,1.2-0.9,2.5-1.2,3.7c-0.4,1.8-0.8,3.6-1.2,5.3c-0.1,0.4-0.3,0.6-0.8,0.6c-1.8,0-3.6,0-5.4,0
		c-0.5,0-0.7,0-0.5-0.6c1.2-5.1,2.5-10.2,3.7-15.3c1.3-5.3,2.6-10.7,3.9-16.1C8.1,8,8.1,8,9.5,8c1.8,0,3.6,0,5.4,0
		c-1.7,6.6-3.3,13-5,19.5c0,0,0.1,0,0.1,0.1c0.5-0.8,1.1-1.6,1.6-2.4c2-2.9,4-5.5,6.6-7.9c3-2.7,6.4-4.9,10.1-6.8
		c6-3.1,12.2-5.4,18.7-7.1c4.7-1.2,9.6-2.1,14.5-2.8c2.2-0.3,4.4-0.4,6.6-0.5c2.3-0.1,4.6-0.2,7-0.1c5.6,0.2,11.2,1,16.3,3.2
		C93.1,4,94.6,4.9,96,5.9c-0.7,0.4-1.3,0.8-1.9,1.3c-1.5,1.3-2.4,3.1-2.7,5.1c-0.1,0.4-0.3,0.6-0.7,0.5c-2.1-0.2-4.2,0-6.2-0.1
		c-0.3,0-0.4,0.1-0.5-0.3c-0.5-1.9-2-2.9-3.6-3.7c-3-1.4-6.2-1.9-9.5-2.1c-1.8-0.2-3.6-0.3-5.4-0.2c-4.7,0.3-9.4,0.7-14,1.6
		c-4.7,0.9-9.5,2.1-14,3.8c-4.7,1.8-9.2,4-13.1,7.2c-2.4,1.9-4.4,4.2-6.2,6.6c-0.8,1.1-1.6,2.1-2.4,3c-0.3,0.3-0.2,0.5-0.1,0.9
		c1,3.7,2,7.6,2.9,11.3c0.2,0.8,0.2,0.8-0.6,0.8c-2,0-3.9,0-5.9,0c-0.4,0-0.6-0.2-0.7-0.5C10.6,38,9.9,35,9.2,31.9z"/>
	<path fill="#BA0E20" d="M70.8,23.2c0.2-0.9,0.4-1.7,0.5-2.5c0.1-0.4,0.3-0.6,0.7-0.6c1.8,0,3.7,0,5.4,0c0.4,0,0.5,0,0.4,0.5
		c-1.7,6.8-3.3,13.6-5,20.3c-0.1,0.4-0.3,0.6-0.8,0.6c-1.8,0-3.6,0-5.4,0c-0.5,0-0.5-0.2-0.4-0.5c0.2-0.8,0.4-1.6,0.4-2.5
		c-0.6,0.6-1.2,1.2-1.9,1.8c-1.2,0.8-2.4,1.4-3.9,1.5c-2.6,0.2-4-1.3-4.5-3.6c-0.4-1.8-0.4-3.6-0.1-5.4c0.3-1.9,0.7-3.7,1.4-5.5
		c1-2.5,2.2-4.7,4.5-6.3c1.5-1.1,3.2-1.4,5-1.2c1.6,0.3,2.5,1.3,3.1,2.7C70.5,22.8,70.5,23,70.8,23.2z M67.6,25
		c-0.6,0-1.2,0.2-1.6,0.6c-1.2,1.1-1.9,2.6-2.3,4.1c-0.5,1.7-1,3.4-0.5,5.2c0.3,1,1.1,1.5,2.1,1.4c0.7-0.1,1.2-0.4,1.7-1
		c1.8-2.4,2.5-5.3,2.6-8.2C69.6,25.7,68.9,25,67.6,25z"/>
	<path fill="#BA0E20" d="M42.9,42c-1.9,0-3.7-0.4-5.1-1.6c-1.4-1.3-2.1-3-2.1-4.9c-0.3-4.7,1.1-8.8,4.3-12.4c2-2.1,4.4-3.3,7.3-3.5
		c2.1-0.1,4,0.3,5.6,1.6c1.9,1.5,2.8,3.7,2.6,6c-0.2,3.8-1.2,7.5-3.7,10.6c-1.8,2.3-4.2,3.7-7.2,4.1c-0.3,0-0.5,0.1-0.8,0.1
		C43.4,42,43.2,42,42.9,42z M48.9,28c0-0.1,0-0.2,0-0.4c0-1.3-0.5-2.2-1.5-2.4c-0.8-0.2-1.6,0.1-2.2,0.7c-2.5,2.6-3.1,5.7-2.9,9.2
		c0.1,0.9,0.6,1.3,1.6,1.5c1.2,0.2,2.1-0.5,2.7-1.4C48,33,48.6,30.5,48.9,28z"/>
	<path fill="#BA0E20" d="M117.1,27.2c0.9-3.7,1.8-7.4,2.7-11.1c0.1-0.4,0.2-0.6,0.6-0.5c1.3,0,2.6,0,3.9,0c-0.4,2.1-0.9,4-1.3,6.1
		c-1,4.5-2.1,8.8-3,13.3c-0.4,2.1-1,4.2-1.4,6.3c-0.1,0.3-0.1,0.4-0.4,0.4c-1.4,0-2.9,0-4.3,0c0.2-0.8,0.4-1.6,0.5-2.6
		c-0.9,1-1.7,1.8-2.7,2.3c-1.9,0.9-3.5,0.4-4.3-1.5c-0.7-1.7-0.8-3.6-0.5-5.4c0.4-2.2,1-4.4,2.2-6.3c0.9-1.4,2-2.7,3.7-3.2
		c1.8-0.5,3.2,0.1,4,1.7C116.8,26.8,116.9,27,117.1,27.2z M111.5,35.5c0.1,0.4,0,0.7,0.2,1.1c0.4,1,1.2,1.3,2.1,0.7
		c0.4-0.3,0.7-0.6,0.9-1c1.1-1.8,1.5-3.8,1.6-6c0-0.6-0.1-1.3-0.9-1.6c-0.7-0.2-1.2,0.1-1.7,0.6C112.1,31.2,111.8,33.3,111.5,35.5z"
		/>
	<path fill="#BA0E20" d="M87.3,14.1c0.9,0,1.9,0,2.8,0c0.4,0,0.5,0.1,0.4,0.5c-0.4,1.6-0.7,3.3-1.2,4.9c-0.1,0.4-0.1,0.5,0.4,0.5
		c0.6,0,1.2,0,1.9,0c0.4,0,0.4,0.1,0.4,0.4c-0.4,1.2-0.6,2.6-1,3.9c-0.1,0.4-0.3,0.5-0.6,0.5c-0.6,0-1.2,0-1.9,0
		c-0.4,0-0.5,0.1-0.6,0.4c-0.4,2.1-1,4.1-1.5,6.2c-0.8,3.1-1.5,6.3-2.3,9.5c0,0.3-0.1,0.4-0.4,0.4c-2,0-3.8,0-5.8,0
		c-0.3,0-0.4,0-0.4-0.4c1.1-4.5,2.1-8.8,3.2-13.3c0.2-0.8,0.4-1.6,0.6-2.4c0.1-0.4,0-0.4-0.4-0.4c-0.6,0-1.2,0-1.8,0
		c-0.4,0-0.4-0.1-0.4-0.4c0.4-1.3,0.7-2.6,1-3.9c0.1-0.4,0.2-0.5,0.6-0.4c0.5,0,1.1,0,1.5,0c0.5,0.1,0.7-0.2,0.8-0.6
		c0.4-1.6,0.8-3.2,1.2-4.8c0.1-0.4,0.3-0.5,0.6-0.5C85.4,14.2,86.3,14.1,87.3,14.1z"/>
	<path fill="#BA0E20" d="M32.2,20.1c0,0.8-0.3,1.6-0.3,2.4c0.4-0.4,0.6-0.7,0.9-1c1.3-1.2,2.9-1.8,4.6-2.1c0.4,0,0.5,0,0.4,0.4
		c-0.4,1.7-0.8,3.3-1.2,5c-0.1,0.4-0.3,0.4-0.5,0.4c-0.9,0-1.8-0.1-2.7,0.2c-2,0.6-2.9,2.1-3.5,3.9c-0.7,2.5-1.2,5-1.9,7.5
		c-0.4,1.3-0.7,2.8-1,4.1c-0.1,0.4-0.3,0.4-0.5,0.4c-1.9,0-3.8,0-5.7,0c-0.5,0-0.5-0.2-0.4-0.5c0.6-2.6,1.3-5.3,2-7.9
		c1.1-4.2,2.1-8.3,3.1-12.5c0.1-0.3,0.1-0.4,0.4-0.4C28.1,20.1,30.1,20.1,32.2,20.1z"/>
	<path fill="#BA0E20" d="M134.2,36.4c-0.9,1.9-1.7,3.7-3.5,4.6c-1.9,1.1-4,1.2-6.1,0.5c-2.2-0.7-2.9-2.7-2.9-4.7
		c-0.1-3.7,0.9-7,3.4-9.6c1.9-2.1,4.3-2.9,7.1-2.4c1.9,0.4,3.1,1.7,3.4,3.7c0.2,2-0.2,3.8-0.6,5.7c-0.1,0.4-0.4,0.4-0.6,0.4
		c-2.4,0-4.8,0-7.3,0c-0.4,0-0.6,0.1-0.7,0.5c-0.1,0.7-0.2,1.3,0,2c0.4,1.2,1.4,1.5,2.5,0.8c0.4-0.3,0.7-0.6,0.9-1
		c0.2-0.4,0.4-0.5,0.9-0.4C131.7,36.4,133,36.4,134.2,36.4z M129.2,31.7c0.3,0,0.4,0,0.7,0c1.7,0,1.7-0.1,1.6-1.7v-0.1
		c-0.1-1-0.7-1.4-1.6-1.4c-1.5,0.1-2.7,1.7-2.9,2.9c0,0.3,0.1,0.4,0.4,0.4C128.1,31.7,128.7,31.7,129.2,31.7z"/>
	<path fill="#BA0E20" d="M91.4,41.6c-1,0-1.9,0-2.9,0c-0.4,0-0.4,0-0.4-0.4c1.3-5.5,2.7-11.1,4-16.6c0.3-1.2,0.6-2.5,0.9-3.7
		c0.1-0.4,0.3-0.7,0.8-0.7c1.9,0.1,3.7,0,5.5,0c0.4,0,0.6,0.1,0.4,0.5c-1.1,4.2-2.1,8.5-3.1,12.7c-0.6,2.6-1.2,5.1-1.9,7.7
		c-0.1,0.4-0.3,0.5-0.6,0.5C93.3,41.6,92.3,41.6,91.4,41.6z"/>
	<path fill="#F7C201" d="M92.1,12.6c0-3.5,2.8-6.2,6.4-6.2c3.2,0,6,2.9,6,6.2c0,3.7-3.1,6.2-6.5,6.2C94.8,18.7,92,15.9,92.1,12.6z"
		/>
	<path fill="#BA0E20" d="M98.1,39c0.1-1.9,1.7-3.4,3.6-3.4c1.5,0.1,2.9,1.4,2.7,2.9c-0.2,2.1-1.9,3.2-3.5,3.2
		C99.4,41.8,98.1,40.5,98.1,39z"/>
</g>
</svg>
