<?xml version="1.0" encoding="utf-8"?>
<!-- Generator: Adobe Illustrator 28.0.0, SVG Export Plug-In . SVG Version: 6.00 Build 0)  -->
<svg version="1.1" id="Layer_1" xmlns="http://www.w3.org/2000/svg" xmlns:xlink="http://www.w3.org/1999/xlink" x="0px" y="0px"
	 viewBox="0 0 88.6 42" style="enable-background:new 0 0 88.6 42;" xml:space="preserve">
<style type="text/css">
	.st0{fill:#254DA1;}
</style>
<path class="st0" d="M28.5,2.2c0.9,1.1,1.4,2.4,1.4,3.8c0,1.5-0.4,2.9-1.3,4c-0.9,1.1-2.3,1.6-4.1,1.6c-1.9,0-3.4-0.5-4.3-1.5
	c-1-1-1.4-2.4-1.4-4.2c0-1.7,0.5-3,1.5-3.9c1-0.9,2.4-1.4,4.2-1.4C26.2,0.6,27.5,1.1,28.5,2.2z M28.9,20.6v-7c-1.6,0-3,0.1-4.1,0.1
	h-5.2c0.1,5,0.1,9.2,0.1,12.7c0,3.4,0,6.2,0,8.4v6.2c1.4,0,2.6,0,3.8,0c1.2,0,2.1,0,3,0h2.7c-0.1-4.4-0.1-8.3-0.2-11.7
	C28.9,25.8,28.9,22.9,28.9,20.6L28.9,20.6z M13.5,32c-0.9,0-1.9-0.1-3-0.1c-0.1-5.7-0.2-10.3-0.2-13.9c0-3.6-0.1-6.5-0.1-8.6
	c0-2.5,0-4.3,0.1-5.6c-1.6,0-3,0.1-4.2,0.1h-3c-0.9,0-1.7,0-2.4-0.1c0.1,5.6,0.1,10.6,0.2,15.1c0,4.5,0.1,8.4,0.1,11.7
	C1,34.4,1,37.8,1,40.7c2.5,0,4.8,0,7,0.1c0.9,0,1.9,0,2.9,0l2.8,0.1l2.6,0.1c0.8,0,1.5,0,2,0v-5.2c0-1.1,0-2.3,0.1-3.7H16
	C15.3,32.1,14.5,32.1,13.5,32z M87.7,27.5c0,2.2-0.2,4.4-0.8,6.5c-0.4,1.6-1.2,3.1-2.3,4.3c-1,1.1-2.2,1.9-3.6,2.4
	c-1.6,0.5-3.2,0.8-4.8,0.7c-1.8,0.1-3.7-0.3-5.4-1c-1.4-0.6-2.6-1.7-3.5-2.9c-0.9-1.4-1.6-2.9-1.9-4.5C65.1,31,64.9,29,64.9,27
	c0-4.2,1-7.6,2.9-9.9c1.9-2.4,4.8-3.6,8.6-3.6c1.8,0,3.5,0.3,5.1,1c1.4,0.6,2.6,1.6,3.5,2.8c1,1.3,1.6,2.8,2,4.4
	C87.5,23.6,87.7,25.5,87.7,27.5L87.7,27.5z M77.8,27.5c0-1.6,0-2.9-0.1-3.9c0-0.8-0.1-1.5-0.3-2.3c-0.1-0.4-0.2-0.8-0.4-1.1
	c-0.1-0.1-0.2-0.2-0.3-0.2C76.6,20,76.5,20,76.3,20c-0.3,0-0.5,0.1-0.7,0.3c-0.2,0.3-0.4,0.7-0.4,1.1C75,22,75,22.7,74.9,23.5
	c-0.1,0.9-0.1,2.2-0.1,3.7c0,1.8,0,3.2,0.1,4.3c0,0.8,0.1,1.6,0.3,2.5c0,0.4,0.2,0.8,0.4,1.1c0.2,0.2,0.4,0.3,0.7,0.2
	c0.2,0,0.4-0.1,0.6-0.2c0.2-0.3,0.4-0.7,0.4-1.1c0.2-0.8,0.3-1.6,0.3-2.3C77.7,30.6,77.8,29.2,77.8,27.5z M63.4,31.6
	c-0.5,0.1-1,0.2-1.6,0.2c-1.6,0-2.5-0.8-2.5-2.4c0-1-0.1-2.1-0.1-3.1c0-1.1,0-2.2,0-3.3l4.1,0.1v-3.9c0-1,0-2.4,0.1-4.2h-4.1
	c0-1,0-2,0-2.9c0-0.9,0-1.7,0-2.3c0-0.8,0-1.5,0-2.1c-0.5,0-1.2,0.1-2.1,0.1h-2.8c-1.2,0-2.6,0-4.3-0.1c0,0.6-0.1,1.3-0.1,2
	c0,0.6,0,1.3,0,2.2c0,0.9,0,1.9,0,3h-1.2c-0.4,0-0.9,0-1.3-0.1c0,0.4,0,1,0.1,1.7c0,0.6,0,1.4,0,2.5c0,1.1,0,2.4,0,4H50v4.5
	c0,1.5,0,3.1,0.1,4.7c0,1.4,0.2,2.7,0.6,4c0.4,1,1,2,1.7,2.7c0.8,0.7,1.7,1.2,2.7,1.5c1.1,0.3,2.3,0.5,3.5,0.5
	c0.8,0,1.7-0.1,2.5-0.2c0.9-0.1,1.8-0.3,2.7-0.5c0-0.6-0.1-1.3-0.2-2.2C63.6,36.5,63.5,34.4,63.4,31.6z M46.2,31.6
	c-0.5,0.1-1,0.2-1.6,0.2c-1.6,0-2.5-0.8-2.5-2.4c0-1-0.1-2.1-0.1-3.1c0-1.1,0-2.2,0-3.3l4.1,0.1v-3.9c0-1,0-2.4,0.1-4.2h-4.1
	c0-1,0-2,0-2.9c0-0.9,0-1.7,0-2.3c0-0.8,0-1.5,0.1-2.1c-0.5,0-1.2,0.1-2.1,0.1h-2.8c-1.2,0-2.6,0-4.3-0.1c0,0.6-0.1,1.3-0.1,2
	c0,0.6,0,1.3,0,2.2c0,0.9,0,1.9,0,3h-1.2c-0.4,0-0.9,0-1.3-0.1c0,0.4,0,1,0.1,1.7c0,0.6,0,1.4,0,2.5c0,1.1,0,2.4,0,4h2.4v4.5
	c0,1.5,0,3.1,0,4.7c0,1.4,0.2,2.7,0.6,4c0.4,1,1,2,1.7,2.7c0.8,0.7,1.7,1.2,2.7,1.5c1.1,0.3,2.3,0.5,3.5,0.5c0.8,0,1.7-0.1,2.5-0.2
	c0.9-0.1,1.8-0.3,2.7-0.5c0-0.6-0.1-1.3-0.2-2.2C46.4,36.5,46.3,34.4,46.2,31.6z"/>
</svg>
