<?xml version="1.0" encoding="utf-8"?>
<!-- Generator: Adobe Illustrator 23.0.3, SVG Export Plug-In . SVG Version: 6.00 Build 0)  -->
<svg version="1.2" baseProfile="tiny" id="Layer_1" xmlns="http://www.w3.org/2000/svg" xmlns:xlink="http://www.w3.org/1999/xlink"
	 x="0px" y="0px" viewBox="0 0 140.2 42" xml:space="preserve">
<g>
	<path fill="#231F20" d="M5.8,14.8v14.6H0V16c0-6.5,3.3-9.8,9.8-9.8c2.9,0,5.2,0.6,6.8,1.9c1.6-1.3,3.9-1.9,6.8-1.9
		c6.5,0,9.8,3.2,9.7,9.8v13.4h-3c-1.9-0.1-2.9-1-2.9-2.9V14.9c-0.1-2.4-1.4-3.5-4-3.5c-2.6,0-3.8,1.2-3.9,3.5v14.5h-5.8V14.8
		c-0.1-2.4-1.4-3.5-4-3.5C7.2,11.3,5.9,12.4,5.8,14.8L5.8,14.8z"/>
	<path fill="#231F20" d="M89.2,15.5h8.6c-0.3-3-1.8-4.6-4.2-4.6C91.1,10.9,89.6,12.5,89.2,15.5L89.2,15.5z M93.6,30
		c-6.9-0.2-10.4-4.2-10.4-12c0-7.8,3.5-11.7,10.5-11.7c7.3,0,10.7,4.5,10.2,13.4H89.1c0.2,3.5,1.7,5.3,4.5,5.3
		c1.3,0,2.6-0.6,3.7-1.6c0.5-0.6,1.2-0.8,1.9-0.8h4.2C102.3,27.3,99.2,30,93.6,30L93.6,30z"/>
	<path fill="#231F20" d="M123.1,29.4c-1.9-0.1-2.9-1-2.9-2.9V14.8c-0.1-2.4-1.4-3.5-4-3.5c-2.6,0-3.8,1.2-3.9,3.5v14.6h-5.8V16
		c0-6.5,3.3-9.8,9.8-9.8c6.5,0,9.7,3.2,9.7,9.8v13.4H123.1L123.1,29.4z"/>
	<path fill="#231F20" d="M137.3,10.6h-2v12.7c0,1,0.6,1.5,1.7,1.5h3.2v4.4c-1.9,0.2-5.3,0.2-7.4,0c-2.2-0.2-3.2-1.6-3.2-4.1V0h3
		c1.5,0,2.8,1.4,2.8,2.9v3.6h4.8v1.3C140.2,9.4,138.9,10.6,137.3,10.6L137.3,10.6z"/>
	<path fill="#231F20" d="M45.8,27.1l-0.5,0.4l-0.5-0.4c-2.9-2.5-6-7.7-6-11c0-3.9,2.8-6.6,6.7-6.6c4.1,0,6.7,2.9,6.7,7.3
		C52.1,19.3,49.3,24.4,45.8,27.1L45.8,27.1z M54.1,10.6c-1.7-2.5-4.3-4.4-8.6-4.4c-5.4,0-9.3,3-9.9,7.5c-0.5,3.5,0.9,7.8,2.8,10.8
		c3.1,4.9,3,5.8,2.8,8c-0.4,6-6.8,9.5-6.8,9.5c5.8-0.9,9.3-4.6,10.9-6.4c6.4-6.9,8.9-12.8,9.7-16.6C55.8,16.1,55.6,12.9,54.1,10.6
		L54.1,10.6z"/>
	<path fill="#231F20" d="M48,17.2c-0.4,1.5-2,2.3-3.4,1.9c-1.5-0.4-2.3-2-1.9-3.4c0.4-1.5,2-2.3,3.4-1.9
		C47.6,14.2,48.5,15.7,48,17.2L48,17.2z"/>
	<path fill="#231F20" d="M65.2,6.4v6.1h5.5c2.1,0,3.4-1.7,3.4-3.3c0-1.4-1-2.8-3.4-2.8H65.2L65.2,6.4z M59.1,3.5
		c0-2.2,1.3-3.2,3.8-3.2h7.6c6.4,0,9.9,4.3,9.9,8.9c0,2.9-1.4,5.8-4.5,7.8l3.4,6.6c1.1,2.4,2.4,4.5,3.3,6.4c0,0-3.1,0-5.1,0
		c-1.3,0-2.1-1.4-2.1-1.4l-5-10h-5.1V30c0,0-1,0-3,0c-2.1,0-3.1,0-3.1,0V3.5L59.1,3.5z"/>
</g>
</svg>
