<?xml version="1.0" encoding="utf-8"?>
<!-- Generator: Adobe Illustrator 24.3.0, SVG Export Plug-In . SVG Version: 6.00 Build 0)  -->
<svg version="1.1" id="Layer_1" xmlns="http://www.w3.org/2000/svg" xmlns:xlink="http://www.w3.org/1999/xlink" x="0px" y="0px"
	 viewBox="0 0 254.56 42" style="enable-background:new 0 0 254.56 42;" xml:space="preserve">
<style type="text/css">
	.st0{fill:#2E2E37;}
</style>
<g>
	<g>
		<path class="st0" d="M34.92,22.95c-0.05,4.55-0.94,8.87-3.94,12.46c-4.11,4.92-9.6,6.14-15.65,5.37
			C7.99,39.85,2.92,34.59,1.85,27.01c-0.48-3.41-0.38-6.8,0.53-10.14C4.46,9.19,10.96,4.67,19.16,5.1
			c6.46,0.34,11.42,2.95,14.12,9.1C34.34,16.61,34.91,19.77,34.92,22.95z M7.84,23.29c0.03,3.34,0.47,6.69,2.22,9.74
			c1.72,3.01,4.29,4.67,7.8,4.74c4.37,0.09,7.52-1.97,9.23-6.25c2.28-5.73,2.24-11.52-0.02-17.25c-1.53-3.9-4.42-6.04-8.69-6.06
			c-4.3-0.02-7.21,2.11-8.93,5.97C8.18,17.05,7.88,20.1,7.84,23.29z"/>
		<path class="st0" d="M235.49,19.68c0,5.57-0.01,11.14,0.01,16.71c0,1.36,0.43,1.82,1.67,1.73c0.24-0.02,0.64-0.47,0.63-0.71
			c-0.02-0.74-0.3-1.48-0.28-2.22c0.01-0.45,0.31-1.19,0.62-1.27c0.44-0.11,1.05,0.18,1.49,0.46c0.32,0.2,0.45,0.68,0.7,1.01
			c1.24,1.66,2.84,2.66,4.97,2.64c1.33-0.01,2.49-0.78,2.81-1.88c0.36-1.23,0.07-2.35-0.99-3.11c-1.59-1.14-3.23-2.19-4.85-3.29
			c-0.65-0.44-1.31-0.89-1.91-1.39c-1.92-1.59-2.87-3.58-2.13-6.07c0.74-2.48,2.66-3.67,5.09-3.95c1.21-0.14,2.49,0.02,3.7,0.25
			c0.98,0.19,1.85,0.67,2.8-0.14c0.17-0.14,1.19,0.28,1.29,0.6c0.42,1.43,0.7,2.91,0.92,4.38c0.05,0.33-0.3,0.93-0.59,1.04
			c-0.32,0.11-0.89-0.11-1.18-0.37c-0.45-0.41-0.71-1.02-1.12-1.49c-1.16-1.32-2.54-2.17-4.38-1.82c-1.88,0.37-2.52,2.15-1.23,3.55
			c0.66,0.72,1.52,1.28,2.34,1.83c1.24,0.83,2.58,1.53,3.78,2.41c2.96,2.16,3.96,4.88,2.96,7.77c-0.92,2.67-3.62,4.29-7.11,4.18
			c-5.14-0.15-10.28-0.32-15.41-0.54c-0.47-0.02-0.92-0.49-1.37-0.75c0.33-0.39,0.59-1,1.01-1.14c0.87-0.29,1.03-0.85,1.03-1.61
			c0.02-5.2,0.05-10.39,0.06-15.59c0.01-4.61-0.02-9.23,0.02-13.84c0.01-1.2-0.21-2.03-1.65-2.07c-0.32-0.01-0.84-0.49-0.88-0.8
			c-0.04-0.31,0.33-0.85,0.65-1.01c1.38-0.67,2.81-1.25,4.23-1.84c1.78-0.74,2.29-0.44,2.3,1.47c0.03,4.07,0.01,8.15,0.01,12.22
			C235.49,16.6,235.49,18.14,235.49,19.68z"/>
		<path class="st0" d="M101.16,21.24c1.35-1.73,2.9-2.84,5.13-2.71c0.29,0.02,0.58,0.05,0.86,0.13c1.03,0.28,2.36,0.7,2.2,1.81
			c-0.14,0.99-1.18,1.89-1.93,2.73c-0.14,0.16-0.85-0.08-1.22-0.27c-1.87-1-3.29-0.61-4.12,1.36c-0.39,0.93-0.63,2-0.65,3.01
			c-0.08,3.12-0.01,6.23-0.04,9.35c-0.01,1.02,0.27,1.63,1.38,1.84c0.36,0.07,0.62,0.69,0.92,1.05c-0.37,0.25-0.74,0.71-1.12,0.72
			c-2.28,0.07-4.57,0.06-6.85,0c-0.36-0.01-0.87-0.32-1.03-0.63c-0.12-0.23,0.18-0.97,0.38-1.01c1.98-0.36,1.63-1.88,1.66-3.21
			c0.01-0.23-0.02-0.47-0.03-0.58c-1.26,1.16-2.45,2.42-3.79,3.49c-4.62,3.67-11.49,3.4-15.21-0.7c-3.22-3.55-3.55-7.8-2.17-12.16
			c1.27-4.01,4.22-6.3,8.39-6.84c3.14-0.4,6.07,0.18,8.36,2.58c0.53,0.56,0.96,1.26,1.29,1.96c0.66,1.45,0.41,2.53-0.92,3.5
			c-1.13,0.83-2.38,1.51-3.59,2.24c-1.68,1-3.37,1.98-5.05,2.96c-0.78,0.45-1.61,0.73-2.18-0.2c-0.58-0.94,0.04-1.56,0.81-2.03
			c1.42-0.87,2.86-1.7,4.27-2.58c1.91-1.19,2.4-2.41,1.67-4c-0.76-1.66-2.65-2.43-4.53-1.85c-1.41,0.44-2.36,1.43-2.93,2.72
			c-1.53,3.51-1.69,7.12-0.19,10.65c1.44,3.38,5.18,4.63,8.6,2.71c4.51-2.53,8.01-7.07,7.18-13.27c-0.11-0.86-0.52-1.19-1.35-1.32
			c-0.46-0.07-0.86-0.48-1.29-0.74c0.34-0.41,0.6-0.99,1.04-1.2c1.38-0.67,2.82-1.22,4.24-1.8c1.42-0.59,1.79-0.34,1.82,1.19
			C101.17,20.5,101.16,20.87,101.16,21.24z"/>
		<path class="st0" d="M151.54,23.21c0,4.03,0,8.06,0,12.09c0,1.84,0.18,2.02,1.89,2.7c0.37,0.15,0.83,0.69,0.81,1.01
			c-0.03,0.35-0.57,0.67-0.91,0.97c-0.08,0.07-0.24,0.05-0.36,0.05c-2.82,0-5.65,0.05-8.47-0.04c-0.45-0.01-0.88-0.64-1.33-0.98
			c0.37-0.36,0.7-0.98,1.12-1.05c1.39-0.22,1.79-1.09,1.79-2.28c0.01-8.35,0.03-16.7-0.02-25.05c-0.01-1.95-0.45-2.17-2.41-2.34
			c-2.81-0.24-4.96,0.67-6.34,3.2c-0.43,0.78-1.05,1.23-1.94,0.74c-0.9-0.49-0.61-1.26-0.33-1.96c0.5-1.23,0.97-2.49,1.62-3.64
			c0.27-0.47,0.98-0.97,1.49-0.97c7.14-0.06,14.29-0.06,21.43,0c0.51,0,1.24,0.52,1.49,1c0.67,1.28,1.21,2.65,1.64,4.03
			c0.14,0.43-0.08,1.32-0.38,1.46c-0.44,0.2-1.26,0.1-1.64-0.21c-0.66-0.54-1.08-1.36-1.63-2.03c-1.22-1.48-5.05-2.32-6.67-1.32
			c-0.47,0.29-0.77,1.16-0.82,1.79c-0.12,1.49-0.05,2.99-0.05,4.48C151.54,17.64,151.54,20.42,151.54,23.21z"/>
		<path class="st0" d="M183.69,38.43c-2.1,1.88-4.39,2.38-6.89,2.03c-2.52-0.36-4.52-1.55-5.37-4.05c-0.85-2.51-0.21-4.79,1.66-6.63
			c2.05-2.03,4.58-3.11,7.45-3.37c0.72-0.07,1.5-0.08,1.68,0.85c0.18,0.95-0.56,1.16-1.27,1.35c-2.53,0.69-4.5,1.97-4.91,4.82
			c-0.31,2.18,0.86,4.09,2.7,4.42c2.1,0.38,4-0.86,4.29-3.15c0.29-2.3,0.21-4.64,0.27-6.96c0.03-0.96,0.02-1.91,0-2.87
			c-0.05-2.51-1.43-3.92-3.94-3.73c-1.28,0.1-2.54,0.66-3.79,1.07c-0.5,0.17-0.94,0.64-1.44,0.71c-0.49,0.07-1.26-0.04-1.47-0.36
			c-0.23-0.35-0.13-1.15,0.14-1.54c0.36-0.52,0.97-0.91,1.55-1.21c3.05-1.55,6.28-1.84,9.57-1.01c2.66,0.67,3.99,2.58,4.02,5.58
			c0.03,3.57,0.01,7.15,0.01,10.72c0,0.54,0.07,1.08,0.06,1.62c-0.02,0.79,0.35,1.16,1.09,1.43c0.4,0.14,0.64,0.7,0.96,1.06
			c-0.41,0.28-0.8,0.75-1.23,0.8c-1.15,0.11-2.32,0.01-3.49,0.05C184.36,40.1,183.51,39.99,183.69,38.43z"/>
		<path class="st0" d="M209.52,29.4c0.01-5.95,3.42-10.26,8.88-11.04c3.17-0.45,6.15,0.09,8.51,2.49c0.46,0.47,0.85,1.03,1.15,1.61
			c0.91,1.76,0.66,2.98-0.98,4.1c-1.54,1.05-3.19,1.95-4.79,2.91c-1.25,0.74-2.5,1.49-3.76,2.21c-0.75,0.43-1.55,0.56-2.06-0.33
			c-0.47-0.82-0.04-1.44,0.66-1.88c1.41-0.87,2.85-1.71,4.26-2.58c2.18-1.33,2.71-2.79,1.65-4.48c-1.08-1.73-3.42-2.21-5.28-1.06
			c-1.47,0.91-2.2,2.36-2.63,3.95c-0.64,2.36-0.73,4.76-0.18,7.15c1.18,5.13,5.92,6.97,10.26,3.99c0.65-0.44,1.17-1.11,1.85-1.45
			c0.46-0.23,1.25-0.29,1.64-0.03c0.28,0.19,0.36,1.11,0.16,1.52c-0.31,0.64-0.86,1.23-1.44,1.67c-3.8,2.88-7.95,3.19-12.22,1.29
			C211.53,37.78,209.52,34.04,209.52,29.4z"/>
		<path class="st0" d="M122.32,40.89c-0.86-0.12-1.74-0.16-2.58-0.37c-1.1-0.28-2.08-0.6-3.15,0.23c-0.64,0.49-1.34,0.04-1.5-0.74
			c-0.32-1.54-0.59-3.1-0.75-4.67c-0.04-0.38,0.32-1.01,0.65-1.15c0.35-0.15,0.97,0.04,1.32,0.29c0.38,0.27,0.58,0.79,0.87,1.2
			c1.13,1.57,2.65,2.5,4.59,2.64c1.44,0.11,2.69-0.63,3.15-1.78c0.47-1.16,0.18-2.37-1.06-3.29c-1.66-1.24-3.44-2.32-5.16-3.49
			c-1.6-1.08-3.13-2.25-3.66-4.24c-0.97-3.59,1.65-6.84,5.72-6.99c1.22-0.04,2.47,0.22,3.67,0.49c0.72,0.16,1.29,0.34,1.96-0.18
			c0.8-0.63,1.44-0.27,1.67,0.65c0.34,1.37,0.63,2.76,0.83,4.15c0.05,0.35-0.26,1.02-0.52,1.09c-0.37,0.1-0.97-0.1-1.27-0.38
			c-0.62-0.6-1.06-1.39-1.67-2c-1.02-1.02-2.3-1.63-3.72-1.25c-0.71,0.19-1.56,0.8-1.81,1.44c-0.22,0.56,0.08,1.63,0.53,2.1
			c0.92,0.93,2.08,1.62,3.17,2.37c1.16,0.8,2.41,1.48,3.51,2.35c2.44,1.94,3.25,4.62,2.34,7.32c-0.81,2.39-3.17,3.98-6.12,4.12
			c-0.33,0.02-0.66,0-1,0C122.32,40.84,122.32,40.87,122.32,40.89z"/>
		<path class="st0" d="M41.76,19.7c0,5.32,0,10.64,0,15.96c0,1.28-0.2,2.67,1.67,2.93c0.21,0.03,0.54,0.62,0.48,0.86
			c-0.08,0.32-0.49,0.77-0.76,0.78c-2.45,0.06-4.9,0.06-7.35,0c-0.25-0.01-0.72-0.49-0.69-0.69c0.06-0.38,0.37-0.97,0.64-1.01
			c1.3-0.21,1.42-1.1,1.42-2.11c0-9.98-0.01-19.95,0.03-29.93c0-1-0.65-0.94-1.26-1.17c-0.48-0.18-0.9-0.54-1.34-0.83
			c0.38-0.42,0.68-0.99,1.14-1.23c1.22-0.63,2.5-1.13,3.77-1.64c1.8-0.72,2.24-0.42,2.24,1.49C41.77,8.64,41.76,14.17,41.76,19.7z"
			/>
		<path class="st0" d="M66.42,34.67c0.75-1.96,1.37-3.57,1.99-5.18c0.85-2.21,1.71-4.42,2.53-6.64c0.46-1.23,0.27-1.59-0.93-1.9
			c-0.66-0.17-1.5-0.34-1.23-1.18c0.13-0.41,0.98-0.8,1.53-0.83c1.78-0.1,3.57-0.08,5.36,0.01c0.46,0.02,0.89,0.51,1.33,0.78
			c-0.36,0.38-0.67,1.01-1.08,1.09c-1.21,0.22-1.73,1-2.14,2.01c-2.17,5.35-4.36,10.7-6.54,16.04c-0.03,0.08-0.04,0.18-0.09,0.23
			c-0.56,0.48-1.1,1.28-1.71,1.33c-0.5,0.05-1.31-0.68-1.57-1.26c-1.17-2.57-2.2-5.2-3.28-7.82c-1.17-2.84-2.35-5.68-3.5-8.54
			c-0.41-1.02-0.97-1.77-2.15-2.03c-0.37-0.08-0.63-0.7-0.93-1.08c0.37-0.26,0.73-0.74,1.1-0.75c2.78-0.07,5.57-0.07,8.35,0
			c0.37,0.01,0.72,0.51,1.08,0.78c-0.32,0.36-0.58,0.92-0.98,1.06c-2.04,0.7-2.14,0.72-1.38,2.77
			C63.49,27.18,64.91,30.75,66.42,34.67z"/>
		<path class="st0" d="M201.08,34.33c1.5-3.95,3.01-7.91,4.5-11.86c0.3-0.79-0.04-1.28-0.85-1.47c-0.28-0.06-0.63-0.06-0.83-0.23
			c-0.29-0.24-0.69-0.66-0.64-0.91c0.07-0.34,0.53-0.85,0.83-0.86c2.2-0.07,4.4-0.06,6.6,0c0.28,0.01,0.8,0.52,0.78,0.75
			c-0.04,0.37-0.42,0.97-0.7,0.99c-1.86,0.13-2.28,1.57-2.83,2.92c-2.05,5.04-4.11,10.08-6.17,15.11c-0.35,0.86-0.71,1.76-1.84,1.77
			c-1.08,0.01-1.43-0.86-1.77-1.68c-2.17-5.26-4.34-10.52-6.49-15.79c-0.46-1.13-1-2.06-2.36-2.29c-0.31-0.05-0.7-0.67-0.73-1.06
			c-0.02-0.23,0.58-0.73,0.9-0.74c2.82-0.06,5.65-0.07,8.47-0.01c0.37,0.01,0.73,0.51,1.09,0.79c-0.33,0.36-0.64,0.99-1,1.03
			c-1.94,0.21-2.05,0.99-1.42,2.71c1.34,3.62,2.77,7.2,4.16,10.8C200.88,34.31,200.98,34.32,201.08,34.33z"/>
		<path class="st0" d="M163.56,21.41c1.32-1.84,2.92-2.91,5.2-2.71c0.33,0.03,0.67,0.07,0.97,0.18c0.9,0.34,2.12,0.77,1.84,1.83
			c-0.25,0.97-1.22,1.78-1.98,2.56c-0.14,0.15-0.84-0.15-1.22-0.36c-1.59-0.85-2.99-0.56-3.75,1.07c-0.48,1.02-0.77,2.21-0.81,3.34
			c-0.11,2.99-0.02,5.99-0.05,8.98c-0.01,1.05,0.22,1.75,1.43,1.91c0.33,0.04,0.58,0.63,0.87,0.97c-0.36,0.28-0.7,0.79-1.07,0.8
			c-2.28,0.08-4.57,0.08-6.85,0.01c-0.36-0.01-0.71-0.51-1.07-0.79c0.28-0.35,0.51-0.91,0.86-1c0.97-0.25,1.24-0.83,1.24-1.72
			c-0.01-4.03-0.02-8.06,0-12.1c0.01-0.99-0.33-1.54-1.4-1.65c-0.41-0.04-0.79-0.45-1.18-0.69c0.3-0.4,0.51-0.97,0.91-1.16
			c1.38-0.67,2.82-1.22,4.24-1.8c1.42-0.59,1.78-0.34,1.81,1.22C163.56,20.68,163.56,21.05,163.56,21.41z"/>
		<path class="st0" d="M52.4,28.49c0,2.7,0.01,5.4,0,8.1c-0.01,0.97,0.23,1.67,1.35,1.9c0.33,0.07,0.55,0.67,0.82,1.02
			c-0.37,0.26-0.73,0.72-1.11,0.74c-2.24,0.07-4.49,0.07-6.73,0c-0.36-0.01-0.7-0.5-1.05-0.76c0.28-0.35,0.49-0.92,0.84-1.01
			c0.98-0.25,1.22-0.85,1.22-1.74c-0.01-4.15-0.01-8.31,0-12.46c0-0.96-0.36-1.43-1.35-1.57c-0.44-0.06-0.83-0.5-1.25-0.76
			c0.31-0.38,0.54-0.93,0.94-1.12c1.46-0.69,2.97-1.29,4.48-1.89c1.28-0.51,1.8-0.2,1.82,1.21c0.05,2.78,0.01,5.57,0.01,8.35
			C52.39,28.49,52.39,28.49,52.4,28.49z"/>
		<path class="st0" d="M116.25,14.82c-0.26,2.77-1.22,5.08-3.18,6.96c-0.24,0.23-0.48,0.53-0.77,0.61
			c-0.43,0.11-0.91,0.05-1.37,0.06c0.05-0.45-0.02-0.97,0.19-1.32c0.42-0.71,1.03-1.3,1.48-1.99c0.31-0.48,0.56-1.02,0.72-1.57
			c0.22-0.75,0.05-1.22-0.9-1.35c-1.66-0.23-2.4-0.99-2.52-2.29c-0.14-1.45,0.56-2.7,1.75-3.13c1.37-0.5,3.01-0.04,3.7,1.25
			C115.8,12.88,115.96,13.89,116.25,14.82z"/>
		<path class="st0" d="M49.93,16.56c-1.74,0.01-3.01-1.2-3.04-2.92c-0.03-1.69,1.24-3,2.94-3.02c1.65-0.02,3.08,1.33,3.09,2.94
			C52.94,15.2,51.6,16.55,49.93,16.56z"/>
	</g>
</g>
</svg>
