<?xml version="1.0" encoding="utf-8"?>
<!-- Generator: Adobe Illustrator 27.8.1, SVG Export Plug-In . SVG Version: 6.00 Build 0)  -->
<svg version="1.1" id="Layer_1" xmlns="http://www.w3.org/2000/svg" xmlns:xlink="http://www.w3.org/1999/xlink" x="0px" y="0px"
	 viewBox="0 0 188.7 42" style="enable-background:new 0 0 188.7 42;" xml:space="preserve">
<style type="text/css">
	.st0{fill:#58B4E3;}
</style>
<g>
	<g id="tower">
		<polygon class="st0" points="187.9,41 117.9,41 117.9,30.4 119.2,29.2 119.2,24.6 117.3,24.6 117.3,26 114.7,26 114.7,24.6 
			112.9,24.6 112.9,26.1 110.3,26.1 110.3,24.6 108.4,24.6 108.4,29 109.7,30.4 109.7,41 1.2,41 1.2,40.5 109.2,40.5 109.2,30.6 
			107.9,29.2 107.9,24.2 110.8,24.2 110.8,25.6 112.5,25.6 112.5,24.2 115.1,24.2 115.1,25.5 116.8,25.5 116.8,24.2 119.7,24.2 
			119.7,29.4 118.4,30.6 118.4,40.5 187.9,40.5 		"/>
		<polygon class="st0" points="119,24.4 118.5,24.4 118.5,13.2 117.1,13.2 117.1,14.8 114.7,14.8 114.7,13.2 112.9,13.2 112.9,14.8 
			110.6,14.8 110.6,13.2 109,13.2 109,24.4 108.6,24.4 108.6,12.7 111,12.7 111,14.4 112.5,14.4 112.5,12.7 115.2,12.7 115.2,14.4 
			116.6,14.4 116.6,12.7 119,12.7 		"/>
		<path class="st0" d="M111.6,25.8h-0.4V21c0-1.7,1.2-3.1,2.7-3.1s2.7,1.4,2.7,3.1v4.7H116V21c0-1.5-1-2.7-2.2-2.7s-2.2,1.2-2.2,2.7
			L111.6,25.8z"/>
		<polygon class="st0" points="111.1,14.7 110.7,14.5 113.9,5.4 116.8,14.5 116.4,14.7 113.9,6.9 		"/>
		<path class="st0" d="M113.9,4.5c-0.5,0-0.8-0.4-0.8-0.8c0-0.5,0.4-0.8,0.8-0.8c0.5,0,0.8,0.4,0.8,0.8
			C114.7,4.1,114.4,4.5,113.9,4.5C113.9,4.5,113.9,4.5,113.9,4.5z M113.9,3.3c-0.2,0-0.4,0.2-0.4,0.4s0.2,0.4,0.4,0.4
			c0.2,0,0.4-0.2,0.4-0.4c0,0,0,0,0,0C114.3,3.5,114.1,3.3,113.9,3.3z"/>
		<rect x="113.7" y="1" class="st0" width="0.5" height="2.1"/>
		<rect x="113.7" y="4.3" class="st0" width="0.5" height="2.1"/>
		<path class="st0" d="M111.9,31.3h-0.5v-0.2c0-0.2,0-0.3,0-0.5c-0.1-0.8-0.5-1.3-0.8-1.3c-0.4,0-0.9,0.7-0.9,1.7h-0.4
			c0-1.2,0.6-2.2,1.3-2.2c0.5,0.1,0.9,0.4,1.1,0.9c0.1-0.5,0.6-0.8,1.1-0.9c0.5,0.1,0.9,0.4,1.1,0.9c0.1-0.5,0.6-0.9,1.1-0.9
			c0.5,0.1,1,0.4,1.1,0.9c0.1-0.5,0.6-0.9,1.1-0.9c0.7,0,1.3,1,1.3,2.2H118c0-1-0.4-1.7-0.9-1.7s-0.9,0.7-0.9,1.7h-0.4
			c0-1-0.4-1.7-0.9-1.7s-0.9,0.7-0.9,1.7h-0.4c0-1-0.4-1.7-0.9-1.7c-0.3,0-0.7,0.5-0.8,1.3c0,0.2,0,0.3,0,0.5L111.9,31.3L111.9,31.3
			z"/>
	</g>
	<g id="villas">
		<path d="M125.9,14.5h0.8l8,20.8l8-20.8h0.8l-8.3,21.7h-0.9L125.9,14.5z"/>
		<path d="M146.7,15.3c0.1,0.1,0.2,0.3,0.2,0.4c0,0.2-0.1,0.3-0.2,0.4c-0.1,0.1-0.3,0.2-0.4,0.2c-0.2,0-0.3-0.1-0.4-0.2
			c-0.1-0.1-0.2-0.3-0.2-0.4c0-0.2,0.1-0.3,0.2-0.4c0.1-0.1,0.3-0.2,0.4-0.2C146.4,15.1,146.6,15.2,146.7,15.3z M145.9,20.6h0.7
			v15.6h-0.7V20.6z"/>
		<path d="M150.5,14.5h0.7v21.7h-0.7V14.5z"/>
		<path d="M155.1,14.5h0.7v21.7h-0.7V14.5z"/>
		<path d="M173.9,35.5v0.6h-0.5c-0.6,0-1.3-0.2-1.7-0.6c-0.4-0.5-0.6-1.1-0.6-1.7v-1.7c-0.4,1.3-1.2,2.4-2.4,3.1
			c-1.3,0.8-2.8,1.2-4.4,1.1c-1.4,0.1-2.7-0.3-3.8-1.2c-1.8-1.5-1.9-4.2-0.4-6c0.2-0.2,0.3-0.3,0.5-0.5c1-0.8,2.5-1.2,4.5-1.2h5.9
			v-1.7c0-1.5-0.5-2.8-1.4-3.6c-0.9-0.9-2.2-1.3-3.9-1.3c-1.3-0.1-2.5,0.3-3.6,1c-0.9,0.6-1.5,1.6-1.7,2.7h-0.7
			c0.2-1.3,0.9-2.4,1.9-3.1c1.2-0.8,2.6-1.2,4.1-1.2c1.9,0,3.4,0.5,4.4,1.5c1,1,1.5,2.3,1.5,4.1v7.8c0,0.5,0.1,1,0.5,1.4
			c0.3,0.3,0.8,0.5,1.3,0.5H173.9z M171.1,28.2h-6c-1.7,0-3,0.3-3.9,1c-0.9,0.6-1.4,1.7-1.4,2.8c0,1.1,0.4,2.1,1.2,2.8
			c1,0.7,2.2,1.1,3.4,1c1.2,0,2.4-0.2,3.6-0.7c1-0.4,1.7-1.2,2.3-2.1c0.5-0.9,0.8-1.9,0.8-3L171.1,28.2L171.1,28.2z"/>
		<path d="M175.3,31.7c0,1.2,0.7,2.3,1.7,3c1,0.7,2.4,1,4.1,1c1.3,0.1,2.6-0.3,3.7-1c0.9-0.5,1.5-1.5,1.5-2.6c0-0.7-0.2-1.4-0.7-1.9
			c-0.5-0.5-1.1-0.9-1.8-1.1c-1-0.3-1.9-0.5-2.9-0.6c-1-0.2-2.1-0.4-3.1-0.6c-0.7-0.2-1.4-0.6-2-1.1c-0.6-0.6-0.9-1.4-0.8-2.2
			c0-0.8,0.2-1.5,0.7-2.2c0.5-0.7,1.2-1.2,2-1.5c2.3-0.9,4.9-0.7,7.1,0.5c1.1,0.7,1.8,1.9,1.9,3.2H186c-0.1-1.1-0.8-2.1-1.7-2.8
			c-2.3-1.3-5-1.3-7.3,0c-0.9,0.6-1.4,1.6-1.4,2.6c0,0.7,0.2,1.4,0.7,1.9c0.5,0.5,1.1,0.8,1.7,0.9c0.7,0.2,1.6,0.4,2.8,0.5
			c1.1,0.1,2.1,0.4,3.2,0.7c0.8,0.2,1.5,0.7,2.1,1.3c0.6,0.6,0.8,1.5,0.8,2.3c0,1.3-0.6,2.4-1.7,3.1c-1.2,0.8-2.7,1.2-4.2,1.2
			c-1.9,0-3.4-0.4-4.6-1.2c-1.1-0.8-1.8-2.1-1.8-3.5L175.3,31.7z"/>
	</g>
	<g id="posarelli">
		<path d="M9.3,14.5c1.2,0,2.5,0.2,3.6,0.8c1,0.5,1.8,1.3,2.4,2.2c0.6,1,0.9,2.2,0.8,3.3c0,1.2-0.3,2.3-0.8,3.3
			c-0.6,1-1.4,1.7-2.4,2.2c-1.1,0.5-2.3,0.8-3.6,0.8H2.9v9H1.2V14.5H9.3z M2.9,25.6h6.2c1.4,0.1,2.8-0.4,3.8-1.3
			c1-0.9,1.5-2.2,1.4-3.5c0.1-1.3-0.5-2.6-1.4-3.5c-1-0.9-2.4-1.4-3.8-1.3H2.9L2.9,25.6z"/>
		<path d="M20.3,35.3c-1.1-0.7-2.1-1.7-2.7-2.8c-0.7-1.3-1-2.7-1-4.2c0-1.4,0.3-2.9,1-4.2c0.6-1.2,1.5-2.2,2.7-2.8
			c2.4-1.4,5.4-1.4,7.8,0c1.1,0.7,2.1,1.7,2.7,2.8c0.7,1.3,1,2.7,1,4.2c0,1.4-0.3,2.9-1,4.2c-0.6,1.2-1.5,2.2-2.7,2.8
			C25.7,36.7,22.7,36.7,20.3,35.3L20.3,35.3z M27.3,34.1c0.9-0.6,1.6-1.4,2.1-2.4c0.5-1.1,0.8-2.2,0.7-3.4c0-1.2-0.2-2.4-0.7-3.4
			c-1.4-2.9-4.8-4.1-7.7-2.7c-1.2,0.6-2.1,1.5-2.7,2.7c-0.5,1.1-0.8,2.2-0.7,3.4c0,1.2,0.2,2.4,0.8,3.4c0.5,1,1.2,1.8,2.1,2.4
			c0.9,0.6,2,0.9,3.1,0.8C25.3,34.9,26.3,34.6,27.3,34.1z"/>
		<path d="M34.6,31.3c0,1.1,0.6,2.1,1.4,2.7c1.1,0.7,2.3,1,3.6,1c1.1,0,2.2-0.2,3.2-0.8c0.8-0.5,1.3-1.3,1.3-2.2
			c0-0.6-0.2-1.2-0.6-1.7c-0.4-0.4-1-0.7-1.6-0.9c-0.8-0.2-1.7-0.4-2.6-0.5c-1.1-0.1-2.2-0.4-3.2-0.6c-0.8-0.2-1.5-0.6-2-1.2
			c-0.6-0.6-0.9-1.5-0.8-2.3c0-0.8,0.3-1.6,0.8-2.3c0.5-0.7,1.3-1.3,2.1-1.6c0.9-0.4,2-0.6,3-0.6c1.5-0.1,3.1,0.3,4.4,1.2
			c1.1,0.8,1.8,2.1,1.9,3.4h-1.6c-0.1-1-0.7-1.8-1.5-2.4c-0.9-0.6-2-0.9-3.1-0.9c-1.1,0-2.2,0.2-3.2,0.8c-0.8,0.5-1.2,1.3-1.2,2.2
			c0,0.6,0.2,1.2,0.6,1.6c0.4,0.4,0.9,0.6,1.5,0.8c0.8,0.2,1.7,0.3,2.5,0.4c1.1,0.1,2.2,0.4,3.3,0.7c0.8,0.3,1.5,0.7,2.1,1.3
			c0.6,0.7,0.9,1.6,0.8,2.4c0,1.3-0.6,2.6-1.7,3.3c-1.3,0.8-2.8,1.3-4.3,1.2c-2,0-3.6-0.4-4.8-1.3c-1.2-0.9-1.9-2.2-1.9-3.7
			L34.6,31.3z"/>
		<path d="M62.3,34.7v1.5h-0.9c-0.7,0.1-1.5-0.2-2-0.7c-0.4-0.5-0.7-1.2-0.6-1.9v-0.7c-0.5,1-1.2,1.9-2.2,2.5
			c-1.1,0.7-2.5,1-3.8,0.9c-1.7,0-3-0.4-4-1.2c-1-0.8-1.6-2-1.5-3.3c-0.1-1.3,0.5-2.6,1.6-3.5c1.1-0.8,2.6-1.2,4.6-1.2h5.3v-1.4
			c0.1-1.1-0.4-2.3-1.2-3c-0.8-0.7-1.9-1.1-3.4-1.1c-1.1-0.1-2.2,0.3-3.2,0.9c-0.8,0.5-1.3,1.4-1.5,2.3h-1.6c0.2-1.3,0.9-2.6,2-3.4
			c1.1-0.8,2.6-1.2,4.4-1.2c2,0,3.5,0.5,4.5,1.5c1.1,1,1.6,2.4,1.6,4.1v7.3c0,0.4,0.1,0.8,0.4,1.1c0.3,0.3,0.6,0.4,1,0.4L62.3,34.7z
			 M58.8,28.5h-5.4c-1.4,0-2.5,0.3-3.3,0.8c-0.8,0.6-1.2,1.4-1.1,2.4c0,0.9,0.4,1.8,1.1,2.3c0.9,0.6,1.9,0.9,3,0.9
			c1.8,0,3.2-0.5,4.3-1.4c1-1,1.6-2.3,1.6-3.7L58.8,28.5L58.8,28.5z"/>
		<path d="M71.6,20.4V22h-1c-1.7,0-2.9,0.6-3.5,1.7c-0.7,1.4-1.1,2.9-1,4.5v8h-1.6V20.4h1.4l0.2,3.1c0.7-2,2.7-3.3,4.8-3.1H71.6z"/>
		<path d="M73.1,24.1c0.6-1.2,1.5-2.2,2.6-2.8c1.1-0.7,2.4-1,3.8-1c1.3,0,2.5,0.3,3.7,0.9c1.1,0.6,2,1.5,2.6,2.6c0.7,1.2,1,2.6,1,4
			c0,0.2,0,0.4,0,0.6H73.8c0,0.1,0,0.2,0,0.4c0,1.1,0.3,2.2,0.8,3.2c0.9,1.9,2.9,3,5,3c1.2,0,2.4-0.4,3.3-1.1
			c0.9-0.7,1.6-1.7,1.9-2.9h1.6c-0.3,1.5-1.2,2.9-2.4,3.9c-1.2,1-2.8,1.5-4.3,1.5c-1.4,0-2.7-0.3-3.9-1c-1.1-0.7-2.1-1.7-2.7-2.8
			c-0.6-1.3-1-2.7-0.9-4.2C72.1,26.8,72.4,25.4,73.1,24.1z M85,27c-0.1-1.7-0.7-3-1.7-3.9c-1.1-0.9-2.4-1.4-3.8-1.4
			c-0.9,0-1.8,0.2-2.6,0.7c-0.8,0.4-1.5,1.1-2,1.9C74.3,25,74,26,73.9,27L85,27z"/>
		<path d="M89.2,14.5h1.6v21.7h-1.6V14.5z"/>
		<path d="M93.8,14.5h1.6v21.7h-1.6V14.5z"/>
		<path d="M100.1,15c0.4,0.5,0.4,1.2,0,1.6c-0.4,0.4-1.1,0.4-1.6,0c-0.4-0.5-0.4-1.2,0-1.6C98.9,14.6,99.6,14.6,100.1,15z
			 M98.5,20.4h1.6v15.7h-1.6V20.4z"/>
	</g>
</g>
</svg>
