<?xml version="1.0" encoding="utf-8"?>
<!-- Generator: Adobe Illustrator 23.0.6, SVG Export Plug-In . SVG Version: 6.00 Build 0)  -->
<svg version="1.1" id="Layer_1" xmlns="http://www.w3.org/2000/svg" xmlns:xlink="http://www.w3.org/1999/xlink" x="0px" y="0px"
	 viewBox="0 0 224.662 47.004" style="enable-background:new 0 0 224.662 47.004;" xml:space="preserve">
<style type="text/css">
	.st0{fill:#FF0000;}
	.st1{fill:#FFFFFF;}
	.st2{fill:#FE0000;}
</style>
<g>
	<g>
		<circle class="st0" cx="23.502" cy="23.502" r="23.502"/>
		<g>
			<polygon class="st1" points="29.876,34.99 26.051,31.165 33.714,23.502 26.051,15.84 29.876,12.014 41.363,23.502 			"/>
			<polygon class="st1" points="17.128,34.99 20.953,31.165 13.29,23.502 20.953,15.84 17.128,12.014 5.64,23.502 			"/>
		</g>
	</g>
	<g>
		<path class="st2" d="M61.801,36.74V9.823h10.154c1.787,0,3.152,0.086,4.094,0.257c1.322,0.22,2.43,0.64,3.323,1.258
			s1.613,1.484,2.157,2.598c0.545,1.114,0.817,2.338,0.817,3.672c0,2.289-0.728,4.226-2.185,5.811
			c-1.457,1.585-4.088,2.378-7.895,2.378h-6.904V36.74H61.801z M65.363,22.621h6.959c2.301,0,3.935-0.428,4.902-1.285
			c0.967-0.857,1.451-2.063,1.451-3.617c0-1.126-0.285-2.09-0.854-2.892c-0.569-0.802-1.319-1.331-2.249-1.588
			c-0.6-0.159-1.708-0.239-3.323-0.239h-6.885V22.621z"/>
		<path class="st2" d="M86.423,36.74V17.241h2.974v2.956c0.759-1.383,1.46-2.295,2.102-2.736s1.35-0.661,2.121-0.661
			c1.114,0,2.246,0.355,3.397,1.065l-1.138,3.066c-0.808-0.477-1.616-0.716-2.424-0.716c-0.722,0-1.371,0.217-1.946,0.652
			c-0.575,0.435-0.985,1.037-1.23,1.809c-0.367,1.175-0.551,2.46-0.551,3.856V36.74H86.423z"/>
		<path class="st2" d="M99,13.624V9.823h3.305v3.801H99z M99,36.74V17.241h3.305V36.74H99z"/>
		<path class="st2" d="M120.06,29.598l3.25,0.422c-0.355,2.24-1.264,3.993-2.727,5.26c-1.463,1.267-3.259,1.9-5.389,1.9
			c-2.668,0-4.814-0.872-6.435-2.616c-1.622-1.744-2.433-4.244-2.433-7.5c0-2.105,0.349-3.948,1.047-5.527
			c0.698-1.579,1.76-2.763,3.186-3.553c1.426-0.79,2.978-1.184,4.654-1.184c2.118,0,3.85,0.536,5.196,1.607
			c1.346,1.071,2.209,2.592,2.589,4.563l-3.213,0.496c-0.306-1.31-0.848-2.295-1.625-2.956s-1.717-0.991-2.818-0.991
			c-1.665,0-3.017,0.597-4.058,1.79c-1.04,1.193-1.561,3.082-1.561,5.664c0,2.619,0.502,4.523,1.506,5.71
			c1.004,1.187,2.313,1.781,3.929,1.781c1.298,0,2.381-0.398,3.25-1.193C119.277,32.474,119.827,31.25,120.06,29.598z"/>
		<path class="st2" d="M139.486,30.461l3.415,0.422c-0.539,1.995-1.536,3.544-2.993,4.645c-1.457,1.102-3.317,1.652-5.582,1.652
			c-2.852,0-5.113-0.878-6.784-2.635c-1.671-1.757-2.506-4.22-2.506-7.39c0-3.28,0.845-5.827,2.534-7.638
			c1.689-1.812,3.88-2.717,6.573-2.717c2.607,0,4.737,0.887,6.39,2.662c1.652,1.775,2.479,4.272,2.479,7.491
			c0,0.196-0.006,0.49-0.018,0.881h-14.542c0.122,2.142,0.728,3.782,1.818,4.921c1.089,1.138,2.448,1.708,4.076,1.708
			c1.212,0,2.246-0.318,3.103-0.955C138.305,32.872,138.984,31.856,139.486,30.461z M128.635,25.118h10.888
			c-0.147-1.64-0.563-2.87-1.249-3.691c-1.053-1.273-2.418-1.91-4.094-1.91c-1.518,0-2.794,0.508-3.828,1.524
			C129.317,22.057,128.745,23.416,128.635,25.118z"/>
		<path d="M147.326,36.74V9.823h3.562v23.741h13.257v3.176H147.326z"/>
		<path d="M180.688,34.335c-1.224,1.04-2.402,1.775-3.534,2.203c-1.132,0.428-2.347,0.643-3.645,0.643
			c-2.142,0-3.788-0.523-4.939-1.57c-1.151-1.047-1.726-2.384-1.726-4.012c0-0.955,0.217-1.827,0.652-2.616s1.004-1.423,1.708-1.9
			c0.704-0.477,1.496-0.838,2.378-1.083c0.649-0.171,1.628-0.337,2.938-0.496c2.668-0.318,4.633-0.698,5.894-1.138
			c0.012-0.453,0.018-0.741,0.018-0.863c0-1.346-0.312-2.295-0.936-2.846c-0.845-0.747-2.099-1.12-3.764-1.12
			c-1.555,0-2.702,0.272-3.443,0.817c-0.741,0.545-1.288,1.509-1.643,2.892l-3.232-0.441c0.294-1.383,0.777-2.5,1.451-3.351
			s1.646-1.506,2.919-1.965c1.273-0.459,2.748-0.689,4.425-0.689c1.665,0,3.017,0.196,4.058,0.588
			c1.04,0.392,1.805,0.884,2.295,1.478c0.49,0.594,0.832,1.343,1.028,2.249c0.11,0.563,0.165,1.579,0.165,3.048v4.407
			c0,3.072,0.07,5.016,0.211,5.83c0.141,0.814,0.419,1.594,0.835,2.341h-3.452C181.006,36.055,180.786,35.253,180.688,34.335z
			 M180.412,26.954c-1.2,0.49-2.999,0.906-5.398,1.249c-1.359,0.196-2.32,0.416-2.883,0.661c-0.563,0.245-0.998,0.603-1.304,1.074
			s-0.459,0.995-0.459,1.57c0,0.881,0.334,1.616,1.001,2.203s1.643,0.881,2.929,0.881c1.273,0,2.405-0.278,3.397-0.835
			s1.72-1.319,2.185-2.286c0.355-0.747,0.532-1.848,0.532-3.305V26.954z"/>
		<path d="M191.924,36.74h-3.066V9.823h3.305v9.603c1.395-1.75,3.176-2.626,5.343-2.626c1.2,0,2.335,0.242,3.406,0.725
			c1.071,0.484,1.952,1.163,2.644,2.038s1.233,1.931,1.625,3.167c0.392,1.236,0.588,2.558,0.588,3.966
			c0,3.342-0.826,5.924-2.479,7.748c-1.652,1.824-3.635,2.736-5.949,2.736c-2.301,0-4.107-0.961-5.416-2.883V36.74z M191.888,26.844
			c0,2.338,0.318,4.027,0.955,5.068c1.04,1.701,2.448,2.552,4.223,2.552c1.444,0,2.693-0.627,3.746-1.882s1.579-3.124,1.579-5.609
			c0-2.546-0.505-4.425-1.515-5.637c-1.01-1.212-2.231-1.818-3.663-1.818c-1.444,0-2.693,0.627-3.746,1.882
			S191.888,24.469,191.888,26.844z"/>
		<path d="M208.468,30.92l3.268-0.514c0.184,1.31,0.695,2.313,1.533,3.011c0.838,0.698,2.011,1.047,3.516,1.047
			c1.518,0,2.644-0.309,3.378-0.927c0.734-0.618,1.102-1.343,1.102-2.176c0-0.747-0.324-1.334-0.973-1.763
			c-0.453-0.294-1.579-0.667-3.378-1.12c-2.424-0.612-4.104-1.141-5.04-1.588c-0.936-0.447-1.646-1.065-2.13-1.854
			s-0.725-1.662-0.725-2.616c0-0.869,0.199-1.674,0.597-2.414c0.398-0.741,0.939-1.356,1.625-1.845
			c0.514-0.379,1.215-0.701,2.102-0.964s1.839-0.395,2.855-0.395c1.53,0,2.873,0.22,4.03,0.661s2.011,1.037,2.561,1.79
			c0.551,0.753,0.93,1.76,1.138,3.02l-3.232,0.441c-0.147-1.004-0.572-1.787-1.276-2.35s-1.698-0.845-2.984-0.845
			c-1.518,0-2.601,0.251-3.25,0.753c-0.649,0.502-0.973,1.089-0.973,1.763c0,0.428,0.135,0.814,0.404,1.157
			c0.269,0.355,0.692,0.649,1.267,0.881c0.33,0.122,1.304,0.404,2.919,0.845c2.338,0.624,3.969,1.135,4.893,1.533
			c0.924,0.398,1.649,0.976,2.176,1.735c0.526,0.759,0.79,1.701,0.79,2.828c0,1.102-0.321,2.139-0.964,3.112
			c-0.643,0.973-1.57,1.726-2.782,2.258c-1.212,0.532-2.583,0.799-4.113,0.799c-2.534,0-4.465-0.526-5.793-1.579
			C209.682,34.549,208.835,32.988,208.468,30.92z"/>
	</g>
</g>
</svg>
