<?xml version="1.0" encoding="utf-8"?>
<!-- Generator: Adobe Illustrator 23.0.3, SVG Export Plug-In . SVG Version: 6.00 Build 0)  -->
<svg version="1.2" baseProfile="tiny" id="Layer_1" xmlns="http://www.w3.org/2000/svg" xmlns:xlink="http://www.w3.org/1999/xlink"
	 x="0px" y="0px" viewBox="0 0 293.7 42" xml:space="preserve">
<g>
	<g>
		<path fill="#C6C39A" d="M44.1,27.3h4c0,0,2.3,0,0,4s-2.9,5.2-2.9,5.2s1.3-5.7-0.6-6.4C42,29.2,42.4,27.3,44.1,27.3z"/>
		<path fill="#C6C39A" d="M38.5,36.5c-2.9-3.1-4.8-5.4-7.6-6.1c3.8-3.2,6.2-7.8,6.2-13C37.1,7.8,28.8,0,18.6,0C8.3,0,0,7.8,0,17.4
			s8.3,17.4,18.6,17.4c1.8,0,3.6-0.3,5.3-0.7c0.2-0.1,0.8-0.1,1-0.1c1.2,0.2,4,1,6.1,3.6c2.7,3.5,7.6,5.9,10.5,3.2
			c2.9-2.7,3.2-3.5,3.2-3.5S41.6,39.8,38.5,36.5z M18.2,33c-6.1-0.3-9.8-7-9.8-15.7c0-8.7,2.9-15.7,9.8-15.7c6.9,0,9.8,7,9.8,15.7
			C28,26,24.4,33.3,18.2,33z"/>
	</g>
	<g>
		<path fill="#C6C39A" d="M68.3,32.6c-1.6,0-3-0.3-4.3-1c-1.3-0.7-2.4-1.6-3.4-2.7c-0.9-1.1-1.6-2.4-2.1-3.8
			c-0.5-1.4-0.7-2.9-0.7-4.4c0-1.6,0.3-3.1,0.9-4.5c0.6-1.4,1.4-2.7,2.4-3.8c1-1.1,2.2-2,3.5-2.6c1.3-0.6,2.8-1,4.3-1
			c0.9,0,1.8,0.1,2.6,0.4c0.9,0.3,1.7,0.6,2.4,1.1c0.8,0.5,1.5,1,2.1,1.6c0.6,0.6,1.2,1.3,1.6,2V9.3h1.4v29.9c0,0.6,0.3,1,0.8,1v1.4
			c-0.1,0-0.2,0-0.4,0c-0.5,0-1-0.2-1.3-0.6c-0.4-0.4-0.6-0.9-0.6-1.4V27.1c-1.2,1.8-2.6,3.2-4.2,4.1C71.7,32.2,70,32.6,68.3,32.6z
			 M68.5,31.2c1,0,2-0.2,2.9-0.5c0.9-0.3,1.7-0.8,2.5-1.4c0.8-0.6,1.4-1.2,2-2c0.6-0.8,1.1-1.6,1.5-2.4V17c-0.1-0.9-0.5-1.7-1-2.5
			c-0.6-0.8-1.2-1.5-2.1-2.1c-0.8-0.6-1.7-1.1-2.7-1.5c-1-0.4-1.9-0.6-2.9-0.6c-1.4,0-2.7,0.3-3.9,0.9c-1.2,0.6-2.2,1.4-3,2.4
			c-0.9,1-1.5,2.1-2,3.4c-0.5,1.3-0.7,2.5-0.7,3.8c0,1.4,0.2,2.7,0.7,3.9c0.5,1.3,1.1,2.4,1.9,3.3c0.8,1,1.8,1.7,3,2.3
			C65.9,30.9,67.2,31.2,68.5,31.2z"/>
		<path fill="#C6C39A" d="M93.2,32.6c-2.4,0-4.2-0.9-5.5-2.6c-1.2-1.7-1.9-4.3-1.9-7.7V9.3h1.5v12.9c0,6.1,2,9.1,6.1,9.1
			c1,0,2-0.2,3-0.6c1-0.4,1.9-0.9,2.8-1.5c0.8-0.6,1.6-1.4,2.2-2.3c0.6-0.9,1.1-1.9,1.5-3V9.3h1.5v20.6c0,0.6,0.3,1,0.8,1v1.4
			c-0.1,0-0.3,0-0.4,0c-0.5,0-0.9-0.2-1.2-0.6c-0.4-0.4-0.5-0.8-0.5-1.3v-3.8c-1,1.9-2.4,3.4-4.1,4.5C97.2,32.1,95.2,32.6,93.2,32.6
			z"/>
		<path fill="#C6C39A" d="M117.3,32.6c-1.1,0-2-0.2-3-0.6c-0.9-0.4-1.7-0.9-2.4-1.5c-0.7-0.6-1.2-1.4-1.6-2.2
			c-0.4-0.9-0.6-1.8-0.6-2.8c0-1,0.2-1.9,0.7-2.7c0.5-0.8,1.1-1.5,2-2.1c0.8-0.6,1.8-1,3-1.4c1.2-0.3,2.4-0.5,3.8-0.5
			c1.3,0,2.6,0.1,3.9,0.3c1.3,0.2,2.5,0.5,3.6,0.9v-2.5c0-2.3-0.7-4.1-2-5.5c-1.3-1.4-3.1-2.1-5.3-2.1c-1.1,0-2.3,0.2-3.6,0.7
			c-1.3,0.5-2.5,1.2-3.8,2.1l-0.7-1.1c2.9-2,5.7-3,8.2-3c2.7,0,4.8,0.8,6.3,2.4c1.5,1.6,2.3,3.8,2.3,6.5v12c0,0.6,0.3,1,0.8,1v1.4
			c-0.1,0-0.2,0-0.2,0s-0.1,0-0.2,0c-0.5,0-0.9-0.2-1.3-0.6c-0.3-0.4-0.5-0.8-0.5-1.3v-2c-1.1,1.4-2.4,2.4-4.1,3.2
			C121,32.3,119.2,32.6,117.3,32.6z M117.4,31.4c1.1,0,2.2-0.1,3.3-0.4c1.1-0.3,2.1-0.7,3-1.2c0.9-0.5,1.6-1.1,2.2-1.8
			c0.6-0.7,0.8-1.4,0.8-2.2v-4.3c-2.3-0.9-4.7-1.3-7.3-1.3c-1.2,0-2.3,0.1-3.3,0.4c-1,0.3-1.9,0.6-2.6,1.1c-0.7,0.5-1.3,1-1.7,1.7
			c-0.4,0.7-0.6,1.4-0.6,2.2c0,0.8,0.2,1.6,0.5,2.3c0.3,0.7,0.8,1.3,1.3,1.9c0.6,0.5,1.2,0.9,2,1.2
			C115.7,31.2,116.6,31.4,117.4,31.4z"/>
		<path fill="#C6C39A" d="M135.4,0h1.5v28.3c0,0.9,0.3,1.5,0.8,2c0.5,0.5,1.2,0.8,2.1,0.8c0.3,0,0.7,0,1.2-0.1
			c0.5-0.1,0.9-0.2,1.3-0.3l0.4,1.2c-0.4,0.1-1,0.3-1.7,0.4c-0.7,0.1-1.2,0.2-1.7,0.2c-1.1,0-2-0.3-2.7-1c-0.7-0.7-1-1.6-1-2.8V0z"
			/>
		<path fill="#C6C39A" d="M146,3.7V0h1.5v3.7H146z M146,32.2V9.3h1.5v22.9H146z"/>
		<path fill="#C6C39A" d="M164.3,31.1c-0.1,0-0.2,0.1-0.4,0.2c-0.2,0.1-0.6,0.3-0.9,0.4c-0.4,0.2-0.9,0.3-1.4,0.4
			c-0.5,0.1-1.1,0.2-1.7,0.2c-1.1,0-2.1-0.3-3-1c-0.8-0.7-1.3-1.6-1.3-2.8v-18h-3.3V9.3h3.3V1.4h1.5v7.9h5.4v1.3h-5.4v17.8
			c0.1,0.9,0.4,1.5,1,1.9c0.6,0.4,1.3,0.7,2,0.7c0.5,0,0.9-0.1,1.3-0.2c0.4-0.1,0.8-0.2,1.1-0.4c0.3-0.1,0.6-0.3,0.8-0.4
			c0.2-0.1,0.3-0.2,0.4-0.2L164.3,31.1z"/>
		<path fill="#C6C39A" d="M170,40.6c1,0,1.7-0.1,2.1-0.3c0.1-0.1,0.3-0.2,0.5-0.5c0.2-0.2,0.4-0.6,0.6-1.2c0.3-0.6,0.6-1.4,1.1-2.4
			s1-2.4,1.7-4L165.5,9.3h1.6l9.7,21.4l9.1-21.4h1.5L174.3,40c-0.4,1-1.2,1.6-2.4,1.9c-0.3,0.1-0.6,0.1-0.9,0.1c-0.3,0-0.6,0-0.9,0
			V40.6z"/>
		<path fill="#C6C39A" d="M208.3,32.2l-9.8-22.9h1.6l9,21.2l9-21.2h1.5l-9.8,22.9H208.3z"/>
		<path fill="#C6C39A" d="M224.2,3.7V0h1.5v3.7H224.2z M224.2,32.2V9.3h1.5v22.9H224.2z"/>
		<path fill="#C6C39A" d="M233.1,0h1.5v28.3c0,0.9,0.3,1.5,0.8,2c0.5,0.5,1.2,0.8,2.1,0.8c0.3,0,0.7,0,1.2-0.1
			c0.5-0.1,0.9-0.2,1.3-0.3l0.4,1.2c-0.4,0.1-1,0.3-1.7,0.4c-0.7,0.1-1.2,0.2-1.7,0.2c-1.1,0-2-0.3-2.7-1c-0.7-0.7-1-1.6-1-2.8V0z"
			/>
		<path fill="#C6C39A" d="M244.1,0h1.5v28.3c0,0.9,0.3,1.5,0.8,2c0.5,0.5,1.2,0.8,2.1,0.8c0.3,0,0.7,0,1.2-0.1
			c0.5-0.1,0.9-0.2,1.3-0.3l0.4,1.2c-0.4,0.1-1,0.3-1.7,0.4c-0.7,0.1-1.2,0.2-1.7,0.2c-1.1,0-2-0.3-2.7-1c-0.7-0.7-1-1.6-1-2.8V0z"
			/>
		<path fill="#C6C39A" d="M260.3,32.6c-1.1,0-2-0.2-3-0.6c-0.9-0.4-1.7-0.9-2.4-1.5c-0.7-0.6-1.2-1.4-1.6-2.2
			c-0.4-0.9-0.6-1.8-0.6-2.8c0-1,0.2-1.9,0.7-2.7c0.5-0.8,1.1-1.5,2-2.1c0.8-0.6,1.8-1,3-1.4c1.2-0.3,2.4-0.5,3.8-0.5
			c1.3,0,2.6,0.1,3.9,0.3c1.3,0.2,2.5,0.5,3.6,0.9v-2.5c0-2.3-0.7-4.1-2-5.5c-1.3-1.4-3.1-2.1-5.3-2.1c-1.1,0-2.3,0.2-3.6,0.7
			c-1.3,0.5-2.5,1.2-3.8,2.1l-0.7-1.1c2.9-2,5.7-3,8.2-3c2.7,0,4.8,0.8,6.3,2.4c1.5,1.6,2.3,3.8,2.3,6.5v12c0,0.6,0.3,1,0.8,1v1.4
			c-0.1,0-0.2,0-0.2,0c-0.1,0-0.1,0-0.2,0c-0.5,0-0.9-0.2-1.3-0.6c-0.3-0.4-0.5-0.8-0.5-1.3v-2c-1.1,1.4-2.4,2.4-4.1,3.2
			C264,32.3,262.2,32.6,260.3,32.6z M260.5,31.4c1.1,0,2.2-0.1,3.3-0.4c1.1-0.3,2.1-0.7,3-1.2c0.9-0.5,1.6-1.1,2.2-1.8
			c0.6-0.7,0.8-1.4,0.8-2.2v-4.3c-2.3-0.9-4.7-1.3-7.3-1.3c-1.2,0-2.3,0.1-3.3,0.4c-1,0.3-1.9,0.6-2.6,1.1c-0.7,0.5-1.3,1-1.7,1.7
			c-0.4,0.7-0.6,1.4-0.6,2.2c0,0.8,0.2,1.6,0.5,2.3c0.3,0.7,0.8,1.3,1.3,1.9s1.2,0.9,2,1.2C258.8,31.2,259.6,31.4,260.5,31.4z"/>
		<path fill="#C6C39A" d="M285.1,32.6c-1.8,0-3.4-0.3-4.9-0.9c-1.5-0.6-2.9-1.5-4.1-2.7l0.8-1c1.2,1.1,2.5,2,3.8,2.5
			c1.3,0.6,2.7,0.8,4.3,0.8c2.1,0,3.9-0.5,5.2-1.4c1.3-0.9,2-2.2,2-3.8c0-0.8-0.2-1.4-0.5-1.9c-0.3-0.5-0.8-1-1.5-1.3
			c-0.6-0.4-1.4-0.7-2.4-1c-1-0.3-2.1-0.6-3.3-0.9c-1.3-0.3-2.4-0.6-3.3-0.9c-0.9-0.3-1.7-0.6-2.3-1c-0.6-0.4-1.1-0.9-1.4-1.5
			c-0.3-0.6-0.4-1.3-0.4-2.3c0-1.1,0.2-2.1,0.7-3c0.4-0.8,1-1.5,1.8-2.1c0.7-0.5,1.6-0.9,2.6-1.2c1-0.3,2-0.4,3.2-0.4
			c1.9,0,3.4,0.3,4.8,0.9c1.3,0.6,2.3,1.4,2.9,2.3l-1,0.8c-0.6-0.9-1.6-1.6-2.8-2c-1.3-0.5-2.6-0.7-4-0.7c-0.9,0-1.8,0.1-2.6,0.3
			c-0.8,0.2-1.5,0.5-2.1,0.9c-0.6,0.4-1.1,1-1.4,1.6c-0.4,0.6-0.5,1.4-0.5,2.3c0,0.7,0.1,1.3,0.4,1.8c0.2,0.5,0.6,0.9,1.1,1.2
			c0.5,0.3,1.2,0.6,1.9,0.8c0.8,0.2,1.7,0.5,2.8,0.7c1.4,0.3,2.7,0.6,3.8,1c1.1,0.3,2,0.7,2.8,1.1c0.8,0.4,1.3,1,1.7,1.6
			c0.4,0.6,0.6,1.5,0.6,2.5c0,1-0.2,1.9-0.6,2.8c-0.4,0.8-1,1.5-1.7,2.1c-0.8,0.6-1.7,1-2.7,1.3C287.6,32.5,286.4,32.6,285.1,32.6z"
			/>
	</g>
</g>
</svg>
