<?xml version="1.0" encoding="utf-8"?>
<!-- Generator: Adobe Illustrator 25.0.1, SVG Export Plug-In . SVG Version: 6.00 Build 0)  -->
<svg version="1.1" id="Layer_1" xmlns="http://www.w3.org/2000/svg" xmlns:xlink="http://www.w3.org/1999/xlink" x="0px" y="0px"
	 viewBox="0 0 202.58 42" style="enable-background:new 0 0 202.58 42;" xml:space="preserve">
<style type="text/css">
	.st0{fill:#D20000;}
</style>
<g>
	<g>
		<path class="st0" d="M20.55,38.61l-4.32-13.72h-3.09L9.23,38.61H2.19L12.22,3.39h13.42c4.09,0,6.92,1,8.5,2.99
			c1.58,2,1.9,4.62,0.97,7.88c-0.76,2.66-2.13,4.89-4.12,6.68c-1.99,1.8-4.47,2.99-7.43,3.59l4.77,14.07H20.55z M14.51,20.05h5.79
			c4.02,0,6.54-1.78,7.55-5.34c0.48-1.7,0.37-3.02-0.34-3.96s-2.1-1.42-4.16-1.42h-5.79L14.51,20.05z"/>
		<path class="st0" d="M62.21,26.14H41.96c-0.6,2.46-0.45,4.27,0.45,5.44c0.9,1.16,2.26,1.75,4.09,1.75c1.63,0,3.1-0.4,4.41-1.2
			c1.31-0.8,2.31-1.88,2.99-3.24h7.43c-0.92,1.93-2.19,3.66-3.82,5.19s-3.51,2.73-5.64,3.59c-2.13,0.87-4.34,1.3-6.63,1.3
			c-2.69,0-4.92-0.57-6.69-1.72c-1.77-1.15-2.93-2.78-3.49-4.91c-0.56-2.13-0.42-4.64,0.4-7.53c0.82-2.89,2.12-5.41,3.9-7.56
			c1.77-2.14,3.87-3.78,6.29-4.91c2.42-1.13,4.97-1.7,7.67-1.7c2.73,0,4.95,0.57,6.67,1.7c1.72,1.13,2.86,2.69,3.41,4.66
			c0.55,1.98,0.47,4.23-0.25,6.76C62.94,24.44,62.63,25.24,62.21,26.14z M55.95,17.91c-0.95-1.16-2.35-1.75-4.22-1.75
			c-1.9,0-3.66,0.58-5.29,1.75c-1.63,1.16-2.83,2.88-3.61,5.14h13.42C57,20.78,56.89,19.07,55.95,17.91z"/>
		<path class="st0" d="M77.92,31.57l12.85-20.6h7.48L80.15,38.61h-8.58l-2.36-27.63h7.53L77.92,31.57z"/>
		<path class="st0" d="M124.1,38.61h-7.03l-8.95-23.94l-6.82,23.94h-7.03L104.3,3.39h7.03l8.89,24.14l6.87-24.14h7.03L124.1,38.61z"
			/>
		<path class="st0" d="M166.69,6.21c2.22,2.11,3.23,4.96,3,8.55h-7.38c-0.24-1.6-0.99-2.87-2.23-3.82
			c-1.24-0.95-2.89-1.42-4.96-1.42c-2.03,0-3.96,0.47-5.78,1.4c-1.83,0.93-3.42,2.26-4.78,3.99s-2.37,3.76-3.03,6.09
			c-1.05,3.69-0.88,6.57,0.51,8.63c1.39,2.06,3.8,3.09,7.22,3.09c2.53,0,4.91-0.75,7.15-2.24c2.24-1.5,4-3.57,5.29-6.24h-11.92
			l1.43-5.04h17.81l-1.93,6.78c-1.16,2.33-2.75,4.47-4.75,6.43c-2,1.96-4.35,3.53-7.03,4.71c-2.68,1.18-5.53,1.77-8.56,1.77
			c-3.46,0-6.29-0.76-8.51-2.27c-2.21-1.51-3.66-3.62-4.33-6.33s-0.51-5.81,0.48-9.3c0.99-3.49,2.6-6.59,4.82-9.3
			c2.22-2.71,4.86-4.83,7.92-6.36c3.06-1.53,6.32-2.3,9.78-2.3C161.21,3.04,164.47,4.1,166.69,6.21z"/>
		<path class="st0" d="M196.3,12.32c1.82,1.13,3.04,2.77,3.66,4.91s0.52,4.66-0.3,7.56c-0.82,2.89-2.16,5.4-3.99,7.53
			c-1.84,2.13-3.99,3.77-6.46,4.91c-2.47,1.15-5.05,1.72-7.75,1.72c-2.69,0-4.95-0.57-6.77-1.72c-1.82-1.15-3.04-2.78-3.66-4.91
			c-0.63-2.13-0.53-4.64,0.3-7.53c0.82-2.89,2.15-5.41,4-7.56c1.84-2.14,3.99-3.78,6.46-4.91c2.46-1.13,5.04-1.7,7.74-1.7
			C192.22,10.63,194.47,11.19,196.3,12.32z M182.21,18.78c-1.76,1.38-3.01,3.38-3.76,6.01c-0.75,2.63-0.64,4.63,0.33,6.01
			c0.97,1.38,2.44,2.07,4.4,2.07c1.96,0,3.82-0.69,5.58-2.07c1.75-1.38,3.01-3.38,3.76-6.01c0.75-2.63,0.64-4.63-0.33-6.01
			c-0.97-1.38-2.44-2.07-4.4-2.07C185.83,16.71,183.97,17.4,182.21,18.78z"/>
	</g>
</g>
</svg>
