<?xml version="1.0" encoding="utf-8"?>
<!-- Generator: Adobe Illustrator 24.3.0, SVG Export Plug-In . SVG Version: 6.00 Build 0)  -->
<svg version="1.1" id="Layer_1" xmlns="http://www.w3.org/2000/svg" xmlns:xlink="http://www.w3.org/1999/xlink" x="0px" y="0px"
	 viewBox="0 0 364.52 42" style="enable-background:new 0 0 364.52 42;" xml:space="preserve">
<style type="text/css">
	.st0{fill:#F68A3D;}
</style>
<g>
	<g>
		<path class="st0" d="M149.25,38.75V3.39h9.57c3.88,0,6.66,0.83,8.6,2.36c1.94,1.53,2.77,3.74,2.77,6.52
			c0,0.97-0.14,1.94-0.55,2.91c-0.42,0.97-0.83,1.8-1.53,2.5c-0.69,0.69-1.53,1.39-2.36,1.94c-0.97,0.55-1.94,0.97-3.19,1.11
			c1.53,0.14,2.77,0.42,3.88,0.97c1.11,0.42,2.08,1.11,2.91,1.8c0.83,0.69,1.39,1.53,1.8,2.64c0.42,0.97,0.69,2.08,0.69,3.33
			c0,1.53-0.28,2.91-0.83,4.02c-0.55,1.11-1.25,2.08-2.22,2.91c-0.97,0.83-2.22,1.39-3.61,1.8c-1.39,0.42-3.05,0.69-4.99,0.69
			h-10.96V38.75z M150.64,20.31h8.32c1.8,0,3.33-0.28,4.58-0.69s2.22-1.11,3.05-1.8c0.83-0.69,1.39-1.66,1.8-2.5
			c0.42-0.97,0.55-1.94,0.55-2.77c0-2.5-0.83-4.44-2.5-5.83s-4.16-2.08-7.63-2.08h-8.18V20.31z M150.64,21.28V37.5h9.57
			c3.33,0,5.83-0.69,7.63-2.08s2.64-3.47,2.64-6.24c0-1.25-0.28-2.36-0.69-3.33c-0.42-0.97-1.11-1.8-2.08-2.5
			c-0.83-0.69-1.94-1.25-3.19-1.53c-1.25-0.42-2.64-0.55-4.3-0.55H150.64z"/>
		<path class="st0" d="M210.14,21c0,2.77-0.42,5.27-1.25,7.49s-1.94,4.16-3.33,5.69c-1.53,1.53-3.19,2.77-5.27,3.61
			c-2.08,0.83-4.3,1.25-6.8,1.25c-2.5,0-4.72-0.42-6.66-1.25c-2.08-0.83-3.74-2.08-5.27-3.61s-2.64-3.47-3.33-5.69
			c-0.83-2.22-1.25-4.72-1.25-7.49s0.42-5.27,1.25-7.49c0.83-2.22,1.94-4.16,3.33-5.69c1.53-1.53,3.19-2.77,5.27-3.61
			c2.08-0.83,4.3-1.25,6.66-1.25c2.5,0,4.72,0.42,6.8,1.25c2.08,0.83,3.74,2.08,5.27,3.61c1.53,1.53,2.64,3.47,3.33,5.69
			C209.72,15.73,210.14,18.23,210.14,21z M208.75,21c0-2.64-0.42-4.99-1.11-7.07s-1.8-3.88-3.05-5.27
			c-1.25-1.39-2.91-2.64-4.72-3.33c-1.8-0.83-3.88-1.11-6.1-1.11c-2.22,0-4.3,0.42-6.1,1.11c-1.8,0.83-3.47,1.94-4.72,3.33
			c-1.39,1.53-2.36,3.19-3.05,5.27c-0.69,2.08-1.11,4.44-1.11,7.07s0.42,4.99,1.11,7.07c0.69,2.08,1.8,3.88,3.05,5.27
			c1.39,1.39,2.91,2.5,4.72,3.33c1.8,0.83,3.88,1.11,6.1,1.11s4.3-0.42,6.1-1.11c1.8-0.83,3.47-1.94,4.72-3.33
			c1.39-1.39,2.36-3.19,3.05-5.27S208.75,23.64,208.75,21z"/>
		<path class="st0" d="M248.56,21c0,2.77-0.42,5.27-1.25,7.49c-0.83,2.22-1.94,4.16-3.33,5.69c-1.53,1.53-3.19,2.77-5.27,3.61
			s-4.3,1.25-6.8,1.25c-2.5,0-4.72-0.42-6.66-1.25c-2.08-0.83-3.74-2.08-5.27-3.61c-1.53-1.53-2.64-3.47-3.33-5.69
			c-0.83-2.22-1.25-4.72-1.25-7.49s0.42-5.27,1.25-7.49c0.83-2.22,1.94-4.16,3.33-5.69c1.53-1.53,3.19-2.77,5.27-3.61
			s4.3-1.25,6.66-1.25c2.5,0,4.72,0.42,6.8,1.25s3.74,2.08,5.27,3.61c1.53,1.53,2.64,3.47,3.33,5.69
			C248.14,15.73,248.56,18.23,248.56,21z M247.03,21c0-2.64-0.42-4.99-1.11-7.07s-1.8-3.88-3.05-5.27
			c-1.25-1.39-2.91-2.64-4.72-3.33c-1.8-0.83-3.88-1.11-6.1-1.11c-2.22,0-4.3,0.42-6.1,1.11c-1.8,0.83-3.47,1.94-4.72,3.33
			c-1.39,1.53-2.36,3.19-3.05,5.27c-0.69,2.08-1.11,4.44-1.11,7.07s0.42,4.99,1.11,7.07c0.69,2.08,1.8,3.88,3.05,5.27
			c1.39,1.39,2.91,2.5,4.72,3.33c1.8,0.83,3.88,1.11,6.1,1.11s4.3-0.42,6.1-1.11c1.8-0.83,3.47-1.94,4.72-3.33
			c1.39-1.39,2.36-3.19,3.05-5.27S247.03,23.64,247.03,21z"/>
		<path class="st0" d="M257.43,20.17h2.22c0.28,0,0.55,0,0.83,0s0.42,0,0.69-0.14c0.14,0,0.42-0.14,0.55-0.28
			c0.14-0.14,0.28-0.28,0.55-0.42l15.53-15.4c0.14-0.14,0.42-0.28,0.55-0.42c0.14-0.14,0.42-0.14,0.55-0.14h0.97l-16.37,16.23
			c-0.28,0.28-0.55,0.55-0.83,0.69c-0.28,0.14-0.42,0.28-0.83,0.42c0.28,0.14,0.55,0.14,0.83,0.42c0.28,0.14,0.42,0.42,0.69,0.69
			l17.48,17.06h-0.97c-0.28,0-0.55,0-0.69-0.14s-0.28-0.14-0.42-0.42l-16.37-15.95c-0.14-0.14-0.42-0.28-0.55-0.42
			c-0.14-0.14-0.28-0.28-0.55-0.28c-0.14-0.14-0.42-0.14-0.69-0.14c-0.28,0-0.55,0-0.97,0h-2.36v17.48h-1.39V3.39h1.39v16.78H257.43
			z"/>
		<path class="st0" d="M287.39,38.75H286V3.39h1.39V38.75z"/>
		<path class="st0" d="M298.35,3.39c0.14,0,0.14,0.14,0.28,0.28l24.13,32.73c0-0.14,0-0.28,0-0.42s0-0.28,0-0.42V3.39H324v35.37
			h-0.55c-0.28,0-0.42-0.14-0.55-0.28L298.62,5.74c0,0.14,0,0.28,0,0.42c0,0.14,0,0.28,0,0.42v32.18h-1.25V3.39h0.69
			C298.21,3.39,298.21,3.39,298.35,3.39z"/>
		<path class="st0" d="M356.32,38.06c-2.08,0.69-4.3,1.11-6.8,1.11c-2.77,0-5.27-0.42-7.49-1.25c-2.22-0.83-4.16-2.08-5.69-3.61
			c-1.53-1.53-2.77-3.47-3.61-5.69c-0.83-2.22-1.25-4.72-1.25-7.49s0.42-5.27,1.25-7.49c0.83-2.22,1.94-4.16,3.47-5.69
			c1.53-1.53,3.33-2.77,5.55-3.61s4.58-1.25,7.35-1.25c1.39,0,2.5,0.14,3.61,0.28c1.11,0.14,2.08,0.42,3.05,0.83
			c0.97,0.28,1.8,0.83,2.64,1.25c0.83,0.55,1.66,1.11,2.5,1.8l-0.42,0.55c-0.14,0.14-0.28,0.28-0.55,0.14
			c-0.14,0-0.42-0.28-0.97-0.69c-0.42-0.42-1.11-0.83-1.94-1.25c-0.83-0.42-1.94-0.83-3.33-1.25c-1.39-0.42-2.91-0.55-4.85-0.55
			c-2.5,0-4.72,0.42-6.66,1.11c-1.94,0.83-3.74,1.94-5.13,3.33c-1.39,1.53-2.5,3.19-3.19,5.27c-0.69,2.08-1.11,4.44-1.11,7.07
			c0,2.64,0.42,4.99,1.11,7.07c0.69,2.08,1.8,3.88,3.19,5.41c1.39,1.53,3.19,2.64,5.13,3.33c2.08,0.83,4.3,1.11,6.93,1.11
			c1.11,0,2.22-0.14,3.19-0.28c0.97-0.14,1.94-0.42,2.77-0.69c0.83-0.28,1.8-0.69,2.64-0.97c0.83-0.42,1.66-0.83,2.5-1.39v-10.4
			h-7.49c-0.14,0-0.28,0-0.28-0.14c-0.14-0.14-0.14-0.14-0.14-0.28v-0.69h9.15v12.07C360.2,36.4,358.26,37.37,356.32,38.06z"/>
	</g>
	<path class="st0" d="M10.56,25.3v13.87H3.07V2.83h11.37c2.5,0,4.72,0.28,6.52,0.83s3.33,1.25,4.44,2.22s1.94,2.08,2.5,3.33
		c0.55,1.25,0.83,2.77,0.83,4.3c0,1.25-0.14,2.36-0.55,3.47c-0.28,1.11-0.83,2.08-1.53,2.91c-0.69,0.83-1.39,1.66-2.36,2.36
		c-0.97,0.69-2.08,1.25-3.33,1.66c0.42,0.28,0.97,0.55,1.39,0.97c0.42,0.42,0.83,0.83,1.11,1.39l8.46,13.04h-6.8
		c-1.25,0-2.22-0.42-2.77-1.39l-6.93-11.1c-0.28-0.42-0.55-0.69-0.97-0.97c-0.28-0.14-0.83-0.28-1.53-0.28h-2.36V25.3z M10.56,20.03
		h3.88c1.25,0,2.22-0.14,3.19-0.42c0.83-0.28,1.66-0.69,2.22-1.25c0.55-0.55,0.97-1.25,1.25-1.94c0.28-0.69,0.42-1.53,0.42-2.36
		c0-1.66-0.55-3.05-1.66-4.02c-1.11-0.97-2.91-1.39-5.27-1.39H10.7v11.37H10.56z"/>
	<path class="st0" d="M69.22,21c0,2.64-0.42,5.13-1.39,7.35c-0.97,2.22-2.22,4.16-3.74,5.83c-1.66,1.66-3.61,2.91-5.83,3.88
		s-4.85,1.39-7.63,1.39c-2.77,0-5.27-0.42-7.63-1.39c-2.22-0.97-4.3-2.22-5.83-3.88c-1.66-1.66-2.91-3.61-3.74-5.83
		c-0.83-2.22-1.39-4.72-1.39-7.35c0-2.64,0.42-5.13,1.39-7.35c0.83-2.22,2.22-4.16,3.74-5.83c1.66-1.66,3.61-2.91,5.83-3.88
		c2.22-0.97,4.85-1.39,7.63-1.39c2.77,0,5.27,0.42,7.63,1.39c2.22,0.97,4.3,2.22,5.83,3.88c1.66,1.66,2.91,3.61,3.74,5.83
		C68.81,15.87,69.22,18.36,69.22,21z M61.6,21c0-1.94-0.28-3.61-0.69-5.13c-0.55-1.53-1.25-2.77-2.22-3.88
		c-0.97-1.11-2.08-1.8-3.47-2.36c-1.39-0.55-2.91-0.83-4.58-0.83c-1.66,0-3.19,0.28-4.58,0.83s-2.5,1.39-3.47,2.36
		c-0.97,1.11-1.66,2.36-2.22,3.88c-0.55,1.53-0.69,3.19-0.69,5.13s0.28,3.61,0.69,5.13c0.55,1.53,1.25,2.77,2.22,3.88
		s2.08,1.8,3.47,2.36c1.39,0.55,2.91,0.83,4.58,0.83c1.66,0,3.19-0.28,4.58-0.83c1.39-0.55,2.5-1.39,3.47-2.36
		c0.97-0.97,1.66-2.36,2.22-3.88C61.32,24.61,61.6,22.8,61.6,21z"/>
	<path class="st0" d="M78.66,2.83c0.28,0,0.42,0.14,0.55,0.14c0.14,0.14,0.42,0.28,0.55,0.42c0.14,0.14,0.42,0.42,0.55,0.55
		L98.49,27.1c0-0.69-0.14-1.25-0.14-1.8c0-0.55,0-1.11,0-1.66V2.83h6.66v36.34h-3.88c-0.55,0-1.11-0.14-1.53-0.28
		c-0.42-0.14-0.83-0.55-1.11-0.97L80.46,14.9c0,0.55,0.14,1.11,0.14,1.66c0,0.55,0,1.11,0,1.53v20.94h-6.66V2.83h4.02
		C78.24,2.83,78.52,2.83,78.66,2.83z"/>
	<path class="st0" d="M143.7,39.17h-5.83c-0.69,0-1.25-0.14-1.53-0.42c-0.42-0.28-0.69-0.69-0.97-1.25l-2.5-6.93h-14.42l-2.5,6.93
		c-0.14,0.42-0.42,0.83-0.83,1.11c-0.42,0.28-0.97,0.55-1.53,0.55h-5.83l14.15-36.34h7.63L143.7,39.17z M120.26,25.3h10.82
		l-3.88-11.1c-0.28-0.55-0.42-1.25-0.69-2.08c-0.28-0.83-0.55-1.66-0.83-2.5c-0.28,0.97-0.42,1.8-0.69,2.5
		c-0.28,0.83-0.55,1.53-0.69,2.08L120.26,25.3z"/>
</g>
</svg>
