<svg xmlns="http://www.w3.org/2000/svg" viewBox="0 0 573.97 140"><defs><style>.cls-1{fill:#f9ec23;}.cls-2{fill:#bbcbd3;}.cls-3{fill:#7ec247;}.cls-4{fill:#54a3da;}.cls-5{fill:#4d4e4e;}</style></defs><title>Asset 9</title><g id="Layer_2" data-name="Layer 2"><g id="Layer_2-2" data-name="Layer 2"><path class="cls-1" d="M96,35.62A69.62,69.62,0,0,0,84.43,16.17h0A69.34,69.34,0,0,0,64.8,0,69.62,69.62,0,0,0,29.11,66.34c13.1-22.27,39.62-34.84,65.14-31C94.8,35.41,96,35.62,96,35.62Z"/><path class="cls-2" d="M68.84,123.81a69.87,69.87,0,0,0,47.83,4.2,73.66,73.66,0,0,0-27.62-23.16,73.76,73.76,0,0,1-20.91,18.63Z"/><path class="cls-3" d="M95.21,38.38c-30.2,14.24-44.42,53-30.42,83.36h0c29.27-15.59,43.5-53,31.93-84.1C96.24,37.88,95.73,38.12,95.21,38.38Z"/><path class="cls-2" d="M0,90.94a71.69,71.69,0,0,0,8.53.76A77.8,77.8,0,0,1,6,82.56,73.4,73.4,0,0,0,0,90.94Z"/><path class="cls-2" d="M61.54,123.51A73.47,73.47,0,0,1,27,74.73,18.53,18.53,0,0,0,8.62,79.54C15.94,127,72.1,154.71,114.24,131.86A73,73,0,0,1,61.54,123.51Z"/><path class="cls-4" d="M30,73.25A69.74,69.74,0,0,0,60.29,119c-11.27-29.56,1.58-65.3,29-81C64.92,36.1,40.66,49.79,29.74,71.73,29.82,72.24,29.91,72.75,30,73.25Z"/><path class="cls-5" d="M173,68.81a15.69,15.69,0,0,1,27.22-.65l.37.65a17.19,17.19,0,0,1,2.06,8.27,16.75,16.75,0,0,1-2.1,8.31,15.71,15.71,0,0,1-5.71,6,15.27,15.27,0,0,1-8.09,2.18,15.77,15.77,0,0,1-8.11-2.11A15,15,0,0,1,173,85.54a17.36,17.36,0,0,1-2-8.47A16.79,16.79,0,0,1,173,68.81Zm3.39,15a12.47,12.47,0,0,0,4.46,4.8,11.71,11.71,0,0,0,12.33,0,12.47,12.47,0,0,0,4.46-4.8,13.72,13.72,0,0,0,1.64-6.64,13.94,13.94,0,0,0-1.64-6.69,12.51,12.51,0,0,0-4.46-4.84A11.36,11.36,0,0,0,187,63.88a10.91,10.91,0,0,0-6.24,1.89,13.18,13.18,0,0,0-4.43,4.89,14.12,14.12,0,0,0,0,13.12Z"/><path class="cls-5" d="M238,62.19,223.54,94h-.65l-15-32.35h4.16L223.31,87.4,234.2,62.19Z"/><path class="cls-5" d="M247.1,48.26A2.67,2.67,0,0,1,249,47.5a2.54,2.54,0,0,1,1.84.76,2.56,2.56,0,0,1,.76,1.88,2.65,2.65,0,0,1-.76,2,2.48,2.48,0,0,1-1.83.76,2.55,2.55,0,0,1-1.86-.8,2.62,2.62,0,0,1-.8-1.92A2.51,2.51,0,0,1,247.1,48.26Zm3.49,13.35V92.87h-3.35V61.64Z"/><path class="cls-5" d="M286.87,63.39a9.87,9.87,0,0,1,2.76,6.85V92.87h-3.34V71.14a10.71,10.71,0,0,0-2.22-5.08,6.66,6.66,0,0,0-5-2,10.71,10.71,0,0,0-5.58,1.52,11.41,11.41,0,0,0-4.11,4.28,11.67,11.67,0,0,0-1.48,6.28V93.43H264V61.64h3.14l.31,7.08a11.84,11.84,0,0,1,5-5.82,14.31,14.31,0,0,1,7.72-2.15A9,9,0,0,1,286.87,63.39Z"/><path class="cls-5" d="M298.94,105.61a14.68,14.68,0,0,0,3.41-5.28,18.8,18.8,0,0,0,1.23-7V61.64h3.9V93.29q0,10-6.1,14.64Zm5-57.35a2.62,2.62,0,0,1,1.86-.76,2.49,2.49,0,0,1,1.86.76,2.56,2.56,0,0,1,.76,1.88,2.65,2.65,0,0,1-.76,2,2.48,2.48,0,0,1-1.83.76,2.56,2.56,0,0,1-1.86-.8,2.62,2.62,0,0,1-.8-1.92,2.51,2.51,0,0,1,.77-1.88Z"/><path class="cls-5" d="M375.54,73.91h-24l-7.23,19h-3.51l22.82-59.12h.3l22.83,59.12h-4Zm-1.47-3.35L363.64,42.67,353,70.56Z"/><path class="cls-5" d="M426.28,32.07v60.8h-3.9V86.44a13.35,13.35,0,0,1-5.45,5.15,15.82,15.82,0,0,1-7.76,1.94,14.33,14.33,0,0,1-7.65-2.11,14.73,14.73,0,0,1-5.45-5.92,19.08,19.08,0,0,1,.07-17.07,14.49,14.49,0,0,1,5.58-5.75,15.6,15.6,0,0,1,7.84-2,15.43,15.43,0,0,1,7.51,2c2.29,1.23,5.87,5.27,5.87,5.27V32.07Zm-7.8,54.85a12.65,12.65,0,0,0,3.9-8.48v-4a12.78,12.78,0,0,0-4.38-7.6,12.21,12.21,0,0,0-18.84,3.32A13.68,13.68,0,0,0,397.49,77a13.4,13.4,0,0,0,1.67,6.64,13,13,0,0,0,4.53,4.83,11.39,11.39,0,0,0,6.21,1.81A12,12,0,0,0,418.48,86.92Z"/><path class="cls-5" d="M465.29,62.19,450.81,94h-.63l-15-32.35h4.16L450.59,87.4l10.89-25.21Z"/><path class="cls-5" d="M474.38,48.26a2.66,2.66,0,0,1,1.86-.76,2.5,2.5,0,0,1,1.83.76,2.53,2.53,0,0,1,.76,1.88,2.61,2.61,0,0,1-.76,2,2.55,2.55,0,0,1-3.63,0l-.06,0a2.62,2.62,0,0,1-.8-1.92A2.48,2.48,0,0,1,474.38,48.26Zm3.22,13.35V92.87h-3.35V61.64Z"/><path class="cls-5" d="M492.88,92.51a9.9,9.9,0,0,1-4.38-3.19l1.67-2.49a11.58,11.58,0,0,0,3.66,2.69,10.49,10.49,0,0,0,4.41,1,8.37,8.37,0,0,0,4.88-1.4,5,5,0,0,0,2-4.36A4.9,4.9,0,0,0,504,81.41a6.76,6.76,0,0,0-2.43-1.84q-1.38-.58-4.42-1.64a14.45,14.45,0,0,1-5.52-3.23,7.12,7.12,0,0,1-2-5.24,8.07,8.07,0,0,1,2.56-6.2,9.22,9.22,0,0,1,6.51-2.36,12,12,0,0,1,8.92,3.52l-1.6,2.64a6.48,6.48,0,0,0-3-2.32,12,12,0,0,0-3.79-.77,7,7,0,0,0-4.15,1.32,4.78,4.78,0,0,0-.19,7.42,21.7,21.7,0,0,0,5.11,2.52,21.06,21.06,0,0,1,6.39,3.24,6.61,6.61,0,0,1,2.23,5.47,9.4,9.4,0,0,1-2.63,7q-2.62,2.64-7.62,2.63A15.39,15.39,0,0,1,492.88,92.51Z"/><path class="cls-5" d="M518.69,68.81a15.7,15.7,0,0,1,27.23-.66c.13.22.25.44.37.66a17.08,17.08,0,0,1,2.06,8.27,16.85,16.85,0,0,1-2.09,8.31,15.81,15.81,0,0,1-5.72,6,15.2,15.2,0,0,1-8.11,2.18,15.82,15.82,0,0,1-8.11-2.11,15.19,15.19,0,0,1-5.67-5.88,17.36,17.36,0,0,1-2-8.47A16.9,16.9,0,0,1,518.69,68.81Zm3,15a12.63,12.63,0,0,0,4.46,4.8,11.72,11.72,0,0,0,12.34,0,12.63,12.63,0,0,0,4.46-4.8,13.83,13.83,0,0,0,1.63-6.64,14,14,0,0,0-1.63-6.69,12.56,12.56,0,0,0-4.46-4.83,11.4,11.4,0,0,0-6.17-1.75,11,11,0,0,0-6.24,1.87,13.21,13.21,0,0,0-4.43,4.9,14.09,14.09,0,0,0,0,13.12Z"/><path class="cls-5" d="M567.14,63.05A13,13,0,0,1,574,60.73l-.12,3.68A11.12,11.12,0,0,0,568.08,66a11.89,11.89,0,0,0-5.7,10.35V92.87H559V61.64H562l.29,7.43A12.62,12.62,0,0,1,567.14,63.05Z"/><path class="cls-5" d="M127.32,93.42V41.19c4.42-.33,8.11-.51,11.09-.51a17.53,17.53,0,0,1,11.69,3.86q4.59,3.84,4.61,10.88a16.08,16.08,0,0,1-2.6,8.88,24.63,24.63,0,0,1-5.93,6.53q2.58,3.73,6.38,8.92c2.54,3.46,4.16,5.63,4.89,6.5a15.25,15.25,0,0,0,9.62,5.43L167,94a14.65,14.65,0,0,1-12-5.26q-2.37-2.68-12-16.46-6.83,0-12.41-.44V93.43Zm13.76-24q3.07,0,6.56-4.25a15,15,0,0,0,3.49-9.86q0-5.61-3.59-8.52T138,43.89c-2.09,0-4.54.1-7.33.29V69Q136.27,69.4,141.08,69.39Z"/></g></g></svg>