<?xml version="1.0" encoding="utf-8"?>
<!-- Generator: Adobe Illustrator 24.1.2, SVG Export Plug-In . SVG Version: 6.00 Build 0)  -->
<svg version="1.1" id="Layer_1" xmlns="http://www.w3.org/2000/svg" xmlns:xlink="http://www.w3.org/1999/xlink" x="0px" y="0px"
	 viewBox="0 0 172.667 42" style="enable-background:new 0 0 172.667 42;" xml:space="preserve">
<style type="text/css">
	.st0{fill:#7EC247;}
	.st1{fill:#54A3DA;}
	.st2{fill:#F2D927;}
	.st3{fill:#464F4F;}
</style>
<g>
	<g>
		<path class="st0" d="M29.188,31.204c0.013,0.046,0.026,0.096,0.038,0.14c0.623,2.286,1.204,4.259,1.745,5.919
			c0.291,0.957,1.112,1.693,2.462,2.212s3,0.778,4.954,0.778c1.495,0,2.949-0.188,4.361-0.56c1.411-0.373,2.43-0.851,3.053-1.434
			c0.415-0.914,0.862-2.212,1.34-3.894c0.477-1.682,0.945-3.562,1.403-5.64c0.456-2.077,0.892-4.257,1.308-6.544
			c0.415-2.283,0.778-4.465,1.09-6.542c0.056-0.372,0.107-0.729,0.159-1.089c-4.218,0.73-8.136,2.338-11.554,4.639
			c-0.152,1.285-0.309,2.582-0.474,3.895c-0.291,2.306-0.623,4.726-0.998,7.259h-0.311c-0.332-1.454-0.676-2.845-1.028-4.175
			c-0.342-1.282-0.692-2.575-1.052-3.877C33.004,24.825,30.79,27.84,29.188,31.204z"/>
		<path class="st1" d="M51.269,13.357c0.164-1.191,0.306-2.314,0.421-3.355c0.187-1.682,0.281-2.98,0.281-3.894
			c0-1.578-0.56-2.699-1.682-3.365c-1.122-0.664-2.452-0.998-3.988-0.998c-1.745,0-3.387,0.436-4.923,1.308
			c-0.249,2.243-0.499,4.455-0.748,6.636c-0.249,2.181-0.499,4.384-0.748,6.605c-0.053,0.471-0.111,0.95-0.165,1.424
			C43.172,15.546,47.081,14.031,51.269,13.357z"/>
		<path class="st1" d="M20.939,39.695c1.246-0.373,2.181-0.851,2.803-1.434c0.499-1.786,1.059-3.966,1.682-6.544
			c0.623-2.575,1.226-5.212,1.807-7.913c0.525,2.04,1.028,3.953,1.507,5.741c1.698-3.208,3.935-6.088,6.598-8.508
			c-0.278-1.011-0.558-2.044-0.846-3.121c-0.395-1.474-0.821-3.063-1.277-4.766c-0.249-0.998-0.957-1.754-2.118-2.275
			c-1.163-0.519-2.617-0.778-4.361-0.778c-0.998,0-1.984,0.135-2.959,0.405c-0.976,0.271-1.693,0.509-2.151,0.717
			c-0.415,2.118-0.809,3.998-1.183,5.638c-0.373,1.642-0.738,3.178-1.09,4.611c-0.354,1.434-0.695,2.856-1.028,4.269
			c-0.226,0.957-0.464,1.992-0.707,3.063c0.383,3.905,1.526,7.589,3.269,10.91C20.901,39.705,20.921,39.7,20.939,39.695z"/>
		<path class="st2" d="M16.325,26.112c-0.097-0.686-0.21-1.462-0.34-2.338c-0.271-1.807-0.623-4.122-1.059-6.948
			c-0.436-2.825-0.988-6.355-1.65-10.593c-0.251-1.621-0.885-2.774-1.903-3.459S9.056,1.747,7.479,1.747
			c-1.206,0-2.328,0.23-3.365,0.686c-1.039,0.456-1.849,0.955-2.43,1.495c0.165,1.745,0.415,3.667,0.748,5.764
			c0.332,2.098,0.695,4.247,1.09,6.449s0.831,4.403,1.308,6.605s0.945,4.249,1.403,6.139c0.456,1.89,0.904,3.573,1.34,5.047
			c0.436,1.475,0.841,2.587,1.216,3.334c0.456,0.957,1.442,1.693,2.959,2.212s3.21,0.778,5.078,0.778
			c1.029,0,1.996-0.096,2.908-0.273C17.594,35.813,16.366,31.103,16.325,26.112z"/>
	</g>
	<g>
		<path class="st3" d="M57.352,15.292c0-1.077,0.312-1.929,0.939-2.555c0.626-0.626,1.478-0.94,2.555-0.94h12.401
			c0.175,0.275,0.332,0.639,0.469,1.09c0.139,0.451,0.208,0.927,0.208,1.428c0,0.952-0.208,1.629-0.62,2.029
			c-0.414,0.401-0.959,0.601-1.635,0.601H63.74v3.495h8.454c0.176,0.276,0.332,0.633,0.471,1.071
			c0.137,0.438,0.206,0.908,0.206,1.409c0,0.952-0.2,1.628-0.601,2.029c-0.401,0.401-0.94,0.601-1.615,0.601H63.74v3.946h9.657
			c0.176,0.275,0.332,0.639,0.471,1.089c0.137,0.452,0.206,0.927,0.206,1.429c0,0.952-0.206,1.634-0.62,2.048
			c-0.412,0.412-0.959,0.62-1.634,0.62H60.846c-1.077,0-1.929-0.313-2.555-0.94s-0.939-1.478-0.939-2.556V15.292z"/>
		<path class="st3" d="M86.774,35.17c-0.425,0-0.927-0.013-1.503-0.038c-0.576-0.025-1.171-0.076-1.785-0.15
			c-0.614-0.076-1.221-0.17-1.823-0.282c-0.601-0.113-1.152-0.269-1.653-0.471c-1.379-0.526-2.067-1.44-2.067-2.743V13.939
			c0-0.526,0.143-0.933,0.431-1.221c0.288-0.288,0.683-0.52,1.184-0.696c0.851-0.301,1.917-0.519,3.195-0.657
			c1.278-0.138,2.592-0.207,3.946-0.207c3.206,0,5.674,0.539,7.402,1.616c1.728,1.077,2.592,2.743,2.592,4.998
			c0,1.127-0.326,2.098-0.976,2.913c-0.652,0.814-1.528,1.409-2.632,1.785c1.253,0.351,2.298,0.99,3.138,1.916
			c0.839,0.927,1.259,2.092,1.259,3.494c0,2.481-0.921,4.316-2.762,5.506S90.231,35.17,86.774,35.17z M84.332,20.703h2.742
			c1.078,0,1.86-0.2,2.35-0.601c0.488-0.4,0.732-0.989,0.732-1.766c0-0.676-0.282-1.214-0.845-1.616
			c-0.563-0.401-1.409-0.601-2.537-0.601c-0.375,0-0.807,0.013-1.295,0.038c-0.489,0.025-0.87,0.063-1.146,0.113V20.703z
			 M84.332,29.872c0.349,0.099,0.801,0.168,1.352,0.206c0.551,0.038,1.077,0.057,1.579,0.057c1.001,0,1.835-0.208,2.498-0.62
			c0.664-0.414,0.996-1.058,0.996-1.935c0-0.827-0.275-1.415-0.826-1.767c-0.551-0.35-1.39-0.526-2.518-0.526h-3.08V29.872z"/>
		<path class="st3" d="M107.666,25.512c-1.102-0.375-2.104-0.757-3.006-1.146c-0.902-0.388-1.678-0.858-2.329-1.409
			c-0.652-0.55-1.158-1.208-1.522-1.972s-0.545-1.697-0.545-2.8c0-2.129,0.82-3.833,2.462-5.111c1.64-1.277,3.94-1.916,6.895-1.916
			c1.077,0,2.079,0.076,3.006,0.226c0.925,0.15,1.722,0.382,2.386,0.695c0.663,0.313,1.184,0.714,1.56,1.202
			c0.375,0.489,0.563,1.058,0.563,1.71c0,0.652-0.151,1.209-0.452,1.672c-0.301,0.464-0.664,0.859-1.089,1.184
			c-0.551-0.35-1.291-0.657-2.218-0.92c-0.927-0.264-1.941-0.395-3.044-0.395c-1.127,0-1.953,0.157-2.479,0.47
			c-0.527,0.314-0.79,0.708-0.79,1.184c0,0.376,0.164,0.683,0.489,0.921c0.324,0.238,0.814,0.457,1.465,0.658l1.991,0.638
			c2.355,0.752,4.165,1.71,5.43,2.875c1.265,1.165,1.898,2.75,1.898,4.754c0,2.13-0.84,3.851-2.518,5.167
			c-1.678,1.314-4.146,1.972-7.402,1.972c-1.152,0-2.224-0.094-3.212-0.282c-0.99-0.187-1.856-0.463-2.594-0.826
			c-0.738-0.364-1.314-0.814-1.728-1.354c-0.414-0.538-0.62-1.158-0.62-1.86c0-0.726,0.212-1.346,0.639-1.859
			c0.425-0.513,0.889-0.908,1.39-1.185c0.702,0.552,1.56,1.028,2.575,1.429c1.014,0.401,2.123,0.601,3.326,0.601
			c1.226,0,2.09-0.189,2.592-0.563c0.501-0.376,0.751-0.814,0.751-1.316c0-0.501-0.2-0.883-0.601-1.146
			c-0.4-0.264-0.963-0.52-1.69-0.77L107.666,25.512z"/>
		<path class="st3" d="M128.484,34.419c-0.275,0.074-0.708,0.15-1.297,0.225c-0.589,0.074-1.171,0.112-1.747,0.112
			s-1.084-0.044-1.522-0.131c-0.439-0.088-0.807-0.244-1.108-0.471c-0.301-0.225-0.526-0.538-0.677-0.938
			c-0.15-0.401-0.225-0.927-0.225-1.579V11.797c0.275-0.05,0.713-0.119,1.314-0.207c0.601-0.087,1.177-0.131,1.73-0.131
			c0.576,0,1.083,0.044,1.522,0.131c0.438,0.088,0.807,0.245,1.108,0.47c0.301,0.226,0.526,0.539,0.677,0.94
			c0.15,0.401,0.225,0.927,0.225,1.578V34.419z"/>
		<path class="st3" d="M132.317,17.058c-0.175-0.275-0.338-0.652-0.488-1.128c-0.151-0.475-0.225-0.977-0.225-1.503
			c0-0.977,0.219-1.678,0.658-2.104c0.438-0.426,1.007-0.638,1.709-0.638h16.383c0.175,0.275,0.338,0.652,0.49,1.127
			c0.15,0.476,0.225,0.977,0.225,1.503c0,0.977-0.22,1.679-0.658,2.104c-0.439,0.427-1.009,0.639-1.709,0.639h-4.171v17.361
			c-0.277,0.074-0.708,0.15-1.297,0.225c-0.589,0.074-1.171,0.112-1.747,0.112c-0.578,0-1.084-0.044-1.522-0.131
			c-0.439-0.088-0.807-0.244-1.108-0.471c-0.301-0.225-0.527-0.538-0.677-0.938c-0.151-0.401-0.225-0.927-0.225-1.579v-14.58
			H132.317z"/>
		<path class="st3" d="M154.262,15.292c0-1.077,0.313-1.929,0.94-2.555c0.625-0.626,1.478-0.94,2.554-0.94h12.401
			c0.175,0.275,0.332,0.639,0.469,1.09c0.139,0.451,0.208,0.927,0.208,1.428c0,0.952-0.208,1.629-0.62,2.029
			c-0.414,0.401-0.959,0.601-1.635,0.601h-7.928v3.495h8.454c0.176,0.276,0.332,0.633,0.471,1.071
			c0.137,0.438,0.206,0.908,0.206,1.409c0,0.952-0.2,1.628-0.601,2.029c-0.401,0.401-0.94,0.601-1.615,0.601h-6.914v3.946h9.656
			c0.176,0.275,0.332,0.639,0.471,1.089c0.137,0.452,0.206,0.927,0.206,1.429c0,0.952-0.206,1.634-0.62,2.048
			c-0.412,0.412-0.959,0.62-1.634,0.62h-10.973c-1.077,0-1.93-0.313-2.554-0.94c-0.626-0.626-0.94-1.478-0.94-2.556V15.292z"/>
	</g>
</g>
</svg>
