<?xml version="1.0" encoding="utf-8"?>
<!-- Generator: Adobe Illustrator 28.0.0, SVG Export Plug-In . SVG Version: 6.00 Build 0)  -->
<svg version="1.1" id="Layer_1" xmlns="http://www.w3.org/2000/svg" xmlns:xlink="http://www.w3.org/1999/xlink" x="0px" y="0px"
	 viewBox="0 0 139 42" style="enable-background:new 0 0 139 42;" xml:space="preserve">
<style type="text/css">
	.st0{fill:#0277BA;stroke:#000000;stroke-width:0.3824;stroke-linecap:round;}
	.st1{stroke:#FFFFFF;stroke-width:0.1912;stroke-linecap:round;}
	.st2{fill:#FFFFFF;stroke:#000000;stroke-width:0.2868;stroke-linecap:round;}
	.st3{stroke:#000000;stroke-width:0.1912;stroke-linecap:round;}
	.st4{stroke:#F5DF03;stroke-width:0.2868;stroke-linecap:round;}
	.st5{fill:none;stroke:#000000;stroke-width:9.560639e-02;stroke-linecap:round;}
	.st6{fill:#FFFFFF;stroke:#000000;stroke-width:0.1912;stroke-linecap:round;}
	.st7{fill:none;stroke:#000000;stroke-width:0.1912;stroke-linecap:round;}
	.st8{fill:#F5DF03;stroke:#000000;stroke-width:0.1912;stroke-linecap:round;}
	.st9{fill:#FFFFFF;stroke:#000000;stroke-width:0.2868;}
	.st10{stroke:#000000;stroke-width:0.3824;stroke-linecap:round;}
	.st11{fill:none;stroke:#000000;stroke-width:0.1434;stroke-linecap:round;}
	.st12{fill:#49B132;stroke:#000000;stroke-width:0.1912;stroke-linecap:round;}
	.st13{stroke:#000000;stroke-width:0.4589;stroke-linecap:round;stroke-miterlimit:4.8;}
</style>
<g>
	<path class="st0" d="M1.3,0.8H35v23.5c0,9.3-7.5,16.8-16.8,16.8S1.3,33.6,1.3,24.3V0.8z"/>
	<path class="st1" d="M18.2,4.8v15.5"/>
	<g transform="matrix(-1 0 0 1 356-1.155e-5)">
		<g id="e">
			<path class="st2" d="M18.2,5.6h4 M21.4,6.7h-3.3 M18.2,4.8h0.6V3.5h1.1v1.3H21V3.5h1.1v2.1l-0.8,1.1L22,19h7.2v10.7L31,35H18.3"
				/>
			<path class="st3" d="M18.1,32.1h3.6V21.8l-3.6-2.1"/>
			<path class="st4" d="M20.7,20.9v3.6 M19.4,20.9v3.6 M21.8,22.2h-3.6 M21.8,23.6h-3.6 M18.2,20.9v3.6"/>
			<path class="st2" d="M28.3,9.1h-5.7 M27.4,9.9h-3.8 M28.3,7.3v1.8l-1,0.8l0.3,9.1h-4.4l0.3-9.1l-1-0.8V7.3h1.1v1.1h1.1V7.3H26
				v1.1h1.1V7.3H28.3z"/>
			<path class="st5" d="M20.4,15.3H19 M24,20.5v1.5 M27.4,20.5v1.5 M25.7,19v1.5 M22.3,20.5V19 M29.2,22.1h-7.1 M29.2,20.5h-8.8
				 M27.4,23.6v1.5 M25.7,23.6v-1.5 M29.2,25.1h-4.3 M29.2,23.6h-4.3 M27.4,26.6v1.5 M25.7,26.6v-1.5 M29.2,28.2h-4.3 M29.2,26.6
				h-4.3 M25.7,29.7v-1.5 M19.7,6.7v1.7 M21.4,8.4h-3.3 M19.7,10.1v1.7 M19.7,13.5v1.7 M18.2,13.5v-1.7 M21.7,13.5h-3.5 M21.6,11.8
				h-3.4 M21.6,10.1h-3.4 M25.4,13.9v1.3 M26.5,12.6v1.3 M24.4,13.9v-1.3 M26.5,9.9v1.3 M24.4,11.2V9.9 M26.1,15.3h-1.3 M27.4,13.9
				h-4 M27.4,12.6h-3.9 M27.4,11.2h-3.8"/>
			<path id="c" class="st6" d="M18.1,20.9c2.1,0,3.8,1.7,3.8,3.8h1.4c0-2.9-2.4-5.3-5.3-5.3"/>
			<path class="st7" d="M18.1,21.1c1.9,0,3.5,1.5,3.6,3.4"/>
			<path class="st8" d="M24.5,21.2v10.7 M24.9,31.9V21.3l-0.4-0.2c-1.6,0.3-3.1,2.1-3.1,3.4v7.4H24.9z"/>
			<path class="st9" d="M29.2,29.7h-4.3 M29.8,17.5H18.1 M18.1,15.3h1v1.4h1.3v-1.4h1.5v1.4h1.3v-1.4h1.5v1.4h1.3v-1.4h1.5v1.4H29
				v-1.4h0.9v2.2L29.2,19H18.1"/>
			<g id="d">
				<circle cx="25.4" cy="12.6" r="0.6"/>
				<path class="st10" d="M25.4,12.6v-1.9"/>
			</g>
			<g id="f">
				<g id="a">
					<path id="b" class="st11" d="M23.8,25.2c0-0.2-0.2-0.4-0.4-0.4c0-0.6-0.8-0.6-0.8,0h-1.2"/>
					<g transform="matrix(1, 0, 0, -1, 0, 514)">
						<path id="b_00000016070095447807145930000003238537823145864343_" class="st11" d="M23.8,25.2c0,0.2-0.2,0.4-0.4,0.4
							c0,0.6-0.8,0.6-0.8,0h-1.2"/>
					</g>
				</g>
				<circle class="st11" cx="21.9" cy="25.2" r="0.1"/>
				<circle class="st11" cx="23" cy="25.2" r="0.1"/>
			</g>
			<g transform="translate(0, 36)">
				<g id="f_00000166637412991339202420000001822881658829440186_">
					<g id="a_00000078734475401991095170000006268877439828622729_">
						<path id="b_00000086669147672054347240000015655198313355075495_" class="st11" d="M23.8,28.6c0-0.2-0.2-0.4-0.4-0.4
							c0-0.6-0.8-0.6-0.8,0h-1.2"/>
						<g transform="matrix(1, 0, 0, -1, 0, 514)">
							<path id="b_00000100360418425890245830000016673633102731913877_" class="st11" d="M23.8,28.6c0,0.2-0.2,0.4-0.4,0.4
								c0,0.6-0.8,0.6-0.8,0h-1.2"/>
						</g>
					</g>
					<circle class="st11" cx="21.9" cy="28.6" r="0.1"/>
					<circle class="st11" cx="23" cy="28.6" r="0.1"/>
				</g>
			</g>
		</g>
	</g>
	<path class="st8" d="M2.3,6.9l1.6-1.7L2.3,3.3l2.4,0.6l0.7-2.4L6,3.9l2.5-0.6L6.9,5.1l1.6,1.7L6.1,6.4L5.4,8.7L4.6,6.4L2.3,6.9z"/>
	<path class="st6" d="M29.2,2.5c1.3-0.4,2.7,0.4,3.1,1.7c0.4,1.3-0.4,2.7-1.7,3.1c-0.4,0.1-0.9,0.1-1.4,0c1.3,1.1,3.2,0.8,4.3-0.5
		s0.8-3.2-0.5-4.3C31.9,1.6,30.3,1.6,29.2,2.5"/>
	<g id="e_00000046305576938121203210000005281621764705915568_">
		<path class="st2" d="M18.2,5.6h-4 M14.9,6.7h3.3 M18.2,4.8h-0.6V3.5h-1.1v1.3h-1.1V3.5h-1.1v2.1l0.8,1.1L14.3,19H7.2v10.7L5.4,35
			h12.7"/>
		<path class="st3" d="M18.3,32.1h-3.6V21.8l3.6-2.1"/>
		<path class="st4" d="M15.7,20.9v3.6 M16.9,20.9v3.6 M14.5,22.2h3.6 M14.5,23.6h3.6 M18.2,20.9v3.6"/>
		<path class="st2" d="M8,9.1h5.7 M9,9.9h3.8 M8,7.3v1.8l1,0.8L8.7,19h4.4l-0.3-9.1l1-0.8V7.3h-1.1v1.1h-1.1V7.3h-1.1v1.1H9.2V7.3H8
			z"/>
		<path class="st5" d="M16,15.3h1.3 M12.3,20.5v1.5 M8.9,20.5v1.5 M10.6,19v1.5 M14.1,20.5V19 M7.2,22.1h7.1 M7.2,20.5H16 M8.9,23.6
			v1.5 M10.6,23.6v-1.5 M7.2,25.1h4.3 M7.2,23.6h4.3 M8.9,26.6v1.5 M10.6,26.6v-1.5 M7.2,28.2h4.3 M7.2,26.6h4.3 M10.6,29.7v-1.5
			 M16.6,6.7v1.7 M14.9,8.4h3.3 M16.6,10.1v1.7 M16.6,13.5v1.7 M18.2,13.5v-1.7 M14.6,13.5h3.5 M14.7,11.8h3.4 M14.7,10.1h3.4
			 M10.9,13.9v1.3 M9.9,12.6v1.3 M12,13.9v-1.3 M9.9,9.9v1.3 M12,11.2V9.9 M10.2,15.3h1.3 M8.9,13.9h4 M8.9,12.6h3.9 M9,11.2h3.8"/>
		<path id="c_00000134949187014113010440000011391006974473144241_" class="st6" d="M18.3,20.9c-2.1,0-3.8,1.7-3.8,3.8H13
			c0-2.9,2.4-5.3,5.3-5.3"/>
		<path class="st7" d="M18.3,21.1c-1.9,0-3.5,1.5-3.6,3.4"/>
		<path class="st8" d="M11.9,21.2v10.7 M11.5,31.9V21.3l0.4-0.2c1.6,0.3,3.1,2.1,3.1,3.4v7.4H11.5z"/>
		<path class="st9" d="M7.2,29.7h4.3 M6.5,17.5h11.8 M18.3,15.3h-1v1.4H16v-1.4h-1.5v1.4h-1.3v-1.4h-1.5v1.4h-1.3v-1.4H8.7v1.4H7.4
			v-1.4H6.5v2.2L7.2,19h11.1"/>
		<g id="d_00000098187768389463281100000017056892447163305382_">
			<circle cx="10.9" cy="12.6" r="0.6"/>
			<path class="st10" d="M10.9,12.6v-1.9"/>
		</g>
		<g id="f_00000018919665815955052880000003504365448830988205_">
			<g id="a_00000001641359776228300510000017051338753575175097_">
				<path id="b_00000077291224411651452050000016087501966410883466_" class="st11" d="M12.5,25.2c0-0.2,0.2-0.4,0.4-0.4
					c0-0.6,0.8-0.6,0.8,0h1.2"/>
				<g transform="matrix(1, 0, 0, -1, 0, 514)">
					<path id="b_00000109740613783710776850000002232123302110939542_" class="st11" d="M12.5,25.2c0,0.2,0.2,0.4,0.4,0.4
						c0,0.6,0.8,0.6,0.8,0h1.2"/>
				</g>
			</g>
			<circle class="st11" cx="14.4" cy="25.2" r="0.1"/>
			<circle class="st11" cx="13.3" cy="25.2" r="0.1"/>
		</g>
		<g transform="translate(0, 36)">
			<g id="f_00000057832174792171500050000017985643481430290310_">
				<g id="a_00000079472272447264184600000014363789430696749184_">
					<path id="b_00000160179220924435196820000005841892283810857098_" class="st11" d="M12.5,28.6c0-0.2,0.2-0.4,0.4-0.4
						c0-0.6,0.8-0.6,0.8,0h1.2"/>
					<g transform="matrix(1, 0, 0, -1, 0, 514)">
						<path id="b_00000166636784724227040650000006812281335268640137_" class="st11" d="M12.5,28.6c0,0.2,0.2,0.4,0.4,0.4
							c0,0.6,0.8,0.6,0.8,0h1.2"/>
					</g>
				</g>
				<circle class="st11" cx="14.4" cy="28.6" r="0.1"/>
				<circle class="st11" cx="13.3" cy="28.6" r="0.1"/>
			</g>
		</g>
	</g>
	<path class="st12" d="M18.2,30.8c5.7,0,10.7,1.7,12.9,4.3c-3.2,3.8-7.9,6-12.9,6s-9.7-2.2-12.9-6C7.4,32.5,12.5,30.8,18.2,30.8
		L18.2,30.8z"/>
	<g transform="matrix(1.2, 0, 0, 1.2, 96.4, 23.4)">
		<g id="d_00000126294288399658199650000011609688640179192455_">
			<circle cx="18.2" cy="10.1" r="0.7"/>
			<path class="st13" d="M18.2,10.1V7.8"/>
		</g>
	</g>
	<path class="st6" d="M17,19.1l0.4,1.9c0.5-0.1,1.1-0.1,1.5,0l0.4-1.9"/>
</g>
<g>
	<g>
		<path d="M50.6,12.1c-0.7,0.7-1.5,1-2.4,1c-0.6,0-1.1-0.1-1.6-0.3c-0.5-0.2-0.9-0.5-1.3-0.9c-0.4-0.4-0.7-0.9-0.9-1.4
			c-0.2-0.5-0.3-1.1-0.3-1.7c0-0.6,0.1-1.1,0.3-1.6c0.2-0.5,0.5-1,0.9-1.4s0.8-0.7,1.3-0.9s1.1-0.3,1.6-0.3c0.8,0,1.5,0.2,2.1,0.5
			c0.6,0.3,1,0.8,1.3,1.4l-1.2,0.9c-0.2-0.4-0.5-0.7-0.9-1C49.2,6.1,48.7,6,48.3,6c-0.4,0-0.7,0.1-1,0.2c-0.3,0.2-0.6,0.4-0.8,0.6
			c-0.2,0.3-0.4,0.6-0.5,0.9c-0.1,0.3-0.2,0.7-0.2,1.1c0,0.4,0.1,0.8,0.2,1.1c0.1,0.3,0.3,0.7,0.5,0.9s0.5,0.5,0.8,0.6
			s0.6,0.2,1,0.2c0.8,0,1.6-0.4,2.2-1.2V9.9h-1.7V8.7H52v4.4h-1.4V12.1z"/>
		<path d="M53.4,13.1V4.6h3.8c0.4,0,0.8,0.1,1.1,0.2c0.3,0.2,0.6,0.4,0.9,0.6c0.2,0.3,0.4,0.6,0.6,0.9c0.1,0.3,0.2,0.7,0.2,1
			c0,0.6-0.1,1.1-0.4,1.5c-0.3,0.5-0.7,0.8-1.1,1l1.9,3.2h-1.9l-1.7-2.9h-1.6v2.9H53.4z M55.1,8.8h2.1c0.2,0,0.3,0,0.4-0.1
			c0.1-0.1,0.2-0.2,0.3-0.3c0.1-0.1,0.2-0.3,0.2-0.4c0.1-0.2,0.1-0.3,0.1-0.5c0-0.2,0-0.4-0.1-0.6C58,6.7,58,6.5,57.9,6.4
			c-0.1-0.1-0.2-0.2-0.4-0.3C57.3,6,57.2,6,57.1,6h-2V8.8z"/>
		<path d="M63.7,4.6h1.5l3.2,8.5h-1.7L65.9,11h-3l-0.8,2.1h-1.7L63.7,4.6z M65.6,9.8l-1.2-3.3l-1.2,3.3H65.6z"/>
		<path d="M69.3,13.1V4.6h3.1c0.7,0,1.3,0.1,1.8,0.3c0.5,0.2,1,0.5,1.3,0.9c0.4,0.4,0.6,0.8,0.8,1.4c0.2,0.5,0.3,1.1,0.3,1.6
			c0,0.6-0.1,1.2-0.3,1.8c-0.2,0.5-0.5,1-0.8,1.3s-0.8,0.7-1.3,0.9c-0.5,0.2-1.1,0.3-1.7,0.3H69.3z M74.9,8.8c0-0.4-0.1-0.8-0.2-1.1
			c-0.1-0.3-0.3-0.6-0.5-0.9c-0.2-0.2-0.5-0.4-0.8-0.6C73.2,6.1,72.8,6,72.4,6H71v5.6h1.4c0.4,0,0.8-0.1,1.1-0.2s0.6-0.3,0.8-0.6
			c0.2-0.3,0.4-0.5,0.5-0.9C74.9,9.6,74.9,9.2,74.9,8.8z"/>
	</g>
	<g>
		<path d="M44.5,34.9l9.6-11.6h-9.4v-2.9H58v2.5l-9.3,11.6H58v2.9H44.5V34.9z"/>
		<path d="M65.5,20.3h2.9l6.5,17h-3.4l-1.6-4.2h-6l-1.6,4.2H59L65.5,20.3z M69.3,30.8l-2.4-6.7l-2.4,6.7H69.3z"/>
		<path d="M88,35.5c-1.4,1.4-2.9,2-4.8,2c-1.1,0-2.2-0.2-3.2-0.7c-1-0.4-1.8-1.1-2.6-1.8s-1.3-1.7-1.7-2.8c-0.4-1.1-0.6-2.2-0.6-3.4
			c0-1.2,0.2-2.3,0.6-3.3c0.4-1,1-1.9,1.8-2.7c0.7-0.8,1.6-1.4,2.6-1.8s2.1-0.7,3.3-0.7c1.6,0,3,0.3,4.1,1c1.1,0.7,2,1.6,2.6,2.7
			l-2.5,1.8c-0.4-0.8-1-1.5-1.8-1.9c-0.8-0.4-1.6-0.7-2.5-0.7c-0.7,0-1.4,0.2-2,0.5c-0.6,0.3-1.1,0.7-1.5,1.2
			c-0.4,0.5-0.8,1.1-1,1.8c-0.2,0.7-0.3,1.4-0.3,2.2c0,0.8,0.1,1.5,0.4,2.2c0.3,0.7,0.6,1.3,1.1,1.8c0.4,0.5,1,0.9,1.6,1.2
			c0.6,0.3,1.3,0.4,2,0.4c1.6,0,3.1-0.8,4.5-2.3V31h-3.4v-2.4h6.2v8.8H88V35.5z"/>
		<path d="M93.5,37.4v-17h7.5c0.8,0,1.5,0.2,2.2,0.5c0.7,0.3,1.2,0.8,1.7,1.3c0.5,0.5,0.9,1.1,1.1,1.8c0.3,0.7,0.4,1.4,0.4,2.1
			c0,1.1-0.3,2.1-0.8,3c-0.6,0.9-1.3,1.6-2.2,2l3.9,6.4h-3.7l-3.5-5.7h-3.3v5.7H93.5z M96.8,28.8h4.2c0.3,0,0.6-0.1,0.9-0.2
			c0.3-0.1,0.5-0.3,0.7-0.6c0.2-0.2,0.3-0.5,0.5-0.9c0.1-0.3,0.2-0.7,0.2-1.1c0-0.4-0.1-0.8-0.2-1.1s-0.3-0.6-0.5-0.9
			c-0.2-0.2-0.5-0.4-0.7-0.6c-0.3-0.1-0.6-0.2-0.9-0.2h-4V28.8z"/>
		<path d="M121.3,34.5v2.9h-11.8v-17h11.6v2.9h-8.3v4.1h7.2V30h-7.2v4.4H121.3z"/>
		<path d="M137.6,33c0,0.7-0.1,1.4-0.4,1.9c-0.3,0.5-0.7,1-1.2,1.4s-1.1,0.6-1.8,0.8c-0.7,0.2-1.4,0.3-2.1,0.3h-8.2v-17h9.1
			c0.6,0,1.1,0.1,1.6,0.4c0.5,0.3,0.9,0.6,1.2,1c0.3,0.4,0.6,0.9,0.8,1.4c0.2,0.5,0.3,1,0.3,1.6c0,0.8-0.2,1.6-0.6,2.3
			c-0.4,0.7-1,1.3-1.8,1.6c1,0.3,1.7,0.8,2.3,1.5C137.4,30.9,137.6,31.9,137.6,33z M127.2,23.2v4.3h4.4c0.6,0,1-0.2,1.4-0.6
			c0.4-0.4,0.6-0.9,0.6-1.6c0-0.7-0.2-1.2-0.5-1.6c-0.4-0.4-0.8-0.6-1.3-0.6H127.2z M134.3,32.4c0-0.3-0.1-0.6-0.2-0.9
			c-0.1-0.3-0.2-0.5-0.4-0.7c-0.2-0.2-0.4-0.4-0.6-0.5c-0.2-0.1-0.5-0.2-0.8-0.2h-5.1v4.5h4.9c0.3,0,0.6-0.1,0.9-0.2
			c0.3-0.1,0.5-0.3,0.7-0.5s0.3-0.4,0.5-0.7C134.3,33,134.3,32.7,134.3,32.4z"/>
	</g>
</g>
</svg>
