<svg id="Layer_1" data-name="Layer 1" xmlns="http://www.w3.org/2000/svg" viewBox="0 0 536 222"><defs><style>.cls-1{fill:#51c8ea;}.cls-2{fill:#ecf1f5;}.cls-3{fill:#4c5759;}.cls-4{fill:#4c5d67;}</style></defs><path class="cls-1" d="M112.83,55.93h37.59v111H105.09V110.16H73.25V82.6C112,82.6,112.83,55.93,112.83,55.93Z"/><path class="cls-1" d="M172.38,0h-107A65.22,65.22,0,0,0,.11,65.22v91.56A65.22,65.22,0,0,0,65.33,222H172.38a65.22,65.22,0,0,0,65.22-65.22V65.22A65.22,65.22,0,0,0,172.38,0Zm24.78,170.58a17,17,0,0,1-17,17H57.55a17,17,0,0,1-17-17V51.42a17,17,0,0,1,17-17H180.16a17,17,0,0,1,17,17Z"/><path class="cls-2" d="M150.42,55.93v111H105.09V110.16H73.25V82.6c38.72,0,39.58-26.67,39.58-26.67Z"/><path class="cls-1" d="M150.42,55.93v111H105.09V110.16H73.25V82.6c38.72,0,39.58-26.67,39.58-26.67Z"/><rect class="cls-3" x="348.6" y="55.93" width="32.7" height="110.14"/><rect class="cls-3" x="391.62" y="85.19" width="32.7" height="80.88"/><rect class="cls-3" x="391.62" y="55.93" width="32.7" height="24.95"/><polygon class="cls-3" points="305.75 77.44 280.62 122.19 305.75 166.07 344.01 165.82 316.36 121.5 341.77 77.44 305.75 77.44"/><polygon class="cls-1" points="496.08 77.44 469.92 122.19 496.08 166.07 535.89 165.82 507.12 121.5 533.57 77.44 496.08 77.44"/><rect class="cls-4" x="250.51" y="55.93" width="32.7" height="110.14"/><rect class="cls-3" x="434.65" y="55.93" width="36.14" height="110.14"/></svg>