<svg id="Layer_1" data-name="Layer 1" xmlns="http://www.w3.org/2000/svg" viewBox="0 0 449 535"><defs><style>.cls-1{fill:#e20074;}.cls-2{fill:#7b7c7e;}</style></defs><path class="cls-1" d="M224.58.12H441.12c7.81,0,7.82,0,7.82,8q0,83.25,0,166.5c0,6.84,0,6.85-6.93,6.86H425.5c-7.75,0-7.76,0-7.76-7.58,0-21.7-3.23-42.82-11.72-62.91-13.77-32.61-37.7-54.25-71.15-65.57C316.51,39.23,297.61,37,278.33,37c-4.24,0-5.81,1.32-5.81,5.77q.17,192,.11,384c0,13.6,1.71,26.94,7.55,39.44,8.1,17.34,22.45,26.66,40.72,29.48,12.44,1.92,25.16,2.11,37.77,2.64,3.79.16,4.95,1.29,4.88,4.91-.17,8.66-.26,17.34,0,26,.15,4.41-1.32,5.72-5.7,5.69-23.51-.19-47-.09-70.52-.09h-194c-7.49,0-7.5,0-7.5-7.72v-22c0-6.7,0-6.66,6.49-6.65,14.34,0,28.63-.2,42.61-4.1,20.26-5.66,33.24-18.71,38.13-39a128.7,128.7,0,0,0,3.69-29.63q.36-190.25.16-380.5c0-8.17,0-8.23-8.37-8.17-26.87.19-52.7,4.85-76.36,18.34C64.72,71.05,47.62,94.78,38.5,124.7c-5.15,16.88-6.86,34.23-7.06,51.76,0,3.51-.87,5.21-4.75,5.1-7.32-.22-14.67-.16-22,0C1.34,181.6,0,180.53,0,177q.14-86,0-172C0,.1,2.62.1,6,.1q53,.06,106,0Z"/><path class="cls-2" d="M106.46,299.74c0,16-.11,32,.08,47.95,0,4.08-1.15,5.47-5.35,5.45q-48-.21-95.92,0C1,353.16,0,351.72,0,347.66q.21-47.94,0-95.9c0-3.94,1.14-5.16,5.07-5.15q48.21.18,96.42,0c4,0,5.13,1.33,5.08,5.19C106.37,267.77,106.46,283.76,106.46,299.74Z"/><path class="cls-2" d="M343.24,299.62c0-15.66.13-31.32-.08-47-.06-4.36.91-6.11,5.75-6.07q47,.31,94,0c4.33,0,6.17.89,6.14,5.75q-.3,47.49,0,95c0,4.79-1.71,5.84-6.11,5.82q-47-.22-94,0c-4.79,0-5.84-1.67-5.78-6.06C343.37,331.28,343.24,315.45,343.24,299.62Z"/></svg>