<?xml version="1.0" encoding="UTF-8"?>
<svg id="Layer_1" data-name="Layer 1" xmlns="http://www.w3.org/2000/svg" viewBox="0 0 138.51 89.75">
  <defs>
    <style>
      .cls-1 {
        fill: #f87171;
      }

      .cls-2 {
        fill: #212529;
      }

      .cls-3 {
        fill: #facc15;
      }

      .cls-4 {
        fill: #4f7b9d;
      }

      .cls-5 {
        fill: #1d3557;
      }

      .cls-6 {
        fill: #0ea5e9;
      }
    </style>
  </defs>
  <g>
    <path class="cls-2" d="M3.54,89.66c-1.14,0-2.02-.26-2.62-.79-.61-.52-.91-1.25-.91-2.18v-26.51c0-.96,.3-1.69,.91-2.2,.61-.51,1.48-.77,2.62-.77s2.02,.26,2.63,.77c.61,.51,.91,1.25,.91,2.2v10.62H27.14v-10.62c0-.96,.3-1.69,.91-2.2,.61-.51,1.48-.77,2.62-.77s2.02,.26,2.63,.77c.61,.51,.91,1.25,.91,2.2v26.51c0,.93-.3,1.66-.91,2.18-.61,.52-1.48,.79-2.63,.79s-2.02-.26-2.62-.79c-.61-.52-.91-1.25-.91-2.18v-11.07H7.07v11.07c0,.93-.29,1.66-.88,2.18-.59,.52-1.47,.79-2.65,.79Z"/>
    <path class="cls-2" d="M54.39,89.75c-2.8,0-5.23-.46-7.3-1.4-2.06-.93-3.67-2.26-4.81-3.98-1.14-1.72-1.71-3.76-1.71-6.1,0-1.77,.32-3.35,.97-4.75s1.58-2.59,2.79-3.6c1.22-1,2.67-1.77,4.37-2.29,1.69-.52,3.59-.79,5.69-.79,2.8,0,5.23,.47,7.3,1.4,2.06,.93,3.67,2.25,4.81,3.96,1.14,1.71,1.71,3.73,1.71,6.08,0,1.77-.32,3.36-.97,4.77-.65,1.41-1.58,2.62-2.79,3.62-1.22,1.01-2.67,1.77-4.37,2.29-1.7,.52-3.59,.79-5.69,.79Zm0-4.28c1.36,0,2.56-.27,3.59-.81,1.03-.54,1.83-1.34,2.4-2.41,.57-1.06,.86-2.39,.86-3.98,0-2.4-.63-4.19-1.88-5.38-1.25-1.19-2.91-1.78-4.97-1.78-1.36,0-2.56,.26-3.59,.79-1.03,.53-1.83,1.32-2.4,2.39s-.86,2.39-.86,3.98c0,2.37,.63,4.16,1.88,5.38,1.25,1.21,2.91,1.82,4.97,1.82Z"/>
    <path class="cls-2" d="M86,89.75c-2.4,0-4.39-.33-6-.99-1.6-.66-2.79-1.63-3.57-2.9-.77-1.27-1.16-2.86-1.16-4.75v-9.58h-2.87c-.88,0-1.57-.19-2.04-.56-.48-.38-.72-.89-.72-1.55s.24-1.21,.72-1.57c.48-.36,1.16-.54,2.04-.54h2.87v-4.1c0-.93,.3-1.63,.91-2.11,.61-.48,1.46-.72,2.57-.72s1.95,.24,2.54,.72c.59,.48,.88,1.19,.88,2.11v4.1h5.86c.88,0,1.57,.18,2.04,.54,.48,.36,.72,.89,.72,1.57s-.24,1.18-.72,1.55c-.48,.38-1.16,.56-2.04,.56h-5.86v9.27c0,1.44,.39,2.52,1.16,3.24,.77,.72,2.03,1.08,3.76,1.08,.63,0,1.18-.04,1.66-.13,.48-.09,.9-.15,1.27-.18,.44-.03,.81,.08,1.11,.34,.29,.26,.44,.77,.44,1.55,0,.6-.12,1.13-.36,1.6-.24,.47-.67,.79-1.3,.97-.48,.12-1.11,.23-1.88,.34-.77,.1-1.46,.16-2.05,.16Z"/>
    <path class="cls-2" d="M107.89,89.75c-3.06,0-5.69-.46-7.9-1.4-2.21-.93-3.92-2.25-5.11-3.96-1.2-1.71-1.8-3.74-1.8-6.08s.58-4.27,1.74-5.98c1.16-1.71,2.76-3.05,4.81-4.03,2.04-.97,4.38-1.46,6.99-1.46,1.92,0,3.64,.26,5.17,.77,1.53,.51,2.84,1.25,3.92,2.21,1.09,.96,1.92,2.12,2.49,3.49,.57,1.37,.86,2.9,.86,4.61,0,.54-.23,.95-.69,1.24-.46,.29-1.12,.43-1.96,.43h-17.74v-3.24h15.53l-.88,.67c0-1.38-.25-2.53-.75-3.46-.5-.93-1.22-1.64-2.16-2.14-.94-.49-2.11-.74-3.51-.74-1.55,0-2.87,.29-3.95,.88s-1.92,1.41-2.49,2.48c-.57,1.06-.86,2.33-.86,3.8v.31c0,2.46,.71,4.3,2.13,5.51,1.42,1.21,3.51,1.82,6.27,1.82,.96,0,2.04-.1,3.23-.29,1.2-.19,2.33-.53,3.4-1.01,.77-.36,1.46-.52,2.05-.47,.59,.04,1.06,.22,1.41,.52,.35,.3,.56,.67,.64,1.1,.07,.44-.03,.88-.3,1.33-.28,.45-.75,.84-1.41,1.17-1.29,.66-2.77,1.15-4.45,1.46s-3.23,.47-4.67,.47Z"/>
    <path class="cls-2" d="M133.75,89.75c-3.06,0-5.36-.71-6.91-2.14-1.55-1.42-2.32-3.52-2.32-6.28v-21.29c0-.93,.29-1.63,.88-2.12,.59-.48,1.44-.72,2.54-.72s1.96,.24,2.57,.72c.61,.48,.91,1.19,.91,2.12v21.02c0,1.38,.36,2.4,1.08,3.06,.72,.66,1.74,.99,3.07,.99,.29,0,.57,0,.83-.02,.26-.01,.52-.04,.77-.07,.52-.06,.87,.05,1.05,.34,.18,.29,.28,.86,.28,1.73,0,.75-.18,1.34-.55,1.75-.37,.42-.98,.68-1.82,.77-.37,.03-.76,.06-1.16,.09-.41,.03-.81,.05-1.22,.05Z"/>
  </g>
  <g>
    <path class="cls-2" d="M67.64,33.65c-.67,0-1.36-.05-2.05-.16-.7-.1-1.36-.25-1.99-.44-.63-.19-1.2-.43-1.69-.72-.35-.19-.6-.44-.74-.76-.14-.31-.2-.63-.16-.95,.04-.32,.16-.6,.36-.85s.46-.41,.77-.48c.31-.07,.66-.01,1.04,.18,.66,.37,1.37,.64,2.15,.82,.78,.18,1.55,.26,2.32,.26,1.17,0,2-.18,2.5-.54,.5-.36,.74-.81,.74-1.36,0-.46-.18-.83-.53-1.1-.35-.27-.97-.5-1.85-.7l-2.71-.58c-1.54-.32-2.68-.87-3.42-1.64-.74-.78-1.12-1.8-1.12-3.06,0-.8,.17-1.53,.5-2.18,.34-.66,.81-1.22,1.42-1.7,.61-.48,1.33-.85,2.17-1.1s1.76-.38,2.77-.38c.9,0,1.78,.11,2.64,.32,.86,.22,1.62,.53,2.28,.95,.32,.19,.54,.44,.66,.73,.12,.3,.16,.59,.12,.89-.04,.3-.16,.56-.36,.78-.2,.22-.45,.37-.76,.43-.3,.06-.67,0-1.1-.22-.53-.27-1.09-.47-1.68-.6-.59-.13-1.2-.19-1.82-.19-.67,0-1.24,.09-1.72,.26-.47,.18-.83,.42-1.08,.74-.25,.32-.37,.69-.37,1.1,0,.46,.17,.84,.5,1.13s.92,.52,1.75,.7l2.71,.58c1.57,.34,2.74,.88,3.5,1.62s1.15,1.72,1.15,2.94c0,.8-.16,1.52-.48,2.17-.32,.65-.78,1.2-1.39,1.67-.61,.46-1.34,.82-2.18,1.07-.85,.25-1.8,.37-2.86,.37Z"/>
    <path class="cls-2" d="M82.4,33.6c-.61,0-1.07-.17-1.39-.5s-.48-.82-.48-1.44v-6.96l.77,2.14-5.66-8.04c-.22-.34-.32-.7-.29-1.09,.03-.39,.19-.73,.48-1.02s.7-.43,1.22-.43c.38,0,.73,.1,1.04,.29,.31,.19,.61,.5,.9,.91l3.84,5.54h-.77l3.84-5.54c.3-.43,.6-.74,.9-.92s.64-.28,1.04-.28c.51,0,.91,.13,1.2,.4,.29,.26,.44,.59,.46,.98s-.12,.8-.41,1.21l-5.59,7.99,.74-2.14v6.96c0,1.3-.62,1.94-1.85,1.94Z"/>
    <path class="cls-2" d="M94.43,33.6c-.56,0-.99-.16-1.28-.47-.3-.31-.44-.76-.44-1.33v-13.68c0-.61,.15-1.07,.44-1.39,.3-.32,.69-.48,1.19-.48,.43,0,.76,.08,1,.25,.23,.17,.5,.44,.8,.83l8.42,10.73h-.65v-10.03c0-.56,.15-1,.44-1.31,.3-.31,.72-.47,1.28-.47s.99,.16,1.28,.47,.44,.75,.44,1.31v13.85c0,.53-.14,.95-.41,1.26-.27,.31-.64,.47-1.1,.47s-.8-.09-1.07-.26-.55-.46-.85-.84l-8.4-10.73h.62v10.03c0,.58-.14,1.02-.43,1.33s-.72,.47-1.3,.47Z"/>
    <path class="cls-2" d="M118.98,33.65c-1.82,0-3.38-.36-4.68-1.08-1.3-.72-2.29-1.73-2.99-3.04-.7-1.3-1.04-2.84-1.04-4.62,0-1.33,.2-2.52,.59-3.59,.39-1.06,.96-1.98,1.72-2.74,.75-.76,1.67-1.35,2.75-1.76,1.08-.42,2.3-.62,3.66-.62,.8,0,1.61,.1,2.44,.3,.82,.2,1.54,.48,2.15,.85,.4,.22,.67,.5,.82,.84,.14,.34,.19,.67,.13,1.01-.06,.34-.19,.62-.41,.86-.22,.24-.48,.39-.8,.46-.32,.06-.68,0-1.08-.22-.48-.29-.98-.5-1.51-.62-.53-.13-1.06-.19-1.61-.19-1.07,0-1.97,.21-2.7,.64s-1.28,1.04-1.64,1.84c-.37,.8-.55,1.78-.55,2.95s.18,2.14,.55,2.95c.37,.82,.92,1.44,1.64,1.86,.73,.42,1.63,.64,2.7,.64,.51,0,1.04-.06,1.57-.19,.54-.13,1.05-.33,1.55-.6,.42-.21,.79-.28,1.12-.23,.33,.06,.6,.2,.82,.43s.35,.51,.41,.83c.06,.32,.02,.64-.11,.96-.13,.32-.37,.59-.72,.82-.59,.4-1.32,.71-2.18,.94-.86,.22-1.72,.34-2.57,.34Z"/>
  </g>
  <g>
    <path class="cls-5" d="M46.74,19.53H1.72c-.83,0-1.5-.67-1.5-1.5s.67-1.5,1.5-1.5H46.07l10.77-11.77c.28-.31,.69-.49,1.11-.49h72.55c.83,0,1.5,.67,1.5,1.5s-.67,1.5-1.5,1.5H58.61l-10.77,11.77c-.28,.31-.69,.49-1.11,.49Z"/>
    <circle class="cls-6" cx="131.29" cy="5.77" r="5.77"/>
  </g>
  <path class="cls-4" d="M89.57,46.75h-31.58c-.4,0-.78-.16-1.06-.44l-15.02-15.02H18.15c-.83,0-1.5-.67-1.5-1.5s.67-1.5,1.5-1.5h24.38c.4,0,.78,.16,1.06,.44l15.02,15.02h30.96c.83,0,1.5,.67,1.5,1.5s-.67,1.5-1.5,1.5Z"/>
  <circle class="cls-1" cx="89.57" cy="45.25" r="5.77"/>
  <path class="cls-5" d="M34.59,44.25H1.72c-.83,0-1.5-.67-1.5-1.5s.67-1.5,1.5-1.5H34.59c.83,0,1.5,.67,1.5,1.5s-.67,1.5-1.5,1.5Z"/>
  <circle class="cls-3" cx="34.59" cy="42.75" r="5.77"/>
</svg>