<?xml version="1.0" encoding="UTF-8"?>
<svg id="Layer_1" data-name="Layer 1" xmlns="http://www.w3.org/2000/svg" xmlns:xlink="http://www.w3.org/1999/xlink" viewBox="0 0 61.65 61.65">
  <defs>
    <style>
      .cls-1 {
        fill: #f87171;
      }

      .cls-2 {
        fill: #fff;
      }

      .cls-3 {
        fill: #facc15;
      }

      .cls-4 {
        fill: url(#linear-gradient);
      }

      .cls-5 {
        fill: #0ea5e9;
      }
    </style>
    <linearGradient id="linear-gradient" x1="2.34" y1="63.08" x2="59.69" y2="-1.87" gradientUnits="userSpaceOnUse">
      <stop offset="0" stop-color="#4f7b9d"/>
      <stop offset="1" stop-color="#1d3557"/>
    </linearGradient>
  </defs>
  <rect class="cls-4" width="61.65" height="61.65" rx="7.97" ry="7.97"/>
  <g>
    <circle class="cls-3" cx="16.69" cy="49.82" r="4.25"/>
    <circle class="cls-1" cx="30.82" cy="49.82" r="4.25"/>
    <circle class="cls-5" cx="44.96" cy="49.82" r="4.25"/>
  </g>
  <path class="cls-2" d="M18.94,38.13c-1,0-1.77-.23-2.3-.69-.53-.46-.8-1.1-.8-1.91V12.32c0-.84,.27-1.48,.8-1.93,.53-.45,1.3-.67,2.3-.67s1.77,.22,2.3,.67c.53,.45,.8,1.09,.8,1.93v9.3h17.57V12.32c0-.84,.27-1.48,.8-1.93,.53-.45,1.3-.67,2.3-.67s1.77,.22,2.3,.67c.53,.45,.8,1.09,.8,1.93v23.21c0,.81-.27,1.45-.8,1.91-.53,.46-1.3,.69-2.3,.69s-1.77-.23-2.3-.69c-.53-.46-.8-1.1-.8-1.91v-9.69H22.04v9.69c0,.81-.26,1.45-.77,1.91-.52,.46-1.29,.69-2.32,.69Z"/>
</svg>