<?xml version="1.0" encoding="utf-8"?>
<!-- Generator: Adobe Illustrator 23.0.3, SVG Export Plug-In . SVG Version: 6.00 Build 0)  -->
<svg version="1.2" baseProfile="tiny" id="Layer_1" xmlns="http://www.w3.org/2000/svg" xmlns:xlink="http://www.w3.org/1999/xlink"
	 x="0px" y="0px" viewBox="0 0 32 32" xml:space="preserve">
<g>
	<path fill="#233C7C" d="M179.2-29c0,24.5,0,49.1,0,73.6c-0.4,0.3-0.3,0.7-0.4,1.1c-1.8,7.3-6.4,11.9-13.6,14
		c-0.6,0.2-1.3,0.1-1.8,0.5c-29.4,0-58.8,0-88.2,0c-0.8,0-1-0.2-1-1c0-29.5,0-59,0-88.4c0.4-0.3,0.3-0.7,0.4-1.1
		c1.8-7.3,6.4-11.9,13.6-14c0.6-0.2,1.3-0.1,1.8-0.5c24.5,0,48.9,0,73.4,0c0.1,0.2,0.3,0.2,0.4,0.2c6.8,1.3,11.5,5.2,14.2,11.6
		C178.5-31.7,178.8-30.3,179.2-29z M130.5,6c0.5-0.4,0.9-0.8,1.3-1.2c5.4-4.8,5.7-13.6,0.6-18.6c-2.7-2.7-6.1-3.8-9.8-4.1
		c-4.8-0.4-9.6-0.2-14.3-0.1c-3.4,0-5.6,2.3-5.6,5.7c0,14.7,0,29.4,0,44c0,0.8,0.2,1.1,1.1,1.1c5,0,9.9,0,14.9,0
		c2.2,0,4.3-0.1,6.4-0.4c6.8-1.2,12.6-5.6,12.9-13.6c0.2-5.2-1.6-9.4-6.2-12.1C131.3,6.5,131,6.3,130.5,6z M142.9,27.3
		c0,3.4,2.8,6.2,6.2,6.1c3.4,0,6.1-2.8,6.1-6.2c0-3.4-2.7-6.1-6.2-6.1C145.7,21.1,142.9,23.9,142.9,27.3z"/>
	<path fill="#FDFDFD" d="M179.2-29c-0.4-1.3-0.7-2.7-1.2-4c-2.6-6.4-7.4-10.3-14.2-11.6c-0.2,0-0.4,0-0.4-0.2c5,0,10.1,0,15.1,0
		c0.6,0,0.7,0.1,0.7,0.7C179.2-39.1,179.2-34,179.2-29z"/>
	<path fill="#FDFDFD" d="M90-44.8c-0.5,0.4-1.2,0.3-1.8,0.5c-7.2,2.1-11.7,6.7-13.6,14c-0.1,0.4,0,0.8-0.4,1.1c0-5,0-9.9,0-14.9
		c0-0.6,0.1-0.7,0.7-0.7C79.9-44.8,85-44.8,90-44.8z"/>
	<path fill="#FDFDFD" d="M163.4,60.2c0.5-0.4,1.2-0.3,1.8-0.5c7.2-2.1,11.7-6.7,13.6-14c0.1-0.4,0-0.8,0.4-1.1c0,5,0,9.9,0,14.9
		c0,0.6-0.1,0.7-0.7,0.7C173.5,60.2,168.5,60.2,163.4,60.2z"/>
	<path fill="#FDFDFD" d="M130.5,6c0.5,0.3,0.8,0.5,1.2,0.7c4.7,2.7,6.5,7,6.2,12.1c-0.3,8-6.2,12.4-12.9,13.6
		c-2.1,0.4-4.3,0.5-6.4,0.4c-5,0-9.9,0-14.9,0c-0.9,0-1.1-0.3-1.1-1.1c0-14.7,0-29.4,0-44c0-3.4,2.1-5.7,5.6-5.7
		c4.8,0,9.6-0.2,14.3,0.1c3.7,0.3,7.1,1.4,9.8,4.1c5.1,5,4.8,13.8-0.6,18.6C131.4,5.2,131,5.6,130.5,6z M112.5,18.5
		C112.5,18.5,112.5,18.5,112.5,18.5c0,1.6,0,3.3,0,4.9c0,0.6,0.2,0.8,0.8,0.8c2.8,0,5.6,0,8.3,0c3.5-0.1,5.9-2.5,6.2-5.9
		c0.3-4.2-1.5-7-5.2-7.7c-2.2-0.4-4.5-0.1-6.8-0.2c-2.2,0-3.3,1-3.4,3.3C112.5,15.3,112.5,16.9,112.5,18.5z M112.5-2.4
		C112.5-2.4,112.5-2.4,112.5-2.4c0,1.4,0,2.8,0,4.2c0,0.5,0,0.8,0.6,0.8c2.5,0,5,0.1,7.4-0.1c3.5-0.2,5.6-2.7,5.5-6.5
		c-0.1-3.5-2.3-5.6-5.8-5.7c-1.5,0-3,0-4.6,0c-2,0.1-3.1,1.1-3.2,3.1C112.5-5.1,112.5-3.8,112.5-2.4z"/>
	<path fill="#00ACED" d="M142.9,27.3c0-3.4,2.8-6.2,6.1-6.2c3.4,0,6.2,2.7,6.2,6.1c0,3.4-2.7,6.2-6.1,6.2
		C145.7,33.5,142.9,30.7,142.9,27.3z"/>
	<path fill="#233C7C" d="M112.5,18.5c0-1.6,0-3.2,0-4.8c0.1-2.3,1.2-3.3,3.4-3.3c2.3,0,4.5-0.2,6.8,0.2c3.6,0.7,5.5,3.5,5.2,7.7
		c-0.3,3.4-2.8,5.8-6.2,5.9c-2.8,0.1-5.6,0-8.3,0c-0.6,0-0.8-0.2-0.8-0.8C112.5,21.8,112.5,20.1,112.5,18.5
		C112.5,18.5,112.5,18.5,112.5,18.5z"/>
	<path fill="#233C7C" d="M112.5-2.4c0-1.4,0-2.7,0-4.1c0.1-2,1.2-3.1,3.2-3.1c1.5,0,3,0,4.6,0c3.5,0.1,5.7,2.2,5.8,5.7
		c0.1,3.8-2,6.3-5.5,6.5c-2.5,0.1-5,0-7.4,0.1c-0.6,0-0.6-0.3-0.6-0.8C112.5,0.4,112.5-1,112.5-2.4C112.5-2.4,112.5-2.4,112.5-2.4z"
		/>
</g>
<g>
	<circle fill="#233C7C" cx="16" cy="16" r="15"/>
	<g>
		<path fill="#FDFDFD" d="M17.5,15.5c0.1,0.1,0.2,0.1,0.4,0.2c1.4,0.8,1.9,2,1.8,3.5c-0.1,2.3-1.8,3.6-3.8,4
			c-0.6,0.1-1.2,0.1-1.9,0.1c-1.5,0-2.9,0-4.4,0c-0.3,0-0.3-0.1-0.3-0.3c0-4.3,0-8.6,0-12.9c0-1,0.6-1.7,1.6-1.7
			c1.4,0,2.8-0.1,4.2,0C16.2,8.6,17.2,9,18,9.7c1.5,1.5,1.4,4-0.2,5.4C17.7,15.3,17.6,15.4,17.5,15.5z M12.2,19.2
			C12.2,19.2,12.2,19.2,12.2,19.2c0,0.5,0,1,0,1.4c0,0.2,0.1,0.2,0.2,0.2c0.8,0,1.6,0,2.4,0c1,0,1.7-0.7,1.8-1.7
			c0.1-1.2-0.5-2.1-1.5-2.2c-0.7-0.1-1.3,0-2-0.1c-0.7,0-1,0.3-1,1C12.2,18.2,12.2,18.7,12.2,19.2z M12.2,13.1
			C12.2,13.1,12.2,13.1,12.2,13.1c0,0.4,0,0.8,0,1.2c0,0.1,0,0.2,0.2,0.2c0.7,0,1.5,0,2.2,0c1-0.1,1.6-0.8,1.6-1.9
			c0-1-0.7-1.6-1.7-1.7c-0.4,0-0.9,0-1.3,0c-0.6,0-0.9,0.3-0.9,0.9C12.2,12.3,12.2,12.7,12.2,13.1z"/>
		<path fill="#00ACED" d="M21.1,21.7c0-1,0.8-1.8,1.8-1.8c1,0,1.8,0.8,1.8,1.8c0,1-0.8,1.8-1.8,1.8C21.9,23.5,21.1,22.7,21.1,21.7z"
			/>
	</g>
</g>
</svg>
