<?xml version="1.0" encoding="utf-8"?>
<!-- Generator: Adobe Illustrator 23.0.3, SVG Export Plug-In . SVG Version: 6.00 Build 0)  -->
<svg version="1.2" baseProfile="tiny" id="Layer_1" xmlns="http://www.w3.org/2000/svg" xmlns:xlink="http://www.w3.org/1999/xlink"
	 x="0px" y="0px" viewBox="0 0 32 32" xml:space="preserve">
<g>
	<g>
		<circle fill="#20BABA" cx="16" cy="16" r="15"/>
		<path fill="#FFFFFF" d="M18.4,11.7c-0.3,0.9-1.2,1.4-2.1,1.2c-0.9-0.3-1.4-1.2-1.2-2.1c0.3-0.9,1.2-1.4,2.1-1.2
			C18.2,9.8,18.7,10.8,18.4,11.7L18.4,11.7z"/>
		<path fill="#FFFFFF" d="M17,17.9l-0.3,0.2l-0.3-0.3c-1.8-1.5-3.7-4.8-3.7-6.8c0-2.4,1.7-4.1,4.1-4.1c2.5,0,4.1,1.8,4.1,4.5
			C21,13,19.3,16.2,17,17.9L17,17.9z M22.2,7.6c-1-1.6-2.6-2.7-5.3-2.7c-3.3,0-5.7,1.9-6.1,4.7c-0.3,2.2,0.6,4.8,1.7,6.7
			c1.9,3,1.8,3.6,1.7,5C14,24.9,10,27.1,10,27.1c3.6-0.6,5.8-2.9,6.8-4c4-4.3,5.5-7.9,6-10.3C23.3,11,23.1,9,22.2,7.6L22.2,7.6z"/>
	</g>
</g>
</svg>
