<?xml version="1.0" encoding="utf-8"?>
<!-- Generator: Adobe Illustrator 24.3.0, SVG Export Plug-In . SVG Version: 6.00 Build 0)  -->
<svg version="1.1" id="flag-icon-css-mx" xmlns="http://www.w3.org/2000/svg" xmlns:xlink="http://www.w3.org/1999/xlink" x="0px"
	 y="0px" viewBox="0 0 640 480" style="enable-background:new 0 0 640 480;" xml:space="preserve">
<style type="text/css">
	.st0{fill:#FFFFFF;}
	.st1{fill:#CD202A;}
	.st2{fill:#FFFFFF;stroke:#0872A7;}
	.st3{fill:#F9AA51;stroke:#953220;stroke-width:0.5;stroke-linecap:round;stroke-linejoin:round;}
	.st4{fill:#0C8489;}
	.st5{fill:#04534E;}
	.st6{fill:#8CBEBF;}
	.st7{fill:#8CBEBF;stroke:#04534E;stroke-width:0.5;}
	.st8{fill:#0C8489;stroke:#04534E;stroke-width:0.5;}
	.st9{fill:#FCCA3E;stroke:#AA8C30;stroke-width:0.3;}
	.st10{fill:url(#SVGID_1_);}
	.st11{fill:url(#SVGID_2_);}
	.st12{fill:#E92736;}
	.st13{fill:url(#SVGID_3_);}
	.st14{fill:#A8AC71;}
	.st15{fill:#1C242F;}
	.st16{fill:#AF7029;}
	.st17{fill:#AB6D29;stroke:#4D2A15;stroke-width:0.4;}
	.st18{fill:#D2A567;}
	.st19{fill:#4D2A15;}
	.st20{fill:#202020;}
	.st21{fill:#202220;}
	.st22{fill:#F8C83C;stroke:#977C2E;stroke-width:0.3;stroke-linecap:round;stroke-linejoin:round;}
	.st23{fill:#8F4620;}
	.st24{fill:#AB6D29;}
	.st25{fill:#8B441F;stroke:#5C3A1D;stroke-width:0.1;}
	.st26{fill:#8B441F;}
	.st27{fill:#312317;}
	.st28{fill:#45392D;}
	.st29{fill:#DBAD6C;}
	.st30{fill:#B27129;}
	.st31{fill:#BF802D;}
	.st32{fill:#F9C83A;}
	.st33{fill:#CE1126;}
	.st34{fill:#006847;}
	.st35{fill:#FCCA3E;stroke:#AA8C30;stroke-width:0.2;}
	.st36{fill:#AA8C30;}
	.st37{fill:#F8C83C;}
	.st38{fill:#231F20;}
	.st39{fill:url(#SVGID_4_);}
	.st40{fill:url(#SVGID_5_);}
	.st41{fill:#F7E204;}
	.st42{fill:url(#SVGID_6_);}
	.st43{fill:#F1A720;}
	.st44{fill:#C6C7A6;}
	.st45{fill:#78732E;}
	.st46{fill:#F8C83C;stroke:#977C2E;stroke-width:0.3;}
	.st47{fill:#FCCA3D;}
	.st48{fill:#6F5B24;}
	.st49{fill:#404118;}
	.st50{fill:none;stroke:#78732E;stroke-width:0.2;}
	.st51{fill:#4B4139;}
	.st52{fill:#904720;}
	.st53{fill:#803F1D;}
	.st54{fill:#1E2121;}
	.st55{fill:#5C3818;}
	.st56{fill:#6C3F18;}
	.st57{fill:#6C4119;}
	.st58{fill:#FDEAAF;}
	.st59{fill:#513625;}
	.st60{fill:#977C2E;}
</style>
<path class="st0" d="M0,0"/>
<path class="st0" d="M0,0"/>
<path class="st1" d="M0,0"/>
<path class="st2" d="M0,0"/>
<path class="st3" d="M0,0"/>
<path class="st3" d="M0,0"/>
<path class="st4" d="M0,0"/>
<path class="st5" d="M0,0"/>
<path class="st6" d="M0,0"/>
<path class="st6" d="M0,0"/>
<path class="st6" d="M0,0"/>
<path class="st7" d="M0,0"/>
<path class="st4" d="M0,0"/>
<path class="st4" d="M0,0"/>
<path class="st5" d="M0,0"/>
<path class="st8" d="M0,0"/>
<path class="st8" d="M0,0"/>
<path class="st8" d="M0,0"/>
<path class="st8" d="M0,0"/>
<path class="st9" d="M0,0"/>
<path class="st9" d="M0,0"/>
<path class="st9" d="M0,0"/>
<path class="st9" d="M0,0"/>
<radialGradient id="SVGID_1_" cx="-620.1614" cy="-2480.4604" r="0" gradientTransform="matrix(-1.330073e-02 -0.1442 -0.1338 1.270284e-02 -340.1142 -57.906)" gradientUnits="userSpaceOnUse">
	<stop  offset="0" style="stop-color:#FFFFFF"/>
	<stop  offset="1" style="stop-color:#F15770"/>
</radialGradient>
<path class="st10" d="M0,0"/>
<radialGradient id="SVGID_2_" cx="-620.1614" cy="-2480.4604" r="0" gradientTransform="matrix(-1.330073e-02 -0.1442 -0.1338 1.270284e-02 -340.1142 -57.906)" gradientUnits="userSpaceOnUse">
	<stop  offset="0" style="stop-color:#FFFFFF"/>
	<stop  offset="1" style="stop-color:#F15770"/>
</radialGradient>
<path class="st11" d="M0,0"/>
<path class="st12" d="M0,0"/>
<radialGradient id="SVGID_3_" cx="2492.9717" cy="1313.9449" r="0" gradientTransform="matrix(4.843098e-02 5.780590e-02 0.1121 -9.670497e-02 -268.085 -17.0435)" gradientUnits="userSpaceOnUse">
	<stop  offset="0" style="stop-color:#FFFFFF"/>
	<stop  offset="1" style="stop-color:#F15770"/>
</radialGradient>
<path class="st13" d="M0,0"/>
<path class="st14" d="M0,0"/>
<path class="st15" d="M0,0"/>
<path class="st15" d="M0,0"/>
<path class="st15" d="M0,0"/>
<path class="st16" d="M0,0"/>
<path class="st16" d="M0,0"/>
<path class="st16" d="M0,0"/>
<path class="st16" d="M0,0"/>
<path class="st16" d="M0,0"/>
<path class="st17" d="M0,0"/>
<path class="st18" d="M0,0"/>
<path class="st19" d="M0,0"/>
<path class="st19" d="M0,0"/>
<path class="st19" d="M0,0"/>
<path class="st19" d="M0,0"/>
<path class="st20" d="M0,0"/>
<path class="st20" d="M0,0"/>
<path class="st20" d="M0,0"/>
<path class="st20" d="M0,0"/>
<path class="st20" d="M0,0"/>
<path class="st20" d="M0,0"/>
<path class="st21" d="M0,0"/>
<path class="st21" d="M0,0"/>
<path class="st21" d="M0,0"/>
<path class="st21" d="M0,0"/>
<path class="st21" d="M0,0"/>
<path class="st22" d="M0,0"/>
<path class="st22" d="M0,0"/>
<path class="st18" d="M0,0"/>
<path class="st19" d="M0,0"/>
<path class="st23" d="M0,0"/>
<path class="st24" d="M0,0"/>
<path class="st19" d="M0,0"/>
<path class="st19" d="M0,0"/>
<path class="st20" d="M0,0"/>
<path class="st19" d="M0,0"/>
<path class="st19" d="M0,0"/>
<path class="st19" d="M0,0"/>
<path class="st25" d="M0,0"/>
<path class="st25" d="M0,0"/>
<path class="st26" d="M0,0"/>
<path class="st26" d="M0,0"/>
<path class="st27" d="M0,0"/>
<path class="st23" d="M0,0"/>
<path class="st20" d="M0,0"/>
<path class="st20" d="M0,0"/>
<path class="st28" d="M0,0"/>
<path class="st18" d="M0,0"/>
<path class="st29" d="M0,0"/>
<path class="st29" d="M0,0"/>
<path class="st29" d="M0,0"/>
<path class="st24" d="M0,0"/>
<path class="st24" d="M0,0"/>
<path class="st24" d="M0,0"/>
<path class="st24" d="M0,0"/>
<path class="st30" d="M0,0"/>
<path class="st30" d="M0,0"/>
<path class="st30" d="M0,0"/>
<path class="st30" d="M0,0"/>
<path class="st23" d="M0,0"/>
<path class="st23" d="M0,0"/>
<path class="st19" d="M0,0"/>
<path class="st19" d="M0,0"/>
<path class="st19" d="M0,0"/>
<path class="st19" d="M0,0"/>
<path class="st19" d="M0,0"/>
<path class="st19" d="M0,0"/>
<path class="st19" d="M0,0"/>
<path class="st31" d="M0,0"/>
<path class="st31" d="M0,0"/>
<path class="st32" d="M0,0"/>
<g>
	<path class="st33" d="M426.7,0H640v480H426.7V0z"/>
	<path class="st0" d="M213.3,0h213.4v480H213.3V0z"/>
	<path class="st34" d="M0,0h213.3v480H0V0z"/>
	<path class="st9" d="M355.8,289.4l0.2,4.5l1.7-1.1l-1.3-3.7L355.8,289.4z"/>
	<circle class="st35" cx="355.6" cy="288.2" r="1.4"/>
	<path class="st9" d="M361.1,296.4l-3.2-3.1l-1.5,1.2l4.5,2.6L361.1,296.4z"/>
	<path class="st35" d="M360.9,298.2c-0.5-0.6-0.3-1.5,0.3-2c0.7-0.5,1.6-0.4,2,0.2c0.5,0.6,0.3,1.5-0.3,2
		C362.2,298.9,361.3,298.8,360.9,298.2z"/>
	<path class="st9" d="M386.3,249.6l3.4,3.3l0.4-1.7l-3.1-2L386.3,249.6z"/>
	<circle class="st35" cx="385.9" cy="248.7" r="1.4"/>
	<path class="st9" d="M395.2,251.6L390,253l0.5-1.7l4.4-0.4L395.2,251.6z"/>
	<circle class="st35" cx="396" cy="250.8" r="1.4"/>
	<path class="st9" d="M378,276.8l-3.2-4.8l0.5-0.3l3.5,4.2L378,276.8z"/>
	<circle class="st35" cx="374.5" cy="270.8" r="1.4"/>
	<path class="st9" d="M378.1,277l4,0.7l0.1-0.5l-3.3-1.4L378.1,277z"/>
	<circle class="st35" cx="383.3" cy="277.7" r="1.4"/>
	<path class="st35" d="M284.6,288c0,0.8-0.5,1.2-1,1.2s-1-0.5-1-1.2s0.5-1.3,1-1.3s1,0.7,1,1.4V288z"/>
	<path class="st9" d="M284.6,290.3l1,5l-1.3-0.5l-0.4-4.3L284.6,290.3z"/>
	<path class="st35" d="M285.7,288.6c0.6,0.7-0.4,1.9-1.4,2.2c-1,0.3-2.4-0.2-2.4-1.2s1.6-0.5,2-0.6
		C284.5,288.8,285.1,287.8,285.7,288.6z"/>
	<ellipse class="st35" cx="277" cy="296.3" rx="1.6" ry="1.1"/>
	<path class="st9" d="M279.6,296l4.8-0.2l-0.8-1l-4,0.4V296z"/>
	<path class="st35" d="M280,295.4c0.5,1.3,0.5,3-0.9,2.7c-1.4-0.1-1-1.4-1.2-1.8c-0.2-0.9-1-1.7-0.2-2.5S279.7,294.2,280,295.4
		L280,295.4z"/>
	<ellipse class="st35" cx="264.4" cy="269.2" rx="0.9" ry="1.4"/>
	<path class="st9" d="M264.4,272.4l0.1,4.6l-1.2-1v-3.8L264.4,272.4z"/>
	<path class="st35" d="M266.2,271c0.3,1-1.3,1.6-2.4,1.4c-1-0.2-1.9-0.7-1.7-1.7c0.1-1,1.5-0.8,2-0.5c0.4,0.3,1.8-0.8,2.1,0.7V271z"
		/>
	<ellipse class="st35" cx="256.2" cy="276.5" rx="1.6" ry="0.7"/>
	<path class="st9" d="M259.1,276.5l3.6-0.3l1.6,1.2l-5.3-0.2L259.1,276.5z"/>
	<path class="st35" d="M257.8,274.5c1,0,1.6,1.1,1.5,2.3c-0.2,1.1-1,2-2,2c-0.9-0.2-0.8-1-0.8-1.2c0-0.3,0.5-0.7,0.6-1
		c0-0.4-0.3-1.3-0.1-1.6C257,274.6,257.3,274.5,257.8,274.5L257.8,274.5z M254.8,246.2c-0.4,0.6-1.2,1.1-1.6,0.9
		c-0.4-0.3-0.2-1.2,0.2-1.8c0.4-0.7,1-1,1.4-0.8C255.2,244.8,255.2,245.5,254.8,246.2L254.8,246.2z"/>
	<path class="st9" d="M250.7,253.5l2-4.8l-0.2-0.3l-2.4,3.4L250.7,253.5z"/>
	<path class="st35" d="M252.4,248.7c-1-0.7-1.2-1.5-1-2.3c0.4-0.7,1.2-0.2,1.2-0.2l0.8,0.7c0.4,0.2,1,0,1.4,0.6
		c0.5,0.6,0.2,1.2-0.1,1.4C254.3,249,253.2,249.3,252.4,248.7L252.4,248.7z M243.9,248.1c0.7,0.4,1.1,1,0.9,1.5
		c-0.3,0.5-1,0.5-1.8,0c-0.7-0.3-1-1-0.8-1.5C242.4,247.7,243.2,247.6,243.9,248.1L243.9,248.1z"/>
	<path class="st9" d="M246,250.2l3.8,2.2l-0.1,1.8l-4.1-3.5L246,250.2z"/>
	<path class="st35" d="M246,250.6c-0.8,1-1.6,1-2.3,0.7c-0.7-0.5-0.1-1.2-0.1-1.2l0.8-0.7c0.2-0.4,0-1,0.7-1.4s1.2,0,1.3,0.3
		C246.5,248.7,246.7,249.8,246,250.6L246,250.6z"/>
	<path class="st36" d="M356.6,289.8l-0.4,0.4l-0.3,1v-1.5l0.5-0.3L356.6,289.8L356.6,289.8z M356.8,288.9c0,0-0.3,0.5-1.1,0.5
		s-1.2-0.4-1.3-0.8c-0.1-0.4-0.1-0.7,0.2-1.2c0.2-0.5-0.4,0.4-0.4,0.4v1l0.6,0.6l0.5,0.2h0.4l0.7-0.2l0.4-0.3L356.8,288.9
		L356.8,288.9z M361,296.2c0,0-0.4,0.2-0.7,0.1c-1.9-0.6-3.5-1.8-3.5-1.8l3.8,2.4L361,296.2L361,296.2z M363.4,297.3
		c0,0,0,0.7-0.8,1c-0.7,0.3-1.2,0.2-1.5-0.1s-0.4-0.6-0.4-1.2l-0.1,0.6l0.4,0.8l0.8,0.4l0.5-0.1l0.5-0.2l0.4-0.5l0.3-0.5
		L363.4,297.3L363.4,297.3z M387.7,249.7l-0.1,0.4v0.7l-0.9-1l0.4-0.5L387.7,249.7L387.7,249.7z M387.2,248.5c0,0.7-0.9,1.6-1.6,1.3
		s-1.2-1-0.9-1.8l-0.2,0.3l0.1,1.1l0.7,0.6h0.9l0.6-0.3l0.4-0.7V248.5L387.2,248.5z M397.2,250.3
		C397.2,250.3,397.1,249.9,397.2,250.3s-0.6,1.7-1.4,1.6c-0.7-0.1-1-0.8-1-1.4c0-0.6-0.1,0.2-0.1,0.2v0.8l0.5,0.4l0.6,0.4l0.6-0.2
		l0.7-0.3l0.2-0.6v-0.9H397.2z"/>
	<path class="st36" d="M393.8,251c0,0,0,0.4-0.4,0.7l-1.3,0.7l2.8-0.8l-0.2-0.7L393.8,251L393.8,251z M376.7,273.5l-0.1,0.5v0.8
		l-1.6-2.5l0.5-0.3L376.7,273.5z M375.8,271.1c-0.2,0.7-1.4,1-2,0.8c-0.5-0.4-1-1.6-0.3-2l-0.4,0.2l-0.1,0.7l0.2,0.7l0.6,0.7
		l0.5,0.1l0.8-0.2l0.6-0.4C375.7,271.7,376.1,270.4,375.8,271.1L375.8,271.1z M381.4,276.8c0,0,0,0.3-0.5,0.3h-1.6l2.6,0.6l0.2-0.6
		L381.4,276.8z"/>
	<path class="st36" d="M384.6,277.5c0.3,0.8-0.5,1.7-1.5,1.4c-1-0.3-1.3-1.3-1-1.8l-0.2,0.6l0.2,0.8l0.6,0.6h1.3l0.6-0.7l0.2-0.7
		l-0.1-0.2L384.6,277.5z M285.6,288.6c0.3,0.3-0.1,1.5-1.2,2c-1.2,0.4-1.7,0-2-0.4s-0.3-0.8-0.3-0.8l-0.2,0.2l0.2,0.6l0.5,0.5l1,0.2
		l0.8-0.1l0.7-0.5l0.4-0.3l0.3-0.5v-0.6L285.6,288.6L285.6,288.6z M0,0"/>
	<path class="st36" d="M252,249.1v0.6l-0.2,1.1l0.9-2l-0.4-0.2L252,249.1L252,249.1z M246.6,250.6l0.2,0.5c0.2,0.5,2.3,2.6,2.3,2.6
		l-3.3-2.9l0.4-0.5L246.6,250.6L246.6,250.6z M245.6,250.9c0,0-0.5,0.3-1,0.3c-0.3,0-1,0-1-0.4c-0.1-0.5,0.1-0.7,0.1-0.7l-0.3,0.6
		l0.1,0.4l0.5,0.3h0.7l0.6-0.3L245.6,250.9L245.6,250.9z M244.1,249.5h-0.5c-0.7,0-1.4-0.8-1.4-0.8l0.5,0.8l1,0.5L244.1,249.5z M0,0
		 M0,0 M0,0 M0,0 M0,0"/>
	<path class="st0" d="M314.4,310.8c0,0-0.6-0.6-1.4-1c-0.9-0.5-1.2-0.4-1.2-0.4l-0.4-0.1l0.8-2l5.5-5.3l0.9-5.3h3.4v7.2l1,0.5
		l6.2,3.7v1.6l-1,0.4l-0.7,0.4l-2.3,0.2l-4-3l-1.8-1.7l-3,4L314.4,310.8L314.4,310.8z"/>
	<path class="st1" d="M332.5,310c0,0-0.4-0.4-1.8-0.4l-1.5,0.1c0,0-0.8-1-2-1.7c-1.2-0.8-2.1-0.7-3.5-1.6c-1.3-0.8-2-2.1-2-2.1l1-2
		c0,0,1.2,1.5,2.4,2.4c1.1,0.9,3.7,1.7,4.6,2.4L332.5,310L332.5,310z"/>
	<circle class="st2" cx="284.5" cy="280.7" r="2.1"/>
	<circle class="st2" cx="296.4" cy="270.9" r="2.1"/>
	<circle class="st2" cx="346.5" cy="286.6" r="2.1"/>
	<path class="st0" d="M281,270.2c0-1-1.6-1.9-2.6-1.9s-2,0-1.8,0.5c0.1,0.6,2.7,1.3,2.8,1.6c0,0.3-0.8,0.6-0.4,1
		c0.5,0.4,1,0.1,1.4-0.2c0.4-0.3,0.7-0.4,0.7-1H281z"/>
	<path class="st37" d="M297.7,288.3c0.4,1.4-0.7,2-2,2.7c-1.5,0.6-4.3,0.2-5-0.9c-0.6-1.1,1-3,2.8-3.4
		C295.2,286.3,297.3,287,297.7,288.3L297.7,288.3z"/>
	<path class="st0" d="M294.8,289c0.5,0,0.6,1,1,0.8c0.5,0,1-0.8,0.8-1.3c-0.1-0.6-1-1.3-1.8-1.2c-0.8,0-3,2-2.8,2.5s0.8,0.5,1.2,0.3
		C293.6,289.9,294.2,289.1,294.8,289L294.8,289z"/>
	<path class="st37" d="M349.2,281c1.3,1.7,3.6,0.2,4.2-0.5c0.6-0.6,2.4-1.7,1.7-2.8c-0.8-1.1-2-1-3-1c-0.8,0-2.6,1.4-2.9,2
		c-0.3,0.5-0.6,1.6,0,2.4L349.2,281z"/>
	<path class="st0" d="M349.6,280c0,0,0.1-1.9,1.8-2c1,0,1,0.3,1.8,0.7c0.7,0.4,1-0.5,1-0.5s0,1.3-1.1,1.3c-1.2,0-0.8-0.5-2-0.7
		c-1-0.2-1.5,1.1-1.5,1.1L349.6,280z"/>
	<path class="st3" d="M321.9,276.4l-0.9-0.6h-2.8l-3.4,0.1l3.4,9.9l4,5.8l1.6,0.6l3.1-0.2l0.6-1.6l-1.2-9.5L321.9,276.4L321.9,276.4
		z"/>
	<path class="st3" d="M307.1,277.7c0,0.8,1,0.9,1.2,0.8c0.2,0,1-0.3,1-1.5s-0.7-2.1-2.2-2.2c-1.4,0-2.5,1.7-2.5,3
		c0,1.2,1.2,1.8,1.2,2.3c0,0-1.2,1.1-1.1,3.1c0,2,1.6,3.6,1.6,3.6s-1.7,1.3-1.7,2.7c0,1.4,1.3,2.3,2.6,2.3c1.2,0,2.8-0.8,2.8-1.8
		s-1-1.7-1.7-1.7c-0.8,0-1.1,0.5-1.1,0.8 M332.8,278.2c0,0.9-0.6,1-1,1s-1.2-0.4-1.2-1.5c0-1,1.4-1.6,2.4-1.6c0.9,0,2.4,1.2,2.4,2.7
		s-1,2.6-1,2.6s0.6,0.3,0.6,2.2c0,2-1.2,3.3-1.2,3.3s1.6,0.6,1.6,2.6s-1.4,2.6-2.3,2.6c-1,0-2.6-0.5-2.6-1.9c0-1.3,0.8-1.8,1.5-1.8
		c0.6,0,1.3,0.7,1.3,1.5 M0,0 M0,0"/>
	<path class="st38" d="M360,274.2c0,0-1,0.5-1.6,0.2c-0.8-0.3-1.4-0.7-1-1c0.2-0.4,0.4-0.3,0.8,0.2C358.6,274,360,274.2,360,274.2
		L360,274.2z M365.3,269.7c0,0-0.8,0.6-1.3,0.6s-1.5-0.2-1.5-0.4s1.3-0.4,1.6-0.3L365.3,269.7L365.3,269.7z M357.3,259.2
		c0,0-1.1,0.4-1.5,1c-0.4,0.5-0.3,1.2,0.2,1.2s0.6-0.7,0.6-1L357.3,259.2L357.3,259.2z M352.1,262.1c0,0-0.9,0.5-1,1
		c-0.3,0.5-0.5,1.6,0,1.6s0.7-0.8,0.7-1.2C351.8,263,352.1,262.1,352.1,262.1z"/>
	<path class="st7" d="M342.8,268.4l-2.9,3c0,0,6.6,3.7,11.7,3.5c5-0.1,10.8-4,11.2-5c0.4-0.7,0-4.3-0.6-5.4
		c-0.7-1.1-4.2-3.8-5.5-3.7c-1.3,0.1-3.7,1.9-5.8,4c-2.2,2.1-2,3.9-5,3.7L342.8,268.4L342.8,268.4z"/>
	<path class="st4" d="M342,269.6c0,0,7,1,9.1-0.8c2-1.8,4.3-5.3,5.7-6c1.4-0.9,2-0.9,2-0.9l1.6,1.1l1.8,1.5l0.6,3.4v1.8l-2.2,1.8
		l-4,1.9l-4,1.2l-3.2-0.1l-6.7-2l-1.7-1.1l-0.4-0.4L342,269.6L342,269.6z"/>
	<path class="st6" d="M355.6,267.3c0-0.5,0.7-0.8,1-0.8c0.5,0,0.8,0.4,0.8,0.8s-0.3,1-0.7,1C356.3,268.3,355.7,267.8,355.6,267.3
		L355.6,267.3z M354.6,271.3c0-0.5,0.6-0.8,1.2-0.8s1,0.3,1,0.8s-0.5,1-1,1c-0.6,0-1.1-0.4-1.1-1H354.6z M350.9,270.1
		c0-0.6,1-0.9,1.5-0.9c0.4,0,0.3,0.4,0.3,1c0,0.7-0.3,1.2-0.7,1.2S351,270.7,350.9,270.1L350.9,270.1z M352.7,265.4
		c0-0.5,0.4-0.5,0.8-0.5s0.6,0.1,0.6,0.7s-0.3,1-0.6,1C353.1,266.6,352.7,266,352.7,265.4z M345,270.5c0-0.6,0.6-1.3,1.4-1.3
		s1.7,0.3,1.7,1c0,0.6-1,1.8-1.8,1.8C345.4,272,345,271.2,345,270.5L345,270.5z"/>
	<path class="st38" d="M347.7,269.4c0,0-1,0.1-1.5,0.6s-0.5,1-0.3,1.2c0.3,0.2,0.7-0.3,0.8-0.6C346.7,270.4,347.7,269.4,347.7,269.4
		z M352.4,268.4c0,0-1,0.6-1,1.3c-0.1,0.6,0,1,0.2,1c0.3,0,0.5-0.9,0.4-1.2c-0.1-0.3,0.4-1.2,0.4-1.2V268.4z"/>
	<path class="st38" d="M353.2,269.3c0,0-0.6,0-1,0.4c-0.5,0.5-0.9,1-0.6,1s0.8-0.2,0.8-0.5C352.4,270,353.2,269.3,353.2,269.3
		L353.2,269.3z M354.2,263.9l-0.8,0.6c-0.2,0.2-0.5,1-0.2,1c0.3,0.2,0.5,0,0.8-0.5C354.2,264.5,354.2,263.9,354.2,263.9z
		 M357.7,266.2c0,0-0.9,0-1.2,0.5c-0.3,0.4-0.5,0.8,0,0.8c0.3,0,0.4-0.2,0.6-0.5C357.2,266.6,357.7,266.2,357.7,266.2z M357.2,270.3
		c0,0-0.2,0.7-0.8,1c-0.5,0.3-0.7,0.5-1,0.1c-0.1-0.4,0.2-0.6,0.4-0.7L357.2,270.3z"/>
	<path class="st5" d="M362.8,267.5c0,0,0.4,2-1.3,3c-1.7,0.9-6.4,4.2-10.9,3.8c-4.5-0.4-9.6-3-9.6-3l-0.7,0.4l1.2,0.5l3.4,1.4l4,1.2
		l2.5,0.1l2.1-0.2l4-1.3l3.3-1.7l1.8-1.4l0.4-0.6v-1.9L362.8,267.5L362.8,267.5z"/>
	<path class="st7" d="M282.6,257.1c0,0,1-6-4-10.4c-5-4.3-8.1-3.2-9.8-1.6c-1.7,1.6-3.2,6.7,2,11.3c5.3,4.5,11.7,3,11.7,3
		L282.6,257.1L282.6,257.1z"/>
	<path class="st4" d="M267.6,250.7c0,0-0.1-3.4,1.5-4.4c1.5-1,6.8-1.8,9.3,3.1c2.6,5,2.7,7.4,2,10h-2.7l-4.3-1.8l-3.5-2.6
		L267.6,250.7L267.6,250.7z"/>
	<path class="st5" d="M282,258c0,0-0.9,1-2.7,1c-1.7-0.2-10-2.3-12-9.8v1.7l0.1,0.5l0.6,1.5l1.7,2.5l2.2,1.9l2.8,1.4l2,0.6l2.5,0.4
		h1.5L282,258L282,258z"/>
	<path class="st5" d="M277.7,255.9c0-0.7,0.3-0.7,0.8-0.7s1-0.2,1,0.4c0,0.7-0.4,1.6-1,1.6C278.1,257.2,277.7,256.5,277.7,255.9
		L277.7,255.9z M278,251.9c0-0.4,0.4-0.8,1-0.8c0.5,0,0.9,0.4,0.9,0.9c0,0.4-0.4,0.8-1,0.8C278.4,252.8,278,252.4,278,251.9
		L278,251.9z M274.3,256.3c0-0.4,0.4-0.7,1-0.7s1,0.3,1,0.7c0,0.3-1,0.8-1.5,0.8C274.2,257.1,274.3,256.6,274.3,256.3z M273.9,251.7
		c0-0.6,0.3-0.4,0.8-0.4s1.2,0.1,1.2,0.7s-0.7,1.4-1.2,1.4S273.9,252.2,273.9,251.7z M270.5,252.4c0-0.5,0.3-1.1,0.9-1.1
		s1.3,0.6,1.3,1.1s-0.5,1-1.1,1S270.5,252.9,270.5,252.4L270.5,252.4z M271.1,248.4c0-0.6,0.3-0.5,1-0.5c0.6,0,1.1,0.2,1.1,0.7
		s-0.7,1.2-1.4,1.2c-0.6,0-0.7-1-0.7-1.5V248.4z M274.8,247.9c0-0.4,0.5-0.3,1-0.3c0.7,0,1.1,0.4,1.1,1s-0.7,1-1.3,1
		C275,249.6,274.8,248.4,274.8,247.9L274.8,247.9z"/>
	<path class="st6" d="M271,248.3c0.2-0.4,0.4-0.7,0.8-0.7c0.5,0,0.9,0.1,0.9,0.7c0,0.4-0.4,0.9-0.8,0.9c-0.5,0-1-0.5-0.8-1
		L271,248.3z M270.4,252.3c0-0.5,0.2-1,0.7-1s1,0,1,0.5s-0.5,1.1-1,1.1S270.4,252.8,270.4,252.3z M274.8,248c0-0.4,0.3-0.4,0.8-0.4
		s0.8,0,0.8,0.5c0,0.4-0.4,0.7-0.8,0.7S274.8,248.4,274.8,248z M273.9,251.9c0,0.5,0.5,1,1,1s1-0.5,1-1c0-0.6-0.6-1-1-1
		S273.9,251.3,273.9,251.9z M278.2,251.3c0,0.5,0.4,0.9,1,0.9c0.5,0,0.9-0.4,0.9-0.9s-0.5-0.9-1-0.9s-1,0.4-1,1L278.2,251.3z
		 M274.1,256.3c0-0.5,0.5-0.9,0.9-0.9s0.9,0.3,0.9,0.7c0,0.4-0.8,1-1.2,1C274.2,257.1,274.1,256.7,274.1,256.3L274.1,256.3z
		 M277.7,255.6c0-0.5,0.4-0.6,1-0.6c0.5,0,0.8,0.1,0.8,0.6c0,0.6-0.5,1-1,1S277.7,256.1,277.7,255.6L277.7,255.6z"/>
	<path class="st38" d="M278.7,249.4c0,0,0.5,0.7,0.6,1.3v1.2c-0.3,0-0.6-0.4-0.7-0.9s0-1.6,0-1.6H278.7z M275.5,246.1
		c0,0,0.4,0.5,0.4,1s0,1-0.3,1s-0.3-0.4-0.3-0.8L275.5,246.1L275.5,246.1z M271.8,246.6c0,0,0.4,0.5,0.4,1s0,1-0.3,1
		s-0.3-0.4-0.3-0.8L271.8,246.6L271.8,246.6z"/>
	<path class="st38" d="M270.5,247.3l1,0.4c0.3,0.4,0.5,0.8,0.3,1c-0.1,0.2-0.5-0.1-0.6-0.4L270.5,247.3L270.5,247.3z M273.3,251.1
		c0,0,0.7,0,1.1,0.5c0.4,0.3,0.8,0.6,0.5,0.9c-0.2,0.2-0.7-0.2-1-0.5L273.3,251.1z M269.9,251.1l1,0.3c0.3,0.2,0.4,0.7,0.2,0.8
		c-0.1,0.1-0.4,0-0.6-0.4L269.9,251.1L269.9,251.1z M278.2,253.6l0.2,1.4c0,0.5,0.1,1-0.2,1s-0.3-0.7-0.3-1
		C277.9,254.5,278.2,253.6,278.2,253.6z M0,0"/>
	<path class="st5" d="M272.1,243.8c0,0-3.2,0.7-3.8,2.9c-0.6,2-0.7,4.4-0.7,4.4l-0.4-2.7l0.6-1.7l1-1.6l1.4-1l1.3-0.4L272.1,243.8z
		 M282.3,256.3c0,0,0.4-0.8-0.6-3.4c-1-2.5-3-6-3-6l1.6,1.8l1.2,2l0.6,1.8l0.5,1.7v1.6l-0.3,0.6L282.3,256.3z M0,0 M0,0"/>
	<path class="st4" d="M295.6,256.3c0,0,2,1.5,3,2.8c0.8,1.2,1,2.2,0.5,2.3c-0.5,0.2-5-4-8.8-4.9c-3.7-0.9-6.9,0-7.6,1.7
		s-0.4,4.5,1.2,5.6c1.8,1,9.7,2.3,9.7,2.3l3.7-0.5l2.3-1.3l0.5-1.3l0.6-1.6l0.2-0.7l-1.9-2l-3.4-2.5L295.6,256.3z"/>
	<path class="st5" d="M289.2,257.3c0,0.4-0.5,0.7-1,0.7s-0.9-0.3-0.9-0.7c0-0.5,0.4-0.9,1-0.9s1,0.4,1,0.9H289.2z M284.6,258.9
		c0-0.5,0.6-0.4,1-0.4c0.6,0,1,0.3,1,0.8s-0.8,1.1-1.3,0.9C284.7,259.9,284.6,259.4,284.6,258.9z M289.6,261.6c0-0.6,0.4-1,1-1
		c0.7,0,1.2,0.4,1.2,1s-0.8,1.2-1.5,1.2S289.6,262.2,289.6,261.6z"/>
	<path class="st6" d="M285.8,262.7c0-0.5,0.6-0.6,1-0.6c0.5,0,1,0.5,1,1s-0.5,0.9-1,0.9C286.4,264,285.8,263.2,285.8,262.7z"/>
	<path class="st38" d="M288.5,261.6l1.6-0.3c0.5,0,0.6,0,0.7,0.2c0,0.2-0.1,0.3-0.5,0.3L288.5,261.6L288.5,261.6z M285.1,261.6
		c0,0,1.2,0.2,1.5,0.5s0.3,0.6,0.1,0.7c0,0.2-0.6,0.1-0.8,0L285.1,261.6L285.1,261.6z"/>
	<path class="st38" d="M285,263.3c0,0,0.4-0.7,0.8-0.8s1-0.1,1,0.1c0.1,0.2-0.4,0.5-0.7,0.6l-1.2,0.1L285,263.3z M284,258.2l1.2,0.3
		c0.4,0.3,0.5,0.6,0.4,0.7c0,0.1-0.5,0.2-0.8,0c-0.5-0.4-0.7-1-0.7-1H284z M286.6,255.2c0,0,1.2,0.4,1.6,1c0.4,0.5,0.3,0.8,0.1,0.9
		l-0.9-0.4c-0.3-0.3-0.8-1.4-0.8-1.4L286.6,255.2z"/>
	<path class="st5" d="M300,263.7c0,0-2.3,2-7.7,1.9c-5.5-0.2-10.4-2.5-11.6-5l0.5,1.2l1.2,1.6l3.8,2l4.3,0.9l3.3,0.2l3.2-0.6
		l2.5-1.1l0.4-0.7L300,263.7L300,263.7z M300.8,261.2c0,0-0.9-1.2-2.2-2.3c-1.2-1.2-6.2-4.4-6.2-4.4l4,1.8l2.7,2.2l1.8,2
		L300.8,261.2L300.8,261.2z M0,0"/>
	<path class="st38" d="M306.4,254c0,0,1.2,0.8,1.4,1.2c0.1,0.4,0.5,1,0.1,1c-0.3,0.2-0.9-0.4-1-0.8l-0.6-1.5L306.4,254z
		 M313.2,255.5c0,0,1,0.4,1,1.2v1.3l-0.7-0.7v-0.7L313.2,255.5L313.2,255.5z M315,256.2c0,0,0.8,0.7,0.9,1.2c0,0.5,0.2,0.8-0.3,1
		c-0.4,0-0.6-0.5-0.6-1V256.2z M302.7,271.2c0,0,0.6,0.2,1.2,0c0.5-0.2,1-0.7,0.9-1c-0.1-0.4-0.4-0.7-0.8-0.2
		c-0.4,0.4-0.2,0.6-0.5,0.8l-0.7,0.3L302.7,271.2z M309.5,273c0,0,0.9-0.2,1.5-0.9c0.6-0.6,0.9-1,0.5-1.2s-1,0-1,0.5L309.5,273z
		 M315,273.1l1.3-0.9c0.5-0.4,0.7-0.7,0.4-1c-0.3-0.5-0.6-0.2-0.8,0l-0.2,0.7L315,273.1L315,273.1z"/>
	<path class="st38" d="M316.7,273.1c0,0,0.8-0.9,1-1.4c0.1-0.5,0.2-1-0.1-1c-0.4,0-0.8,0.5-0.8,0.9v1.5H316.7z"/>
	<path class="st7" d="M299.9,264.1c0-2.4,3.5-8,7.5-8c1.6,0,4.9,1,7.5,2.1c2.2,1,3,2,4.4,2.4c1.5,0.4,3.7,0.1,3.7,0.1l5-0.5l-4,5.7
		l-1.4,1.2c0,0-1.2,2.4-4.7,3.8c-3.6,1.4-9.5,0.4-12.2-0.3C303,269.9,299.7,267.4,299.9,264.1L299.9,264.1z"/>
	<path class="st4" d="M324,264.9c-0.4,0.3-1,0.3-1.4,0.3c-0.5,0-11.6-6.7-15-6.4c-3.5,0.3-6.8,1.7-6.9,5.3c0,3.5,0.8,3.5,1.5,4.5
		s7.5,2.5,7.5,2.5h4.1l3.3-0.4l3-1.6l1.5-1.3l1.1-1.3L324,264.9z"/>
	<path class="st5" d="M312.7,264.2c0,0.7-0.3,1.2-1,1.2c-0.6,0-1.1-0.3-1.1-1s0.3-1,1-1s1,0.2,1,0.8H312.7z"/>
	<path class="st38" d="M314.8,265c0,0,1.6-0.2,1.9,0c0.3,0.4,0.3,0.8,0.1,1c-0.1,0-0.8,0.1-1-0.1c0-0.3-1-1-1-1V265z M313.1,259.6
		c0,0,1.3,0.3,1.8,0.9c0.5,0.5,0.4,1,0.4,1.1c-0.2,0.1-0.6,0.2-1-0.2L313.1,259.6L313.1,259.6z M309.4,262.2c0,0,1.5,0.8,1.8,1.3
		c0.3,0.4,0.4,0.8,0.2,1c-0.1,0.2-0.8,0-1-0.3C310.4,263.9,309.4,262.2,309.4,262.2z M0,0"/>
	<path class="st38" d="M302.8,263l1.5-0.2c0.5,0,1.2-0.1,1.2,0.2c0,0.4-0.6,0.5-1,0.4L302.8,263z M311.4,268.6c0,0,1.1-0.7,1.7-0.6
		c0.5,0.1,0.7,0.1,0.7,0.4c0,0.4-0.7,0.3-0.9,0.3L311.4,268.6L311.4,268.6z M305.4,267.7c0,0,0.4-0.6,0.9-0.7c0.4,0,0.6,0,0.7,0.2
		c0,0.2-0.4,0.6-0.6,0.6h-1V267.7z M0,0"/>
	<path class="st8" d="M320.7,280.4c0.2,0.5,0.6,1,1.1,1h1.6l3.6-0.3l1.2-1.4l0.8-3.2l1-1.2l3.3-1.9l2.8-0.8l1.9-0.2l2.5-0.8l1.9-1
		l0.8-1.2l0.8-1.8l-0.8-2.5l-2-2.7l-3.4-1.3H335l-3,1.1l-5.5,1.3c0,0-3,1.3-4.3,3.7c-1.3,2.3-1.2,3-1.5,6
		C320.5,276.4,320.7,280.4,320.7,280.4L320.7,280.4z"/>
	<path class="st38" d="M324,270.8c-0.3,0.3-0.7,0.2-0.8,0c-0.2-1,0.3-2.2,0.3-2.2v1.6c0.1,0.2,0.4,0.1,0.5,0.3V270.8L324,270.8z
		 M327.2,270.2c-0.2-0.1-0.1-1,0-1.3c0.2-0.3,1.7-1.4,1.7-1.4l-0.6,1.5c-0.2,0.4-0.7,1.3-1,1.2L327.2,270.2z M326,275.5
		c-0.3,0-0.3-0.4-0.3-1s1-1.6,1-1.6l-0.4,1.2l0.2,1C326.5,275.4,326.2,275.5,326,275.5L326,275.5z"/>
	<path class="st38" d="M328.4,274c0,0-0.5,0.6-1,0.9s-1.1,0.7-1.4,0.6c-0.4,0,0.1-0.8,0.3-0.9L328.4,274z M332.9,267.6
		c0,0-0.6,0.5-0.9,1.2s-0.4,1.3-0.1,1.4c0.3,0.2,0.7-0.8,0.8-1.1L332.9,267.6z M0,0"/>
	
		<radialGradient id="SVGID_4_" cx="5029.8237" cy="498.4687" r="25.9" gradientTransform="matrix(0.1345 5.694279e-02 5.560870e-02 -0.1351 -410.4311 35.6828)" gradientUnits="userSpaceOnUse">
		<stop  offset="0" style="stop-color:#FFFFFF"/>
		<stop  offset="1" style="stop-color:#F15770"/>
	</radialGradient>
	<path class="st39" d="M294.3,250.5c1.6,0.2,2.6,2.3,2.2,4.7c-0.4,2.3-1.9,4.1-3.5,3.8c-1.6-0.2-2.6-2.3-2.2-4.7
		S292.7,250.3,294.3,250.5z"/>
	<path class="st9" d="M295.4,247l-1.7,4.2l1.4-0.2l0.7-3.8L295.4,247z"/>
	<path class="st35" d="M296.1,245.1c-0.6,0-1.1,0.4-1.2,1c0,0.7,0.4,1.3,1,1.4c0.6,0,1.1-0.4,1.2-1
		C297.1,245.8,296.8,245.2,296.1,245.1z"/>
	<path class="st9" d="M369.7,255.8l-4.2,4l1.7,0.4l2.9-3.8L369.7,255.8z"/>
	<path class="st9" d="M262.8,233l2.2,4.9l1-1.4l-2.6-3.7L262.8,233z"/>
	<path class="st36" d="M369.4,257.3c0,0-0.3-0.2-0.8,0l-1.4,0.9l2.3-2.2l0.5,0.6L369.4,257.3z M262.4,230.6c0,0,0.4-0.1,0,0.1
		c-0.5,0.3-0.8,1.4-0.3,2c0.6,0.5,1.3,0.4,1.7,0c0.4-0.5,0,0.2,0,0.2l-0.7,0.4h-0.6l-0.6-0.3l-0.4-0.6v-0.8l0.2-0.5l0.3-0.3l0.3-0.2
		L262.4,230.6z"/>
	<path class="st36" d="M264,233.8c0,0-0.3,0.1-0.2,0.6l0.3,1.5l-1.2-2.7l0.7-0.2L264,233.8L264,233.8z"/>
	
		<radialGradient id="SVGID_5_" cx="-2460.4275" cy="-4299.7305" r="25.9" gradientTransform="matrix(-1.330073e-02 -0.1442 -0.1338 1.270284e-02 -340.1142 -57.906)" gradientUnits="userSpaceOnUse">
		<stop  offset="0" style="stop-color:#FFFFFF"/>
		<stop  offset="1" style="stop-color:#F15770"/>
	</radialGradient>
	<path class="st40" d="M270.6,240.8c1.2,2.3,0.9,4.7-0.7,5.5c-1.5,0.8-3.7-0.4-4.9-2.7s-0.9-4.7,0.7-5.5
		C267.3,237.3,269.4,238.5,270.6,240.8z"/>
	<path class="st12" d="M269.2,237.6c0.2-0.4,0.1-1.5-0.1-1.8s-0.6-0.3-0.7-0.4c0-0.1,0.3-0.2,0.3-0.5s-2.6,0.1-2.4,0.4
		c0.2,0.3,0.6,0.1,0.6,0.3s-0.4,0.4-0.5,0.6l0.3,1.1c0,0.2,0,0.4,0.2,0.5l0.6,0.2h1.4C269,237.9,269.1,237.9,269.2,237.6
		L269.2,237.6z M291.2,250.4c0,0,0.3,0.7,0.8,1h1l0.6-0.5c0.2-0.2,0.4-1.2,0.3-1.4c0-0.2-0.5-0.6-0.5-0.8s0.3-0.2,0.2-0.4
		c-0.1-0.2-2-0.2-2,0.2c0,0.3,0.3,0.2,0.2,0.3c0,0.2-0.5,0.5-0.6,0.7c-0.2,0.1,0,1,0,1V250.4z M0,0 M0,0"/>
	<path class="st12" d="M366,258.5l-0.8,0.8c0,0.2,0,0.7,0.2,0.8c0,0.2,0.7,0.6,1,0.5c0.1,0,0.3,0,0.5-0.2c0.2-0.1,0.8-0.2,0.8-0.4
		l0.1-0.4c0.1-0.1,0.4,0,0.6-0.2s-1.2-1.7-1.4-1.5c-0.2,0.2,0,0.3,0,0.4C366.8,258.3,366.1,258.3,366,258.5L366,258.5z"/>
	<path class="st41" d="M264.2,239c0.2,0.4-0.1,1.2-0.3,1.4c-0.1,0.2-1.3-0.1-1.3-0.3s-0.1-0.6,0-0.8c0.2-0.2,0.6-0.7,0.9-0.6
		C263.8,238.7,264.1,239,264.2,239L264.2,239z M264.5,237.7c-0.2,0.3,0,0.6,0.2,0.7c0.1,0.2,1,0.4,1.2,0.3c0.2-0.2,0.6-1.5,0.4-1.7
		s-0.6-0.2-0.7-0.2C265.4,236.8,264.6,237.4,264.5,237.7z M267.2,236.4v0.7c0.2,0.1,0.7,0.5,1,0.5s0.5-1,0.5-1.1
		c0-0.2-0.1-0.3-0.3-0.4l-1.2,0.2V236.4z M293.3,250.1c0,0.4-0.7,0.7-0.9,0.7c-0.2,0-0.7-1-0.6-1c0.1-0.2,0.3-0.5,0.5-0.5
		s0.7,0,0.9,0.2l0.2,0.7L293.3,250.1z M294.4,249.5c-0.2,0.1-0.3,0.4-0.3,0.6c0,0.2,0.3,0.8,0.5,0.9c0.2,0,1.2-0.5,1.3-0.7
		c0-0.2-0.2-0.5-0.4-0.6l-1-0.2H294.4z M296.8,250.5c-0.2,0-0.4,0.3-0.4,0.5c0,0,0,0.6,0.3,0.8c0.2,0.2,0.8-0.2,0.9-0.3v-0.4
		C297.6,250.9,296.8,250.5,296.8,250.5z M365.4,258.7c-0.2,0.2-0.9,0.2-1,0c-0.3,0-0.3-1-0.1-1c0.1-0.1,0.4-0.3,0.6-0.2
		c0.2,0,0.6,0.3,0.6,0.6L365.4,258.7z M366.4,258.8c-0.3,0-0.5,0.1-0.6,0.3c-0.1,0.1-0.2,0.7,0,0.9c0.1,0.1,1.2,0.2,1.3,0v-0.5
		L366.4,258.8L366.4,258.8z M367.4,260.8h-0.5c-0.1,0-0.4,0.4-0.4,0.7c0,0.2,0.7,0.3,0.8,0.3l0.3-0.2L367.4,260.8L367.4,260.8z"/>
	
		<radialGradient id="SVGID_6_" cx="8278.8877" cy="2051.8105" r="25.9" gradientTransform="matrix(4.843098e-02 5.780590e-02 0.1121 -9.670497e-02 -268.085 -17.0435)" gradientUnits="userSpaceOnUse">
		<stop  offset="0" style="stop-color:#FFFFFF"/>
		<stop  offset="1" style="stop-color:#F15770"/>
	</radialGradient>
	<path class="st42" d="M366.4,260.1c0.8,0.9,0,3-1.9,4.6c-1.8,1.7-4,2.3-4.8,1.4c-0.8-0.9,0-3,1.9-4.6S365.6,259.2,366.4,260.1z"/>
	<path class="st43" d="M284.7,187.6c1.7-0.4,0.7-4.8,0.7-4.8l-1.2,1c0,0,0.8,1,0.8,2S284.7,187.6,284.7,187.6z"/>
	<path class="st14" d="M287.8,231.5l-0.9-0.7c-0.6-0.4-3.2-2.6-2.8-8.9c0.5-7.2,11-11,11.6-13.8c0.8-3.2,3.1-4.5-5.2-11l-2,2.2
		l3.5,2.6c0,0,0.7-0.4,0.8,0.6c0,1-1,1.7-1.2,2.5c-0.2,0.7-5.4,4.3-5.8,4.6l-3,2.4c0,0-1.3,1.3-2.5,4.1c-1.3,2.8-0.7,6.4-0.7,6.4
		S279.6,230.1,287.8,231.5L287.8,231.5z"/>
	<path class="st44" d="M276.6,187c-0.2,0.7-0.4,1.9,0.5,2c0.4,0.2,2.3,0,4.5-2.4c1-1.2,1-2.4,1-2.4l0.5-1.3c0,0-0.9-0.6-2.2,0.2
		c-1.3,0.8-4.3,4-4.3,4V187z"/>
	<circle class="st15" cx="282.5" cy="183.6" r="0.4"/>
	<path class="st45" d="M291.8,204.8c0,0,0.7-1,0.8-1.4V203h2l1.1,0.2h0.2l-0.9,1.1l-1.2,0.7l-1.5,0.2L291.8,204.8L291.8,204.8z
		 M295.8,202.8l-1.3-2c-0.4-0.7-0.8-1-0.8-1l-1,2.7v0.3H295.8L295.8,202.8z M0,0 M0,0 M0,0 M0,0"/>
	<path class="st46" d="M266.4,214.5c0,0-1.7,0.6-2.1-0.1c-0.4-0.8-0.2-1.4-0.2-1.5c0-0.2-1-0.3-1-1.3c0.1-1,1.4-0.9,1.6-0.9
		c0.3,0,0.4-1.5,1.3-1.4c0.8,0,1.2,1,1.2,1L266.4,214.5z"/>
	<path class="st46" d="M268.3,215c0,0-1.5,0.8-2,0c-0.4-0.7,0-1.6-0.1-1.8c-0.2-0.1-1-0.4-0.9-1.3c0.2-0.9,1.1-0.6,1.4-0.8
		c0.3-0.1,0.6-1.4,1.5-1.2c0.9,0.3,1,1,1,1l-1,4.1H268.3z"/>
	<path class="st46" d="M270.8,215.3c0,0-0.5,1-1.5,0.8s-0.7-1.7-0.9-2c-0.1-0.3-0.9-0.5-0.8-1.4c0.2-1,1.1-0.9,1.5-1
		c0.3-0.1,0.7-1.6,1.4-1.4c0.7,0.3,1.3,1.1,1.2,1.5c0,0-1.5,0.5-1.7,1.5S270.8,215.3,270.8,215.3L270.8,215.3z"/>
	<path class="st16" d="M293.7,231.2l-2.2-2.6c-0.9-1.3-2.3-2.7-2.3-2.7l-2.2-1.1l-1.4-2.4l-0.2-2.8l0.6-1.6l0.8-1.2
		c0,0-4.6,1.7-2.2,10.5c1,3.8,3.5,4.3,3.5,4.3l4.3-0.3L293.7,231.2L293.7,231.2z"/>
	<path class="st47" d="M302,234l-2.7,0.8l-1.3-1c0,0,0-1-0.5-1.5l-1.6-1c-0.6-0.2-2.5-0.2-2.5-0.2l-5-5.3l2,0.2l2.8-0.4l2.7-0.2
		l1.4,0.2l1.6,0.4l0.8,0.7l0.8,0.8l0.8,1.3l0.6,1.6l0.2,1.7L302,234L302,234z"/>
	<path class="st16" d="M302.2,233.8c0,0-1,0.3-2.2,0.3c-1.3,0-2-0.2-2-0.2l-0.2,0.9c-0.2,0.9-0.5,1.3-0.5,1.3v3.2l2.6,0.5l1.4-0.5
		l0.7-3.5L302.2,233.8z"/>
	<path class="st48" d="M302,235.5c0,0-0.3,1-1.3,1.8c-1,1-2.2,1.5-2.2,1.5l2.8,1l1.9-1.7L302,235.5L302,235.5z"/>
	<path class="st49" d="M302.4,237.8l-0.2,0.3l-0.5,0.5l-0.4,0.5l0.6-3l0.6,1v0.4L302.4,237.8z"/>
	<path class="st50" d="M285.8,199.3c0,0-3.8,0.3-6.5-0.1s-2-7.3-2.1-7.5c0-0.2-1.6-1.8-1.4-3.3c0.3-1.5,5.2-5.5,5.8-5.8
		c0.5-0.1,1.5,0.3,1.5,0.3s1.2-1.2,1.6-1.2s0.9,0.7,0.8,1c-0.2,0.3-1.9,1.3-2,2c-0.2,0.8,0,1.5-0.5,2.3c-0.5,0.7-1.4,1.7-1.5,2.4
		c-0.1,0.6-0.4,1.1,0,1.4c0.5,0.2,2.1,0,3.5-0.6c1.4-0.7,2-1.5,2.1-1.4c0.2,0-0.8,1.7-2.3,2.4c-1.5,0.6-2.5,1.3-3.3,1.2
		c0,0-0.8,2,1.8,2.2c2.6,0,4-0.6,4-0.6L285.8,199.3L285.8,199.3z"/>
	<path class="st17" d="M318.7,170.6c0,0-7-1.3-7,4.5c0.1,1.9,0.5,2.5,2,3c1.5,0.3,4.4,0.5,7,2.7c2.5,2.3,2.7,4,2.7,5.3
		c0,1.4-0.7,2.6-0.7,2.6l1.6,7.7l1.6,5.7l4.8-2.7l2.8-8.5l-3.6-15.2L318.7,170.6L318.7,170.6z"/>
	<path class="st18" d="M318.4,173.3c0,0-0.2-0.7-0.2-1.7s0.2-0.9,0.2-0.9s-2.7-0.3-4.6,1.2S313,176,313,176s0.8-0.8,1.9-1.2
		c1-0.4,3-0.3,3-0.3c0.2-0.2-0.4-1-1.1-1.1c-0.8-0.2-2.1-0.2-2.1-0.2s0.8-0.5,2.2-0.4c1.4,0.1,1.6,0.5,1.6,0.5L318.4,173.3z"/>
	<path class="st24" d="M333.8,218.2c0,0,1.2,2,2.9,0.5c1.7-1.6-0.8-6-0.7-6.3c0-0.3,0.7-0.3,0.7-0.3l1.3,2.2c0,0,0.7,1.3,0.4,3.2
		c-0.2,2-2.1,3.7-2.1,3.7l-2.2-0.5L333.8,218.2L333.8,218.2z"/>
	<path class="st19" d="M375.3,244.2l-1.6-4.5l-0.4-3.5c0-0.6-0.3-7.9-0.5-9.3c0-1.4,0-3-0.2-3.1l-1.6-2.2l-0.7-0.7l0.5-0.3
		c0,0,0.6,0.6,0.7,0.3c0.2-0.4,0-2-0.6-4.5c-0.7-2.5-3.9-8.3-3.9-8.3l0.4,0.2l0.9,1l1.8,1.5l4.1,1.5l2.2,0.3l1.4,2.9
		c0,0,1,4.9,1,7.4c0,2.4-0.2,4.5-1.2,7c-1,2.4-1.2,10.3-1.3,11.5c-0.1,1.3-0.6,2.5-0.6,2.5l-0.5,0.3L375.3,244.2z"/>
	<path class="st19" d="M329.5,210.2c0,0,2.7,2.4,4.2,0c1.5-2.3,0.3-5,0.3-5s3.9,5.6,5,0.3c0.2-1-2.4-4.6-2.4-4.6l1-0.9l1.9,3.3
		c0,0,1.8-0.8,1.8-3s-1.9-5.3-1.9-5.3l1.8,2c0,0,3.6,0,3.7-2c0-2.2-3-4.5-3-4.5s2.4,0.1,2.4-1.3c0-1.4-3.4-2.4-3.4-3.3
		c0-0.9,1-2.4,2.5-1.5c1.5,0.8,3.5,1.4,4.4-0.2c0.8-1.6-0.1-2-0.1-2l-2.1-0.4l-3.4-1.8l-2.7-1l-2.8-0.4l1,2l0.8,5.8v2.6l0.5,5.8
		l-1.4,4.7l-0.7,0.9l-0.5,0.6l-1.2,2.6l-1.6,1.8l-2.2,2.7l-2,2.1L329.5,210.2z"/>
	<path class="st18" d="M340.4,216.8c0,0,2-0.4,2-1c0-0.8-2.4-2.2-2.2-3.3c0-0.5,2,0.1,2.1-0.3c0.1-0.4-2-3.6-1.3-4.4
		c0.6-0.8,2.4,3.5,2.4,3.5s1,2,0.7,3.2C342.9,218.1,340.4,216.8,340.4,216.8z M345,212.4c0.1-0.3,3.1,0.4,3.1,0.2
		c0.2-0.7-2.7-3-2.7-3s-0.6-1.2-0.4-1.4s2,0.2,2,0c0.2-0.3-2-3.2-2-3.7s0.6,0,0.6,0s1.7,1.7,2.6,3.2c1,1.4,1.8,2.6,1.5,4.9
		C349.3,215.1,344.7,213.2,345,212.4z M358.6,207.8c0,0-0.5-2-0.2-2.3l1.1-0.5c0,0-1.6-1-2.4-1c-0.7,0-0.8-0.2-1,0
		c-0.2,0.4,1.3,2.4,1.3,2.4L358.6,207.8L358.6,207.8z M0,0 M0,0"/>
	<path class="st20" d="M348.2,213.8c0,0,0,2.4,1.3,3.8c1.2,1.5,4,4,4.6,4.6c0.6,0.5,1,3.4,1.9,5.8c0.8,2.4,1,4.4,1.4,5.1
		c0.4,0.7,1.1,1.8,0.5,1.7c-0.5-0.1-1-0.8-1.4-1.7c-0.3-0.9-0.2-0.9-0.2-2c0-1.3-1.8-7.5-2.7-8.1c-0.9-0.7-4.8-4-6.4-6.3
		c-1.5-2.3-1.2-2.8-1.2-2.8h2.2L348.2,213.8z"/>
	<path class="st20" d="M355.7,208.5c0,0,1.4,1.2,2.3,1.5c0.8,0.4,2,0.4,2,0.4s-0.3,4.2,1.3,6.9s3.3,4.2,3.3,4.2s0.3,1,0.8,6.8
		l0.7,8.3c0.1,2.3,0.2,10.6-0.1,10.3c-1.3-1-0.2-5.4-0.9-7.3c-0.6-1.8-1.6-2.1-2.8-7.4c-1.2-5.2-0.4-6.4-1.3-8.3c-0.9-2-2-2.2-2-2.2
		s1.6,0.4,2.3,2c0.6,1.6,0.7,6,1.3,8.2c1.2,4.9,2.9,7.4,2.9,7.4s-0.4-6.2-0.8-9.7c-0.5-3.5-0.5-6.4-1.1-7.7c-0.7-1.4-2.1-2.4-3-4.2
		c-0.8-1.8-1.1-5.3-1.5-6.2s-0.6-0.6-1.2-0.8C355.9,209.9,355.7,208.5,355.7,208.5L355.7,208.5z"/>
	<path class="st46" d="M304.5,238.4c0,0,0.9,1.6,2.6,1.6c1.8,0.1,3.1,2.6,3.1,2.6l-1.9,1.9l-4.6,0.2l-1.5-2.4L304.5,238.4
		L304.5,238.4z M304.5,236.8c0.2-0.3-1.3-3.3-2.4-3.8c-1-0.5,0.4,1,0.2,1.6c-0.3,0.6-0.4,1.4-0.3,1.5c0,0,0.9,1.4,0.4,2
		c-0.4,0.5,2.2-1.3,2.2-1.3H304.5z M0,0"/>
	<path class="st46" d="M301,241.5c0,0,0.6,1.3,1.4,1.3s2-0.7,2-1.2c0.1-0.5-0.8-1.5-1.3-1.7c-0.6-0.3-1.9,0.4-1.9,0.4l-0.1,1.2H301z
		"/>
	<path class="st46" d="M303.4,239.8c0,0.4-1.7,1.2-2.3,1.2c-0.5,0-1.6-1.3-1.2-1.5l1.5-0.4c0.4-0.2,0.5-0.8,0.7-0.8
		c0.3,0,1,0.1,1.1,0.5C303.4,239.3,303.6,239.4,303.4,239.8L303.4,239.8z"/>
	<path class="st46" d="M301.8,240.9c0,0-2.6,3.4-3.7,3.3c-1-0.2,0.5-5,0.5-5l1.2,0.6C300.7,240,301.5,240.4,301.8,240.9L301.8,240.9
		z"/>
	<path class="st46" d="M297.2,238.4c0,0,3.3,0.6,3.4,1.1c0.2,0.6-1.5,1.3-2.5,1.3C297.2,240.8,297.2,238.4,297.2,238.4L297.2,238.4z
		"/>
	<path class="st21" d="M289,243.4c0,0,0.5,1.6,1.9,1.7c1.4,0,2.8-1.5,2.8-1.5l-3.4-1.3L289,243.4z"/>
	<path class="st21" d="M290,243c0,0,0.5,1.2,2.4,1.2s3.3-1.5,3.3-1.5l-3-2.3L290,243L290,243z"/>
	<path class="st51" d="M290.2,243.3c0,0,0.9,0.6,1.8,0.7c1,0,2.2-0.3,2.2-0.3l-1.1,0.4l-0.8,0.1l-0.8-0.1l-0.6-0.3l-0.6-0.4v-0.2
		L290.2,243.3z"/>
	<path class="st21" d="M292.4,241.6c0,0,0.8,2,2.6,1.8c1.7-0.2,1.7-1.2,1.7-1.2l-2-2.8L292.4,241.6L292.4,241.6z"/>
	<path class="st46" d="M297,238.3c0.8-0.2,2.4,2,2.4,3.2s-0.5,2.7-1.3,2.7s-2.6-1.7-3-2.5c-0.4-0.9-0.8-1.4-0.5-1.9
		C294.9,239.4,297,238.3,297,238.3z M289,238.5c0,0-1.4-1-1.9-0.5s-0.3,2.3,0,2.6c0.4,0.4,2-0.8,2-0.8l-0.2-1.3H289z"/>
	<path class="st46" d="M288.8,239.7c0,0-1.8,0.2-1.8,1s0.9,1.6,1,1.8c0.2,0.1,1.8-0.7,1.8-0.7L288.8,239.7z"/>
	<path class="st46" d="M289.5,241.1c0,0-1.8,0.6-1.8,1.2s0.8,1.7,1.3,1.7s1-1,1.2-1.3C290.5,242.5,289.5,241.1,289.5,241.1
		L289.5,241.1z M290.3,236c0,0-0.3-0.5-1-0.2c-0.8,0.3-1.6,1-1.5,2.3c0.1,1.1,0.6,2,0.6,2l2.7-1L290.3,236L290.3,236z"/>
	<path class="st46" d="M290.5,238c0,0-2.2,0.8-2.3,1.7c-0.1,0.9,0.5,1.7,1,2c0.7,0,2.6-1.8,2.6-1.8L290.5,238L290.5,238z"/>
	<path class="st46" d="M292.5,241.7c0,0-2.2,1.5-2.5,1.5s-1.2-1.2-1-2s1.7-1.3,2.3-1.6C291.9,239.4,292.5,241.7,292.5,241.7z
		 M294.5,233.5c0,0-0.7-0.6-2-0.5c-1.4,0.1-2.4,2-2.6,2.8c-0.2,0.9,0,2.6,0.5,2.8c0.5,0.3,3.3-2,3.3-2l0.8-3L294.5,233.5z"/>
	<path class="st46" d="M291.8,240.3c-1-0.1-1.8-1.5-1.7-2.3c0.2-0.8,2-2.2,3-2c1,0.1,0.8,2.5,0.8,2.5S292.7,240.4,291.8,240.3
		L291.8,240.3z"/>
	<path class="st46" d="M294.7,240c0,0-0.4,1.2-1.4,1.7c-1,0.4-1.5,0-2-0.7c-0.6-0.8,0.2-1.2,0.6-1.6c0.5-0.4,1.7-0.7,1.7-0.7
		L294.7,240L294.7,240z"/>
	<path class="st46" d="M293.2,237.2c0,0-1,0.8-0.4,1.8s1,1.4,1.8,1.5s1.3-0.2,1.9-0.9s1.5-1,1.4-2c-0.1-0.9-0.4-1.6-1-1.8
		C296.4,235.5,294.7,235.8,293.2,237.2L293.2,237.2z"/>
	<path class="st21" d="M296.2,233c0,0-1-0.5-1.9,0c-0.8,0.5-1.4,1.5-1.5,2.4l0.2,2.3c0,0,1.2-0.4,2-1c0.7-0.6,1-0.8,0.8-1.1
		c0-0.2-0.4-0.4-0.4-1.2c0-1.4,0.8-1.5,0.8-1.5V233z"/>
	<path class="st46" d="M328.8,257l1.6-0.8l2-1.2l0.4,2.2l-1.8,1.4h-1.5l-0.9-0.7l0.2-1L328.8,257z"/>
	<path class="st46" d="M326.4,257.2h1c1.1,0,1.2-0.3,1.4-0.3c0.2,0.1,0.5,1.3,0.5,1.3l-0.4,0.7l-1.5,0.9l-1.3-0.8l-0.1-1.8
		L326.4,257.2L326.4,257.2z M338.5,256.4c0,0-0.3-0.5-0.9-1l-2.2-1.9v5l2.3-0.1l1.1-1.5L338.5,256.4z"/>
	<path class="st46" d="M326.4,257.2c0,0-0.4-0.5-1.3-0.4c-1,0-2,0.9-2.1,1.5c-0.1,0.7,0,2.6,0.5,3s1.2,0.5,2.2,0.3
		c1-0.3,6.4-3.6,6.4-3.6l-1.4,0.3c-0.7,0.2-1.4-0.1-1.4-0.1s-0.7,0.8-1.6,1c-0.8,0-1-0.5-1.2-0.9L326.4,257.2L326.4,257.2z"/>
	<path class="st46" d="M330,258.9l-1.2,0.5l-1.3,0.6l0.4,1.6l2.3,0.5l1.4-1.1v-1.6l-1.7-0.5H330z M340.4,257.7l-0.8-0.8
		c-0.4-0.4-1-0.5-1-0.5l-1.3,1.5v1l1.2,0.7l0.9,0.2l1.1-0.8L340.4,257.7L340.4,257.7z"/>
	<path class="st46" d="M332.6,257c0,0-1,0.4-1.5,0.8l-1.2,1c0,0.2,1.1,1.4,1.1,1.4l1.2,0.1l2.5-1.7l-0.2-1.6L332.6,257L332.6,257z
		 M342.1,259l-0.5-0.7c-0.4-0.4-1-0.6-1.2-0.6c-0.3,0-1.3,1.5-1.3,1.5v0.4l0.8,1l1.6,0.5l1.1-1.2L342.1,259L342.1,259z M0,0"/>
	<path class="st46" d="M335.8,250.8v3.2c0,0,0.4,2.9-0.2,3.7c-0.6,1-2.9,0.7-3.2,0c-0.3-0.8-0.2-3.2-0.2-3.2L335.8,250.8
		L335.8,250.8z"/>
	<path class="st22" d="M333.3,260.5c0,0-0.5,0.8,1,1c0.4,0,0.7-0.2,0.9-0.4c0.4-0.4,0.3-0.8,0.3-0.8s-0.2,1.2,1.2,1.2
		c1.4,0.1,1.3-1.3,1.3-1.3"/>
	<path class="st52" d="M302.6,192.4l-0.6-0.2l0.4-1l1.9-0.7l1.8-0.1l2-0.1l0.8,0.6l1,2.3l-3.6,2.2l-0.6,0.2l-0.2-1l-0.6-1.4
		L302.6,192.4z"/>
	<path class="st20" d="M337,245.5l-0.3-5.5l-14.8,4.6l5.8,5.5L337,245.5z"/>
	<path class="st18" d="M309.4,235.9l-1.2-1l-1.4-0.8h-1.1l-0.2,0.3l0.2,0.5l1.3,1.6l2.3,1.2l0.8,0.7l0.5,0.2L309.4,235.9
		L309.4,235.9z M309.1,238.2l0.8,0.2l0.9,1l0.5,1l0.7,1.3l0.2,0.8l-1.6-0.3l-4.8-1.5l0.4-1.2l0.8-0.7l0.7-0.3l1-0.2L309.1,238.2z"/>
	<path class="st18" d="M312.2,242.2h0.8l0.6-0.5l-0.3-1.8l0.3-5.8l-3.9-4.6l-0.8,2.6l1.1,4.7l0.9,2.8L312.2,242.2z"/>
	<path class="st18" d="M304.2,242.2c0.2-0.2,0.3,0.7,1.8,0.8c1.5,0.2,2.2-0.2,2.2-0.2l0.7,0.4l0.8,0.2l-0.7,1.1l-2.8-0.8l-1.5-0.8
		L304.2,242.2z"/>
	<path class="st24" d="M314,240.3l0.8,1l0.5-2.4v-2.5l-1.6-1L314,240.3z"/>
	<path class="st19" d="M309.7,236.1l-1.3-2.1l-1.7-3.1l1-1.8l1.3,1.8c0,0-0.4,1.3-0.1,2.5C309.1,234.6,309.7,236.1,309.7,236.1
		L309.7,236.1z"/>
	<path class="st23" d="M314,235l0.2,4c0,1,0.7,2,0.6,2.3c-0.2,0.4-0.4,0.6-1,0.9c-0.6,0.2-2,0-2,0s1.3-0.2,1.4-0.5
		c0-0.2-0.4-1.4-0.5-2.4c0-1,0.1-2.2-0.3-2.2c-0.3,0-0.7,0.4-0.8,0.6c0,0,0.4-3.8,0.8-4.2s1.6,1.6,1.6,1.6L314,235z"/>
	<path class="st23" d="M309.7,236.1c0,0-3.2-3.3-4.3-5.5c-1-2.2-0.4-5.2-0.4-5.2l3,4c0,0-0.4,0.7-0.3,2
		C307.9,232.6,309.7,236.1,309.7,236.1L309.7,236.1z"/>
	<path class="st24" d="M307.6,248.3c0-0.3-0.2-1,0.4-1.8c2-2.4,6.8-4,6.8-4v2.8l-6.2,3H307.6L307.6,248.3z"/>
	<path class="st23" d="M308,246c0.3-0.1,1.4-1,1.4-1.3c0-0.4-0.7-0.4-2.1-0.7c-1.5-0.3-2.6-1-2.6-1s1.7,1.4,2.4,1.7
		c0.7,0.2,0.6,0.5,0.5,0.7L308,246L308,246z M316.3,246.7c0,0-0.9-1.3-1.2-2.1c-0.3-0.8-0.3-2.1-0.3-2.2l-1,0.7l-2,0.7
		c0,0,2,0,2,0.6c0,0.7-3,1-3,1c0,0.1,2.4-0.4,2.3,0.1c-0.2,0.6-1.2,0.7-2.5,1.2l-2.3,1l-0.7,0.5c0,0,0.6,0.4,1.5,0.3
		c0.9,0,2.9-0.5,2.9-0.5l3.8-1.5L316.3,246.7L316.3,246.7z"/>
	<path class="st24" d="M316.3,246.7c0,0-1-0.3-1.8-4.8s-0.6-5.7-0.6-5.7l1.8,1.3l1.7,3L316.3,246.7z"/>
	<path class="st23" d="M316.9,239.3c0,0-0.9,2.5-0.9,4c0,1.4-0.1,2.4,0.3,3.4s1.8,2.3,1.8,2.3l0.7-0.6l0.3-2l0.1-3.4L316.9,239.3z"
		/>
	<path class="st20" d="M319.4,242.7c0,0,0.4,6.3-1.2,6.5c-0.7,0-1.9-2.4-1.9-2.5c0,0,1.4,2.3,2,2.1c1-0.4,0.6-6.6,0.6-6.6
		L319.4,242.7z M316.3,246.7c0,0-0.3,0-0.7-0.8c-0.4-0.7,0,0.6-3.4,1.8s-4.6,0.5-4.6,0.5s1.1,1,4.5,0s3.1-1.3,3.6-1.4h0.6V246.7z
		 M0,0 M0,0"/>
	<path class="st20" d="M308,246.5l-0.2-0.5c-0.3-0.3-0.7,0.1-3.5-0.7c-2.8-0.7-3.5-1.3-3.5-1.3s1,1,3.4,1.5L308,246.5L308,246.5z"/>
	<path class="st24" d="M309.3,238.2c0,0-2.1,0.1-2.8,0.7c-0.7,0.5-1.6,2-1.6,2l1.3,0.1c0,0-0.1-1.2,0.5-1.9
		C307.4,238.5,308.4,238.4,309.3,238.2L309.3,238.2z"/>
	<path class="st23" d="M308.2,235c0,0-0.3-0.5-1.1-0.9s-1.4-0.3-1.7-0.1s-0.1,0.2-0.1,0.2l1,1.7l0.7-0.2c0,0-1.6-1-1.3-1.3
		c0.8-0.7,2.5,0.5,2.5,0.5V235z"/>
	<path class="st20" d="M316.3,231.1l17-8.7l8,11.1l-14.7,4l-7.7,0.6l-3.8-2.7L316.3,231.1z"/>
	<path class="st19" d="M339,235.9l21,18.2l-2.3,1.6l-5-1.4l-10.2-10.1l-3.8-3.8L339,235.9z"/>
	<path class="st19" d="M366,250.5l-12-9.1l-15.3-11.5l0.4,5.5l17.4,16l5.7,2.7l3-0.8l1.4-1.6L366,250.5L366,250.5z"/>
	<path class="st53" d="M339,237.6c0,0,6,6.9,10.6,10.4s9,7.3,10,6.7c0.8-0.5,0.5-1,0.5-1l-21.3-17.5L339,237.6L339,237.6z"/>
	<path class="st19" d="M353.8,255.1l-2.1,1.7l-2.5-1l-13-13.2l0.7-2.5l1.8,0.3L353.8,255.1z"/>
	<path class="st53" d="M336.9,240.4c0,0,6,7.7,9.1,10.5c3.2,2.9,6,5,7.2,4.8c1.3-0.2-0.7-1.7-0.7-1.7l-9.1-9l-4.7-4.6
		C338.7,240.4,336.9,239.7,336.9,240.4z"/>
	<path class="st20" d="M338.4,240.4c0,0,15.2,15.5,16.4,15.9c2.5,0.7,6.2-2,6.2-2l-1.3-0.7l-0.2,0.5c0,0-0.7,1.6-4,0.9
		c-3.2-0.7-16.6-15.1-16.6-15.1L338.4,240.4L338.4,240.4z"/>
	<path class="st19" d="M344,255.3l-5.5-6.4l-1.2-2.1l-0.3-2.7l11,11.1l-1.5,1l-1.4-0.4L344,255.3z"/>
	<path class="st20" d="M348.2,255.1c0,0-0.5,1.6-2,1.4c-1.6-0.3-2-0.9-2-0.9l-6.6-7.7l-0.1-2c0,0,6.8,9.3,8.3,9.8c1.6,0.5,2-1,2-1
		L348.2,255.1L348.2,255.1z"/>
	<path class="st19" d="M330.5,252.3c0,0,0,2.4-1,2.8c-1.1,0.3-3.1-4.4-3.1-4.4l-0.5-4.4l3.1,3L330.5,252.3L330.5,252.3z
		 M338.9,251.1V250c0-0.6-0.3-1.5-0.3-1.5l-0.2-2.4l-0.6-1.7l-0.4-1h-0.7l-1.7,1.2l-0.5,1.6l0.8,3l0.8,2.7l1.3,0.4l1.5-1
		L338.9,251.1z"/>
	<path class="st19" d="M336.8,255.3c0.3-0.1-0.4-3.4-0.4-3.4l-2-4.8l-0.5-1.7l-1.5-0.6l-1,1.2l0.2,1.9c0,0,1.5,3.2,2.2,4.3
		C334.6,253.3,336.1,255.5,336.8,255.3L336.8,255.3z"/>
	<path class="st20" d="M335,244.3c0,0-0.3,2.4,0.6,4.8l1.3,3c0.2,0.3,0.2,2.9-0.1,3.2c0,0-1.8-4.4-2.4-6.6c-0.5-2.1-0.7-3-1-3.2
		l-0.8-0.2L335,244.3z"/>
	<path class="st19" d="M334.4,257c0.2,0,0-1,0-1l-0.2-2.3l-2.4-4.9l-2.6-2.3l-1.4-2l-0.2,4c0,0,2,4,3.1,5
		C332,254.7,334,257.1,334.4,257z"/>
	<path class="st20" d="M332,246.7c0,0,0.5-1.2,0.8-1.3l1.2-0.3c0,0-0.7-0.1-1.2-0.8l-1.3-1.3l0.4,2L332,246.7L332,246.7z
		 M331.6,247.1c0,0,2,4,2.4,5.5c0.5,1.3,0.4,3.4,0.4,3.4s-0.2-1.5-0.6-2.7l-2.4-5C331.3,248,331.6,247.1,331.6,247.1z M0,0"/>
	<path class="st26" d="M323.8,248.3c0,0,0.8,1,1.3,1c0.4-0.2,0.3-2.1-0.3-3.2c-0.6-1-7-9.6-8-10.1S323.8,248.3,323.8,248.3z"/>
	<path class="st25" d="M328.1,244.8c0.2,0.4,0.6,3.1-0.5,3.4c-1.5,0.3-8.5-9.4-9.6-10.7c0,0-4.4-2.8-4.5-3.5s4.7,1,4.7,1l9.5,9
		l0.5,0.8H328.1z"/>
	<path class="st20" d="M327.7,244c0,0-2.8-3-3.7-4.5l-1.7-3c0,0-0.8,0.3-1.8,0c-1-0.5-2.2-1.8-2.2-1.8s-0.8,1.5,3.2,5.6
		C326.1,244.9,327.7,244,327.7,244z"/>
	<path class="st26" d="M334.4,245c1.2-0.4,1.1-5.4,0-8.7c-1-3.3-2.9-6.2-2.9-6.2s2.3,5.4,2.8,7.5c0.4,2.2,0,3.7-0.4,3.6
		c-0.4-0.1-0.4-1.3-1.3-3.4c-1-2-1.6-2.6-1.6-2.6s3.3,8.8,2.3,8.6c-0.9-0.2-5.3-9.9-5.5-10.2c-0.2-0.2-0.4,0.4-0.4,0.4
		S331.4,246.2,334.4,245L334.4,245z"/>
	<path class="st26" d="M331.6,247c0.8,0,0-2,0-2s-0.6,1-1.2,0.3c-0.5-0.7-1.3-3.1-1.3-3.1l-0.5-1.5c0,0-0.6,1.6-1.3,1.6
		s-4.6-6.4-4.6-6.4l-0.4,0.6c0,0,5.4,11.1,9.3,10.6V247z"/>
	<path class="st52" d="M337.2,242.9c1,0,0.1-6-0.3-7.5c-0.4-1.6-3-8.8-3-8.8s3,10.3,2.8,10.8c-0.3,0.8-1.5-3.1-1.7-3
		c-0.2,0,2.2,6.9,1.3,7c-0.8,0-1.3-1.5-1.3-1.5l0.1,1.5C335.1,241.4,335.7,242.8,337.2,242.9z"/>
	<path class="st52" d="M338.5,239.9c0.7,0-0.2-5.7-0.7-8.2l-2-7.5c0,0,1.5,3.5,2.3,7.5s1.4,9,0.6,9.2c-0.8,0-1.2-0.8-1.2-0.8v-0.9
		C337.5,239.2,337.8,239.9,338.5,239.9L338.5,239.9z"/>
	<path class="st27" d="M328.8,246.5c0,0.4,0,2.4-1,2.2c-1-0.1-2.9-1.9-3.3-3c0,0,2.2,2.5,3,2.4c0.8,0,0.8-2.5,0.6-3.2
		C328.1,244.3,328.7,246.5,328.8,246.5L328.8,246.5z"/>
	<path class="st23" d="M332.1,214.7c0,0,1.6,2.6,2.2,5c0.7,2.3,0.5,3.2,0.2,3.3c-0.4,0-0.6-0.3-0.7-0.9
		C333.8,221.5,332.1,214.7,332.1,214.7L332.1,214.7z"/>
	<path class="st54" d="M304.1,218l10.6,15.3l13.2-15l-8.3-8.6L304.1,218z"/>
	<path class="st19" d="M317.5,208.5l-0.6,2.4l1.3,4.1l2.2,2.3l2.5,1.7l0.6-2l0.6-2.2l0.7-0.2l1.6,0.6l1-1.5l1.8-3.1l-0.4-1.2
		l-0.4-0.9l-2.7-4.6l-0.9,1.7l-0.8,0.5l-1.6-0.8l-1.8,2.4l-2.3-1L317.5,208.5z"/>
	<path class="st55" d="M323,219c0,0,0.4-0.3,0.6-1.6c0.2-1.2,0.2-4.9-0.1-6.4c-0.3-1.5-1.3-4.4-1.5-4.2c-0.2,0.3,1.5,3.3,1.3,7
		c-0.3,3.6-0.2,4.6-1,5c-0.7,0.3,0.6,0.2,0.6,0.2H323z"/>
	<path class="st55" d="M323.6,212.8c0,0,1.7,2.5,2.5,1.6c0.9-0.9,0.5-4,0-5.3l-1.2-3l0.5-0.6l0.9,3.4c0.3,1.4,1.3,5.2,0.1,6
		c-1.1,0.6-2.8-1.5-2.8-1.5V212.8L323.6,212.8z"/>
	<path class="st23" d="M317.9,214.6c0,0,0.6-1,1.4-1s1,0.3,1,0.3l0.6,2l1.2,2.2l1,1l-0.5,0.6l-0.9,0.2l-2.5-1.4l-0.7-1L317.9,214.6
		L317.9,214.6z"/>
	<path class="st23" d="M321,229.6l1.1,1.7c0.3,0.4,0,2.9-0.2,3.4c-0.3,0.9-1.6-1.2-2.3-3l-2.2-3.8c0-0.4,3.5,1.7,3.5,1.7L321,229.6z
		 M331.8,216.7c0,0,2,8.1,1,8.4c-1,0.3-3.6-2.6-4-3l-4-6.4l-0.8-0.8l0.2-0.4l1.7,0.6l6,1.6L331.8,216.7z M0,0 M0,0 M0,0 M0,0 M0,0"
		/>
	<path class="st20" d="M327,222.8l-1.7-4.2l-1.6-5.2v2.8c-0.1,1.2-0.5,3-1,3.3c-0.6,0.2-0.7,0.3-1.7,0c-1-0.2,0.7,0.5,0.7,0.5
		s1,0,1.4-0.5s0.5-1.5,1-1.4c0.4,0.2,1,1.7,1.3,2.4L327,222.8L327,222.8z"/>
	<path class="st23" d="M330.2,223.9c-0.3,0-1.3-0.3-1.4,0c0,0.4,0.6,1.8,1.3,2.5c0.7,0.7,1,0.7,1.1,0.6c0.2,0,0-0.7-0.2-1.4v-1.7
		C330.9,223.6,330.2,223.9,330.2,223.9L330.2,223.9z"/>
	<path class="st18" d="M306,209.4l-1.3,0.7l-1.4,3l0.4,5.3l2.1,3c0.8,1.2,3.5,4.2,4.2,4s1.4-2.3,1.5-3.4l0.2-3.2l1.8,2.3
		c1.1,1.3,2,2.4,2.6,2.3c0.5,0,2-3.2,2-3.6c0.1-0.4-3.8-10-3.8-10l-1.8-1L306,209.4L306,209.4z"/>
	<path class="st24" d="M314.8,217.4l1,3.7c0.5,1.2,0,2.3,0.3,2.3c0.2,0,2.3-2.7,2.3-4c0-1.2,0-2.5-0.5-6.3s0.2-5,0.2-5l-1.2-1
		l-2,4.2L314.8,217.4L314.8,217.4z M307.8,215.2l0.7,5c0.3,1.2,1,3.3,1.4,3.2c0.4,0,1.6-3.3,1.7-4.4c0,0-0.9-1.6-0.8-5.5
		c0-4-0.4-4.4-0.4-4.4L307.8,215.2L307.8,215.2z"/>
	<path class="st28" d="M302.5,207.5c0,0-3.1,4.6-3,7c0,2.5,0.4,2,1.1,4.2c0.7,2.3,1.1,5.6,1.2,5.9c0,0.2,0.5-0.2,0.5-0.5
		L302.5,207.5L302.5,207.5z"/>
	<path class="st29" d="M317.2,215.3c0,0-1.3-0.3-1.9-0.6s-0.8-1.1-0.8-1.1l0.4-0.8L317.2,215.3L317.2,215.3z"/>
	<path class="st18" d="M303,208.5c0,0-2,4.3-1.7,7.2s1.9,6.6,2,6.7c0.2,0,0-0.3,0.1-1v-8.7l0.9-2.8v-1.5L303,208.5z"/>
	<path class="st29" d="M317,218.1l-1.5-0.3c-0.5,0-0.6-0.6-0.6-0.6l0.2-0.6l1.2,0.7L317,218.1L317,218.1z"/>
	<path class="st23" d="M313.9,201.5c0,0,0.2,1.3-0.5,3.6s-1.6,3.9-1.6,3.9s2.4-1.5,3.6-4.2c1.1-2.6,0.9-5.7,0.9-5.7L313.9,201.5z
		 M316.9,199c0,0,0.2,0.4,0,2.4l-0.8,4l0.6,1.2c0.4,0.7,1.2,1.8,1.7,1.6c0.6-0.2,1.6-0.9,2.2-2.2c0.6-1.4,1.1-2.7,1.4-2.9
		c0.2-0.2,0.3,0.1,0.4,0.2c0,0.1,0.3,1.3,0.9,1.8c0.5,0.5,1.3,1.3,1.6,1c0.4-0.2,0.8-0.9,0.7-1.2l-1.3-4l-1.6-4l-1-1.6l-2.8,0.3
		L316.9,199L316.9,199z"/>
	<path class="st24" d="M321.7,195.3c0,0,0.8,1.7,0.9,3.6c0,1.8-0.4,3.8-0.4,3.8s0.2-2.3,0-3.7c-0.3-1.4-0.7-2.3-0.7-2.7L321.7,195.3
		L321.7,195.3z"/>
	<path class="st30" d="M306,195.4c0,0-0.2,0.9-0.8,2c-0.5,1.2-1.4,2.2-1.3,2.4c0,0.1,0.6,0.7,1.4,0.6c0.8,0,1.1-4.8,1.1-4.8
		l-0.1-0.2H306L306,195.4z"/>
	<path class="st30" d="M311.4,186.6l2.7,3.8l0.6-0.5c0.4,0.5,0.6,0.9,0.4,1.2c-0.4,1-1.3,2.3-0.5,3.7c0,0-0.3-0.8,0.1-1.8
		s0.7-1.4,1-1.3c0.2,0,0.6,5.8,1,5.8c0.3,0,0.9-2.7,0.9-4.5s0.3-0.3,0.5,0c0.2,0.4,1.8,3,3.1,2.6c1.4-0.4,1.2-2.8,1.2-3.3
		c0-0.6-1-3.7-1-3.7l-6.1-3.9l-0.5,1.6C314.5,187.3,311.4,186.6,311.4,186.6L311.4,186.6z"/>
	<path class="st23" d="M312.3,186.7c0,0,1.5,0.3,2.3,0.2h1.1c0,0,0.5,0.6,0.5,1.4c0,0.7-0.5,2.1-0.8,2.2c-0.2,0-0.2-1.3-0.5-1.8
		L312.3,186.7L312.3,186.7z"/>
	<path class="st23" d="M310.3,192.3c-0.5,0.5-1.2,0.4-1.8,0.6c-0.6,0.2-0.9,1-0.9,1s0.5-0.3,0.7-0.2c0.3,0.1,0.5,0.1,0.1,1.2
		c-0.5,1.1-2.2,3-2.1,3c0,0,2-1.5,2.5-2.5c0.7-0.9,0.6-1.4,0.8-1.8c0-0.3,0.8-0.7,1-0.7c0.1,0,0.5,0,0.6,0.7l0.6,2.6l0.8-2.6
		c0.2-1,0.2-2.9,0.2-2.9l-0.6-0.1c-0.5-0.1-1.5-1-1.5-1S310.9,191.6,310.3,192.3L310.3,192.3z"/>
	<path class="st24" d="M318.3,180.8c0,0.3-0.3,1.1-0.6,1.3c-0.3,0-0.8,0.3-2,0c-1.1-0.2-2.3-1-3.6-1.3c-1.3-0.4-2.3-0.7-3.3-0.7
		s-0.5-0.4-0.5-0.4s2.3-0.3,4.3,0.5c2,0.7,2.9,1.2,4,1.2C318,181.4,318.3,180.8,318.3,180.8z"/>
	<path class="st19" d="M307.6,179.6h0.9c0.4,0,0.7-0.3,0.7-0.3s0,0.5-0.2,0.7c-0.3,0.2-1,0.1-1.2,0.1L307.6,179.6L307.6,179.6z"/>
	<path class="st29" d="M315.3,184.4c0,0,1.3,1.3,1,2.4l-2.7-1.2l-4.2-1.7l-2.3-0.7l-0.3-0.4l0.6-0.8l0.2-0.8l2.8,0.4l3,1
		L315.3,184.4z"/>
	<path class="st29" d="M312.4,186.3c0,0,2.4,3.1,1.8,4.1l-5.6-3.5l-2,3.3l-4.7-2.3c0,0,3.8-3,4.2-3.5l0.5-0.7l2,0.4l3.4,1
		L312.4,186.3L312.4,186.3z"/>
	<path class="st24" d="M311,181.6c0,0,2,0.5,3.3,1.2c1.3,0.6,3,0.8,3,0.8s-0.6,0.7-2,0.8c-0.4,0-1.4-0.8-2-1.3c-0.7-0.4-2.6-1-2.6-1
		L311,181.6L311,181.6z"/>
	<path class="st19" d="M307.6,180.6c0,0,1.4,0.3,2.2,0.7c1,0.3,1,0.2,1.2,0.1c0.3,0,0.3-0.2,0.3-0.2s0.2,1-0.5,1s-1-0.3-1.8-0.7
		c-1-0.4-1.5,0-1.5,0L307.6,180.6L307.6,180.6z"/>
	<path class="st56" d="M296,179.9c0,0,0.4,0.2-0.4,2.3s-1.3,2.8-2.5,4.2c-2.2,2.4-3.2,2.5-3,3.5c0.3,1,1.1,0.8,1.3,0.8
		c0.2,0,4.3-6,4.3-6l0.9-3.5l-0.2-1L296,179.9L296,179.9z"/>
	<path class="st29" d="M306.1,175.6c0,0,1.2,1.8,0.8,5c-0.3,3.4-4.7,6.3-4.7,6.3l-6.4,4.4l-2.7-0.2h-0.8c-0.4-0.1-0.8-0.5-0.9-0.5
		l-0.5-1.2l0.9-1l2.3-2.3l1.4-2c0,0,0.7-1.3,0.8-2.5c0-1.1-0.2-1.7-0.2-1.7l0.5,0.8l0.3,1.8l-0.2,2l1.6-1.2l2.2-1c0,0,0.7,0,1-1.3
		c0.5-1.2,0.9-3,0.9-3.8l-0.1-1.8h0.3c0.2,0,0.7,1.2,0.7,1.7l0.4,2.8l1-1l1-1.5C305.9,176.9,306.1,176.1,306.1,175.6L306.1,175.6z"
		/>
	<path class="st52" d="M306.8,192.2c0,0,0.5,0.4,0.3,1.6c-0.2,1.2-1.1,1.8-1.6,1.8V194l-1.4-1.2l-1.5-0.4l0.3-0.3
		c0.1-0.2,1.7-0.8,1.7-0.8L306.8,192.2z"/>
	<path class="st24" d="M305.7,192.2c0,0,0.5,0.4,1.2,0.3c0.7-0.2,1-1.3,0.6-1.8c-0.4-0.4-0.2,1-0.7,1.3c-0.4,0.1-1-1.2-1.5-1.3
		c-0.7-0.1-1.6,0.3-1.9,0.7c-0.2,0.4,1,0,1,0l0.7,0.3h0.5L305.7,192.2L305.7,192.2z"/>
	<path class="st52" d="M296.5,187.6c0,0,0.8,0.3,1.7,0.1l3.1-1l1.8-1.3c0.7-0.7,3.1-2.2,3.4-5.1c0.2-3-0.4-4.7-0.4-4.7
		s3.5,3.8,0.5,8.2c-2,2.8-3.8,3.7-3.8,3.7s3.4-1,3.7-0.2c0.3,0.8-0.1,2-0.2,2.3c0,0,1.9,0.4,2.2,1.4c0.1,0.6-2.2-0.7-4-0.2
		c-1.8,0.4-2.5,1.4-2.5,1.4s-0.4-0.5-2-0.5c-1.5,0-2.2,0.7-3.1,0.7c-1,0-3.7-0.6-4.2-1.4l1.8-2.2
		C295.3,187.2,296.5,187.6,296.5,187.6z"/>
	<path class="st24" d="M303.8,179.7c0,0,1.3-1.3,1.8-2.3c0.4-1,0.5-1.8,0.5-1.8s0.2,1-0.6,2.3s-1.7,2-1.7,2L303.8,179.7L303.8,179.7
		z"/>
	<path class="st52" d="M303.4,176.7c0,0,1.1,4.4,0,6.1c-1.3,1.8-6.5,4.1-6.5,4.1s4-2.1,5.2-4.6s1.1-4.5,1.1-4.5l0.2-1L303.4,176.7z"
		/>
	<path class="st54" d="M298.2,187.7c0,0,1.7,0,2.6-0.6c1-0.5,2.3-1.7,2.3-1.7s-1.2,1-1.6,1c-0.3,0-0.6-0.5-0.5-0.9
		c0,0-0.3,0.8-1,1.4C299.2,187.4,298.2,187.7,298.2,187.7z M302.1,182.3c0,0,1.4-1.4,1.4-4.4s-1.2-2.5-1.2-2.5s1,0.7,0.7,3
		c-0.2,2.3-1,4-1,4L302.1,182.3z M303.8,182.6c0,0,1.6-0.3,2.1-1.3s0.6-2.7,0.6-2.7s-0.2,1.7-0.7,2.3
		C305.4,181.5,303.8,182.6,303.8,182.6z M302.8,192.1c0,0,0.8-1.5,1.9-1.1c1,0.4,1,1.2,1,1.2s-0.4-0.6-1.2-0.7
		C303.8,191.5,302.9,192.1,302.8,192.1L302.8,192.1z M299.9,189.4l3.7-1l3-1c0,0-1.2,1.3-3,2.3c-1.6,1-3,1-3,1s3.2-1.4,3.4-2
		c0,0-3,0.9-4,0.7H299.9z M0,0 M0,0 M0,0 M0,0 M0,0"/>
	<path class="st52" d="M296.1,185.4c0,0,0.7-2,0.7-3.1s-0.7-2.4-0.7-2.4s1-0.1,1,2.2C297.2,184.5,296.7,184.7,296.1,185.4z"/>
	<path class="st19" d="M299.2,182.8c0,0,0.7-1.7,0.7-3c0-1.1-1-2.3-1-2.3s1.1,0.3,1.2,2.4C300.2,182.1,299.9,182.1,299.2,182.8
		L299.2,182.8z"/>
	<path class="st57" d="M305.5,195.6c0,0,1.5-0.5,1.6-2l-0.1-1.2c0,0,0.2,0.5,0.8,0.7l0.6-0.2c0,0-1,2.8-3,2.7H305.5z"/>
	<path class="st31" d="M294.8,195.3l0.8,0.8l0.9,1l3.7-1l1.2-1.2l-1-1.6h-2.7l-3,2H294.8z"/>
	<path class="st58" d="M303.8,193.8c0,0-0.4,0.2-0.5,0c-0.6-1-2-1.4-3-1.3c-1.5,0-2.4,0.5-3.4,0.5s-0.7-0.1-1.8-0.2
		c-1.1,0-3.5-1.8-4-1.6c-0.6,0.2-0.8,0.8-0.8,1.1c0.1,0.4-1,0.4-1,0.1c-0.2-0.2,0.7-1.7,1.7-1.7c2.6,0,4.6,1.7,5.8,1.7
		c1.3,0,1.7-0.7,3.4-0.7S303.7,192.5,303.8,193.8L303.8,193.8z"/>
	<path class="st59" d="M295.2,195.8c0,0,1.3-0.2,2.2-0.6l2.2-0.8l-2,1.2l-2,0.5L295.2,195.8L295.2,195.8z"/>
	<path class="st32" d="M290.8,202.3c-0.2,0-1.3,0-3-1.1c-1.8-1.2-2.3-3.2-2.3-3.2s-0.4-1.9,1.4-3.8c1.8-1.9,2.1-1.3,2.2-1.2
		c0.1,0,0,0.1,0,0.1l-1.7,1.3l-0.7,1.3l-0.7,1.2v1.4l0.8,1.5l2.5,1.5L290.8,202.3L290.8,202.3z"/>
	<path class="st32" d="M295.1,194.1l-3.8,1.1c-0.3,0.2,1.2,0,2.4,0l1.3,0.1l0.9-0.2c1.4-0.5,4.4-1.6,4.7-0.3c0.2,1-4.1,2-4.1,2v0.5
		l3.4-0.9l1.9-1l0.5-0.9l-1.7-1.2H298l-1.2,0.3L295.1,194.1L295.1,194.1z"/>
	<path class="st23" d="M289.7,199.5c0.3,0.8,0.9,2,1.6,2.3c0,0,0.1,0,0,0c0,0.1-0.5,0.5-1.7,0.1c-1.2-0.3-3-0.7-4.1-4v0.7l0.7,1.3
		l1.1,1.2l1.9,1.1l1.2,0.3l1-0.2l0.6-0.4l-1.1-1l-1.4-2.3l0.2,1L289.7,199.5z"/>
	<path class="st47" d="M302.1,232.6v1.2h-0.7v-1.5L302.1,232.6z M297.4,198.2l-1.2-1.4l-0.8,0.1l1.2,1.8L297.4,198.2z M0,0 M0,0"/>
	<path class="st14" d="M292.1,198.4l-0.4-0.3l-0.3,0.1l0.6,0.5L292.1,198.4z M293.1,199.4l-0.3-0.3h-0.1l0.2,0.4L293.1,199.4z"/>
	<path class="st45" d="M294.5,201l-0.2-0.4l-0.2,0.2l0.3,0.3L294.5,201z M295.5,202.5l-0.1-0.3h-0.3l0.4,0.5V202.5z M296.2,204
		l-0.2-0.4v0.4H296.2z M296.2,205.5v-0.4L296,205v0.5H296.2z M296.2,206.5V206l-0.1-0.1v0.6H296.2z M284,221.1l0.1-0.7
		c0.1-0.3-0.3,0.1-0.3,0.1v0.5L284,221.1L284,221.1z"/>
	<path class="st0" d="M284,222.1l-0.3,0.1l0.1,0.5l0.1-0.2L284,222.1L284,222.1z"/>
	<path class="st45" d="M284,223.9v-0.4h-0.2v0.6L284,223.9z"/>
	<path class="st0" d="M284,224.9v-0.4h-0.1v0.4H284z M284.3,226.3v-0.4l-0.2,0.1l0.1,0.4L284.3,226.3z M284.7,227.7l-0.1-0.5h-0.2
		l0.2,0.6L284.7,227.7z"/>
	<path class="st14" d="M285.6,229.7l-0.2-0.3h-0.2l0.3,0.3H285.6z M287.1,231.1l-0.5-0.3c-0.3-0.3-0.1,0.2-0.1,0.2l0.4,0.2
		L287.1,231.1L287.1,231.1z M296.9,231.9l-0.4-0.3c-0.2,0,0,0,0.2,0.4C296.8,232.3,296.9,231.9,296.9,231.9L296.9,231.9z"/>
	<path class="st0" d="M297.7,232.5l-0.3-0.3v0.3H297.7L297.7,232.5z"/>
	<path class="st14" d="M297.9,233c-0.1-0.2-0.2,0.1-0.2,0.1l0.2,0.3V233L297.9,233z M297.9,234.3v-0.5c0-0.2-0.1,0-0.1,0v0.5H297.9z
		"/>
	<path class="st0" d="M297.4,235.7l0.2-0.4h-0.2V235.7z M282.6,183.7c0,0,0.5-0.2,0.1,0.4l0.3-0.5h-0.5L282.6,183.7z"/>
	<path class="st32" d="M294.6,195l0.4,0.3h-0.5L294.6,195z"/>
	<path class="st23" d="M295,195.3l-0.7,0.1c-0.2,0,0.2-0.2,0.2-0.2l0.4,0.1L295,195.3z"/>
	<path class="st60" d="M301,239.1c0,0,0.3,0,0.5-0.3s-0.1,0.4-0.1,0.4l-0.3,0.1l-0.2-0.2H301z"/>
</g>
</svg>
