<?xml version="1.0" encoding="utf-8"?>
<!-- Generator: Adobe Illustrator 24.3.0, SVG Export Plug-In . SVG Version: 6.00 Build 0)  -->
<svg version="1.1" id="flag-icon-css-us" xmlns="http://www.w3.org/2000/svg" xmlns:xlink="http://www.w3.org/1999/xlink" x="0px"
	 y="0px" viewBox="0 0 640 480" style="enable-background:new 0 0 640 480;" xml:space="preserve">
<style type="text/css">
	.st0{fill-rule:evenodd;clip-rule:evenodd;fill:#BD3D44;}
	.st1{fill-rule:evenodd;clip-rule:evenodd;fill:#FFFFFF;}
	.st2{fill-rule:evenodd;clip-rule:evenodd;fill:#192F5D;}
</style>
<g>
	<g>
		<path class="st0" d="M0,443.1V480h640v-36.9H0z M0,369.2v36.9h640v-36.9H0z M0,295.4v36.9h640v-36.9H0z M0,221.5v36.9h640v-36.9H0
			z M0,147.7v37h640v-37H0z M0,73.9v36.9h640V73.9H0z M0,0v36.9h640V0H0z"/>
		<path class="st1" d="M0,406.1v36.9h640v-36.9H0z M0,332.3v36.9h640v-36.9H0z M0,258.5v36.9h640v-36.9H0z M0,184.6v36.9h640v-36.9
			H0z M0,110.8v36.8h640v-36.8H0z M0,36.9v36.9h640V36.9H0z"/>
	</g>
	<path class="st2" d="M0,0h364.8v258.5H0V0z"/>
	<path class="st1" d="M348.5,228.1h-10.8l-2.1-6.6l-1.2-3.7l-1.2,3.7l-2.1,6.5h-10.8l8.7,6.3l-3.4,10.3l8.7-6.3l8.7,6.3l-3.4-10.2
		L348.5,228.1z M287.6,228.1h-10.7l-2.2-6.6l-1.2-3.7l-1.2,3.7l-2.1,6.5h-10.7l8.6,6.3l-3.3,10.3l8.6-6.3l8.7,6.3l-3.3-10.2
		L287.6,228.1z M226.9,228.1h-10.8l-2.1-6.6l-1.2-3.7l-1.2,3.7l-2.2,6.5h-10.7l8.7,6.3l-3.4,10.3l8.7-6.3l8.7,6.3l-3.4-10.2
		L226.9,228.1z M165.9,228.1h-10.6l-2.2-6.6l-1.2-3.7l-1.1,3.7l-2,6.5H138l8.7,6.3l-3.3,10.3l8.6-6.3l8.7,6.3l-3.3-10.2L165.9,228.1
		z M105.3,228.1H94.5l-2.1-6.6l-1.2-3.7l-1.2,3.7l-2.2,6.5H77.2l8.7,6.3l-3.4,10.3l8.7-6.3l8.7,6.3l-3.4-10.2L105.3,228.1z
		 M44.4,228.1H33.8l-2.2-6.6l-1.2-3.7l-1.2,3.7l-2,6.5H16.3l8.7,6.3l-3.3,10.3l8.6-6.3l8.7,6.3l-3.3-10.2L44.4,228.1z M318.1,202.2
		h-10.8L304,192l-3.4,10.2H290l8.6,6.3l-3.3,10.2l8.7-6.3l8.6,6.4l-3.3-10.3L318.1,202.2z M257.2,202.2h-10.7l-3.4-10.2l-3.2,10.2
		h-10.9l8.7,6.3l-3.3,10.2l8.6-6.3l8.7,6.4l-3.3-10.3L257.2,202.2z M196.5,202.2h-10.8l-3.3-10.2l-3.4,10.2h-10.7l8.6,6.3l-3.3,10.2
		l8.7-6.3l8.6,6.4l-3.3-10.3L196.5,202.2z M135.7,202.2H125l-3.4-10.2l-3.3,10.2h-10.8l8.7,6.3l-3.4,10.2l8.7-6.3l8.7,6.4l-3.4-10.3
		L135.7,202.2z M74.9,202.2H64.1L60.8,192l-3.4,10.2H46.8l8.6,6.3l-3.3,10.2l8.7-6.3l8.6,6.4l-3.3-10.3L74.9,202.2z M340.4,184.6
		l-0.6-1.9l8.7-6.3h-10.8l-3.3-10.3l-3.3,10.2h-10.8l8.7,6.3l-0.7,2l0,0.1l-2.7,8.2l8.7-6.3l8.7,6.3L340.4,184.6L340.4,184.6z
		 M279.6,184.6l-0.6-1.9l8.6-6.3h-10.7l-3.4-10.3l-3.3,10.2h-10.7l8.6,6.3l-0.6,2l0,0.1l-2.6,8.2l8.6-6.3l8.7,6.3L279.6,184.6
		L279.6,184.6z M218.8,184.6l-0.6-1.9l8.7-6.3h-10.8l-3.3-10.3l-3.4,10.2h-10.7l8.7,6.3l-0.6,2l0,0.1l-2.7,8.2l8.7-6.3l8.7,6.3
		L218.8,184.6L218.8,184.6z M157.9,184.6l-0.6-1.9l8.6-6.3h-10.6l-3.4-10.3l-3.4,10.2h-10.8l8.7,6.3l-0.6,2l0,0.1l-2.6,8.2l8.6-6.3
		l8.7,6.3L157.9,184.6L157.9,184.6z M97.2,184.6l-0.6-1.9l8.7-6.3H94.5l-3.3-10.3l-3.4,10.2H77.2l8.7,6.3l-0.7,2l0,0.1l-2.7,8.2
		l8.7-6.3l8.7,6.3L97.2,184.6L97.2,184.6z M36.4,184.6l-0.6-1.9l8.6-6.3H33.8l-3.4-10.3l-3.2,10.2H16.3l8.7,6.3l-0.6,2l0,0.1
		l-2.6,8.2l8.6-6.3l8.7,6.3L36.4,184.6L36.4,184.6z M318.1,150.6h-10.8l-0.9-2.9l-2.3-7.3l-2.4,7.3l-0.9,2.8H290l8.6,6.3l-3.3,10.3
		l8.7-6.4l8.6,6.4l-3.3-10.2L318.1,150.6z M257.2,150.6h-10.7l-1-2.9l-2.4-7.3l-2.3,7.3l-0.9,2.8h-10.9l8.7,6.3l-3.3,10.3l8.6-6.4
		l8.7,6.4l-3.3-10.2L257.2,150.6z M196.5,150.6h-10.8l-0.9-2.9l-2.3-7.3l-2.4,7.3l-0.9,2.8h-10.7l8.6,6.3l-3.3,10.3l8.7-6.4l8.6,6.4
		l-3.3-10.2L196.5,150.6z M135.7,150.6H125l-1-2.9l-2.4-7.3l-2.4,7.3l-0.9,2.8h-10.8l8.7,6.3l-3.4,10.3l8.7-6.4l8.7,6.4l-3.4-10.2
		L135.7,150.6z M74.9,150.6H64.1l-0.9-2.9l-2.4-7.3l-2.4,7.3l-0.9,2.8H46.8l8.6,6.3l-3.3,10.3l8.7-6.4l8.6,6.4l-3.3-10.2L74.9,150.6
		z M348.5,124.7h-10.8l-3.3-10.2l-3.3,10.2h-10.8l8.7,6.3l-3.4,10.2l8.7-6.3l8.7,6.4l-3.4-10.3L348.5,124.7z M287.6,124.7h-10.7
		l-3.4-10.2l-3.3,10.2h-10.7l8.6,6.3l-3.3,10.2l8.6-6.3l8.7,6.4L279,131L287.6,124.7z M226.9,124.7h-10.8l-3.3-10.2l-3.4,10.2h-10.7
		l8.7,6.3l-3.4,10.2l8.7-6.3l8.7,6.4l-3.4-10.3L226.9,124.7z M165.9,124.7h-10.6l-3.4-10.2l-3.4,10.2h-10.8l8.7,6.3l-3.3,10.2
		l8.6-6.3l8.7,6.4l-3.3-10.3L165.9,124.7z M105.3,124.7H94.5l-3.3-10.2l-3.4,10.2H77.2l8.6,6.3l-3.3,10.2l8.7-6.3l8.6,6.3L96.6,131
		L105.3,124.7z M44.4,124.7H33.8l-3.4-10.2l-3.2,10.2H16.3L25,131l-3.3,10.2l8.6-6.3l8.7,6.4L35.8,131L44.4,124.7z M309.4,105.1
		l8.7-6.3h-10.8L304,88.6l-3.4,10.2H290l8.6,6.3l-1.8,5.7l-1.4,4.5l6.2-4.5l2.5-1.8l2.4,1.8l6.2,4.6l-1.5-4.6L309.4,105.1z
		 M248.6,105.1l8.6-6.3h-10.7l-3.4-10.2L240,98.8h-10.9l8.7,6.3l-1.8,5.7l-1.4,4.5l6.2-4.5l2.5-1.8l2.4,1.8l6.3,4.6l-1.5-4.6
		L248.6,105.1z M187.8,105.1l8.7-6.3h-10.8l-3.3-10.2l-3.4,10.2h-10.7l8.6,6.3l-1.8,5.7l-1.4,4.5l6.2-4.5l2.5-1.8l2.4,1.8l6.2,4.6
		l-1.5-4.6L187.8,105.1z M126.9,105.1l8.7-6.3H125l-3.4-10.2l-3.3,10.2h-10.8l8.7,6.3l-1.9,5.7l-1.5,4.5l6.2-4.5l2.5-1.8l2.4,1.8
		l6.3,4.6l-1.5-4.6L126.9,105.1z M66.2,105.1l8.7-6.3H64.1l-3.3-10.2l-3.4,10.2H46.8l8.6,6.3l-1.8,5.7l-1.4,4.5l6.2-4.5l2.5-1.8
		l2.4,1.8l6.2,4.6l-1.5-4.6L66.2,105.1z M348.5,73h-10.8l-3.3-10.3l-3.3,10.2h-10.8l1.3,0.9l7.4,5.3l-3.4,10.3l8.7-6.4l8.7,6.4
		l-3.4-10.2l7.5-5.4L348.5,73z M287.6,73h-10.7l-3.4-10.3l-3.3,10.2h-10.7l1.3,0.9l7.3,5.3l-3.3,10.3l8.6-6.4l8.7,6.4L279,79.3
		l7.5-5.4L287.6,73z M226.9,73h-10.8l-3.3-10.3l-3.4,10.2h-10.7l1.3,0.9l7.4,5.3l-3.4,10.3l8.7-6.4l8.7,6.4l-3.4-10.2l7.5-5.4
		L226.9,73z M165.9,73h-10.6L152,62.7l-3.4,10.2h-10.8l1.3,0.9l7.4,5.3l-3.3,10.3l8.6-6.4l8.7,6.4l-3.3-10.2l7.5-5.4L165.9,73z
		 M105.3,73H94.5l-3.3-10.3l-3.4,10.2H77.2l1.3,0.9l7.3,5.3l-3.3,10.3l8.7-6.4l8.6,6.4l-3.3-10.2l7.5-5.4L105.3,73z M44.4,73.1H33.8
		l-3.4-10.4L27.2,73H16.3l1.2,0.8l7.5,5.4l-3.3,10.3l8.6-6.4l8.7,6.4l-3.3-10.2l7.6-5.5L44.4,73.1z M318.1,47.2h-10.8L304,36.9
		l-3.4,10.2H290l8.6,6.3l-3.3,10.2l8.7-6.3l8.6,6.3l-3.3-10.2L318.1,47.2z M257.2,47.2h-10.7l-3.4-10.2L240,47.2h-10.9l8.7,6.3
		l-3.3,10.2l8.6-6.3l8.7,6.3l-3.4-10.2L257.2,47.2z M196.5,47.2h-10.8l-3.3-10.2l-3.4,10.2h-10.7l8.6,6.3l-3.3,10.2l8.7-6.3l8.6,6.3
		l-3.3-10.2L196.5,47.2z M135.7,47.2H125l-3.4-10.2l-3.3,10.2h-10.8l8.7,6.3l-3.4,10.2l8.7-6.3l8.7,6.3l-3.4-10.2L135.7,47.2z
		 M74.9,47.2H64.1l-3.3-10.2l-3.3,10.2H46.9l8.4,6.3l-3.1,10.2l8.7-6.3l8.4,6.3l-3.2-10.2L74.9,47.2z M339.8,27.6l8.7-6.3h-10.8
		l-3.3-10.2l-3.3,10.2h-10.8l8.7,6.3l-3.1,9.4l-0.3,0.8l1.2-0.8l7.5-5.4l7.4,5.4l1.3,0.9l-0.3-0.9L339.8,27.6z M279,27.6l8.6-6.3
		h-10.7l-3.4-10.2l-3.3,10.2h-10.7l8.6,6.3l-3,9.4l-0.3,0.8l1.2-0.8l7.5-5.4l7.4,5.4l1.3,0.9l-0.3-0.9L279,27.6z M218.2,27.6
		l8.7-6.3h-10.8l-3.3-10.2l-3.4,10.2h-10.7l8.7,6.3l-3.1,9.4l-0.3,0.8l1.2-0.8l7.5-5.4l7.4,5.4l1.3,0.9l-0.3-0.9L218.2,27.6z
		 M157.3,27.6l8.6-6.3h-10.6L152,11.1l-3.4,10.2h-10.8l8.7,6.3l-3,9.4l-0.3,0.8l1.2-0.8l7.5-5.4l7.4,5.4l1.3,0.9l-0.3-0.9
		L157.3,27.6z M96.6,27.6l8.7-6.3H94.5l-3.3-10.2l-3.4,10.2H77.2l8.6,6.3l-3,9.4l-0.3,0.8l1.2-0.8l7.5-5.4l7.4,5.4l1.3,0.9l-0.3-0.9
		L96.6,27.6z M35.8,27.6l8.6-6.3H33.8l-3.4-10.2l-3.2,10.2H16.3l8.7,6.3l-3,9.4l-0.3,0.8l1.2-0.8l7.5-5.4l7.4,5.4l1.3,0.9l-0.3-0.9
		L35.8,27.6z"/>
</g>
</svg>
