<svg xmlns="http://www.w3.org/2000/svg" xmlns:xlink="http://www.w3.org/1999/xlink" width="438" height="200" viewBox="0 0 438 200">
  <defs>
    <clipPath id="clip-path">
      <rect id="Rectangle_4" data-name="Rectangle 4" width="438" height="200" rx="4" transform="translate(0 42)" fill="#fff"/>
    </clipPath>
  </defs>
  <g id="bg" transform="translate(0 -42)" clip-path="url(#clip-path)">
    <rect id="Rectangle_14" data-name="Rectangle 14" width="438" height="200" transform="translate(0 42)" fill="#db3056"/>
    <circle id="Ellipse_4" data-name="Ellipse 4" cx="6.829" cy="6.829" r="6.829" transform="translate(27.114 117)" fill="#212529"/>
    <circle id="Ellipse_5" data-name="Ellipse 5" cx="13" cy="13" r="13" transform="translate(66 101)" fill="#212529"/>
    <path id="Path_10" data-name="Path 10" d="M46.625,136.686a2.143,2.143,0,0,0-3.78-.912l-3.155,3.977a10.347,10.347,0,0,1-9.088,3.7,75.567,75.567,0,1,0,23.7,6.114,11.361,11.361,0,0,1-6.711-8.033Z" transform="translate(4.6 -3.962)" fill="#212529"/>
    <circle id="Ellipse_6" data-name="Ellipse 6" cx="3.491" cy="3.491" r="3.491" transform="matrix(0.927, -0.376, 0.376, 0.927, 17, 89.625)" fill="#212529"/>
    <path id="Path_30" data-name="Path 30" d="M313.017,324.706c-14.613,0-24.852-6.213-28.829-17.546a8.063,8.063,0,0,1,.994-7.207A7.932,7.932,0,0,1,299.2,302.14c1.193,3.877,4.026,9.046,14.365,9.046,5.617,0,12.178-1.889,12.178-7.306,0-3.529-1.143-6.71-15.458-9.891h-.05c-7.505-1.839-12.824-3.976-16.651-6.76a18.046,18.046,0,0,1-7.953-15.259c0-12.923,11.034-21.969,26.84-21.969,13.023,0,22.814,5.965,26.841,16.353a7.9,7.9,0,0,1-7.356,10.786H331.8a7.848,7.848,0,0,1-7.456-5.219c-1.939-5.617-5.965-8.251-12.526-8.251-2.386,0-10.189.547-10.189,7.505,0,3.628,2.237,6.213,13.519,8.847,13.072,2.983,26.492,8.052,26.492,23.311C341.547,316.306,330.363,324.706,313.017,324.706Z" transform="translate(-278.749 -73)" fill="#29abe2"/>
  </g>
</svg>
