<svg xmlns="http://www.w3.org/2000/svg" width="68.64" height="75.509" viewBox="0 0 68.64 75.509">
  <g id="success-balloon" transform="translate(-1931.68 -683)">
    <path id="Path_23" data-name="Path 23" d="M59,68.64a34.318,34.318,0,1,0-21.808-7.818.014.014,0,0,1-.014.024.014.014,0,0,0-.019.013V71.5a4,4,0,0,0,5.8,3.572l12.011-6.055a4.256,4.256,0,0,1,2.149-.432Q58.054,68.64,59,68.64Z" transform="translate(1907 683)" fill="#212529"/>
    <path id="Path_24" data-name="Path 24" d="M70.3,24.346a2.421,2.421,0,0,1,.452,3.389L58.743,43.483a2.414,2.414,0,0,1-3.631.242l-7.623-7.643a2.422,2.422,0,0,1,3.429-3.42l5.661,5.676L66.9,24.8A2.421,2.421,0,0,1,70.3,24.346Z" transform="translate(1907 683)" fill="#fff"/>
  </g>
</svg>
