<?xml version="1.0" encoding="utf-8"?>
<!-- Generator: Adobe Illustrator 24.3.0, SVG Export Plug-In . SVG Version: 6.00 Build 0)  -->
<svg version="1.1" id="Layer_1" xmlns="http://www.w3.org/2000/svg" xmlns:xlink="http://www.w3.org/1999/xlink" x="0px" y="0px"
	 viewBox="0 0 135 179" style="enable-background:new 0 0 135 179;" xml:space="preserve">
<style type="text/css">
	.st0{fill:#212529;}
	.st1{fill:#29ABE2;}
</style>
<g>
	<circle id="Ellipse_14" class="st0" cx="58.2" cy="9.3" r="9.3"/>
	<circle id="Ellipse_15" class="st0" cx="83.7" cy="29.7" r="3.7"/>
	<path id="Path_20" class="st0" d="M130.4,18.5c3,7.5-0.6,16.1-8.1,19.2c-0.8,0.3-1.6,0.6-2.5,0.8c-4.7,1-10,2.3-12.5,6.4
		c-2.9,4.8-1.3,11,3,14.6c8.9,7.3,15.8,16.9,20,27.7c13.5,34.7-3.7,73.8-38.4,87.4c-34.7,13.5-73.8-3.7-87.4-38.4S8.3,62.2,43,48.7
		c14.6-5.7,30.7-6.1,45.5-1.2c5.2,1.7,11.1,0.1,14-4.6l1.1-1.7c2.1-3.4,1.1-7.9-0.4-11.6c-3.1-7.5,0.6-16.1,8.1-19.1
		C118.8,7.3,127.4,10.9,130.4,18.5L130.4,18.5z"/>
	<path id="Path_30" class="st1" d="M71.9,152.7c-14.6,0-24.9-6.2-28.8-17.5c-0.8-2.4-0.5-5.1,1-7.2c2.5-3.6,7.5-4.4,11.1-1.9
		c1.4,1,2.4,2.4,3,4c1.2,3.9,4,9,14.4,9c5.6,0,12.2-1.9,12.2-7.3c0-3.5-1.1-6.7-15.5-9.9h0c-7.5-1.8-12.8-4-16.7-6.8
		c-5.1-3.4-8.1-9.2-8-15.3c0-12.9,11-22,26.8-22c13,0,22.8,6,26.8,16.4c1.6,4.1-0.4,8.6-4.5,10.2c-0.9,0.4-1.9,0.5-2.9,0.5h-0.2
		c-3.3,0-6.3-2.1-7.5-5.2c-1.9-5.6-6-8.3-12.5-8.3c-2.4,0-10.2,0.5-10.2,7.5c0,3.6,2.2,6.2,13.5,8.8c13.1,3,26.5,8.1,26.5,23.3
		C100.4,144.3,89.2,152.7,71.9,152.7z"/>
</g>
</svg>
