<svg xmlns="http://www.w3.org/2000/svg" width="68.64" height="77.192" viewBox="0 0 68.64 77.192">
  <g id="warning-balloon" transform="translate(-89.68 -43)">
    <path id="Path_25" data-name="Path 25" d="M59,68.64A34.319,34.319,0,1,0,33.667,57.474a4.269,4.269,0,0,1,1.153,2.867V73.187a4,4,0,0,0,5.739,3.6l16.856-8.137a.013.013,0,0,0,0-.023.013.013,0,0,1,.006-.024Q58.206,68.64,59,68.64Z" transform="translate(65 43)" fill="#212529"/>
    <path id="Path_28" data-name="Path 28" d="M55.869,36.565a3,3,0,0,0,3,3h.261a3,3,0,0,0,3-3V23.087a3,3,0,0,0-3-3h-.261a3,3,0,0,0-3,3ZM59,47.913a3.13,3.13,0,1,0-3.13-3.13A3.13,3.13,0,0,0,59,47.913Z" transform="translate(65 43)" fill="#fff"/>
  </g>
</svg>
