<?xml version="1.0" encoding="utf-8"?>
<!-- Generator: Adobe Illustrator 25.2.1, SVG Export Plug-In . SVG Version: 6.00 Build 0)  -->
<svg version="1.1" id="Layer_1" xmlns="http://www.w3.org/2000/svg" xmlns:xlink="http://www.w3.org/1999/xlink" x="0px" y="0px"
	 viewBox="0 0 32 32" style="enable-background:new 0 0 32 32;" xml:space="preserve">
<style type="text/css">
	.st0{fill:#414143;}
	.st1{fill:#EA0677;}
	.st2{fill:#BDD532;}
	.st3{fill:#019EDF;}
	.st4{fill:#FFFFFF;}
	.st5{fill:#EF7126;}
</style>
<circle class="st0" cx="16" cy="16" r="15"/>
<g>
	<path class="st1" d="M12.46,21.28c0.01-3.49,2.81-6.27,6.32-6.26c3.47,0,6.28,2.82,6.27,6.28c-0.01,3.5-2.81,6.31-6.29,6.31
		C15.25,27.61,12.46,24.8,12.46,21.28z"/>
	<path class="st2" d="M9.46,7.03c2.8,0,5.03,2.26,5.03,5.08c0,2.72-2.29,4.99-5.01,5c-2.8,0-5.07-2.26-5.07-5.05
		C4.42,9.29,6.69,7.03,9.46,7.03z"/>
	<path class="st3" d="M23.76,9.43c-0.03,2.2-1.79,3.86-4.03,3.83c-2.11-0.03-3.76-1.83-3.73-4.05c0.03-2.04,1.83-3.74,3.93-3.71
		C22.08,5.54,23.79,7.3,23.76,9.43z"/>
	<path class="st4" d="M26.51,16.56c-1.33,0.01-2.42-1.07-2.44-2.41c-0.01-1.34,1.08-2.45,2.43-2.46c1.31-0.01,2.43,1.1,2.44,2.42
		C28.95,15.46,27.86,16.55,26.51,16.56z"/>
	<path class="st5" d="M8.19,23.73c-1.31,0.01-2.4-1.08-2.43-2.43c-0.02-1.28,1.1-2.4,2.41-2.42c1.34-0.01,2.46,1.06,2.47,2.38
		C10.65,22.65,9.59,23.72,8.19,23.73z"/>
</g>
</svg>
