<svg id="eE8OTof6UX31" xmlns="http://www.w3.org/2000/svg" xmlns:xlink="http://www.w3.org/1999/xlink" viewBox="0 0 120 120" shape-rendering="geometricPrecision" text-rendering="geometricPrecision"><style><![CDATA[#eE8OTof6UX33_ts {animation: eE8OTof6UX33_ts__ts 2500ms linear infinite normal forwards}@keyframes eE8OTof6UX33_ts__ts { 0% {transform: translate(60px,60px) scale(0.5998,0.5998);animation-timing-function: cubic-bezier(0.42,0,1,1)} 60% {transform: translate(60px,60px) scale(0.66,0.66);animation-timing-function: cubic-bezier(0.42,0,1,1)} 100% {transform: translate(60px,60px) scale(1,1)}} #eE8OTof6UX33 {animation: eE8OTof6UX33_c_o 2500ms linear infinite normal forwards}@keyframes eE8OTof6UX33_c_o { 0% {opacity: 1} 60% {opacity: 1;animation-timing-function: cubic-bezier(0.42,0,0.58,1)} 100% {opacity: 0}} #eE8OTof6UX34_ts {animation: eE8OTof6UX34_ts__ts 2500ms linear infinite normal forwards}@keyframes eE8OTof6UX34_ts__ts { 0% {transform: translate(60.000002px,60.000002px) scale(1,1);animation-timing-function: cubic-bezier(0,0,0.58,1)} 60% {transform: translate(60.000002px,60.000002px) scale(1.1,1.1);animation-timing-function: cubic-bezier(0,0,0.58,1)} 100% {transform: translate(60.000002px,60.000002px) scale(1,1)}}]]></style><g><g id="eE8OTof6UX33_ts" transform="translate(60,60) scale(0.5998,0.5998)"><rect id="eE8OTof6UX33" width="119" height="119" rx="35.5" ry="35.5" transform="translate(-59.5,-59.5)" fill="none" stroke="#fdcd00"/></g><g id="eE8OTof6UX34_ts" transform="translate(60.000002,60.000002) scale(1,1)"><g transform="translate(-60.000002,-60.000002)"><rect width="120" height="120" rx="36" ry="36" transform="matrix(.5998 0 0 0.5998 24.012 24.012)" fill="#fdcd00"/><g transform="matrix(.5998 0 0 0.5998 24.000775 23.81272)"><path d="M68.2271,60.5664c0-8.2104,1.5965-17.333-9.9588-17.333-5.1695,0-9.0466,1.8246-12.2395,5.8537-.6842-4.8654-4.4852-5.8537-8.8185-5.8537-2.8128,0-5.5495.7603-8.2103,1.4445c1.8245,4.7133,1.9005,10.1868,1.9005,15.2043c0,3.3449-.304,6.7659-.304,10.1108c0,5.8537,3.2689,7.7542,8.7424,7.7542c2.5848,0,5.0175-.3801,7.5262-.8362-.6082-3.1929-.5322-6.3098-.5322-9.5787c0-2.3567.076-4.7894.076-7.146c0-2.3567.4562-6.4619,3.6491-6.4619c2.8888,0,2.8128,2.5848,2.8128,4.8654c0,3.649-.3801,7.3741-.3801,11.0231c0,7.2221,3.725,8.1343,10.1868,8.1343c2.8889,0,4.3333-.228,7.1461-1.1403-1.1403-5.2455-1.5965-10.719-1.5965-16.0405Z" fill="#333"/><path d="M90.8679,39.5084c-.9123-1.6725-1.4444-2.8888-1.4444-4.8654c0-1.5964.152-3.2689.152-4.8654c0-4.3332-2.6607-5.7776-6.6139-5.7776-4.1811,0-7.374,2.5847-7.374,6.918c0,6.3858,6.2337,8.8945,11.7073,8.8945c1.2163,0,2.3566-.1521,3.573-.3041Zm.076,12.9237c0-6.1578-1.9766-8.9706-8.3624-8.9706-2.8888,0-5.7016.6082-8.4384,1.4444c2.2807,7.2221,2.1286,14.9763,2.1286,22.5024c0,3.8011,0,7.5261-.228,11.3272-.2281,3.7251-1.2164,7.2981-5.6256,7.2981-1.4444,0-2.5087-.3801-3.8011-.9883c0,6.3098,0,9.9588,7.3741,9.9588c12.7716,0,16.7247-12.3155,16.7247-23.0345v-7.9823c0-3.8771.2281-7.6781.2281-11.5552Z" fill="#333"/></g></g></g></g></svg>