<?xml version="1.0" encoding="utf-8"?>
<!-- Generator: Adobe Illustrator 23.0.3, SVG Export Plug-In . SVG Version: 6.00 Build 0)  -->
<svg version="1.1" id="Layer_1" xmlns="http://www.w3.org/2000/svg" xmlns:xlink="http://www.w3.org/1999/xlink" x="0px" y="0px"
	 viewBox="0 0 199.6 42" style="enable-background:new 0 0 199.6 42;" xml:space="preserve">
<style type="text/css">
	.st0{fill:#FF7977;}
</style>
<g>
	<path class="st0" d="M39.1,33.4c0-1.2-0.5-2.9-0.9-4c-0.3-0.9-0.7-1.7-1.1-2.6C34,20.1,30.8,13.5,27.5,7c-0.5-0.9-0.9-1.8-1.4-2.7
		s-1.2-1.7-1.9-2.4C23,0.8,21.4,0.1,19.8,0h-0.7c-1.7,0.1-3.3,0.8-4.5,2c-0.7,0.7-1.3,1.5-1.7,2.4c-0.5,0.9-0.9,1.8-1.4,2.7
		c-2.3,4.4-4.4,8.8-6.6,13.2c-1.3,2.7-2.5,5.3-3.7,8c-0.5,1.1-1,2.3-1.1,3.5c-0.3,2.1,0.1,4.2,1.2,6c1,1.5,2.4,2.8,4,3.5
		C6.6,41.9,8,42.1,9.4,42c1.9-0.1,3.7-0.8,5.3-1.8c1.8-1.1,3.3-2.5,4.7-4.1c1.3,1.4,2.7,2.8,4.4,3.8c1.6,1,3.4,1.8,5.3,2
		c2.1,0.2,4.2-0.3,5.9-1.4c2.1-1.4,3.2-3.3,3.5-4.1C38.9,35.7,39.1,34.6,39.1,33.4z M19.3,32.1L19.3,32.1c-0.5-0.6-1-1.3-1.4-1.9
		c-0.8-1.1-1.5-2.3-2-3.5c-0.5-1-0.8-2.1-1-3.2c-0.1-0.9-0.1-1.8,0.2-2.7c0.3-0.8,0.9-1.5,1.6-1.9c1.7-1.1,4.1-1,5.7,0.4
		c0.8,0.7,1.2,1.6,1.4,2.7c0.2,1.3-0.2,2.7-0.6,3.9C22.2,28.1,20.8,30.2,19.3,32.1z M36.5,35.1c-0.5,1.6-1.9,2.8-3.4,3.6
		c-1.3,0.7-2.8,1-4.2,0.7c-1.8-0.3-3.4-1.2-4.9-2.4c-1-0.8-2-1.8-2.9-2.8c1.4-1.8,2.7-3.7,3.8-5.7c0.9-1.8,1.6-3.7,1.6-5.7
		c0-1.3-0.2-2.6-0.8-3.7c-0.8-1.5-2.2-2.7-3.8-3.3c-1.5-0.5-3.2-0.6-4.7-0.1c-1.4,0.4-2.8,1.3-3.7,2.5c-0.8,1-1.2,2.3-1.4,3.6
		c-0.2,1.9,0.3,3.8,1,5.5c1.1,2.5,2.6,4.8,4.3,6.9c-0.8,0.9-1.6,1.7-2.5,2.5c-1.4,1.2-3,2.2-4.8,2.6c-1.5,0.3-3,0.2-4.4-0.5
		c-1.6-0.8-2.8-2.3-3.2-4c-0.3-1.2-0.3-2.6,0.1-3.8c0.3-1,0.8-2,1.2-2.9c3-6.6,6.2-13.1,9.5-19.6c0.5-1,1-1.9,1.5-2.9
		c0.4-0.8,1-1.7,1.7-2.2c0.8-0.6,1.8-0.8,2.8-0.8s2.4,0.5,3.1,1.1c0.7,0.6,1.3,1.5,1.7,2.3c1,1.9,2,3.9,3,5.8
		c2.8,5.6,5.5,11.2,8.1,16.9c0.4,0.9,0.8,1.8,1.1,2.7C36.9,33.4,36.8,33.9,36.5,35.1z"/>
	<g>
		<path class="st0" d="M87.7,1.1c-0.6,0.1-1.2,0.4-1.7,0.7c-1.7,1.1-2.4,3.4-1.7,5.3c0.7,2.2,3.4,3.6,5.7,2.8c2.3-0.7,3.7-3.3,3-5.6
			C92.5,2.1,90,0.6,87.7,1.1z"/>
		<path class="st0" d="M108.2,13.2c-2,0.3-3.9,1.2-5.2,2.7c0-0.5,0-1-0.1-1.5c-0.2-0.4-0.6-0.6-1-0.6c-1.9,0-3.8,0-5.7,0
			c0,8.8,0,17.7,0,26.5c2.2,0,4.5,0,6.7,0c0.1-0.2,0-0.5,0.1-0.7c0-5.8,0-11.6,0-17.4c0-0.2,0-0.4,0.1-0.6c0.8-0.8,1.8-1.5,2.8-1.9
			c2-0.7,4.2-0.6,6.2-0.1c0-2.1,0-4.2,0-6.2C110.8,13.1,109.5,13.1,108.2,13.2z"/>
		<path class="st0" d="M168.6,19.9c-0.5-1.7-1.5-3.2-2.8-4.3c-2.1-1.7-4.8-2.5-7.5-2.5c-2.6,0-5.1,0.9-6.9,2.8c0-0.5,0-1-0.1-1.4
			c-0.1-0.5-0.6-0.7-1.1-0.7c-1.7,0-3.5,0-5.2,0c0,8.8,0,17.7,0,26.5c2.3,0,4.5,0,6.7,0c0.1-2.5-0.1-4.9,0.1-7.4c0-1.9,0-3.7,0-5.6
			c0-1-0.1-2,0-3c0.1-0.7,0-1.5,0-2.2c0-0.3,0.1-0.5,0.3-0.6c1.6-1.7,4.1-2.6,6.4-2.3c1.2,0.1,2.5,0.7,3.2,1.8
			c0.9,1.5,0.8,3.4,0.8,5.2c0,4.7,0,9.4,0,14c2.3,0,4.5,0,6.8,0c0-4.7,0-9.4,0-14.1C169.1,24.1,169.2,22,168.6,19.9z"/>
		<path class="st0" d="M85.3,13.8c0,8.8,0,17.7,0,26.5c2.2,0,4.5,0,6.7,0c0-8.8,0-17.7,0-26.5C89.8,13.8,87.5,13.8,85.3,13.8z"/>
		<path class="st0" d="M75.9,13.8c-0.5,0-1.1,0-1.3,0.5c-0.2,0.5-0.2,1-0.2,1.6c-1.5-1.6-3.6-2.5-5.7-2.7c-3.3-0.3-6.7,0.6-9.4,2.6
			c-2.2,1.6-3.8,3.9-4.6,6.5c-0.4,1.2-0.6,2.5-0.7,3.7v1.8c0.2,3.8,1.9,7.6,4.8,10c2.2,1.9,5.1,2.9,8,3.1h1.5
			c2.3-0.2,4.6-1.1,6.1-2.8c0,0.5-0.1,1.1,0.1,1.6c0.2,0.4,0.7,0.5,1.1,0.5c1.8,0,3.7,0,5.5,0c0-8.8,0-17.7,0-26.5
			C79.4,13.8,77.6,13.8,75.9,13.8z M73.9,32.3c-1.4,1.6-3.2,2.3-5.4,2.2c-2.3,0-4.7-0.9-6.2-2.7c-1.4-1.7-1.9-4.1-1.6-6.3
			c0.2-1.8,1.1-3.5,2.6-4.6c1.3-1,2.9-1.5,4.5-1.7c2.4-0.2,5,0.9,6.4,2.8c0.1,2.9,0,8.7,0,8.7S74.2,32,73.9,32.3z"/>
		<path class="st0" d="M141,21.4c-1-2.6-2.9-4.8-5.2-6.2c-2.4-1.5-5.3-2.2-8.2-2c-2.2,0.1-4.4,1.1-6,2.7c0-5,0-9.9,0-14.9
			c-2.3,0-4.5,0-6.8,0c0,13.1,0,26.2,0,39.3c1.9,0,3.7,0,5.6,0c0.5,0,1-0.2,1.1-0.7c0.1-0.5,0.1-1,0.1-1.5c1.6,1.7,3.9,2.7,6.2,2.8
			h1.4c3.8-0.2,7.4-1.9,9.8-4.9C142.3,32,143,26.2,141,21.4L141,21.4z M133.1,32.5c-1.5,1.4-3.6,2.1-5.7,2.1c-2.1,0-4.3-0.9-5.6-2.6
			c-0.2-0.2-0.2-0.4-0.2-0.6c0-3,0-6.1,0-9.1c1.3-1.7,3.4-2.7,5.5-2.9c2.2-0.1,4.4,0.6,6,2.1c1.5,1.4,2.2,3.5,2.2,5.5
			C135.4,29.1,134.6,31.1,133.1,32.5z"/>
		<path class="st0" d="M196.8,18.1c-2.9-3.7-7.8-5.5-12.4-4.8c-1.9,0.3-3.7,1.2-5.1,2.6c0-5,0-9.9,0-14.9c-2.3,0-4.5,0-6.8,0
			c0,13.1,0,26.2,0,39.3c1.8,0,3.6,0,5.3,0c0.5,0,1.1,0,1.3-0.5c0.2-0.5,0.1-1.1,0.1-1.6c1.6,1.7,3.8,2.7,6.1,2.8h1.5
			c3.7-0.2,7.3-1.9,9.7-4.8c1.9-2.3,3-5.3,3.1-8.3v-1.8C199.6,23.2,198.6,20.3,196.8,18.1z M191.5,31.8L191.5,31.8
			c-1.8,2.3-4.9,3.2-7.7,2.7c-1.7-0.3-3.4-1.3-4.4-2.7c-0.1-1.1,0-2.2,0-3.4c0-2.1-0.1-4.1,0-6.2c1-1.4,2.7-2.3,4.4-2.7
			c3.1-0.6,6.8,0.7,8.3,3.5C193.5,25.8,193.4,29.3,191.5,31.8z"/>
	</g>
</g>
</svg>
