<?xml version="1.0" encoding="utf-8"?>
<!-- Generator: Adobe Illustrator 24.3.0, SVG Export Plug-In . SVG Version: 6.00 Build 0)  -->
<svg version="1.1" id="Layer_1" xmlns="http://www.w3.org/2000/svg" xmlns:xlink="http://www.w3.org/1999/xlink" x="0px" y="0px"
	 viewBox="0 0 331.778 42" style="enable-background:new 0 0 331.778 42;" xml:space="preserve">
<style type="text/css">
	.st0{fill:#0FC9F4;}
	.st1{fill:#0A437C;}
</style>
<path class="st0" d="M36.942,40.281h-6.474l19.421-20.749c0.996-0.83,1.66-1.826,2.158-2.822c0.498-0.996,0.83-1.992,0.83-3.154
	c0-1.328-0.498-2.49-1.328-3.32s-1.992-1.328-3.32-1.328c-1.494,0-2.656,0.498-3.652,1.494c-0.996,0.996-1.494,2.324-1.66,4.15
	h-8.466c0-2.49,0.664-4.648,1.494-6.142c0.83-1.494,1.826-2.822,3.154-3.818c1.328-0.996,2.656-1.826,4.316-2.324
	c1.66-0.498,3.32-0.83,5.146-0.83c1.66,0,3.486,0.166,4.98,0.664c1.66,0.498,2.988,1.162,4.316,2.158
	c1.328,0.996,2.324,2.158,2.988,3.652c0.83,1.494,1.162,3.154,1.162,5.146c0,1.328-0.166,2.49-0.498,3.652
	c-0.332,0.996-0.83,1.992-1.494,2.988c-0.664,0.996-1.328,1.826-2.158,2.49c-0.83,0.83-1.66,1.992-2.49,2.822l-6.972,8.134h15.271
	v6.972H36.942V40.281z"/>
<path class="st1" d="M29.472,23.184c-0.664-0.664-1.494-1.328-2.49-1.826c-0.996-0.498-1.992-0.83-2.988-0.996v-0.166
	c1.826-0.664,3.32-1.66,4.482-2.988s1.66-3.154,1.66-5.146c0-1.826-0.332-3.486-1.162-4.648c-0.83-1.162-1.826-2.158-2.988-2.988
	c-1.162-0.498-2.49-0.996-4.15-1.328c-1.494-0.332-2.988-0.498-4.482-0.498H2.415v37.514h14.939c1.826,0,3.486-0.166,5.312-0.498
	c1.66-0.332,3.32-0.996,4.648-1.826s2.49-1.992,3.154-3.32c0.83-1.328,1.162-3.154,1.162-5.146c0-1.162-0.166-2.324-0.664-3.32
	C30.8,24.844,30.136,24.014,29.472,23.184z M11.213,9.739h4.482c1.826,0,3.32,0.332,4.316,0.83c0.996,0.664,1.494,1.494,1.494,2.822
	s-0.498,2.324-1.328,2.988c-0.996,0.664-2.324,0.996-3.984,0.996h-4.814V9.739H11.213z M22.168,30.654
	c-0.332,0.664-0.83,0.996-1.494,1.328c-0.664,0.332-1.328,0.498-1.992,0.664c-0.83,0.166-1.494,0.166-2.158,0.166h-5.146V24.18h4.98
	c1.992,0,3.486,0.332,4.648,0.83c1.162,0.664,1.826,1.66,1.826,3.154C22.666,29.326,22.5,29.99,22.168,30.654z"/>
<path class="st1" d="M93.545,23.184c-0.664-0.664-1.494-1.328-2.49-1.826c-0.996-0.498-1.992-0.83-2.988-0.996v-0.166
	c1.826-0.664,3.32-1.66,4.482-2.988s1.66-3.154,1.66-5.146c0-1.826-0.332-3.486-1.162-4.648c-0.83-1.162-1.826-2.158-2.988-2.988
	c-1.162-0.664-2.656-1.162-4.15-1.494c-1.494-0.332-2.988-0.498-4.482-0.498H66.488v37.514h14.939c1.826,0,3.486-0.166,5.312-0.498
	c1.66-0.332,3.32-0.996,4.648-1.826c1.328-0.83,2.49-1.992,3.154-3.32c0.83-1.328,1.162-3.154,1.162-5.146
	c0-1.162-0.166-2.324-0.664-3.32C94.707,24.844,94.209,24.014,93.545,23.184z M75.286,9.739h4.482c1.826,0,3.32,0.332,4.316,0.83
	c0.996,0.664,1.494,1.494,1.494,2.822s-0.498,2.324-1.328,2.988c-0.996,0.664-2.324,0.996-3.984,0.996h-4.814V9.739H75.286z
	 M86.075,30.654c-0.332,0.664-0.83,0.996-1.494,1.328c-0.664,0.332-1.328,0.498-1.992,0.664c-0.83,0.166-1.494,0.166-2.158,0.166
	h-5.146V24.18h4.98c1.992,0,3.486,0.332,4.648,0.83c1.162,0.664,1.826,1.66,1.826,3.154C86.739,29.326,86.573,29.99,86.075,30.654z"
	/>
<path class="st1" d="M132.387,6.917c-1.826-1.66-3.984-2.988-6.474-3.984s-5.146-1.328-8.134-1.328s-5.644,0.498-8.134,1.328
	c-2.49,0.996-4.648,2.324-6.474,3.984c-1.826,1.66-3.32,3.818-4.316,6.142c-0.996,2.49-1.494,5.146-1.494,8.134
	s0.498,5.644,1.494,8.134c0.996,2.49,2.49,4.482,4.316,6.308c1.826,1.826,3.984,3.154,6.474,3.984
	c2.49,0.996,5.146,1.494,8.134,1.494c2.988,0,5.644-0.498,8.134-1.494c2.49-0.996,4.648-2.324,6.474-3.984
	c1.826-1.826,3.32-3.818,4.316-6.308s1.494-5.146,1.494-8.134s-0.498-5.644-1.494-8.134C135.541,10.734,134.213,8.577,132.387,6.917
	z M127.574,25.84c-0.498,1.494-1.328,2.656-2.158,3.652c-0.996,0.996-2.158,1.826-3.32,2.49c-1.328,0.664-2.822,0.83-4.316,0.83
	c-1.66,0-2.988-0.332-4.316-0.83c-1.328-0.664-2.49-1.328-3.32-2.49c-0.996-0.996-1.66-2.324-2.158-3.652
	c-0.498-1.494-0.83-2.988-0.83-4.648s0.332-3.154,0.83-4.482c0.498-1.494,1.328-2.656,2.158-3.652
	c0.996-0.996,2.158-1.826,3.32-2.324c1.328-0.664,2.822-0.83,4.316-0.83c1.66,0,2.988,0.332,4.316,0.83
	c1.328,0.664,2.49,1.328,3.32,2.324c0.996,0.996,1.66,2.158,2.158,3.652c0.498,1.494,0.83,2.988,0.83,4.482
	C128.404,22.852,128.238,24.512,127.574,25.84z"/>
<path class="st1" d="M180.027,13.058c-0.996-2.49-2.49-4.482-4.316-6.142c-1.826-1.66-3.984-2.988-6.474-3.984
	c-2.49-0.996-5.146-1.328-8.134-1.328s-5.644,0.498-8.134,1.328c-2.49,0.996-4.648,2.158-6.474,3.984
	c-1.826,1.66-3.32,3.818-4.316,6.142c-0.996,2.49-1.494,5.146-1.494,8.134s0.498,5.644,1.494,8.134
	c0.996,2.49,2.49,4.482,4.316,6.308c1.826,1.826,3.984,3.154,6.474,3.984c2.49,0.996,5.146,1.494,8.134,1.494
	s5.644-0.498,8.134-1.494c2.49-0.996,4.648-2.324,6.474-3.984c1.826-1.826,3.32-3.818,4.316-6.308s1.494-5.146,1.494-8.134
	C181.521,18.204,181.023,15.548,180.027,13.058z M171.064,25.84c-0.498,1.494-1.328,2.656-2.158,3.652
	c-0.996,0.996-2.158,1.826-3.32,2.49c-1.328,0.664-2.822,0.83-4.316,0.83c-1.494,0-2.988-0.332-4.316-0.83
	c-1.328-0.664-2.49-1.328-3.32-2.49c-0.996-0.996-1.66-2.324-2.158-3.652c-0.498-1.494-0.83-2.988-0.83-4.648
	s0.332-3.154,0.83-4.482c0.498-1.494,1.328-2.656,2.158-3.652c0.996-0.996,2.158-1.826,3.32-2.324
	c1.328-0.664,2.822-0.83,4.316-0.83c1.494,0,2.988,0.332,4.316,0.83c1.328,0.664,2.49,1.328,3.32,2.324
	c0.996,0.996,1.66,2.158,2.158,3.652c0.498,1.494,0.83,2.988,0.83,4.482C171.894,22.852,171.562,24.512,171.064,25.84z"/>
<path class="st1" d="M207.748,40.281l-14.939-16.765h1.162v16.765h-9.794V2.435h9.794v14.109h-1.162L207.25,2.435h12.283
	l-17.429,17.263l18.425,20.583H207.748z"/>
<path class="st0" d="M220.861,21.026c0,0.498-0.166,0.996-0.332,1.328c-0.166,0.498-0.498,0.83-0.83,1.162
	c-0.332,0.332-0.664,0.498-1.162,0.83c-0.498,0.166-0.83,0.332-1.328,0.332s-0.996-0.166-1.328-0.332
	c-0.498-0.166-0.83-0.498-1.162-0.83c-0.332-0.332-0.498-0.664-0.83-1.162c-0.166-0.498-0.332-0.83-0.332-1.328
	s0.166-0.996,0.332-1.328c0.166-0.498,0.498-0.83,0.83-1.162c0.332-0.332,0.664-0.498,1.162-0.83
	c0.498-0.166,0.83-0.332,1.328-0.332s0.996,0.166,1.328,0.332c0.498,0.166,0.83,0.498,1.162,0.83
	c0.332,0.332,0.498,0.664,0.83,1.162C220.695,20.03,220.861,20.528,220.861,21.026L220.861,21.026z M252.068,40.281l-15.105-24.899
	h-0.166l0.166,24.899h-9.628V2.435h11.121l15.105,24.235h0.166l-0.166-24.235h8.3v37.846H252.068z M268.335,40.281V2.435h26.393
	v6.972h-17.761v8.632h15.603v6.474h-15.603v8.632h17.761v6.972h-26.393V40.281z M319.627,9.573v30.875h-9.794V9.573h-11.288V2.435
	h31.373v6.972h-10.292V9.573z"/>
</svg>
