<?xml version="1.0" encoding="utf-8"?>
<!-- Generator: Adobe Illustrator 23.0.3, SVG Export Plug-In . SVG Version: 6.00 Build 0)  -->
<svg version="1.2" baseProfile="tiny" id="Layer_1" xmlns="http://www.w3.org/2000/svg" xmlns:xlink="http://www.w3.org/1999/xlink"
	 x="0px" y="0px" viewBox="0 0 139.1 42" xml:space="preserve">
<g>
	<path fill="#2C679C" d="M92.4,24.8c-4,0-8.1,0-12.1,0c-0.2,0-0.4,0.1-0.5-0.1c-0.1-0.2,0.1-0.3,0.2-0.5c3-4.3,6-8.6,8.9-12.8
		c0.2-0.2,0.3-0.3,0.6-0.3c8.1,0,16.2,0,24.3,0c0.2,0,0.4-0.1,0.5,0.1c0.1,0.2-0.1,0.3-0.2,0.4c-2.8,4.1-5.7,8.1-8.4,12.2
		c-0.6,0.8-1.1,1-2,1C99.9,24.8,96.2,24.8,92.4,24.8z"/>
	<path fill="#2D689D" d="M61.2,29.4c0.2,0,0.3-0.1,0.4-0.2c1.5-1.7,5.1-2,6.8,0.6c0.3,0.5,0.3,0.5,0.7,0c1.2-1.5,2.8-2,4.7-1.8
		c1.9,0.3,3.1,1.3,3.7,3c0.4,0.9,0.3,2,0.3,3.1c0,2.3,0,4.7,0,7.1c0,0.4-0.1,0.5-0.6,0.5c-1,0-2,0-3,0c-0.4,0-0.5-0.1-0.5-0.5
		c0-2.3,0-4.7,0-7c0-0.3,0-0.5-0.1-0.7c-0.3-1.2-0.8-1.7-2-1.7c-1.1,0-1.9,0.7-2,1.8c0,0.3-0.1,0.6-0.1,0.8c0,2.2,0,4.5,0,6.7
		c0,0.4-0.1,0.6-0.6,0.6c-1,0-2,0-3,0c-0.4,0-0.5-0.1-0.5-0.5c0-2.3,0-4.7,0-7.1c0-0.5-0.1-0.9-0.3-1.4c-0.4-0.7-1-1-1.9-1
		c-0.9,0-1.6,0.6-1.9,1.3c-0.2,0.5-0.2,0.9-0.2,1.4c0,2.2,0,4.5,0,6.7c0,0.4-0.1,0.5-0.5,0.5c-1,0-2,0-3.1,0c-0.3,0-0.4-0.1-0.4-0.4
		c0-4.1,0-8.2,0-12.3c0-0.4,0.1-0.5,0.5-0.5c0.9,0,1.9,0,2.7,0c0.4,0,0.6,0.1,0.6,0.6C61.2,29,61.2,29.2,61.2,29.4z"/>
	<path fill="#F9C03B" d="M92.6,9.9c-1.2,0-2.5,0-3.7,0c-0.5,0-0.7,0.1-1,0.5c-1.4,2-2.8,4.1-4.3,6.1c-0.2,0.4-0.4,0.4-0.7,0.1
		C79.5,14.3,78,10,79.3,6.3c1.2-3.6,3.8-5.7,7.6-6.2c3.9-0.6,7.9,2,9.3,5.6c0.5,1.1,0.7,2.3,0.7,3.6c0,0.4-0.1,0.6-0.6,0.6
		C95.1,9.9,93.8,9.9,92.6,9.9z"/>
	<path fill="#2D689D" d="M123.1,32.6c0,2.8,0,5.6,0,8.4c0,0.5-0.1,0.7-0.6,0.6c-0.9,0-1.8,0-2.7,0c-0.5,0-0.6-0.1-0.6-0.6
		c0-0.2,0.1-0.5-0.1-0.6c-0.2-0.1-0.3,0.2-0.5,0.4c-0.9,0.8-2,1.1-3.3,1.2c-3.9,0.1-6.6-2.5-6.8-6.6c-0.1-2.6,0.7-4.8,3-6.4
		c1.9-1.3,5-1.6,7,0.2c0.1,0.1,0.2,0.2,0.3,0.2c0.2-0.1,0.1-0.2,0.1-0.4c0-1.6,0-3.2,0-4.8c0-0.4,0.1-0.6,0.5-0.6c1,0,2,0,3,0
		c0.4,0,0.5,0.2,0.5,0.6C123.1,26.9,123.1,29.8,123.1,32.6z M119.3,34.9c-0.1-2-1.5-3.4-3.5-3.3c-1.8,0.1-3.2,1.6-3.1,3.4
		c0.1,2,1.5,3.3,3.4,3.2C118,38.1,119.4,36.7,119.3,34.9z"/>
	<path fill="#2D689D" d="M54.7,34.9c0,2,0,4.1,0,6.1c0,0.4-0.1,0.6-0.5,0.5c-0.9,0-2,0-2.9,0c-0.5,0-0.6-0.1-0.6-0.6
		c0-0.2,0.1-0.5-0.1-0.6s-0.3,0.2-0.5,0.4c-1.2,1-2.6,1.3-4.2,1.1c-3.7-0.4-5.7-3.4-5.9-6.5c-0.1-2,0.4-3.9,1.9-5.5
		c1.7-1.8,4.7-2.5,6.9-1.6c0.6,0.2,1,0.6,1.4,0.9c0.1,0.1,0.1,0.2,0.3,0.2c0.1,0,0.1-0.2,0.1-0.3c0.1-0.8,0.1-0.8,0.9-0.8
		s1.7,0,2.5,0c0.5,0,0.6,0.1,0.6,0.6c0,1,0,2,0,3C54.7,32.8,54.7,33.9,54.7,34.9z M44.2,34.9c-0.1,1.9,1.3,3.4,3.2,3.4
		c1.9,0.1,3.4-1.4,3.4-3.3c0.1-1.9-1.3-3.4-3.2-3.4C45.7,31.5,44.3,32.9,44.2,34.9z"/>
	<path fill="#2D689D" d="M22.5,40.4c-0.6,0.7-1.4,1.2-2.2,1.4c-3.7,0.8-7.2-1.3-7.9-5c-0.6-2.5-0.1-4.8,1.6-6.8
		c1.8-2,4.8-2.7,7.1-1.6c0.5,0.2,0.9,0.6,1.3,0.9c0.1,0.1,0.1,0.2,0.2,0.1c0.1-0.1,0.1-0.2,0.1-0.3c0.1-0.8,0.1-0.8,0.9-0.8
		s1.8,0,2.6,0c0.3,0,0.4,0.1,0.4,0.4c0,4.1,0,8.2,0,12.3c0,0.4-0.1,0.5-0.5,0.5c-1,0-2,0-3.1,0c-0.4,0-0.5-0.1-0.5-0.5
		C22.5,40.8,22.5,40.5,22.5,40.4C22.6,40.4,22.6,40.4,22.5,40.4z M19.4,31.5c-1.9,0-3.3,1.5-3.3,3.4c0,1.8,1.4,3.3,3.2,3.3
		c2,0,3.4-1.4,3.4-3.4C22.7,33,21.2,31.5,19.4,31.5z"/>
	<path fill="#2D689D" d="M132,41.9c-4.1,0-7.1-3-7.1-7.1c0-3.9,3.1-6.9,7-6.9c4.2,0,7.2,3,7.2,7C139.1,38.4,136.5,42,132,41.9z
		 M135.2,34.8c-0.1-2-1.5-3.3-3.4-3.3c-1.7,0.1-3,1.7-2.9,3.4c0.1,1.8,1.5,3.2,3.3,3.1C133.9,38.1,135.2,36.6,135.2,34.8z"/>
	<path fill="#2D689D" d="M92.1,35c0,2,0,4,0,6c0,0.5-0.1,0.6-0.6,0.6c-0.8,0-1.8,0-2.6,0c-0.4,0-0.6-0.1-0.5-0.5c0,0,0,0,0-0.1
		c0-0.2,0.1-0.5-0.1-0.6c-0.2-0.1-0.3,0.2-0.4,0.4c-0.7,0.7-1.6,1.1-2.5,1.2s-1.8,0-2.6-0.3c-1.8-0.7-2.6-2-2.8-3.9
		c-0.2-2-0.1-3.9-0.1-5.9c0-1,0-2,0-3.1c0-0.3,0.1-0.4,0.4-0.4c1,0,2,0,3.1,0c0.4,0,0.5,0.1,0.5,0.5c0,2.2,0,4.5,0,6.8
		c0,0.4,0,0.7,0.1,1c0.2,1.3,1.2,1.9,2.6,1.6c0.8-0.2,1.4-0.7,1.5-1.7c0.1-0.4,0.1-0.7,0.1-1c0-2.2,0-4.5,0-6.7
		c0-0.4,0.1-0.5,0.5-0.5c0.9,0,2,0,2.9,0c0.4,0,0.6,0.1,0.6,0.6C92,30.9,92.1,32.9,92.1,35L92.1,35z"/>
	<path fill="#2D689D" d="M98.7,29.5c0.7-0.9,1.5-1.4,2.6-1.6c3.1-0.4,5.4,0.9,5.8,4.2c0.2,1.9,0.1,3.7,0.1,5.5c0,1.1,0,2.2,0,3.4
		c0,0.3-0.1,0.5-0.5,0.5c-1,0-2,0-3.1,0c-0.4,0-0.4-0.1-0.4-0.5c0-2.3,0-4.7,0-7c0-0.3,0-0.6-0.1-0.8c-0.1-0.9-0.7-1.5-1.4-1.6
		c-1-0.2-2,0.1-2.4,0.8c-0.4,0.6-0.4,1.2-0.4,1.9c0,2.1,0,4.3,0,6.3c0,0.9,0.1,0.7-0.7,0.7c-0.9,0-1.8,0-2.7,0
		c-0.4,0-0.5-0.1-0.5-0.5c0-4.1,0-8.2,0-12.3c0-0.4,0.1-0.5,0.5-0.5c0.9,0,1.9,0,2.8,0c0.4,0,0.5,0.1,0.5,0.5
		C98.5,29,98.5,29.2,98.7,29.5z"/>
	<path fill="#2D689D" d="M36.9,32c-0.6,0-1,0-1.6,0c-0.2,0-0.3-0.1-0.4-0.3c-0.3-0.7-1.4-1-2-0.5c-0.4,0.3-0.4,0.7,0,1.1
		c0.6,0.5,1.2,0.7,2,0.8c0.7,0.2,1.5,0.4,2.1,0.7c1.9,0.8,2.6,2.4,2.1,4.4c-0.5,1.9-1.7,2.9-3.4,3.4c-2,0.6-4,0.3-5.7-1
		C29.1,40,28.7,39,28.5,38c-0.1-0.3,0.1-0.5,0.4-0.4c1,0,2.1,0,3.2,0c0.3,0,0.4,0.1,0.5,0.3c0.3,1,1.7,1.1,2.3,0.6
		c0.6-0.5,0.5-1.1-0.2-1.5c-0.7-0.4-1.4-0.6-2-0.8c-0.7-0.3-1.3-0.5-2-0.7c-2.7-1.3-2.5-4.1-1.1-5.7c1.9-2.2,6.1-2.4,8.1-0.3
		c0.6,0.7,0.9,1.4,1,2.2c0,0.3,0,0.4-0.3,0.4C37.9,32,37.3,32,36.9,32z"/>
	<path fill="#2D689D" d="M0,34.6c0.3-4,3.4-6.9,7.4-6.7c1.5,0.1,2.8,0.6,4,1.4c0.3,0.2,0.4,0.4,0.1,0.7c-0.6,0.7-1.1,1.5-1.8,2.3
		c-0.2,0.2-0.3,0.3-0.6,0.1c-1.1-1-2.3-1.1-3.5-0.5c-1.3,0.7-1.7,1.9-1.6,3.2c0.1,1.2,0.6,2.2,1.8,2.8c1,0.5,2.1,0.5,3.1-0.2
		c0,0,0.1,0,0.1-0.1c0.7-0.5,0.7-0.5,1.2,0.2c0.5,0.7,0.9,1.3,1.4,2c0.2,0.3,0.2,0.4-0.1,0.6c-2.2,1.7-4.7,2-7.2,1
		c-2.6-1-4-3.1-4.3-5.9C0,35.3,0,34.9,0,34.6z"/>
	<path fill="#13416B" d="M116.2,21.2c-2.1,0-4.3,0-6.4,0c-0.2,0-0.4,0.1-0.5-0.1c-0.1-0.2,0.1-0.3,0.2-0.4c2-3,4.2-6.1,6.2-9
		c0.4-0.5,0.4-0.5,0.7,0c2,2.9,4.1,5.8,6.1,8.7c0.1,0.2,0.2,0.3,0.3,0.5c0.2,0.3,0.2,0.5-0.2,0.5c-0.2,0-0.4,0-0.6,0
		C120.2,21.2,118.2,21.2,116.2,21.2z"/>
</g>
</svg>
