<?xml version="1.0" encoding="utf-8"?>
<!-- Generator: Adobe Illustrator 23.0.3, SVG Export Plug-In . SVG Version: 6.00 Build 0)  -->
<svg version="1.2" baseProfile="tiny" id="Layer_1" xmlns="http://www.w3.org/2000/svg" xmlns:xlink="http://www.w3.org/1999/xlink"
	 x="0px" y="0px" viewBox="0 0 183.4 42" xml:space="preserve">
<g>
	<g>
		<path fill="#1E6899" d="M64.3,31.6c-0.9,0.5-2.9,1.1-5.4,1.1c-5.6,0-9.3-3.8-9.3-9.5c0-5.8,3.9-9.9,10-9.9c2,0,3.8,0.5,4.7,1
			l-0.8,2.6c-0.8-0.5-2.1-0.9-3.9-0.9C55.4,16,53,19.1,53,23c0,4.3,2.8,7,6.5,7c1.9,0,3.2-0.5,4.2-0.9L64.3,31.6z"/>
		<path fill="#1E6899" d="M68.3,4.9h3.4v27.4h-3.4V4.9z"/>
		<path fill="#1E6899" d="M81.2,8.4c0,1.2-0.8,2.1-2.2,2.1c-1.2,0-2-0.9-2-2.1c0-1.2,0.9-2.1,2.1-2.1C80.4,6.3,81.2,7.2,81.2,8.4z
			 M77.4,32.3V13.6h3.4v18.7H77.4z"/>
		<path fill="#1E6899" d="M99.8,31.6c-0.9,0.5-2.9,1.1-5.4,1.1c-5.6,0-9.3-3.8-9.3-9.5c0-5.8,3.9-9.9,10-9.9c2,0,3.8,0.5,4.7,1
			l-0.8,2.6C98.2,16.4,97,16,95.1,16c-4.3,0-6.6,3.2-6.6,7.1c0,4.3,2.8,7,6.5,7c1.9,0,3.2-0.5,4.2-0.9L99.8,31.6z"/>
		<path fill="#1E6899" d="M107.1,22.2L107.1,22.2c0.5-0.7,1.2-1.5,1.7-2.1l5.5-6.5h4.1l-7.2,7.7l8.2,11h-4.1l-6.5-9l-1.7,1.9v7h-3.4
			V4.9h3.4V22.2z"/>
		<path fill="#555555" d="M121.4,28.9c1,0.7,2.8,1.4,4.5,1.4c2.5,0,3.6-1.2,3.6-2.8c0-1.6-1-2.5-3.5-3.4c-3.4-1.2-4.9-3.1-4.9-5.3
			c0-3,2.4-5.5,6.5-5.5c1.9,0,3.6,0.5,4.6,1.2l-0.9,2.5c-0.7-0.5-2.1-1.1-3.8-1.1c-2,0-3.1,1.2-3.1,2.6c0,1.5,1.1,2.2,3.6,3.2
			c3.2,1.2,4.9,2.9,4.9,5.6c0,3.3-2.5,5.6-7,5.6c-2,0-3.9-0.5-5.3-1.3L121.4,28.9z"/>
		<path fill="#555555" d="M141.3,8.3v5.4h4.9v2.6h-4.9v10.1c0,2.3,0.7,3.6,2.5,3.6c0.9,0,1.5-0.1,2-0.2l0.2,2.5
			c-0.7,0.3-1.7,0.5-3,0.5c-1.6,0-2.9-0.5-3.7-1.4c-1-1-1.3-2.7-1.3-4.9V16.2H135v-2.6h2.9V9.2L141.3,8.3z"/>
		<path fill="#555555" d="M160.3,32.3L160,30h-0.1c-1,1.5-3.1,2.8-5.7,2.8c-3.8,0-5.7-2.7-5.7-5.4c0-4.5,4-7,11.2-7v-0.4
			c0-1.5-0.4-4.3-4.2-4.3c-1.7,0-3.6,0.5-4.9,1.4l-0.8-2.2c1.5-1,3.8-1.7,6.1-1.7c5.7,0,7.1,3.9,7.1,7.6v7c0,1.6,0.1,3.2,0.3,4.5
			H160.3z M159.8,22.8c-3.7-0.1-7.9,0.6-7.9,4.2c0,2.2,1.5,3.2,3.2,3.2c2.4,0,4-1.5,4.5-3.1c0.1-0.3,0.2-0.7,0.2-1.1V22.8z"/>
		<path fill="#555555" d="M169.5,13.6l4.1,11.1c0.4,1.2,0.9,2.7,1.2,3.8h0.1c0.3-1.1,0.7-2.6,1.2-3.9l3.7-11h3.6L178.3,27
			c-2.4,6.4-4.1,9.7-6.4,11.7c-1.7,1.5-3.3,2-4.2,2.2l-0.9-2.9c0.9-0.3,2-0.8,3-1.7c0.9-0.7,2.1-2,2.9-3.8c0.2-0.3,0.3-0.6,0.3-0.8
			s-0.1-0.5-0.2-0.9l-6.9-17.2H169.5z"/>
	</g>
	<path fill="#555555" d="M24,0C13.8,0,5.6,8.2,5.6,18.4c0,4.5,1.6,8.6,4.3,11.8l-1.5,1.5L8,31.3c-0.2-0.2-0.5-0.2-0.7,0l-7.2,7.2
		C0,38.7,0,39,0.1,39.1l2.7,2.7C3,42,3.3,42,3.5,41.9l7.2-7.2c0.2-0.2,0.2-0.5,0-0.7l-0.5-0.5l1.5-1.5c3.3,3,7.6,4.7,12.3,4.7
		c10.1,0,18.4-8.2,18.4-18.4C42.3,8.2,34.1,0,24,0z M24,34.4c-8.9,0-16.1-7.2-16.1-16.1S15.1,2.3,24,2.3S40,9.5,40,18.4
		S32.8,34.4,24,34.4z"/>
	<g>
		<g>
			<path fill="#1E6899" d="M19.5,23.8h-4.3V20c0-1.2,1-2.2,2.2-2.2h0c1.2,0,2.2,1,2.2,2.2V23.8z"/>
			<path fill="#1E6899" d="M25.8,23.8h-4.3V20c0-1.2,1-2.2,2.2-2.2h0c1.2,0,2.2,1,2.2,2.2V23.8z"/>
			<path fill="#1E6899" d="M33.1,26.2h-4.3V20c0-1.2,1-2.2,2.2-2.2h0c1.2,0,2.2,1,2.2,2.2V26.2z"/>
		</g>
		<polygon fill="#FB6322" points="32.9,11.1 15,11.1 12.3,15.6 35.7,15.6 		"/>
	</g>
</g>
<g>
	<g>
		<path fill="#FBFBFA" d="M166.3-47.6c-69.7,0-139.3,0-209,0.1c-3.4,0-4.1-0.7-4.1-4.1c0.2-36.8,0.1-73.7,0-110.5
			c0-3,0.6-3.6,3.6-3.6c140,0.1,280,0.1,420,0c3,0,3.6,0.6,3.6,3.6c-0.1,37-0.1,74,0,111c0,3-0.6,3.6-3.6,3.6
			C306.6-47.6,236.5-47.6,166.3-47.6z M68.5-100.4L68.5-100.4c0.8-0.1,1.5-0.4,1.8-1.2c0.3-0.3,0.7-0.6,1-0.9c0.8-0.3,1.1-1,1.3-1.8
			l0-0.1c1.7-1.8,1.4-4,1.4-6.1c0-11.1,0-22.2,0-33.3c0-2.3,0.6-4.7-0.7-6.8c-2.4-5.4-7.6-6.7-12.5-7.9c-24.7-6.1-49.7-5.8-74.8-3.7
			c-7.5,0.6-15,1.5-22,4.8c-5.9,2.9-9.5,7.2-9.6,13.9c-0.1,10.5,0,21,0,31.5c0,6.3,3.1,10.8,8.7,13.4c2.8,1.3,5.9,2.4,8.9,3
			c22.6,4.8,45.4,4,68.1,2.2c8.3-0.7,16.6-1.5,24.3-5.1c0.8-0.1,1.6-0.2,2.1-1l-0.2-0.2l0.2,0.2C67.2-99.7,67.8-100,68.5-100.4z
			 M294.3-159.6c0.1-0.8-0.2-1.1-1-1c-4-1.1-7.5,2.8-11.7,1.1c-0.6-0.2-1.3,0.4-1.3,1.1c0,3.6-0.8,7.6,0.5,10.7
			c0.7,1.6,5,0.2,7.5-0.7l0.5,0.1l0.4-0.2c1.3-0.1,2.7-0.2,4-0.3c0.7,0.1,1-0.2,0.9-0.9C294.2-152.9,294.3-156.3,294.3-159.6z
			 M281-107.5c-1.5,10.9-1.5,10.9,9.2,10.9c1.2,0,2.3,0,3.5,0c1.4,0,2.1-0.5,2-2.1c-0.9-13.1-0.5-26.2-0.4-39.3
			c0-0.9,0.3-2.3-1.2-2.1c-4.3,0.4-9,0-12.6,1.8c-3.2,1.6-0.6,6.1-1,9.3c-0.1,1.4,0.3,2.9,0.4,4.4C281-119,281-113.2,281-107.5z
			 M375.6-127.6c0-7,0-14.1,0-21.1c0.2-3.4,0.5-6.9,0.6-10.3c0.1-2.5,0.5-4.3-3.4-2.5c-1.9,0.9-5.1,1.3-7.7,1
			c-3.1-0.3-3.7,1.5-3.8,3.6c-0.1,1.8,0.4,3.6,0.6,5.4c0,1,0.1,2,0.1,2.9c0,17,0.1,34,0.1,51c-0.1,0.8,0.3,1.2,1.1,1
			c3.1,0,6.3-0.1,9.4,0c2.8,0.1,3.8-1.1,3.7-3.9C376.1-109.5,375.9-118.5,375.6-127.6z M-37.1-82.8c-1.8-0.1-3.2,0.8-4.5,1.8
			c-6.4,4.9-6.2,24.9,0.2,29.7c3.3,2.5,7.1,2.4,11,2.4c79.5,0,159,0,238.5,0c1.7,0,3.3-0.1,5,0c2.9,0.3,3.7-1,3.7-3.8
			c-0.1-8.3-0.4-16.7,0.1-25c0.3-5-1.4-5.9-6.1-5.9c-80.3,0.1-160.6,0.1-241,0.1c-1.8,0-3.6,0.2-5.5,0.3
			C-36.2-83-36.6-82.9-37.1-82.8z M315.2-83.4c-16.7,0-33.3,0.1-50-0.1c-3.5,0-4.5,1-4.4,4.4c0.2,8.3,0.3,16.7,0,25
			c-0.2,4,0.8,5.3,5.1,5.3c32.3-0.2,64.6-0.1,96.9-0.1c1.5,0,3,0,4.5-0.2c6-0.9,9.8-5,10-11.1c0.1-3.3,0-6.7,0-10
			c0-9-4.1-13.1-13.2-13.1C347.8-83.4,331.5-83.4,315.2-83.4z M208.7-116.4c-0.1,0-0.2,0-0.2,0c0,2.8,0,5.7,0,8.5
			c0,11.7,0,11.6,11.4,11.4c2.9,0,3.6-0.8,3.5-3.6c-0.4-7.8-0.4-15.6-0.9-23.4c-0.3-4,1.3-6.1,5-6.5c4-0.4,5.5,2.2,6,5.8
			c0.8,5.6,0.2,11.3,0.3,17c0,3.5-1.4,8.1,0.3,10.1c2.1,2.6,6.9,0.2,10.4,0.7c3.7,0.6,3.9-1.3,3.8-4.2c-0.4-8.1-0.4-16.3-0.8-24.5
			c-0.2-3.2,1.2-4.6,4-5.2c4.1-0.9,6.3,1,7,5c1.1,6,0.4,12,0.4,17.9c0,11.2-0.1,11.1,11.3,11c2.9,0,3.7-0.8,3.5-3.7
			c-0.3-5.8-0.3-11.6-0.5-17.5c-0.2-5,0.6-10-0.7-14.9c-1.3-4.9-5.6-9-10.2-8.2c-4.7,0.9-9.9-0.1-14.1,3.3c-0.8,0.7-1.6,1.8-3.3,0.4
			c-6.3-5.1-12.4-5.3-19.1-0.8c-1.7,1.1-2.9,2.2-2.9-0.9c0-2.9-1.4-2.4-3.5-2.3c-3.5,0.2-6.4,2.9-10.2,1.9c-1.9-0.5-1.7,1.7-1.6,3.3
			C208.1-129.4,208.4-122.9,208.7-116.4z M152.6-129.1C152.6-129.1,152.6-129.1,152.6-129.1c-0.1-7.8-0.2-15.7-0.1-23.5
			c0.1-9.3,0.2-9.3-8.9-7.3c-0.5,0.1-1.2-0.4-1.8-0.5c-2.4-0.3-3.8,0.3-3.6,3.1c0.3,4,0,8,0.4,12c0.3,3.6-0.6,5.1-4.5,4.7
			c-5.2-0.5-10.1,1.2-14.5,3.7c-8.8,5.1-12.2,17.4-8.6,28.9c2.8,8.9,10.6,13.5,19.7,11.8c3.2-0.6,5.9-4,9.9-0.7
			c1.6,1.4,5.5-0.1,8.3,0.1c3.2,0.3,3.8-0.9,3.8-3.9C152.5-110.1,152.6-119.6,152.6-129.1z M202.5-118.9c-0.2-6.2-1-12.9-7-17.6
			c-8.9-7.1-18.8-5-27.7-1.5c-10.9,4.3-13.7,26.7-5.4,35.3c1.6,1.6,3.1,3.6,5,4.7C184-88.9,202.4-99.5,202.5-118.9z M318.6-105.6
			c0.6-1.3,0.8-2,1.2-2.8c4.8-9.5,9.7-18.9,14.4-28.4c0.6-1.1,3.1-3.6-1-3.6c-9.8-0.1-19.7-0.4-29.5,0.1c-4.7,0.2-1.9,4.8-2.7,7.3
			c-0.8,2.5,1.3,2.4,3,2.4c2.8-0.1,5.7,0,8.5-0.2c2.6-0.2,3.4,0.4,2.1,3c-2.4,4.5-4.6,9.2-6.9,13.8c-2.9,5.7-5.8,11.4-9,17.6
			c11,0,21.1-0.2,31.3,0.1c4.1,0.1,4.9-1,4.5-5.1c-0.3-3.6-1.5-4.4-4.7-4.1C326.4-105.4,322.9-105.6,318.6-105.6z M239.1-48.9
			c4.8,0,9.7-0.1,14.5,0c2.6,0.1,3.5-0.7,3.5-3.4c-0.1-9.3-0.1-18.6,0-28c0-2-0.4-3.1-2.7-3.1c-10.2,0.1-20.3,0.1-30.5,0
			c-2,0-2.6,0.7-2.6,2.6c0.1,9.7,0.1,19.3,0,29c0,2.2,0.7,2.9,2.9,2.8C229.1-49,234.1-48.9,239.1-48.9z M340.4-116.3
			c-0.1,0-0.2,0-0.3,0c0,2.7,0,5.3,0,8c-0.2,12.6-0.2,12.6,12.4,11.8c2.2-0.1,2.9-0.7,2.7-2.9c-1.4-12.8-0.7-25.6-0.5-38.4
			c0-2.2-0.2-3.2-2.9-3.1c-3.5,0.1-6.3,3.3-10.2,2c-0.5-0.2-2.4,1.5-2.2,3.7C340.1-128.9,340.2-122.6,340.4-116.3z M79.7-114.6
			c7.1,0,14.2,0,21.3,0c3.5,0,7.7-6.1,6.5-9.3c-0.4-1.2-1.2-0.7-2-0.8c-4.6-0.8-9.3-0.3-13.9-0.4c-9.8-0.1-9.8,0-12,9.7
			C79.6-115.2,79.6-115,79.7-114.6z M339.8-153.8c0.4,7,0.4,7,7.4,5.9c1.5-0.2,3-0.5,4.4-0.6c1.1-0.1,1.9-0.4,1.9-1.7
			c-0.1-3.4,1.9-7.6-0.4-10c-1.5-1.6-5.6-0.6-8.3,1.1c-0.3,0.2-0.7,0.4-0.9,0.3C337.7-161,339.8-156.4,339.8-153.8z"/>
		<path fill="#CB7623" d="M-35.8-83.1c1.8-0.1,3.6-0.3,5.5-0.3c80.3,0,160.6,0,241-0.1c4.7,0,6.4,0.9,6.1,5.9
			c-0.4,8.3-0.2,16.7-0.1,25c0,2.8-0.8,4-3.7,3.8c-1.7-0.2-3.3,0-5,0c-79.5,0-159,0-238.5,0c-3.8,0-7.7,0-11-2.4
			C-47.8-56.1-48-76-41.6-81c1.3-1,2.7-1.9,4.5-1.8C-36.6-82.9-36.2-83-35.8-83.1z M-28.4-64c1.6,0.4,2.9,0.5,4.5,0.2
			c3.3-0.8,7.5-2.9,7.1,3.7c-0.1,1.7,1.4,1.6,2.5,1.5c1.1,0,2.5,0.2,2.6-1.5c0.1-4.5,0.1-9,0.1-13.5c0-1.2-0.7-1.8-1.9-1.7
			c-1.1,0.1-3-0.4-3,0.9c0.4,7.4-5,4.5-8.5,5c-2.4,0.3-3.9-0.3-3.5-3.1c0.3-2.1-0.7-2.9-2.9-2.9c-2.1,0-2.4,1.2-2.4,2.9
			c0,3.8,0.1,7.7,0,11.5c-0.1,2,0.8,2.6,2.7,2.5c1.8,0,2.9-0.4,2.7-2.5C-28.6-62-28.4-63-28.4-64z M141.5-57.8
			c2.9-0.2,4.3-1.4,4-4.4c-0.2-2.3-0.4-5.1,3.1-5.1c3.7,0,2.8,3,3,5.1c0.1,1.8-0.4,3.8,2.6,3.7c2.8-0.1,2.1-2,2.1-3.5
			c0.1-2.5-0.4-5.4,3.4-5.3c3.8,0.1,2.4,3.2,2.7,5.3c0.1,0.7,0,1.3,0.1,2c0.1,1.4,1.2,1.4,2.2,1.4c1,0,2.3,0.1,2.3-1.2
			c0.1-3.1,1.1-6.5-1.1-9.2c-2.1-2.6-5.2-2.1-7.9-1.2c-1.6,0.5-2.7,1-4.5,0.2c-3.8-1.8-8-0.2-11.8,0.4c-1.4,0.2-0.4,5.5-0.5,8.4
			C141.1-60.2,141.4-59.1,141.5-57.8z M43.1-70.4c-1.8-0.3-3.4-0.7-5-0.7c-5.3-0.2-6.9,1.2-7.1,6c-0.1,5.4,1.1,6.5,6.8,6.7
			c2.6,0.1,5.1-1.1,7.8-0.2c1.5,0.5,2.4-0.4,2.4-2.2c-0.1-4.2,0-8.3,0-12.5c0-1.8-0.9-2.3-2.5-2.3c-1.6,0-2.6,0.4-2.5,2.2
			C43.2-72.4,43.1-71.5,43.1-70.4z M203.5-66.1c0.5-1.4,3-0.5,2.6-2.4c-0.4-1.8-2-2.1-3.5-2.1c-2.7,0-5.3,0-8,0.1
			c-1.8,0.1-3.1,0.9-3.6,2.8c-0.5,1.6-0.1,2.9,1.3,3.9c0.4,0.3,0.9,0.4,1.3,0.6c-0.3,0.2-0.7,0.5-1,0.7c-1.9,1.6-1.7,2.9,0.8,3.6
			c2.9,0.8,5.9,0.7,8.9,0.5c2.3-0.2,4.3-0.6,4.8-3.4C207.7-64.6,205.7-65.5,203.5-66.1z M60.6-70.7c-7.7,0-8.8,1.2-8.5,8.8
			c0.1,1.9,0.7,3.4,2.8,3.4c3.9,0,7.8-0.1,11.7-0.2c0.7,0,1.1-0.5,1.4-1.2C70.5-65.7,67.1-70.7,60.6-70.7z M174.8-63.7
			c3.7,0,6.2,0.1,8.6-0.1c1.4-0.1,3.6,1.1,3.8-1.7c0.1-2.3-0.6-4.6-3.2-4.9c-3.1-0.4-6.3-0.2-9.4,0c-1.7,0.1-3.1,1.4-3.2,3.3
			c-0.3,3.1-0.9,6.6,2.5,8.4c3.7,1.9,11.3-0.3,12.9-3.5C183.3-63.9,179.3-59.1,174.8-63.7z M104.4-69.7c-0.1-1.2-0.1-1.8-0.1-2.5
			c0-1.7,0.3-3.4-2.4-3.3c-2.6,0.1-2.4,1.8-2.4,3.4c0,3.7,0,7.3,0,11c0,1.5,0.4,2.5,2.2,2.6c2,0.1,2.7-0.8,2.5-2.7
			c-0.1-0.8-0.1-1.7,0-2.5c0.2-3.1,3.6-4.8,6-3.1c1.8,1.2,0.9,3,1.1,4.6c0.2,1.5-0.8,3.5,2.1,3.6c3.1,0.1,2.4-2,2.5-3.8
			C116.1-70.2,113.2-72.2,104.4-69.7z M127.6-58.6c0.7,0,1.3,0,2,0c5.8-0.1,7.2-1.3,7.2-6.2c0-4.9-1.3-5.9-7.4-5.9
			c-1.5,0-3,0.2-4.5,0.1c-3.9-0.3-5.3,1.9-5.4,5.4C119.4-60.1,121.1-58.6,127.6-58.6z M-0.5-58.6c8.9-0.1,10-0.8,9.9-6.5
			c-0.1-5-1.1-5.7-8-5.7c-7.6,0.1-8.8,1.1-8.8,6.7C-7.5-58.7-4.5-57.7-0.5-58.6z M88-70.1C81-72,82.3-65.4,79.7-63
			c-3-1.9-1.2-9.5-8.3-7c1.4,3.3,2.8,6.5,4.2,9.7c0.7,1.5,4.4,3-0.4,4.3c-1.3,0.4-1,2.6,0.9,2.8c2,0.2,4.1,0.1,5.1-2.2
			C83.4-60.3,85.7-65.1,88-70.1z M18.2-67c0-2.2,0-4.3,0-6.5c0-1.5-0.9-2-2.3-2c-1.3,0-2.3,0.4-2.3,1.9c0,4.3,0,8.7,0,13
			c0,1.6,0.9,1.9,2.3,1.9c1.3,0,2.3-0.3,2.3-1.9C18.2-62.7,18.2-64.8,18.2-67z M22.5-65.3c0,1.3-0.1,2.7,0,4
			c0.2,1.3-0.9,3.5,1.4,3.5c1.9,0.1,3.3-1.1,3.2-3.4c-0.1-3.9,0.2-7.9-0.9-11.8c-0.2-0.9-0.4-1.6-1.5-1.6c-1,0-1.2,0.6-1.6,1.5
			C22.3-70.6,22.5-67.9,22.5-65.3z"/>
		<path fill="#CB7623" d="M64.4-98.3c-7.7,3.5-16,4.4-24.3,5.1C17.3-91.5-5.4-90.7-28-95.5c-3.1-0.6-6.1-1.7-8.9-3
			c-5.6-2.6-8.7-7.1-8.7-13.4c0-10.5-0.1-21,0-31.5c0-6.7,3.7-11.1,9.6-13.9c7-3.4,14.5-4.2,22-4.8c25.1-2.2,50.1-2.4,74.8,3.7
			c4.9,1.2,10.1,2.5,12.5,7.9c-0.3,0.7-0.9,1.5-0.9,2.2c0.1,14.7,0.2,29.4,0.3,44.1c0,0,0,0.1,0,0.1c-1.1,0.1-1.3,0.9-1.3,1.8
			c-0.3,0.3-0.7,0.6-1,0.9c-0.9,0-1.6,0.3-1.9,1.2c0,0,0,0,0,0c-0.9-0.2-1.7,0-2,1.1l-0.2-0.2c0,0,0.2,0.2,0.2,0.2
			C65.6-99.5,64.8-99.4,64.4-98.3z M34-126.2c7.8,0,15.7,0,23.5,0c1.6,0,3.6,0.4,3.6-2.2c0-5.5,0-11-0.1-16.5
			c-0.1-2.1-1.7-3.5-3.5-4.6c-2.7-1.7-5.7-2.6-8.8-3.3c-14.1-3.3-28.4-3.3-42.7-3c-9.5,0.2-19,0.5-28.2,3.3
			c-8.2,2.5-10.7,6-10.8,14.4c0,7.5,0,15,0,22.5c0,4.4,1.8,7.6,5.5,10c5.3,3.5,11.6,4.5,17.4,5.2c11,1.2,22.2,0.6,33.3,0.5
			c9.7-0.1,19.3-1,28.6-3.9c7.8-2.4,9.6-5.3,9.5-13c0-2.8-0.9-3.7-3.7-3.7c-10,0.1-20,0.3-30-0.1c-5-0.2-7.5,0.9-6.6,6.4
			c0.4,2.2-0.1,4.3-2.7,5.3c-7.1,2.7-11.7-0.4-11.7-7.8c0-1.7,0.2-3.3,0-5c-0.4-3.4,0.8-4.7,4.4-4.6C18.6-126,26.3-126.2,34-126.2z"
			/>
		<path fill="#222220" d="M315.2-83.4c16.3,0,32.6,0,49,0c9.1,0,13.1,4.1,13.2,13.1c0,3.3,0.1,6.7,0,10c-0.2,6.1-4,10.2-10,11.1
			c-1.5,0.2-3,0.2-4.5,0.2c-32.3,0-64.6-0.1-96.9,0.1c-4.3,0-5.2-1.3-5.1-5.3c0.3-8.3,0.3-16.7,0-25c-0.1-3.5,0.8-4.5,4.4-4.4
			C281.8-83.2,298.5-83.4,315.2-83.4z M365.2-62.5c0-0.4,0-0.8,0-1.2c0.5-3.3,0.6-6.3-3.9-7c-7.4-1-11.4,0.1-11.8,3.9
			c-0.3,3-1.1,6.5,3,7.9C357.7-57,363.8-58.9,365.2-62.5z M277.7-58.6c7.6,0,9.1-1,9-6.3c0-5.2-1.5-6.1-8.9-5.9
			c-0.7,0-1.3,0.1-2,0.1c-5.4,0.2-7.2,2.5-6.2,7.9C270.6-57.6,274.7-58.9,277.7-58.6z M302.4-57.6c1.7-1.8,4.2,0.1,4.7-2.9
			c1.5-8-1.9-11.8-9.7-9.8c-2.3,0.6-5.5-2.5-6.7,1.1c-0.8,2.4-0.2,5.3-0.2,7.9c0,1,0,2,0,2.6c5.5,1.5,4.8-2.2,4.7-5.4
			c-0.1-2.6,1.4-3.4,3.7-3.6c2.4-0.1,3.3,1.4,3.5,3.3C302.5-62.4,302.4-60.4,302.4-57.6z M329.1-64.6c1.2,1.7-1.9,5.5,2,5.8
			c4.5,0.3,1.6-3.7,2.1-5.6c0.5-2.3,1.7-2.9,3.7-3.1c2.4-0.2,3.3,1.2,3.5,3.1c0.2,1.3,0.1,2.7,0.1,4c0,1.6,1,1.9,2.3,1.8
			c0.9,0,2.3,0.3,2.3-1.2c-0.1-3.1,1.2-6.4-1-9.2c-2.1-2.6-5.1-1.9-7.9-1.6c-0.8,0.1-1.7,1.1-2.2,0.9
			C327.4-73,329.7-67.6,329.1-64.6z M311.4-67.5c0,2.2,0,4.3,0,6.5c0,1.5,0.3,2.5,2.1,2.5c1.6,0,2.5-0.3,2.5-2.2
			c-0.1-4.1-0.1-8.3,0-12.4c0-1.7-0.8-2.2-2.4-2.3c-1.9,0-2.2,0.9-2.2,2.5C311.5-71.2,311.4-69.4,311.4-67.5z M320.4-67.5
			c0,1.8-0.1,3.6,0,5.5c0.1,1.5-0.8,3.4,2.1,3.4c2.6,0,2.3-1.5,2.5-3.2c0.6-4.1-1.3-8-0.2-12.1c0.4-1.5-1.3-1.5-2.5-1.6
			c-1.5-0.1-2.1,0.6-2,2C320.4-71.4,320.4-69.5,320.4-67.5z"/>
		<path fill="#1F1F1D" d="M208.7-116.4c-0.4-6.5-0.7-13-1.1-19.4c-0.1-1.6-0.2-3.8,1.6-3.3c3.9,1,6.7-1.6,10.2-1.9
			c2.1-0.1,3.5-0.6,3.5,2.3c0,3.1,1.2,2,2.9,0.9c6.7-4.4,12.8-4.2,19.1,0.8c1.7,1.4,2.5,0.3,3.3-0.4c4.2-3.5,9.4-2.4,14.1-3.3
			c4.5-0.9,8.9,3.3,10.2,8.2c1.3,4.9,0.5,9.9,0.7,14.9c0.2,5.8,0.1,11.7,0.5,17.5c0.2,2.8-0.7,3.6-3.5,3.7
			c-11.4,0.2-11.3,0.3-11.3-11c0-6,0.7-12-0.4-17.9c-0.7-4-2.9-5.9-7-5c-2.8,0.6-4.2,2-4,5.2c0.4,8.1,0.4,16.3,0.8,24.5
			c0.2,3-0.1,4.8-3.8,4.2c-3.6-0.6-8.3,1.8-10.4-0.7c-1.7-2.1-0.3-6.6-0.3-10.1c0-5.7,0.5-11.3-0.3-17c-0.5-3.6-1.9-6.2-6-5.8
			c-3.7,0.4-5.3,2.5-5,6.5c0.5,7.8,0.5,15.6,0.9,23.4c0.2,2.8-0.6,3.6-3.5,3.6c-11.5,0.1-11.5,0.2-11.4-11.4c0-2.8,0-5.7,0-8.5
			C208.6-116.4,208.7-116.4,208.7-116.4z"/>
		<path fill="#1F1F1D" d="M152.6-129.1c0,9.5-0.1,19,0.1,28.5c0.1,3-0.6,4.2-3.8,3.9c-2.8-0.2-6.6,1.2-8.3-0.1
			c-4-3.3-6.7,0.1-9.9,0.7c-9.1,1.7-16.9-2.9-19.7-11.8c-3.6-11.4-0.1-23.8,8.6-28.9c4.3-2.5,9.3-4.2,14.5-3.7
			c4,0.4,4.9-1.1,4.5-4.7c-0.4-4-0.1-8-0.4-12c-0.2-2.9,1.2-3.5,3.6-3.1c0.6,0.1,1.3,0.6,1.8,0.5c9.1-2,9.1-2,8.9,7.3
			C152.4-144.8,152.5-136.9,152.6-129.1C152.6-129.1,152.6-129.1,152.6-129.1z M138.4-118.4c0.1,0,0.2,0,0.2,0c0-3.1,0-6.3,0-9.4
			c0-1.7-0.2-3-2.3-3c-4.2-0.1-8.1,0.6-10.2,4.7c-2.9,5.8-2.7,11.8,0.3,17.6c1.7,3.3,5.4,3.6,8,3.4c2.1-0.2,4.6-2.7,4-6.3
			C138.1-113.7,138.4-116.1,138.4-118.4z"/>
		<path fill="#1F1F1D" d="M202.5-118.9c-0.2,19.4-18.5,30.1-35,20.9c-1.9-1.1-3.4-3-5-4.7c-8.3-8.6-5.6-31,5.4-35.3
			c8.8-3.5,18.8-5.6,27.7,1.5C201.5-131.8,202.4-125.2,202.5-118.9z M172.4-119.1c-0.2,3.4,0.3,6.6,1.1,9.9c0.8,3,2.5,4.7,5.8,4.9
			c3.4,0.2,6-1,7.2-4.2c2.4-6.4,2.3-13.1,0.2-19.6c-1-3.1-3.5-4.7-6.9-4.6c-3.3,0.1-5.2,2-6.3,4.8
			C172.5-125.1,172.2-122.1,172.4-119.1z"/>
		<path fill="#1F1F1D" d="M318.6-105.6c4.3,0,7.8,0.2,11.2-0.1c3.2-0.2,4.4,0.5,4.7,4.1c0.4,4.1-0.4,5.2-4.5,5.1
			c-10.1-0.3-20.3-0.1-31.3-0.1c3.2-6.2,6.1-11.8,9-17.6c2.3-4.6,4.5-9.2,6.9-13.8c1.4-2.6,0.5-3.2-2.1-3c-2.8,0.2-5.7,0.1-8.5,0.2
			c-1.7,0-3.9,0.2-3-2.4c0.8-2.5-2.1-7,2.7-7.3c9.8-0.5,19.6-0.2,29.5-0.1c4,0,1.5,2.5,1,3.6c-4.7,9.5-9.6,18.9-14.4,28.4
			C319.5-107.7,319.2-106.9,318.6-105.6z"/>
		<path fill="#E01C1F" d="M239.1-48.9c-5,0-10-0.1-15,0c-2.2,0.1-2.9-0.7-2.9-2.8c0.1-9.7,0.1-19.3,0-29c0-1.9,0.6-2.6,2.6-2.6
			c10.2,0.1,20.3,0.1,30.5,0c2.3,0,2.7,1.1,2.7,3.1c-0.1,9.3-0.1,18.6,0,28c0,2.7-0.9,3.5-3.5,3.4C248.7-49,243.9-48.9,239.1-48.9z
			 M239.1-77.3c-2.4-0.3-4.1,0.1-3.6,3.1c0.6,3.7-0.6,5.7-4.7,4.9c-3.1-0.6-3.4,1.2-3.5,3.8c-0.1,3,1.4,3.3,3.6,3
			c3.2-0.4,5.2,0.3,4.5,4.1c-0.5,2.8,0.3,4.1,3.6,4.1c3.4,0,3.4-1.7,3.1-4c-0.4-3.1,0.6-4.6,4-4.2c2.3,0.3,4.5,0.6,4.4-3.3
			c-0.1-3.5-1.7-3.9-4.3-3.5c-3.8,0.6-4.5-1.3-4.1-4.5C242.6-76.3,242-77.9,239.1-77.3z"/>
		<path fill="#222220" d="M362-151.5c-0.2-1.8-0.7-3.6-0.6-5.4c0.1-2.1,0.7-3.9,3.8-3.6c2.6,0.3,5.7-0.1,7.7-1
			c3.9-1.8,3.5,0,3.4,2.5c-0.2,3.4-0.4,6.9-0.6,10.3c-2.9,5.4-0.6,11.2-1.3,16.7c-0.2,1.5-0.8,3.4,1.3,4.3
			c0.3,9.1,0.5,18.1,0.8,27.2c0.1,2.7-0.9,4-3.7,3.9c-3.1-0.1-6.3,0-9.4,0c-0.4-0.3-0.7-0.7-1.1-1c0-17-0.1-34-0.1-51
			C363.5-149.6,363.7-150.6,362-151.5z"/>
		<path fill="#1F1F1D" d="M340.4-116.3c-0.3-6.3-0.4-12.6-1-18.9c-0.2-2.2,1.7-3.9,2.2-3.7c3.8,1.3,6.7-1.9,10.2-2
			c2.7-0.1,2.9,0.9,2.9,3.1c-0.2,12.8-0.9,25.6,0.5,38.4c0.2,2.2-0.5,2.7-2.7,2.9c-12.6,0.8-12.5,0.9-12.4-11.8c0-2.7,0-5.3,0-8
			C340.3-116.3,340.4-116.3,340.4-116.3z"/>
		<path fill="#222220" d="M281-124.7c-0.2-1.5-0.6-3-0.4-4.4c0.3-3.2-2.3-7.7,1-9.3c3.6-1.8,8.3-1.4,12.6-1.8
			c1.5-0.1,1.2,1.3,1.2,2.1c-0.1,13.1-0.5,26.2,0.4,39.3c0.1,1.6-0.6,2.1-2,2.1c-1.2,0-2.3,0-3.5,0c-10.7,0-10.7,0-9.2-10.9
			C283.1-113.2,283.1-119,281-124.7z"/>
		<path fill="#1F1F1D" d="M79.7-114.6c-0.1-0.5-0.1-0.6-0.1-0.8c2.2-9.7,2.2-9.8,12-9.7c4.6,0,9.3-0.4,13.9,0.4
			c0.7,0.1,1.5-0.4,2,0.8c1.2,3.3-3,9.3-6.5,9.3C93.9-114.5,86.8-114.6,79.7-114.6z"/>
		<path fill="#1F1F1D" d="M339.8-153.8c0-2.6-2.1-7.2,4.2-5c0.2,0.1,0.6-0.2,0.9-0.3c2.7-1.7,6.8-2.8,8.3-1.1
			c2.3,2.4,0.3,6.6,0.4,10c0,1.3-0.8,1.6-1.9,1.7c-1.5,0.1-3,0.4-4.4,0.6C340.2-146.7,340.2-146.7,339.8-153.8z"/>
		<path fill="#222220" d="M293.3-148.7c-1.3,0.1-2.7,0.2-4,0.3c-0.4-0.8-0.7-0.7-0.9,0.1c-2.6,0.9-6.9,2.3-7.5,0.7
			c-1.3-3.1-0.5-7.1-0.5-10.7c0-0.7,0.7-1.4,1.3-1.1c4.1,1.7,7.6-2.3,11.7-1.1c0.3,0.3,0.7,0.7,1,1c0,3.3-0.1,6.7-0.1,10
			C293.9-149.3,293.6-149,293.3-148.7z"/>
		<path fill="#D18741" d="M72.7-104.3c-0.1-14.7-0.2-29.4-0.3-44.1c0-0.7,0.6-1.5,0.9-2.2c1.3,2.2,0.7,4.5,0.7,6.8
			c0.1,11.1,0,22.2,0,33.3C74.1-108.3,74.4-106.1,72.7-104.3z"/>
		<path fill="#1F1F1D" d="M375.6-127.6c-2-1-1.4-2.9-1.3-4.3c0.6-5.6-1.7-11.4,1.3-16.7C375.6-141.7,375.6-134.6,375.6-127.6z"/>
		<path fill="#1F1F1D" d="M281-124.7c2.2,5.7,2.2,11.4,0,17.1C281-113.2,281-119,281-124.7z"/>
		<path fill="#1F1F1D" d="M362-151.5c1.7,0.9,1.5,1.9,0.1,2.9C362.1-149.6,362.1-150.5,362-151.5z"/>
		<path fill="#D18741" d="M64.4-98.3c0.4-1,1.2-1.2,2.1-1C66-98.5,65.2-98.4,64.4-98.3z"/>
		<path fill="#D18741" d="M68.5-100.3c0.3-1,1-1.2,1.9-1.2C70-100.8,69.3-100.5,68.5-100.3z"/>
		<path fill="#D18741" d="M71.3-102.5c0-0.9,0.2-1.7,1.3-1.8C72.5-103.5,72.2-102.8,71.3-102.5z"/>
		<path fill="#D18741" d="M66.5-99.3c0.3-1.1,1.1-1.2,2-1.1C67.8-100,67.2-99.7,66.5-99.3z"/>
		<path fill="#1F1F1D" d="M362.2-97.6c0.4,0.3,0.7,0.7,1.1,1C362.5-96.5,362.1-96.8,362.2-97.6z"/>
		<path fill="#D18741" d="M-35.8-83.1c-0.4,0.1-0.9,0.2-1.3,0.3C-36.6-82.9-36.2-83-35.8-83.1z"/>
		<path fill="#1F1F1D" d="M293.3-148.7c0.3-0.3,0.6-0.6,0.9-0.9C294.3-148.9,294-148.6,293.3-148.7z"/>
		<path fill="#1F1F1D" d="M288.4-148.3c0.2-0.8,0.5-0.9,0.9-0.1l-0.4,0.2L288.4-148.3z"/>
		<path fill="#1F1F1D" d="M294.3-159.6c-0.3-0.3-0.7-0.7-1-1C294.1-160.7,294.4-160.4,294.3-159.6z"/>
		<path fill="#FBFBFA" d="M-28.4-64c0,1-0.2,2-0.1,3c0.2,2.1-0.9,2.5-2.7,2.5c-1.9,0-2.7-0.5-2.7-2.5c0.1-3.8,0.1-7.7,0-11.5
			c0-1.7,0.3-2.8,2.4-2.9c2.2,0,3.2,0.7,2.9,2.9c-0.4,2.9,1.2,3.5,3.5,3.1c3.5-0.5,8.9,2.4,8.5-5c-0.1-1.3,1.9-0.9,3-0.9
			c1.2-0.1,1.9,0.5,1.9,1.7c0,4.5,0,9-0.1,13.5c0,1.7-1.4,1.5-2.6,1.5c-1.1,0-2.6,0.2-2.5-1.5c0.3-6.6-3.8-4.5-7.1-3.7
			C-25.5-63.5-26.8-63.7-28.4-64z"/>
		<path fill="#FBFBFA" d="M141.5-57.8c-0.1-1.2-0.4-2.4-0.4-3.5c0.2-3-0.9-8.2,0.5-8.4c3.8-0.5,8-2.2,11.8-0.4
			c1.8,0.9,2.9,0.3,4.5-0.2c2.7-0.8,5.8-1.4,7.9,1.2c2.2,2.7,1.2,6.1,1.1,9.2c0,1.3-1.3,1.2-2.3,1.2c-1,0-2.1,0-2.2-1.4
			c-0.1-0.7,0-1.3-0.1-2c-0.3-2.1,1.1-5.2-2.7-5.3c-3.8-0.1-3.3,2.8-3.4,5.3c-0.1,1.5,0.7,3.5-2.1,3.5c-3,0.1-2.4-1.9-2.6-3.7
			c-0.2-2.2,0.7-5.2-3-5.1c-3.5,0-3.3,2.8-3.1,5.1C145.8-59.3,144.4-58,141.5-57.8z"/>
		<path fill="#FBFBFA" d="M43.1-70.4c0-1.1,0-2,0-3c-0.1-1.8,0.8-2.3,2.5-2.2c1.6,0,2.5,0.5,2.5,2.3c0,4.2,0,8.3,0,12.5
			c0,1.8-0.9,2.7-2.4,2.2c-2.7-0.9-5.2,0.3-7.8,0.2c-5.7-0.1-6.9-1.3-6.8-6.7c0.1-4.7,1.8-6.2,7.1-6C39.7-71.1,41.3-70.7,43.1-70.4z
			 M39.3-61.5c2.2,0,4.1-0.4,3.9-3.2c-0.1-2.6-1.9-2.7-3.8-2.8c-2.3-0.1-4,0.7-4,3.3C35.5-61.7,37.4-61.5,39.3-61.5z"/>
		<path fill="#FBFBFA" d="M203.5-66.1c2.2,0.6,4.2,1.5,3.7,4.3c-0.5,2.7-2.5,3.2-4.8,3.4c-3,0.3-6,0.4-8.9-0.5
			c-2.5-0.7-2.6-2-0.8-3.6c0.3-0.3,0.6-0.5,1-0.7c-0.4-0.2-0.9-0.4-1.3-0.6c-1.4-0.9-1.8-2.2-1.3-3.9c0.5-1.9,1.9-2.7,3.6-2.8
			c2.6-0.1,5.3-0.1,8-0.1c1.5,0,3.1,0.3,3.5,2.1C206.5-66.6,204-67.4,203.5-66.1z"/>
		<path fill="#FBFBFA" d="M60.6-70.7c6.5,0,9.9,5,7.4,10.8c-0.3,0.7-0.7,1.2-1.4,1.2c-3.9,0.1-7.8,0.2-11.7,0.2
			c-2.1,0-2.7-1.5-2.8-3.4C51.8-69.5,53-70.7,60.6-70.7z"/>
		<path fill="#FBFBFA" d="M174.8-63.7c4.6,4.6,8.5-0.2,12,1.5c-1.6,3.1-9.3,5.4-12.9,3.5c-3.5-1.8-2.8-5.3-2.5-8.4
			c0.2-1.9,1.5-3.2,3.2-3.3c3.1-0.2,6.3-0.4,9.4,0c2.5,0.3,3.3,2.6,3.2,4.9c-0.1,2.8-2.4,1.6-3.8,1.7
			C181-63.6,178.5-63.7,174.8-63.7z"/>
		<path fill="#FBFBFA" d="M104.4-69.7c8.8-2.5,11.8-0.6,11.6,7.3c0,1.7,0.6,3.9-2.5,3.8c-2.9-0.1-1.9-2.1-2.1-3.6
			c-0.2-1.6,0.7-3.4-1.1-4.6c-2.4-1.7-5.8,0.1-6,3.1c-0.1,0.8-0.1,1.7,0,2.5c0.1,1.8-0.5,2.8-2.5,2.7c-1.8-0.1-2.2-1-2.2-2.6
			c0-3.7,0-7.3,0-11c0-1.7-0.3-3.4,2.4-3.4c2.7-0.1,2.4,1.7,2.4,3.3C104.3-71.5,104.3-70.8,104.4-69.7z"/>
		<path fill="#FBFBFA" d="M127.6-58.6c-6.5,0-8.2-1.5-8-6.7c0.1-3.5,1.5-5.7,5.4-5.4c1.5,0.1,3-0.1,4.5-0.1c6.1,0,7.4,1,7.4,5.9
			c0,4.9-1.5,6.2-7.2,6.2C129-58.6,128.3-58.6,127.6-58.6z M128.6-67.5c-2.1,0-4.1,0.1-4.1,3c0,2.5,1.7,3,3.7,2.9
			c1.9-0.1,4.2,0.3,4.3-2.7C132.6-67.3,130.7-67.4,128.6-67.5z"/>
		<path fill="#FBFBFA" d="M-0.5-58.6c-3.9,1-7,0-7-5.5c0-5.6,1.2-6.6,8.8-6.7c6.9-0.1,8,0.7,8,5.7C9.4-59.5,8.4-58.7-0.5-58.6z
			 M1.3-61.6c1.9-0.1,4-0.3,3.9-3.1c-0.1-2.9-2.3-2.8-4.3-2.8c-1.9,0-3.7,0.1-3.8,2.8C-3-61.8-0.9-61.7,1.3-61.6z"/>
		<path fill="#FBFBFA" d="M88-70.1c-2.4,5-4.6,9.8-6.8,14.6c-1,2.3-3.1,2.4-5.1,2.2c-1.8-0.2-2.2-2.4-0.9-2.8
			c4.8-1.3,1.1-2.8,0.4-4.3c-1.4-3.2-2.8-6.4-4.2-9.7c7.2-2.5,5.3,5.2,8.3,7C82.3-65.4,81-72,88-70.1z"/>
		<path fill="#FBFBFA" d="M18.2-67c0,2.2,0,4.3,0,6.5c0,1.6-1,1.9-2.3,1.9c-1.3,0-2.3-0.4-2.3-1.9c0-4.3,0-8.7,0-13
			c0-1.5,1-1.9,2.3-1.9c1.4,0,2.3,0.4,2.3,2C18.2-71.3,18.2-69.2,18.2-67z"/>
		<path fill="#FBFBFA" d="M22.5-65.3c0-2.6-0.2-5.2,0.8-7.8c0.3-0.9,0.6-1.5,1.6-1.5c1,0,1.2,0.7,1.5,1.6c1.1,3.9,0.7,7.8,0.9,11.8
			c0.1,2.4-1.4,3.5-3.2,3.4c-2.3-0.1-1.2-2.2-1.4-3.5C22.3-62.7,22.5-64,22.5-65.3z"/>
		<path fill="#FBFBFA" d="M34-126.2c-7.7,0-15.3,0.2-23-0.1c-3.6-0.1-4.8,1.2-4.4,4.6c0.2,1.6,0,3.3,0,5c0,7.4,4.6,10.5,11.7,7.8
			c2.6-1,3-3.1,2.7-5.3c-0.9-5.5,1.6-6.6,6.6-6.4c10,0.4,20,0.2,30,0.1c2.8,0,3.7,0.8,3.7,3.7c0.1,7.7-1.7,10.6-9.5,13
			c-9.3,2.9-18.9,3.8-28.6,3.9c-11.1,0.1-22.3,0.7-33.3-0.5c-5.8-0.6-12.1-1.7-17.4-5.2c-3.7-2.4-5.5-5.6-5.5-10
			c0.1-7.5,0-15,0-22.5c0-8.4,2.6-12,10.8-14.4c9.2-2.8,18.7-3.1,28.2-3.3c14.3-0.3,28.6-0.3,42.7,3c3.1,0.7,6.1,1.6,8.8,3.3
			c1.7,1.1,3.4,2.5,3.5,4.6c0.2,5.5,0.2,11,0.1,16.5c0,2.6-2,2.2-3.6,2.2C49.6-126.1,41.8-126.2,34-126.2z M13.6-134.4
			c7.8-0.1,7,1,7.1-5.6c0.1-6.8-0.5-7.5-6.7-7.5c-6.4-0.1-7.1,0.7-7.1,7C6.8-134.4,6.8-134.4,13.6-134.4z"/>
		<path fill="#FBFBFA" d="M365.2-62.5c-1.4,3.6-7.5,5.4-12.6,3.7c-4.1-1.4-3.3-4.9-3-7.9c0.4-3.8,4.4-4.9,11.8-3.9
			c4.5,0.6,4.4,3.6,3.9,7c-3.7,0.2-7.5-0.7-11.9,0.8C357.9-59.6,361.6-63.4,365.2-62.5z"/>
		<path fill="#FBFBFA" d="M277.7-58.6c-3-0.2-7.2,1-8.1-4.2c-1-5.3,0.8-7.6,6.2-7.9c0.7,0,1.3-0.1,2-0.1c7.4-0.2,8.9,0.8,8.9,5.9
			C286.8-59.7,285.4-58.6,277.7-58.6z M277.9-67.2c-0.8,0.3-3.3-0.8-3.6,2.2c-0.2,1.8,0.3,3.8,2.4,3.3c1.6-0.4,4.4,0.4,4.8-2.6
			C281.7-66.4,281.1-67.7,277.9-67.2z"/>
		<path fill="#FBFBFA" d="M302.4-57.6c0-2.8,0.2-4.8-0.1-6.8c-0.2-1.9-1.1-3.4-3.5-3.3c-2.3,0.1-3.8,1-3.7,3.6
			c0.1,3.2,0.8,6.9-4.7,5.4c0-0.6,0-1.6,0-2.6c0-2.7-0.6-5.5,0.2-7.9c1.2-3.6,4.4-0.5,6.7-1.1c7.9-2,11.2,1.8,9.7,9.8
			C306.5-57.5,304-59.4,302.4-57.6z"/>
		<path fill="#FBFBFA" d="M329.1-64.6c0.6-3-1.6-8.4,5-5.1c0.5,0.2,1.4-0.8,2.2-0.9c2.8-0.3,5.8-1,7.9,1.6c2.2,2.7,0.9,6.1,1,9.2
			c0.1,1.4-1.3,1.1-2.3,1.2c-1.3,0.1-2.3-0.2-2.3-1.8c0-1.3,0.1-2.7-0.1-4c-0.3-2-1.2-3.4-3.5-3.1c-2,0.2-3.2,0.8-3.7,3.1
			c-0.5,1.9,2.4,5.9-2.1,5.6C327.1-59.1,330.3-62.9,329.1-64.6z"/>
		<path fill="#FBFBFA" d="M311.4-67.5c0-1.8,0-3.7,0-5.5c0-1.5,0.3-2.5,2.2-2.5c1.6,0,2.5,0.5,2.4,2.3c0,4.1-0.1,8.3,0,12.4
			c0,1.8-0.9,2.1-2.5,2.2c-1.9,0-2.2-0.9-2.1-2.5C311.5-63.2,311.4-65.4,311.4-67.5z"/>
		<path fill="#FBFBFA" d="M320.4-67.5c0-2,0-4,0-5.9c0-1.5,0.5-2.1,2-2c1.2,0.1,2.9,0.1,2.5,1.6c-1.1,4.1,0.8,8.1,0.2,12.1
			c-0.3,1.7,0,3.2-2.5,3.2c-2.9,0-2-2-2.1-3.4C320.3-63.8,320.4-65.7,320.4-67.5z"/>
		<path fill="#1F1F1D" d="M365.2-62.5c-3.6-1-7.3,2.8-11.9-0.3c4.4-1.5,8.2-0.6,11.9-0.8C365.3-63.3,365.2-62.9,365.2-62.5z"/>
		<path fill="#FBFBFA" d="M138.4-118.4c0,2.3-0.3,4.7,0.1,6.9c0.7,3.6-1.9,6.1-4,6.3c-2.6,0.2-6.3-0.1-8-3.4
			c-3-5.8-3.2-11.7-0.3-17.6c2.1-4.1,6-4.8,10.2-4.7c2.1,0,2.3,1.3,2.3,3c-0.1,3.1,0,6.3,0,9.4C138.6-118.4,138.5-118.4,138.4-118.4
			z"/>
		<path fill="#FBFBFA" d="M172.4-119.1c-0.2-3,0.1-6,1.2-8.8c1-2.8,3-4.7,6.3-4.8c3.4-0.1,5.9,1.5,6.9,4.6
			c2.1,6.5,2.1,13.1-0.2,19.6c-1.2,3.2-3.8,4.3-7.2,4.2c-3.3-0.1-5-1.8-5.8-4.9C172.7-112.4,172.2-115.7,172.4-119.1z"/>
		<path fill="#FBFBFA" d="M239.1-77.3c2.9-0.6,3.5,1.1,3.2,3.4c-0.4,3.2,0.3,5.1,4.1,4.5c2.6-0.4,4.3,0,4.3,3.5
			c0.1,3.8-2.2,3.5-4.4,3.3c-3.4-0.4-4.4,1.1-4,4.2c0.3,2.3,0.3,4-3.1,4c-3.3,0-4.1-1.3-3.6-4.1c0.7-3.8-1.3-4.5-4.5-4.1
			c-2.2,0.3-3.8,0-3.6-3c0.1-2.6,0.4-4.3,3.5-3.8c4.1,0.8,5.3-1.2,4.7-4.9C235.1-77.2,236.8-77.6,239.1-77.3z"/>
		<path fill="#D18741" d="M39.3-61.5c-1.9,0-3.9-0.1-3.9-2.7c0-2.6,1.7-3.4,4-3.3c1.9,0.1,3.7,0.2,3.8,2.8
			C43.4-61.9,41.6-61.5,39.3-61.5z"/>
		<path fill="#D18741" d="M128.6-67.5c2.1,0.1,4,0.2,3.9,3.2c-0.2,3-2.4,2.6-4.3,2.7c-2,0.1-3.7-0.5-3.7-2.9
			C124.4-67.4,126.5-67.5,128.6-67.5z"/>
		<path fill="#D18741" d="M1.3-61.6c-2.3-0.1-4.3-0.2-4.2-3.1c0.1-2.6,1.9-2.8,3.8-2.8c2,0,4.2-0.1,4.3,2.8
			C5.3-61.9,3.2-61.7,1.3-61.6z"/>
		<path fill="#CB7623" d="M13.6-134.4c-6.8,0-6.8,0-6.8-6.1c0-6.4,0.7-7.1,7.1-7c6.2,0,6.8,0.7,6.7,7.5
			C20.6-133.5,21.4-134.5,13.6-134.4z"/>
		<path fill="#1F1F1D" d="M277.9-67.2c3.3-0.4,3.8,0.9,3.5,2.8c-0.3,3-3.2,2.2-4.8,2.6c-2.1,0.5-2.6-1.5-2.4-3.3
			C274.6-68.1,277.1-66.9,277.9-67.2z"/>
	</g>
</g>
<image width="427" height="118" xlink:href="8846EE1B.jpg"  transform="matrix(1 0 0 1 -61.7333 -345.6317)">
</image>
<polygon fill="#1E6899" points="207.1,-277 193.6,-277 193.6,-318.6 207.1,-319.9 "/>
<polygon fill="#1E6899" points="279.9,-277 266.4,-277 266.4,-318.6 279.9,-319.9 "/>
<polygon fill="#1E6899" points="339.2,-277 325.8,-277 325.8,-318.6 339.2,-319.9 "/>
<polygon fill="#1E6899" points="339.2,-328.4 325.8,-326.6 325.8,-339.1 339.2,-340.4 "/>
<polygon fill="#1E6899" points="279.1,-328.4 265.7,-326.6 265.7,-339.1 279.1,-340.4 "/>
<polygon fill="#1E6899" points="361.1,-277 347.7,-277 347.7,-340 361.1,-341.3 "/>
<polygon fill="#1E6899" points="314.8,-310.7 285.9,-310.7 287,-319.9 319.7,-319.9 "/>
<polygon fill="#1E6899" points="290,-286.1 319.9,-286.2 318.9,-277 285.1,-277 "/>
<rect x="297.6" y="-318.8" transform="matrix(0.8843 0.467 -0.467 0.8843 -104.6987 -176.0512)" fill="#1E6899" width="10.5" height="39.1"/>
<polygon fill="#1E6899" points="89.2,-294.6 64.8,-294.6 68.6,-304.7 92.9,-304.7 "/>
<path fill="#1E6899" d="M123.8-339.4v19.5c-3.7-0.9-8.5-0.8-11.6-0.4c-9.6,1.4-17.3,10.3-17.3,22.5c0,12.3,7.8,22.2,17.5,22.2
	c4.3,0,8.3-2,11.4-5.3v3.9h13.5v-64.3L123.8-339.4z"/>
<ellipse fill="#1E6899" cx="165.2" cy="-298.5" rx="22.2" ry="22.7"/>
<rect x="219.6" y="-314.9" fill="#1E6899" width="12.2" height="37.9"/>
<rect x="245.1" y="-309" fill="#1E6899" width="12.2" height="32"/>
<path fill="#1E6899" d="M232.3-308.7c0,6.9-5.2,12.5-11.6,12.5c-6.4,0-16-4.6-16-11.5s9.6-13.5,16-13.5
	C227.1-321.2,232.3-315.6,232.3-308.7z"/>
<path fill="#1E6899" d="M257.1-308.7c0,6.9-5.2,12.5-11.6,12.5s-16-4.6-16-11.5s9.6-13.5,16-13.5S257.1-315.6,257.1-308.7z"/>
<path fill="#1E6899" d="M257.3-308.7c0,6.9-5.2,12.5-11.6,12.5c-6.4,0-16-4.6-16-11.5s9.6-13.5,16-13.5
	C252.1-321.2,257.3-315.6,257.3-308.7z"/>
</svg>
