<?xml version="1.0" encoding="utf-8"?>
<!-- Generator: Adobe Illustrator 25.2.1, SVG Export Plug-In . SVG Version: 6.00 Build 0)  -->
<svg version="1.1" id="Layer_1" xmlns="http://www.w3.org/2000/svg" xmlns:xlink="http://www.w3.org/1999/xlink" x="0px" y="0px"
	 viewBox="0 0 237.76 42" style="enable-background:new 0 0 237.76 42;" xml:space="preserve">
<style type="text/css">
	.st0{fill:#255565;}
	.st1{fill:#2A586A;}
	.st2{fill:#6EC7BB;}
	.st3{fill:#E0E1E5;}
	.st4{fill:#AAE7DE;}
</style>
<g>
	<path class="st0" d="M225.27,30.82c-4.08,3.18-8.45,3.03-11.53-0.38c-2.81-3.11-2.71-8.6,0.2-11.75c2.2-2.39,7.25-4.04,11.36-0.26
		c0.05-0.31,0.05-0.56,0.13-0.79c0.32-0.87,0.96-1.38,1.9-1.26c0.97,0.12,1.66,0.71,1.64,1.73c-0.09,5.19,0.39,10.4-0.29,15.57
		c-0.42,3.14-1.89,5.72-5.1,6.76c-3.34,1.08-6.53,0.83-9.3-1.61c-0.21-0.18-0.39-0.39-0.58-0.59c-0.75-0.81-1.03-1.72-0.17-2.56
		c0.83-0.81,1.79-0.6,2.57,0.17c1.06,1.04,2.28,1.69,3.78,1.73c2.95,0.08,4.76-1.4,5.28-4.32C225.3,32.46,225.46,31.66,225.27,30.82
		z M220.41,19.77c-2.83-0.02-4.91,1.99-4.96,4.78c-0.05,2.91,1.99,5.05,4.82,5.05c2.85,0,4.95-2.09,4.96-4.95
		C225.24,21.77,223.29,19.8,220.41,19.77z"/>
	<path class="st0" d="M169.88,30.92c0,2.66,0,5.14,0,7.62c0,1.44-0.65,2.27-1.78,2.29c-1.14,0.03-1.81-0.79-1.81-2.25
		c0-6.61,0.01-13.23-0.02-19.84c0-1.19,0.25-2.12,1.55-2.37c1.07-0.2,1.87,0.58,2.18,2.06c3.58-3.01,8.11-2.93,11.08,0.19
		c3.04,3.19,3.06,8.86,0.05,12.07C178.21,33.81,173.59,33.95,169.88,30.92z M179.58,24.82c0.02-2.92-1.88-4.99-4.64-5.04
		c-2.9-0.06-5.03,2.06-5.01,5c0.01,2.76,2.11,4.82,4.92,4.82C177.62,29.6,179.56,27.64,179.58,24.82z"/>
	<path class="st0" d="M156.78,25.97c-1.56,0-3.13,0.07-4.69-0.02c-1.22-0.07-1.15,0.43-0.77,1.27c1.14,2.55,4.59,3.51,7.21,1.99
		c0.39-0.23,0.74-0.54,1.12-0.81c0.88-0.62,1.83-0.86,2.57,0.09c0.68,0.88,0.3,1.74-0.49,2.41c-2.68,2.27-5.74,2.83-9.02,1.71
		c-3.18-1.09-4.9-3.47-5.28-6.76c-0.4-3.5,0.55-6.55,3.73-8.42c3.1-1.82,6.33-1.8,9.36,0.23c2.26,1.52,3.22,3.81,3.28,6.5
		c0.03,1.21-0.63,1.78-1.77,1.8C160.28,25.99,158.53,25.97,156.78,25.97z M155.65,23.25c1.24,0,2.48-0.03,3.72,0.01
		c0.85,0.03,0.89-0.26,0.63-0.97c-0.67-1.8-2.21-2.89-4.25-2.9c-2.08-0.01-3.85,1.1-4.51,2.8c-0.28,0.72-0.26,1.11,0.69,1.07
		C153.17,23.21,154.41,23.25,155.65,23.25z"/>
	<path class="st0" d="M90.31,25.97c-1.66,0-3.31,0.05-4.97-0.02c-1.07-0.05-0.99,0.41-0.71,1.14c1,2.57,4.54,3.66,7.14,2.19
		c0.48-0.27,0.89-0.65,1.35-0.95c0.85-0.55,1.78-0.74,2.46,0.16c0.67,0.88,0.32,1.71-0.45,2.42c-2.59,2.4-7.05,2.95-10.18,1.23
		c-3.19-1.75-4.83-5.4-4.12-9.17c0.79-4.18,4.02-6.86,8.26-6.82c4.27,0.03,7.37,2.75,8.04,7.03c0.32,2.08-0.28,2.78-2.41,2.78
		C93.26,25.97,91.78,25.97,90.31,25.97z M88.93,23.25c1.29,0,2.58-0.03,3.86,0.01c0.75,0.03,0.83-0.22,0.62-0.88
		c-0.57-1.8-2.23-2.98-4.33-2.99c-2.12-0.01-4.02,1.25-4.53,2.96c-0.19,0.63-0.11,0.94,0.65,0.91
		C86.44,23.22,87.69,23.25,88.93,23.25z"/>
	<path class="st0" d="M138.37,25.97c-1.66,0-3.31,0.05-4.97-0.02c-1.07-0.05-0.99,0.41-0.71,1.14c1.02,2.61,4.65,3.69,7.26,2.12
		c0.47-0.28,0.88-0.67,1.35-0.96c0.83-0.5,1.71-0.61,2.35,0.23c0.62,0.82,0.4,1.67-0.36,2.32c-2.74,2.37-5.88,2.96-9.26,1.76
		c-3.23-1.15-4.87-3.66-5.22-6.98c-0.67-6.36,4.81-10.85,10.93-9.02c3.23,0.97,5.52,4.06,5.52,7.45c0,1.33-0.56,1.93-1.92,1.95
		C141.68,25.99,140.03,25.97,138.37,25.97z M136.97,23.25c1.33,0,2.67-0.01,4,0.01c0.58,0.01,0.68-0.17,0.54-0.73
		c-0.45-1.78-2.15-3.07-4.23-3.13c-2.18-0.06-4.16,1.2-4.67,2.95c-0.18,0.61-0.14,0.95,0.64,0.92
		C134.49,23.22,135.73,23.25,136.97,23.25z"/>
	<path class="st1" d="M27.36,6.39c0,1.79-0.03,3.58,0.01,5.37c0.02,0.73-0.23,0.93-0.95,0.93c-3.58-0.03-7.17-0.03-10.75,0
		c-0.66,0-1-0.11-1-0.89c0.03-3.63,0.03-7.26,0-10.89c0-0.61,0.12-0.91,0.83-0.9c3.68,0.03,7.35,0.03,11.03,0
		c0.69-0.01,0.85,0.24,0.83,0.88C27.34,2.71,27.37,4.55,27.36,6.39z"/>
	<path class="st2" d="M6.36,14.65c1.79,0,3.59,0.02,5.38-0.01c0.7-0.01,0.97,0.21,0.97,0.94c-0.03,3.58-0.03,7.17,0,10.75
		c0.01,0.81-0.31,1.01-1.06,1c-3.54-0.03-7.08-0.03-10.62,0C0.26,27.34,0,27.09,0.01,26.31c0.03-3.54,0.04-7.08,0-10.61
		c-0.01-0.88,0.31-1.09,1.12-1.06C2.87,14.68,4.62,14.65,6.36,14.65z"/>
	<path class="st3" d="M27.36,21.07c0,1.74-0.03,3.49,0.01,5.23c0.02,0.76-0.23,1.06-1.02,1.06c-3.58-0.03-7.17-0.03-10.75,0
		c-0.73,0-0.96-0.29-0.95-0.98c0.02-3.58,0.02-7.16,0-10.75c0-0.69,0.22-0.99,0.95-0.99c3.58,0.02,7.17,0.03,10.75,0
		c0.79-0.01,1.04,0.3,1.02,1.06C27.34,17.48,27.36,19.27,27.36,21.07z"/>
	<path class="st4" d="M42,21.14c0,1.75-0.02,3.49,0.01,5.23c0.01,0.7-0.23,0.98-0.95,0.97c-3.58-0.02-7.17-0.03-10.75,0
		c-0.8,0.01-1.02-0.31-1.01-1.06c0.03-3.54,0.03-7.07,0-10.61c-0.01-0.77,0.24-1.05,1.03-1.04c3.54,0.03,7.08,0.04,10.61,0
		c0.87-0.01,1.1,0.32,1.08,1.13C41.97,17.56,42,19.35,42,21.14z"/>
	<path class="st2" d="M27.36,35.61c0,1.79-0.03,3.58,0.01,5.37C27.4,41.76,27.14,42,26.36,42c-3.54-0.03-7.07-0.04-10.61,0
		c-0.86,0.01-1.09-0.29-1.08-1.11c0.04-3.53,0.03-7.07,0-10.6c-0.01-0.78,0.26-1.03,1.03-1.02c3.58,0.03,7.16,0.03,10.75,0
		c0.74-0.01,0.94,0.28,0.93,0.97C27.34,32.03,27.36,33.82,27.36,35.61z"/>
	<path class="st0" d="M118.51,21.27c1.43-1.32,2.86-2.61,4.25-3.95c1.1-1.06,2.04-1.27,2.89-0.53c0.85,0.74,0.73,1.85-0.35,2.99
		c-1.01,1.07-2.03,2.13-3.1,3.14c-0.57,0.53-0.53,0.86-0.01,1.41c1.72,1.79,3.37,3.64,5.07,5.45c0.8,0.85,1.03,1.76,0.22,2.69
		c-0.67,0.77-1.9,0.6-2.77-0.33c-1.99-2.14-3.96-4.31-6.21-6.75c0,1.96,0.01,3.58,0,5.21c-0.01,1.61-0.6,2.34-1.87,2.33
		c-1.2-0.01-1.77-0.7-1.77-2.27c-0.01-6.94-0.01-13.88,0-20.82c0-1.45,0.71-2.32,1.8-2.3c1.11,0.02,1.83,0.89,1.84,2.29
		C118.51,13.67,118.51,17.52,118.51,21.27z"/>
	<path class="st0" d="M56.64,20.93c0-3.22,0-6.43,0-9.65c0-1.82,0.57-2.42,2.35-2.43c3.31-0.01,6.62,0.01,9.93-0.01
		c1.18-0.01,1.99,0.41,2.08,1.67c0.08,1.15-0.64,1.78-2.08,1.79c-2.48,0.02-4.97,0.04-7.45-0.01c-0.83-0.02-1.14,0.22-1.1,1.08
		c0.06,1.65,0.05,3.31,0,4.96c-0.02,0.78,0.21,1.03,1,1.01c1.84-0.05,3.68,0,5.52-0.02c1.16-0.02,1.89,0.49,1.93,1.66
		c0.04,1.2-0.71,1.71-1.86,1.71c-1.75,0-3.5,0.07-5.24-0.03c-1.14-0.07-1.39,0.36-1.35,1.41c0.07,2.2,0.02,4.41,0.02,6.62
		c0,1.01-0.34,1.82-1.36,2.15c-1.33,0.43-2.37-0.44-2.37-2C56.62,27.55,56.64,24.24,56.64,20.93z"/>
	<path class="st2" d="M35.78,12.69c-1.79,0-3.59-0.02-5.38,0.01c-0.71,0.01-1.1-0.11-1.09-0.97c0.04-3.58,0.03-7.17,0-10.76
		c0-0.7,0.19-0.99,0.93-0.97c1.98,0.04,3.96-0.05,5.93,0.03c2.99,0.12,5.68,2.81,5.8,5.82c0.08,1.97-0.01,3.95,0.03,5.93
		c0.02,0.76-0.31,0.93-0.99,0.92C39.28,12.67,37.53,12.69,35.78,12.69z"/>
	<path class="st3" d="M12.72,6.38c0,1.75-0.03,3.49,0.01,5.24c0.02,0.85-0.28,1.11-1.12,1.11c-3.49-0.03-6.99-0.03-10.48,0
		c-0.81,0.01-1.16-0.22-1.13-1.09c0.05-1.93-0.04-3.86,0.03-5.79c0.1-2.84,3-5.72,5.83-5.82C7.79-0.03,9.73,0.05,11.66,0
		c0.88-0.02,1.1,0.34,1.08,1.14C12.69,2.89,12.72,4.64,12.72,6.38z"/>
	<path class="st1" d="M6.37,29.28c1.79,0,3.58,0.03,5.37-0.01c0.69-0.01,0.97,0.16,0.96,0.91c-0.04,3.63-0.03,7.25,0,10.88
		c0.01,0.72-0.21,0.96-0.94,0.94c-1.79-0.05-3.58,0.03-5.37-0.04c-3.7-0.15-6.32-2.9-6.37-6.6C0,33.66,0.06,31.96,0,30.26
		c-0.03-0.78,0.2-1.03,0.99-1C2.78,29.32,4.57,29.28,6.37,29.28z"/>
	<path class="st0" d="M198.14,18.49c1.45-1.69,3.24-2.45,5.4-2.26c3.32,0.3,5.34,2.31,5.52,5.74c0.15,3.03,0.08,6.06,0.07,9.1
		c0,1.14-0.62,1.8-1.78,1.84c-1.13,0.04-1.82-0.64-1.83-1.92c-0.03-2.34,0-4.69-0.01-7.03c-0.01-2.74-1.24-4.21-3.47-4.19
		c-2.48,0.03-3.96,1.62-3.98,4.28c-0.01,2.21,0.01,4.41-0.01,6.62c-0.01,1.5-0.63,2.23-1.83,2.24c-1.23,0.02-1.8-0.67-1.8-2.22
		c-0.01-3.95,0.02-7.91-0.02-11.86c-0.01-1.24,0.25-2.28,1.62-2.45C197.4,16.21,197.92,17.2,198.14,18.49z"/>
	<path class="st0" d="M105.59,20.93c0.92-1.31,1.72-2.49,2.56-3.63c0.74-1.01,1.74-1.23,2.62-0.64c0.85,0.57,0.98,1.61,0.25,2.66
		c-0.91,1.32-1.84,2.63-2.83,3.9c-0.42,0.54-0.37,0.9,0.01,1.42c1.3,1.72,2.56,3.48,3.82,5.23c0.86,1.2,0.85,2.18-0.01,2.78
		c-0.88,0.62-2,0.31-2.83-0.8c-1.17-1.59-2.33-3.19-3.59-4.92c-1.16,1.59-2.25,3.11-3.37,4.61c-0.3,0.4-0.6,0.86-1.01,1.12
		c-0.77,0.48-1.63,0.47-2.27-0.21c-0.65-0.7-0.52-1.54,0.01-2.28c1.28-1.8,2.55-3.59,3.9-5.34c0.5-0.65,0.56-1.11,0.02-1.78
		c-0.9-1.1-1.69-2.29-2.52-3.45c-0.88-1.23-0.86-2.28,0.03-2.9c0.97-0.69,1.98-0.38,2.89,0.91
		C104.03,18.67,104.77,19.76,105.59,20.93z"/>
	<path class="st0" d="M77.36,20.17c0,3.5,0,6.99,0,10.49c0,1.53-0.57,2.24-1.78,2.26c-1.23,0.02-1.81-0.68-1.81-2.22
		c-0.01-6.95,0-13.9,0-20.84c0-1.43,0.71-2.34,1.77-2.33c1.12,0.02,1.82,0.89,1.82,2.29C77.36,13.27,77.36,16.72,77.36,20.17z"/>
	<path class="st1" d="M41.71,29.28c-4.12,4.12-8.23,8.22-12.37,12.36c0-3.87,0-7.8-0.01-11.72c0-0.48,0.2-0.64,0.66-0.64
		C33.93,29.29,37.86,29.28,41.71,29.28z"/>
	<path class="st1" d="M186.56,24.6c0-2.02-0.02-4.03,0.01-6.05c0.02-1.39,0.66-2.17,1.74-2.2c1.14-0.03,1.94,0.81,1.95,2.18
		c0.03,4.08,0.03,8.16,0,12.24c-0.01,1.43-0.73,2.18-1.93,2.16c-1.14-0.02-1.75-0.72-1.76-2.14
		C186.55,28.73,186.56,26.66,186.56,24.6z"/>
	<path class="st0" d="M235.4,28.41c1.38,0.07,2.46,1.21,2.36,2.5c-0.1,1.32-1.26,2.3-2.65,2.23c-1.41-0.07-2.38-1.13-2.31-2.52
		C232.87,29.26,233.95,28.34,235.4,28.41z"/>
	<path class="st0" d="M190.81,9.99c0.02,1.26-1.06,2.31-2.4,2.32c-1.34,0.02-2.45-0.99-2.47-2.25c-0.02-1.25,1.06-2.29,2.4-2.32
		C189.69,7.73,190.79,8.72,190.81,9.99z"/>
</g>
</svg>
