<?xml version="1.0" encoding="utf-8"?>
<!-- Generator: Adobe Illustrator 23.0.3, SVG Export Plug-In . SVG Version: 6.00 Build 0)  -->
<svg version="1.2" baseProfile="tiny" id="Layer_1" xmlns="http://www.w3.org/2000/svg" xmlns:xlink="http://www.w3.org/1999/xlink"
	 x="0px" y="0px" viewBox="0 0 241.4 42" xml:space="preserve">
<g>
	<path fill="#326FB3" d="M0.2,13.6c2.5-3,5-5.9,7.3-8.7C8.7,3.5,10,2,11.2,0.6C11.5,0.2,11.8,0,12.4,0c6,0,12.1,0,18.1,0
		c0.4,0,0.7,0.1,0.9,0.4c3.7,4.2,7.4,8.3,11.1,12.5c0.1,0.1,0.1,0.1,0.2,0.3c-1.1,0.1-2.2,0.3-3.4,0.3c-0.6,0-0.7,0.3-0.7,0.8
		c0,6.5,0,13.1,0,19.5c0,0.7-0.1,0.9-0.8,1.1c-4.5,1-9,2.1-13.5,3.1c-1.4,0.3-2.6-0.2-3.9-0.4C15.2,36.8,10.1,35.8,5,35
		c-0.6-0.1-0.7-0.3-0.7-0.8c0.1-0.8,0-1.8,0-2.6c0-0.5-0.1-0.7-0.6-0.5c-0.7,0.2-1.3,0.2-1.9,0.3C1,31.4,0.2,30.9,0,30
		s0.3-1.5,1.2-1.7c0.8-0.2,1.6-0.3,2.3-0.4c0.5-0.1,0.7-0.2,0.7-0.7c0-4.5,0-8.9,0-13.4c0-0.6-0.2-0.7-0.7-0.6
		C2.6,13.4,1.5,13.5,0.2,13.6z M23.5,25.1c0-3.7,0-7.4,0-11.1c0-0.5-0.1-0.8-0.5-1.2c-2.8-3.2-5.6-6.3-8.4-9.4
		c-0.4-0.4-0.5-0.5-0.8,0C11.3,6.4,8.6,9.4,6,12.4c-0.2,0.3-0.4,0.5-0.4,0.8c0,4.6,0,9.2,0,13.7c0,0.4,0,0.7,0.6,0.5
		c0.7-0.2,1.5-0.3,2.2-0.4c1.8-0.3,3.6-0.6,5.3-0.7c1.2-0.1,1.9,0.8,1.5,2c-0.3,0.7-0.8,0.7-1.4,0.8c-2.1,0.4-4,0.7-6.1,1
		c-0.7,0.1-1.6,0-2,0.5c-0.4,0.5,0,1.4-0.1,2.1c-0.1,0.7,0.3,0.9,0.9,1c5.4,0.9,10.8,2,16.2,2.9c0.7,0.1,0.7,0,0.7-0.7
		C23.5,32.5,23.5,28.7,23.5,25.1z M27.1,26.5L27.1,26.5c0,0.8,0,1.6,0,2.4c0,0.4,0.1,0.5,0.5,0.4c1.1-0.2,2.2-0.4,3.3-0.6
		c0.4-0.1,0.5-0.3,0.5-0.7c0-1.5,0-3,0-4.5c0-0.5-0.2-0.6-0.7-0.5c-1,0.2-2.1,0.3-3.1,0.4c-0.4,0.1-0.6,0.2-0.6,0.7
		C27.1,24.9,27.1,25.6,27.1,26.5z M27.1,18.9L27.1,18.9c0,0.8,0,1.6,0,2.4c0,0.4,0.1,0.6,0.5,0.5c1.1-0.2,2.2-0.3,3.4-0.5
		c0.4,0,0.4-0.2,0.4-0.5c0-1.5,0-3.1,0-4.6c0-0.5-0.2-0.5-0.6-0.5c-0.7,0.1-1.4,0.1-2.2,0.2c-1.5,0.2-1.5,0.2-1.5,1.7
		C27.1,18.1,27.1,18.4,27.1,18.9z M33.1,25.5c0,0.7,0,1.5,0,2.2c0,0.5,0.1,0.6,0.6,0.5c0.7-0.2,1.6-0.3,2.4-0.4
		c0.4-0.1,0.6-0.2,0.6-0.6c0-1.5,0-3,0-4.4c0-0.3,0-0.5-0.4-0.5c-0.8,0.2-1.8,0.3-2.6,0.4c-0.4,0.1-0.5,0.2-0.5,0.6
		C33.1,24,33.1,24.8,33.1,25.5z M33.1,18.2c0,0.7,0,1.4,0,2.1c0,0.6,0.2,0.7,0.7,0.7c0.7-0.1,1.5-0.3,2.2-0.3c0.5,0,0.6-0.2,0.6-0.7
		c0-1.4,0-2.8,0-4.3c0-0.5-0.2-0.6-0.6-0.6c-0.7,0.1-1.5,0.2-2.2,0.2c-0.6,0-0.7,0.3-0.7,0.7C33.1,16.9,33.1,17.6,33.1,18.2z"/>
	<g>
		<path fill="#3470B4" d="M99.9,16.3c3.6-5.4,10.4-4.5,12.2,0.2c0.4,0,0.5-0.4,0.6-0.7c1.4-2,3.3-3.1,5.7-3.3c3.6-0.2,6.5,2.2,7,6.3
			c0.4,2.2,0.2,4.6,0.2,6.9c0,2.2,0,4.5,0,6.8c0,0.7-0.2,0.8-0.8,0.8c-2.8,0.1-2.8,0.1-2.8-2.7c-0.1-3.6,0.2-7-0.2-10.6
			c0-0.2,0-0.4-0.1-0.6c-0.5-2.7-2.1-4-4.4-3.9c-2.2,0.1-4.2,2.1-4.3,4.5c-0.1,2.1-0.1,4.1-0.1,6.2s0,4.2,0,6.3
			c0,0.7-0.2,0.8-0.8,0.8c-2.8,0.1-2.8,0.1-2.8-2.7c0-3.2,0-6.3,0-9.4c0-1-0.1-2.1-0.5-3c-1.1-2.8-4.3-3.6-6.5-1.6
			c-1.3,1.1-2.1,2.6-2.1,4.4c0,3.7,0,7.5,0,11.2c0,0.8-0.3,1.1-1.1,1.1c-2.5,0-2.5,0-2.5-2.5c0-5.6,0.1-11.3-0.1-16.9
			c0-0.7,0.1-0.9,0.8-0.9c2.3,0,2.3,0,2.4,2.3C99.9,15.6,99.9,15.8,99.9,16.3z"/>
		<path fill="#3470B4" d="M194.7,29.6c1.1-5.7,2.9-10.9,4.3-16.4c0.2-0.6,0.5-0.7,1-0.7c0.7,0.1,1.3,0.1,2,0
			c0.8-0.1,0.9,0.2,0.7,0.9c-1.5,4.6-3,9.3-4.5,13.8c-0.6,1.8-1.1,3.5-1.7,5.2c-0.2,0.6-0.4,0.7-0.9,0.7c-2.6,0.1-2.7,0.1-3.5-2.4
			c-1.4-4.6-3.1-9-4.1-13.7c0-0.1-0.1-0.2-0.3-0.4c-0.8,3.7-2.1,7.2-3.3,10.7c-0.6,1.7-1.1,3.3-1.7,5c-0.2,0.6-0.4,0.8-1,0.8
			c-2.6,0-2.6,0-3.4-2.5c-1.7-5.7-3.5-11.4-5.2-17.1c-0.3-0.8-0.3-1.1,0.7-1.1c2.7,0.1,2.7,0,3.5,2.7c1.2,4.8,2.5,9.4,3.6,14.2
			c0.4-0.2,0.3-0.6,0.4-0.8c1.4-5.2,3.2-10.4,4.8-15.5c0.1-0.5,0.4-0.7,0.8-0.6c0.1,0,0.1,0,0.2,0c2.3,0,2.3,0,3,2.2
			c1.5,4.8,3.1,9.5,4.2,14.4C194.5,29.3,194.6,29.4,194.7,29.6z"/>
		<path fill="#326FB3" d="M69.5,19.2c0,4.4,0,8.8,0,13.2c0,0.7-0.2,0.9-0.9,0.9c-2.7,0-2.7,0-2.7-2.7c0-3.3,0-6.5,0-9.7
			c0-0.7-0.2-0.8-0.8-0.8c-3.9,0-8,0-11.9,0c-0.7,0-0.9,0.2-0.9,0.9c0,3.7,0,7.5,0,11.3c0,0.8-0.2,1-1,1c-2.6,0-2.6,0-2.6-2.6
			c0-8.2,0-16.5,0-24.7c0-0.8,0.2-1,1-1c2.6,0,2.6,0,2.6,2.6c0,2.8,0,5.6,0,8.3c0,0.7,0.2,0.9,0.9,0.9c3.9,0,7.9,0,11.8,0
			c0.8,0,0.9-0.3,0.9-1c0-3.3,0-6.6,0-9.9c0-0.7,0.2-0.9,0.9-0.9c2.7,0,2.7,0,2.7,2.7C69.5,11.5,69.5,15.3,69.5,19.2z"/>
		<path fill="#326FB3" d="M171.1,33.3c-2,0-2,0-2.5-1.8c-0.7-2.2-1.5-4.3-2.2-6.5c-0.2-0.7-0.6-0.8-1.2-0.8c-2.7,0-5.5,0.1-8.2,0
			c-0.8,0-1.1,0.3-1.4,1c-0.7,2.4-1.6,4.9-2.3,7.2c-0.2,0.7-0.5,0.9-1.1,0.8c-0.9-0.1-2.2,0.5-2.7-0.3c-0.3-0.5,0.5-1.7,0.7-2.6
			c2.8-8.3,5.6-16.6,8.4-25c0.3-0.8,0.7-1.1,1.5-1c1.1,0.1,2.4-0.4,3.3,0.2c0.8,0.6,0.8,2,1.2,3c2.8,8,5.5,16.2,8.3,24.2
			c0.5,1.3,0.5,1.3-0.9,1.3C171.5,33.3,171.3,33.3,171.1,33.3z M160.9,8c-1.1,4.3-2.6,8.3-4,12.4c-0.3,0.7-0.1,0.8,0.7,0.8
			c2.2,0,4.5,0,6.8,0c0.8,0,0.9-0.3,0.7-0.9c-0.4-0.9-0.7-1.9-0.9-2.8C163,14.4,161.9,11.3,160.9,8z"/>
		<path fill="#3470B4" d="M140.1,23.6c-2.2,0-4.3,0-6.5,0c-0.7,0-0.8,0.2-0.7,0.9c0.5,4,2.9,6.2,6.8,6.3c1.8,0,3.5-0.1,5.1-0.7
			c0.7-0.3,0.8-0.1,0.9,0.6c0.4,2.2,1,1.9-1.5,2.5c-2.3,0.7-4.8,0.8-7.2,0.5c-4.1-0.7-7.1-3.8-7.7-8c-0.6-3.6,0-7,2.2-10
			c2.5-3.3,7.2-4.4,10.9-2.7c2.6,1.2,3.8,3.5,4.5,6.2c0.3,1.2,0.3,2.5,0.3,3.8c0,0.6-0.3,0.7-0.8,0.7
			C144.5,23.6,142.3,23.6,140.1,23.6z M138.3,20.9c1.6,0,3.2,0,4.8,0c0.3,0,0.7,0.1,0.7-0.5c0.3-2.2-1.6-4.9-3.7-5.4
			c-3.9-0.9-6.5,1.8-7.1,5.3c-0.1,0.6,0.2,0.6,0.7,0.6C135.2,20.9,136.7,20.9,138.3,20.9z"/>
		<path fill="#3470B4" d="M93,22.9c0,5.6-2.9,9.4-7.8,10.6c-6,1.4-11.3-2.5-11.9-8.5c-0.4-3.7,0.3-7.3,3.2-9.9c2.9-2.6,6.4-3.1,10-2
			c3.6,1.1,5.4,3.8,6.2,7.4C93,21.3,93.1,22.2,93,22.9z M89.3,23.1c0-1.9-0.4-3.6-1.3-5.1c-2.2-3.5-7-3.6-9.4-0.4
			c-2.2,3-2.2,8,0,10.9c2.3,3.2,6.7,3.2,9.1,0C88.8,26.9,89.3,25.1,89.3,23.1z"/>
		<path fill="#3470B4" d="M216.7,30.6c-1.5,1.9-3.3,2.8-5.4,3.1c-3,0.4-5.8-1-6.8-3.6c-1.1-2.8-0.2-5.9,2.2-7.7
			c2.1-1.4,4.4-2,6.7-2.2c0.6-0.1,1.1-0.1,1.7-0.1c1.3-0.1,1.3-0.1,1.2-1.4c-0.3-2.2-1.6-3.5-3.7-3.6c-2-0.2-3.8,0.1-5.5,1
			c-0.6,0.3-0.7,0.3-1-0.4c-0.7-1.9-0.7-1.9,1.1-2.5c2.4-0.9,5-1.3,7.6-0.7c3.4,0.8,5.2,3.4,5.3,7.3c0.1,2.7,0,5.5,0,8.2
			c0,1.5,0,3.1,0.3,4.6c0.1,0.7-0.1,0.7-0.7,0.7C217,33.4,217,33.4,216.7,30.6z M216.5,25.1c0-2.4,0-2.4-2.2-2.3c-0.1,0-0.1,0-0.2,0
			c-1.8,0.2-3.6,0.5-5,1.6c-1.3,1.1-1.6,2.5-1.2,4c0.3,1.3,1.1,2.1,2.3,2.3c2.5,0.7,5.2-0.9,6.1-3.4
			C216.6,26.6,216.5,25.7,216.5,25.1z"/>
		<path fill="#3470B4" d="M232.1,29.1c1.6-5.4,3.5-10.5,5.1-15.6c0.3-0.7,0.6-1.1,1.4-1c0.7,0.1,1.3,0.1,2,0
			c0.7-0.1,0.9,0.2,0.7,0.9c-1.7,4.3-3.3,8.5-5,12.8c-1.1,2.9-2.2,5.9-3.7,8.6c-1.2,2.2-2.8,4.3-5.1,5.8c-0.7,0.5-1.4,0.8-2.2,1.1
			c-1.2,0.5-1.2,0.5-1.6-0.8c-0.6-1.9-0.6-1.9,1.1-2.8c2-1.1,3.5-2.8,4.5-4.8c0.5-0.9,0.5-1.7,0.1-2.7c-2.4-5.7-4.7-11.4-7.1-17.1
			c-0.4-0.8-0.4-1.1,0.7-1.1c3,0,3,0,4,2.8C228.8,19.8,230.7,24.2,232.1,29.1z"/>
	</g>
	<path fill="#3470B4" d="M19.8,18.7c-0.1,1.8-0.6,3.5-1.9,4.8c-1.9,2-4.7,2.1-6.6,0.3c-2.8-2.5-3.2-7.4-0.7-10.3
		c2.1-2.3,5.3-2.2,7.4,0.1C19.3,15.1,19.8,16.7,19.8,18.7z M18.7,18.4c-0.1-1.6-0.6-3.3-2-4.5c-1.6-1.4-3.8-1.3-5.2,0.3
		c-2.2,2.3-2,6.5,0.4,8.7c1.7,1.5,3.9,1.4,5.4-0.3C18.3,21.5,18.7,20.1,18.7,18.4z"/>
	<path fill="#3470B4" d="M13.6,14.6c-1.6,3.3-1.4,5.6,0.7,8c-1.7-0.2-2.9-1.9-3-4.1C11.3,16.5,12.2,14.9,13.6,14.6z"/>
</g>
</svg>
