<?xml version="1.0" encoding="utf-8"?>
<!-- Generator: Adobe Illustrator 23.0.3, SVG Export Plug-In . SVG Version: 6.00 Build 0)  -->
<svg version="1.2" baseProfile="tiny" id="Layer_1" xmlns="http://www.w3.org/2000/svg" xmlns:xlink="http://www.w3.org/1999/xlink"
	 x="0px" y="0px" viewBox="0 0 128.9 42" xml:space="preserve">
<g>
	<path d="M7.2,41.6c-0.1,0-0.2,0.1-0.3,0.1c-2.1,0-4.3,0-6.4,0c-0.1,0-0.1-0.1-0.3-0.2c0.2-0.1,0.4-0.2,0.6-0.2
		c0.9-0.2,1.1-0.4,1.2-1.3c0.1-0.7,0.1-1.3,0.1-2c0-3.7,0-7.3,0-11c0-0.6,0-1.1-0.1-1.7c-0.1-0.7-0.4-1-1.1-1.1
		c-0.3,0-0.6-0.1-0.8-0.1c0,0,0-0.1-0.1-0.2c0.1,0,0.3-0.1,0.4-0.1c2.5,0,5.1,0,7.6,0c0.7,0,1.4,0.2,2,0.4c2.2,0.6,3.1,2.9,2.6,4.9
		c-0.3,1.4-1.2,2.5-2.3,3.5c-0.1,0.1-0.2,0.2-0.3,0.3c-0.3,0.3-0.4,0.4-0.1,0.8c1.6,1.9,3.2,3.9,4.8,5.8c0.7,0.9,1.6,1.5,2.8,1.6
		c0.2,0,0.4,0.1,0.6,0.1c1.5,0.1,1.9-0.2,2.1-1.7c0.1-0.7,0.1-1.3,0.1-2c0-3.7,0-7.4,0-11.2c0-0.4,0-0.8-0.1-1.2
		c-0.1-0.6-0.5-0.9-1.1-1c-0.3,0-0.6-0.1-0.9-0.1c0.1-0.3,0.3-0.3,0.5-0.3c0.6,0,1.2,0,1.7,0c2.3,0,4.7,0,7,0c0.6,0,1.1-0.1,1.7-0.2
		c0.2,0.6-0.1,2.9-0.4,3.4c-0.1-0.3-0.1-0.5-0.2-0.7c-0.1-0.7-0.5-1.1-1.1-1.1C26.3,25.1,25.2,25,24,25c-0.5,0-0.6,0.1-0.7,0.7
		c0,1.8,0,3.5,0,5.3c0,0.5,0.1,0.6,0.7,0.6c1.1,0,2.3,0,3.4-0.1c0.5,0,1-0.3,1.6-0.5c0,1.2-0.3,2.4-0.2,3.6c-0.1,0-0.2,0-0.3,0
		c0-0.2-0.1-0.4-0.1-0.6c-0.2-0.9-0.5-1.2-1.5-1.3c-0.9-0.1-1.8-0.1-2.7-0.1c-0.7,0-0.9,0.1-0.9,0.8c0,1.7,0,3.4,0,5.1
		c0,1.3,0.5,1.8,1.8,1.9c0.8,0,1.5,0,2.3,0c1,0,1.9-0.5,2-1.6c0-0.3,0.1-0.3,0.5-0.7c0,0.3,0.1,0.6,0,0.8c-0.1,0.6-0.2,1.3-0.3,1.9
		c-0.1,0.6-0.3,0.8-0.9,0.8c-1.6,0-3.3,0-4.9,0c-1.4,0-2.7,0-4.1,0c-1.6,0-3.1,0-4.7,0c-1.2,0-2.2-0.4-3-1.3c-0.8-1-1.6-2-2.4-3
		c-0.6-0.8-1.2-1.6-1.7-2.4c-0.3-0.4-0.7-0.6-1.2-0.6c-0.4,0-0.9,0-1.3,0c-0.5,0-0.6,0.1-0.6,0.6c0,1.6,0.1,3.2,0.1,4.8
		c0,0.2,0.1,0.4,0.1,0.6c0.1,0.5,0.4,0.8,1,0.9c0.4,0.1,0.7,0.1,1.1,0.2C7.2,41.4,7.2,41.5,7.2,41.6z M4.9,28.9
		C4.9,28.9,4.9,28.9,4.9,28.9c0,1.1,0,2.2,0,3.2c0,0.7,0.2,0.9,0.9,1c0.4,0.1,0.9,0.1,1.4,0.1c1.3,0,2.1-0.6,2.6-1.8
		c0.4-1.1,0.5-2.3,0.3-3.5c-0.3-1.4-1-2.4-2.4-2.9c-0.6-0.2-1.2-0.2-1.8-0.2c-0.6,0-0.8,0.2-0.8,0.8C4.9,26.8,4.9,27.8,4.9,28.9z"/>
	<path d="M81.4,38.3c0,0.1,0.1,0.3,0.1,0.4c-0.1,0.7-0.1,1.4-0.2,2.1c-0.1,0.8-0.3,0.9-1.1,0.9c-1.2,0-2.4,0-3.5,0
		c-3,0-6.1-0.1-9.1,0c-2,0-3.5-0.6-4.7-2.2c-1-1.4-2-2.7-3-4.1c-0.9-1.2-0.6-1.2-2.3-1.2c-1.2,0-1.2,0-1.2,1.1c0,1.5,0.1,3,0.2,4.5
		c0.1,1,0.3,1.2,1.3,1.3c0.2,0,0.4,0.1,0.6,0.1c0,0,0.1,0.1,0.2,0.2c-0.2,0.1-0.3,0.1-0.4,0.1c-0.6,0-1.2,0-1.8,0
		c-1.3,0-2.6,0-3.9,0c-0.2,0-0.5,0-0.7-0.1c0-0.1,0-0.1,0-0.2c0.2,0,0.4-0.1,0.6-0.1c0.8-0.2,1-0.3,1.1-1.1c0.1-0.9,0.2-1.8,0.2-2.7
		c0-3.5,0-6.9,0-10.4c0-0.6,0-1.2-0.1-1.7c-0.1-0.7-0.4-1-1.1-1.1c-0.3-0.1-0.6-0.1-0.9-0.1c0-0.1,0-0.1,0-0.2
		c0.2,0,0.3-0.1,0.5-0.1c0.6,0,1.3,0,1.9,0c1.2,0,2.4,0,3.7,0c1.3,0,2.6,0,3.9,0.4c1.7,0.6,2.7,2,2.7,3.8c0,1.2-0.3,2.2-1,3.2
		c-0.5,0.6-1,1.1-1.6,1.7c-0.4,0.4-0.5,0.5-0.1,1c1.6,1.9,3.2,3.9,4.8,5.8c1,1.1,2.2,1.8,3.8,1.7c0.1,0,0.2,0,0.4,0
		c0.8-0.1,1-0.3,1.2-1.1c0.1-0.3,0.1-0.7,0.1-1c0-4.5,0-8.9,0-13.4c0-0.2,0-0.3,0-0.5c-0.1-0.7-0.4-1-1.1-1.1
		c-0.3-0.1-0.6-0.1-1.1-0.2c0.2-0.1,0.3-0.3,0.4-0.3c0.5,0,1.1,0,1.6,0c2.5,0,4.9,0,7.4,0c0.5,0,1-0.1,1.7-0.2c0,0.5,0,0.8-0.1,1.2
		c0,0.4,0,0.7-0.1,1.1c0,0.4,0,0.8-0.4,1.1c-0.1-0.3-0.1-0.4-0.1-0.6c-0.1-0.8-0.4-1.2-1.2-1.3C77.9,25,76.8,25,75.7,25
		c-0.6,0-0.7,0.2-0.7,0.8c0,0.8,0,1.6,0,2.4c0,0.9,0,1.7,0,2.6c0,0.6,0.1,0.8,0.8,0.8c1,0,2.1,0,3.1-0.1c0.5,0,1.1-0.3,1.7-0.5
		c0.1,0.6,0,1.2-0.1,1.8c-0.1,0.6,0,1.2-0.2,1.8c-0.1,0-0.1,0-0.2,0c0-0.2-0.1-0.4-0.1-0.7c-0.1-0.7-0.5-1.1-1.1-1.1
		c-1.1-0.1-2.1-0.1-3.2-0.1c-0.5,0-0.6,0.2-0.7,0.7c0,1.8-0.1,3.5,0,5.3c0.1,1.5,0.5,1.8,2,1.9c0.7,0,1.4,0,2.2,0
		c1,0,1.6-0.5,1.9-1.4c0.1-0.2,0.2-0.5,0.3-0.7C81.3,38.3,81.4,38.3,81.4,38.3z M56.5,28.9C56.5,28.9,56.5,28.9,56.5,28.9
		c0,1.1,0,2.1,0,3.2c0,0.7,0.2,0.9,0.9,1c0.5,0.1,0.9,0,1.4,0.1c1.1,0.1,1.8-0.5,2.3-1.4c0.6-1.2,0.7-2.4,0.5-3.6
		c-0.1-0.8-0.4-1.5-0.9-2.1c-0.9-1-2-1.3-3.2-1.2c-0.8,0.1-0.9,0.1-0.9,0.9C56.5,26.8,56.5,27.8,56.5,28.9z"/>
	<path d="M93.5,17.7c-0.1,0-0.2,0.1-0.2,0.1c-2.2,0-4.3,0-6.5,0c-0.1,0-0.2-0.1-0.4-0.2c0.3-0.1,0.5-0.1,0.6-0.1
		c0.8-0.1,1-0.3,1.2-1.1c0.1-0.5,0.2-1,0.2-1.4c0-4.2,0-8.5,0-12.7c0-0.2,0-0.5-0.1-0.7c-0.1-0.8-0.5-1.1-1.2-1.2
		c-0.3,0-0.6-0.1-0.8-0.1c0,0,0-0.1,0-0.1C86.4,0.1,86.5,0,86.6,0c0.6,0,1.1,0,1.7,0c1.9,0,3.7,0,5.6,0c1,0,2.1,0.2,3,0.6
		c1.2,0.6,1.8,1.5,2.1,2.8c0.3,1.6-0.1,3-1.1,4.2c-0.4,0.6-1,1-1.5,1.6C96.1,9.5,96,9.6,96.3,10c1.6,2,3.3,4,5,6
		c0.8,0.9,1.8,1.5,3.1,1.6c0.1,0,0.2,0.1,0.4,0.2c-0.3,0.1-0.5,0.1-0.7,0.1c-1,0-1.9,0-2.9,0c-1,0-1.9-0.4-2.6-1.1
		c-0.8-0.9-1.6-1.9-2.4-2.9c-0.7-0.9-1.3-1.8-1.9-2.7c-0.3-0.4-0.6-0.6-1.1-0.6c-0.5,0-0.9,0-1.4,0c-0.4,0-0.6,0.1-0.6,0.6
		c0,1.8,0.1,3.5,0.2,5.3c0,0.8,0.4,1.1,1.2,1.2c0.3,0,0.6,0.1,0.8,0.1C93.5,17.6,93.5,17.7,93.5,17.7z M91.2,5.1
		C91.2,5.1,91.2,5.1,91.2,5.1c0,1.1,0,2.2,0,3.3c0,0.6,0.2,0.8,0.7,0.9c0.5,0.1,1.1,0.1,1.6,0.1c1.1,0,1.8-0.6,2.2-1.5
		c0.6-1.2,0.7-2.4,0.4-3.7c-0.5-2.1-2-3.3-4.2-3.1c-0.7,0.1-0.8,0.2-0.8,0.9C91.2,3,91.2,4.1,91.2,5.1z"/>
	<path d="M38.7,0.1c0.1,0,0.2-0.1,0.2-0.1c1.8,0,3.6,0,5.4,0c0.1,0,0.2,0.1,0.3,0.1c-0.2,0.3-0.4,0.2-0.6,0.2c-0.6,0.1-1,0.4-1.1,1
		c-0.1,0.3-0.1,0.6-0.1,0.9c0,2.6,0,5.3,0,7.9c0,1.4-0.2,2.7-0.7,4c-0.7,1.8-2,3-3.8,3.6c-2.1,0.7-4.3,0.6-6.3-0.2
		c-1.7-0.7-2.7-1.9-3.2-3.6c-0.4-1.2-0.5-2.5-0.5-3.7c0-2.1,0-4.3,0-6.4c0-0.7,0-1.4-0.1-2.1c-0.1-0.9-0.5-1.3-1.4-1.4
		c-0.2,0-0.4,0-0.6-0.1c0,0-0.1-0.1-0.1-0.1c0.1,0,0.1-0.1,0.2-0.1c2.2,0,4.4,0,6.6,0c0.1,0,0.1,0.1,0.3,0.2
		c-0.3,0.1-0.5,0.1-0.7,0.1c-0.7,0.1-1,0.4-1.1,1.2c0,0.2,0,0.3,0,0.5c0,3.1,0,6.1,0,9.2c0,1.1,0.2,2.2,0.6,3.2
		c0.7,1.5,1.8,2.3,3.4,2.5c1.4,0.1,2.6-0.1,3.7-1c0.8-0.6,1.2-1.4,1.4-2.4c0.2-0.7,0.3-1.5,0.3-2.2c0-3,0-5.9,0-8.9
		c0-0.1,0-0.2,0-0.4c0-1.4-0.3-1.7-1.7-1.8c-0.1,0-0.2-0.1-0.3-0.1C38.7,0.2,38.7,0.2,38.7,0.1z"/>
	<path d="M65.4,0.1c0.1,0,0.3-0.1,0.4-0.1c2.2,0,4.4,0,6.7,0.1c-0.2,0.4-0.4,0.3-0.6,0.3c-0.8,0.1-1.1,0.4-1.2,1.3
		c0,0.2,0,0.3,0,0.5c0,3,0,6,0,8.9c0,1.1,0.2,2.1,0.5,3.1c0.7,1.7,2,2.7,3.8,2.8c1,0.1,1.9-0.1,2.8-0.5c1.1-0.6,1.7-1.5,2-2.6
		c0.2-0.8,0.3-1.6,0.3-2.4c0-3,0-6,0-9c0-0.1,0-0.2,0-0.4c-0.1-1.2-0.4-1.6-1.6-1.7c-0.1,0-0.2,0-0.4-0.1c0,0-0.1-0.1-0.1-0.2
		C78.2,0.1,78.3,0,78.5,0c1.8,0,3.5,0,5.3,0c0.1,0,0.2,0.1,0.3,0.2c-0.2,0-0.3,0.1-0.5,0.1c-0.9,0.1-1.1,0.4-1.3,1.2
		c0,0.3-0.1,0.5-0.1,0.8c0,2.4,0,4.7,0,7.1c0,1.3-0.1,2.5-0.3,3.8c-0.5,2.3-1.9,3.9-4.1,4.6c-2.1,0.7-4.3,0.6-6.3-0.2
		c-1.7-0.7-2.7-2-3.2-3.7c-0.4-1.3-0.4-2.6-0.4-3.9c0-2.5,0-5,0-7.6c0-0.3,0-0.6-0.1-0.9c-0.1-0.7-0.4-1-1.1-1.1c-0.2,0-0.3,0-0.5,0
		c-0.2,0-0.3,0-0.5-0.1C65.5,0.2,65.5,0.2,65.4,0.1z"/>
	<path d="M55.7,6.6c0.2-0.2,0.3-0.3,0.4-0.4C57,4.8,57.9,3.4,58.8,2c0.1-0.2,0.2-0.4,0.3-0.6c0.2-0.6,0-0.9-0.6-1
		c-0.2,0-0.3-0.1-0.7-0.1c0.7-0.4,1.3-0.2,1.8-0.2c0.6,0,1.2,0,1.8,0c0.6,0,1.1-0.1,1.7,0.2c-0.1,0.1-0.3,0.1-0.4,0.1
		c-0.7,0.1-1.2,0.4-1.6,1c-1.1,1.5-2.1,3-3.2,4.5c-0.4,0.5-0.7,1.1-1.1,1.6c-0.3,0.4-0.3,0.7,0,1.1c1.5,2.4,3,4.8,4.5,7.3
		c0.6,1,1.4,1.6,2.5,1.7c0.1,0,0.2,0.1,0.3,0.1c0,0,0,0,0,0.1c-0.2,0-0.4,0.1-0.5,0.1c-1.8,0-3.5,0-5.4-0.1c0.5-0.7,0.2-1.2-0.2-1.7
		c-1-1.6-1.9-3.3-2.9-4.9c-0.1-0.2-0.3-0.4-0.5-0.7c-0.2,0.2-0.3,0.4-0.4,0.6c-1,1.7-2,3.3-3.1,5c-0.1,0.2-0.2,0.4-0.3,0.6
		c-0.1,0.5,0,0.7,0.5,0.9c0.2,0.1,0.3,0.1,0.6,0.3c-0.1,0-0.1,0.1-0.2,0.1c-1.7,0-3.4,0-5,0c-0.1,0-0.2-0.1-0.4-0.2
		c0.3-0.1,0.4-0.2,0.6-0.2c0.9-0.1,1.5-0.5,2-1.2c1-1.4,2-2.8,3-4.2c0.6-0.8,1.1-1.7,1.7-2.5c0.3-0.3,0.3-0.6,0-1
		c-1.3-2.2-2.7-4.4-4-6.6c-0.6-0.9-1.3-1.5-2.4-1.6c-0.1,0-0.2-0.1-0.5-0.2C47,0.1,47,0,47.1,0c2,0,4.1,0,6.1,0
		c0.1,0,0.2,0.1,0.4,0.2c-0.3,0.1-0.4,0.2-0.5,0.2c-0.5,0.2-0.7,0.4-0.5,0.9c0,0.1,0.1,0.2,0.1,0.3c0.9,1.5,1.7,3,2.6,4.5
		C55.4,6.3,55.5,6.4,55.7,6.6z"/>
	<path d="M88.7,41.5c0,0-0.1,0.1-0.1,0.1c-1.8,0-3.5,0-5.3,0c-0.1,0-0.2-0.1-0.4-0.2c0.2-0.1,0.4-0.2,0.5-0.2
		c1.2-0.1,1.8-0.7,2.2-1.7c0.5-1.3,1.1-2.7,1.6-4c0.9-2.3,1.8-4.6,2.8-6.9c0.6-1.4,1.2-2.9,1.7-4.3c0.1-0.3,0.2-0.5,0.4-0.8
		c0.2-0.3,0.5-0.3,0.7,0c0.1,0.2,0.2,0.3,0.3,0.5c0.8,2,1.6,4,2.4,6.1c1.2,2.9,2.4,5.8,3.5,8.7c0.2,0.4,0.4,0.7,0.6,1.1
		c0.4,0.8,1.1,1.3,2,1.4c0.1,0,0.3,0.1,0.4,0.1c0,0.1,0,0.1,0,0.2c-0.2,0-0.4,0.1-0.6,0.1c-2.2,0.1-4.6,0-5.1-0.2
		c0.4-0.6,0.1-1.1-0.1-1.7c-0.5-1.2-0.9-2.4-1.4-3.6c-0.2-0.7-0.4-0.7-1.1-0.8c-1.4,0-2.7,0-4.1,0c-0.5,0-0.8,0.2-1,0.7
		c-0.4,1.2-0.9,2.3-1.3,3.5c0,0.1-0.1,0.3-0.1,0.4c-0.2,0.8,0.1,1.1,0.9,1.3c0.1,0,0.3,0,0.4,0.1C88.6,41.4,88.6,41.5,88.7,41.5z
		 M91.9,28.1c-0.2,0.3-0.3,0.4-0.3,0.5c-0.6,1.7-1.3,3.4-1.9,5.1c-0.2,0.5,0,0.6,0.5,0.7c1.1,0,2.2,0,3.2,0c0.6,0,0.7-0.1,0.5-0.7
		c0-0.1-0.1-0.2-0.1-0.3c-0.5-1.4-1-2.7-1.5-4.1C92.2,28.9,92.1,28.6,91.9,28.1z"/>
	<path d="M107,17.6c0.2,0,0.3-0.1,0.5-0.1c0.8-0.1,1.1-0.4,1.2-1.2c0-0.3,0-0.6,0.1-0.9c0-1.2,0-2.5,0-3.7c0-1-0.3-2-0.8-2.9
		c-1.2-2-2.4-4-3.7-6c-0.3-0.5-0.6-0.9-1-1.3c-0.5-0.5-1-0.9-1.7-1.1c-0.1,0-0.2-0.1-0.4-0.2c0.2-0.1,0.4-0.2,0.5-0.2
		c1.8,0,3.7,0,5.5,0c0,0.1,0,0.2,0,0.2c-0.7,0.5-0.7,0.6-0.3,1.3c1,1.9,2.1,3.7,3.1,5.6c0.3,0.5,0.6,0.9,0.9,1.5
		c0.2-0.2,0.4-0.4,0.4-0.6c1-1.9,2.1-3.8,3.1-5.7c0.1-0.2,0.2-0.3,0.2-0.5c0.4-0.9,0.3-1.1-0.6-1.7c0.1-0.1,0.3-0.2,0.4-0.2
		c1.5,0,3,0,4.5,0c0.1,0,0.2,0.1,0.4,0.3c-0.1,0-0.2,0.1-0.3,0.1c-1.2,0.1-2,0.9-2.6,1.8c-0.9,1.3-1.7,2.7-2.6,4.1
		c-0.5,0.8-0.9,1.7-1.4,2.5c-0.5,0.8-0.7,1.6-0.7,2.5c0,1.5,0,3,0.1,4.5c0,0.2,0,0.4,0.1,0.6c0.1,0.6,0.4,0.9,0.9,1
		c0.3,0.1,0.5,0.1,0.8,0.1c0.2,0,0.4,0.1,0.6,0.2c-0.1,0.1-0.2,0.1-0.3,0.1c-0.5,0-1,0-1.4,0c-1.5,0-3,0-4.5,0c-0.3,0-0.6,0-0.9,0
		C107,17.8,107,17.7,107,17.6z"/>
	<path d="M32.9,26.7c0-0.2-0.1-0.4,0-0.6c0.1-0.7,0.3-1.5,0.4-2.2c0.1-0.3,0.3-0.5,0.6-0.4c1.9,0.4,3.8,0.3,5.7,0.3c2,0,3.9,0,5.9,0
		c0.8,0,1.7-0.1,2.5-0.2c0.2,0,0.4,0,0.7,0c0,1.1,0,2.2-0.1,3.3c0,0-0.1,0-0.1,0.1c-0.1-0.1-0.2-0.2-0.3-0.3c-0.1-1-0.9-1.3-1.7-1.4
		c-1.2-0.1-2.4-0.1-3.7-0.2c-0.4,0-0.5,0.2-0.5,0.5c0,0.3,0,0.7,0,1c0,4,0,8,0,12c0,0.5,0.1,1.1,0.1,1.6c0.1,0.6,0.4,1,1,1
		c0.3,0,0.6,0.1,0.9,0.1c0.1,0,0.2,0.1,0.3,0.3c-0.2,0-0.4,0.1-0.6,0.1c-2,0-3.9,0-5.9,0c-0.2,0-0.4,0-0.6-0.1c0-0.1,0-0.1,0-0.2
		c0.1-0.1,0.3-0.1,0.4-0.2c1-0.2,1.1-0.3,1.2-1.3c0.1-0.7,0.1-1.5,0.2-2.2c0-3.9,0-7.9,0-11.8c0-0.9-0.1-0.9-1-0.9
		c-0.8,0-1.5,0.1-2.3,0.1c-0.4,0-0.8,0-1.2,0c-0.8,0-1.4,0.4-1.8,1.1c-0.1,0.2-0.2,0.3-0.3,0.4C33,26.8,32.9,26.7,32.9,26.7z"/>
	<path d="M116,27.1c-0.1-0.2-0.2-0.2-0.2-0.3c-0.1-1-0.7-1.4-1.6-1.6c-0.5-0.1-1-0.1-1.6-0.1c-0.7,0-1.3-0.1-2-0.1
		c-0.6,0-0.7,0.1-0.7,0.7c0,0.5,0,0.9,0,1.4c0,3.2,0,6.3,0,9.5c0,1.1,0.1,2.3,0.2,3.4c0.1,0.9,0.3,1.1,1.2,1.3c0.2,0,0.5,0,0.7,0.1
		c0.1,0,0.2,0.1,0.5,0.2c-0.3,0.1-0.5,0.1-0.6,0.1c-2.2,0-4.4,0-6.7-0.1c0.2-0.4,0.5-0.3,0.7-0.4c0.6-0.1,0.9-0.4,1-1
		c0-0.3,0.1-0.5,0.1-0.8c0-2.2,0.1-4.3,0.1-6.5c0-2.3,0-4.6,0-6.8c0-0.2,0-0.4,0-0.6c0-0.3-0.2-0.5-0.5-0.5c-0.3,0-0.6,0-0.9,0
		c-0.9,0-1.9,0.1-2.8,0.1c-0.9,0-1.6,0.3-2,1.3c-0.1,0.1-0.2,0.2-0.4,0.5c-0.2-0.7,0-1.2,0.1-1.8c0.1-0.5,0.2-1.1,0.4-1.6
		c0.6,0.1,1.2,0.2,1.7,0.2c0.5,0.1,1.1,0.1,1.7,0.1c3.2,0,6.4,0,9.6,0c0.6,0,1.2-0.1,1.8-0.2c0.4,0,0.6,0,0.6,0.4
		c0,0.9,0,1.8-0.1,2.7C116.2,26.8,116.1,26.9,116,27.1z"/>
	<path d="M128,27.4c-0.1-0.4-0.2-0.7-0.3-1c-0.5-1.2-1.3-1.9-2.6-1.9c-0.5,0-1.1,0-1.6,0.1c-1.7,0.5-2.3,2.5-1.1,3.9
		c0.6,0.8,1.4,1.4,2.2,2c1.1,0.9,2.3,1.8,3.2,3c1.3,1.8,1.5,4.2,0.4,6c-0.7,1.2-1.8,1.9-3.2,2.2c-1.5,0.4-3.1,0.3-4.6,0
		c-0.1,0-0.2,0-0.3-0.1c-0.8-0.4-1.1-0.2-1.1-1.5c0-0.8,0.1-1.6,0.1-2.4c0-0.2,0.1-0.4,0.2-0.6c0.1,0,0.1,0,0.2,0
		c0.1,0.1,0.1,0.2,0.2,0.3c0.1,0.3,0.1,0.7,0.2,1.1c0.7,2.2,3.3,3.2,5.3,2c1.2-0.7,1.6-2.2,1.1-3.6c-0.4-0.8-1-1.5-1.6-2.1
		c-1-0.9-2.1-1.7-3.1-2.7c-1.2-1.1-1.9-2.5-1.9-4.1c0-2.1,1.3-3.4,2.8-4c1.2-0.5,2.5-0.5,3.8-0.4c0.5,0.1,1.1,0.1,1.6,0.3
		c0.6,0.1,0.6,0.3,0.6,0.9c0,0.7-0.1,1.4-0.1,2.2C128.3,27,128.4,27.3,128,27.4z"/>
	<path d="M12.7,0c2.2,0,4.4,0,6.6,0c0.1,0,0.3,0.1,0.5,0.1c-0.2,0.3-0.5,0.2-0.7,0.2c-0.9,0.1-1.2,0.3-1.4,1.3
		c0,0.3-0.1,0.6-0.1,0.9c0,3.8,0,7.6,0,11.4c0,0.5,0.1,1,0.2,1.4c0.1,0.8,0.5,1.2,1.3,1.3c1.1,0.1,2.3,0.1,3.4,0
		c0.9,0,1.4-0.5,1.7-1.3c0.1-0.3,0.1-0.6,0.5-0.9c0,0.3,0.1,0.5,0.1,0.7c-0.1,0.7-0.2,1.5-0.3,2.2c-0.1,0.5-0.3,0.6-0.8,0.7
		c-0.9,0-1.8,0-2.7,0c-2.5,0-4.9,0-7.4,0c-0.2,0-0.5,0.1-0.8-0.3c0.3,0,0.5-0.1,0.7-0.1c0.5-0.1,0.9-0.3,1-0.9
		c0.1-0.5,0.2-0.9,0.2-1.4c0-2.4,0-4.9,0-7.3c0-1.8,0-3.6,0-5.5c0-0.2,0-0.4,0-0.6c-0.1-0.9-0.5-1.3-1.3-1.4c-0.2,0-0.4,0-0.7-0.1
		C12.7,0.2,12.7,0.1,12.7,0z"/>
</g>
</svg>
