<?xml version="1.0" encoding="utf-8"?>
<!-- Generator: Adobe Illustrator 25.2.1, SVG Export Plug-In . SVG Version: 6.00 Build 0)  -->
<svg version="1.1" id="Layer_1" xmlns="http://www.w3.org/2000/svg" xmlns:xlink="http://www.w3.org/1999/xlink" x="0px" y="0px"
	 viewBox="0 0 114.9 42" style="enable-background:new 0 0 114.9 42;" xml:space="preserve">
<style type="text/css">
	.st0{fill:#B88A47;}
	.st1{fill:#9C6D34;}
	.st2{fill:#AF8040;}
	.st3{fill:#A6773A;}
</style>
<g>
	<path class="st0" d="M90.2,15.6c-0.9-1-1.5-2.1-2.3-3.1c-0.2-0.2-0.3-0.6-0.6-0.5c-0.3,0.1-0.1,0.5-0.1,0.7c0,8.9,0,17.8,0,26.7
		c0,1.2,0.1,1-1,1c-1.5,0-3,0-4.5,0c-0.6,0-0.8-0.2-0.8-0.8c0-5.8,0-11.6,0-17.4c0-6.7,0-13.4,0-20.1c0-0.6,0.1-0.8,0.7-0.7
		c1.5,0,3,0,4.5,0.1c0,0.1,0,0.3,0.1,0.3c0.2,0,0.2-0.2,0.2-0.3c0.3-0.1,0.7-0.1,0.9,0.2c1.1,1.6,2.3,3.2,3.2,4.9
		c-0.4-0.1-0.5-0.4-0.7-0.7C89,4.6,88.1,3.3,87.2,2c-0.6,0.5-0.7,1.1-0.5,1.8c0.1,0.3,0.5,0.5,0.5,0.9c-0.1,1.8,0.2,3.7-0.1,5.5
		c-0.1,0.4-0.2,0.9,0.3,1.2c0.4,0.2,0.7,0.6,0.9,1C88.9,13.5,89.8,14.4,90.2,15.6z"/>
	<path class="st0" d="M63,25.1c-1.1,0.3-2.2,0.3-3.3,0.3c-3,0-6.1,0-9.1,0c-1.2,0-1.2,0-1.2,1.2c0,4.3,0,8.7,0,13
		c0,0.7-0.2,0.9-0.8,0.9c-1.6,0-3.1,0-4.7,0c-0.5,0-0.7-0.1-0.7-0.6c0-6.4,0-12.7,0-19.1c0-0.7,0.3-0.7,0.8-0.7
		c4.9,0,9.8,0,14.7,0.1c1.1,0,2.2-0.1,3.2-0.3c3.3-0.6,5-2.5,5.2-5.8c0-0.5,0-1.1,0-1.6c-0.3-2.9-1.8-4.5-4.7-5.2
		c-1.1-0.2-2.1-0.4-3.2-0.4c-5,0-10.1,0-15.1,0c-0.8,0-1-0.2-1-1c0.1-1.2,0-2.5,0-3.7c0-0.4,0.1-0.6,0.5-0.6c3.8,0,7.6,0,11.4,0
		c-0.1,0.4-0.4,0.3-0.7,0.3c-1.1,0-2.3,0-3.4,0c-0.2,0-0.4-0.1-0.6,0.2c0.8,0.2,0.8,0.9,0.8,1.5c0,0.5-0.1,1,0.1,1.4
		c0.2,0.5,0.2,0.7-0.2,0.9c-0.2,0.1-0.5,0.3-0.4,0.5c0.1,0.3,0.4,0.1,0.7,0.1c2,0,4,0,6.1,0c1.9,0,3.7,0.1,5.5,0.5
		c0.9,0.2,1.6,0.8,2.4,1c0.1,0.2,0.2,0.5,0.5,0.5c0,0.3,0.2,0.5,0.5,0.6c0.1,0.3,0.3,0.5,0.4,0.8c0.9,2.7,1.1,5.3-0.5,7.8
		c0,0.1,0,0.2,0,0.3c-0.3,0.3-0.5,0.5-0.8,0.8c-2.3,1.3-4.7,1.6-7.3,1.5c-2.1,0-4.2,0-6.3,0c-0.5,0-0.8,0.1-0.6,0.6
		c0.2,0.6,0.1,1.2,0.1,1.8c0,0.4,0,0.8,0.4,1.1c0.3,0.2,0.3,0.4-0.1,0.6c-0.4,0.1-0.8,0.2-1.2,0.6c2.6,0.3,5.1,0.1,7.5,0.2
		c1,0,2,0,3-0.1C61.6,24.9,62.3,24.9,63,25.1z"/>
	<path class="st1" d="M25.5,20.3c0.3,0,0.6,0.1,0.8,0.3c0.1,0.2,0.3,0.2,0.4,0.2c3.7,1.6,6.1,4.1,6.5,8.3c0.4,4.1-1.2,7.3-4.7,9.6
		c-0.6,0.4-1.3,0.8-2,1c-0.1,0-0.2,0.1-0.2,0.1c0,0,0,0,0,0c0,0,0,0,0,0c-0.5,0.2-1,0.5-1.5,0.5c-0.2-0.2-0.3-0.5-0.1-0.5
		c0.9-0.4,0.5-1.3,0.7-2c0.1-0.5-0.4-1.2-0.2-1.5c0.3-0.7-0.2-0.8-0.5-1.1c-0.2-0.2-0.5-0.2-0.6-0.5c0.2-0.2,0.4-0.3,0.6-0.3
		c0,0.1,0,0.3,0.2,0.2c0.3-0.1,0.3-0.3,0.3-0.6c0.2-0.1,0.3-0.2,0.5-0.4c0.1,0.3-0.2,0.5,0,0.8c0.8-0.2,0.7-0.9,0.7-1.4
		c1.4-2.2,1-4.2-0.5-6.1c0-0.4-0.2-0.6-0.6-0.5c-0.1-0.1-0.1-0.1-0.2-0.2c-0.1-0.1-0.1-0.1-0.2-0.2c-0.4-0.3-0.9-0.5-1.3-0.8
		c0.1,0,0.1-0.1,0.2-0.1c0.5-0.1,1.2-0.1,0.6-1c-0.2-0.2,0.1-0.4,0.4-0.4c0.3,0,0.5,0.2,0.8,0.3c0.2,0.1,0.5,0.1,0.4-0.2
		c-0.2-0.5,0-1.1-0.2-1.6C25.2,21.6,25,20.9,25.5,20.3z"/>
	<path class="st0" d="M10.7,7.3c-1.8,1.3-2.5,3-2,5.2c0.3,1.1,1.2,1.8,2,2.5c0,0.2,0,0.4,0,0.6c0.2,0.6-0.6,1.5,0.5,1.9
		c0.1,0,0.1,0.2,0,0.3c-0.5,1-0.9,1.9-1.4,2.9c-3.9-1-6.5-3.4-7.2-6.9C1.7,9.4,3.4,5.6,6.9,3.4c0.9-0.6,1.9-1.2,3-1.4
		c0,0.2,0,0.3,0.2,0.4c0.5,0.2,0.5,0.2,0.1,0.6C9.8,3.3,9.5,4.1,9.9,4.2c0.8,0.2,0.7,0.9,1.1,1.2C11.5,5.7,11.3,5.8,11,6
		c-0.4,0.2-0.7,0.5-1.1,0.7C9.7,6.9,9.7,7.1,9.8,7.3c0.1,0.2,0.3,0.1,0.5,0C10.4,7.3,10.5,7.3,10.7,7.3z"/>
	<path class="st1" d="M65.9,8.5c-0.3,0-0.4-0.3-0.5-0.5c0.2-0.1,0.4-0.2,0.3-0.4c-0.2-0.7,0-1.3-0.2-2c-0.1-0.5-0.2-0.9,0.5-0.5
		c0.4,0.2,0.6-0.1,0.5-0.4C66.5,4.3,66.3,4,65.8,4c-0.2,0-0.4-0.1-0.4-0.4c0-0.3,0.3-0.3,0.5-0.2c0.6,0.3,0.6-0.1,0.6-0.5
		c0.4,0.1,0.7,0.3,1.1,0.4c0.6,0.2,1,0.8,1.6,0.7c0,0,0,0,0,0c0.1,0.2,0.2,0.3,0.4,0.3c0,0,0,0,0,0c0,0.5,0.4,0.5,0.7,0.6
		c0.1,0,0.1,0.1,0.1,0.1c0,0,0,0,0,0c0.1,0,0.1,0,0.1,0.1c0.1,0.8,0.7,1.3,1.1,1.9c0.6,1.1,0.9,2.2,1.3,3.3c0.2,0.5-0.1,1.2,0.4,1.6
		c0,0.2,0,0.4,0,0.7c-0.2,0.5-0.2,1,0,1.4c0,0.1,0,0.2,0,0.3c-0.2,0-0.3,0.2-0.3,0.3c0.2,1.3-0.6,2.4-0.7,3.6c0,0.4-0.2,0.8-0.5,1.1
		c-0.4,0.3-0.4,0.6-0.4,1.1c0,0,0,0.1-0.1,0.1c-0.5,0-0.6,0.3-0.5,0.7c0,0,0,0,0,0c-0.5,0.2-1.1,0.4-1.1,1.1c0,0,0,0,0,0
		c-0.2-0.1-0.3,0-0.4,0.2c0,0.1-0.1,0.1-0.1,0.1c-0.3,0-0.5,0.1-0.5,0.5c0,0-0.1,0.1-0.1,0.1c-0.6,0.2-1.2,0.3-1.8,0.5
		c-0.6-0.9-0.3-1.8-0.2-2.7c0-0.2,0.2-0.6,0-0.7c-0.6-0.3-0.5-0.8-0.2-1.4c-0.4,0.2-0.7,0.2-0.9-0.1c0.3-0.3,0.5-0.5,0.8-0.8
		c0,0.2-0.1,0.5,0.2,0.6c0.1,0,0.2,0,0.2-0.2c0-0.2,0.1-0.5-0.2-0.7c-0.1-0.1-0.2-0.1-0.3-0.1c1.7-2.5,1.4-5.1,0.5-7.8
		c-0.1-0.3-0.3-0.5-0.4-0.8c0-0.2,0-0.3,0.1-0.5c0.1-0.2,0-0.5-0.2-0.6C66,8,66,8.3,65.9,8.5z"/>
	<path class="st2" d="M90.2,15.6c-0.4-1.2-1.3-2.2-1.9-3.2c-0.2-0.4-0.5-0.8-0.9-1c-0.5-0.3-0.4-0.7-0.3-1.2
		c0.3-1.8,0.1-3.7,0.1-5.5c0-0.4-0.4-0.6-0.5-0.9c-0.2-0.7-0.1-1.3,0.5-1.8c0.9,1.3,1.8,2.6,2.7,3.9c0.2,0.3,0.4,0.6,0.7,0.7
		c0,0,0,0,0,0c0.1,0.3-0.4,0.8,0.1,1c0.4,0.1,0.5,0.4,0.8,0.7c0.2,0.3,0.4,0.8,0.9,0.9c0,0,0.1,0.1,0.1,0.1c0,0.6,0.4,1.1,0.7,1.5
		c0.6,0.6,0.8,1.6,1.7,2c0,0,0.1,0.1,0.1,0.1c0,0.3-0.1,0.6,0.2,0.8c0.6,0.6,1,1.4,1.5,2.1c0.8,1.1,1.5,2.2,2.2,3.3
		c-0.4,0.4-0.9,0.3-1.4,0c-0.1,0.8,0.8,1.1,0.7,1.7c-0.1,0.6-0.1,1.3-0.1,1.9c0,0,0,0.1,0,0.1c0.5,0.5,0.6,1-0.1,1.5
		c-0.2,0.1,0.1,0.4,0,0.5c-0.1,0.4,0.5,0.9-0.1,1.2c-0.3,0-0.3-0.3-0.4-0.4c-0.6-0.7-0.9-1.6-1.7-2c0,0,0,0,0,0
		c-0.3-0.6-0.3-1.3-1.1-1.6c0,0-0.1-0.1-0.1-0.1c0-0.3,0-0.5-0.2-0.7c-0.6-0.7-1.1-1.5-1.6-2.3c-0.4-0.6-0.5-1.5-1.4-1.6
		c0,0-0.1-0.1-0.1-0.1c0-0.3-0.1-0.4-0.3-0.5c0,0,0,0,0,0C90.9,16.1,90.6,15.8,90.2,15.6L90.2,15.6z"/>
	<path class="st1" d="M105.3,37.7c-0.1-0.1-0.1-0.2-0.2-0.3c0-0.1-0.1-0.1-0.1-0.2c-0.1-0.2-0.2-0.3-0.3-0.5c0-0.3,0-0.6-0.5-0.7
		c-0.1-0.1-0.1-0.2-0.2-0.3c-0.1-0.4,0-1.2-0.2-1.3c-0.8-0.3-0.6-0.9-0.6-1.4c0-0.3-0.2-0.7,0.2-0.8c0.4-0.1,0.3,0.5,0.5,0.6
		c0,0,0.1,0,0.2,0c0.1-0.4,0.1-0.8-0.1-1.2c-0.1-0.2-0.3-0.6-0.1-0.8c0.3-0.5,0.6-0.9,0-1.3c-0.1-0.1,0-0.4,0.1-0.6
		c0.5-0.6,0.5-0.8-0.3-1c-0.2-0.1-0.6-0.2-0.5-0.4c0.4-0.5,0.1-1,0.3-1.4c0.1,0,0.2,0,0.4,0c0,0.1,0.1,0.1,0.1,0.2c0,0,0,0,0,0
		c0.1,0.1,0.1,0.2,0.2,0.3c-0.1,0.5,0.1,0.8,0.6,0.9c2.9,4.2,5.8,8.4,8.7,12.6c0.1,0.1,0.1,0.2,0.2,0.4c-2.1,0-4.2,0-6.2,0
		c-0.3,0-0.4-0.1-0.5-0.3c-0.4-0.7-0.8-1.3-1.3-2C105.7,37.9,105.7,37.7,105.3,37.7z"/>
	<path class="st1" d="M25,9.6C25,9.6,24.9,9.5,25,9.6c-0.1-0.8-0.4-1.3-1-1.6c0.1,0,0.2,0,0.2-0.1c0.6-1.2,0.7-2.4-0.2-3.5
		c-0.2-0.2-0.3-0.5-0.2-0.7c0.2-0.3,0.4-0.1,0.6,0c0.4,0.2,0.4-0.1,0.3-0.3c-0.1-0.4-0.2-0.7-0.6-0.8c-0.7-0.1-0.5-0.4-0.1-0.7
		c0.7,0.2,1.4,0.4,1.9,0.9c0,0,0.1,0.1,0.1,0.1c0.1,0.1,0.2,0.1,0.4,0.2c0.2,0.3,0.5,0.5,0.9,0.4c0,0,0.1,0,0.1,0.1
		c0.1,0.4,0.2,0.7,0.7,0.5c0,0,0,0,0,0c0,0.1,0,0.2,0.1,0.1c0,0,0.1,0,0.1,0.1c0.5,0.9,1.1,1.7,2,2.3c0,0,0,0,0,0
		c0,0.3,0.1,0.5,0.2,0.8c0.3,0.6,0.7,1.2,0.8,1.8c0.3,0.9,0.5,1.9,0.7,2.9c0.2,0.8,0,1-0.9,1c-1.6,0-3.3,0-4.9,0
		c0-0.1,0-0.2-0.1-0.3c0.1-0.6-0.1-1.1-0.5-1.5c0-0.1-0.1-0.2-0.1-0.2c0,0,0,0,0,0c0-0.1-0.1-0.3-0.1-0.4C25.7,10,25.5,9.7,25,9.6z"
		/>
	<path class="st3" d="M103.6,26.1c-0.2,0.4,0.1,1-0.3,1.4c-0.1,0.2,0.2,0.3,0.5,0.4c0.8,0.2,0.8,0.4,0.3,1c-0.1,0.2-0.3,0.5-0.1,0.6
		c0.6,0.5,0.3,0.9,0,1.3c-0.1,0.2,0,0.5,0.1,0.8c0.2,0.4,0.2,0.8,0.1,1.2c-0.1,0-0.2,0-0.2,0c-0.2-0.1-0.1-0.7-0.5-0.6
		c-0.4,0.1-0.2,0.5-0.2,0.8c0,0.5-0.3,1.1,0.6,1.4c0.2,0.1,0.2,0.8,0.2,1.3c-1.4-1.8-2.6-3.8-4-5.7c-0.6-0.9-1.2-1.7-1.7-2.6
		c0-0.2-0.1-0.3-0.3-0.4c0,0,0,0,0,0c0-0.4-0.2-0.8-0.3-1.1c0.6-0.3,0-0.8,0.1-1.2c0.1-0.2-0.2-0.4,0-0.5c0.7-0.5,0.6-1,0.1-1.5
		c0,0,0-0.1,0-0.1c0-0.6,0-1.3,0.1-1.9c0.1-0.6-0.8-0.9-0.7-1.7c0.5,0.3,0.9,0.4,1.4,0c0.1,0,0.2,0,0.4,0c0,0,0,0,0,0
		c0.5,1.4,1.3,2.6,2.4,3.6c0,0,0,0,0,0c0.1,0.2,0.2,0.4,0.3,0.6C102.2,24.3,103.1,25.1,103.6,26.1z M103,27
		c-0.1-0.1-0.2-0.3-0.4-0.3c-0.1,0-0.2,0.1-0.2,0.2c0,0.2,0.1,0.3,0.4,0.4C102.9,27.3,103,27.2,103,27z"/>
	<path class="st2" d="M20.1,41.1c-2.3,0.3-4.7,0.2-7-0.2c-1.6-0.3-3.2-0.7-4.6-1.4c-0.5-0.2-0.6-0.3-0.1-0.7
		c1.4-1.1,2.7-2.2,4.1-3.3c0.2-0.2,0.4-0.3,0.7-0.2c1.9,0.5,3.8,0.6,5.7,0.6c-0.2,0.5-0.6,0.2-1,0.3c-0.4,0.1-0.9,0-0.4,0.6
		c0.4,0.4,0.2,1,0.2,1.5c-0.1,0.5,0,0.9,0.2,1.3c0.4,0.6,0.2,0.9-0.5,0.9c-0.3,0-0.6,0.1-0.6,0.4c0,0.4,0.4,0.2,0.6,0.3
		C18.3,41,19.2,40.8,20.1,41.1z"/>
	<path class="st3" d="M66.5,2.9c0,0.4,0,0.8-0.6,0.5c-0.2-0.1-0.5-0.1-0.5,0.2c0,0.3,0.2,0.4,0.4,0.4c0.5-0.1,0.6,0.3,0.7,0.6
		C66.6,5,66.4,5.3,66,5.1c-0.7-0.4-0.6,0-0.5,0.5c0.2,0.6,0,1.3,0.2,2c0.1,0.2-0.1,0.3-0.3,0.4c-0.9-0.1-1.6-0.8-2.4-1
		c-1.8-0.4-3.6-0.5-5.5-0.5c0.3-0.7,0.3-1.5,0.3-2.2c0.1-1-0.3-1.8-0.3-2.8c0.9,0,1.8,0,2.8,0c0.7,0.5,1.5,0.3,2.3,0.1
		c0.2,0,0.5,0,0.7,0.1c0.5,0.3,1.1,0.3,1.6,0.5C65.3,2.5,66,2.5,66.5,2.9z"/>
	<path class="st3" d="M25.5,20.3c-0.5,0.6-0.2,1.3,0,1.9c0.2,0.5,0.1,1.1,0.2,1.6c0.1,0.3-0.2,0.3-0.4,0.2c-0.3-0.1-0.5-0.3-0.8-0.3
		c-0.3,0-0.5,0.2-0.4,0.4c0.6,0.8,0,0.8-0.6,1c-0.1,0-0.1,0.1-0.2,0.1c-1.1-0.4-2.2-0.8-3.3-1.2c-0.1,0-0.2-0.1-0.3-0.1
		c-0.7-0.1-1.4-0.3-2-0.6c0-0.6,0.1-1.3-0.6-1.7c-0.4-0.2-0.2-0.5,0.2-0.6c0.5-0.1,0.6-0.3,0.3-0.7c-0.2-0.3-0.2-0.6-0.1-0.9
		c0.2-0.6,0.1-1.2,0-1.7c0.1,0,0.2,0,0.3,0.1c0,0.2,0.1,0.4,0.3,0.1c0.1,0,0.1,0,0.2,0c0.1,0,0.1,0.1,0.2,0.1c0.1,0,0.2,0,0.3,0.1
		c0.1,0.2,0.3,0.1,0.4,0.1c0,0,0,0,0,0c0.1,0.1,0.2,0.1,0.4,0.1C21.7,18.9,23.6,19.5,25.5,20.3z"/>
	<path class="st3" d="M65.4,18.8c0.1,0.4,0.4,0.3,0.9,0.1c-0.3,0.6-0.4,1.1,0.2,1.4c0.2,0.1,0,0.4,0,0.7c0,0.9-0.3,1.9,0.2,2.7
		c-0.4,0.5-1.1,0.4-1.5,0.9c0,0,0,0,0,0c-0.1,0-0.2,0-0.3,0.1c-0.1,0-0.2,0.1-0.4,0.1c-0.5-0.2-0.9-0.2-1.3,0.2
		c-0.1,0-0.2,0-0.3,0.1c-0.7-0.2-1.4-0.2-2.1-0.1c-1,0.2-2,0.1-3,0.1c-0.2-0.7,1-0.6,0.7-1.1c-0.2-0.5-0.5-0.9-0.4-1.4
		c0-0.8,0-1.6-0.1-2.3C60.6,20.4,63.1,20.1,65.4,18.8z"/>
	<path class="st2" d="M17.7,17.7c0.1,0.6,0.2,1.1,0,1.7c-0.1,0.3-0.1,0.6,0.1,0.9c0.3,0.4,0.2,0.6-0.3,0.7c-0.4,0.1-0.6,0.3-0.2,0.6
		c0.7,0.5,0.6,1.1,0.6,1.7c-0.3-0.1-0.5,0-0.7-0.2c0,0,0.1-0.1,0.1-0.1c0,0,0,0,0-0.1c0,0,0,0,0,0.1c0,0-0.1,0.1-0.1,0.1
		c-0.1,0-0.1,0-0.2,0c0-0.1,0-0.3-0.1-0.3c-0.2-0.1-0.3,0.1-0.4,0.2c-0.8-0.2-1.7-0.4-2.4-0.8c-0.1,0-0.2-0.1-0.2-0.1
		c-0.8-0.1-1.5-0.4-2.2-0.7c-0.1-0.1-0.2-0.1-0.3-0.1c-0.5-0.1-0.9-0.2-1.3-0.5c0.5-1,0.9-1.9,1.4-2.9c0-0.1,0.1-0.2,0-0.3
		c-1.1-0.4-0.3-1.3-0.5-1.9c0-0.2,0-0.4,0-0.6c0.2,0.1,0.3,0.2,0.5,0.3c0.1,0,0.1,0.1,0.2,0.1c0.1,0.1,0.2,0.1,0.4,0.2c0,0,0,0,0,0
		c0,0,0.1,0,0.1,0c0.1,0,0.2,0.1,0.3,0.1C14,16.4,15.8,17,17.7,17.7z"/>
	<path class="st3" d="M20.1,41.1c-0.9-0.3-1.8-0.1-2.7-0.1c-0.2,0-0.6,0.2-0.6-0.3c0-0.3,0.4-0.4,0.6-0.4c0.7,0,0.8-0.3,0.5-0.9
		c-0.2-0.4-0.3-0.8-0.2-1.3c0.1-0.5,0.2-1-0.2-1.5c-0.5-0.6,0-0.5,0.4-0.6c0.3,0,0.8,0.2,1-0.3c0.2,0,0.4,0,0.5,0
		c0.2-0.1,0.6,0.4,0.8-0.1c0.1,0,0.2,0,0.3,0c0.1,0.1,0.1,0.1,0.2,0c0.3-0.1,0.7-0.1,1-0.2c0,0,0,0,0,0c0.1,0,0.3-0.1,0.4-0.1
		c0.1,0.1,0.1,0,0.2,0c0,0,0,0,0,0c0.2,0,0.3,0,0.4-0.1c0.4-0.2,0.9-0.3,1.3-0.5c0.1,0.3,0.4,0.3,0.6,0.5c0.3,0.3,0.8,0.4,0.5,1.1
		c-0.2,0.4,0.3,1,0.2,1.5c-0.2,0.7,0.2,1.5-0.7,2c-0.2,0.1-0.1,0.4,0.1,0.5c-0.2,0.2-0.5,0.2-0.7,0.2c-0.1,0-0.2,0.1-0.3,0.1
		c-0.1,0-0.1,0-0.2,0c0,0-0.1,0-0.1,0c-0.1,0-0.3,0.1-0.4,0.1c-0.1-0.1-0.1-0.1-0.1,0c-0.4,0.1-0.8,0.2-1.2,0.2
		c-0.2,0.1-0.5-0.4-0.6,0.1c-0.1,0-0.2,0-0.3,0c-0.1-0.1-0.1-0.1-0.2,0C20.4,41.1,20.3,41.1,20.1,41.1z"/>
	<path class="st3" d="M24,1.8c-0.4,0.3-0.6,0.6,0.1,0.7c0.5,0.1,0.6,0.5,0.6,0.8c0,0.2,0.1,0.5-0.3,0.3c-0.2-0.1-0.4-0.4-0.6,0
		c-0.1,0.2,0,0.5,0.2,0.7c0.9,1.1,0.8,2.3,0.2,3.5c0,0-0.1,0.1-0.2,0.1c-0.6-0.3-1.1-1.1-1.9-1c0,0,0,0,0,0
		c-0.1-0.4-0.4-0.4-0.7-0.5c-1.8-0.5-3.6-0.7-5.5-0.6c0-0.5,0.4-0.5,0.8-0.5c0.3,0,0.7,0,0.6-0.4c-0.2-0.7,0.2-1.5-0.2-2
		c-0.6-0.9,0-1,0.5-1.2c0,0,0.1-0.1,0.1-0.2c-0.4-0.2-0.7-0.1-1.1-0.1c-0.2,0-0.4,0-0.4-0.2C16.3,1,16.5,1,16.7,1
		c0.4-0.1,0.8,0.2,1.2-0.2c0.1,0,0.2,0,0.3,0c0.1,0.2,0.2,0.2,0.3,0c0.3,0,0.7,0,1,0c0,0.1,0.1,0.1,0.1,0c0.3-0.1,0.6,0,0.9,0.1
		c0,0,0,0,0,0c0.7,0,1.3,0.2,2,0.3c0.1,0,0.2,0.1,0.2,0.1C23.2,1.5,23.7,1.5,24,1.8z"/>
	<path class="st2" d="M17.8,0.8c-0.3,0.3-0.8,0.1-1.2,0.2c-0.2,0-0.4,0-0.4,0.3c0,0.3,0.3,0.2,0.4,0.2c0.3,0,0.7-0.1,1.1,0.1
		c0,0.1,0,0.2-0.1,0.2C17.1,2,16.5,2.1,17.1,3c0.3,0.5,0,1.3,0.2,2c0.1,0.4-0.3,0.4-0.6,0.4c-0.4,0-0.7,0-0.8,0.5
		c-0.6,0-1.2,0.1-1.8,0.3c-0.1,0-0.2,0.1-0.3,0.1c-0.6-0.4-1.1-0.1-1.5,0.3l0,0c0,0,0,0,0,0c-0.4-0.1-0.9-0.3-1.1,0.4
		c0,0-0.1,0.1-0.1,0.1c-0.1,0-0.1,0-0.2,0.1c-0.1,0-0.1,0.1-0.2,0.1c-0.1,0-0.3,0-0.4,0.1c-0.2,0.1-0.4,0.2-0.5,0
		C9.7,7.1,9.7,6.9,9.9,6.7C10.2,6.5,10.6,6.2,11,6c0.4-0.2,0.5-0.4,0.1-0.6c-0.5-0.3-0.4-1-1.1-1.2C9.5,4.1,9.8,3.3,10.1,3
		c0.4-0.4,0.5-0.4-0.1-0.6C9.8,2.3,9.9,2.1,9.9,2C12.4,0.9,15.1,0.6,17.8,0.8z"/>
	<path class="st1" d="M113,16.2c-0.7,0-1.3,0-2,0c0-0.2-0.2-0.2-0.3-0.3c0-0.5,0.2-0.9,0.2-1.4c0-4,0-7.9,0-11.9
		c0-0.3,0.1-0.6-0.2-0.8c0-0.1,0-0.2,0-0.3c0.8,0,1.5,0,2.3,0c0,0.1,0.1,0.1,0.1,0.1c0,2.6,0,5.1,0,7.7c0,2.3,0,4.5,0,6.8
		C113,16.1,113,16.1,113,16.2z"/>
	<path class="st0" d="M110.7,1.5c0,0.1,0,0.2,0,0.3c-0.2,0-0.3,0-0.5,0c-1.1,0-1.1,0-1.1,1.1c0,3.8,0,7.6,0,11.4
		c0,1.6,0,1.6,1.6,1.6c0.2,0,0.3,0.1,0.3,0.3c-1.2,0-2.4,0-3.6,0.1c-0.6,0-0.5-0.4-0.5-0.8c0-4,0-8,0-12.1c0-1.9,0-1.9,1.9-1.9
		C109.5,1.5,110.1,1.5,110.7,1.5z"/>
	<path class="st2" d="M57.4,1.5c0.1,0.9,0.4,1.8,0.3,2.8c-0.1,0.7,0,1.5-0.3,2.2c-2,0-4,0-6.1,0c-0.2,0-0.5,0.1-0.7-0.1
		c-0.1-0.3,0.2-0.4,0.4-0.5c0.4-0.2,0.5-0.4,0.2-0.9c-0.2-0.4-0.1-0.9-0.1-1.4c0-0.7,0-1.3-0.8-1.5c0.1-0.3,0.4-0.2,0.6-0.2
		c1.1,0,2.3,0,3.4,0c0.2,0,0.6,0.1,0.7-0.3C55.9,1.5,56.7,1.5,57.4,1.5z"/>
	<path class="st3" d="M6.5,27.6c0.3-0.3,0.5-0.2,0.7,0.1c0,0.1,0,0.2,0,0.3c0.4,1.3,0.7,2.6,1.4,3.8c0.2,0.3,0.1,0.4-0.1,0.6
		c-0.7,0.5-1.3,1.1-2,1.6c-0.2,0-0.4,0.1-0.4,0.3c-0.1,0.2-0.3,0.3-0.5,0.4c0,0,0-0.1,0-0.1c-0.5-2.3-0.2-4.6-0.3-7
		C5.7,27.6,6.1,27.6,6.5,27.6z"/>
	<path class="st0" d="M6.5,27.6c-0.4,0-0.8,0-1.2,0c-0.2,0-0.4,0-0.6,0c-1-0.2-1.6,0.5-1.6,1.5c0.1,1.4,0,2.8,0,4.3
		c0,0.7,0.3,1.3,0.7,1.8c0.2,0.3,0.4,0.3,0.6,0.1c0.3-0.3,0.6-0.8,1.1-0.7c0,0,0,0.1,0,0.1c-1.9,1.7-1.5,1.8-2.7-0.4
		c-1.1-1.9-1.6-4.1-1.7-6.4c0-0.3-0.1-0.5,0.3-0.5c1.6,0,3.2,0,4.9,0C6.4,27.4,6.5,27.5,6.5,27.6z"/>
	<path class="st0" d="M26.3,13c1.6,0,3.3,0,4.9,0c0.8,0,1-0.2,0.9-1c-0.2-1-0.4-1.9-0.7-2.9c-0.2-0.6-0.5-1.2-0.8-1.8
		c-0.2-0.3-0.3-0.5-0.2-0.8c1.4,1.9,1.8,4.1,2.1,6.4c0,0.2-0.1,0.3-0.3,0.3c-1.9,0-3.8,0-5.7,0C26.4,13.2,26.3,13.1,26.3,13z"/>
	<path class="st0" d="M99,19c-0.1,0-0.2,0-0.4,0c-0.7-1.1-1.4-2.3-2.2-3.3C96,15,95.7,14.2,95,13.6c-0.3-0.2-0.2-0.5-0.2-0.8
		C96.3,14.8,97.7,16.9,99,19z"/>
	<path class="st0" d="M73.3,12c-0.5-0.4-0.2-1.1-0.4-1.6c-0.4-1.1-0.6-2.3-1.3-3.3c-0.4-0.6-1-1.1-1.1-1.9C72.4,7,73.1,9.4,73.3,12z
		"/>
	<path class="st0" d="M14.1,6.2c0.6-0.3,1.2-0.3,1.8-0.3c1.9,0,3.7,0.1,5.5,0.6C21.7,6.6,22,6.6,22.1,7C19.5,6,16.8,6,14.1,6.2z"/>
	<path class="st0" d="M71.4,20.5c-0.1-0.4,0-0.8,0.4-1.1c0.3-0.2,0.5-0.7,0.5-1.1c0.1-1.2,0.9-2.3,0.7-3.6c0-0.2,0.1-0.3,0.3-0.3
		C73.2,16.7,72.8,18.7,71.4,20.5z"/>
	<path class="st0" d="M66.5,2.9c-0.5-0.4-1.2-0.5-1.8-0.6c-0.5-0.2-1.1-0.1-1.6-0.5c2.3,0.2,4.4,0.8,6.2,2.3c-0.7,0-1.1-0.6-1.6-0.7
		C67.3,3.2,66.9,3.1,66.5,2.9z"/>
	<path class="st0" d="M91.3,17.2c0.9,0.2,1,1.1,1.4,1.6c0.5,0.8,1,1.5,1.6,2.3c0.2,0.2,0.2,0.4,0.2,0.7
		C93.3,20.4,92.3,18.8,91.3,17.2z"/>
	<path class="st0" d="M101.4,22.6c-1.1-1-1.9-2.2-2.4-3.6C99.9,20.1,100.8,21.3,101.4,22.6z"/>
	<path class="st0" d="M97.7,26c0.2,0.3,0.4,0.7,0.3,1.1c-0.9-1.1-1.7-2.3-2.4-3.5c0.8,0.4,1.1,1.3,1.7,2C97.4,25.7,97.4,26,97.7,26z
		"/>
	<path class="st0" d="M103.6,26.1c-0.5-1.1-1.4-1.9-1.9-3c-0.1-0.2-0.2-0.4-0.3-0.6c1,1,1.7,2.3,2.5,3.5
		C103.8,26.1,103.7,26.1,103.6,26.1z"/>
	<path class="st0" d="M94.7,12.7c-0.9-0.3-1.1-1.3-1.7-2c-0.3-0.4-0.7-0.9-0.7-1.5C93.3,10.3,94,11.5,94.7,12.7z"/>
	<path class="st0" d="M22.1,7c0.8-0.1,1.3,0.7,1.9,1c0.6,0.3,0.9,0.9,0.9,1.5C24.2,8.5,23.2,7.6,22.1,7z"/>
	<path class="st0" d="M65.2,24.7c0.3-0.5,1.1-0.4,1.5-0.9c0.6-0.2,1.2-0.3,1.8-0.5C67.6,24,66.4,24.4,65.2,24.7z"/>
	<path class="st0" d="M92.3,9.1c-0.5-0.1-0.6-0.5-0.9-0.9c-0.2-0.3-0.4-0.5-0.8-0.7c-0.4-0.1,0-0.6-0.1-1
		C91.3,7.4,91.8,8.2,92.3,9.1z"/>
	<path class="st0" d="M30.3,6.5c-0.9-0.6-1.5-1.4-2-2.3C29.2,4.8,29.8,5.6,30.3,6.5z"/>
	<path class="st0" d="M62.5,1.7c-0.8,0.1-1.5,0.4-2.3-0.1C61,1.4,61.7,1.5,62.5,1.7z"/>
	<path class="st3" d="M26.3,33c0,0.6,0.1,1.2-0.7,1.4c-0.2-0.3,0.1-0.5,0-0.8C25.8,33.4,26.1,33.2,26.3,33z"/>
	<path class="st0" d="M94.5,21.9c0.8,0.3,0.8,1,1.1,1.6C95.1,23.1,94.8,22.5,94.5,21.9z"/>
	<path class="st0" d="M69.7,22.5c0.1-0.7,0.6-0.9,1.1-1.1C70.5,21.8,70.2,22.2,69.7,22.5z"/>
	<path class="st0" d="M12.3,6.6c0.4-0.5,0.9-0.7,1.5-0.3C13.3,6.4,12.8,6.5,12.3,6.6z"/>
	<path class="st0" d="M63.3,25.1c0.4-0.4,0.8-0.5,1.3-0.2C64.2,25,63.7,25.1,63.3,25.1z"/>
	<path class="st0" d="M11.2,7.1c0.1-0.7,0.6-0.5,1.1-0.4C11.9,6.8,11.5,6.9,11.2,7.1z"/>
	<path class="st0" d="M25.8,11.2c0.4,0.4,0.5,1,0.5,1.5C26,12.2,25.8,11.7,25.8,11.2z"/>
	<path class="st0" d="M25,9.6c0.5,0.2,0.7,0.4,0.5,1C25.3,10.2,25.2,9.9,25,9.6z"/>
	<path class="st0" d="M90.2,15.6c0.4,0.2,0.7,0.4,0.7,1C90.5,16.3,90.3,16,90.2,15.6z"/>
	<path class="st0" d="M104.8,27.4c-0.5-0.1-0.7-0.4-0.6-0.9C104.5,26.8,104.7,27.1,104.8,27.4z"/>
	<path class="st0" d="M28.1,4c-0.5,0.1-0.6-0.2-0.7-0.5C27.7,3.5,27.9,3.7,28.1,4z"/>
	<path class="st0" d="M27.3,3.4c-0.4,0-0.7-0.1-0.9-0.4C26.8,2.9,27.1,3.1,27.3,3.4z"/>
	<path class="st0" d="M70.8,21.3c-0.1-0.4,0.1-0.7,0.5-0.7C71.3,20.9,71.1,21.2,70.8,21.3z"/>
	<path class="st0" d="M70.3,4.9c-0.3-0.1-0.7-0.1-0.7-0.6C70,4.5,70.2,4.6,70.3,4.9z"/>
	<path class="st0" d="M73.3,14.1c-0.2-0.5-0.2-1,0-1.4C73.3,13.2,73.3,13.6,73.3,14.1z"/>
	<path class="st3" d="M25.1,34c0,0.2,0,0.5-0.3,0.6c-0.2,0-0.2-0.1-0.2-0.2C24.8,34.1,24.9,34,25.1,34z"/>
	<path class="st3" d="M104.2,36c0.4,0,0.5,0.3,0.5,0.7C104.5,36.5,104.3,36.3,104.2,36z"/>
	<path class="st2" d="M20.1,35.6c-0.2,0.5-0.5-0.1-0.8,0.1C19.6,35.6,19.8,35.6,20.1,35.6z"/>
	<path class="st3" d="M25.2,26.4c0.4-0.1,0.6,0.1,0.6,0.5C25.5,26.8,25.3,26.6,25.2,26.4z"/>
	<path class="st0" d="M68.6,23.2c0-0.4,0.2-0.5,0.5-0.5C69,23,68.9,23.2,68.6,23.2z"/>
	<path class="st2" d="M21.1,41c0.2-0.4,0.4,0,0.6-0.1C21.5,41,21.3,41.1,21.1,41z"/>
	<path class="st2" d="M86.5,1.5c0,0.1,0,0.4-0.2,0.3c-0.1,0-0.1-0.2-0.1-0.3C86.3,1.5,86.4,1.5,86.5,1.5z"/>
	<path class="st3" d="M105.3,37.7c0.3,0,0.3,0.2,0.3,0.5C105.5,38,105.4,37.9,105.3,37.7z"/>
	<path class="st3" d="M16.4,22.9c0.1-0.1,0.2-0.3,0.4-0.2c0.1,0.1,0.1,0.2,0.1,0.3C16.7,22.9,16.5,22.9,16.4,22.9z"/>
	<path class="st0" d="M90.9,16.6c0.3,0.1,0.4,0.3,0.3,0.5C91,17,90.9,16.8,90.9,16.6z"/>
	<path class="st0" d="M69.3,22.7c0.1-0.2,0.2-0.2,0.4-0.2C69.6,22.7,69.4,22.6,69.3,22.7z"/>
	<path class="st0" d="M6.1,34.3c0-0.2,0.1-0.3,0.4-0.3C6.4,34.1,6.3,34.2,6.1,34.3z"/>
	<path class="st0" d="M98.1,27.1c0.2,0,0.3,0.2,0.3,0.4C98.2,27.4,98.1,27.3,98.1,27.1z"/>
	<path class="st2" d="M18.5,0.8c-0.1,0.2-0.2,0.1-0.3,0C18.3,0.7,18.4,0.7,18.5,0.8z"/>
	<path class="st2" d="M18.3,17.9C18.1,18.1,18,18,18,17.7C18.1,17.7,18.2,17.8,18.3,17.9z"/>
	<path class="st2" d="M22.7,35.1c-0.1,0.2-0.3,0.1-0.4,0.1C22.4,35.1,22.5,35.1,22.7,35.1z"/>
	<path class="st3" d="M26.7,20.8c-0.2,0-0.3,0-0.4-0.2C26.4,20.6,26.6,20.7,26.7,20.8z"/>
	<path class="st2" d="M19.4,18.2c-0.2,0-0.3,0-0.4-0.1C19.2,18,19.3,18.1,19.4,18.2z"/>
	<path class="st0" d="M69.7,4.4c-0.2,0-0.3-0.1-0.4-0.3C69.5,4.1,69.6,4.2,69.7,4.4z"/>
	<path class="st0" d="M11.2,21.1c0.1,0,0.2,0,0.3,0.1C11.4,21.3,11.2,21.2,11.2,21.1z"/>
	<path class="st0" d="M64.9,24.7c0.1,0,0.2,0,0.3-0.1C65.1,24.7,65,24.7,64.9,24.7z"/>
	<path class="st2" d="M19.8,18.3c-0.1,0-0.3,0-0.4-0.1C19.6,18.2,19.7,18.2,19.8,18.3z"/>
	<path class="st0" d="M7.3,27.9c0-0.1,0-0.2,0-0.3C7.4,27.7,7.4,27.8,7.3,27.9z"/>
	<path class="st3" d="M26.1,2.8c0,0-0.1-0.1-0.1-0.1C26.1,2.6,26,2.8,26.1,2.8z"/>
	<path class="st0" d="M10.9,7.2c0.1,0,0.1,0,0.2-0.1C11,7.2,11,7.2,10.9,7.2z"/>
	<path class="st0" d="M12.1,15.8c-0.1,0-0.2-0.1-0.3-0.1C12,15.6,12,15.7,12.1,15.8z"/>
	<path class="st0" d="M104,26.3C104,26.3,104,26.3,104,26.3C104,26.3,104,26.3,104,26.3z"/>
	<path class="st2" d="M19.9,23.9c0.1,0,0.2,0.1,0.3,0.1C20,24,19.9,23.9,19.9,23.9z"/>
	<polygon class="st2" points="21.7,35.4 21.6,35.4 21.6,35.4 	"/>
	<path class="st2" d="M22.2,35.3c0,0.1-0.1,0.1-0.2,0C22.1,35.3,22.2,35.3,22.2,35.3z"/>
	<path class="st2" d="M18.7,18c-0.1,0-0.1-0.1-0.2-0.1C18.6,17.9,18.6,18,18.7,18z"/>
	<path class="st2" d="M19.6,0.9c-0.1,0.1-0.1,0.1-0.1,0C19.5,0.8,19.6,0.8,19.6,0.9z"/>
	<polygon class="st0" points="25.6,11 25.6,11 25.6,10.9 	"/>
	<path class="st2" d="M20.6,35.6c0,0.1-0.1,0.1-0.2,0C20.5,35.6,20.5,35.6,20.6,35.6z"/>
	<path class="st3" d="M105,37.2c0,0.1,0.1,0.1,0.1,0.2C105.1,37.3,105.1,37.3,105,37.2z"/>
	<path class="st3" d="M26.3,39.8c0.1,0,0.2-0.1,0.2-0.1C26.4,39.7,26.4,39.7,26.3,39.8z"/>
	<polygon class="st3" points="26.2,39.8 26.2,39.8 26.2,39.8 	"/>
	<path class="st2" d="M23.7,40.6c0.1,0,0.2-0.1,0.3-0.1C23.9,40.5,23.8,40.5,23.7,40.6z"/>
	<path class="st3" d="M24.8,26c0.1,0.1,0.1,0.1,0.2,0.2C24.9,26.1,24.8,26.1,24.8,26z"/>
	<path class="st2" d="M22.9,40.7c0-0.1,0.1-0.1,0.1,0C23,40.7,22.9,40.7,22.9,40.7L22.9,40.7z"/>
	<path class="st0" d="M13.7,22c0.1,0,0.2,0.1,0.2,0.1C13.9,22,13.8,22,13.7,22z"/>
	<path class="st2" d="M20.6,41.1c0-0.1,0.1-0.1,0.2,0C20.7,41,20.7,41.1,20.6,41.1L20.6,41.1z"/>
	<path class="st0" d="M113,16.2c0-0.1,0-0.1,0.1-0.1C113.1,16.2,113.1,16.2,113,16.2z"/>
	<path class="st0" d="M28.3,4.1c-0.1,0-0.2,0-0.1-0.1C28.2,4,28.2,4.1,28.3,4.1z"/>
	<path class="st0" d="M113.1,1.6c-0.1,0-0.1,0-0.1-0.1C113.1,1.5,113.1,1.5,113.1,1.6z"/>
	<polygon class="st0" points="70.5,5 70.4,5 70.5,5 	"/>
	<polygon class="st0" points="11.7,15.6 11.7,15.6 11.7,15.6 	"/>
	<path class="st2" d="M22.8,1.4c-0.1,0-0.2-0.1-0.2-0.1C22.6,1.4,22.7,1.4,22.8,1.4z"/>
	<path class="st0" d="M11.4,15.4c-0.1,0-0.1-0.1-0.2-0.1C11.2,15.3,11.3,15.4,11.4,15.4z"/>
	<polygon class="st2" points="20.5,1 20.5,1 20.5,1 	"/>
	<polygon class="st2" points="23.4,40.6 23.5,40.6 23.4,40.6 	"/>
	<path class="st2" d="M58.1,20.3c0.2,0.8,0.2,1.5,0.1,2.3c0,0.5,0.2,0.9,0.4,1.4c0.3,0.6-0.9,0.5-0.7,1.1c-2.5-0.1-4.9,0.1-7.5-0.2
		c0.4-0.5,0.9-0.5,1.2-0.6c0.4-0.2,0.4-0.4,0.1-0.6c-0.5-0.3-0.4-0.7-0.4-1.1c0-0.6,0.1-1.2-0.1-1.8c-0.2-0.5,0.2-0.6,0.6-0.6
		C53.9,20.3,56,20.3,58.1,20.3z"/>
	<path class="st3" d="M65.9,8.5C66,8.3,66,8,66.3,8.1c0.2,0.1,0.3,0.3,0.2,0.6c-0.1,0.1-0.1,0.3-0.1,0.5C66.1,9,65.9,8.8,65.9,8.5z"
		/>
	<path class="st3" d="M66.2,17.7c0.1,0,0.2,0,0.3,0.1c0.2,0.2,0.2,0.4,0.2,0.7c0,0.1-0.1,0.2-0.2,0.2c-0.3-0.1-0.2-0.4-0.2-0.6
		C66.2,17.9,66.2,17.8,66.2,17.7z"/>
	<path class="st1" d="M103,27c0,0.2-0.1,0.2-0.2,0.2c-0.2,0-0.3-0.1-0.4-0.4c0-0.1,0.1-0.2,0.2-0.2C102.8,26.7,102.9,26.9,103,27z"
		/>
	<path class="st3" d="M17,23c0,0,0.1-0.1,0.1-0.1l0,0C17.1,22.9,17.1,23,17,23C17.1,23,17,23,17,23z"/>
	<path class="st3" d="M17.2,22.9C17.2,22.9,17.2,22.9,17.2,22.9C17.2,22.9,17.2,22.9,17.2,22.9C17.2,22.9,17.2,22.9,17.2,22.9z"/>
	<path class="st3" d="M110.7,15.9c-1.6,0-1.6,0-1.6-1.6c0-3.8,0-7.6,0-11.4c0-1.1,0-1.1,1.1-1.1c0.2,0,0.3,0,0.5,0
		c0.3,0.2,0.2,0.6,0.2,0.8c0,4,0,8,0,11.9C110.9,15,110.7,15.5,110.7,15.9z"/>
	<path class="st2" d="M5.7,34.6c-0.5,0-0.8,0.4-1.1,0.7c-0.3,0.2-0.4,0.3-0.6-0.1c-0.4-0.6-0.7-1.1-0.7-1.8c0-1.4,0.1-2.9,0-4.3
		c-0.1-1,0.5-1.7,1.6-1.5c0.2,0,0.4,0,0.6,0C5.4,29.9,5.1,32.3,5.7,34.6z"/>
</g>
</svg>
