<?xml version="1.0" encoding="utf-8"?>
<!-- Generator: Adobe Illustrator 23.0.3, SVG Export Plug-In . SVG Version: 6.00 Build 0)  -->
<svg version="1.1" id="Layer_1" xmlns="http://www.w3.org/2000/svg" xmlns:xlink="http://www.w3.org/1999/xlink" x="0px" y="0px"
	 viewBox="0 0 123.8 42" style="enable-background:new 0 0 123.8 42;" xml:space="preserve">
<style type="text/css">
	.st0{fill:#242422;}
	.st1{fill:#1F1F1D;}
	.st2{fill:#1E1E1C;}
	.st3{fill:#20201E;}
	.st4{fill:#21211F;}
	.st5{fill:#84AFCC;}
	.st6{fill:#E9BC34;}
	.st7{fill:#87873F;}
	.st8{fill:#C37E85;}
	.st9{fill:#755D72;}
	.st10{fill:#B46128;}
	.st11{fill:#FFFFFF;}
</style>
<g>
	<g>
		<path class="st0" d="M55.2,0c0.1,0.1,0.1,0.3,0.1,0.5c0,0.5,0,0.9,0,1.4c0,0.2,0.1,0.3,0.3,0.2c0.6,0,1.1,0,1.7,0
			c0.3,0,0.4,0.1,0.4,0.4s-0.1,0.4-0.4,0.4c-0.6,0-1.1,0-1.6,0c-0.2,0-0.3,0-0.3,0.3c0,1.9,0,3.6,0,5.5c0,0.1,0,0.3,0,0.4
			c0.1,0.6,0.4,0.9,1,0.9c0.3,0,0.6,0,0.9,0c0.2,0,0.3,0,0.4,0.2c0,0.2,0.1,0.5-0.2,0.5c-0.7,0.1-1.3,0.1-1.9-0.1
			c-0.6-0.3-0.8-0.7-0.9-1.3c0-0.2,0-0.5,0-0.7c0-2.6,0-5.2,0-7.8c0-0.2,0-0.4,0.1-0.6C54.7,0,54.9,0,55.2,0z"/>
		<path class="st1" d="M59.1,38.2c-0.7,1-1.6,1.2-2.7,1c-1.2-0.2-1.9-1.1-1.9-2.3c0-1.8,0-5.8,0-5.8c0.3-0.6,0.7-0.3,1.2-0.3
			c0.3,0,0.5,0.2,0.5,0.6c0,0.1,0,5.3,0,5.5c0,0.7,0.4,0.9,1,1c0.6,0,0.9-0.4,1-0.9c0-0.7,0-3.6,0-5.2c0-0.7,0.2-0.7,0.7-0.7
			c0.9,0,0.9,0.1,0.9,0.9c0,1.6-0.1,4.7,0,5.2c0.1,0.6,0.5,0.8,1,0.8s0.8-0.3,0.9-0.8c0.1-0.6,0-3.7,0-5.3c0-0.6,0.1-0.7,0.7-0.7
			c0.9,0,1,0,1,1c0,1.6,0,3.3,0,4.8c0,0.3,0,0.7-0.1,1c-0.4,1-0.9,1.2-1.9,1.3C60.5,39.4,59.6,39,59.1,38.2
			C59.1,37.7,59.1,38.3,59.1,38.2z"/>
		<path class="st1" d="M107.2,37.8c-0.7,0.7-1.4,0.7-2.1,0.6c-0.9-0.2-1.5-0.7-1.6-1.7c-0.2-1.4-0.2-2.7,0-4.1c0.3-1.6,1.7-2.2,3-2
			c1.6,0.2,2.5,1.1,2.5,2.7c0,2,0,4.1,0,6.1c0,2.1-1.6,2.7-3.1,2.6c-0.6,0-1.1-0.2-1.6-0.6c-0.6-0.5-0.8-1-0.8-1.8
			c0-0.4,0.2-0.6,0.6-0.6c0.3,0,0.5,0,0.7,0s0.5,0.2,0.5,0.4c0,0.8,0.8,1,1.5,0.8c0.3-0.1,0.5-0.4,0.6-0.7
			C107.4,38.9,107.4,38.2,107.2,37.8z M107.2,34.5c0-0.5,0-1-0.1-1.5c-0.1-0.6-0.5-0.8-1-0.8c-0.6,0-0.9,0.3-1,0.8c-0.1,1-0.1,2,0,3
			c0.1,0.6,0.5,0.8,1,0.8c0.6,0,0.9-0.3,1-0.8C107.2,35.4,107.1,35,107.2,34.5z"/>
		<path class="st1" d="M74.8,31.1c0.5-0.6,1-0.7,1.7-0.7c1.3,0.1,2.1,0.9,2.1,2.2c0,2,0,5.9,0,6c0,0.4-0.7,0.4-1.1,0.4
			S77,39,77,38.6c0-0.1,0-0.3,0-0.4c0-1.5,0-3.1,0-4.6c0-0.2,0-0.4,0-0.5c-0.1-0.8-0.7-1.2-1.4-1c-0.5,0.1-0.7,0.5-0.7,1
			c0,0.4,0,0.7,0,1.2c0,1.3,0,2.6,0,4c0,0.7-0.2,0.7-0.7,0.7c-0.9,0-0.9-0.1-0.9-0.9c0-3.3,0-6.4,0-9.7c0-0.6,0.1-0.7,0.7-0.7
			c0.9,0,1,0.1,1,1C74.8,29.5,74.8,30.3,74.8,31.1z"/>
		<path class="st1" d="M110.8,34.6c0-0.5,0-1.1,0-1.8c0.2-1.8,1.6-2.5,3.1-2.3c1.6,0.2,2.4,1,2.5,2.6c0,0.5,0,1,0,1.5
			c0,0.6-0.2,0.7-0.7,0.7c-1,0-2,0-3,0c-0.2,0-0.3,0.1-0.3,0.3c0,0.5,0,0.9,0.1,1.4c0.2,0.7,1.2,1,1.8,0.5c0.2-0.2,0.3-0.4,0.3-0.7
			c0-0.4,0.2-0.5,0.6-0.5c0.2,0,0.5,0,0.7,0c0.4,0,0.5,0.2,0.6,0.6c0,1.1-0.7,2-1.8,2.3c-0.7,0.2-1.2,0.2-1.9,0
			c-1.1-0.3-1.9-1.2-1.9-2.5C110.8,36,110.8,35.4,110.8,34.6z M113.6,33.9c0.1,0,0.2,0,0.3,0c0.9,0,0.9,0,0.8-1
			c-0.1-0.6-0.5-0.8-1-0.8c-0.6,0-0.9,0.3-1,0.8c-0.1,0.3,0,0.6-0.1,0.8c0,0.2,0,0.2,0.2,0.2C113,33.9,113.3,33.9,113.6,33.9z"/>
		<path class="st1" d="M59.5,18.6c0.2-1.4,1-2.2,2.4-2.3c0.5,0,0.8,0,1.3,0.1c1,0.3,1.7,1.1,1.8,2.1c0.1,0.7,0.1,1.3,0,2
			c0,0.4-0.2,0.6-0.6,0.6c-1,0-2,0-3,0c-0.3,0-0.3,0.1-0.3,0.3c0,0.5,0,0.8,0.1,1.3c0.2,0.7,1.1,1.1,1.8,0.6
			c0.2-0.2,0.3-0.4,0.4-0.7c0.1-0.4,0.2-0.4,0.5-0.4c0.2,0,0.4,0,0.6,0c0.5,0,0.7,0.2,0.7,0.7c0,1-0.7,1.9-1.7,2.2
			c-0.7,0.2-1.2,0.2-1.9,0.1c-1.2-0.3-1.9-1.1-2-2.5C59.4,21.8,59.5,19.2,59.5,18.6z M63.1,19.7c0.1,0,0.1,0,0.1-0.2
			c0-0.4,0-0.7-0.1-1c-0.2-0.5-0.5-0.7-0.9-0.7c-0.5,0-0.8,0.2-1,0.7c-0.1,0.4-0.1,0.7-0.1,1.1c0,0.1,0.1,0.1,0.2,0.1
			C61.6,19.7,62.8,19.7,63.1,19.7z"/>
		<path class="st1" d="M75.7,20.3c0-0.5,0-1.1,0.1-1.9c0.2-1.3,1.1-2.3,2.4-2.3c0.5,0,0.8,0,1.3,0.1c1,0.3,1.7,1.1,1.9,2.1
			c0.1,0.7,0.1,1.3,0,2c0,0.4-0.2,0.6-0.6,0.6c-1,0-2,0-3,0c-0.3,0-0.3,0.1-0.3,0.3c0,0.5,0,0.8,0.1,1.3c0.2,0.7,1.1,1.1,1.7,0.6
			c0.2-0.2,0.3-0.4,0.3-0.7c0-0.5,0.2-0.6,0.7-0.6c0.2,0,0.3,0,0.5,0c0.5,0,0.7,0.2,0.7,0.7c0,1-0.7,1.9-1.7,2.2
			c-0.7,0.2-1.3,0.2-1.9,0.1c-1.2-0.3-2-1.2-2-2.5C75.7,21.7,75.7,21.2,75.7,20.3z M78.5,19.7c0.1,0,0.2,0,0.3,0c0.9,0,0.9,0,0.8-1
			c-0.1-0.6-0.5-0.8-1-0.8c-0.6,0-1,0.3-1.1,0.8c0,0.3-0.1,0.6-0.1,0.9c0,0.2,0,0.2,0.2,0.2C77.9,19.7,78.2,19.7,78.5,19.7z"/>
		<path class="st1" d="M65.4,33.2c0-1.8,1.4-2.8,3.1-2.7c1.6,0.1,2.5,1.1,2.5,2.7c0,1.1,0,2.2,0,3.4c0,1.7-1.2,2.8-2.9,2.7
			c-1.7-0.1-2.7-1-2.7-2.8C65.4,35.9,65.4,33.8,65.4,33.2z M67.2,34.9L67.2,34.9c0,0.6,0,1.2,0,1.8c0,0.7,0.4,1,1,1s1-0.4,1-1
			c0-1.2,0-2.4,0-3.5c0-0.6-0.4-0.9-0.8-0.9c-0.7-0.1-1.2,0.3-1.2,1C67.2,33.8,67.2,34.3,67.2,34.9z"/>
		<path class="st1" d="M101.5,35.7c0,0.9,0,1.8,0,2.7c0,0.5-0.2,0.7-0.7,0.7c-1,0-1.1,0-1.1-1.1c0-1.5,0-3,0-4.4c0-0.2,0-0.3,0-0.5
			c-0.1-0.7-0.5-1-1.1-1s-1,0.4-1,1c0,0.8,0,1.8,0,2.6s0,1.8,0,2.6c0,0.6-0.2,0.7-0.7,0.7c-0.9,0-1,0-1-1c0-1.6,0-3.1,0-4.7
			c0-0.4,0-0.7,0.1-1c0.3-1.3,1.5-2,2.9-2c1.6,0.2,2.5,1.1,2.5,2.7C101.5,34,101.5,34.9,101.5,35.7L101.5,35.7z"/>
		<path class="st1" d="M86.3,35.7c0,0.8,0,1.8,0,2.6c0,0.6-0.2,0.7-0.7,0.7c-1,0-1,0-1-1c0-1.5,0-3,0-4.5c0-0.2,0-0.3,0-0.5
			c-0.1-0.7-0.5-1-1.1-1c-0.7,0-1,0.4-1,1c0,1.4,0,2.7,0,4.1c0,0.4,0,0.8,0,1.2c0,0.5-0.2,0.7-0.7,0.7c-1,0-1.1-0.1-1.1-1
			c0-1.5,0-3.1,0-4.6c0-0.4,0-0.7,0.1-1c0.4-1.3,1.5-2,2.9-2c1.6,0.2,2.5,1.1,2.5,2.7C86.3,34,86.3,34.9,86.3,35.7L86.3,35.7z"/>
		<path class="st2" d="M83.2,18.9c0-2,1.6-2.9,3.3-2.7c1.5,0.2,2.3,1.2,2.3,2.6c0,1.8,0,3.5,0,5.3c0,0.5-0.2,0.6-0.6,0.6
			c-0.2,0-0.4,0-0.6,0c-0.5,0-0.6-0.2-0.6-0.7c0-1.7,0-3.3,0-4.9c0-0.2,0-0.4-0.1-0.6c-0.1-0.6-0.5-0.8-1-0.8c-0.6,0-0.9,0.3-1,0.8
			c0,0.2,0,0.5,0,0.7c0,1.6,0,3.2,0,4.7c0,0.7-0.1,0.7-0.7,0.7c-0.9,0-1,0.1-1-1C83.3,22.6,83.2,19.8,83.2,18.9z"/>
		<path class="st2" d="M93.8,34c0,0.8,0,1.8,0,2.6c-0.1,1.7-1.2,2.7-2.9,2.6c-1.7-0.1-2.7-1.1-2.7-2.8c0-1.8,0-3.4,0-5.2
			c0-0.5,0.2-0.7,0.7-0.7c1,0,1.1,0,1.1,1.1c0,1.5,0,3,0,4.5c0,0.2,0,0.4,0,0.6c0.1,0.7,0.5,0.8,1.1,0.8c0.6,0,0.8-0.4,0.9-0.9
			c0.1-0.5,0-0.9,0-1.4c0-1.3,0-2.6,0-3.9c0-0.6,0.1-0.7,0.7-0.7c0.9,0,1,0.1,1,0.9C93.9,32.4,93.9,33.2,93.8,34
			C93.9,34,93.9,34,93.8,34z"/>
		<path class="st2" d="M118.2,35.7c0-0.8,0-1.8,0-2.6c0-1.8,1.3-2.8,3.1-2.6c1.6,0.1,2.5,1.1,2.5,2.8c0,1.8,0,3.4,0,5.2
			c0,0.5-0.2,0.7-0.7,0.7c-1,0-1.1-0.1-1.1-1c0-1.5,0-3,0-4.5c0-0.2,0-0.4,0-0.6c-0.1-0.7-0.5-0.9-1.1-0.9c-0.6,0-0.9,0.4-1,1
			c-0.1,0.6,0,1.2,0,1.8c0,1.1,0,2.3,0,3.4c0,0.6-0.2,0.7-0.7,0.7c-0.9,0-1-0.1-1-1C118.2,37.3,118.2,36.5,118.2,35.7L118.2,35.7z"
			/>
		<path class="st3" d="M54.2,15.4c0-1.3,1-2.1,2.1-2.1c0.4,0,0.9,0,1.3,0s0.5,0.2,0.5,0.6c0,1,0,1-1,1c-0.9,0-1.1,0.3-1.1,1.2
			c0,0.2,0.1,0.2,0.2,0.2c0.5,0,0.8,0,1.3,0c0.4,0,0.6,0.2,0.6,0.6c0,0.9,0,1-1,1c-0.3,0-0.6,0-0.8,0c-0.3,0-0.3,0.1-0.3,0.3
			c0,1.9,0,5.9,0,6c0,0.3-0.2,0.5-0.5,0.5c-0.3,0-0.5,0-0.7,0c-0.3,0-0.5-0.2-0.5-0.5S54.2,16.8,54.2,15.4z"/>
		<path class="st4" d="M83,3.2c0.3-0.7,0.7-1.1,1.4-1.2c1.4-0.3,2.7,0.3,2.8,2c0,0.2,0,0.3,0,0.5c0,1.9,0,3.7,0,5.6
			c0,0.4-0.1,0.5-0.5,0.5c-0.2,0-0.3-0.1-0.3-0.3c0-0.1,0-0.2,0-0.3c0-1.9,0-3.6,0-5.5c0-0.2,0-0.4,0-0.7c-0.1-0.9-0.7-1.4-1.7-1.3
			C83.9,2.6,83.4,3,83.3,4c0,1.1,0,2.2,0,3.4c0,0.8,0,1.8,0,2.6c0,0.3-0.1,0.4-0.4,0.4s-0.4-0.1-0.4-0.4c0-1.9,0-3.7,0-5.6
			c0-0.3,0-0.5-0.1-0.7c-0.2-0.8-0.7-1.2-1.6-1.2c-0.8,0-1.4,0.6-1.5,1.3c0,0.2,0,0.5,0,0.7c0,1.9,0,3.6,0,5.5c0,0.2,0,0.5-0.3,0.5
			c-0.4,0-0.4-0.1-0.4-0.4c0-2,0-3.9,0-5.9c0-0.2,0-0.5,0.1-0.7c0.2-0.9,0.8-1.5,1.8-1.6C81.8,1.8,82.5,2.2,83,3.2z"/>
		<path class="st2" d="M66.9,18.6c0-1.4,0.7-2.1,2.2-2.2c0.4,0,0.7,0,1.2,0.1c0.3,0.1,0.5,0.2,0.5,0.5c0,0.3,0,0.5,0,0.7
			c0,0.3-0.1,0.4-0.6,0.4c-0.3,0-0.4,0-0.7,0c-0.5,0-0.8,0.3-0.8,0.7c0,0.8,0.1,4.2,0.1,5.4c0,0.6-0.1,0.7-0.7,0.7
			c-0.9,0-1.1,0.1-1.1-0.9c0-1,0-1.9,0-2.7C66.9,21.3,66.9,19.4,66.9,18.6z"/>
		<path class="st3" d="M68.9,6.4c0,0.7,0,1.2,0,1.9c-0.1,1.6-1.1,2.5-2.7,2.4c-1.3-0.1-2.1-0.7-2.3-1.9c-0.4-2,0.9-3.1,2.4-3.1
			c0.6,0,1.1,0,1.7,0c0.2,0,0.3-0.1,0.3-0.3c0-0.6,0-1-0.1-1.6c-0.3-0.8-0.9-1.3-1.9-1.3c-0.8,0.1-1.5,0.7-1.6,1.5
			c0,0.1,0,0.2,0,0.3c0,0.3-0.2,0.3-0.4,0.3c-0.2,0-0.3-0.1-0.3-0.4c0-1.4,1-2.4,2.5-2.4c1.5,0.1,2.3,1.3,2.3,2.6S68.9,5.7,68.9,6.4
			L68.9,6.4z M66.2,6.4c-1,0-1.7,0.8-1.7,1.8c-0.1,1,0.6,1.8,1.7,1.9c1.1,0.1,1.9-0.5,2-1.6c0.1-0.6,0-1.2,0-1.9
			c0-0.2-0.2-0.2-0.2-0.2S66.5,6.4,66.2,6.4z"/>
		<path class="st0" d="M76.3,5.4c0,0.9,0,1.9,0,2.7c0,0.9-0.4,1.8-1.2,2.2c-0.9,0.5-2,0.5-2.8-0.1c-0.7-0.4-0.9-1-1-1.8
			c-0.1-0.9,0-1.9,0-2.8c0-1.1,0-2.1,0-3.3c0-0.3,0-0.5,0.4-0.5S72,2.1,72,2.4c0,1.8,0,3.5,0,5.3c0,0.3,0,0.5,0,0.7
			c0.2,1,0.9,1.6,2,1.5c1-0.1,1.6-0.7,1.7-1.7c0-1,0-2,0-3.2c0-0.8,0-1.8,0-2.6C75.7,2.1,75.8,2,76,2c0.4,0,0.4,0.1,0.4,0.5
			C76.3,3.5,76.3,4.4,76.3,5.4L76.3,5.4z"/>
		<path class="st3" d="M73.7,20.6c0,1.2,0,2.3,0,3.5c0,0.5-0.2,0.7-0.7,0.7c-1,0-1.1,0-1.1-1c0-2.1,0-4.4,0-6.5
			c0-0.7,0.1-0.8,0.8-0.8c0.8,0,0.9,0.1,0.9,0.9C73.7,18.4,73.7,19.5,73.7,20.6z"/>
		<path class="st1" d="M59.4,7c0-0.9,0-1.9,0-2.8c0-0.3,0-0.5,0.1-0.7c0.2-0.8,0.7-1.3,1.4-1.4c0.5-0.1,0.9-0.1,1.5,0
			c0.3,0.1,0.3,0.3,0.3,0.5c0,0.2-0.2,0.2-0.4,0.2c-0.4-0.1-0.7-0.1-1.1,0c-0.6,0.1-0.8,0.5-0.9,1c0,0.2,0,0.5,0,0.7
			c0,1.9,0,3.7,0,5.6c0,0.3,0,0.5-0.4,0.5c-0.3,0-0.4-0.1-0.4-0.4C59.4,9.1,59.4,8.1,59.4,7z"/>
		<path class="st3" d="M73.7,14.5c0,0.1,0,0.3,0,0.4c0,0.3-0.2,0.5-0.5,0.5c-0.2,0-0.4,0-0.6,0c-0.6,0-0.7-0.2-0.7-0.7
			c0-0.9,0.1-0.9,0.9-0.9C73.6,13.6,73.7,13.7,73.7,14.5z"/>
	</g>
	<g>
		<g>
			<path class="st5" d="M15.2,14.7C15.2,14.5,15.2,14.5,15.2,14.7c0-5.5,2.6-9.9,6.8-12.5C19.8,0.9,17.2,0,14.5,0
				C6.4,0,0,6.4,0,14.5C0,20,3.3,24.8,7.7,27.3C7.9,21.8,10.8,17.2,15.2,14.7z"/>
			<path class="st6" d="M44,14.5C44,6.6,37.6,0,29.5,0c-2.9,0-5.3,0.9-7.5,2.2c4.2,2.6,6.8,7,6.8,12.3v0.2c4.4,2.4,7.5,7,7.5,12.5
				C40.9,24.6,44,20,44,14.5z"/>
			<path class="st7" d="M15.2,14.5L15.2,14.5c2-0.9,4.4-1.5,6.8-1.5s4.8,0.7,6.8,1.8v-0.2c0-5.3-2.5-9.6-6.8-12.3
				C17.8,4.6,15.2,9.2,15.2,14.5z"/>
			<path class="st8" d="M22,26.8c-2.2,1.3-4.8,2.2-7.5,2.2c-2.4,0-4.8-0.7-6.8-1.8v0.2c0,7.9,6.4,14.5,14.5,14.5s14.1-6.4,14.1-14.5
				v-0.2c-2,1.1-4.4,1.8-6.9,1.8C26.3,28.8,24.2,28.1,22,26.8z"/>
			<path class="st9" d="M22,26.8c-4.2-2.4-6.8-7-6.8-12.1c-4.4,2.4-7.5,7-7.5,12.5c2,1.1,4.5,1.8,7.1,1.8
				C17.5,28.9,19.8,28.1,22,26.8z"/>
			<path class="st10" d="M28.8,14.7c0,5.1-2.9,9.7-6.8,12.1c2.2,1.3,4.8,2.2,7.5,2.2c2.4,0,4.8-0.7,6.8-1.8
				C36.3,21.8,33.2,17.2,28.8,14.7z"/>
			<path class="st11" d="M15.2,14.7c0,5.1,2.9,9.7,6.8,12.1c4.2-2.4,6.8-7,6.8-12.1c-2-1.1-4.4-1.8-6.8-1.8S17.2,13.6,15.2,14.7z"/>
		</g>
		<path class="st11" d="M15.2,14.7c0.7,0,13,0,13.6,0c0-3.5-4.4-5.7-6.8-1.8C19.1,8.8,15.2,11,15.2,14.7z"/>
	</g>
</g>
</svg>
