<?xml version="1.0" encoding="utf-8"?>
<!-- Generator: Adobe Illustrator 24.1.1, SVG Export Plug-In . SVG Version: 6.00 Build 0)  -->
<svg version="1.1" id="Layer_1" xmlns="http://www.w3.org/2000/svg" xmlns:xlink="http://www.w3.org/1999/xlink" x="0px" y="0px"
	 viewBox="0 0 591 100" style="enable-background:new 0 0 591 100;" xml:space="preserve">
<style type="text/css">
	.st0{fill:url(#SVGID_2_);}
	.st1{clip-path:url(#SVGID_4_);fill:url(#SVGID_6_);}
	.st2{fill:url(#SVGID_7_);}
	.st3{clip-path:url(#SVGID_10_);fill:url(#SVGID_11_);}
	.st4{fill:#FFFFFF;}
	.st5{clip-path:url(#SVGID_13_);fill:#FFFFFF;}
	.st6{clip-path:url(#SVGID_19_);}
	.st7{clip-path:url(#SVGID_21_);fill:url(#SVGID_22_);}
	.st8{clip-path:url(#SVGID_24_);}
	.st9{clip-path:url(#SVGID_26_);}
	.st10{clip-path:url(#SVGID_28_);}
	.st11{clip-path:url(#SVGID_30_);fill:url(#SVGID_31_);}
	.st12{opacity:0.5;clip-path:url(#SVGID_33_);}
	.st13{clip-path:url(#SVGID_35_);fill:#E3EBF4;}
	.st14{opacity:0.6;clip-path:url(#SVGID_37_);}
	.st15{clip-path:url(#SVGID_39_);fill:#FFFFFF;}
	.st16{opacity:0.6;clip-path:url(#SVGID_41_);}
	.st17{clip-path:url(#SVGID_43_);fill:#FFFFFF;}
	.st18{opacity:0.6;clip-path:url(#SVGID_45_);}
	.st19{clip-path:url(#SVGID_47_);fill:#FFFFFF;}
	.st20{opacity:0.5;clip-path:url(#SVGID_49_);}
	.st21{clip-path:url(#SVGID_51_);fill:#FFFFFF;}
	.st22{clip-path:url(#SVGID_53_);fill:#FFFFFF;}
	.st23{clip-path:url(#SVGID_55_);fill:#FFFFFF;}
	.st24{opacity:0.5;clip-path:url(#SVGID_57_);}
	.st25{clip-path:url(#SVGID_59_);fill:#FFFFFF;}
	.st26{clip-path:url(#SVGID_61_);fill:#FFFFFF;}
	.st27{clip-path:url(#SVGID_63_);fill:#FFFFFF;}
	.st28{opacity:0.5;clip-path:url(#SVGID_65_);}
	.st29{clip-path:url(#SVGID_67_);fill:#FFFFFF;}
	.st30{clip-path:url(#SVGID_69_);fill:#FFFFFF;}
	.st31{opacity:0.5;clip-path:url(#SVGID_71_);}
	.st32{clip-path:url(#SVGID_73_);fill:#FFFFFF;}
	.st33{clip-path:url(#SVGID_75_);fill:#FFFFFF;}
	.st34{opacity:0.6;clip-path:url(#SVGID_77_);}
	.st35{clip-path:url(#SVGID_79_);fill:#FFFFFF;}
	.st36{opacity:0.6;clip-path:url(#SVGID_81_);}
	.st37{clip-path:url(#SVGID_83_);fill:#FFFFFF;}
	.st38{opacity:0.6;clip-path:url(#SVGID_85_);}
	.st39{clip-path:url(#SVGID_87_);fill:#FFFFFF;}
	.st40{clip-path:url(#SVGID_89_);}
	.st41{clip-path:url(#SVGID_91_);}
	.st42{clip-path:url(#SVGID_93_);fill:url(#SVGID_94_);}
	.st43{clip-path:url(#SVGID_96_);}
	.st44{clip-path:url(#SVGID_98_);}
	.st45{clip-path:url(#SVGID_100_);fill:url(#SVGID_101_);}
	.st46{clip-path:url(#SVGID_103_);}
	.st47{clip-path:url(#SVGID_105_);}
	.st48{clip-path:url(#SVGID_107_);fill:url(#SVGID_108_);}
	.st49{clip-path:url(#SVGID_110_);}
	.st50{clip-path:url(#SVGID_112_);}
	.st51{clip-path:url(#SVGID_114_);fill:url(#SVGID_115_);}
	.st52{clip-path:url(#SVGID_117_);}
	.st53{clip-path:url(#SVGID_119_);}
	.st54{clip-path:url(#SVGID_121_);fill:url(#SVGID_122_);}
	.st55{clip-path:url(#SVGID_124_);}
	.st56{clip-path:url(#SVGID_126_);}
	.st57{clip-path:url(#SVGID_128_);fill:url(#SVGID_129_);}
	.st58{clip-path:url(#SVGID_131_);}
	.st59{clip-path:url(#SVGID_133_);}
	.st60{clip-path:url(#SVGID_135_);fill:url(#SVGID_136_);}
	.st61{fill:#29ABE2;}
</style>
<g>
	<g>
		<g>
			
				<linearGradient id="SVGID_2_" gradientUnits="userSpaceOnUse" x1="23.0174" y1="48.1818" x2="56.331" y2="57.9645" gradientTransform="matrix(1 0 0 -1 0 102)">
				<stop  offset="0" style="stop-color:#5283AA"/>
				<stop  offset="6.661777e-02" style="stop-color:#5584AB"/>
				<stop  offset="0.1238" style="stop-color:#5F8AB0"/>
				<stop  offset="0.1774" style="stop-color:#6F95B8"/>
				<stop  offset="0.229" style="stop-color:#86A5C5"/>
				<stop  offset="0.279" style="stop-color:#A5BBD4"/>
				<stop  offset="0.328" style="stop-color:#CBD8E7"/>
				<stop  offset="0.3751" style="stop-color:#FBFCFD"/>
				<stop  offset="0.3793" style="stop-color:#FFFFFF"/>
				<stop  offset="0.4092" style="stop-color:#E9F4FD"/>
				<stop  offset="0.4576" style="stop-color:#C9E4F9"/>
				<stop  offset="0.5097" style="stop-color:#A9D4F5"/>
				<stop  offset="0.5651" style="stop-color:#8CC7F1"/>
				<stop  offset="0.6244" style="stop-color:#71BCED"/>
				<stop  offset="0.6894" style="stop-color:#5BB4EA"/>
				<stop  offset="0.7629" style="stop-color:#49AFE8"/>
				<stop  offset="0.8519" style="stop-color:#3DABE7"/>
				<stop  offset="1" style="stop-color:#39AAE6"/>
			</linearGradient>
			<path id="SVGID_1_" class="st0" d="M5.5,41.8c0,8.7,3.4,15.3,7.8,21.5c6.6,9.3,14,18.3,21,27.4c0.3,0.3,0.6,0.5,1,0.5
				c0.4,0,0.7-0.2,1-0.5c7-9.1,14.4-18,21-27.4c4.4-6.2,7.8-12.8,7.8-21.5C65,21,50.1,10.6,35.2,10.6S5.5,21,5.5,41.8"/>
		</g>
		<g>
			<defs>
				<path id="SVGID_3_" d="M5.5,41.8c0,8.7,3.4,15.3,7.8,21.5c6.6,9.3,14,18.3,21,27.4c0.3,0.3,0.6,0.5,1,0.5c0.4,0,0.7-0.2,1-0.5
					c7-9.1,14.4-18,21-27.4c4.4-6.2,7.8-12.8,7.8-21.5C65,21,50.1,10.6,35.2,10.6S5.5,21,5.5,41.8"/>
			</defs>
			<clipPath id="SVGID_4_">
				<use xlink:href="#SVGID_3_"  style="overflow:visible;"/>
			</clipPath>
			
				<linearGradient id="SVGID_6_" gradientUnits="userSpaceOnUse" x1="23.191" y1="47.5908" x2="56.5044" y2="57.3734" gradientTransform="matrix(1 0 0 -1 0 102)">
				<stop  offset="0" style="stop-color:#5283AA"/>
				<stop  offset="6.661777e-02" style="stop-color:#5584AB"/>
				<stop  offset="0.1238" style="stop-color:#5F8AB0"/>
				<stop  offset="0.1774" style="stop-color:#6F95B8"/>
				<stop  offset="0.229" style="stop-color:#86A5C5"/>
				<stop  offset="0.279" style="stop-color:#A5BBD4"/>
				<stop  offset="0.328" style="stop-color:#CBD8E7"/>
				<stop  offset="0.3751" style="stop-color:#FBFCFD"/>
				<stop  offset="0.3793" style="stop-color:#FFFFFF"/>
				<stop  offset="0.4092" style="stop-color:#E9F4FD"/>
				<stop  offset="0.4576" style="stop-color:#C9E4F9"/>
				<stop  offset="0.5097" style="stop-color:#A9D4F5"/>
				<stop  offset="0.5651" style="stop-color:#8CC7F1"/>
				<stop  offset="0.6244" style="stop-color:#71BCED"/>
				<stop  offset="0.6894" style="stop-color:#5BB4EA"/>
				<stop  offset="0.7629" style="stop-color:#49AFE8"/>
				<stop  offset="0.8519" style="stop-color:#3DABE7"/>
				<stop  offset="1" style="stop-color:#39AAE6"/>
			</linearGradient>
			<rect x="5.5" y="10.6" class="st1" width="59.5" height="80.6"/>
		</g>
	</g>
	<g>
		<g>
			
				<linearGradient id="SVGID_7_" gradientUnits="userSpaceOnUse" x1="28.3581" y1="57.8751" x2="62.9937" y2="78.4979" gradientTransform="matrix(1 0 0 -1 0 102)">
				<stop  offset="0" style="stop-color:#487293"/>
				<stop  offset="6.661777e-02" style="stop-color:#4B7495"/>
				<stop  offset="0.1238" style="stop-color:#547B9B"/>
				<stop  offset="0.1774" style="stop-color:#6486A5"/>
				<stop  offset="0.229" style="stop-color:#7C98B4"/>
				<stop  offset="0.279" style="stop-color:#9CB1C8"/>
				<stop  offset="0.328" style="stop-color:#C5D1E1"/>
				<stop  offset="0.3751" style="stop-color:#FAFBFC"/>
				<stop  offset="0.3793" style="stop-color:#FFFFFF"/>
				<stop  offset="0.4092" style="stop-color:#E9F4FD"/>
				<stop  offset="0.4576" style="stop-color:#C9E4F9"/>
				<stop  offset="0.5097" style="stop-color:#A9D4F5"/>
				<stop  offset="0.5651" style="stop-color:#8CC7F1"/>
				<stop  offset="0.6244" style="stop-color:#71BCED"/>
				<stop  offset="0.6894" style="stop-color:#5BB4EA"/>
				<stop  offset="0.7629" style="stop-color:#49AFE8"/>
				<stop  offset="0.8519" style="stop-color:#3DABE7"/>
				<stop  offset="1" style="stop-color:#39AAE6"/>
			</linearGradient>
			<path id="SVGID_5_" class="st2" d="M9.8,40.1c0,14,11.4,25.4,25.4,25.4c14.1,0,25.4-11.4,25.4-25.4c0-14.1-11.4-25.4-25.4-25.4
				S9.8,26,9.8,40.1"/>
		</g>
		<g>
			<defs>
				<path id="SVGID_8_" d="M9.8,40.1c0,14,11.4,25.4,25.4,25.4c14.1,0,25.4-11.4,25.4-25.4c0-14.1-11.4-25.4-25.4-25.4
					S9.8,26,9.8,40.1"/>
			</defs>
			<clipPath id="SVGID_10_">
				<use xlink:href="#SVGID_8_"  style="overflow:visible;"/>
			</clipPath>
			
				<linearGradient id="SVGID_11_" gradientUnits="userSpaceOnUse" x1="28.3577" y1="57.8759" x2="62.9931" y2="78.4985" gradientTransform="matrix(1 0 0 -1 0 102)">
				<stop  offset="0" style="stop-color:#487293"/>
				<stop  offset="6.661777e-02" style="stop-color:#4B7495"/>
				<stop  offset="0.1238" style="stop-color:#547B9B"/>
				<stop  offset="0.1774" style="stop-color:#6486A5"/>
				<stop  offset="0.229" style="stop-color:#7C98B4"/>
				<stop  offset="0.279" style="stop-color:#9CB1C8"/>
				<stop  offset="0.328" style="stop-color:#C5D1E1"/>
				<stop  offset="0.3751" style="stop-color:#FAFBFC"/>
				<stop  offset="0.3793" style="stop-color:#FFFFFF"/>
				<stop  offset="0.4092" style="stop-color:#E9F4FD"/>
				<stop  offset="0.4576" style="stop-color:#C9E4F9"/>
				<stop  offset="0.5097" style="stop-color:#A9D4F5"/>
				<stop  offset="0.5651" style="stop-color:#8CC7F1"/>
				<stop  offset="0.6244" style="stop-color:#71BCED"/>
				<stop  offset="0.6894" style="stop-color:#5BB4EA"/>
				<stop  offset="0.7629" style="stop-color:#49AFE8"/>
				<stop  offset="0.8519" style="stop-color:#3DABE7"/>
				<stop  offset="1" style="stop-color:#39AAE6"/>
			</linearGradient>
			<rect x="9.8" y="14.6" class="st3" width="50.8" height="50.8"/>
		</g>
	</g>
	<g>
		<g>
			<path id="SVGID_9_" class="st4" d="M12.3,39.2c0,12.7,10.3,23,23,23s23-10.3,23-23c0-12.7-10.3-23-23-23
				C22.5,16.2,12.3,26.5,12.3,39.2"/>
		</g>
		<g>
			<defs>
				<path id="SVGID_12_" d="M12.3,39.2c0,12.7,10.3,23,23,23s23-10.3,23-23c0-12.7-10.3-23-23-23C22.5,16.2,12.3,26.5,12.3,39.2"/>
			</defs>
			<clipPath id="SVGID_13_">
				<use xlink:href="#SVGID_12_"  style="overflow:visible;"/>
			</clipPath>
			<rect x="12.3" y="16.2" class="st5" width="46" height="46"/>
		</g>
	</g>
	<g>
		<g>
			<defs>
				<rect id="SVGID_14_" x="-4.9" y="0.9" width="79.8" height="79.8"/>
			</defs>
			<clipPath id="SVGID_15_">
				<use xlink:href="#SVGID_14_"  style="overflow:visible;"/>
			</clipPath>
		</g>
		<g>
			<defs>
				<rect id="SVGID_16_" x="-4.9" y="0.9" width="79.8" height="79.8"/>
			</defs>
			<clipPath id="SVGID_17_">
				<use xlink:href="#SVGID_16_"  style="overflow:visible;"/>
			</clipPath>
		</g>
		<g>
			<defs>
				<rect id="SVGID_18_" x="-4.9" y="0.9" width="79.8" height="79.8"/>
			</defs>
			<clipPath id="SVGID_19_">
				<use xlink:href="#SVGID_18_"  style="overflow:visible;"/>
			</clipPath>
			<g class="st6">
				<g>
					<defs>
						<path id="SVGID_20_" d="M13.9,39.4c0,11.6,9.5,21.1,21.1,21.1S56.1,51,56.1,39.4S46.6,18.3,35,18.3
							C23.4,18.3,13.9,27.8,13.9,39.4"/>
					</defs>
					<clipPath id="SVGID_21_">
						<use xlink:href="#SVGID_20_"  style="overflow:visible;"/>
					</clipPath>
					
						<radialGradient id="SVGID_22_" cx="113.1078" cy="-528.3979" r="9.977743e-02" gradientTransform="matrix(244.517 0 0 244.517 -27621.168 129238.6719)" gradientUnits="userSpaceOnUse">
						<stop  offset="0" style="stop-color:#66A8DE"/>
						<stop  offset="0.1" style="stop-color:#63A5DB"/>
						<stop  offset="0.2241" style="stop-color:#5D9ACF"/>
						<stop  offset="0.3608" style="stop-color:#5389BC"/>
						<stop  offset="0.5068" style="stop-color:#4772A4"/>
						<stop  offset="0.66" style="stop-color:#3B5787"/>
						<stop  offset="0.8171" style="stop-color:#2F3B6A"/>
						<stop  offset="0.8342" style="stop-color:#2D3867"/>
						<stop  offset="0.8523" style="stop-color:#303D6C"/>
						<stop  offset="0.8838" style="stop-color:#364C7B"/>
						<stop  offset="0.9251" style="stop-color:#416696"/>
						<stop  offset="0.9739" style="stop-color:#568FC3"/>
						<stop  offset="1" style="stop-color:#66A8DE"/>
					</radialGradient>
					<rect x="13.9" y="18.3" class="st7" width="42.1" height="42.1"/>
				</g>
			</g>
		</g>
		<g>
			<defs>
				<rect id="SVGID_23_" x="-4.9" y="0.9" width="79.8" height="79.8"/>
			</defs>
			<clipPath id="SVGID_24_">
				<use xlink:href="#SVGID_23_"  style="overflow:visible;"/>
			</clipPath>
			<g class="st8">
				<g>
					<defs>
						<rect id="SVGID_25_" x="-4.9" y="0.9" width="79.8" height="79.8"/>
					</defs>
					<clipPath id="SVGID_26_">
						<use xlink:href="#SVGID_25_"  style="overflow:visible;"/>
					</clipPath>
					<g class="st9">
						<g>
							<g>
								<defs>
									<rect id="SVGID_27_" x="14" y="20.6" width="41.8" height="34.9"/>
								</defs>
								<clipPath id="SVGID_28_">
									<use xlink:href="#SVGID_27_"  style="overflow:visible;"/>
								</clipPath>
								<g class="st10">
									<g>
										<defs>
											<path id="SVGID_29_" d="M55.2,45.2c-0.3,0-0.7,0.2-0.7,0.2c0,0.1-0.4,0.3-0.5,0.3c-0.1,0.1-0.4,0.4-0.4,0.6
												c-0.1,0.1-0.4,0.1-0.5,0.2c-0.1,0.1-0.3,0.2-0.4,0.4c0,0.1-0.1,0.1-0.2-0.1L52.5,47l-0.2,0.2c-0.1,0.3-0.4,0.8-0.5,0.8
												c-0.1,0.1-0.2,0.6-0.2,0.8s0.1,0.5,0.2,0.7v0.2l0.1,0.4c-0.1,0.3,0.2,0.5,0.2,0.6c0.1,0.1,0.6-0.1,0.8-0.2
												c0.1,0,0.2-0.1,0.3-0.1c0.9-1.6,1.7-3.3,2.2-5.1C55.3,45.2,55.2,45.2,55.2,45.2 M20.3,45.8c-0.1,0.1,0.3,0.4,0.5,0.6
												c0.2,0.1,0.4,0.8,0.5,1c0.1,0.2,0,0.5,0,0.7c0,0.1,0.1,0.3,0.1,0.3c0,0.1-0.1,0.7-0.1,0.9c0.1,0.3-0.3,1-0.3,1.4
												s0.2,0.9,0.3,0.9c0.1-0.1,0.1,0.3,0,0.4c-0.1,0.1-0.3,0.4-0.2,0.4c0.1,0,0,0.3,0,0.4c0,0.1,0.1,0.9,0.2,1.1
												c0,0.2,0.3,0.7,0.4,0.9c0.1,0.2,0.1,0.5,0.2,0.5c0,0.1,0.1,0.1,0.1,0.1s0.2,0.1,0.3,0.2c0.1,0.1,0.5,0,0.7,0
												c0.2-0.1,0-0.2-0.1-0.2c-0.1-0.1-0.1-0.4-0.2-0.5c-0.1-0.1-0.1-0.5-0.1-0.6c0.1-0.1,0.3-0.3,0.4-0.3
												c0.1-0.1,0.1-0.5-0.1-0.5c-0.1-0.1,0-0.5-0.1-0.8c-0.1-0.2,0.4-0.4,0.4-0.7c0-0.2,0.5-0.4,0.7-0.5s0.2-0.7,0.2-0.8
												c-0.1-0.1,0.2-0.2,0.3-0.2s0.2-0.1,0.3-0.1c0.1,0,0.2-0.2,0.2-0.3c0.1-0.1,0.2-0.7,0.3-0.7c0.1-0.1,0.2-0.4,0.2-0.5
												c0-0.1,0.2-0.4,0.3-0.5c0.1-0.1,0.5-0.3,0.6-0.3c0.1-0.1,0.2-0.8,0.3-1.1s0.2-0.7,0.2-0.7c0-0.1,0.2-0.2,0.2-0.2
												c0.1-0.1,0.2-0.4,0.2-0.4c0.1-0.1,0.3-0.4,0.3-0.5c0-0.1,0.1-0.3,0.1-0.4v-0.2v-0.3c-0.1-0.2-0.3-0.5-0.4-0.4
												c-0.1,0.1-0.4-0.2-0.5-0.3c-0.2-0.1-0.5-0.1-0.6-0.1c-0.1,0-0.4-0.3-0.5-0.3c-0.2-0.1-0.5-0.1-0.6-0.2
												c-0.1-0.1-0.2-0.6-0.4-0.8c-0.3-0.2-0.8-0.6-0.9-0.8c-0.1-0.2-0.7-0.5-0.8-0.6c-0.2-0.1-0.4-0.1-0.5-0.1
												c-0.1,0.1-0.3-0.3-0.4-0.4c-0.1-0.1-0.5-0.2-0.5-0.1c0,0.1-0.2,0.1-0.3-0.1c-0.1-0.1-0.2,0.1-0.3,0.1s-0.4,0.5-0.5,0.6
												c-0.1,0.1-0.3-0.1-0.4-0.2c-0.1-0.1-0.4,0.1-0.5,0.1c-0.1,0.1-0.3-0.5-0.3-0.7s-0.2-0.7-0.4-0.8c-0.2,0-0.3-0.5-0.2-0.7
												c0.1-0.2-0.4-0.3-0.5-0.3c-0.1,0-0.4,0.3-0.4,0.4c-0.1,0.1-1-0.2-0.9-0.7c0.1-0.5,0.5-1.1,0.7-1.2c0.1-0.1,0.7-0.1,0.9,0
												c0.1,0.1,0.3,0,0.3-0.1s0.5,0,0.7,0.1s0.4,0.7,0.5,0.7C20,37.6,20,37.1,20,37s-0.1-0.4-0.1-0.4s0.2-0.8,0.5-0.9
												c0.2-0.1,0.5-0.5,0.4-0.5c0-0.1,0.2-0.1,0.2-0.2c0.1,0,0-0.6,0.1-0.7s0.5-0.4,0.7-0.4c0.1-0.1,0.2-0.4,0.2-0.5
												c-0.1-0.1,0.3-0.4,0.5-0.5c0.2-0.1,0.4,0.1,0.3,0.2c0.1,0,0.3-0.2,0.4-0.3c0.2-0.1,0-0.4-0.1-0.4S23.2,32,23.3,32
												c0.1,0,0.2-0.3,0.2-0.3c-0.1-0.1,0.4,0.1,0.7-0.1c0.2-0.2,0.1,0.3-0.1,0.5c-0.1,0.2,0.1,0.4,0.2,0.3
												c0.1-0.1,0.2,0.1,0.2,0.2c0,0.1,0.2-0.1,0.3,0c0.1,0.1,0.2-0.2,0.2-0.3s-0.3-0.3-0.3-0.4c-0.1-0.3-0.1-1-0.1-1.2
												c0-0.2-0.2-0.4-0.3-0.3c-0.1,0.1-0.2-0.4-0.3-0.5c-0.1-0.1-0.1-0.3-0.1-0.4c0-0.1-0.3-0.4-0.4-0.6s-0.2-0.1-0.2-0.1
												c0,0.1-0.3,0.1-0.3,0.1c-0.1,0-0.2-0.4-0.2-0.5c0-0.2-0.4-0.2-0.5-0.3S21.8,28,21.7,28s-0.3-0.2-0.4-0.1
												s-0.1,1.1-0.1,1.4c-0.1,0.3-0.3,0.5-0.4,0.5s-0.1,0.2,0,0.2c0.1,0-0.2,0.3-0.2,0.5s-0.3,0-0.3-0.2
												c-0.1-0.2-0.3-0.4-0.3-0.4c-0.1,0.1-0.2-0.1-0.3-0.1c-0.1,0.1-0.5-0.2-0.7-0.3c-0.2-0.1-0.3-0.6-0.3-0.7
												c-0.1-0.1,0-0.1,0-0.2c0-0.1,0.3-0.4,0.4-0.5s0.4-0.6,0.6-0.7c0.2-0.1,0.3-0.4,0.2-0.4c0-0.1,0.6-0.2,0.8-0.3
												c0.2-0.1,0.3-0.5,0.3-0.7s-0.1-0.4-0.2-0.4c-0.1-0.1,0.2-0.1,0.3,0c0.1,0.1,0.4-0.1,0.5-0.1s0.4,0.2,0.5,0.3l-0.1,0.3
												l-0.1,0.6c-0.5,0.2-0.7,0.5-0.4,0.5c0.2,0,0.9,0.3,1.1,0.5c0.2,0.2,0.3-0.2,0.3-0.4c0.1-0.1,0.1-0.5,0-0.6
												c-0.1-0.1,0.3-0.1,0.3,0.1c0.1,0.1,0.2-0.1,0.3-0.1c0.1-0.1,0.1-0.3,0.1-0.4c0.1-0.1-0.2-0.1-0.2-0.2
												c0-0.1-0.4-0.2-0.5-0.3c-0.1,0-0.1-0.2,0-0.3c0.1-0.1-0.1-0.3-0.1-0.4c-0.1-0.1-0.4-0.2-0.5-0.2s-0.3-0.3-0.3-0.3
												s-0.5-0.1-0.7-0.1s-0.3-0.3-0.5-0.2c-0.2,0.1-0.4-0.1-0.5-0.2s-0.5,0.4-0.5,0.8c0,0.3,0.2,0.7,0.3,0.7
												c0.1,0,0,0.3-0.1,0.4c-0.1,0.1-0.3-0.1-0.2-0.2c0.1-0.1-0.2-0.4-0.3-0.6c-0.1-0.1-0.3-0.2-0.5-0.3
												c-0.1,0.1-0.2,0.2-0.3,0.3c0.1,0.1,0.1,0.3,0.1,0.4c-0.1,0.2-0.2,0.2-0.3,0.2c0-0.1-0.1-0.1-0.2-0.1
												c-2.5,3-4.2,6.8-4.7,10.9c0.1,0.1,0.2,0.3,0.3,0.4c0.1,0.2,0.4,0.3,0.4,0.3c0.1,0.1,0.1-0.4,0.1-0.4
												c-0.1-0.1,0.1-0.2,0.1-0.1s0.3,0.4,0.4,0.5c0.1,0.1,0.2,0.9,0.3,1.1c0.1,0.2,1,0.5,1.3,0.6c0.3,0.1,0.7,0.4,0.8,0.5
												c0.1,0.1,0.4,0.2,0.5,0.2c0.1,0.1,0.3,0.3,0.4,0.4c0.1,0.1,0.2,0.2,0.2,0.3s0.5,0.2,0.7,0.4c0.1,0.2,0.3,0.1,0.4,0.1
												c0.1-0.1,0.2,0.3,0.2,0.4s0.1,0.4,0,0.4c-0.1,0.1-0.1,0.6-0.2,0.7c-0.1,0.1-0.3,0.9-0.2,1c0.1,0.2,0.3,0.5,0.4,0.5
												c0.1,0.1,0.1,0.2,0,0.2c-0.1,0-0.1,0.8,0.2,0.9C20.2,45.4,20.3,45.7,20.3,45.8 M22.8,32.9L22.8,32.9L22.8,32.9 M21.4,24
												c0.3-0.1,0.7-0.1,0.7-0.2c0-0.1,0-0.2,0-0.3c0.1,0,0.1,0,0.1,0c0.1,0,0.3-0.5,0.4-0.7c0.1-0.1,0.7-0.3,0.8-0.4
												c0.2-0.1,0.4-0.4,0.5-0.4s0.3-0.3,0.3-0.4s0.4-0.3,0.5-0.4c0.2-0.1,0.2-0.3,0.2-0.3c-0.1,0-0.9,0.4-1.7,0.9
												c-0.9,0.7-1.8,1.3-2.6,2.1C20.8,24,21.2,24,21.4,24 M36.6,50.3c0.3-0.2,0.7-0.8,0.9-1s0.3-0.7,0.3-0.8
												c0.1-0.1,0.3-0.3,0.3-0.3c0.1,0,0.4-1.1,0.6-1.4s0.5-1.5,0.5-1.9s0.2-1.2,0.2-1.5c0.1-0.2,0.4-0.5,0.4-0.6
												c0.1-0.1,0.7-0.9,0.9-1.2c0.2-0.3,0.4-1,0.3-1.1c-0.1-0.2-0.4-0.3-0.5-0.2c-0.1,0.1-0.4,0.2-0.6,0.2
												c-0.1,0-0.4-0.7-0.6-0.8c-0.2-0.1-0.3-0.9-0.4-1c-0.1-0.2-0.4-0.5-0.5-0.6c-0.1-0.1-0.1-0.5-0.1-0.6s0.2,0.1,0.2,0.2
												c0.1,0.2,0.5,0.8,0.6,1c0.2,0.2,0.5,0.9,0.6,1.1c0.1,0.2,0.9,0.1,1.2,0c0.3-0.1,0.6-0.3,0.6-0.4c0-0.1,0.4-0.3,0.5-0.4
												c0.1-0.1,0.2-0.6,0.3-0.7c0.1-0.1-0.1-0.5-0.2-0.7c-0.1-0.2-0.5-0.3-0.6-0.2c-0.1,0.1-0.3-0.3-0.3-0.4s-0.4-0.3-0.4-0.4
												c-0.1-0.1,0.1-0.2,0.2-0.3c0.1-0.1,0.7,0.4,0.8,0.6c0.2,0.2,0.4,0.6,0.4,0.7c0.1,0.1,0.5,0.1,0.6,0
												c0.1-0.1,0.2-0.1,0.3,0.1h0.2l0.5-0.1c0.2,0.3,0.3,0.5,0.3,0.5s0.2,0.3,0.3,0.3c0.1,0,0.2,0.4,0.2,0.4
												c0.1,0.1,0.3,0.6,0.4,0.8c0.1,0.2,0.3,0.6,0.4,0.8c0.1,0.1,0.1,0.4,0.1,0.5s0.2,0.3,0.3,0.3c0.1,0,0.3-0.8,0.4-1
												c0.1-0.3,0.2-0.5,0.3-0.5s0.1-0.2,0.1-0.2c0-0.1,0.3-0.1,0.3-0.1c0-0.1,0.1-0.5,0.2-0.7c0.1-0.1,0.5-0.3,0.6-0.4
												c0.1-0.1,0.5,0.3,0.5,0.4c0.1,0.1,0.2,0.5,0.1,0.5c-0.1,0.1,0.2,0.4,0.4,0.3c0.2,0,0.2,0.2,0.2,0.3s0.2,0.3,0.3,0.4
												c0.1,0.1,0.1,0.4,0,0.5c-0.1,0.1,0,0.4,0,0.5c0.1,0.1,0.6,0.7,0.8,0.8c0.2,0.2,0.3-0.3,0.2-0.5c-0.1-0.2-0.5-0.5-0.5-0.7
												c-0.1-0.1-0.1-0.5-0.1-0.7c0.1-0.1,0.3,0.1,0.4,0.2s0.3,0.3,0.3,0.4c0,0.1,0.8-0.3,0.8-0.8c0.1-0.4,0.3-1,0.3-1.1
												s-0.1-0.3-0.1-0.3c-0.1,0,0.1-0.3,0.3-0.3s0.7-0.5,0.8-0.8c0.1-0.2,0.4-0.4,0.4-0.4c0.1,0,0.2-0.5,0.2-0.8
												c0.1-0.2-0.1-0.5-0.2-0.7c0-0.1-0.2-0.4-0.3-0.4c-0.1-0.1-0.1-0.4-0.1-0.4c0-0.1,0.2-0.1,0.2-0.2s0.2-0.3,0.2-0.4
												s0.1,0.1,0.2,0.2s0.2,0.6,0.3,0.7c0.1,0.1,0.6-0.6,0.5-1c-0.1-0.4,0.2-0.9,0.3-1c0.1-0.1,0.3-0.4,0.5-0.6
												c-1.1-3.2-2.9-5.9-5.2-8.2c-0.1,0-0.1,0-0.1,0l-0.2-0.1c-0.3-0.1-0.5-0.4-0.4-0.5c0,0,0-0.1,0-0.2
												c-0.2-0.2-0.3-0.3-0.5-0.4c-0.2,0-0.3,0-0.4,0c-0.2,0-0.6-0.1-0.7-0.2c-0.1-0.1-0.3,0.1-0.3,0.2c0,0.1-0.4,0.2-0.5,0.3
												c-0.1,0.1-0.3,0.1-0.3,0.1c-0.1-0.1-0.4,0.1-0.6,0.2c-0.2,0-0.5,0.2-0.7,0.2c-0.1,0.1-0.3,0.2-0.3,0.3
												c-0.1,0.1-0.3,0.2-0.4,0.3c-0.1,0.1-0.1,0.4,0.1,0.4c0.1,0.1-0.2-0.1-0.3-0.1c-0.1-0.1-0.3,0.2-0.3,0.2s-0.2-0.1-0.2-0.2
												s-0.3-0.2-0.4-0.1c-0.1,0.1-0.3-0.1-0.4-0.1c-0.1-0.1-0.5,0.4-0.7,0.5c-0.2,0.2-0.9,0.3-1,0.2s-0.3,0.3-0.2,0.3
												c0.1,0-0.3,0-0.5,0s-0.9,0.3-1,0.4c-0.2,0.1-0.3,0-0.3-0.1S39,26,38.9,25.9c-0.1,0-0.2,0.5-0.3,0.6
												c-0.1,0.1-0.3-0.4-0.6-0.5c-0.3-0.1-0.8-0.4-0.9-0.4c-0.1-0.1-0.4-0.3-0.5-0.4c-0.1-0.1-0.4-0.2-0.6-0.2
												c-0.1,0-0.5,0.2-0.6,0.3c-0.1,0.1-0.3,0.1-0.3,0.1s-0.5,0.5-0.7,0.6c-0.2,0.2-0.5,0.7-0.6,0.9c-0.1,0.2-0.2,0.2-0.3,0.2
												c-0.1,0-0.1,0.2-0.1,0.2s-0.5,0.3-0.5,0.5c-0.1,0.2,0.1,0.8,0.1,1c0,0.2,0.2,0.5,0.3,0.5c0.2,0,0.1,0.3,0.1,0.4
												c-0.1,0.1,0.1,0.2,0.1,0.3c0,0.1-0.4,0.2-0.5,0.2c-0.1,0.1-0.3,0.3-0.3,0.4c0,0.1-0.4,0.2-0.5,0.3
												c0.1-0.1,0.1-0.2,0.1-0.3c0.1-0.1,0-0.3-0.1-0.4c-0.1-0.1-0.1-0.7-0.2-0.8c-0.1-0.1-0.3-0.4-0.4-0.4
												c-0.1-0.1,0.1-0.2,0.1-0.3c0.1-0.1-0.3-0.1-0.4-0.1s-0.1,0.7-0.2,0.8c-0.1,0.2,0.2,0.4,0.2,0.4s0.1,0.3-0.1,0.3
												c-0.1,0-0.2,0.4-0.2,0.5s-0.1,0.3-0.2,0.3c-0.1,0.1,0.4,0,0.7,0s0.4,0.1,0.4,0.1s-0.4,0.1-0.5,0.2
												c-0.1,0.1-0.3,0.3-0.4,0.4c-0.1,0.1,0.1,0.2,0.2,0.2s0.3,0.4,0.3,0.5c0.1,0.1,0.1,0.3,0,0.3c-0.1,0.1-0.6-0.1-0.8,0
												c-0.2,0.1-0.5,0.5-0.5,0.7c0,0.2,0.1,0.7,0.1,0.8s0.5,0.2,0.5,0.3c0.1,0.1,0.5,0,0.6,0.1c0.1,0.1,0.4-0.4,0.4-0.7
												s0.5-0.6,0.6-0.8c0.1-0.2,0.6-0.1,0.7-0.2c0.1-0.1,0.1,0.4,0.1,0.6c0.1,0.2,0.5,0.2,0.4,0c-0.1-0.2,0.1-0.3,0.1-0.2
												c0,0.1,0.4,0.3,0.5,0.4c0.1,0.1,0.1,0.4-0.1,0.4s-0.1,0.3,0,0.3s0.2-0.3,0.4-0.4c0.1-0.1,0.2-0.3,0.2-0.3
												c-0.1,0,0.1-0.2,0.2-0.2c0.1,0.1-0.2-0.4-0.4-0.7c-0.2-0.2-0.1-0.1,0.3,0.2l0.2,0.3c0.1,0.1,0.1,0.3,0.2,0.3l0.1,0.1
												c0.1,0.1,0.1,0.4,0.1,0.5s0.2,0.3,0.3,0.3c0.1,0,0.2,0.1,0.2,0.1c0,0,0.1,0.2,0.2,0.2c0.1,0,0.2-0.3,0.1-0.3
												c-0.1,0-0.1-0.4-0.1-0.6c0-0.2,0.1-0.3,0.1-0.3c0.1,0,0,0.4,0,0.5s0.1,0.3,0.1,0.4l0.1,0.1l0.3,0.2
												c0.4-0.1,0.9,0,0.9,0.1s0.3,0.1,0.3-0.1c0-0.1,0.1,0,0.1,0.1s-0.3,0.4-0.3,0.6c-0.1,0.2-0.9,0.1-1.3,0
												c-0.4-0.1-0.9,0.1-1,0.2s-0.7-0.3-0.9-0.4c-0.3-0.1-0.5-0.5-0.5-0.6c-0.1-0.1,0.1-0.2,0-0.3c0-0.1-0.7-0.1-0.8-0.1
												c-0.2,0.1-1.1,0.2-1.4,0.3c-0.2,0.1-0.5,0-0.7,0s-0.3,0.3-0.5,0.3c-0.1,0.1-0.3,0.5-0.4,1l0.2,0.4l-0.1,0.2
												c-0.3,0.2-0.7,1-0.8,1.2s-0.2,1.3-0.2,1.7c0,0.4,0.3,1.2,0.4,1.4c0.1,0.2,0.7,0.7,0.9,0.8c0.2,0.1,0.8,0.1,1,0.1
												s0.4-0.2,0.5-0.4l0.3,0.1h0.1c0,0.2,0.4,0.3,0.5,0.4c0.1,0.1,0.4,0,0.5,0s0.2,0.8,0.1,1c-0.1,0.2,0.2,1,0.2,1.2
												c0.1,0.2,0.3,0.9,0.4,1.1c0,0.2-0.2,1-0.2,1.2c-0.1,0.3,0.3,1,0.4,1.3c0.1,0.3,0.2,0.8,0.2,0.9c0,0.1,0.4,0.9,0.5,1.2
												C35.4,50.3,36.4,50.4,36.6,50.3 M54.1,40.7c0,0.1,0.3-0.2,0.4-0.2s0.3-0.4,0.1-0.4c-0.1-0.1-0.3-0.3-0.4-0.4
												C54.1,39.6,54,39.8,54,40c0,0.1-0.3,0.2-0.3,0.3s-0.1,0.2,0,0.2C53.7,40.3,54,40.6,54.1,40.7 M53.7,42.9
												c0.1-0.1,0-0.4-0.2-0.5c-0.2-0.1-0.6,0.5-0.5,0.9c0.1,0.3,0.2,0.3,0.2,0.2c0.1-0.1,0.3,0.1,0.4,0.1s0.1-0.1,0-0.2
												C53.6,43.3,53.7,42.9,53.7,42.9 M52.9,42.5c0-0.2,0.1-0.6,0.1-0.7s-0.3-0.3-0.4-0.4c-0.1-0.1-0.5,0.9-0.9,1
												c-0.3,0.2-0.4,0.7-0.3,0.9c0.1,0.1,0.7,0.2,0.8,0.3c0.1,0.1,0.2,0,0.3-0.1c0.1,0,0.1-0.1,0-0.1c0,0,0.2-0.3,0.3-0.4
												C52.8,42.9,52.9,42.6,52.9,42.5 M51.1,44c-0.2-0.1-0.5,0.1-0.5,0.2s0.9,0.2,1.2,0.3s0.5,0.1,0.4,0.1
												C52.2,44.5,51.4,44.1,51.1,44 M53,37.9c0.1-0.1-0.1-0.6-0.2-0.5c-0.1,0.1,0,0.4,0,0.5C52.9,38,53,38,53,37.9 M53.6,38.9
												c0.1-0.1-0.1-0.3-0.3-0.3s-0.2,0.6-0.1,0.7C53.4,39.4,53.6,39.1,53.6,38.9 M54.7,42.8c0.3,0.2,0.8,0.1,0.8-0.2
												C55.3,42.3,54.7,42.4,54.7,42.8 M54.6,35.2c-0.1,0.1-0.2,0.3-0.1,0.3h-0.1c-0.1,0-0.1,0.3,0,0.4c0.1,0.1,0.3-0.3,0.4-0.3
												c0.1-0.1,0.3-0.1,0.4-0.1c0.1,0,0.2-0.1,0.4-0.1c0.1,0,0.1-0.1,0.1-0.2c-0.1-0.2-0.1-0.5-0.2-0.7
												c-0.1,0.1-0.2,0.2-0.3,0.2C55.2,34.9,54.7,35.1,54.6,35.2 M49,41.7L49,41.7C49,41.7,48.9,41.7,49,41.7 M50.5,43.1
												c-0.1-0.2-0.4-0.5-0.7-0.8l-0.1-0.2L49.6,42c-0.1-0.2-0.4-0.4-0.4-0.4c0-0.1-0.1,0.2-0.2,0.1c0.1,0.1,0.2,0.1,0.3,0.2
												c0.3,0.2,0.8,1.6,1,1.7C50.4,43.7,50.6,43.3,50.5,43.1 M46.1,40.9c-0.1,0.2,0.4,0.5,0.4,0.4c0.1-0.1-0.1-0.4-0.2-0.5
												C46.4,40.7,46.2,40.8,46.1,40.9 M39.8,48.3c0,0.2,0.3,0.3,0.4,0.3s0.4-0.5,0.4-0.7c0.1-0.2,0.1-0.4,0.1-0.5
												c0-0.1,0.1-0.2,0.1-0.3c0.1,0,0.1-0.2,0.1-0.4c0.1-0.2-0.2-1-0.2-1.2c0-0.2-0.2,0.1-0.2,0.2s-0.5,0.5-0.6,0.6
												c-0.1,0.1-0.2,0.6-0.2,0.7c0.1,0.1-0.1,0.4-0.1,0.4C39.6,47.5,39.7,48.1,39.8,48.3 M24.2,54.2h0.3
												C24.5,53.9,24.2,54,24.2,54.2 M31.9,21.5c-0.1,0-0.4-0.1-0.5-0.1c-0.1-0.1-0.5-0.1-0.7-0.1c-0.2,0.1-0.1-0.3,0.2-0.4
												c0.2-0.1,0.1-0.3-0.2-0.3c-0.2,0-0.7-0.1-0.8-0.1s-0.3-0.1-0.4-0.1s-0.7,0.2-1,0.2c-0.3,0-1,0-1.1,0.1
												c-0.2,0.1-0.3,0.3-0.2,0.4c0,0.1-0.7,0.1-0.9,0.1c-0.2,0-1.4,0.3-1.7,0.4c-0.3,0.2-0.5,0.6-0.4,0.6s-0.2,0.3-0.3,0.3
												c-0.2,0.1-0.5,0.1-0.7,0.2c-0.1,0.1,0.1,0.2,0.1,0.2c0.1,0.1,0.2-0.1,0.3,0s0.4,0.1,0.5,0.1c0.1,0.1-0.3,0.1-0.5,0.1
												c-0.2,0-0.2,0.4,0,0.4c0.2,0.1,0.5,0.1,0.5,0.1c0.1-0.1,0.4,0.1,0.7,0.1c0.2,0,0.3,0.5,0.4,0.6s0.1,0.4,0.1,0.5
												s0.3,0.3,0.4,0.2c0.1-0.1,0.1,0.2-0.1,0.2c-0.1,0-0.1,0.4,0.1,0.4c0.2,0.1,0.1,0.3-0.1,0.4c-0.1,0.1-0.1,0.3-0.2,0.4
												c-0.1,0.1,0.3,0.9,0.3,1.2c0,0.4,0.3,0.7,0.3,0.7c0.1,0,0.4,0.1,0.5,0.2c0.1,0.1,0.2-0.1,0.3-0.1
												c0.1-0.1,0.2-0.3,0.3-0.4c0.1-0.2,0.3-1,0.4-1C27.6,27,27.9,27,28,27c0.1-0.1,0.3-0.2,0.4-0.3c0.1-0.1,0.6-0.3,0.8-0.4
												s0.4-0.5,0.5-0.7s-0.1-0.1-0.2-0.2c-0.2-0.1-0.1-0.2-0.1-0.3c0.1-0.1,0.5,0.1,0.6,0.1c0.2,0.1,0.4-0.2,0.3-0.2
												s-0.1-0.1,0-0.1c0.1,0.1,0.1-0.3,0.1-0.3s0.4-0.4,0.3-0.8s0.1-0.7,0.3-0.7c0.1,0,0.1-0.4-0.1-0.4s0-0.1,0.1-0.1
												c0.1-0.1,0.1-0.4,0.1-0.4c-0.1-0.1,0.2-0.2,0.3-0.2c0.1-0.1,0.4-0.2,0.5-0.3C32,21.9,32.1,21.5,31.9,21.5 M34.7,21.9
												c-0.2-0.1-0.4,0.1-0.4,0.2c0.1,0.1-0.3-0.1-0.4,0c-0.2,0.1-0.3,0.4-0.2,0.5s0.2,0.3,0.2,0.4s0.4,0,0.5-0.1
												c0.1-0.1,0.1,0.3,0,0.4s0.1,0.3,0.2,0.3c0.1,0,0.3,0.3,0.4,0.3s0.3-0.4,0.3-0.6c0.1-0.2,0.4-0.1,0.6,0s0.2-0.6,0.1-0.7
												c-0.2-0.1-0.4-0.1-0.5-0.1c-0.1-0.1-0.2-0.2-0.3-0.2C34.9,22.3,34.8,21.9,34.7,21.9 M36.2,22.1c0.3,0.1,0.7-0.2,0.7-0.3
												c0.1-0.1-0.8-0.3-1.1-0.3c-0.3,0-0.6,0.1-0.6,0.1C35.1,21.8,35.9,22.1,36.2,22.1 M30.7,30.2c-0.1-0.1-0.1,0.3-0.1,0.4
												s0.3,0.1,0.4,0.1c0.1,0,0.2-0.1,0.2-0.2S31.1,30,31,30C31,30,30.8,30.2,30.7,30.2 M31.6,26.8c-0.1-0.1-0.5-0.1-0.7-0.1
												s-0.5-0.1-0.5-0.2c-0.1-0.1-0.1,0.3-0.2,0.3c-0.1,0.1,0.1,0.1,0.1,0.1c0.1-0.1,0,0.2-0.1,0.3c-0.1,0.1,0.3,0.1,0.4,0.3
												c0.1,0.1,0.2,0.2,0.3,0.2c0.2,0,0.4-0.2,0.5-0.2C31.5,27.4,31.6,26.9,31.6,26.8 M41.4,24.1c0.2-0.2,0.8-0.4,0.9-0.5
												c0.1-0.2-0.1-0.3-0.1-0.3s-0.2,0.1-0.2,0.1c0,0.1-0.8,0.2-1,0.3c-0.2,0.1-0.5,0.3-0.6,0.4c-0.1,0.1-0.3,0.9-0.3,0.9
												c-0.1,0.1,0.3,0.4,0.4,0.5c0.2,0.1,0.3,0.1,0.4,0c0.1,0-0.1-0.5-0.2-0.7C40.7,24.6,41.3,24.3,41.4,24.1 M40.6,22.1
												c0.3,0.3,0.4-0.1,0.7-0.1C41.3,21.5,40.6,21.8,40.6,22.1 M45.4,22.3c0,0.1,0.7,0.2,0.9,0.1c0.2-0.1-0.1-0.4-0.3-0.3
												C45.7,22,45.5,22.1,45.4,22.3 M20.2,27.4c-0.1,0.1,0,0.4,0.1,0.4c0.2,0,0.4-0.5,0.5-0.4c0.2,0.1,0.3,0.2,0.3,0.1
												c-0.1-0.1-0.5-0.3-0.6-0.3C20.5,27.2,20.3,27.4,20.2,27.4 M22,39c0,0.1,0.3,0.1,0.4-0.1s0-0.2-0.1-0.2
												C22.2,38.8,22,38.9,22,39 M20.6,38.5c0.2-0.1,0.1,0.2,0.1,0.3c0.1,0.1,0.4,0.2,0.4,0.2c0.1,0.1,0.3-0.1,0.4-0.1
												c0.2,0-0.1-0.5-0.3-0.5c-0.2,0-0.4-0.2-0.5-0.2s-0.3-0.2-0.4-0.3c-0.1-0.1-0.7-0.1-0.9-0.1c-0.2,0-0.4,0.2-0.4,0.3
												c-0.1,0.1,0.3,0.1,0.4,0.1c0.1-0.1,0.6,0.1,0.7,0.2C20.3,38.5,20.5,38.5,20.6,38.5 M20,39c0,0.1,0.3,0,0.4,0
												s0.1-0.1,0-0.1C20.3,38.9,20,38.9,20,39 M20.2,37.4c-0.1-0.1-0.2,0.1-0.2,0.2s0.1,0.1,0.1,0.1S20.3,37.5,20.2,37.4
												 M20.8,37.5c-0.1-0.1-0.2-0.1-0.2-0.1s-0.1,0.1-0.1,0.2C20.6,37.7,20.9,37.5,20.8,37.5 M21.3,38.2
												c0.1-0.1,0.2-0.2,0.1-0.2c-0.1,0-0.2-0.2-0.3-0.3c-0.1-0.1-0.2,0.1-0.2,0.2c0,0.1,0.1,0.1,0.1,0.1
												C21.1,38.1,21.2,38.3,21.3,38.2 M55.6,43c-0.1,0.1-0.4,0.1-0.4,0c-0.1-0.1-0.1,0.1-0.2,0.2c-0.1,0.1-0.1,0.2,0.1,0.2
												c0.1-0.1,0.4,0.1,0.6,0.3c0.1-0.2,0.1-0.5,0.1-0.7C55.8,42.9,55.7,43,55.6,43"/>
										</defs>
										<clipPath id="SVGID_30_">
											<use xlink:href="#SVGID_29_"  style="overflow:visible;"/>
										</clipPath>
										
											<radialGradient id="SVGID_31_" cx="113.1768" cy="-528.3181" r="9.977743e-02" gradientTransform="matrix(247.8174 0 0 247.8174 -28012.7266 130960.8438)" gradientUnits="userSpaceOnUse">
											<stop  offset="0" style="stop-color:#66A8DE"/>
											<stop  offset="0.2169" style="stop-color:#69AADF"/>
											<stop  offset="0.3788" style="stop-color:#72AEE0"/>
											<stop  offset="0.5228" style="stop-color:#82B4E1"/>
											<stop  offset="0.6565" style="stop-color:#97BEE3"/>
											<stop  offset="0.7829" style="stop-color:#AFCAE5"/>
											<stop  offset="0.9023" style="stop-color:#CCD9E7"/>
											<stop  offset="1" style="stop-color:#E6E7E8"/>
										</radialGradient>
										<rect x="14" y="20.6" class="st11" width="41.8" height="34.9"/>
									</g>
								</g>
							</g>
						</g>
					</g>
				</g>
				<g>
					<defs>
						<rect id="SVGID_32_" x="-4.9" y="0.9" width="79.8" height="79.8"/>
					</defs>
					<clipPath id="SVGID_33_">
						<use xlink:href="#SVGID_32_"  style="overflow:visible;"/>
					</clipPath>
					<g class="st12">
						<g>
							<g>
								<defs>
									<rect id="SVGID_34_" x="19" y="18.6" width="31.7" height="26.7"/>
								</defs>
								<clipPath id="SVGID_35_">
									<use xlink:href="#SVGID_34_"  style="overflow:visible;"/>
								</clipPath>
								<path class="st13" d="M50.8,31.9c0,7.4-7.1,13.4-15.9,13.4s-15.9-6-15.9-13.4S26.2,18.6,35,18.6
									C43.7,18.6,50.8,24.5,50.8,31.9"/>
							</g>
						</g>
					</g>
				</g>
				<g>
					<defs>
						<rect id="SVGID_36_" x="-4.9" y="0.9" width="79.8" height="79.8"/>
					</defs>
					<clipPath id="SVGID_37_">
						<use xlink:href="#SVGID_36_"  style="overflow:visible;"/>
					</clipPath>
					<g class="st14">
						<g>
							<g>
								<defs>
									<rect id="SVGID_38_" x="21.9" y="18.4" width="18.5" height="41.2"/>
								</defs>
								<clipPath id="SVGID_39_">
									<use xlink:href="#SVGID_38_"  style="overflow:visible;"/>
								</clipPath>
								<path class="st15" d="M40.4,18.9c-0.3-0.2-0.7-0.3-1.1-0.3c-3.3-0.7-6.7,0.9-9.8,4.2c-2.9,3.3-5.4,8.1-6.7,13.7l0,0
									c-1.3,5.6-1.2,11.1,0.1,15.3c1.1,3.9,3.2,6.6,6,7.7c-2.7-1.1-4.7-3.9-5.9-7.7c-1.2-4.2-1.4-9.6-0.1-15.3l0,0
									c1.3-5.6,3.8-10.5,6.7-13.7c3-3.3,6.5-5,9.8-4.2C39.7,18.7,40.1,18.8,40.4,18.9"/>
							</g>
						</g>
					</g>
				</g>
				<g>
					<defs>
						<rect id="SVGID_40_" x="-4.9" y="0.9" width="79.8" height="79.8"/>
					</defs>
					<clipPath id="SVGID_41_">
						<use xlink:href="#SVGID_40_"  style="overflow:visible;"/>
					</clipPath>
					<g class="st16">
						<g>
							<g>
								<defs>
									<rect id="SVGID_42_" x="14.5" y="39.4" width="41.7" height="15.3"/>
								</defs>
								<clipPath id="SVGID_43_">
									<use xlink:href="#SVGID_42_"  style="overflow:visible;"/>
								</clipPath>
								<path class="st17" d="M14.5,45.1c0,0.4,0.1,0.8,0.1,1.1c0.7,3.3,3.6,5.8,7.8,7.2c4.1,1.4,9.6,1.7,15.3,0.7l0,0
									c5.7-1.1,10.6-3.3,13.9-6.1c3-2.6,4.8-5.6,4.6-8.5c0.1,2.9-1.6,5.9-4.6,8.4c-3.3,2.8-8.3,5.1-13.9,6.1l0,0
									C32,55,26.6,54.6,22.4,53.3c-4.2-1.4-7.1-3.9-7.8-7.2C14.6,45.7,14.5,45.4,14.5,45.1"/>
							</g>
						</g>
					</g>
				</g>
				<g>
					<defs>
						<rect id="SVGID_44_" x="-4.9" y="0.9" width="79.8" height="79.8"/>
					</defs>
					<clipPath id="SVGID_45_">
						<use xlink:href="#SVGID_44_"  style="overflow:visible;"/>
					</clipPath>
					<g class="st18">
						<g>
							<g>
								<defs>
									<rect id="SVGID_46_" x="17.8" y="22.6" width="27" height="36.6"/>
								</defs>
								<clipPath id="SVGID_47_">
									<use xlink:href="#SVGID_46_"  style="overflow:visible;"/>
								</clipPath>
								<path class="st19" d="M22.2,22.6c-0.3,0.2-0.7,0.4-1,0.6c-2.7,2-3.8,5.6-3.4,10.1c0.4,4.3,2.4,9.5,5.8,14.2l0,0
									C27,52.2,31,55.8,35,57.7c3.6,1.7,7.1,2.1,9.7,0.7c-2.6,1.3-6,0.9-9.6-0.8c-3.9-1.9-8-5.4-11.4-10.2l0,0
									c-3.3-4.7-5.3-9.8-5.8-14.2c-0.5-4.5,0.6-8.1,3.4-10.1C21.6,23,21.9,22.8,22.2,22.6"/>
							</g>
						</g>
					</g>
				</g>
				<g>
					<defs>
						<rect id="SVGID_48_" x="-4.9" y="0.9" width="79.8" height="79.8"/>
					</defs>
					<clipPath id="SVGID_49_">
						<use xlink:href="#SVGID_48_"  style="overflow:visible;"/>
					</clipPath>
					<g class="st20">
						<g>
							<g>
								<defs>
									<rect id="SVGID_50_" x="19.9" y="30.1" width="7.4" height="7.4"/>
								</defs>
								<clipPath id="SVGID_51_">
									<use xlink:href="#SVGID_50_"  style="overflow:visible;"/>
								</clipPath>
								<path class="st21" d="M23.6,36.2c-1.3,0-2.3-1-2.3-2.3c0-1.3,1-2.3,2.3-2.3c1.3,0,2.3,1,2.3,2.3
									C26,35.2,24.9,36.2,23.6,36.2 M23.6,31.5c-1.3,0-2.3,1-2.3,2.3s1,2.3,2.3,2.3c1.3,0,2.3-1,2.3-2.3S24.9,31.5,23.6,31.5"/>
							</g>
							<g>
								<defs>
									<rect id="SVGID_52_" x="19.9" y="30.1" width="7.4" height="7.4"/>
								</defs>
								<clipPath id="SVGID_53_">
									<use xlink:href="#SVGID_52_"  style="overflow:visible;"/>
								</clipPath>
								<path class="st22" d="M23.6,37.6c-2.1,0-3.7-1.7-3.7-3.7s1.7-3.7,3.7-3.7s3.7,1.7,3.7,3.7C27.4,35.9,25.7,37.6,23.6,37.6
									 M23.6,30.2c-2,0-3.7,1.6-3.7,3.7c0,2,1.6,3.7,3.7,3.7c2,0,3.7-1.6,3.7-3.7S25.7,30.2,23.6,30.2"/>
							</g>
							<g>
								<defs>
									<rect id="SVGID_54_" x="19.9" y="30.1" width="7.4" height="7.4"/>
								</defs>
								<clipPath id="SVGID_55_">
									<use xlink:href="#SVGID_54_"  style="overflow:visible;"/>
								</clipPath>
								<path class="st23" d="M23.6,35c-0.7,0-1.1-0.5-1.1-1.1c0-0.7,0.5-1.1,1.1-1.1c0.7,0,1.1,0.5,1.1,1.1
									C24.8,34.5,24.3,35,23.6,35 M23.6,32.7c-0.7,0-1.1,0.5-1.1,1.1c0,0.7,0.5,1.1,1.1,1.1c0.7,0,1.1-0.5,1.1-1.1
									S24.3,32.7,23.6,32.7"/>
							</g>
						</g>
					</g>
				</g>
				<g>
					<defs>
						<rect id="SVGID_56_" x="-4.9" y="0.9" width="79.8" height="79.8"/>
					</defs>
					<clipPath id="SVGID_57_">
						<use xlink:href="#SVGID_56_"  style="overflow:visible;"/>
					</clipPath>
					<g class="st24">
						<g>
							<g>
								<defs>
									<rect id="SVGID_58_" x="46" y="33.9" width="6.4" height="6.4"/>
								</defs>
								<clipPath id="SVGID_59_">
									<use xlink:href="#SVGID_58_"  style="overflow:visible;"/>
								</clipPath>
								<path class="st25" d="M49.1,39.3c-1.2,0-2.1-1-2.1-2.1c0-1.2,1-2.1,2.1-2.1c1.2,0,2.1,1,2.1,2.1
									C51.3,38.3,50.3,39.3,49.1,39.3 M49.1,35c-1.2,0-2.1,1-2.1,2.1c0,1.2,1,2.1,2.1,2.1c1.2,0,2.1-1,2.1-2.1S50.3,35,49.1,35"/>
							</g>
							<g>
								<defs>
									<rect id="SVGID_60_" x="46" y="33.9" width="6.4" height="6.4"/>
								</defs>
								<clipPath id="SVGID_61_">
									<use xlink:href="#SVGID_60_"  style="overflow:visible;"/>
								</clipPath>
								<path class="st26" d="M49.1,40.2c-1.7,0-3.2-1.4-3.2-3.2s1.4-3.2,3.2-3.2s3.2,1.4,3.2,3.2C52.3,38.8,50.9,40.2,49.1,40.2
									 M49.1,33.9c-1.7,0-3.2,1.4-3.2,3.2s1.4,3.2,3.2,3.2s3.2-1.4,3.2-3.2C52.3,35.3,50.9,33.9,49.1,33.9"/>
							</g>
							<g>
								<defs>
									<rect id="SVGID_62_" x="46" y="33.9" width="6.4" height="6.4"/>
								</defs>
								<clipPath id="SVGID_63_">
									<use xlink:href="#SVGID_62_"  style="overflow:visible;"/>
								</clipPath>
								<path class="st27" d="M49.1,38.4c-0.7,0-1.3-0.6-1.3-1.3s0.6-1.3,1.3-1.3c0.7,0,1.3,0.6,1.3,1.3
									C50.4,37.8,49.8,38.4,49.1,38.4 M49.1,35.8c-0.7,0-1.2,0.5-1.2,1.2s0.5,1.2,1.2,1.2c0.7,0,1.2-0.5,1.2-1.2
									C50.4,36.4,49.8,35.8,49.1,35.8"/>
							</g>
						</g>
					</g>
				</g>
				<g>
					<defs>
						<rect id="SVGID_64_" x="-4.9" y="0.9" width="79.8" height="79.8"/>
					</defs>
					<clipPath id="SVGID_65_">
						<use xlink:href="#SVGID_64_"  style="overflow:visible;"/>
					</clipPath>
					<g class="st28">
						<g>
							<g>
								<defs>
									<rect id="SVGID_66_" x="44.5" y="49.5" width="3.3" height="3.3"/>
								</defs>
								<clipPath id="SVGID_67_">
									<use xlink:href="#SVGID_66_"  style="overflow:visible;"/>
								</clipPath>
								<path class="st29" d="M46.1,52.7c-0.9,0-1.6-0.8-1.6-1.6c0-0.9,0.8-1.6,1.6-1.6c0.9,0,1.6,0.8,1.6,1.6
									C47.8,52,47,52.7,46.1,52.7 M46.1,49.5c-0.9,0-1.6,0.7-1.6,1.6c0,0.9,0.7,1.6,1.6,1.6c0.9,0,1.6-0.7,1.6-1.6
									C47.8,50.2,47,49.5,46.1,49.5"/>
							</g>
							<g>
								<defs>
									<rect id="SVGID_68_" x="44.5" y="49.5" width="3.3" height="3.3"/>
								</defs>
								<clipPath id="SVGID_69_">
									<use xlink:href="#SVGID_68_"  style="overflow:visible;"/>
								</clipPath>
								<path class="st30" d="M46.1,52.1c-0.5,0-1-0.4-1-1c0-0.5,0.4-1,1-1c0.5,0,1,0.4,1,1C47.1,51.6,46.7,52.1,46.1,52.1
									 M46.1,50.1c-0.5,0-1,0.4-1,1s0.4,1,1,1c0.5,0,1-0.4,1-1C47.1,50.5,46.7,50.1,46.1,50.1"/>
							</g>
						</g>
					</g>
				</g>
				<g>
					<defs>
						<rect id="SVGID_70_" x="-4.9" y="0.9" width="79.8" height="79.8"/>
					</defs>
					<clipPath id="SVGID_71_">
						<use xlink:href="#SVGID_70_"  style="overflow:visible;"/>
					</clipPath>
					<g class="st31">
						<g>
							<g>
								<defs>
									<rect id="SVGID_72_" x="28.1" y="52.4" width="4.6" height="4.6"/>
								</defs>
								<clipPath id="SVGID_73_">
									<use xlink:href="#SVGID_72_"  style="overflow:visible;"/>
								</clipPath>
								<path class="st32" d="M30.4,57c-1.2,0-2.3-1-2.3-2.3c0-1.2,1-2.3,2.3-2.3s2.3,1,2.3,2.3C32.7,56,31.7,57,30.4,57 M30.4,52.4
									c-1.2,0-2.3,1-2.3,2.3c0,1.2,1,2.3,2.3,2.3s2.3-1,2.3-2.3C32.7,53.4,31.6,52.4,30.4,52.4"/>
							</g>
							<g>
								<defs>
									<rect id="SVGID_74_" x="28.1" y="52.4" width="4.6" height="4.6"/>
								</defs>
								<clipPath id="SVGID_75_">
									<use xlink:href="#SVGID_74_"  style="overflow:visible;"/>
								</clipPath>
								<path class="st33" d="M30.4,56.1c-0.8,0-1.4-0.6-1.4-1.4c0-0.8,0.6-1.4,1.4-1.4c0.8,0,1.4,0.6,1.4,1.4
									C31.8,55.4,31.2,56.1,30.4,56.1 M30.4,53.4c-0.8,0-1.4,0.6-1.4,1.4c0,0.8,0.6,1.4,1.4,1.4c0.8,0,1.4-0.6,1.4-1.4
									C31.8,54,31.2,53.4,30.4,53.4"/>
							</g>
						</g>
					</g>
				</g>
				<g>
					<defs>
						<rect id="SVGID_76_" x="-4.9" y="0.9" width="79.8" height="79.8"/>
					</defs>
					<clipPath id="SVGID_77_">
						<use xlink:href="#SVGID_76_"  style="overflow:visible;"/>
					</clipPath>
					<g class="st34">
						<g>
							<g>
								<defs>
									<rect id="SVGID_78_" x="31.5" y="15.5" width="17.6" height="46.9"/>
								</defs>
								<clipPath id="SVGID_79_">
									<use xlink:href="#SVGID_78_"  style="overflow:visible;"/>
								</clipPath>
								<path class="st35" d="M47.4,23.1c-1.6-4.6-4.1-7.3-7-7.6c-2.1-0.2-4.2,0.6-6.2,2.9c0.1,0,0.2,0,0.2,0c2-2.1,3.9-2.9,6-2.7
									c2.8,0.3,5.2,2.9,6.8,7.5c1.6,4.6,2.2,10.6,1.5,16.9c-0.7,6.2-2.4,12.1-5,16.2c-2.5,4.1-5.4,6.2-8.3,5.9
									c-1.3-0.2-2.6-0.8-3.6-1.9c-0.1,0-0.2-0.1-0.3-0.1c1.2,1.2,2.5,2,3.9,2.1c0.2,0,0.4,0.1,0.5,0.1c2.7,0,5.5-2.1,7.9-6
									c2.6-4.2,4.3-10,5-16.3C49.5,33.8,49,27.7,47.4,23.1"/>
							</g>
						</g>
					</g>
				</g>
				<g>
					<defs>
						<rect id="SVGID_80_" x="-4.9" y="0.9" width="79.8" height="79.8"/>
					</defs>
					<clipPath id="SVGID_81_">
						<use xlink:href="#SVGID_80_"  style="overflow:visible;"/>
					</clipPath>
					<g class="st36">
						<g>
							<g>
								<defs>
									<rect id="SVGID_82_" x="14.2" y="17.8" width="39.5" height="39.5"/>
								</defs>
								<clipPath id="SVGID_83_">
									<use xlink:href="#SVGID_82_"  style="overflow:visible;"/>
								</clipPath>
								<path class="st37" d="M51.8,19.6c-2.2-2.2-6.1-2.4-11-0.7c-0.1,0-0.2,0.1-0.2,0.1c0.1,0.1,0.2,0.1,0.3,0.1
									c4.8-1.7,8.7-1.5,10.8,0.6s2.3,6,0.6,10.9c-1.8,4.9-5.4,10.3-10.2,15.2C37.3,50.5,32,54.2,27,56c-4.8,1.7-8.7,1.5-10.9-0.6
									c-1.9-1.9-2.3-5.2-1.1-9.2c0-0.1-0.1-0.2-0.1-0.3c-1.2,4.3-0.9,7.7,1.1,9.7c1.2,1.2,3,1.8,5.1,1.8c1.7,0,3.7-0.4,5.9-1.2
									c5-1.8,10.4-5.4,15.2-10.3l0,0C47,41,50.7,35.7,52.4,30.7C54.3,25.8,54.1,21.8,51.8,19.6"/>
							</g>
						</g>
					</g>
				</g>
				<g>
					<defs>
						<rect id="SVGID_84_" x="-4.9" y="0.9" width="79.8" height="79.8"/>
					</defs>
					<clipPath id="SVGID_85_">
						<use xlink:href="#SVGID_84_"  style="overflow:visible;"/>
					</clipPath>
					<g class="st38">
						<g>
							<g>
								<defs>
									<rect id="SVGID_86_" x="11.1" y="33.2" width="45.6" height="17.8"/>
								</defs>
								<clipPath id="SVGID_87_">
									<use xlink:href="#SVGID_86_"  style="overflow:visible;"/>
								</clipPath>
								<path class="st39" d="M50.5,37.7c-4.2-2.3-9.8-3.9-15.9-4.3l0,0c-6.1-0.4-11.9,0.2-16.4,1.9c-4.4,1.7-7,4.1-7.2,6.9
									c-0.2,2.7,1.8,5.4,5.6,7.7l-0.2-0.3c-3.6-2.2-5.4-4.8-5.3-7.3c0.2-2.7,2.7-5.1,7.1-6.8c4.5-1.7,10.3-2.4,16.3-1.9l0,0
									c6.1,0.4,11.7,2,15.9,4.3c4,2.3,6.1,5.1,6,7.8c-0.2,1.8-1.3,3.6-3.5,5.1c-0.1,0.1-0.2,0.2-0.2,0.3c0.6-0.4,1-0.8,1.5-1.1
									c1.5-1.2,2.3-2.7,2.4-4.2C56.8,42.8,54.7,40,50.5,37.7"/>
							</g>
						</g>
					</g>
				</g>
				<g>
					<defs>
						<rect id="SVGID_88_" x="-4.9" y="0.9" width="79.8" height="79.8"/>
					</defs>
					<clipPath id="SVGID_89_">
						<use xlink:href="#SVGID_88_"  style="overflow:visible;"/>
					</clipPath>
					<g class="st40">
						<g>
							<g>
								<defs>
									<rect id="SVGID_90_" x="28.9" y="53.3" width="3" height="3"/>
								</defs>
								<clipPath id="SVGID_91_">
									<use xlink:href="#SVGID_90_"  style="overflow:visible;"/>
								</clipPath>
								<g class="st41">
									<g>
										<defs>
											<path id="SVGID_92_" d="M30.2,56.3c-0.8-0.2-1.4-0.9-1.2-1.7s0.9-1.4,1.7-1.2c0.8,0.1,1.4,0.9,1.2,1.7
												C31.8,55.9,31,56.4,30.2,56.3"/>
										</defs>
										<clipPath id="SVGID_93_">
											<use xlink:href="#SVGID_92_"  style="overflow:visible;"/>
										</clipPath>
										
											<radialGradient id="SVGID_94_" cx="98.7403" cy="-495.9364" r="9.972312e-02" gradientTransform="matrix(-2.2467 14.9313 -14.9313 -2.2467 -7152.7207 -2533.7393)" gradientUnits="userSpaceOnUse">
											<stop  offset="0" style="stop-color:#FFFFFF"/>
											<stop  offset="1" style="stop-color:#08080A"/>
										</radialGradient>
										<polygon class="st42" points="32.5,53.3 32,56.9 28.3,56.4 28.9,52.7 										"/>
									</g>
								</g>
							</g>
						</g>
					</g>
				</g>
				<g>
					<defs>
						<rect id="SVGID_95_" x="-4.9" y="0.9" width="79.8" height="79.8"/>
					</defs>
					<clipPath id="SVGID_96_">
						<use xlink:href="#SVGID_95_"  style="overflow:visible;"/>
					</clipPath>
					<g class="st43">
						<g>
							<g>
								<defs>
									<rect id="SVGID_97_" x="47.7" y="35.6" width="3" height="3"/>
								</defs>
								<clipPath id="SVGID_98_">
									<use xlink:href="#SVGID_97_"  style="overflow:visible;"/>
								</clipPath>
								<g class="st44">
									<g>
										<defs>
											<path id="SVGID_99_" d="M48.9,38.5c-0.8-0.1-1.4-0.9-1.2-1.7c0.1-0.8,0.9-1.4,1.7-1.2c0.8,0.1,1.4,0.9,1.2,1.7
												C50.5,38.1,49.7,38.7,48.9,38.5"/>
										</defs>
										<clipPath id="SVGID_100_">
											<use xlink:href="#SVGID_99_"  style="overflow:visible;"/>
										</clipPath>
										
											<radialGradient id="SVGID_101_" cx="110.8617" cy="-486.4278" r="9.977743e-02" gradientTransform="matrix(-2.2466 14.9306 -14.9306 -2.2466 -6964.4487 -2710.9585)" gradientUnits="userSpaceOnUse">
											<stop  offset="0" style="stop-color:#FFFFFF"/>
											<stop  offset="1" style="stop-color:#08080A"/>
										</radialGradient>
										<polygon class="st45" points="51.3,35.6 50.7,39.2 47.1,38.6 47.6,35 										"/>
									</g>
								</g>
							</g>
						</g>
					</g>
				</g>
				<g>
					<defs>
						<rect id="SVGID_102_" x="-4.9" y="0.9" width="79.8" height="79.8"/>
					</defs>
					<clipPath id="SVGID_103_">
						<use xlink:href="#SVGID_102_"  style="overflow:visible;"/>
					</clipPath>
					<g class="st46">
						<g>
							<g>
								<defs>
									<rect id="SVGID_104_" x="22" y="32.4" width="3" height="3"/>
								</defs>
								<clipPath id="SVGID_105_">
									<use xlink:href="#SVGID_104_"  style="overflow:visible;"/>
								</clipPath>
								<g class="st47">
									<g>
										<defs>
											<path id="SVGID_106_" d="M23.3,35.3c-0.8-0.1-1.4-0.9-1.2-1.7c0.1-0.8,0.9-1.4,1.7-1.2c0.8,0.1,1.4,0.9,1.2,1.7
												C24.9,34.9,24.1,35.5,23.3,35.3"/>
										</defs>
										<clipPath id="SVGID_107_">
											<use xlink:href="#SVGID_106_"  style="overflow:visible;"/>
										</clipPath>
										
											<radialGradient id="SVGID_108_" cx="110.5244" cy="-501.8608" r="9.977743e-02" gradientTransform="matrix(-2.2466 14.9308 -14.9308 -2.2466 -7221.3438 -2743.8296)" gradientUnits="userSpaceOnUse">
											<stop  offset="0" style="stop-color:#FFFFFF"/>
											<stop  offset="1" style="stop-color:#08080A"/>
										</radialGradient>
										<polygon class="st48" points="25.6,32.4 25.1,35.9 21.4,35.4 22,31.8 										"/>
									</g>
								</g>
							</g>
						</g>
					</g>
				</g>
				<g>
					<defs>
						<rect id="SVGID_109_" x="-4.9" y="0.9" width="79.8" height="79.8"/>
					</defs>
					<clipPath id="SVGID_110_">
						<use xlink:href="#SVGID_109_"  style="overflow:visible;"/>
					</clipPath>
					<g class="st49">
						<g>
							<g>
								<defs>
									<rect id="SVGID_111_" x="29.1" y="20.9" width="2" height="2"/>
								</defs>
								<clipPath id="SVGID_112_">
									<use xlink:href="#SVGID_111_"  style="overflow:visible;"/>
								</clipPath>
								<g class="st50">
									<g>
										<defs>
											<path id="SVGID_113_" d="M29.9,22.9c-0.5-0.1-0.9-0.6-0.8-1.1c0.1-0.5,0.6-0.9,1.1-0.8c0.5,0.1,0.9,0.6,0.8,1.1
												C30.9,22.6,30.4,23,29.9,22.9"/>
										</defs>
										<clipPath id="SVGID_114_">
											<use xlink:href="#SVGID_113_"  style="overflow:visible;"/>
										</clipPath>
										
											<radialGradient id="SVGID_115_" cx="119.8064" cy="-483.1766" r="9.972312e-02" gradientTransform="matrix(-1.4464 9.6126 -9.6126 -1.4464 -4441.2432 -1828.5986)" gradientUnits="userSpaceOnUse">
											<stop  offset="0" style="stop-color:#FFFFFF"/>
											<stop  offset="1" style="stop-color:#08080A"/>
										</radialGradient>
										<polygon class="st51" points="31.4,20.9 31,23.3 28.7,22.9 29,20.6 										"/>
									</g>
								</g>
							</g>
						</g>
					</g>
				</g>
				<g>
					<defs>
						<rect id="SVGID_116_" x="-4.9" y="0.9" width="79.8" height="79.8"/>
					</defs>
					<clipPath id="SVGID_117_">
						<use xlink:href="#SVGID_116_"  style="overflow:visible;"/>
					</clipPath>
					<g class="st52">
						<g>
							<g>
								<defs>
									<rect id="SVGID_118_" x="17.3" y="34.4" width="2" height="2"/>
								</defs>
								<clipPath id="SVGID_119_">
									<use xlink:href="#SVGID_118_"  style="overflow:visible;"/>
								</clipPath>
								<g class="st53">
									<g>
										<defs>
											<path id="SVGID_120_" d="M18.2,36.3c-0.5-0.1-0.9-0.6-0.8-1.1c0.1-0.5,0.6-0.9,1.1-0.8c0.5,0.1,0.9,0.6,0.8,1.1
												C19.2,36,18.7,36.4,18.2,36.3"/>
										</defs>
										<clipPath id="SVGID_121_">
											<use xlink:href="#SVGID_120_"  style="overflow:visible;"/>
										</clipPath>
										
											<radialGradient id="SVGID_122_" cx="105.8941" cy="-492.1266" r="9.972747e-02" gradientTransform="matrix(-1.4464 9.6128 -9.6128 -1.4464 -4559.2563 -1694.3756)" gradientUnits="userSpaceOnUse">
											<stop  offset="0" style="stop-color:#FFFFFF"/>
											<stop  offset="1" style="stop-color:#08080A"/>
										</radialGradient>
										<polygon class="st54" points="19.6,34.4 19.3,36.7 16.9,36.4 17.3,34 										"/>
									</g>
								</g>
							</g>
						</g>
					</g>
				</g>
				<g>
					<defs>
						<rect id="SVGID_123_" x="-4.9" y="0.9" width="79.8" height="79.8"/>
					</defs>
					<clipPath id="SVGID_124_">
						<use xlink:href="#SVGID_123_"  style="overflow:visible;"/>
					</clipPath>
					<g class="st55">
						<g>
							<g>
								<defs>
									<rect id="SVGID_125_" x="23.9" y="55.8" width="2" height="2"/>
								</defs>
								<clipPath id="SVGID_126_">
									<use xlink:href="#SVGID_125_"  style="overflow:visible;"/>
								</clipPath>
								<g class="st56">
									<g>
										<defs>
											<path id="SVGID_127_" d="M24.7,57.7c-0.5-0.1-0.9-0.6-0.8-1.1c0.1-0.5,0.6-0.9,1.1-0.8c0.5,0.1,0.9,0.6,0.8,1.1
												C25.7,57.4,25.2,57.8,24.7,57.7"/>
										</defs>
										<clipPath id="SVGID_128_">
											<use xlink:href="#SVGID_127_"  style="overflow:visible;"/>
										</clipPath>
										
											<radialGradient id="SVGID_129_" cx="87.1589" cy="-483.138" r="9.977743e-02" gradientTransform="matrix(-1.4463 9.6121 -9.6121 -1.4463 -4493.0625 -1479.798)" gradientUnits="userSpaceOnUse">
											<stop  offset="0" style="stop-color:#FFFFFF"/>
											<stop  offset="1" style="stop-color:#08080A"/>
										</radialGradient>
										<polygon class="st57" points="26.2,55.8 25.8,58.1 23.5,57.7 23.9,55.4 										"/>
									</g>
								</g>
							</g>
						</g>
					</g>
				</g>
				<g>
					<defs>
						<rect id="SVGID_130_" x="-4.9" y="0.9" width="79.8" height="79.8"/>
					</defs>
					<clipPath id="SVGID_131_">
						<use xlink:href="#SVGID_130_"  style="overflow:visible;"/>
					</clipPath>
					<g class="st58">
						<g>
							<g>
								<defs>
									<rect id="SVGID_132_" x="44.8" y="49.7" width="3" height="3"/>
								</defs>
								<clipPath id="SVGID_133_">
									<use xlink:href="#SVGID_132_"  style="overflow:visible;"/>
								</clipPath>
								<g class="st59">
									<g>
										<defs>
											<path id="SVGID_134_" d="M46,52.7c-0.8-0.1-1.4-0.9-1.2-1.7c0.1-0.8,0.9-1.4,1.7-1.2c0.8,0.1,1.4,0.9,1.2,1.7
												C47.7,52.2,46.9,52.8,46,52.7"/>
										</defs>
										<clipPath id="SVGID_135_">
											<use xlink:href="#SVGID_134_"  style="overflow:visible;"/>
										</clipPath>
										
											<radialGradient id="SVGID_136_" cx="102.2686" cy="-486.8645" r="9.983175e-02" gradientTransform="matrix(-2.2466 14.9306 -14.9306 -2.2466 -6993.1362 -2569.5288)" gradientUnits="userSpaceOnUse">
											<stop  offset="0" style="stop-color:#FFFFFF"/>
											<stop  offset="1" style="stop-color:#08080A"/>
										</radialGradient>
										<polygon class="st60" points="48.4,49.6 47.8,53.3 44.2,52.7 44.7,49.1 										"/>
									</g>
								</g>
							</g>
						</g>
					</g>
				</g>
			</g>
		</g>
	</g>
</g>
<g>
	<polygon class="st61" points="103.7,56.5 90.7,26.1 83.1,26.1 102.3,70.8 105,70.8 124.5,26.1 116.9,26.1 	"/>
	<path class="st61" d="M130.1,24.3c-1.2,0-2.4,0.5-3.3,1.4c-0.9,0.9-1.4,2-1.4,3.3c0,1.2,0.5,2.3,1.4,3.3c0.9,0.9,2,1.4,3.3,1.4
		c1.2,0,2.4-0.5,3.3-1.4c0.9-0.9,1.4-2,1.4-3.3c0-1.3-0.5-2.4-1.4-3.3C132.6,24.7,131.5,24.3,130.1,24.3z"/>
	<rect x="126.8" y="37" class="st61" width="6.7" height="33.8"/>
	<path class="st61" d="M156.9,36.3c-2.8,0-5.3,0.6-7.5,1.8c-1.2,0.6-2.3,1.4-3.4,2.5v-3.4h-6.7v45.1h6.7V67.5c1.2,1,2.3,1.8,3.6,2.5
		c2.3,1.1,4.7,1.7,7.4,1.7c4.7,0,8.9-1.7,12.3-5.2s5-7.6,5-12.6c0-4.8-1.7-9-5.1-12.5C165.8,38,161.7,36.3,156.9,36.3z M161.9,63.7
		c-1.7,1-3.4,1.4-5.4,1.4s-3.8-0.5-5.6-1.4c-1.8-1-3.1-2.3-4-3.9c-1-1.7-1.4-3.6-1.4-5.7c0-3.2,1-5.9,3.2-8.1
		c2.1-2.1,4.7-3.2,7.8-3.2c2,0,3.8,0.5,5.4,1.4c1.7,1,3,2.3,4,4.1c1,1.8,1.5,3.6,1.5,5.6c0,1.9-0.5,3.9-1.5,5.6
		C165,61.4,163.6,62.8,161.9,63.7z"/>
	<polygon class="st61" points="205.2,43.7 186.5,43.7 186.5,26.1 179.6,26.1 179.6,70.8 186.5,70.8 186.5,50.6 205.2,50.6 
		205.2,70.8 212.1,70.8 212.1,26.1 205.2,26.1 	"/>
	<path class="st61" d="M235,36.3c-5.2,0-9.6,1.9-12.9,5.6c-3.1,3.4-4.6,7.5-4.6,12.1c0,4.7,1.7,8.8,4.9,12.3
		c3.3,3.5,7.6,5.3,12.7,5.3s9.4-1.8,12.7-5.3c3.2-3.5,4.9-7.6,4.9-12.3s-1.6-8.7-4.6-12.1C244.5,38.1,240.2,36.3,235,36.3z
		 M240.4,63.7c-1.7,1-3.4,1.4-5.4,1.4c-2,0-3.8-0.5-5.4-1.4c-1.7-1-2.9-2.3-3.9-4c-1-1.7-1.4-3.6-1.4-5.6c0-3.2,1-5.7,3.2-8
		c2.1-2.2,4.6-3.2,7.6-3.2c3,0,5.4,1.1,7.6,3.3c2.1,2.2,3.2,4.8,3.2,8c0,2-0.5,3.9-1.4,5.6C243.4,61.5,242.1,62.8,240.4,63.7z"/>
	<rect x="256.7" y="25.1" class="st61" width="6.7" height="45.8"/>
	<rect x="268.4" y="37" class="st61" width="6.7" height="33.8"/>
	<path class="st61" d="M271.7,24.3c-1.2,0-2.3,0.5-3.3,1.4c-0.9,0.9-1.4,2-1.4,3.3c0,1.2,0.5,2.3,1.4,3.3c0.9,0.9,2,1.4,3.3,1.4
		c1.2,0,2.4-0.5,3.3-1.4c0.9-0.9,1.4-2,1.4-3.3c0-1.3-0.5-2.4-1.4-3.3C274.1,24.7,273,24.3,271.7,24.3z"/>
	<path class="st61" d="M307.7,40.5c-1-1-2.2-1.8-3.4-2.5c-2.3-1.2-4.8-1.8-7.6-1.8c-4.7,0-8.9,1.7-12.3,5.2
		c-3.4,3.4-5.1,7.6-5.1,12.5c0,4.9,1.7,9.2,5,12.6c3.4,3.4,7.5,5.2,12.3,5.2c2.7,0,5.2-0.6,7.4-1.7c1.3-0.6,2.5-1.4,3.6-2.5v3.4h6.7
		V25.1h-6.7L307.7,40.5L307.7,40.5z M287.6,59.6c-1-1.8-1.5-3.6-1.5-5.6c0-1.9,0.5-3.9,1.5-5.6c1-1.7,2.3-3.1,4-4.1
		c1.7-1,3.5-1.4,5.5-1.4c3.1,0,5.6,1,7.8,3.2c2.1,2.2,3.2,4.8,3.2,8.1c0,2.1-0.5,4-1.4,5.7c-1,1.7-2.3,3-4,3.9
		c-1.7,1-3.6,1.4-5.6,1.4c-1.9,0-3.7-0.5-5.4-1.4C289.9,62.8,288.6,61.4,287.6,59.6z"/>
	<path class="st61" d="M347.7,40.5c-1-1-2.2-1.8-3.4-2.5c-2.3-1.2-4.8-1.8-7.6-1.8c-4.7,0-8.9,1.7-12.3,5.2
		c-3.4,3.4-5.1,7.6-5.1,12.5c0,4.9,1.7,9.2,5,12.6c3.4,3.4,7.5,5.2,12.3,5.2c2.7,0,5.2-0.6,7.4-1.7c1.3-0.6,2.5-1.4,3.6-2.5v3.4h6.7
		V37h-6.7L347.7,40.5L347.7,40.5z M337,65.3c-1.9,0-3.7-0.5-5.4-1.4c-1.7-1-3-2.4-4-4.1c-1-1.8-1.5-3.6-1.5-5.6
		c0-1.9,0.5-3.9,1.5-5.6c1-1.7,2.3-3.1,4-4.1s3.5-1.4,5.5-1.4c3.1,0,5.6,1,7.8,3.2c2.1,2.1,3.2,4.8,3.2,8.1c0,2.1-0.5,4-1.4,5.7
		c-1,1.7-2.3,3-4,3.9C340.8,64.7,338.9,65.3,337,65.3z"/>
	<polygon class="st61" points="373.5,58.9 363.8,37 356.5,37 369.9,67.1 363.4,82.2 370.5,82.2 390.3,37 383,37 	"/>
	<path class="st61" d="M416.4,48.2c-0.8-0.7-1.9-1.3-3-1.9c0.9-0.8,1.7-1.7,2.3-2.7c1-1.7,1.6-3.7,1.6-5.8c0-2.3-0.6-4.3-1.8-6.2
		c-1.2-1.9-2.8-3.2-4.8-4.1c-2-0.9-4.7-1.3-8.3-1.3h-9.6V71h12.9c4.5,0,8.1-1.3,10.9-3.9c2.8-2.6,4.1-5.8,4.1-9.6
		c0-1.9-0.3-3.6-1.1-5.2C418.8,50.7,417.7,49.3,416.4,48.2z M408.6,34.3c1,0.8,1.5,2,1.5,3.4c0,1.2-0.3,2.2-1,3.1
		c-0.6,1-1.5,1.7-2.6,2.1c-1.2,0.5-3.2,0.7-5.9,0.7h-1V33h3.5C405.7,33,407.5,33.4,408.6,34.3z M399.6,50.7h1c3.4,0,5.9,0.1,7.2,0.5
		c1.9,0.5,3.3,1.2,4.3,2.4c1,1.2,1.5,2.5,1.5,4c0,1.2-0.3,2.3-1,3.4s-1.7,1.8-2.8,2.3c-1.2,0.6-3.4,0.8-6.2,0.8h-3.9V50.7H399.6z"/>
	<path class="st61" d="M441.6,36.3c-5.2,0-9.6,1.9-12.9,5.6c-3.1,3.4-4.6,7.5-4.6,12.1c0,4.7,1.7,8.8,4.9,12.3
		c3.3,3.5,7.6,5.3,12.7,5.3c5.1,0,9.4-1.8,12.7-5.3c3.2-3.5,4.9-7.6,4.9-12.3s-1.6-8.7-4.6-12.1C451.1,38.1,446.8,36.3,441.6,36.3z
		 M447,63.7c-1.7,1-3.4,1.4-5.4,1.4s-3.8-0.5-5.4-1.4c-1.7-1-2.9-2.3-3.9-4c-1-1.7-1.4-3.6-1.4-5.6c0-3.2,1-5.7,3.2-8
		c2.1-2.2,4.6-3.2,7.6-3.2c3,0,5.4,1.1,7.6,3.3c2.1,2.2,3.2,4.8,3.2,8c0,2-0.5,3.9-1.4,5.6C449.9,61.5,448.6,62.8,447,63.7z"/>
	<path class="st61" d="M479.9,36.3c-5.2,0-9.6,1.9-12.9,5.6c-3.1,3.4-4.6,7.5-4.6,12.1c0,4.7,1.7,8.8,4.9,12.3
		c3.3,3.5,7.6,5.3,12.7,5.3c5.1,0,9.4-1.8,12.7-5.3c3.2-3.5,4.9-7.6,4.9-12.3s-1.6-8.7-4.6-12.1C489.4,38.1,485.1,36.3,479.9,36.3z
		 M485.3,63.7c-1.7,1-3.4,1.4-5.4,1.4c-2,0-3.8-0.5-5.4-1.4c-1.7-1-2.9-2.3-3.9-4c-1-1.7-1.4-3.6-1.4-5.6c0-3.2,1-5.7,3.2-8
		c2.1-2.2,4.6-3.2,7.6-3.2s5.4,1.1,7.6,3.3c2.1,2.2,3.2,4.8,3.2,8c0,2-0.5,3.9-1.4,5.6C488.2,61.5,486.9,62.8,485.3,63.7z"/>
	<polygon class="st61" points="531.4,37 521.3,37 508.8,48 508.8,25.1 502.1,25.1 502.1,70.8 508.8,70.8 508.8,58.6 522.6,70.8 
		532.3,70.8 512.7,53.3 	"/>
	<path class="st61" d="M564.8,54.2c-0.1-4.5-1.3-8.4-3.7-11.4c-3.4-4.3-8.1-6.5-13.8-6.5c-5.6,0-10,2.1-13.4,6.4
		c-2.6,3.3-3.9,7.2-3.9,11.4c0,4.5,1.6,8.6,4.6,12.2c3.1,3.6,7.4,5.4,12.9,5.4c2.4,0,4.7-0.4,6.6-1.1c2-0.8,3.8-1.9,5.3-3.3
		c1.6-1.4,3-3.3,4.1-5.6l0.6-1.2l-5.7-3l-0.7,1.1c-1.2,1.9-2.2,3.2-3.1,4.1c-0.9,0.8-2.1,1.4-3.4,1.9c-1.3,0.5-2.8,0.8-4.1,0.8
		c-2.9,0-5.3-1-7.3-3c-1.7-1.8-2.7-3.9-3-6.5h27.9V54.2z M555.5,46.5c0.6,0.8,1.1,1.7,1.6,2.9h-19.4c0.7-1.7,1.6-3.1,2.6-4.1
		c1.9-1.7,4.2-2.6,7-2.6c1.7,0,3.2,0.3,4.7,1C553.5,44.5,554.7,45.4,555.5,46.5z"/>
	<path class="st61" d="M585.7,37.5c-1.4-0.8-2.9-1.2-4.2-1.2c-1.7,0-3.4,0.6-5,1.6c-0.6,0.4-1.2,0.8-1.7,1.4v-2.1H568v33.8h6.8V59
		c0-5.2,0.2-8.7,0.7-10.4c0.6-2.1,1.4-3.5,2.4-4.5c1-0.9,1.9-1.3,3-1.3c0.3,0,0.8,0.1,1.6,0.4l1.1,0.5l3.4-5.6L585.7,37.5z"/>
</g>
</svg>
