<?xml version="1.0" encoding="utf-8"?>
<!-- Generator: Adobe Illustrator 24.1.2, SVG Export Plug-In . SVG Version: 6.00 Build 0)  -->
<svg version="1.1" id="Layer_1" xmlns="http://www.w3.org/2000/svg" xmlns:xlink="http://www.w3.org/1999/xlink" x="0px" y="0px"
	 viewBox="0 0 32 32" style="enable-background:new 0 0 32 32;" xml:space="preserve">
<style type="text/css">
	.st0{fill:#EEEEEE;}
	.st1{fill:#09AF55;}
	.st2{fill:#A24699;}
	.st3{fill:#08A8DE;}
	.st4{fill:#FBB616;}
	.st5{fill:#ED363F;}
	.st6{fill:#5A5B5B;}
</style>
<circle class="st0" cx="16" cy="16" r="15"/>
<circle class="st1" cx="16" cy="26" r="2.5"/>
<circle class="st2" cx="22.428" cy="23.661" r="2.5"/>
<circle class="st3" cx="25.848" cy="17.737" r="2.5"/>
<circle class="st4" cx="9.572" cy="23.661" r="2.5"/>
<circle class="st5" cx="6.152" cy="17.737" r="2.5"/>
<path class="st6" d="M16,7.519c-2.967,0-5.383,2.416-5.383,5.383s2.416,5.38,5.383,5.38c1.577,0,2.964-0.709,3.95-1.793
	c0,0,0,0.903,0,1.237s0.202,0.545,0.719,0.545c0.518,0,0.714-0.138,0.714-0.545s0-4.824,0-4.824C21.383,9.934,18.967,7.519,16,7.519
	z M16.063,16.975c-2.213,0-4.013-1.8-4.013-4.01c0-2.213,1.8-4.013,4.013-4.013s4.013,1.8,4.013,4.013
	C20.076,15.175,18.276,16.975,16.063,16.975z"/>
</svg>
