<?xml version="1.0" encoding="utf-8"?>
<!-- Generator: Adobe Illustrator 23.0.3, SVG Export Plug-In . SVG Version: 6.00 Build 0)  -->
<svg version="1.1" id="Layer_1" xmlns="http://www.w3.org/2000/svg" xmlns:xlink="http://www.w3.org/1999/xlink" x="0px" y="0px"
	 viewBox="0 0 32 32" style="enable-background:new 0 0 32 32;" xml:space="preserve">
<style type="text/css">
	.st0{fill:#FF5A60;}
	.st1{fill:#FFFFFF;}
</style>
<g>
	<circle class="st0" cx="16" cy="16" r="15"/>
	<path class="st1" d="M16,21.4c-0.3,0.3-0.4,0.4-0.6,0.6c-0.6,0.6-1.2,1.1-2,1.4c-1.5,0.7-3,0.6-4.3-0.4s-1.7-2.4-1.2-4
		c0.2-0.6,0.5-1.2,0.7-1.8c0.3-0.7,0.7-1.5,1-2.2c0.6-1.2,1.2-2.4,1.8-3.5c0.3-0.6,0.6-1.3,1-1.9c0.4-0.8,0.8-1.6,1.3-2.3
		s1.2-1,2-1.1C17,6,18,6.6,18.7,7.7c0.5,0.8,0.9,1.7,1.3,2.5c0.5,1.1,1.1,2.1,1.6,3.2c0.8,1.6,1.5,3.2,2.3,4.9
		c0.5,1.1,0.6,2.3,0,3.4c-0.3,0.7-0.8,1.2-1.4,1.6c-1.1,0.7-2.3,0.7-3.6,0.3c-1.1-0.4-1.9-1.1-2.7-2C16.1,21.5,16.1,21.5,16,21.4z
		 M15.2,20.5c-0.4-0.5-0.7-1-1.1-1.5c-0.6-0.9-1.1-1.9-1.2-3.1c-0.2-1.5,0.7-2.8,2.1-3.2c1.3-0.4,2.4-0.1,3.3,0.9
		c0.7,0.8,0.8,1.7,0.7,2.6c-0.2,1-0.6,1.9-1.2,2.8c-0.3,0.5-0.7,1-1,1.5c0.1,0.1,0.2,0.3,0.4,0.5c0.7,0.7,1.4,1.3,2.4,1.6
		c1.5,0.4,3-0.4,3.4-1.9c0.2-0.7,0-1.4-0.3-2c-0.8-1.8-1.6-3.5-2.5-5.3c-0.6-1.2-1.2-2.4-1.8-3.6c-0.3-0.6-0.6-1.2-1-1.8
		c-0.4-0.6-1-0.8-1.7-0.7c-0.7,0.1-1.1,0.5-1.5,1.1c-0.7,1.3-1.4,2.7-2,4c-0.8,1.5-1.5,3.1-2.2,4.6c-0.3,0.7-0.6,1.4-0.9,2.1
		c-0.3,0.8-0.2,1.5,0.2,2.3c0.7,1.1,1.9,1.5,3.1,1.1C13.6,22.2,14.4,21.4,15.2,20.5z M16,19.6c0.2-0.2,1.2-1.4,1.7-3.3
		c0.1-0.6,0.2-1.2-0.2-1.8c-0.5-0.8-1.7-1-2.5-0.5c-0.5,0.3-0.8,0.8-0.8,1.4c0,0.6,0.1,1.2,0.4,1.8C14.9,18,15.4,18.8,16,19.6z"/>
</g>
</svg>
