<?xml version="1.0" encoding="utf-8"?>
<!-- Generator: Adobe Illustrator 23.0.3, SVG Export Plug-In . SVG Version: 6.00 Build 0)  -->
<svg version="1.1" id="Layer_1" xmlns="http://www.w3.org/2000/svg" xmlns:xlink="http://www.w3.org/1999/xlink" x="0px" y="0px"
	 viewBox="0 0 32 32" style="enable-background:new 0 0 32 32;" xml:space="preserve">
<style type="text/css">
	.st0{fill:#EE0203;}
	.st1{fill:#FFFFFF;}
</style>
<circle class="st0" cx="16" cy="16" r="15"/>
<g>
	<path class="st1" d="M11.4,13.2c0.6,0,0.8,0,1,0.6c0.1,0.3,0.1,0.6,0.1,0.7c0,0.4-0.2,0.6-0.6,0.6c-0.5,0.1-0.9,0.1-1.3,0.1
		c-0.1,0-0.2,0-0.2,0.2c0.3,1.6,0.9,3,2,4.3c0.6,0.7,1.4,1.2,2.3,1.4c1.2,0.3,2.3,0,3.3-0.6c1-0.7,1.8-1.6,2.4-2.7
		c0.3-0.5,0.8-1.7,0.9-1.8c0.3-0.6,0.8-0.7,1.4-0.3c0.2,0.1,0.3,0.3,0.3,0.6c0,0.4-0.1,0.7-0.2,1.1c-0.6,1.7-1.4,3.2-2.6,4.5
		c-1,1-2.1,1.7-3.5,2c-1.8,0.4-3.3-0.1-4.7-1.2c-1.2-0.9-1.9-2.2-2.5-3.5c-0.5-1.2-0.8-2.3-1-3.5c0-0.2-0.1-0.3-0.3-0.3
		c-0.3,0-0.6,0.1-0.9,0.1c-0.6,0-0.9-0.2-1-0.8c0-0.3,0-0.6,0-0.9c0.1-0.5,0.3-0.7,0.9-0.7C7.8,13.1,10.7,13.2,11.4,13.2z"/>
	<path class="st1" d="M23.3,9c0.9,0,1.7,0.7,1.7,1.7c0,0.9-0.7,1.7-1.7,1.7c-0.9,0-1.7-0.7-1.7-1.7C21.6,9.7,22.4,9,23.3,9z"/>
</g>
</svg>
