<?xml version="1.0" encoding="utf-8"?>
<!-- Generator: Adobe Illustrator 23.0.3, SVG Export Plug-In . SVG Version: 6.00 Build 0)  -->
<svg version="1.1" id="Layer_1" xmlns="http://www.w3.org/2000/svg" xmlns:xlink="http://www.w3.org/1999/xlink" x="0px" y="0px"
	 viewBox="0 0 32 32" style="enable-background:new 0 0 32 32;" xml:space="preserve">
<style type="text/css">
	.st0{fill:#233C7C;}
	.st1{fill:#FDFDFD;}
</style>
<g>
	<circle class="st0" cx="16" cy="16" r="15"/>
	<g>
		<path class="st1" d="M19.4,15.6c0,0,0.3,0.2,0.5,0.3c1.6,0.9,2.2,2.3,2.1,4c-0.1,2.7-2.1,4.1-4.4,4.6c-0.7,0.1-1.4,0.1-2.2,0.1
			c-1.7,0-3.3,0-5.1,0c-0.3,0-0.3-0.1-0.3-0.3c0-5,0-9.9,0-14.9c0-1.2,0.7-2,1.8-2c1.6,0,3.2-0.1,4.8,0c1.5,0,2.5,0.7,3.4,1.5
			c1.7,1.7,1.6,4.6-0.2,6.2C19.6,15.4,19.4,15.6,19.4,15.6z M13.3,19.9L13.3,19.9c0,0.6,0,1.2,0,1.6c0,0.2,0.1,0.2,0.2,0.2
			c0.9,0,1.8,0,2.8,0c1.2,0,2-0.8,2.1-2c0.1-1.4-0.6-2.4-1.7-2.5c-0.8-0.1-1.2-0.1-2.1-0.1c-0.9,0-1.3,0.5-1.3,1.1
			S13.3,19.3,13.3,19.9z M13.3,12.9L13.3,12.9c0,0.5,0,0.9,0,1.4c0,0.1,0,0.2,0.2,0.2c0.8,0,1.7,0,2.5,0c1.2-0.1,1.8-0.9,1.8-2.2
			c0-1.2-0.7-2-2-2c-0.5,0-1,0-1.5,0c-0.7,0-1,0.3-1,1C13.3,11.9,13.3,12.4,13.3,12.9z"/>
	</g>
</g>
</svg>
