<?xml version="1.0" encoding="utf-8"?>
<!-- Generator: Adobe Illustrator 23.0.3, SVG Export Plug-In . SVG Version: 6.00 Build 0)  -->
<svg version="1.1" id="Layer_1" xmlns="http://www.w3.org/2000/svg" xmlns:xlink="http://www.w3.org/1999/xlink" x="0px" y="0px"
	 viewBox="0 0 32 32" style="enable-background:new 0 0 32 32;" xml:space="preserve">
<style type="text/css">
	.st0{fill:#1E6899;}
	.st1{fill:#FFFFFF;}
	.st2{fill:#FB6322;}
</style>
<circle class="st0" cx="16" cy="16" r="15"/>
<g>
	<g>
		<path class="st1" d="M9.7,14.9H9.5c-1.1,0-2.1,0.9-2.1,2.1v3.6h4.3V17C11.8,15.9,10.9,14.9,9.7,14.9z"/>
		<path class="st1" d="M15.6,14.9h-0.2c-1.1,0-2.1,0.9-2.1,2.1v3.6h4.3V17C17.7,15.9,16.8,14.9,15.6,14.9z"/>
		<path class="st1" d="M22.2,14.9H22c-1.1,0-2.1,0.9-2.1,2.1v6.2h4.3V17C24.3,15.9,23.4,14.9,22.2,14.9z"/>
	</g>
	<polygon class="st2" points="27,13.2 5,13.2 7.5,8.8 24.5,8.8 	"/>
</g>
</svg>
