<?xml version="1.0" encoding="utf-8"?>
<!-- Generator: Adobe Illustrator 23.0.3, SVG Export Plug-In . SVG Version: 6.00 Build 0)  -->
<svg version="1.2" baseProfile="tiny" id="Layer_1" xmlns="http://www.w3.org/2000/svg" xmlns:xlink="http://www.w3.org/1999/xlink"
	 x="0px" y="0px" viewBox="0 0 32 32" xml:space="preserve">
<circle fill="#023660" cx="16" cy="16" r="15"/>
<path fill="#E9C018" d="M1.4,19.4c4.1-1.4,8.3-2.9,12.4-4.3c1.5-0.5,3.1-0.9,4.6-1.3c0.5-0.1,0.5-0.1,0.3-0.6
	c-0.3-0.8-0.7-1.6-1.2-2.3c-1.4-1.8-2.7-3.6-4.1-5.4c-0.1-0.1-0.2-0.2-0.2-0.4C13.4,5,13.7,5,13.9,4.9c0.2,0,0.3,0.1,0.4,0.2
	c1.1,1,2.2,1.9,3.4,2.9c1.6,1.4,3.3,2.8,4.9,4.3c0.2,0.2,0.4,0.2,0.7,0.2c1.4-0.4,2.8-0.8,4.2-1.2c0.8-0.2,1.8-0.4,2.6-0.4
	c0.2,0.5,0.3,0.9,0.4,1.4c-0.7,0.5-1.5,0.8-2.3,1.1c-1.4,0.4-2.9,0.8-4.3,1.2c-0.3,0.1-0.4,0.2-0.5,0.5c-1,3.4-2.1,6.8-3.1,10.1
	c-0.2,0.5-0.4,0.8-0.9,0.9c-0.1,0-0.1,0-0.2,0c-0.1-0.1,0-0.2,0-0.3c0.2-2.4,0.4-4.7,0.6-7.1c0.1-0.9-0.1-1.8-0.3-2.7
	c-0.1-0.2-0.2-0.2-0.4-0.2c-1.4,0.4-2.7,0.8-4.1,1.2c-1.8,0.5-3.6,0.9-5.5,1.3c-2.6,0.6-5.3,1.2-7.9,1.9C1.5,20,1.4,19.7,1.4,19.4z"
	/>
</svg>
