<?xml version="1.0" encoding="utf-8"?>
<!-- Generator: Adobe Illustrator 25.2.1, SVG Export Plug-In . SVG Version: 6.00 Build 0)  -->
<svg version="1.1" id="Layer_1" xmlns="http://www.w3.org/2000/svg" xmlns:xlink="http://www.w3.org/1999/xlink" x="0px" y="0px"
	 viewBox="0 0 32 32" style="enable-background:new 0 0 32 32;" xml:space="preserve">
<style type="text/css">
	.st0{fill:#612ACE;}
	.st1{fill:#FFFFFF;}
</style>
<g>
	<circle class="st0" cx="16" cy="16" r="15"/>
</g>
<g>
	<path class="st1" d="M19.438,23.268c-0.166-0.024-0.335-0.034-0.498-0.073c-0.606-0.143-1.106-0.45-1.45-0.982
		c-0.045-0.069-0.079-0.145-0.113-0.221c-0.035-0.079-0.016-0.12,0.065-0.142c0.355-0.097,0.71-0.191,1.065-0.288
		c0.06-0.016,0.098,0.005,0.129,0.055c0.32,0.523,1.257,0.614,1.702,0.056c0.111-0.139,0.167-0.298,0.176-0.473
		c0.005-0.087,0.001-0.175,0.001-0.265c-0.133,0.077-0.253,0.16-0.384,0.219c-0.836,0.378-2.012,0.233-2.648-0.866
		c-0.259-0.447-0.344-0.933-0.318-1.443c0.024-0.487,0.164-0.934,0.456-1.332c0.743-1.013,2.046-1.025,2.822-0.475
		c0.018,0.013,0.038,0.024,0.074,0.047c0-0.07,0.002-0.128,0-0.186c-0.003-0.075,0.029-0.111,0.106-0.111
		c0.354,0.001,0.709,0.001,1.063,0c0.071,0,0.106,0.032,0.107,0.103c0,0.023,0,0.046,0,0.069c0,1.377-0.002,2.754,0.001,4.131
		c0.001,0.509-0.13,0.97-0.467,1.361c-0.424,0.492-0.958,0.764-1.608,0.802c-0.031,0.002-0.061,0.01-0.092,0.015
		C19.564,23.268,19.501,23.268,19.438,23.268z M20.52,19.009c-0.035-0.149-0.052-0.305-0.109-0.445
		c-0.289-0.71-1.201-0.85-1.676-0.26c-0.209,0.259-0.26,0.562-0.225,0.887c0.065,0.595,0.648,1.004,1.227,0.858
		C20.188,19.935,20.503,19.508,20.52,19.009z"/>
	<path class="st1" d="M16.213,11.411c0.621-0.73,1.932-0.693,2.518,0.167c0.05-0.063,0.096-0.127,0.147-0.185
		c0.287-0.332,0.662-0.477,1.09-0.495c0.668-0.028,1.202,0.224,1.582,0.78c0.178,0.26,0.249,0.556,0.25,0.868
		c0.002,0.937,0.001,1.874,0.001,2.811c0,0.113-0.023,0.137-0.135,0.137c-0.337,0.001-0.674,0-1.011,0
		c-0.121,0-0.14-0.019-0.14-0.138c0-0.814,0.001-1.629-0.001-2.443c-0.001-0.31-0.115-0.568-0.39-0.725
		c-0.445-0.255-0.997,0.009-1.098,0.52c-0.016,0.08-0.019,0.164-0.02,0.247c-0.001,0.797-0.001,1.594-0.001,2.391
		c0,0.13-0.018,0.148-0.148,0.148c-0.331,0-0.663,0-0.994,0c-0.126,0-0.142-0.016-0.142-0.144c0-0.806,0-1.611,0-2.417
		c0-0.305-0.102-0.562-0.366-0.732c-0.437-0.281-1.027-0.011-1.125,0.511c-0.012,0.067-0.018,0.136-0.018,0.204
		c-0.001,0.809-0.001,1.617-0.001,2.426c0,0.135-0.017,0.152-0.153,0.152c-0.329,0-0.657,0-0.986,0
		c-0.127,0-0.146-0.019-0.146-0.141c0-1.403,0-2.806,0-4.209c0-0.119,0.016-0.136,0.132-0.136c0.34,0,0.68,0,1.02,0
		c0.113,0,0.133,0.021,0.134,0.136C16.213,11.226,16.213,11.307,16.213,11.411z"/>
	<path class="st1" d="M6.245,11.437c0.703-0.815,2.164-0.722,2.76,0.302c0.156,0.269,0.223,0.561,0.223,0.869
		c0.001,0.914,0.001,1.829,0,2.743c0,0.123-0.02,0.143-0.146,0.143c-0.329,0-0.657,0-0.986,0c-0.129,0-0.146-0.019-0.146-0.15
		c0-0.797,0-1.594,0-2.391c0-0.384-0.249-0.725-0.601-0.827c-0.383-0.111-0.774,0.036-0.984,0.371
		c-0.093,0.148-0.121,0.312-0.121,0.483c0.001,0.783,0,1.566,0,2.349c0,0.154-0.012,0.166-0.165,0.166c-0.323,0-0.646,0-0.969,0
		c-0.134,0-0.15-0.016-0.15-0.146c0-2.06,0-4.12-0.001-6.18c0-0.088,0.025-0.132,0.116-0.155c0.34-0.085,0.679-0.179,1.018-0.269
		c0.117-0.031,0.151-0.005,0.151,0.118c0,0.826,0,1.651,0,2.477C6.245,11.372,6.245,11.405,6.245,11.437z"/>
	<path class="st1" d="M26.94,13.714c-1.104,0-2.207,0-3.321,0c0.056,0.191,0.151,0.346,0.287,0.475
		c0.45,0.43,1.184,0.424,1.627-0.015c0.048-0.048,0.093-0.063,0.16-0.044c0.327,0.092,0.655,0.179,0.982,0.268
		c0.129,0.035,0.144,0.074,0.067,0.186c-0.349,0.506-0.836,0.813-1.427,0.95c-0.584,0.135-1.165,0.105-1.708-0.16
		c-0.85-0.415-1.311-1.1-1.342-2.056c-0.02-0.613,0.154-1.162,0.565-1.625c0.528-0.595,1.197-0.843,1.984-0.791
		c0.835,0.055,1.459,0.46,1.881,1.169c0.289,0.485,0.353,1.018,0.264,1.572C26.955,13.666,26.947,13.687,26.94,13.714z
		 M23.635,12.754c0.683,0,1.361,0,2.039,0c-0.106-0.385-0.526-0.778-1.076-0.757C24.158,12.013,23.719,12.349,23.635,12.754z"/>
	<path class="st1" d="M12.167,10.892c0.941,0.028,1.717,0.479,2.114,1.426c0.586,1.396-0.193,2.908-1.619,3.22
		c-0.788,0.173-1.531,0.048-2.163-0.492c-0.563-0.481-0.814-1.105-0.805-1.842c0.012-1.005,0.637-1.877,1.573-2.186
		C11.532,10.931,11.805,10.898,12.167,10.892z M11.033,13.246c0,0.029-0.001,0.057,0,0.086c0.034,0.765,0.86,1.246,1.532,0.88
		c0.403-0.219,0.583-0.581,0.563-1.039c-0.022-0.533-0.524-1.112-1.229-0.99C11.381,12.273,11.032,12.703,11.033,13.246z"/>
	<path class="st1" d="M12.926,16.663c0.911,0.006,1.627,0.389,2.076,1.178c0.778,1.369,0.039,3.201-1.651,3.472
		c-0.673,0.108-1.314,0.006-1.871-0.411c-0.714-0.534-1.006-1.264-0.927-2.143c0.078-0.859,0.531-1.471,1.286-1.863
		C12.177,16.72,12.546,16.66,12.926,16.663z M12.921,17.931c-0.599,0.001-1.046,0.46-1.047,1.074
		c-0.001,0.612,0.45,1.075,1.047,1.075c0.595,0,1.049-0.471,1.048-1.087C13.968,18.405,13.499,17.93,12.921,17.931z"/>
	<path class="st1" d="M24.644,21.337c-0.888-0.007-1.6-0.356-2.064-1.126c-0.653-1.085-0.376-2.828,1.22-3.393
		c1-0.354,2.192-0.115,2.888,0.945c0.294,0.448,0.39,0.949,0.337,1.474c-0.092,0.909-0.577,1.543-1.404,1.916
		C25.314,21.292,24.983,21.34,24.644,21.337z M23.6,19.007c0,0.608,0.45,1.07,1.044,1.072c0.594,0.002,1.054-0.466,1.056-1.073
		c0.001-0.588-0.467-1.068-1.045-1.07C24.055,17.935,23.6,18.396,23.6,19.007z"/>
	<path class="st1" d="M9.242,16.773c0.076,0,0.141,0,0.206,0c0.229,0,0.457-0.001,0.686,0c0.094,0,0.119,0.024,0.119,0.115
		c0.001,0.294,0.001,0.589,0,0.883c0,0.094-0.021,0.114-0.119,0.114c-0.263,0.001-0.526,0-0.789,0c-0.031,0-0.061,0-0.099,0
		c-0.002,0.04-0.005,0.071-0.005,0.101c0,0.509-0.001,1.017,0,1.526c0,0.347,0.181,0.526,0.53,0.527c0.123,0,0.246,0.002,0.369,0
		c0.079-0.001,0.114,0.033,0.114,0.113c-0.002,0.326-0.001,0.651,0,0.977c0,0.064-0.024,0.109-0.093,0.107
		c-0.325-0.008-0.654,0.011-0.975-0.033c-0.607-0.084-1.125-0.548-1.21-1.173c-0.01-0.076-0.014-0.154-0.014-0.231
		c-0.001-1.246-0.001-2.492-0.001-3.738c0-0.145,0.01-0.155,0.157-0.155c0.329,0,0.657,0,0.986,0c0.123,0,0.137,0.015,0.137,0.14
		c0,0.209,0,0.417,0,0.626C9.242,16.703,9.242,16.733,9.242,16.773z"/>
</g>
<rect x="59.987" y="7.987" transform="matrix(-0.9862 0.1654 -0.1654 -0.9862 134.7528 21.207)" class="st0" width="13.013" height="16.452"/>
</svg>
