<?xml version="1.0" encoding="utf-8"?>
<!-- Generator: Adobe Illustrator 23.0.3, SVG Export Plug-In . SVG Version: 6.00 Build 0)  -->
<svg version="1.2" baseProfile="tiny" id="Layer_1" xmlns="http://www.w3.org/2000/svg" xmlns:xlink="http://www.w3.org/1999/xlink"
	 x="0px" y="0px" viewBox="0 0 32 32" xml:space="preserve">
<g>
	<circle fill="#0067DB" cx="16" cy="16" r="15"/>
</g>
<g>
	<path fill="#F8F8F8" d="M6.3,13.5C6.7,13,7,12.6,7.4,12.2c1.3-1.5,2.6-3,3.9-4.4c0.2-0.2,0.3-0.3,0.6-0.3c2.7,0,5.5,0,8.2,0
		c0.2,0,0.4,0.1,0.5,0.2c1.7,1.8,3.3,3.6,4.9,5.3c0.1,0.1,0.1,0.2,0.2,0.3c-0.5,0.1-1,0.1-1.5,0.1c-0.3,0-0.4,0.1-0.4,0.4
		c0,2.9,0,5.8,0,8.7c0,0.4-0.1,0.5-0.5,0.6c-2,0.4-4,0.9-6.1,1.3c-0.5,0.1-1,0-1.5-0.1c-2.5-0.4-5-0.9-7.5-1.3
		c-0.2,0-0.3-0.1-0.3-0.4c0-0.4,0-0.8,0-1.2c0-0.2-0.1-0.3-0.3-0.3c-0.3,0.1-0.6,0.1-0.8,0.2c-0.4,0.1-0.7-0.1-0.8-0.5
		c-0.1-0.3,0.1-0.6,0.5-0.7c0.3-0.1,0.7-0.1,1.1-0.2c0.2,0,0.3-0.1,0.3-0.3c0-2,0-4.1,0-6.1c0-0.2-0.1-0.3-0.3-0.3
		C7.3,13.4,6.9,13.4,6.3,13.5z M8.7,20c0.4,0,0.7-0.1,1-0.1c0.9-0.1,1.9-0.3,2.8-0.4c0.4,0,0.6,0.1,0.6,0.5c0,0.4-0.1,0.6-0.5,0.7
		c-1,0.2-2.1,0.3-3.1,0.5c-0.9,0.2-0.8-0.1-0.8,0.9c0,0.1,0,0.2,0,0.3c0,0.2,0.1,0.4,0.3,0.4c2.5,0.4,5.1,0.9,7.6,1.4
		c0.4,0.1,0.4,0.1,0.4-0.4c0-3.3,0-6.6,0-9.9c0-0.2-0.1-0.4-0.2-0.6c-1.3-1.4-2.6-2.8-3.9-4.2c-0.1-0.1-0.2-0.2-0.3-0.4
		c-0.1,0.1-0.2,0.1-0.2,0.2c-1.2,1.4-2.4,2.8-3.6,4.2c-0.1,0.1-0.1,0.3-0.1,0.5c0,1.4,0,2.9,0,4.3C8.7,18.5,8.7,19.2,8.7,20z
		 M18.6,20.7c0.6-0.1,1.2-0.2,1.7-0.3c0.2,0,0.3-0.2,0.3-0.4c0-0.6,0-1.3,0-1.9c0-0.3-0.1-0.4-0.4-0.3c-0.5,0.1-0.9,0.1-1.4,0.2
		c-0.2,0-0.3,0.1-0.3,0.3c0,0.6,0,1.2,0,1.8C18.6,20.3,18.6,20.5,18.6,20.7z M18.5,17.3c0.7-0.1,1.3-0.2,1.9-0.3
		c0.1,0,0.2-0.2,0.2-0.3c0-0.6,0-1.1,0-1.7c0-0.2,0-0.4,0-0.6c-0.6,0-1.1,0.1-1.7,0.1c-0.2,0-0.3,0.1-0.3,0.4c0,0.5,0,1,0,1.5
		C18.5,16.7,18.5,17,18.5,17.3z M23.1,14.2c-0.5,0.1-1,0.1-1.5,0.2c-0.1,0-0.2,0.2-0.2,0.3c0,0.6,0,1.1,0,1.7c0,0.2,0,0.4,0,0.7
		c0.6-0.1,1-0.1,1.5-0.2c0.1,0,0.2-0.1,0.2-0.2C23.1,15.8,23.1,15,23.1,14.2z M21.4,20.3c0.6-0.1,1-0.2,1.5-0.3
		c0.1,0,0.2-0.2,0.2-0.3c0-0.7,0-1.3,0-2c0-0.2-0.1-0.3-0.3-0.3c-0.4,0.1-0.8,0.1-1.2,0.2c-0.1,0-0.2,0.1-0.2,0.2
		C21.4,18.6,21.4,19.4,21.4,20.3z"/>
	<path fill="#F8F8F8" d="M15.2,15.9c0,0.6-0.2,1.1-0.5,1.7c-0.8,1.4-2.6,1.5-3.6,0.4c-1.1-1.2-1-3.2,0.1-4.3c1-1.1,2.7-0.9,3.5,0.4
		C15.1,14.5,15.2,15.1,15.2,15.9z M10.8,15.8c0,0.8,0.3,1.6,1.1,2.1c0.7,0.5,1.4,0.5,2,0c1.3-1,1.3-3.4-0.1-4.4
		C13,13,12,13.1,11.4,13.9C11,14.4,10.8,15,10.8,15.8z"/>
	<path fill="#F8F8F8" d="M12.5,17.5c-0.6-0.1-1-0.7-1.1-1.6c-0.1-0.9,0.3-1.6,0.9-1.9C11.6,15.3,11.7,16.4,12.5,17.5z"/>
</g>
</svg>
