<?xml version="1.0" encoding="utf-8"?>
<!-- Generator: Adobe Illustrator 23.0.3, SVG Export Plug-In . SVG Version: 6.00 Build 0)  -->
<svg version="1.2" baseProfile="tiny" id="Layer_1" xmlns="http://www.w3.org/2000/svg" xmlns:xlink="http://www.w3.org/1999/xlink"
	 x="0px" y="0px" viewBox="0 0 32 32" xml:space="preserve">
<circle fill="#20BABA" cx="16" cy="16" r="15"/>
<g>
	<g>
		<path fill="#FFFFFF" d="M24,20.4c0-0.9-3.7-2.1-4.4-1.9c-1,0.3-0.9,1.6-2.1,1.6c-0.7,0-1.9-1.2-2.5-1.6c-1.3-1.1-3.6-3.3-3-4.9
			c0.4-1.2,1.6-0.8,1.5-2.3c0-0.5-1.1-2.1-1.4-2.4c-1.8-1.7-3.7,0.2-4,2.6c-0.4,2.4,1.2,5.2,2.6,7c1.9,2.4,4.7,4.7,7.8,5.3
			C20.8,24.1,24,23.2,24,20.4z"/>
	</g>
</g>
</svg>
