<?xml version="1.0" encoding="utf-8"?>
<!-- Generator: Adobe Illustrator 23.0.3, SVG Export Plug-In . SVG Version: 6.00 Build 0)  -->
<svg version="1.1" id="Layer_1" xmlns="http://www.w3.org/2000/svg" xmlns:xlink="http://www.w3.org/1999/xlink" x="0px" y="0px"
	 viewBox="0 0 32 32" style="enable-background:new 0 0 32 32;" xml:space="preserve">
<style type="text/css">
	.st0{fill:#20BABA;}
	.st1{fill:#FFFFFF;}
</style>
<circle class="st0" cx="16" cy="16" r="15"/>
<g>
	<g>
		<g>
			<path class="st1" d="M24.7,13.4l-2.9-2.4V8.9c0-0.5-0.4-0.9-0.9-0.9h-3.1l-1.2-1c-0.3-0.2-0.7-0.2-1,0l-1.2,1h-3.2
				c-0.5,0-0.9,0.4-0.9,0.9v2L7.7,13v9.9c0,0.6,0.3,0.9,0.8,0.9h15.3c0.8,0,0.9-0.2,0.9-0.9V13.4z M15.8,7.6c0.1-0.1,0.2-0.1,0.3,0
				l0.7,0.5h-1.6L15.8,7.6z M8.6,23.3l7.2-5.7c0.1-0.1,0.2-0.1,0.2,0l7.3,5.7L8.6,23.3z M16.5,17.1c-0.3-0.2-0.7-0.2-1,0l-7.1,5.6
				v-8.5l4.3,3.3c0.1,0.1,0.3,0.1,0.4-0.1c0.1-0.1,0.1-0.3-0.1-0.4l-4.6-3.6l1.9-1.6l0,2.3c0,0.2,0.1,0.3,0.3,0.3s0.3-0.1,0.3-0.3
				V8.9c0-0.2,0.1-0.3,0.3-0.3h9.6c0.2,0,0.3,0.1,0.3,0.3V14c0,0.2,0.1,0.3,0.3,0.3c0.2,0,0.3-0.1,0.3-0.3v-2.2l2,1.6L19,17.1
				c-0.2,0.2-0.1,0.3-0.1,0.4c0.1,0.1,0.2,0.1,0.4,0.1L24,14v8.9L16.5,17.1z"/>
			<path class="st1" d="M13.2,10.6h5.7c0.2,0,0.3-0.1,0.3-0.3S19.1,10,18.9,10h-5.7c-0.2,0-0.3,0.1-0.3,0.3S13,10.6,13.2,10.6z"/>
			<path class="st1" d="M19.1,12c0-0.2-0.1-0.3-0.3-0.3h-5.7c-0.2,0-0.3,0.1-0.3,0.3s0.1,0.3,0.3,0.3h5.7C19,12.3,19.1,12.2,19.1,12
				z"/>
			<path class="st1" d="M19.1,13.7c0-0.2-0.1-0.3-0.3-0.3h-2.6c-0.2,0-0.3,0.1-0.3,0.3S16,14,16.2,14h2.6C19,14,19.1,13.9,19.1,13.7
				z"/>
		</g>
	</g>
</g>
</svg>
