<?xml version="1.0" encoding="utf-8"?>
<!-- Generator: Adobe Illustrator 23.0.3, SVG Export Plug-In . SVG Version: 6.00 Build 0)  -->
<svg version="1.1" id="Layer_1" xmlns="http://www.w3.org/2000/svg" xmlns:xlink="http://www.w3.org/1999/xlink" x="0px" y="0px"
	 viewBox="0 0 32 32" style="enable-background:new 0 0 32 32;" xml:space="preserve">
<style type="text/css">
	.st0{fill:#05B0B8;}
	.st1{fill:#FFFFFF;}
</style>
<g>
	<circle class="st0" cx="16" cy="16" r="15"/>
</g>
<g>
	<path class="st1" d="M13.814,12.931c0-0.925-0.757-1.766-1.766-1.766s-1.766,0.757-1.766,1.766s0.757,1.766,1.766,1.766
		C12.973,14.697,13.814,13.856,13.814,12.931z"/>
	<circle class="st1" cx="23.314" cy="12.931" r="1.766"/>
	<path class="st1" d="M20.792,20.918c2.354-1.429,4.036-3.867,4.372-6.726c-0.504,1.513-1.934,2.522-3.531,2.522
		c-2.102,0-3.783-1.681-3.783-3.783s1.681-3.783,3.783-3.783c1.681,0,3.027,1.093,3.531,2.522c-0.589-4.54-4.54-8.071-9.248-8.071
		S7.34,7.13,6.752,11.67c0.504-1.513,1.934-2.522,3.531-2.522c2.102,0,3.783,1.681,3.783,3.783s-1.681,3.783-3.783,3.783
		c-1.681,0-3.027-1.093-3.531-2.522c0.42,2.859,2.018,5.297,4.372,6.726c-2.859,0.673-4.708,2.018-4.708,3.531
		c0,0.673,0.42,1.345,1.177,1.934c0-0.168-0.084-0.252-0.084-0.42c0-1.093,0.925-2.102,2.354-2.859
		c-0.252,0.504-0.42,1.009-0.42,1.597c0,1.429,1.093,2.69,2.69,3.531c0.084,0.084,0.252,0.084,0.336,0.168v-0.084
		c-0.168-0.42-0.252-0.925-0.252-1.429c0-2.102,1.681-3.783,3.783-3.783c2.102,0,3.783,1.681,3.783,3.783
		c0,0.504-0.084,1.009-0.252,1.429v0.084c0.084-0.084,0.252-0.084,0.336-0.168c1.681-0.757,2.69-2.102,2.69-3.531
		c0-0.589-0.168-1.093-0.42-1.597c1.429,0.757,2.354,1.766,2.354,2.859c0,0.168,0,0.252-0.084,0.42
		c0.757-0.589,1.177-1.261,1.177-1.934C25.584,22.936,23.651,21.591,20.792,20.918z"/>
</g>
</svg>
