<?xml version="1.0" encoding="utf-8"?>
<!-- Generator: Adobe Illustrator 23.0.3, SVG Export Plug-In . SVG Version: 6.00 Build 0)  -->
<svg version="1.1" id="Layer_1" xmlns="http://www.w3.org/2000/svg" xmlns:xlink="http://www.w3.org/1999/xlink" x="0px" y="0px"
	 viewBox="0 0 32 32" style="enable-background:new 0 0 32 32;" xml:space="preserve">
<style type="text/css">
	.st0{fill:#20BABA;}
	.st1{fill:#FFFFFF;}
</style>
<circle class="st0" cx="16" cy="16" r="15"/>
<g>
	<g>
		<g>
			<path class="st1" d="M15.9,16.8C15.9,16.8,16,16.8,15.9,16.8C16,16.8,16,16.8,15.9,16.8c0.1,0,0.1,0,0.1,0c1.2,0,2.2-0.4,2.9-1.3
				c1.6-1.8,1.3-4.9,1.3-5.2c-0.1-2.2-1.1-3.3-2-3.8C17.6,6.2,16.9,6,16,6h0c0,0,0,0,0,0h0c-0.5,0-1.4,0.1-2.2,0.6
				c-0.9,0.5-1.9,1.5-2,3.8c0,0.3-0.3,3.4,1.3,5.2C13.7,16.3,14.7,16.8,15.9,16.8z M12.8,10.5C12.8,10.4,12.8,10.4,12.8,10.5
				c0.1-3,2.2-3.3,3.1-3.3h0c0,0,0,0,0,0c1.1,0,3,0.5,3.1,3.3c0,0,0,0,0,0c0,0,0.3,2.8-1,4.3c-0.5,0.6-1.2,0.9-2.1,0.9c0,0,0,0,0,0
				l0,0c0,0,0,0,0,0c-0.9,0-1.6-0.3-2.1-0.9C12.5,13.3,12.8,10.5,12.8,10.5z"/>
			<path class="st1" d="M24.5,21.9C24.5,21.9,24.5,21.9,24.5,21.9c0,0,0-0.1,0-0.1c0-0.8-0.1-2.7-1.9-3.3c0,0,0,0,0,0
				c-1.9-0.5-3.4-1.6-3.4-1.6c-0.3-0.2-0.6-0.1-0.8,0.1c-0.2,0.3-0.1,0.6,0.1,0.8c0.1,0,1.7,1.2,3.8,1.7c1,0.3,1.1,1.4,1.1,2.3
				c0,0,0,0.1,0,0.1c0,0.4,0,0.9-0.1,1.3c-0.7,0.4-3.3,1.7-7.3,1.7c-4,0-6.6-1.3-7.3-1.7c-0.1-0.3-0.1-0.9-0.1-1.3c0,0,0-0.1,0-0.1
				c0-0.9,0.1-2,1.1-2.3c2.1-0.5,3.7-1.7,3.8-1.7c0.3-0.2,0.3-0.5,0.1-0.8c-0.2-0.3-0.5-0.3-0.8-0.1c0,0-1.6,1.1-3.4,1.6
				c0,0,0,0,0,0C7.6,19,7.5,21,7.5,21.8c0,0,0,0.1,0,0.1c0,0,0,0,0,0c0,0.2,0,1.3,0.2,1.9c0,0.1,0.1,0.2,0.2,0.3
				c0.1,0.1,3.1,2,8.1,2s8-1.9,8.1-2c0.1-0.1,0.2-0.2,0.2-0.3C24.5,23.2,24.5,22.1,24.5,21.9z"/>
		</g>
	</g>
	<g>
	</g>
	<g>
	</g>
	<g>
	</g>
	<g>
	</g>
	<g>
	</g>
	<g>
	</g>
	<g>
	</g>
	<g>
	</g>
	<g>
	</g>
	<g>
	</g>
	<g>
	</g>
	<g>
	</g>
	<g>
	</g>
	<g>
	</g>
	<g>
	</g>
</g>
</svg>
