<?xml version="1.0" encoding="utf-8"?>
<!-- Generator: Adobe Illustrator 23.0.3, SVG Export Plug-In . SVG Version: 6.00 Build 0)  -->
<svg version="1.1" id="Layer_1" xmlns="http://www.w3.org/2000/svg" xmlns:xlink="http://www.w3.org/1999/xlink" x="0px" y="0px"
	 viewBox="0 0 32 32" style="enable-background:new 0 0 32 32;" xml:space="preserve">
<style type="text/css">
	.st0{fill:#2569CC;}
	.st1{fill:#FFFFFF;}
</style>
<circle class="st0" cx="16" cy="16" r="15"/>
<g>
	<path class="st1" d="M16,21.5c-1.2,0-2.1-0.9-2.1-2.1c0-1.2,0.9-2.1,2.1-2.1s2.1,0.9,2.1,2.1C18.1,20.6,17.2,21.5,16,21.5z M16,18
		c-0.8,0-1.4,0.6-1.4,1.4c0,0.8,0.6,1.4,1.4,1.4c0.8,0,1.4-0.6,1.4-1.4C17.4,18.7,16.8,18,16,18z"/>
	<path class="st1" d="M9.7,11c-1.2,0-2.1-0.9-2.1-2.1c0-1.2,0.9-2.1,2.1-2.1s2.1,0.9,2.1,2.1C11.8,10.1,10.9,11,9.7,11z M9.7,7.5
		c-0.8,0-1.4,0.6-1.4,1.4s0.6,1.4,1.4,1.4s1.4-0.6,1.4-1.4S10.5,7.5,9.7,7.5z"/>
	<path class="st1" d="M22.3,11c-1.2,0-2.1-0.9-2.1-2.1c0-1.2,0.9-2.1,2.1-2.1c1.2,0,2.1,0.9,2.1,2.1C24.4,10.1,23.5,11,22.3,11z
		 M22.3,7.5c-0.8,0-1.4,0.6-1.4,1.4s0.6,1.4,1.4,1.4c0.8,0,1.4-0.6,1.4-1.4S23.1,7.5,22.3,7.5z"/>
	<path class="st1" d="M10.9,23.5c-2.3-1.5-3.8-4-4-6.8l0.7-0.1c0.2,2.5,1.6,4.9,3.7,6.3L10.9,23.5z"/>
	<path class="st1" d="M20.9,23.6L20.5,23c2.2-1.4,3.6-3.8,3.8-6.4l0.7,0.1C24.8,19.5,23.3,22.1,20.9,23.6z"/>
	<path class="st1" d="M12.6,8.2l-0.3-0.6c2.3-1,4.9-1,7.2,0l-0.3,0.6C17.1,7.3,14.8,7.3,12.6,8.2L12.6,8.2z"/>
	<path class="st1" d="M11.4,11H7.9c-1.4,0-2.4,1.1-2.4,2.4v1.6l1,0.4c2.1,0.8,4.4,0.8,6.5,0l1-0.4v-1.6C13.9,12.1,12.8,11,11.4,11z
		 M13.2,14.6l-0.5,0.2c-0.2,0.1-0.4,0.1-0.5,0.2v-2.2h-0.7v2.4c-1.2,0.2-2.3,0.2-3.5,0v-2.4H7.3V15c-0.2-0.1-0.4-0.1-0.5-0.2
		l-0.5-0.2v-1.2c0-1,0.8-1.7,1.8-1.8h3.5c1,0,1.7,0.8,1.8,1.8V14.6z"/>
	<path class="st1" d="M24,11h-3.5c-1.4,0-2.4,1.1-2.4,2.4v1.6l1,0.4c2.1,0.8,4.4,0.8,6.5,0l1-0.4v-1.6C26.5,12.1,25.4,11,24,11z
		 M25.8,14.6l-0.5,0.2c-0.2,0.1-0.4,0.1-0.5,0.2v-2.2H24v2.4c-1.2,0.2-2.3,0.2-3.5,0v-2.4h-0.7V15c-0.2-0.1-0.4-0.1-0.5-0.2
		l-0.5-0.2v-1.2c0-1,0.8-1.7,1.8-1.8H24c1,0,1.7,0.8,1.8,1.8V14.6z"/>
	<path class="st1" d="M17.8,21.5h-3.5c-1.4,0-2.4,1.1-2.4,2.5v1.6l1,0.4c2.1,0.8,4.4,0.8,6.5,0l1-0.4V24
		C20.2,22.6,19.1,21.5,17.8,21.5z M19.5,25.1L19,25.3c-0.2,0.1-0.4,0.1-0.5,0.2v-2.2h-0.7v2.4c-1.2,0.2-2.3,0.2-3.5,0v-2.4h-0.7v2.2
		c-0.2-0.1-0.4-0.1-0.5-0.2l-0.5-0.2V24c0-1,0.8-1.7,1.8-1.8h3.5c1,0,1.7,0.8,1.8,1.8V25.1z"/>
</g>
</svg>
