<?xml version="1.0" encoding="utf-8"?>
<!-- Generator: Adobe Illustrator 23.0.3, SVG Export Plug-In . SVG Version: 6.00 Build 0)  -->
<svg version="1.2" baseProfile="tiny" id="Layer_1" xmlns="http://www.w3.org/2000/svg" xmlns:xlink="http://www.w3.org/1999/xlink"
	 x="0px" y="0px" viewBox="0 0 32 32" xml:space="preserve">
<circle fill="#C6C2A7" cx="16" cy="16" r="15"/>
<g>
	<path fill="#FFFFFF" d="M24.7,23.6c-1.2,2.1-2.6,2.5-4.3,1.3c-0.7-0.5-1.3-1-1.9-1.6c-1-1.1-2.1-1.5-3.7-1.2
		c-3,0.7-5.7-0.2-7.8-2.4c-2.3-2.5-2.8-5.4-1.5-8.5c1.2-2.9,3.6-4.5,6.8-4.8c4.7-0.5,8.3,2.7,9,6.6c0.4,2.3-0.1,4.4-1.6,6.2
		c-0.5,0.7-0.6,1.3,0.3,2c0.3,0.2,0.6,0.5,0.9,0.8C22,23,23,23.9,24.7,23.6z M17.5,14.6c0-1.9-0.2-3.3-0.9-4.8
		c-0.7-1.5-1.8-2.3-3.5-2.3s-2.7,1-3.3,2.4c-1.1,2.3-1,4.7-0.6,7.2c0.2,1.1,0.5,2.1,1.2,3c1.5,2.1,4.8,1.6,6-0.3
		C17.4,17.8,17.5,16.4,17.5,14.6z"/>
	<path fill="#FFFFFF" d="M25.7,22.1c-0.2-0.9-0.3-1.7-1-2.3c-0.2-0.2-0.6-0.5-0.6-0.8c0-0.4,0.8-0.3,1.1-0.3c2.1,0,2.2,0.3,1.3,2.1
		C26.3,21.2,26.1,21.5,25.7,22.1z"/>
</g>
</svg>
