<?xml version="1.0" encoding="utf-8"?>
<!-- Generator: Adobe Illustrator 23.0.3, SVG Export Plug-In . SVG Version: 6.00 Build 0)  -->
<svg version="1.2" baseProfile="tiny" id="Layer_1" xmlns="http://www.w3.org/2000/svg" xmlns:xlink="http://www.w3.org/1999/xlink"
	 x="0px" y="0px" viewBox="0 0 32 32" xml:space="preserve">
<circle fill="#00B8D2" cx="16" cy="16" r="15"/>
<g>
	<path fill="#FFFFFF" d="M9.4,15.3h0.8c0.8,0,1.3-0.1,1.7-0.4c0.4-0.3,0.5-0.7,0.5-1.2c0-0.5-0.2-0.9-0.6-1.2
		c-0.4-0.2-1-0.3-1.7-0.3H9.4V15.3L9.4,15.3z M9.4,17.3v4.4H7V10.2h3.3c1.6,0,2.7,0.3,3.5,0.9c0.7,0.6,1.1,1.4,1.1,2.6
		c0,0.7-0.2,1.3-0.6,1.8c-0.4,0.5-0.9,0.9-1.6,1.2c1.7,2.6,2.8,4.2,3.4,5h-2.7l-2.7-4.4H9.4L9.4,17.3z"/>
	<path fill="#FFFFFF" d="M25,10.9v6.4c0,1.4-0.4,2.5-1.2,3.2c-0.8,0.8-1.9,1.1-3.4,1.1c-1.4,0-2.5-0.4-3.3-1.1
		c-0.8-0.7-1.2-1.8-1.2-3.2v-6.4h2.9v6.2c0,0.7,0.1,1.3,0.4,1.6c0.3,0.3,0.7,0.5,1.2,0.5c0.6,0,1-0.2,1.3-0.5
		c0.3-0.3,0.4-0.9,0.4-1.6v-6.2H25L25,10.9z"/>
</g>
</svg>
