<svg xmlns="http://www.w3.org/2000/svg" viewBox="0 0 190 190"><defs><style>.cls-1{fill:#bbcbd3;}.cls-2{fill:#f9ec23;}.cls-3{fill:#fff;}.cls-4{fill:#7ec247;}.cls-5{fill:#54a3da;}</style></defs><title>Asset 10</title><g id="Layer_2" data-name="Layer 2"><g id="Layer_1-2" data-name="Layer 1"><circle class="cls-1" cx="95" cy="95" r="95"/><path class="cls-2" d="M130,63.08A64.72,64.72,0,0,0,119.23,45h0A64.57,64.57,0,0,0,101,30,64.61,64.61,0,0,0,67.87,91.6C80,70.93,104.65,59.25,128.36,62.81,128.86,62.88,130,63.08,130,63.08Z"/><path class="cls-3" d="M104.76,145a64.94,64.94,0,0,0,44.41,3.9,68.37,68.37,0,0,0-25.64-21.51,68.79,68.79,0,0,1-19.42,17.3Z"/><path class="cls-4" d="M129.24,65.64C101.2,78.86,88,114.88,101,143.05h0C128.18,128.58,141.4,93.8,130.66,65Z"/><path class="cls-3" d="M40.83,114.45a67.89,67.89,0,0,0,7.93.7,73.15,73.15,0,0,1-2.37-8.49A70.69,70.69,0,0,0,40.83,114.45Z"/><path class="cls-3" d="M98,144.69A68.24,68.24,0,0,1,65.9,99.39a17.19,17.19,0,0,0-17.06,4.47c6.8,44,58.94,69.8,98.08,48.59A67.85,67.85,0,0,1,98,144.69Z"/><path class="cls-5" d="M68.69,98a64.79,64.79,0,0,0,28.12,42.49c-10.46-27.45,1.48-60.63,27-75.23A57.76,57.76,0,0,0,68.45,96.61C68.53,97.08,68.6,97.55,68.69,98Z"/></g></g></svg>