<?xml version="1.0" encoding="utf-8"?>
<!-- Generator: Adobe Illustrator 25.2.1, SVG Export Plug-In . SVG Version: 6.00 Build 0)  -->
<svg version="1.1" id="Layer_1" xmlns="http://www.w3.org/2000/svg" xmlns:xlink="http://www.w3.org/1999/xlink" x="0px" y="0px"
	 viewBox="0 0 32 32" style="enable-background:new 0 0 32 32;" xml:space="preserve">
<style type="text/css">
	.st0{fill:#B88A47;}
	.st1{fill:#FFFFFF;}
</style>
<g>
	<circle class="st0" cx="16" cy="16" r="15"/>
</g>
<g>
	<path class="st1" d="M8.7,16.5c0,0-0.1,0-0.1,0c-0.1,0-0.1-0.1-0.2-0.1c-0.4-0.2-0.9-0.3-1.3-0.5c0,0-0.1,0-0.1,0l0,0
		c0,0-0.1,0-0.1,0c0,0,0,0,0,0c0,0,0,0-0.1,0c0,0,0,0-0.1,0c0,0,0,0,0,0c0,0,0,0-0.1,0c0,0-0.1,0-0.1,0c-0.4-0.2-0.9-0.3-1.3-0.5
		c0,0,0,0-0.1,0c0,0,0,0,0,0l0,0c0,0,0,0,0,0c0,0-0.1,0-0.1,0c0,0,0,0,0,0c0,0-0.1,0-0.1-0.1c-0.2-0.2-0.4-0.3-0.5-0.6
		c-0.1-0.5,0-0.9,0.5-1.2c0,0,0,0,0.1,0c0,0,0,0,0,0c0,0,0,0,0,0c0.1,0,0.2-0.1,0.3-0.1c0,0,0,0,0,0l0,0c0.1,0,0.2-0.1,0.4-0.1
		c0,0,0.1,0,0.1,0c0.6,0,1.3,0,1.9,0.2l0,0c0.3,0.2,0.5,0.3,0.7,0.6c0,0,0,0,0,0c0,0.1,0.1,0.2,0.1,0.2c0,0,0,0.1,0,0.1c0,0,0,0,0,0
		l0,0c0,0,0,0,0,0c0,0,0,0,0,0.1c0,0.1,0.1,0.2,0.1,0.4c0,0,0,0,0,0.1c0,0,0,0,0,0c0.4,0,0.9,0,1.3,0c0.1,0,0.1,0,0.1-0.1
		c-0.1-0.5-0.2-1.1-0.5-1.5c0,0,0,0,0,0c-0.1-0.2-0.3-0.4-0.5-0.6c0,0,0,0,0,0c0,0,0,0,0,0c0,0,0,0,0,0c0-0.1-0.1-0.1-0.2-0.1
		c0,0,0,0,0,0c-0.1-0.1-0.1-0.1-0.2-0.1c0,0-0.1,0-0.1,0c0,0,0,0,0,0C8.4,12.1,8.2,12,8.1,12c-0.1-0.1-0.2-0.1-0.3-0.1
		c0,0,0,0-0.1,0c-0.2,0-0.3-0.1-0.5-0.1l0,0c0,0,0,0,0,0c-0.1,0-0.1,0-0.2,0c0,0,0,0,0,0c-0.1,0-0.2,0-0.2,0c0,0,0,0-0.1,0
		c0,0-0.1,0-0.1,0c-0.6,0-1.3,0-1.9,0.3c-0.3,0.1-0.5,0.2-0.7,0.3c-0.8,0.5-1.2,1.4-1,2.4c0.2,0.8,0.8,1.4,1.7,1.6
		C4.8,16.3,4.9,16,5,15.8c-0.1,0.2-0.2,0.5-0.3,0.7c0.1,0.1,0.2,0.1,0.3,0.1c0,0,0,0,0.1,0c0.2,0.1,0.3,0.1,0.5,0.2c0,0,0,0,0.1,0
		C5.9,16.9,6.1,17,6.3,17c0,0,0.1,0,0.1,0c0,0,0,0,0,0l0,0c0,0.1,0.1,0,0.2,0.1c0.2,0.1,0.3,0.1,0.5,0.1c0,0,0,0,0.1,0
		c0.3,0.1,0.5,0.2,0.8,0.3c0.1,0.1,0.2,0.1,0.3,0.2c0,0,0,0,0,0c0,0,0,0,0.1,0c0,0.1,0.1,0.1,0.1,0.1c0.4,0.5,0.4,0.9,0.1,1.4
		c-0.1,0.1-0.1,0.1-0.2,0.2c0,0-0.1,0.1-0.1,0.1c0,0-0.1,0-0.1,0.1c-0.1,0-0.1,0-0.2,0.1c-0.1,0-0.2,0.1-0.3,0.1c0,0-0.1,0-0.1,0
		c0,0,0,0,0,0c0,0,0,0,0,0c0,0-0.1,0-0.1,0l0,0c0,0,0,0,0,0c-0.1,0-0.2,0-0.2,0c0,0,0,0,0,0c0,0,0,0,0,0c0,0,0,0,0,0
		c0,0-0.1,0-0.1,0c-0.1,0-0.1,0-0.2,0c0,0-0.1,0-0.1,0c-0.5,0-0.9,0-1.4-0.1c-0.1,0-0.1,0-0.2,0c-0.3,0.3-0.6,0.5-1,0.8
		c-0.1,0.1-0.1,0.1,0,0.2c0.4,0.2,0.7,0.3,1.1,0.3c0.6,0.1,1.1,0.1,1.7,0c0,0,0.1,0,0.1,0l0,0l0,0c0,0,0.1,0,0.1,0
		c0.1,0,0.1,0,0.2,0c0.1,0,0.2,0,0.3,0l0,0l0,0c0,0,0.1,0,0.1,0l0,0c0,0,0,0,0,0c0,0,0,0,0,0c0,0,0,0,0.1,0c0.1,0,0.1,0,0.2,0
		c0.1,0,0.2-0.1,0.4-0.1l0,0c0,0,0,0,0,0c0,0,0,0,0,0c0,0,0,0,0.1,0c0.2,0,0.3-0.1,0.5-0.2c0.8-0.5,1.2-1.3,1.1-2.3
		C10.2,17.5,9.6,16.9,8.7,16.5z"/>
	<path class="st1" d="M29.3,21.1c-0.7-1-1.4-2-2.1-3c0-0.1-0.1-0.2-0.1-0.2c0,0,0-0.1,0-0.1c0,0,0,0,0,0c0,0,0,0,0,0
		c-0.2-0.3-0.3-0.6-0.6-0.8l0,0c-0.1-0.3-0.4-0.6-0.6-0.9c0,0,0,0,0,0c-0.3-0.5-0.6-1-1-1.5c0,0,0,0,0,0c-0.2-0.3-0.4-0.6-0.6-0.8
		c0,0,0,0,0,0c-0.1-0.2-0.2-0.4-0.4-0.6c0,0,0,0,0,0c-0.2-0.4-0.5-0.8-0.8-1.2C23,11.9,23,11.9,22.9,12c0,0-0.1,0-0.1,0
		c-0.4,0-0.7,0-1.1,0c-0.1,0-0.2,0-0.2,0.2c0,1.6,0,3.2,0,4.8c0,1.4,0,2.7,0,4.1c0,0.1,0,0.2,0.2,0.2c0.4,0,0.7,0,1.1,0
		c0.3,0,0.2,0,0.2-0.2c0-2.1,0-4.2,0-6.3c0-0.1,0-0.2,0-0.2c0.1,0,0.1,0.1,0.1,0.1c0.2,0.2,0.3,0.5,0.5,0.7l0,0
		c0,0.1,0.1,0.2,0.2,0.2c0,0.1,0,0.1,0.1,0.1c0,0,0,0,0,0c0.2,0.4,0.5,0.7,0.8,1.1c0,0,0,0,0,0c0.1,0.1,0.2,0.3,0.3,0.4l0,0
		c0.2,0.3,0.4,0.6,0.6,0.8l0,0c0,0,0,0.1,0.1,0.1c0.1,0.2,0.3,0.4,0.4,0.6c0.3,0.4,0.6,0.9,0.9,1.3c0,0,0,0,0,0.1
		c0,0.1,0.1,0.1,0.1,0.2c0,0,0.1,0.1,0.1,0.1c0,0,0,0,0,0.1c0,0,0,0,0,0.1c0,0.1,0,0.1,0.1,0.1c0.1,0.2,0.2,0.3,0.3,0.5
		c0,0,0.1,0.1,0.1,0.1C28.3,21.2,28.8,21.2,29.3,21.1C29.3,21.1,29.3,21.1,29.3,21.1z"/>
	<path class="st1" d="M27.9,15.4c0.3,0,0.6,0,0.8,0c0.2,0,0.3,0,0.5,0c0,0,0,0,0,0c0-0.5,0-1.1,0-1.6c0-0.6,0-1.2,0-1.8c0,0,0,0,0,0
		c-0.2,0-0.4,0-0.5,0c-0.1,0-0.3,0-0.4,0c-0.4,0-0.4,0-0.4,0.4c0,1,0,1.9,0,2.9C27.7,15.3,27.7,15.4,27.9,15.4z"/>
	<path class="st1" d="M4.4,19.1c-0.2-0.3-0.2-0.6-0.3-0.9c0,0,0,0,0-0.1c-0.1-0.1-0.1-0.1-0.2,0c0,0,0,0,0,0c-0.4,0-0.8,0-1.2,0
		c-0.1,0-0.1,0.1-0.1,0.1c0,0.5,0.1,1,0.4,1.5c0.3,0.5,0.2,0.5,0.6,0.1c0,0,0.1,0,0.1-0.1c0,0,0.1,0,0.1-0.1
		c0.2-0.1,0.3-0.3,0.5-0.4C4.4,19.2,4.5,19.2,4.4,19.1z"/>
	<path class="st1" d="M19.1,12.8C19.1,12.8,19.1,12.8,19.1,12.8L19.1,12.8C19.1,12.8,19.1,12.8,19.1,12.8
		C19.1,12.8,19.1,12.8,19.1,12.8c-0.1-0.1-0.1-0.2-0.2-0.2c0,0,0,0,0,0c0,0,0-0.1-0.1-0.1c0,0,0,0,0,0c-0.4-0.3-0.9-0.5-1.5-0.5
		c0,0-0.1,0-0.2,0c-0.2,0-0.4-0.1-0.5,0c-0.2,0-0.4,0-0.7,0c-0.2,0-0.4,0-0.5,0c-0.9,0-1.8,0-2.7,0c-0.1,0-0.1,0.1-0.1,0.1
		c0,0.3,0,0.6,0,0.9c0,0.2,0,0.2,0.2,0.2c1.2,0,2.4,0,3.6,0c0.3,0,0.5,0,0.8,0.1c0.7,0.2,1,0.5,1.1,1.2c0,0.1,0,0.3,0,0.4
		c0,0.8-0.5,1.3-1.2,1.4c-0.3,0-0.5,0.1-0.8,0.1c-1.2,0-2.3,0-3.5,0c-0.1,0-0.2,0-0.2,0.2c0,1.5,0,3,0,4.5c0,0.1,0,0.2,0.2,0.2
		c0.4,0,0.7,0,1.1,0c0.2,0,0.2,0,0.2-0.2c0-1,0-2.1,0-3.1c0-0.3,0-0.3,0.3-0.3c0.7,0,1.4,0,2.2,0c0.3,0,0.5,0,0.8-0.1
		c0,0,0.1,0,0.1,0c0.1,0,0.2,0,0.3-0.1c0,0,0.1,0,0.1,0c0,0,0,0,0.1,0c0,0,0,0,0,0c0.3-0.1,0.6-0.2,0.8-0.3c0,0,0,0,0,0
		c0.1,0,0.1-0.1,0.1-0.1c0,0,0,0,0,0c0,0,0.1,0,0.1,0c0,0,0,0,0,0c0.1-0.1,0.2-0.1,0.3-0.3c0,0,0,0,0,0c0.1,0,0.1-0.1,0.1-0.2
		c0,0,0,0,0,0c0.3-0.4,0.4-0.9,0.4-1.4c0,0,0-0.1,0-0.1c0-0.1,0-0.2,0-0.3c0-0.1,0-0.1,0-0.2C19.7,13.8,19.6,13.3,19.1,12.8z
		 M18.1,16.7c0,0.1,0,0.1,0,0.2C18.1,16.8,18.1,16.8,18.1,16.7z M17.9,13.5c-0.2,0-0.3-0.1-0.4-0.2C17.6,13.4,17.7,13.5,17.9,13.5
		c0,0,0,0.1,0.1,0.1C17.9,13.6,17.9,13.5,17.9,13.5z M18.1,13.7C18.1,13.7,18.1,13.7,18.1,13.7C18.1,13.7,18.1,13.7,18.1,13.7
		C18.1,13.8,18.2,13.8,18.1,13.7C18.2,13.8,18.1,13.8,18.1,13.7z M18.1,15.9C18.1,15.8,18.1,15.8,18.1,15.9
		C18.1,15.8,18.1,15.8,18.1,15.9c-0.1,0.1-0.1,0.1-0.2,0.2C17.9,16,18,15.9,18.1,15.9z"/>
</g>
</svg>
