<svg xmlns="http://www.w3.org/2000/svg" xmlns:xlink="http://www.w3.org/1999/xlink" viewBox="0 0 126 126"><defs><style>.cls-1{fill:none;}.cls-2{fill:#f2f2f2;}.cls-3{fill:url(#linear-gradient);}.cls-4{clip-path:url(#clip-path);}.cls-5{fill:url(#linear-gradient-2);}.cls-6{fill:url(#linear-gradient-3);}.cls-7{clip-path:url(#clip-path-2);}.cls-8{fill:url(#linear-gradient-4);}.cls-9{fill:#fff;}.cls-10{clip-path:url(#clip-path-3);}.cls-11{clip-path:url(#clip-path-4);}.cls-12{clip-path:url(#clip-path-5);}.cls-13{fill:url(#radial-gradient);}.cls-14{clip-path:url(#clip-path-8);}.cls-15{clip-path:url(#clip-path-9);}.cls-16{fill:url(#radial-gradient-2);}.cls-17{opacity:0.5;}.cls-18{clip-path:url(#clip-path-11);}.cls-19{fill:#e3ebf4;}.cls-20{opacity:0.6;}.cls-21{clip-path:url(#clip-path-13);}.cls-22{clip-path:url(#clip-path-15);}.cls-23{clip-path:url(#clip-path-17);}.cls-24{clip-path:url(#clip-path-19);}.cls-25{clip-path:url(#clip-path-23);}.cls-26{clip-path:url(#clip-path-27);}.cls-27{clip-path:url(#clip-path-30);}.cls-28{clip-path:url(#clip-path-33);}.cls-29{clip-path:url(#clip-path-35);}.cls-30{clip-path:url(#clip-path-37);}.cls-31{clip-path:url(#clip-path-39);}.cls-32{clip-path:url(#clip-path-40);}.cls-33{fill:url(#radial-gradient-3);}.cls-34{clip-path:url(#clip-path-42);}.cls-35{clip-path:url(#clip-path-43);}.cls-36{fill:url(#radial-gradient-4);}.cls-37{clip-path:url(#clip-path-45);}.cls-38{clip-path:url(#clip-path-46);}.cls-39{fill:url(#radial-gradient-5);}.cls-40{clip-path:url(#clip-path-48);}.cls-41{clip-path:url(#clip-path-49);}.cls-42{fill:url(#radial-gradient-6);}.cls-43{clip-path:url(#clip-path-51);}.cls-44{clip-path:url(#clip-path-52);}.cls-45{fill:url(#radial-gradient-7);}.cls-46{clip-path:url(#clip-path-54);}.cls-47{clip-path:url(#clip-path-55);}.cls-48{fill:url(#radial-gradient-8);}.cls-49{clip-path:url(#clip-path-57);}.cls-50{clip-path:url(#clip-path-58);}.cls-51{fill:url(#radial-gradient-9);}</style><linearGradient id="linear-gradient" x1="48.69" y1="55.67" x2="88.52" y2="67.36" gradientTransform="matrix(1, 0, 0, -1, 0, 128)" gradientUnits="userSpaceOnUse"><stop offset="0" stop-color="#5283aa"/><stop offset="0.07" stop-color="#5584ab"/><stop offset="0.12" stop-color="#5f8ab0"/><stop offset="0.18" stop-color="#6f95b8"/><stop offset="0.23" stop-color="#86a5c5"/><stop offset="0.28" stop-color="#a5bbd4"/><stop offset="0.33" stop-color="#cbd8e7"/><stop offset="0.38" stop-color="#fbfcfd"/><stop offset="0.38" stop-color="#fff"/><stop offset="0.41" stop-color="#e9f4fd"/><stop offset="0.46" stop-color="#c9e4f9"/><stop offset="0.51" stop-color="#a9d4f5"/><stop offset="0.57" stop-color="#8cc7f1"/><stop offset="0.62" stop-color="#71bced"/><stop offset="0.69" stop-color="#5bb4ea"/><stop offset="0.76" stop-color="#49afe8"/><stop offset="0.85" stop-color="#3dabe7"/><stop offset="1" stop-color="#39aae6"/></linearGradient><clipPath id="clip-path"><path class="cls-1" d="M27.7,58c0,10.45,4,18.31,9.29,25.71,7.92,11.17,16.76,21.89,25.13,32.74a1.49,1.49,0,0,0,1.17.58,1.46,1.46,0,0,0,1.17-.58c8.38-10.85,17.21-21.57,25.13-32.74,5.26-7.4,9.29-15.26,9.29-25.71,0-24.88-17.79-37.35-35.59-37.35S27.7,33.09,27.7,58"/></clipPath><linearGradient id="linear-gradient-2" x1="48.9" y1="54.96" x2="88.73" y2="66.66" xlink:href="#linear-gradient"/><linearGradient id="linear-gradient-3" x1="55.08" y1="67.26" x2="96.49" y2="91.92" gradientTransform="matrix(1, 0, 0, -1, 0, 128)" gradientUnits="userSpaceOnUse"><stop offset="0" stop-color="#487293"/><stop offset="0.07" stop-color="#4b7495"/><stop offset="0.12" stop-color="#547b9b"/><stop offset="0.18" stop-color="#6486a5"/><stop offset="0.23" stop-color="#7c98b4"/><stop offset="0.28" stop-color="#9cb1c8"/><stop offset="0.33" stop-color="#c5d1e1"/><stop offset="0.38" stop-color="#fafbfc"/><stop offset="0.38" stop-color="#fff"/><stop offset="0.41" stop-color="#e9f4fd"/><stop offset="0.46" stop-color="#c9e4f9"/><stop offset="0.51" stop-color="#a9d4f5"/><stop offset="0.57" stop-color="#8cc7f1"/><stop offset="0.62" stop-color="#71bced"/><stop offset="0.69" stop-color="#5bb4ea"/><stop offset="0.76" stop-color="#49afe8"/><stop offset="0.85" stop-color="#3dabe7"/><stop offset="1" stop-color="#39aae6"/></linearGradient><clipPath id="clip-path-2"><path class="cls-1" d="M32.83,55.89A30.4,30.4,0,1,0,63.23,25.5a30.44,30.44,0,0,0-30.4,30.39"/></clipPath><linearGradient id="linear-gradient-4" x1="55.08" y1="67.26" x2="96.49" y2="91.92" xlink:href="#linear-gradient-3"/><clipPath id="clip-path-3"><path class="cls-1" d="M35.82,54.85A27.47,27.47,0,1,0,63.29,27.38,27.48,27.48,0,0,0,35.82,54.85"/></clipPath><clipPath id="clip-path-4"><rect class="cls-1" x="15.3" y="9" width="95.4" height="95.4"/></clipPath><clipPath id="clip-path-5"><path class="cls-1" d="M37.83,55.11A25.2,25.2,0,1,0,63,29.91a25.22,25.22,0,0,0-25.2,25.2"/></clipPath><radialGradient id="radial-gradient" cx="-191.53" cy="-515.39" r="0.12" gradientTransform="translate(46895.03 126072.95) scale(244.52)" gradientUnits="userSpaceOnUse"><stop offset="0" stop-color="#66a8de"/><stop offset="0.1" stop-color="#63a5db"/><stop offset="0.22" stop-color="#5d9acf"/><stop offset="0.36" stop-color="#5389bc"/><stop offset="0.51" stop-color="#4772a4"/><stop offset="0.66" stop-color="#3b5787"/><stop offset="0.82" stop-color="#2f3b6a"/><stop offset="0.83" stop-color="#2d3867"/><stop offset="0.85" stop-color="#303d6c"/><stop offset="0.88" stop-color="#364c7b"/><stop offset="0.93" stop-color="#416696"/><stop offset="0.97" stop-color="#568fc3"/><stop offset="1" stop-color="#66a8de"/></radialGradient><clipPath id="clip-path-8"><rect class="cls-1" x="37.96" y="32.57" width="50.01" height="41.69"/></clipPath><clipPath id="clip-path-9"><path class="cls-1" d="M87.19,62.06a1.29,1.29,0,0,0-.78.26c0,.13-.45.32-.58.39a2,2,0,0,0-.52.71c-.07.13-.46.13-.59.2a1,1,0,0,0-.45.45c0,.13-.07.13-.2-.06l-.13.13-.19.26c-.13.39-.52.91-.65.91s-.2.71-.2,1a1.61,1.61,0,0,0,.26.78v.19l.07.46a.87.87,0,0,0,.26.71c.06.07.71-.13.91-.19s.19-.07.32-.13a24.72,24.72,0,0,0,2.6-6h-.13m-41.69.65c-.07.06.39.52.58.71a4.82,4.82,0,0,1,.65,1.17,2.87,2.87,0,0,1,0,.78,1,1,0,0,0,.13.39,5,5,0,0,0-.06,1.1c.06.33-.33,1.24-.33,1.69s.2,1,.33,1,.13.39,0,.46-.33.45-.2.45,0,.39,0,.52a12.45,12.45,0,0,0,.2,1.36,5.18,5.18,0,0,0,.45,1,3.67,3.67,0,0,0,.2.65.21.21,0,0,0,.06.13l.39.2a3.38,3.38,0,0,0,.78,0c.19-.07,0-.2-.06-.26s-.13-.52-.26-.59a1.27,1.27,0,0,1-.07-.71,2.27,2.27,0,0,1,.46-.39c.06-.13.06-.59-.07-.65s0-.65-.06-.91.51-.52.51-.78.65-.45.78-.58a1.59,1.59,0,0,0,.2-.91c-.07-.13.19-.26.32-.26a3,3,0,0,0,.33-.07c.06,0,.19-.26.26-.32s.26-.78.39-.85a1.37,1.37,0,0,0,.26-.65c0-.13.26-.45.32-.58a2,2,0,0,1,.72-.39A4.45,4.45,0,0,0,53,64.2c.07-.32.2-.78.2-.84s.19-.2.19-.26.2-.46.26-.52a2.86,2.86,0,0,0,.39-.59,3.78,3.78,0,0,1,.13-.52V61c-.13-.26-.39-.65-.45-.52s-.46-.26-.59-.32a4.78,4.78,0,0,0-.71-.13c-.13,0-.52-.32-.65-.39a5.49,5.49,0,0,1-.72-.19c-.06-.07-.19-.72-.52-.91a3.12,3.12,0,0,1-1-.91c-.06-.2-.77-.59-1-.72a1.17,1.17,0,0,0-.58-.13c-.07.07-.33-.39-.46-.45s-.58-.2-.58-.13-.26.06-.39-.07-.26.07-.39.07-.46.58-.59.71-.32-.13-.45-.19a.84.84,0,0,0-.59.13c-.13.06-.39-.59-.32-.85a1.05,1.05,0,0,0-.52-.91c-.26,0-.33-.64-.26-.84s-.45-.39-.58-.39a.8.8,0,0,0-.46.46c-.06.13-1.17-.2-1-.85A3.07,3.07,0,0,1,42.12,52a1.93,1.93,0,0,1,1,0c.13.07.32,0,.32-.06s.59,0,.78.06.46.78.59.85.26-.46.26-.59a1.33,1.33,0,0,0-.13-.52,1.56,1.56,0,0,1,.58-1c.26-.13.59-.58.52-.65s.2-.13.26-.19,0-.72.13-.85a5,5,0,0,1,.78-.51c.13-.07.26-.52.26-.59s.39-.45.65-.58.46.13.39.19a1.55,1.55,0,0,0,.52-.32c.19-.13,0-.46-.13-.52s-.07-.46.06-.46.26-.32.2-.39.52.07.78-.13.06.39-.13.65.13.46.19.39.2.13.26.2.26-.07.39,0,.26-.2.26-.33-.32-.39-.39-.52c-.06-.39-.13-1.23-.13-1.43s-.26-.45-.32-.39-.26-.45-.33-.58a.63.63,0,0,1-.13-.46c0-.06-.39-.51-.52-.71s-.26-.13-.26-.06-.32.13-.38.06-.2-.45-.2-.65-.52-.19-.65-.32-.45-.07-.52-.13-.39-.2-.45-.13a10.66,10.66,0,0,0-.07,1.62c-.06.32-.32.65-.45.65s-.07.26,0,.19-.2.39-.26.65-.33,0-.33-.26-.32-.52-.32-.45-.2-.07-.33-.07-.58-.26-.78-.39-.32-.71-.39-.77,0-.13,0-.2a4,4,0,0,1,.52-.58c.13-.13.52-.72.72-.78s.32-.46.26-.52a4.5,4.5,0,0,1,.91-.33c.19-.06.39-.65.39-.78a1.21,1.21,0,0,0-.2-.52c-.06-.06.26-.06.39,0s.52-.13.65-.06a6.53,6.53,0,0,1,.65.39l-.06.39-.07.71c-.58.26-.78.65-.52.65a4.65,4.65,0,0,1,1.37.59c.25.19.32-.26.38-.46a1.23,1.23,0,0,0,0-.71c-.06-.07.33-.07.39.06s.2-.13.33-.13a1.28,1.28,0,0,0,.13-.52c.06-.06-.2-.13-.2-.26s-.45-.26-.58-.32-.07-.26,0-.33-.07-.39-.13-.52-.52-.19-.65-.19-.32-.33-.39-.39a1.53,1.53,0,0,0-.78-.07c-.13.07-.39-.38-.65-.25s-.45-.13-.58-.2-.65.52-.65.91.19.84.32.84,0,.39-.13.52-.32-.13-.26-.19-.26-.52-.32-.72a1.23,1.23,0,0,0-.59-.32c-.13.13-.19.26-.32.39a1.35,1.35,0,0,1,.06.52c-.06.26-.26.26-.32.19s-.13-.06-.26-.13A25,25,0,0,0,38,52.19a2.15,2.15,0,0,1,.33.45c.06.2.45.39.52.39s.06-.45.06-.52.07-.19.07-.13.39.52.45.65.26,1.11.39,1.3a5,5,0,0,0,1.56.71,2,2,0,0,1,.91.59c.07.13.52.19.65.19s.32.39.45.46a.44.44,0,0,1,.2.32c0,.07.65.26.78.46a.32.32,0,0,0,.45.06c.07-.06.2.33.26.46a.67.67,0,0,1,0,.52c-.06.06-.13.71-.26.84a2.69,2.69,0,0,0-.26,1.23c.07.2.33.59.46.59S45,61,45,61s-.07.91.19,1a2.8,2.8,0,0,1,.33.65m1.23-26a4.08,4.08,0,0,0,.85-.2v-.32h.13c.13,0,.32-.65.45-.78a7.09,7.09,0,0,1,1-.46c.2-.13.52-.45.65-.52a1,1,0,0,0,.33-.45,1.81,1.81,0,0,1,.65-.46c.19-.06.26-.32.19-.32a19.69,19.69,0,0,0-2.08,1.1,28.82,28.82,0,0,0-3.11,2.47c.32,0,.78-.06,1-.06M65,68.1a8.33,8.33,0,0,0,1-1.17,2,2,0,0,0,.32-.91,2.86,2.86,0,0,1,.39-.39c.13,0,.46-1.36.72-1.69A5,5,0,0,0,68,61.67a6.54,6.54,0,0,1,.26-1.75,2.52,2.52,0,0,1,.52-.72,13.12,13.12,0,0,0,1-1.49,3.24,3.24,0,0,0,.39-1.37.63.63,0,0,0-.58-.26,1.82,1.82,0,0,1-.72.2c-.13,0-.45-.78-.71-.91s-.39-1-.52-1.23a6.51,6.51,0,0,0-.59-.72c-.13-.06-.13-.58-.13-.71s.2.06.26.26.59,1,.72,1.23a13.9,13.9,0,0,1,.71,1.3c.13.26,1.11.13,1.43,0s.72-.39.72-.52.52-.33.65-.46.25-.71.32-.77a1.63,1.63,0,0,0-.2-.85.84.84,0,0,0-.71-.26c-.13.07-.32-.39-.39-.52a2.66,2.66,0,0,0-.52-.45c-.06-.13.13-.26.2-.33s.78.46,1,.72a3.3,3.3,0,0,1,.45.78c.07.06.59.13.72,0s.26-.07.32.06h.2l.58-.06a1.81,1.81,0,0,1,.39.65c0,.06.2.32.33.32s.19.46.26.52a6.93,6.93,0,0,1,.45,1c.07.26.39.72.46.91a2.5,2.5,0,0,1,.13.65.42.42,0,0,0,.39.33c.13,0,.39-.91.52-1.24a.89.89,0,0,1,.32-.58c.07,0,.13-.2.13-.26s.33-.07.39-.13a2.16,2.16,0,0,1,.26-.78c.13-.06.58-.39.71-.45s.59.32.65.45.2.58.13.65.2.45.46.39.26.26.26.39.26.39.32.52a.83.83,0,0,1,0,.58,2.35,2.35,0,0,0,0,.65,7.49,7.49,0,0,0,1,1c.26.19.39-.39.26-.59s-.59-.65-.65-.78a1.25,1.25,0,0,1-.07-.84c.07-.13.39.06.52.19s.33.33.33.46.91-.39.91-1,.32-1.17.32-1.3-.06-.32-.13-.32.13-.39.39-.39.84-.65,1-.91.46-.45.46-.52a2.26,2.26,0,0,0,.26-.91,1.39,1.39,0,0,0-.2-.78c0-.13-.26-.45-.32-.52a.73.73,0,0,1-.07-.52c0-.06.26-.13.26-.19s.26-.33.26-.46.13.13.26.26.26.72.39.85.72-.72.65-1.17a1.72,1.72,0,0,1,.33-1.17,3.43,3.43,0,0,0,.58-.71,25.14,25.14,0,0,0-6.23-9.81h-.07l-.19-.06c-.39-.07-.59-.46-.52-.59v-.19a2.52,2.52,0,0,0-.65-.52h-.46c-.19,0-.71-.13-.78-.26s-.39.06-.39.26-.51.26-.58.32-.32.13-.32.07-.52.13-.72.19a2.3,2.3,0,0,0-.78.26,1.21,1.21,0,0,0-.39.39c-.06.13-.32.26-.45.32s-.07.46.06.52-.19-.06-.39-.13-.32.2-.39.26-.19-.06-.19-.19-.39-.26-.46-.13-.32-.07-.45-.07-.59.46-.78.59a2.11,2.11,0,0,1-1.17.26c-.13-.07-.32.39-.19.39h-.59a3.94,3.94,0,0,0-1.23.45c-.2.13-.33,0-.33-.13s-.26-.19-.39-.26-.26.59-.39.72-.32-.46-.71-.59-.91-.45-1-.45-.45-.39-.58-.46A2,2,0,0,0,64.2,38a1.93,1.93,0,0,0-.71.39c-.13.13-.33.06-.39.13s-.59.58-.78.71a10.29,10.29,0,0,0-.72,1,.39.39,0,0,1-.39.2c-.06,0-.13.19-.13.26s-.58.39-.65.65a7.66,7.66,0,0,0,.07,1.17c0,.19.26.64.39.64s.06.39.06.46.13.19.13.32-.45.2-.58.26a1.33,1.33,0,0,0-.39.46c0,.13-.45.19-.58.32.06-.06.06-.19.13-.32a.55.55,0,0,0-.07-.46c-.06-.06-.06-.78-.19-1s-.39-.45-.46-.45.07-.26.07-.33-.33-.13-.46-.06-.13.77-.19,1,.19.52.26.52.06.39-.07.39-.26.52-.19.65-.07.32-.2.39.52,0,.78,0a.93.93,0,0,1,.46.13s-.52.06-.59.19-.39.33-.45.46.13.26.26.26.32.45.39.58.06.33,0,.39-.72-.06-1,0a1.17,1.17,0,0,0-.58.78c0,.2.06.78.06.91s.59.26.65.32.59,0,.72.07.45-.52.52-.78.58-.71.71-.91.71-.13.84-.26.07.46.13.72.65.26.52,0,.07-.39.07-.26.52.32.65.45.06.45-.07.45-.13.33,0,.39.26-.39.46-.45.26-.32.19-.39.13-.26.2-.19a2.91,2.91,0,0,0-.52-.78c-.2-.2-.07-.13.32.19l.26.39c.07.07.13.33.2.39l.06.13a2.15,2.15,0,0,1,.13.65c0,.13.26.32.39.32s.26.07.2.07.06.26.26.26.19-.33.06-.39-.13-.52-.13-.71a.8.8,0,0,1,.13-.39c.07,0,0,.45,0,.58a1.28,1.28,0,0,0,.13.45l.13.13.33.26a1.44,1.44,0,0,1,1,.07c0,.06.33.13.39-.07s.07,0,.07.13-.33.52-.33.72-1.1.06-1.55,0a1.68,1.68,0,0,0-1.17.26c-.07.13-.78-.33-1.11-.46s-.58-.65-.65-.71.07-.2,0-.33-.78-.13-1-.06-1.3.19-1.62.32-.65,0-.78,0S58,50,57.77,50a2.67,2.67,0,0,0-.45,1.17l.26.52-.13.26c-.39.26-.78,1.24-.91,1.43a8.79,8.79,0,0,0-.2,2,5.7,5.7,0,0,0,.52,1.69,3.74,3.74,0,0,0,1,1,4,4,0,0,0,1.24.13.68.68,0,0,0,.58-.52l.33.06h.12c0,.2.52.39.65.46a2,2,0,0,0,.59,0c.13,0,.19.91.13,1.17a5.55,5.55,0,0,0,.26,1.49c.06.26.39,1,.45,1.36s-.19,1.24-.19,1.5a4.86,4.86,0,0,0,.52,1.56,4.27,4.27,0,0,1,.19,1.1c0,.13.46,1.1.59,1.49s1.3.39,1.62.2M85.83,56.6c0,.07.32-.19.52-.19s.32-.52.13-.52-.33-.39-.46-.46-.32.13-.32.33-.33.19-.39.32-.07.2,0,.2.45.26.52.32m-.39,2.67c.06-.07,0-.52-.2-.59s-.71.65-.58,1,.19.39.26.26.39.07.45.07.07-.07,0-.2,0-.58.07-.58m-1-.46c0-.19.06-.71.06-.84s-.32-.39-.45-.46-.65,1-1,1.24a.92.92,0,0,0-.39,1c.07.13.84.26,1,.32s.26,0,.39-.06.07-.07,0-.07a2.47,2.47,0,0,0,.33-.52,3.1,3.1,0,0,0,.13-.65m-2.08,1.82c-.26-.13-.65.06-.65.19s1.11.26,1.49.39.59.13.52.07a12,12,0,0,0-1.36-.65m2.27-7.34c.07-.13-.13-.71-.26-.58s0,.45,0,.58.2.13.26,0m.72,1.23c.06-.12-.07-.32-.33-.38s-.19.71-.13.77.39-.19.46-.39m1.23,4.62c.33.19,1,.13,1-.26-.26-.26-1-.2-1,.26m-.13-9a.34.34,0,0,0-.13.39h-.06c-.07,0-.13.39,0,.45s.32-.32.45-.39a1.82,1.82,0,0,1,.46-.13,4.51,4.51,0,0,0,.52-.13c.06,0,.06-.06.13-.19s-.13-.59-.2-.85a1.55,1.55,0,0,0-.32.26,8.93,8.93,0,0,1-.85.59m-6.69,7.73h0m1.82,1.69a3.16,3.16,0,0,0-.78-.91l-.13-.2-.13-.19a1.78,1.78,0,0,0-.52-.52c0-.07-.13.19-.26.13.07.06.2.13.39.26s1,1.88,1.17,2,.39-.32.26-.58m-5.19-2.67c-.07.2.45.59.52.52s-.07-.52-.2-.65-.26,0-.32.13m-7.6,8.84c0,.19.39.32.52.32s.45-.65.45-.78a2.25,2.25,0,0,0,.07-.65.62.62,0,0,1,.13-.32c.06,0,.13-.2.13-.46a12.31,12.31,0,0,0-.26-1.43c0-.19-.2.07-.26.26s-.59.59-.72.72a1.22,1.22,0,0,0-.19.78c.06.06-.07.45-.13.52s.19.84.26,1M50.11,72.84h.32c.07-.39-.32-.33-.32,0m9.22-39.1a1.42,1.42,0,0,1-.58-.13,1.54,1.54,0,0,0-.78-.06c-.2.06-.07-.39.19-.46s.07-.39-.19-.39-.85-.06-1-.06-.39-.13-.52-.13-.84.19-1.17.19a8.11,8.11,0,0,0-1.36.07.49.49,0,0,0-.26.52c0,.13-.78.13-1,.13a8.92,8.92,0,0,0-2,.52c-.39.19-.65.71-.52.71s-.2.33-.39.39-.65.07-.78.2.13.19.13.26.19-.07.32,0a2.5,2.5,0,0,0,.65.13c.13.06-.32.13-.58.13s-.2.45,0,.52.65.13.65.06.52.07.78.13.39.59.45.72a2,2,0,0,1,.07.64c0,.13.39.33.45.26s.07.2-.13.2-.06.45.13.52.07.32-.06.45-.07.39-.2.46.39,1,.39,1.49a1.12,1.12,0,0,0,.39.85c.13,0,.52.06.59.19s.26-.06.32-.13a1.67,1.67,0,0,0,.33-.52c.13-.19.39-1.17.45-1.23s.45-.07.58-.07a3,3,0,0,0,.46-.32c.06-.07.71-.33.91-.46s.45-.65.58-.78-.06-.06-.26-.19-.06-.26-.06-.33a1.65,1.65,0,0,1,.71.13c.2.07.52-.19.39-.26s-.06-.06,0-.06.13-.33.07-.39.52-.52.39-.91.13-.84.32-.84.13-.46-.06-.52,0-.07.06-.13a1.47,1.47,0,0,0,.13-.52c-.06-.07.26-.2.33-.26a4.27,4.27,0,0,1,.58-.33c.2,0,.33-.39.13-.39m3.31.39a.57.57,0,0,0-.52.2c.07.13-.32-.13-.52,0s-.32.52-.19.58.19.39.19.46.46,0,.59-.07.13.33,0,.46.06.32.19.39.33.32.46.32.39-.52.39-.71.52-.07.71,0,.26-.72.07-.85-.52-.06-.59-.13a.9.9,0,0,0-.32-.19c-.2,0-.26-.39-.46-.46m1.76.33a1.27,1.27,0,0,0,.84-.33,3.79,3.79,0,0,0-1.36-.32c-.39,0-.72.06-.72.13a4.11,4.11,0,0,0,1.24.52m-6.5,9.67c-.06-.06-.13.33-.13.46s.33.13.52.13a.28.28,0,0,0,.26-.26c0-.13-.19-.65-.26-.65s-.32.32-.39.32m1-4.15c-.06-.13-.65-.13-.78-.13s-.58-.13-.65-.26-.13.32-.26.39.07.13.13.06,0,.2-.06.33.39.13.45.32a.33.33,0,0,0,.39.2c.2,0,.52-.2.65-.2s.2-.58.13-.71M70.7,36.8c.19-.2,1-.46,1.1-.65s-.07-.39-.13-.39-.19.13-.19.13-.91.26-1.24.39a3.37,3.37,0,0,0-.71.45,10.63,10.63,0,0,0-.39,1.1c-.07.13.32.46.45.59a.39.39,0,0,0,.46,0,1.78,1.78,0,0,0-.2-.85c-.06-.19.65-.58.85-.77m-1-2.34c.33.32.46-.13.78-.07,0-.65-.78-.39-.78.07m5.78.13c0,.13.85.19,1,.13s-.06-.46-.39-.39a.78.78,0,0,0-.65.26M45.3,40.76c-.06.06,0,.52.13.52s.46-.65.65-.52.33.19.33.13a6,6,0,0,0-.72-.39c-.06,0-.26.19-.39.26m2.15,13.89c0,.07.39.07.45-.06s0-.19-.06-.19-.39.12-.39.25M45.82,54c.2-.07.07.26.13.32s.46.19.52.26.33-.13.46-.13-.07-.58-.33-.58-.52-.26-.58-.26a1,1,0,0,1-.46-.33,4.28,4.28,0,0,0-1-.13.65.65,0,0,0-.52.33c-.06.06.39.13.52.06a1.11,1.11,0,0,1,.78.2.42.42,0,0,0,.52.26m-.78.64c0,.07.39,0,.46,0s.06-.06,0-.13-.46,0-.46.13m.26-1.94c-.06-.07-.19.13-.19.19a.13.13,0,0,0,.13.13c.06,0,.19-.26.06-.32m.78.06a.49.49,0,0,0-.26-.13c-.06,0-.06.13-.06.26s.39-.06.32-.13m.59.85c.13-.07.19-.26.06-.26s-.26-.26-.32-.33-.2.13-.2.26a.14.14,0,0,0,.13.13c.07.07.13.33.33.2m41,5.78a.77.77,0,0,1-.52,0c-.07-.07-.13.13-.2.19s-.06.26.07.2.45.13.71.32a3.49,3.49,0,0,0,.13-.84c0,.06-.13.13-.19.13"/></clipPath><radialGradient id="radial-gradient-2" cx="-191.48" cy="-515.31" r="0.12" gradientTransform="translate(47513.4 127752.22) scale(247.82)" gradientUnits="userSpaceOnUse"><stop offset="0" stop-color="#66a8de"/><stop offset="0.22" stop-color="#69aadf"/><stop offset="0.38" stop-color="#72aee0"/><stop offset="0.52" stop-color="#82b4e1"/><stop offset="0.66" stop-color="#97bee3"/><stop offset="0.78" stop-color="#afcae5"/><stop offset="0.9" stop-color="#ccd9e7"/><stop offset="1" stop-color="#e6e7e8"/></radialGradient><clipPath id="clip-path-11"><rect class="cls-1" x="43.94" y="30.17" width="37.93" height="31.89"/></clipPath><clipPath id="clip-path-13"><rect class="cls-1" x="47.32" y="30.04" width="22.15" height="49.23"/></clipPath><clipPath id="clip-path-15"><rect class="cls-1" x="38.55" y="55.11" width="49.88" height="18.25"/></clipPath><clipPath id="clip-path-17"><rect class="cls-1" x="42.45" y="35.04" width="32.28" height="43.71"/></clipPath><clipPath id="clip-path-19"><rect class="cls-1" x="44.98" y="44" width="8.9" height="8.9"/></clipPath><clipPath id="clip-path-23"><rect class="cls-1" x="76.15" y="48.55" width="7.6" height="7.6"/></clipPath><clipPath id="clip-path-27"><rect class="cls-1" x="74.4" y="67.12" width="3.9" height="3.9"/></clipPath><clipPath id="clip-path-30"><rect class="cls-1" x="54.78" y="70.63" width="5.46" height="5.46"/></clipPath><clipPath id="clip-path-33"><rect class="cls-1" x="58.88" y="26.47" width="21.04" height="56.11"/></clipPath><clipPath id="clip-path-35"><rect class="cls-1" x="38.16" y="29.26" width="47.21" height="47.21"/></clipPath><clipPath id="clip-path-37"><rect class="cls-1" x="34.39" y="47.64" width="54.49" height="21.3"/></clipPath><clipPath id="clip-path-39"><rect class="cls-1" x="55.76" y="71.73" width="3.57" height="3.57"/></clipPath><clipPath id="clip-path-40"><path class="cls-1" d="M57.25,75.31a1.88,1.88,0,0,1-1.49-2.08,1.81,1.81,0,1,1,3.57.58,1.86,1.86,0,0,1-2.08,1.5"/></clipPath><radialGradient id="radial-gradient-3" cx="-210.17" cy="-504.81" r="0.12" gradientTransform="translate(-7952.1 2077.45) rotate(98.56) scale(15.1)" gradientUnits="userSpaceOnUse"><stop offset="0" stop-color="#fff"/><stop offset="1" stop-color="#08080a"/></radialGradient><clipPath id="clip-path-42"><rect class="cls-1" x="78.16" y="50.5" width="3.57" height="3.57"/></clipPath><clipPath id="clip-path-43"><path class="cls-1" d="M79.66,54.07a1.81,1.81,0,1,1,2.08-1.49,1.82,1.82,0,0,1-2.08,1.49"/></clipPath><radialGradient id="radial-gradient-4" cx="-198.31" cy="-495.51" r="0.12" gradientTransform="translate(-7763.81 1900.01) rotate(98.56) scale(15.1)" xlink:href="#radial-gradient-3"/><clipPath id="clip-path-45"><rect class="cls-1" x="47.51" y="46.67" width="3.57" height="3.57"/></clipPath><clipPath id="clip-path-46"><path class="cls-1" d="M49.07,50.24a1.81,1.81,0,1,1,2.08-1.49,1.83,1.83,0,0,1-2.08,1.49"/></clipPath><radialGradient id="radial-gradient-5" cx="-198.64" cy="-510.61" r="0.12" gradientTransform="translate(-8020.7 1867.2) rotate(98.56) scale(15.1)" xlink:href="#radial-gradient-3"/><clipPath id="clip-path-48"><rect class="cls-1" x="55.95" y="33.03" width="2.34" height="2.34"/></clipPath><clipPath id="clip-path-49"><path class="cls-1" d="M56.93,35.37a1.15,1.15,0,1,1,1.3-1,1.17,1.17,0,0,1-1.3,1"/></clipPath><radialGradient id="radial-gradient-6" cx="-191.37" cy="-504.05" r="0.12" gradientTransform="translate(-5064.88 1144.66) rotate(98.56) scale(9.72)" xlink:href="#radial-gradient-3"/><clipPath id="clip-path-51"><rect class="cls-1" x="41.86" y="49.13" width="2.34" height="2.34"/></clipPath><clipPath id="clip-path-52"><path class="cls-1" d="M42.9,51.41a1.15,1.15,0,0,1,.32-2.28,1.17,1.17,0,0,1,1,1.3,1.15,1.15,0,0,1-1.3,1"/></clipPath><radialGradient id="radial-gradient-7" cx="-204.97" cy="-512.8" r="0.12" gradientTransform="translate(-5182.89 1278.94) rotate(98.56) scale(9.72)" xlink:href="#radial-gradient-3"/><clipPath id="clip-path-54"><rect class="cls-1" x="49.72" y="74.66" width="2.34" height="2.34"/></clipPath><clipPath id="clip-path-55"><path class="cls-1" d="M50.69,77A1.15,1.15,0,1,1,52,76a1.17,1.17,0,0,1-1.3,1"/></clipPath><radialGradient id="radial-gradient-8" cx="-223.3" cy="-504.01" r="0.12" gradientTransform="translate(-5116.67 1493.31) rotate(98.56) scale(9.72)" xlink:href="#radial-gradient-3"/><clipPath id="clip-path-57"><rect class="cls-1" x="74.72" y="67.38" width="3.57" height="3.57"/></clipPath><clipPath id="clip-path-58"><path class="cls-1" d="M76.22,71a1.81,1.81,0,1,1,2.07-1.5A1.76,1.76,0,0,1,76.22,71"/></clipPath><radialGradient id="radial-gradient-9" cx="-206.72" cy="-495.93" r="0.12" gradientTransform="translate(-7792.5 2041.44) rotate(98.56) scale(15.1)" xlink:href="#radial-gradient-3"/></defs><g id="Layer_2" data-name="Layer 2"><g id="Layer_1-2" data-name="Layer 1"><circle class="cls-2" cx="63" cy="63" r="63"/><path id="SVGID" class="cls-3" d="M27.7,58c0,10.45,4,18.31,9.29,25.71,7.92,11.17,16.76,21.89,25.13,32.74a1.49,1.49,0,0,0,1.17.58,1.46,1.46,0,0,0,1.17-.58c8.38-10.85,17.21-21.57,25.13-32.74,5.26-7.4,9.29-15.26,9.29-25.71,0-24.88-17.79-37.35-35.59-37.35S27.7,33.09,27.7,58"/><g class="cls-4"><rect class="cls-5" x="27.7" y="20.62" width="71.18" height="96.38"/></g><path id="SVGID-2" data-name="SVGID" class="cls-6" d="M32.83,55.89A30.4,30.4,0,1,0,63.23,25.5a30.44,30.44,0,0,0-30.4,30.39"/><g class="cls-7"><rect class="cls-8" x="32.83" y="25.5" width="60.79" height="60.79"/></g><path id="SVGID-3" data-name="SVGID" class="cls-9" d="M35.82,54.85A27.47,27.47,0,1,0,63.29,27.38,27.48,27.48,0,0,0,35.82,54.85"/><g class="cls-10"><rect class="cls-9" x="35.82" y="27.38" width="54.94" height="54.94"/></g><g class="cls-11"><g class="cls-12"><rect class="cls-13" x="37.83" y="29.91" width="50.4" height="50.4"/></g></g><g class="cls-11"><g class="cls-11"><g class="cls-14"><g class="cls-15"><rect class="cls-16" x="37.96" y="32.57" width="50.01" height="41.76"/></g></g></g><g class="cls-11"><g class="cls-17"><g class="cls-18"><path class="cls-19" d="M81.93,46.15c0,8.83-8.51,16-19,16S44,55,44,46.15s8.51-16,19-16,19,7.15,19,16"/></g></g></g><g class="cls-11"><g class="cls-20"><g class="cls-21"><path class="cls-9" d="M69.46,30.63a4,4,0,0,0-1.3-.39c-3.89-.85-8,1.1-11.69,5.06a37.63,37.63,0,0,0-8,16.43h0C46.86,58.49,47,65,48.49,70c1.36,4.61,3.83,7.92,7.14,9.22-3.25-1.3-5.65-4.61-7-9.15-1.5-5-1.63-11.5-.07-18.25h0A37.52,37.52,0,0,1,56.6,35.37c3.57-4,7.73-6,11.69-5.07a8.54,8.54,0,0,1,1.17.33"/></g></g></g><g class="cls-11"><g class="cls-20"><g class="cls-22"><path class="cls-9" d="M38.55,61.86a9.07,9.07,0,0,0,.13,1.37c.78,3.89,4.29,7,9.29,8.63s11.43,2.08,18.24.78h0c6.82-1.29,12.67-4,16.63-7.33,3.64-3.06,5.72-6.69,5.52-10.2.13,3.51-2,7-5.52,10-4,3.31-9.87,6-16.63,7.34h0A37.49,37.49,0,0,1,48,71.67C43,70,39.46,67,38.68,63a6.65,6.65,0,0,1-.13-1.17"/></g></g></g><g class="cls-11"><g class="cls-20"><g class="cls-23"><path class="cls-9" d="M47.71,35a12.32,12.32,0,0,0-1.17.72c-3.25,2.33-4.55,6.75-4,12.08a36.73,36.73,0,0,0,6.88,17h0c4,5.65,8.9,9.93,13.64,12.14,4.29,2.08,8.45,2.47,11.63.78-3.12,1.56-7.21,1.1-11.5-.91A38,38,0,0,1,49.52,64.66h0a38.08,38.08,0,0,1-6.88-16.95c-.58-5.33.71-9.75,4-12.08.39-.2.71-.39,1-.59"/></g></g></g><g class="cls-11"><g class="cls-17"><g class="cls-24"><path class="cls-9" d="M49.39,51.28a2.8,2.8,0,1,1,2.8-2.79,2.74,2.74,0,0,1-2.8,2.79m0-5.59a2.8,2.8,0,1,0,2.8,2.8,2.78,2.78,0,0,0-2.8-2.8"/></g><g class="cls-24"><path class="cls-9" d="M49.39,52.9a4.48,4.48,0,1,1,4.49-4.48,4.49,4.49,0,0,1-4.49,4.48m0-8.83a4.42,4.42,0,1,0,4.42,4.42,4.42,4.42,0,0,0-4.42-4.42"/></g><g class="cls-24"><path class="cls-9" d="M49.39,49.85a1.37,1.37,0,1,1,1.37-1.36,1.3,1.3,0,0,1-1.37,1.36m0-2.73a1.37,1.37,0,1,0,1.37,1.37,1.34,1.34,0,0,0-1.37-1.37"/></g></g></g><g class="cls-11"><g class="cls-17"><g class="cls-25"><path class="cls-9" d="M79.92,54.91a2.53,2.53,0,1,1,2.53-2.53,2.48,2.48,0,0,1-2.53,2.53m0-5.13a2.54,2.54,0,1,0,2.53,2.54,2.54,2.54,0,0,0-2.53-2.54"/></g><g class="cls-25"><path class="cls-9" d="M79.92,56.08a3.77,3.77,0,1,1,3.76-3.76,3.71,3.71,0,0,1-3.76,3.76m0-7.53a3.77,3.77,0,1,0,3.76,3.77,3.77,3.77,0,0,0-3.76-3.77"/></g><g class="cls-25"><path class="cls-9" d="M79.92,53.88a1.56,1.56,0,1,1,1.56-1.56,1.58,1.58,0,0,1-1.56,1.56m0-3.06a1.5,1.5,0,1,0,1.49,1.5,1.43,1.43,0,0,0-1.49-1.5"/></g></g></g><g class="cls-11"><g class="cls-17"><g class="cls-26"><path class="cls-9" d="M76.35,71a2,2,0,1,1,1.94-2,2,2,0,0,1-1.94,2m0-3.9a2,2,0,1,0,1.94,1.95,2,2,0,0,0-1.94-1.95"/></g><g class="cls-26"><path class="cls-9" d="M76.35,70.24a1.17,1.17,0,1,1,1.16-1.17,1.17,1.17,0,0,1-1.16,1.17m0-2.34a1.17,1.17,0,1,0,1.16,1.17,1.17,1.17,0,0,0-1.16-1.17"/></g></g></g><g class="cls-11"><g class="cls-17"><g class="cls-27"><path class="cls-9" d="M57.51,76.15a2.73,2.73,0,1,1,2.73-2.73,2.67,2.67,0,0,1-2.73,2.73m0-5.45a2.73,2.73,0,1,0,2.73,2.72,2.69,2.69,0,0,0-2.73-2.72"/></g><g class="cls-27"><path class="cls-9" d="M57.51,75.05a1.63,1.63,0,1,1,1.63-1.63,1.61,1.61,0,0,1-1.63,1.63m0-3.25a1.63,1.63,0,0,0,0,3.25,1.63,1.63,0,1,0,0-3.25"/></g></g></g><g class="cls-11"><g class="cls-20"><g class="cls-28"><path class="cls-9" d="M77.84,35.56c-2-5.52-4.87-8.7-8.31-9.09-2.54-.26-5.07.71-7.41,3.44h.26c2.34-2.53,4.68-3.44,7.15-3.18,3.37.32,6.23,3.51,8.11,9s2.6,12.73,1.76,20.2-2.92,14.42-6,19.42-6.49,7.4-9.87,7.08a7.54,7.54,0,0,1-4.35-2.28,2.67,2.67,0,0,1-.32-.06,7.33,7.33,0,0,0,4.67,2.53c.2,0,.46.07.65.07,3.25,0,6.56-2.54,9.42-7.21,3-5.07,5.19-11.95,6-19.49s.2-14.8-1.75-20.39"/></g></g></g><g class="cls-11"><g class="cls-20"><g class="cls-29"><path class="cls-9" d="M83.16,31.47c-2.59-2.6-7.33-2.92-13.18-.78-.06,0-.19.07-.26.07.13.06.26.06.39.13,5.78-2.08,10.39-1.82,12.92.71s2.8,7.14.72,13-6.5,12.34-12.21,18.12S59.4,72.77,53.42,74.92C47.64,77,43,76.74,40.43,74.2c-2.27-2.27-2.73-6.17-1.36-11a1.59,1.59,0,0,0-.13-.39c-1.5,5.13-1,9.22,1.3,11.56a8.45,8.45,0,0,0,6.1,2.21,20.33,20.33,0,0,0,7.08-1.43c6-2.14,12.41-6.49,18.18-12.27h0c5.78-5.78,10.14-12.21,12.28-18.19s2-10.58-.72-13.18"/></g></g></g><g class="cls-11"><g class="cls-20"><g class="cls-30"><path class="cls-9" d="M81.61,53a46.89,46.89,0,0,0-19-5.19h0c-7.28-.52-14.29.26-19.61,2.27S34.65,55,34.39,58.36s2.15,6.43,6.69,9.15l-.19-.32c-4.29-2.6-6.5-5.72-6.3-8.77.26-3.25,3.24-6.1,8.44-8.12A46.5,46.5,0,0,1,62.58,48h0c7.27.52,14,2.4,19,5.2s7.34,6,7.14,9.28c-.19,2.21-1.55,4.29-4.22,6-.06.13-.19.26-.26.39A20.52,20.52,0,0,0,86,67.58a7.52,7.52,0,0,0,2.92-5.07c.13-3.37-2.4-6.69-7.33-9.48"/></g></g></g><g class="cls-11"><g class="cls-31"><g class="cls-32"><polygon class="cls-33" points="60.05 71.67 59.4 76.02 55.04 75.37 55.69 71.02 60.05 71.67"/></g></g></g><g class="cls-11"><g class="cls-34"><g class="cls-35"><polygon class="cls-36" points="82.45 50.5 81.8 54.85 77.45 54.13 78.1 49.85 82.45 50.5"/></g></g></g><g class="cls-11"><g class="cls-37"><g class="cls-38"><polygon class="cls-39" points="51.8 46.67 51.15 50.95 46.8 50.3 47.45 45.95 51.8 46.67"/></g></g></g><g class="cls-11"><g class="cls-40"><g class="cls-41"><polygon class="cls-42" points="58.68 33.03 58.29 35.82 55.5 35.37 55.89 32.57 58.68 33.03"/></g></g></g><g class="cls-11"><g class="cls-43"><g class="cls-44"><polygon class="cls-45" points="44.65 49.07 44.26 51.86 41.41 51.47 41.86 48.68 44.65 49.07"/></g></g></g><g class="cls-11"><g class="cls-46"><g class="cls-47"><polygon class="cls-48" points="52.51 74.66 52.06 77.45 49.27 77 49.72 74.2 52.51 74.66"/></g></g></g><g class="cls-11"><g class="cls-49"><g class="cls-50"><polygon class="cls-51" points="79.01 67.32 78.36 71.67 74.01 71.02 74.66 66.67 79.01 67.32"/></g></g></g></g></g></g></svg>