<?xml version="1.0" encoding="utf-8"?>
<!-- Generator: Adobe Illustrator 24.1.2, SVG Export Plug-In . SVG Version: 6.00 Build 0)  -->
<svg version="1.1" id="Layer_1" xmlns="http://www.w3.org/2000/svg" xmlns:xlink="http://www.w3.org/1999/xlink" x="0px" y="0px"
	 viewBox="0 0 32 32" style="enable-background:new 0 0 32 32;" xml:space="preserve">
<style type="text/css">
	.st0{fill:#EEEEEE;}
	.st1{fill:none;}
	.st2{fill:#7EC247;}
	.st3{fill:#54A3DA;}
	.st4{fill:#F2D927;}
</style>
<circle class="st0" cx="16" cy="16" r="15"/>
<image style="overflow:visible;" width="964" height="186" xlink:href="2585009E.png"  transform="matrix(0.3695 0 0 0.3695 -74.3333 -82.2593)">
</image>
<g>
	<path class="st1" d="M-8.5-36.111c0,11.434-6.88,21.286-16.714,25.652c1.753,0.349,3.564,0.535,5.418,0.535
		C-4.508-9.924,7.93-22.362,7.93-37.65S-4.508-65.376-19.796-65.376c-3.625,0-7.086,0.707-10.263,1.977
		C-17.713-60.46-8.5-49.345-8.5-36.111z"/>
	<path class="st1" d="M-9.5-36.111c0-12.644-8.719-23.286-20.46-26.239c1.07,3.212,1.664,6.653,1.664,10.239
		c0,11.913-6.418,22.27-15.882,27.652c3.603,6.633,9.836,11.637,17.289,13.611C-16.732-14.747-9.5-24.598-9.5-36.111z"/>
	<path class="st1" d="M-45.437-24.669c-8.237-4.834-14.086-13.464-15.285-23.586c-1.844,3.655-2.89,7.779-2.89,12.144
		c0,14.918,12.137,27.056,27.056,27.056c2.787,0,5.477-0.424,8.008-1.21C-35.908-12.624-41.981-17.872-45.437-24.669z"/>
</g>
<g>
	<path class="st2" d="M17.061,22.246c0.006,0.021,0.012,0.043,0.017,0.063c0.28,1.028,0.542,1.915,0.785,2.662
		c0.131,0.43,0.5,0.761,1.107,0.995c0.607,0.233,1.349,0.35,2.227,0.35c0.672,0,1.326-0.084,1.961-0.252
		c0.635-0.168,1.093-0.383,1.373-0.645c0.186-0.411,0.388-0.995,0.602-1.751c0.215-0.757,0.425-1.602,0.631-2.536
		c0.205-0.934,0.401-1.915,0.588-2.942c0.186-1.027,0.35-2.008,0.49-2.942c0.025-0.167,0.048-0.328,0.071-0.489
		c-1.896,0.328-3.659,1.051-5.196,2.086c-0.069,0.578-0.139,1.161-0.213,1.751c-0.131,1.037-0.28,2.125-0.448,3.264h-0.14
		c-0.15-0.654-0.304-1.279-0.462-1.877c-0.153-0.577-0.311-1.158-0.473-1.744C18.778,19.378,17.782,20.733,17.061,22.246z"/>
	<path class="st3" d="M26.99,14.221c0.073-0.535,0.137-1.041,0.189-1.509c0.084-0.757,0.126-1.34,0.126-1.751
		c0-0.71-0.252-1.214-0.757-1.513C26.045,9.15,25.447,9,24.756,9c-0.785,0-1.523,0.196-2.214,0.588
		c-0.112,1.009-0.224,2.003-0.336,2.984c-0.112,0.981-0.224,1.971-0.336,2.97c-0.024,0.211-0.05,0.427-0.074,0.64
		C23.35,15.205,25.107,14.524,26.99,14.221z"/>
	<path class="st3" d="M13.352,26.064c0.56-0.168,0.98-0.383,1.261-0.645c0.224-0.803,0.476-1.784,0.757-2.942
		c0.28-1.158,0.551-2.344,0.813-3.559c0.236,0.917,0.462,1.778,0.678,2.581c0.763-1.442,1.769-2.737,2.967-3.826
		c-0.125-0.454-0.251-0.919-0.38-1.403c-0.178-0.663-0.369-1.377-0.575-2.143c-0.112-0.448-0.43-0.789-0.953-1.023
		c-0.523-0.233-1.177-0.35-1.961-0.35c-0.448,0-0.892,0.061-1.331,0.182c-0.439,0.122-0.761,0.229-0.967,0.322
		c-0.187,0.953-0.364,1.798-0.532,2.536c-0.168,0.738-0.332,1.429-0.49,2.073c-0.159,0.644-0.313,1.285-0.462,1.919
		c-0.101,0.43-0.208,0.896-0.318,1.377c0.173,1.756,0.686,3.412,1.47,4.906C13.336,26.068,13.344,26.067,13.352,26.064z"/>
	<path class="st4" d="M11.278,19.956c-0.044-0.308-0.094-0.657-0.153-1.051c-0.122-0.813-0.28-1.854-0.476-3.124
		c-0.196-1.27-0.444-2.858-0.742-4.763C9.794,10.289,9.508,9.77,9.051,9.462C8.593,9.154,8.01,9,7.3,9
		C6.758,9,6.253,9.103,5.787,9.308C5.32,9.514,4.955,9.738,4.694,9.981c0.074,0.785,0.186,1.649,0.336,2.592
		c0.149,0.944,0.313,1.91,0.49,2.9c0.178,0.99,0.374,1.98,0.588,2.97c0.215,0.99,0.425,1.91,0.631,2.76
		c0.205,0.85,0.406,1.607,0.602,2.269c0.196,0.664,0.378,1.163,0.547,1.499c0.205,0.43,0.649,0.761,1.331,0.995
		c0.682,0.233,1.443,0.35,2.284,0.35c0.463,0,0.897-0.043,1.307-0.122C11.848,24.319,11.296,22.2,11.278,19.956z"/>
</g>
</svg>
