<?xml version="1.0" encoding="utf-8"?>
<!-- Generator: Adobe Illustrator 23.0.3, SVG Export Plug-In . SVG Version: 6.00 Build 0)  -->
<svg version="1.2" baseProfile="tiny" id="Layer_1" xmlns="http://www.w3.org/2000/svg" xmlns:xlink="http://www.w3.org/1999/xlink"
	 x="0px" y="0px" viewBox="0 0 32 32" xml:space="preserve">
<g>
	<circle fill="#29ABE2" cx="16" cy="16" r="15"/>
	<g>
		<path fill="#FFFFFF" d="M11.3,17.2c-0.1,0-0.1,0-0.2,0c-0.4-0.2-0.7-0.3-1.1-0.5c-0.5-0.2-0.8-0.5-1.2-0.9
			c-0.1-0.1-0.1-0.1-0.2-0.1c-0.8-0.2-1.1-0.8-1.3-1.6c0-0.1,0-0.2-0.1-0.3c-0.1-0.4-0.3-0.8-0.6-1.1c-0.1-0.1-0.3-0.3-0.4-0.4
			C6,12,5.9,11.6,6,11.2c0.2-0.5,0.4-1,0.7-1.5c0.4-0.8,0.7-1.6,0.7-2.5c0-0.2,0.1-0.3,0.2-0.5C8,6.4,8.4,6.1,8.8,5.9
			C9,5.8,9.2,5.7,9.3,5.6c0.3-0.1,0.6-0.2,1-0.1c0.1,0,0.2,0.1,0.2,0.1c0.1,0.2,0.2,0.2,0.3,0.1c0.2-0.1,0.4-0.2,0.6-0.3
			c0.1,0,0.2-0.1,0.2-0.1c0.2,0,0.3,0,0.3,0.2c0,0.2,0.1,0.3,0.3,0.2c0.1,0,0.2-0.1,0.3-0.1c0.1-0.1,0.2-0.1,0.3-0.2
			C12.9,5.4,13,5.4,13,5.5c0.1,0.1,0.1,0.2,0.2,0.3c0.1,0.1,0.2,0.1,0.2-0.1c0-0.2,0.1-0.4,0.4-0.4c0.1,0,0.1-0.1,0.1-0.2
			c0.1-0.1,0.1-0.3,0.2-0.4c0.1-0.2,0.3-0.3,0.5-0.4c0.2-0.1,0.5-0.3,0.7-0.4c0.1-0.1,0.3-0.2,0.5-0.1c0.3,0,1.1,0.4,1.4,0.6
			c-0.5,0.1-0.7,0.5-1,0.8c-0.2,0.3-0.6,0.4-0.9,0.6c-0.2,0.1-0.4,0.2-0.5,0.4c-0.2,0.1-0.4,0.2-0.6,0.2c0,0,0,0,0,0
			c-0.5,0-0.5,0-0.5,0.5c0,0,0,0.1,0,0.1c-0.3,0-0.5,0-0.7,0c-0.1,0-0.3,0.1-0.4,0.1c-0.2,0.1-0.2,0.3,0.1,0.4
			c0.3,0.1,0.6,0.2,1,0.3c0.3,0.1,0.6,0,0.8-0.1c0.1,0,0.1-0.1,0.1-0.2c0-0.2,0.1-0.4,0.2-0.6c0.1-0.1,0.2-0.2,0.2-0.3
			c0.1-0.1,0.2-0.2,0.4-0.1c0.1,0,0.1,0,0.2,0c0.3,0.2,0.6,0.1,0.9-0.1c0.4-0.2,0.8-0.4,1.3-0.5c0.3-0.1,0.6,0,0.8,0.3c0,0,0,0,0,0
			c0.2,0.2,0.2,0.4,0.1,0.7c-0.1,0.3-0.1,0.5-0.2,0.8c0,0.3-0.4,0.7-0.8,0.7c-0.1,0-0.3,0-0.4,0c-0.1,0-0.2,0.1-0.2,0.2
			c0,0.2,0,0.5-0.1,0.7c-0.1,0.3-0.2,0.4-0.5,0.4c-0.3,0-0.6,0-0.9,0.1c-0.2,0-0.3,0.2-0.5,0.2c-0.1,0.1-0.1,0.2-0.2,0.2
			c-0.5,0.3-0.8,0.8-1.1,1.2c-0.2,0.3-0.5,0.6-0.7,0.9c-0.1,0.2-0.2,0.4-0.4,0.6c-0.1,0.2-0.2,0.5-0.3,0.7c-0.1,0.2-0.1,0.3-0.1,0.5
			c0,0.2,0,0.2-0.2,0.1c-0.1,0-0.2-0.1-0.3-0.1c-0.1-0.1-0.2-0.2-0.2-0.3c-0.1-0.4-0.3-0.7-0.5-1c-0.1-0.1-0.2-0.2-0.4-0.2
			c-0.2,0-0.5,0-0.7,0.1C10,12.9,9.8,13,9.6,13.1c-0.1,0-0.1,0.1-0.2,0.2c-0.2,0.3-0.3,0.7-0.1,1.1c0.3,0.7,0.6,1.4,1.3,1.9
			c0.2,0.1,0.4,0.3,0.5,0.5C11.2,16.9,11.2,17,11.3,17.2C11.3,17.2,11.3,17.2,11.3,17.2z"/>
		<path fill="#FFFFFF" d="M15.1,26.3c0.2-0.7,0-1.4-0.1-2c0-0.2,0-0.4-0.1-0.6c0-0.3-0.2-0.6-0.5-0.8c-0.4-0.2-0.8-0.5-1.2-0.8
			c-0.2-0.1-0.4-0.3-0.4-0.6c-0.1-0.7-0.4-1.3-0.7-1.9c0-0.1-0.1-0.2-0.1-0.3c0-0.1,0-0.2,0.1-0.3c0.1-0.2,0.1-0.3,0.2-0.4
			c0.1-0.2,0.2-0.4,0.3-0.6c0.1-0.1,0.2-0.3,0.1-0.5c0-0.1,0-0.1,0-0.2c-0.1-0.5,0.1-0.8,0.4-1.1c0.4-0.3,0.8-0.6,1.2-0.7
			c0.4-0.1,0.5,0,0.4,0.4c0,0.1-0.1,0.2-0.2,0.3c-0.1,0.1-0.1,0.2,0,0.4c0.3,0.3,0.7,0.6,1,0.9c0.1,0.1,0.2,0.1,0.4,0
			c0.3-0.3,0.6-0.3,1-0.2c0.3,0.1,0.5,0.2,0.6,0.4c0.2,0.3,0.4,0.4,0.7,0.4c0.2,0,0.4,0,0.6,0c0.1,0,0.3,0.1,0.3,0.1
			c0.2,0.2,0.3,0.4,0.5,0.7c0.1,0.2,0.2,0.3,0.4,0.4c0.4,0.2,0.8,0.3,1.2,0.5c0.2,0.1,0.4,0.2,0.6,0.3c0.4,0.2,0.5,0.5,0.7,0.8
			c0.1,0.1,0,0.3,0,0.4c-0.1,0.3-0.1,0.5-0.2,0.8c-0.1,0.2-0.2,0.4-0.3,0.5c-0.2,0.3-0.4,0.6-0.4,0.9c0,0.2-0.1,0.4-0.4,0.5
			c0,0,0,0,0,0c-0.4,0.3-0.8,0.5-1.1,0.9c-0.2,0.2-0.3,0.4-0.5,0.6c-0.2,0.2-0.4,0.3-0.6,0.4c-0.2,0.1-0.3,0.2-0.3,0.4
			c0,0.2-0.1,0.3-0.3,0.3c-0.2,0-0.4,0-0.6,0c-0.6-0.2-0.9,0.1-1,0.6c0,0.2-0.1,0.5-0.1,0.7c-0.1,0.3-0.2,0.4-0.4,0.4
			c-0.2,0-0.3,0-0.3-0.2c-0.1-0.5-0.4-0.9-0.6-1.3C15.1,26.9,15.1,26.6,15.1,26.3z"/>
	</g>
</g>
</svg>
