<svg xmlns="http://www.w3.org/2000/svg" xmlns:xlink="http://www.w3.org/1999/xlink" width="438" height="200" viewBox="0 0 438 200">
  <defs>
    <clipPath id="clip-path">
      <rect id="Rectangle_7" data-name="Rectangle 7" width="438" height="200" rx="4" transform="translate(1907 725)" fill="#76bf4c"/>
    </clipPath>
  </defs>
  <g id="bg" transform="translate(-1907 -725)" clip-path="url(#clip-path)">
    <rect id="Rectangle_15" data-name="Rectangle 15" width="438" height="200" transform="translate(1907 725)" fill="#76bf4c"/>
    <circle id="Ellipse_14" data-name="Ellipse 14" cx="9.295" cy="9.295" r="9.295" transform="translate(1918.312 782)" fill="#212529"/>
    <circle id="Ellipse_15" data-name="Ellipse 15" cx="3.718" cy="3.718" r="3.718" transform="translate(1949.38 807.999)" fill="#212529"/>
    <path id="Path_20" data-name="Path 20" d="M79.444,110.025a14.717,14.717,0,0,1-10.612,19.921c-4.711.991-9.972,2.338-12.493,6.44C53.4,141.174,55,147.393,59.35,150.957a67.177,67.177,0,0,1,20.033,27.662,67.477,67.477,0,1,1-41.849-39.637c5.2,1.708,11.119.09,13.983-4.569l1.065-1.733c2.112-3.436,1.135-7.861-.382-11.6a14.7,14.7,0,0,1,27.243-11.057Z" transform="translate(1920.403 690.446)" fill="#212529"/>
    <path id="Path_30" data-name="Path 30" d="M313.017,324.706c-14.613,0-24.852-6.213-28.829-17.546a8.063,8.063,0,0,1,.994-7.207A7.932,7.932,0,0,1,299.2,302.14c1.193,3.877,4.026,9.046,14.365,9.046,5.617,0,12.178-1.889,12.178-7.306,0-3.529-1.143-6.71-15.458-9.891h-.05c-7.505-1.839-12.824-3.976-16.651-6.76a18.046,18.046,0,0,1-7.953-15.259c0-12.923,11.034-21.969,26.84-21.969,13.023,0,22.814,5.965,26.841,16.353a7.9,7.9,0,0,1-7.356,10.786H331.8a7.848,7.848,0,0,1-7.456-5.219c-1.939-5.617-5.965-8.251-12.526-8.251-2.386,0-10.189.547-10.189,7.505,0,3.628,2.237,6.213,13.519,8.847,13.072,2.983,26.492,8.052,26.492,23.311C341.547,316.306,330.363,324.706,313.017,324.706Z" transform="translate(1628.251 610)" fill="#29abe2"/>
  </g>
</svg>
