<svg xmlns="http://www.w3.org/2000/svg" xmlns:xlink="http://www.w3.org/1999/xlink" width="438" height="200" viewBox="0 0 438 200">
  <defs>
    <clipPath id="clip-path">
      <rect id="Rectangle_11" data-name="Rectangle 11" width="438" height="200" rx="4" transform="translate(0 42)" fill="#fff"/>
    </clipPath>
  </defs>
  <g id="bg" transform="translate(0 -42)" clip-path="url(#clip-path)">
    <rect id="Rectangle_10" data-name="Rectangle 10" width="438" height="200" transform="translate(0 42)" fill="#ef8d32"/>
    <circle id="Ellipse_16" data-name="Ellipse 16" cx="11" cy="11" r="11" transform="translate(72 88)" fill="#212529"/>
    <circle id="Ellipse_17" data-name="Ellipse 17" cx="4.16" cy="4.16" r="4.16" transform="translate(59.045 126.959)" fill="#212529"/>
    <circle id="Ellipse_18" data-name="Ellipse 18" cx="2.773" cy="2.773" r="2.773" transform="translate(9.219 92)" fill="#212529"/>
    <path id="Path_27" data-name="Path 27" d="M78.871,161.138a75.5,75.5,0,1,1-56.878-18.979,8.369,8.369,0,0,0,7.833-8.126l0-1.691a7.254,7.254,0,0,0-2.887-5.211,10.755,10.755,0,1,1,15.174-1.052,10.9,10.9,0,0,1-1.056,1.057c-2.649,2.308-5.48,5.128-5.473,8.642a7.585,7.585,0,0,0,6.381,7.3A75.142,75.142,0,0,1,78.871,161.138Z" transform="translate(0 2.738)" fill="#212529"/>
    <path id="Path_30" data-name="Path 30" d="M313.017,324.706c-14.613,0-24.852-6.213-28.829-17.546a8.063,8.063,0,0,1,.994-7.207A7.932,7.932,0,0,1,299.2,302.14c1.193,3.877,4.026,9.046,14.365,9.046,5.617,0,12.178-1.889,12.178-7.306,0-3.529-1.143-6.71-15.458-9.891h-.05c-7.505-1.839-12.824-3.976-16.651-6.76a18.046,18.046,0,0,1-7.953-15.259c0-12.923,11.034-21.969,26.84-21.969,13.023,0,22.814,5.965,26.841,16.353a7.9,7.9,0,0,1-7.356,10.786H331.8a7.848,7.848,0,0,1-7.456-5.219c-1.939-5.617-5.965-8.251-12.526-8.251-2.386,0-10.189.547-10.189,7.505,0,3.628,2.237,6.213,13.519,8.847,13.072,2.983,26.492,8.052,26.492,23.311C341.547,316.306,330.363,324.706,313.017,324.706Z" transform="translate(-278.749 -73)" fill="#29abe2"/>
  </g>
</svg>
