<svg xmlns="http://www.w3.org/2000/svg" xmlns:xlink="http://www.w3.org/1999/xlink" width="438" height="200" viewBox="0 0 438 200">
  <defs>
    <clipPath id="clip-path">
      <rect id="Rectangle_6" data-name="Rectangle 6" width="438" height="200" rx="4" transform="translate(0 42)" fill="#fff"/>
    </clipPath>
  </defs>
  <g id="bg" transform="translate(0 -42)" clip-path="url(#clip-path)">
    <path id="Path_32" data-name="Path 32" d="M0,0H438V200H0Z" transform="translate(0 42)" fill="#65acf0"/>
    <circle id="Ellipse_7" data-name="Ellipse 7" cx="11" cy="11" r="11" transform="translate(7 115)" fill="#212529"/>
    <circle id="Ellipse_8" data-name="Ellipse 8" cx="8.391" cy="8.391" r="8.391" transform="translate(69 110)" fill="#212529"/>
    <circle id="Ellipse_9" data-name="Ellipse 9" cx="11.5" cy="11.5" r="11.5" transform="translate(49 151)" fill="#212529"/>
    <circle id="Ellipse_10" data-name="Ellipse 10" cx="4.196" cy="4.196" r="4.196" transform="translate(41 100)" fill="#212529"/>
    <circle id="Ellipse_11" data-name="Ellipse 11" cx="2.098" cy="2.098" r="2.098" transform="translate(20.374 86)" fill="#212529"/>
    <circle id="Ellipse_12" data-name="Ellipse 12" cx="76.145" cy="76.145" r="76.145" transform="matrix(0.667, -0.745, 0.745, 0.667, -76, 225.443)" fill="#212529"/>
    <path id="Path_30" data-name="Path 30" d="M313.017,324.706c-14.613,0-24.852-6.213-28.829-17.546a8.063,8.063,0,0,1,.994-7.207A7.932,7.932,0,0,1,299.2,302.14c1.193,3.877,4.026,9.046,14.365,9.046,5.617,0,12.178-1.889,12.178-7.306,0-3.529-1.143-6.71-15.458-9.891h-.05c-7.505-1.839-12.824-3.976-16.651-6.76a18.046,18.046,0,0,1-7.953-15.259c0-12.923,11.034-21.969,26.84-21.969,13.023,0,22.814,5.965,26.841,16.353a7.9,7.9,0,0,1-7.356,10.786H331.8a7.848,7.848,0,0,1-7.456-5.219c-1.939-5.617-5.965-8.251-12.526-8.251-2.386,0-10.189.547-10.189,7.505,0,3.628,2.237,6.213,13.519,8.847,13.072,2.983,26.492,8.052,26.492,23.311C341.547,316.306,330.363,324.706,313.017,324.706Z" transform="translate(-278.749 -73)" fill="#29abe2"/>
  </g>
</svg>
