<svg xmlns="http://www.w3.org/2000/svg" width="68.64" height="77.813" viewBox="0 0 68.64 77.813">
  <g id="help-balloon" transform="translate(-24.68)">
    <path id="Path_17" data-name="Path 17" d="M65.571,68.406a4.261,4.261,0,0,1,1.578-.74,34.322,34.322,0,1,0-25.322-3.626,4.264,4.264,0,0,1,1.712,1.8l4.742,9.721A4,4,0,0,0,54.3,76.993Z" fill="#212529"/>
    <circle id="Ellipse_13" data-name="Ellipse 13" cx="2.435" cy="2.435" r="2.435" transform="translate(56.386 44.435)" fill="#fff"/>
    <path id="Path_18" data-name="Path 18" d="M63.631,20.432a10.087,10.087,0,0,0-13.461,4.49,1.789,1.789,0,0,0,1.272,2.486l.672.18a2.963,2.963,0,0,0,2.939-1.316,5.217,5.217,0,1,1,5.793,8.147A4.239,4.239,0,0,1,59,34.7h-.7a2.087,2.087,0,0,0-2.087,2.087v3.478A2.087,2.087,0,0,0,58.3,42.348H59a2.087,2.087,0,0,0,2.087-2.087,1.157,1.157,0,0,1,.861-1.085q.225-.065.464-.146a10.087,10.087,0,0,0,1.219-18.6Z" fill="#fff"/>
  </g>
</svg>
