<svg xmlns="http://www.w3.org/2000/svg" width="68.64" height="77.788" viewBox="0 0 68.64 77.788">
  <g id="remove-balloon" transform="translate(-24.68)">
    <path id="Path_11" data-name="Path 11" d="M67.805,67.679a4.257,4.257,0,0,1,1.061-.479,34.321,34.321,0,1,0-25.051-2.094.013.013,0,0,1-.007.025.013.013,0,0,0-.013.017L46.9,74.99a4,4,0,0,0,5.958,2.173Z" fill="#212529"/>
    <path id="Path_12" data-name="Path 12" d="M68.813,27.638a2.121,2.121,0,0,0,0-3l-.451-.451a2.121,2.121,0,0,0-3,0L59,30.549l-6.362-6.362a2.121,2.121,0,0,0-3,0l-.451.451a2.121,2.121,0,0,0,0,3L55.549,34l-6.362,6.362a2.121,2.121,0,0,0,0,3l.451.451a2.121,2.121,0,0,0,3,0L59,37.451l6.362,6.362a2.121,2.121,0,0,0,3,0l.451-.451a2.121,2.121,0,0,0,0-3L62.451,34Z" fill="#fff"/>
  </g>
</svg>
