<svg xmlns="http://www.w3.org/2000/svg" width="68.64" height="77.788" viewBox="0 0 68.64 77.788">
  <g id="save-balloon" transform="translate(-55.68 -29)">
    <path id="Path_11" data-name="Path 11" d="M67.805,67.679a4.257,4.257,0,0,1,1.061-.479,34.321,34.321,0,1,0-25.051-2.094.013.013,0,0,1-.007.025.013.013,0,0,0-.013.017L46.9,74.99a4,4,0,0,0,5.958,2.173Z" transform="translate(31 29)" fill="#29abe2"/>
    <path id="Path_30" data-name="Path 30" d="M293.859,275.806c-5.048,0-8.585-2.146-9.959-6.061a2.785,2.785,0,0,1,.344-2.49,2.74,2.74,0,0,1,4.842.755c.412,1.339,1.391,3.125,4.962,3.125,1.94,0,4.207-.652,4.207-2.524,0-1.219-.395-2.318-5.34-3.417H292.9a16.348,16.348,0,0,1-5.752-2.335,6.234,6.234,0,0,1-2.747-5.271c0-4.464,3.812-7.589,9.272-7.589,4.5,0,7.881,2.06,9.272,5.649a2.731,2.731,0,0,1-2.541,3.726h-.052a2.711,2.711,0,0,1-2.576-1.8c-.67-1.94-2.06-2.85-4.327-2.85-.824,0-3.52.189-3.52,2.593,0,1.253.773,2.146,4.67,3.056,4.516,1.03,9.152,2.782,9.152,8.053C303.715,272.9,299.851,275.806,293.859,275.806Z" transform="translate(-203.749 -200.046)" fill="#fff"/>
  </g>
</svg>
