<svg id="Layer_1" data-name="Layer 1" xmlns="http://www.w3.org/2000/svg" xmlns:xlink="http://www.w3.org/1999/xlink" viewBox="0 0 60 60"><defs><style>.cls-1{fill:none;}.cls-2{clip-path:url(#clip-path);}.cls-3{fill:#212529;}</style><clipPath id="clip-path"><rect class="cls-1" width="770" height="60"/></clipPath></defs><g class="cls-2"><g id="bg"><circle id="Ellipse_16" data-name="Ellipse 16" class="cls-3" cx="49.5" cy="18.5" r="5.5"/><circle id="Ellipse_17" data-name="Ellipse 17" class="cls-3" cx="39.52" cy="33.94" r="2.02"/><circle id="Ellipse_18" data-name="Ellipse 18" class="cls-3" cx="14.65" cy="16.29" r="1.35"/><path id="Path_27" data-name="Path 27" class="cls-3" d="M47.13,49.85A36.66,36.66,0,0,1,50,101.62h0A36.67,36.67,0,0,1-1.8,104.47h0A36.66,36.66,0,0,1-4.65,52.7h0A36.55,36.55,0,0,1,19.51,40.63a4.08,4.08,0,0,0,3.8-4v-.82a3.59,3.59,0,0,0-1.4-2.53A5.22,5.22,0,0,1,21.39,26h0a5.23,5.23,0,0,1,7.37-.51h0a5.22,5.22,0,0,1,.51,7.37h0a6.14,6.14,0,0,1-.51.51c-1.28,1.13-2.66,2.49-2.66,4.2a3.69,3.69,0,0,0,3.1,3.55A36.51,36.51,0,0,1,47.13,49.85Z"/></g></g></svg>