<svg id="Layer_1" data-name="Layer 1" xmlns="http://www.w3.org/2000/svg" viewBox="0 0 421.68 86.29"><defs><style>.cls-1{fill:#f2f2f2;}.cls-2{fill:#29abe2;}</style></defs><path class="cls-1" d="M42.05,52.06a15.1,15.1,0,0,1-2.47,8.7,15.11,15.11,0,0,1-7.3,5.48A32.81,32.81,0,0,1,20.53,68.1a28.6,28.6,0,0,1-11.32-2,16.42,16.42,0,0,1-7-5A10.19,10.19,0,0,1,0,54.94a4.71,4.71,0,0,1,1.44-3.46A4.93,4.93,0,0,1,5.08,50a4.24,4.24,0,0,1,3,1,10.32,10.32,0,0,1,2,2.65,13.43,13.43,0,0,0,4.51,4.89,13.6,13.6,0,0,0,7.17,1.62,10.38,10.38,0,0,0,6-1.64,4.61,4.61,0,0,0,2.36-3.75A5.11,5.11,0,0,0,27.65,50a30.26,30.26,0,0,0-8.06-2.83,66,66,0,0,1-10.31-3.3,17,17,0,0,1-6.36-4.56,10.44,10.44,0,0,1-2.38-7,12.23,12.23,0,0,1,2.2-7,15.15,15.15,0,0,1,6.49-5.24,24.91,24.91,0,0,1,10.36-2,33.92,33.92,0,0,1,8.55,1,21.34,21.34,0,0,1,6.34,2.65,13,13,0,0,1,3.86,3.68,7.26,7.26,0,0,1,1.33,4A4.58,4.58,0,0,1,38.25,33a5.58,5.58,0,0,1-4,1.35A4.9,4.9,0,0,1,31,33.24,20.37,20.37,0,0,1,28,30a11.21,11.21,0,0,0-3.28-2.88,10.34,10.34,0,0,0-5.12-1.08,10.07,10.07,0,0,0-5.53,1.42A4.12,4.12,0,0,0,11.86,31a3.81,3.81,0,0,0,1.62,3.16,13.25,13.25,0,0,0,4.35,2.05q2.75.81,7.55,2a40.3,40.3,0,0,1,9.32,3.33,15.52,15.52,0,0,1,5.48,4.56A10.12,10.12,0,0,1,42.05,52.06Z"/><path class="cls-1" d="M63.74,69.63l1.13-2.74-15.1-38a14.11,14.11,0,0,1-1.39-4.76,5.59,5.59,0,0,1,.81-2.92,6,6,0,0,1,2.22-2.15,5.88,5.88,0,0,1,3-.81,4.8,4.8,0,0,1,4,1.68,15.71,15.71,0,0,1,2.38,4.83L71.11,54.94,81,26.86a49.06,49.06,0,0,1,2.11-5.34,6.34,6.34,0,0,1,2-2.61,5.54,5.54,0,0,1,3-.67,5.3,5.3,0,0,1,2.67.74,5.21,5.21,0,0,1,2,2,5.43,5.43,0,0,1,.69,2.65c-.12.57-.31,1.38-.58,2.42s-.6,2.12-1,3.19l-16,41.87a50,50,0,0,1-4,8.67,13.3,13.3,0,0,1-5.24,4.83,19.29,19.29,0,0,1-8.78,1.68,21.39,21.39,0,0,1-8.09-1.16A4.27,4.27,0,0,1,47,80.86a4.17,4.17,0,0,1,1.28-3.26,5.54,5.54,0,0,1,3.79-1.14,7,7,0,0,1,1.94.27A9.08,9.08,0,0,0,56,77a7.29,7.29,0,0,0,3.32-.63,5.82,5.82,0,0,0,2.18-2.18A33.16,33.16,0,0,0,63.74,69.63Z"/><path class="cls-1" d="M113.43,25V26.5a21.4,21.4,0,0,1,7.07-6.26,18.9,18.9,0,0,1,8.83-2A17.61,17.61,0,0,1,138,20.35a13.5,13.5,0,0,1,5.71,6,14.45,14.45,0,0,1,1.57,4.86,50,50,0,0,1,.36,6.64V60.64A8.07,8.07,0,0,1,144,66.21a5.58,5.58,0,0,1-4.38,1.89,5.66,5.66,0,0,1-4.45-1.93,8.13,8.13,0,0,1-1.7-5.53V40.21q0-6.08-1.69-9.28T125,27.72a10,10,0,0,0-6,2,11.25,11.25,0,0,0-4,5.37q-.9,2.74-.9,10.24V60.64q0,3.73-1.73,5.6A5.82,5.82,0,0,1,108,68.1a5.55,5.55,0,0,1-4.36-1.93,8.13,8.13,0,0,1-1.7-5.53V25.2A7.7,7.7,0,0,1,103.46,20a5.28,5.28,0,0,1,4.17-1.73,5.65,5.65,0,0,1,2.92.76,5.49,5.49,0,0,1,2.09,2.29A8,8,0,0,1,113.43,25Z"/><path class="cls-1" d="M201.83,52.92a10.45,10.45,0,0,1-1.37,4.89,16.72,16.72,0,0,1-4.17,5,21.53,21.53,0,0,1-7.08,3.79A29.94,29.94,0,0,1,179.6,68q-11.37,0-17.75-6.62t-6.38-17.77a29.33,29.33,0,0,1,2.92-13.34,21,21,0,0,1,8.45-9,28.71,28.71,0,0,1,21.94-1.78,23,23,0,0,1,6.74,3.59,17.49,17.49,0,0,1,4.23,4.7,9.32,9.32,0,0,1,1.46,4.65,4.92,4.92,0,0,1-1.64,3.73,5.63,5.63,0,0,1-4,1.52,4,4,0,0,1-2.54-.78,12.75,12.75,0,0,1-2.27-2.54,18.45,18.45,0,0,0-4.69-5.12,11.52,11.52,0,0,0-15,2.54q-3.33,4.24-3.33,11.61a22.43,22.43,0,0,0,.86,6.36,14.41,14.41,0,0,0,2.47,4.94,10.67,10.67,0,0,0,3.91,3.1,11.89,11.89,0,0,0,5,1,11.4,11.4,0,0,0,6.31-1.7A15,15,0,0,0,191,52a12.09,12.09,0,0,1,2.42-3.23,4.62,4.62,0,0,1,3.19-1.17,4.73,4.73,0,0,1,3.73,1.71A5.46,5.46,0,0,1,201.83,52.92Z"/><path class="cls-2" d="M223.85,7V25.74a28.09,28.09,0,0,1,7.05-5.5,18.68,18.68,0,0,1,8.89-1.91,19.62,19.62,0,0,1,10.72,2.9,19,19,0,0,1,7.14,8.4,30.91,30.91,0,0,1,2.54,13.05,34.78,34.78,0,0,1-1.42,10.22A24.16,24.16,0,0,1,254.66,61a18.42,18.42,0,0,1-6.53,5.28,19.19,19.19,0,0,1-8.47,1.86,20.38,20.38,0,0,1-5.33-.67,15.46,15.46,0,0,1-4.24-1.78,19.14,19.14,0,0,1-3-2.27,47.58,47.58,0,0,1-3.25-3.5v1.21a7.41,7.41,0,0,1-1.67,5.24A5.52,5.52,0,0,1,218,68.1a5.23,5.23,0,0,1-4.15-1.77,7.73,7.73,0,0,1-1.55-5.24V7.55a9,9,0,0,1,1.5-5.64A5,5,0,0,1,218,0a5.38,5.38,0,0,1,4.36,1.82A7.84,7.84,0,0,1,223.85,7Zm.58,36.43q0,7.32,3.35,11.25a11,11,0,0,0,8.78,3.93,10.08,10.08,0,0,0,8-4q3.34-4,3.35-11.52a22.83,22.83,0,0,0-1.39-8.36,12.15,12.15,0,0,0-4-5.41,9.72,9.72,0,0,0-6-1.91,10.69,10.69,0,0,0-6.25,1.91A12.75,12.75,0,0,0,226,34.84,21.44,21.44,0,0,0,224.43,43.44Z"/><path class="cls-2" d="M304.26,46.18h-24A16.37,16.37,0,0,0,282,53.55,11.3,11.3,0,0,0,292.31,60a14.55,14.55,0,0,0,4-.52,13.08,13.08,0,0,0,3.52-1.61A27.5,27.5,0,0,0,303,55.48q1.44-1.26,3.73-3.42a4.05,4.05,0,0,1,2.69-.8,4.44,4.44,0,0,1,3.06,1,3.72,3.72,0,0,1,1.16,2.92,7.92,7.92,0,0,1-1.3,3.88,15.34,15.34,0,0,1-3.93,4.27,22,22,0,0,1-6.6,3.39,28.4,28.4,0,0,1-9.14,1.35q-11.82,0-18.38-6.74t-6.56-18.28A30.4,30.4,0,0,1,269.35,33a22.27,22.27,0,0,1,4.72-8,20.53,20.53,0,0,1,7.64-5.1,27.42,27.42,0,0,1,10.06-1.77,23.88,23.88,0,0,1,12.33,3A19.9,19.9,0,0,1,311.8,29a20.57,20.57,0,0,1,2.56,9.79q0,4.63-2.65,6A16.52,16.52,0,0,1,304.26,46.18Zm-24-7H302.5q-.45-6.3-3.39-9.41a10.12,10.12,0,0,0-7.75-3.13,9.82,9.82,0,0,0-7.52,3.17Q280.9,33,280.27,39.22Z"/><path class="cls-2" d="M358.3,61.09V59.88a31.64,31.64,0,0,1-4.88,4.61,18.3,18.3,0,0,1-5.21,2.69,19.65,19.65,0,0,1-6.13.92,18.07,18.07,0,0,1-8.15-1.86,18.91,18.91,0,0,1-6.49-5.33,24,24,0,0,1-4.16-8.13,34.78,34.78,0,0,1-1.41-10.1q0-11.51,5.61-17.93t14.78-6.42a19.78,19.78,0,0,1,8.94,1.82,24.92,24.92,0,0,1,7.1,5.59V7.64a9.2,9.2,0,0,1,1.5-5.71A5.1,5.1,0,0,1,364.09,0a5.31,5.31,0,0,1,4.29,1.77A8,8,0,0,1,369.89,7V61.09a7.51,7.51,0,0,1-1.62,5.26,5.42,5.42,0,0,1-4.18,1.75,5.31,5.31,0,0,1-4.15-1.82A7.45,7.45,0,0,1,358.3,61.09Zm-24.13-18a21,21,0,0,0,1.55,8.49A11.83,11.83,0,0,0,340,56.85a10.51,10.51,0,0,0,5.88,1.77,10.87,10.87,0,0,0,5.91-1.68A11.64,11.64,0,0,0,356,51.77a20.92,20.92,0,0,0,1.59-8.69A20.37,20.37,0,0,0,356,34.66a12.7,12.7,0,0,0-4.31-5.39,10.29,10.29,0,0,0-6-1.87,10.08,10.08,0,0,0-6,1.91,12.34,12.34,0,0,0-4.11,5.48A21.87,21.87,0,0,0,334.17,43.08Z"/><path class="cls-2" d="M421.68,52.06a14.22,14.22,0,0,1-9.77,14.18,32.77,32.77,0,0,1-11.75,1.86,28.63,28.63,0,0,1-11.32-2,16.55,16.55,0,0,1-7-5,10.19,10.19,0,0,1-2.25-6.09,4.71,4.71,0,0,1,1.44-3.46A4.93,4.93,0,0,1,384.71,50a4.25,4.25,0,0,1,3,1,10.54,10.54,0,0,1,2,2.65,13.45,13.45,0,0,0,4.52,4.89,13.58,13.58,0,0,0,7.16,1.62,10.36,10.36,0,0,0,6-1.64,4.59,4.59,0,0,0,2.36-3.75A5.09,5.09,0,0,0,407.28,50a30.26,30.26,0,0,0-8.06-2.83,66.38,66.38,0,0,1-10.31-3.3,17,17,0,0,1-6.36-4.56,10.49,10.49,0,0,1-2.38-7,12.24,12.24,0,0,1,2.21-7,15.09,15.09,0,0,1,6.49-5.24,24.89,24.89,0,0,1,10.35-2,34,34,0,0,1,8.56,1,21.28,21.28,0,0,1,6.33,2.65A13.2,13.2,0,0,1,418,25.56a7.24,7.24,0,0,1,1.32,4A4.57,4.57,0,0,1,417.89,33a5.62,5.62,0,0,1-4,1.35,5,5,0,0,1-3.22-1.08,21.33,21.33,0,0,1-3-3.23,11.09,11.09,0,0,0-3.28-2.88,10.31,10.31,0,0,0-5.12-1.08,10,10,0,0,0-5.52,1.42A4.13,4.13,0,0,0,391.49,31a3.81,3.81,0,0,0,1.62,3.16,13.32,13.32,0,0,0,4.36,2.05q2.73.81,7.55,2a40.3,40.3,0,0,1,9.32,3.33,15.61,15.61,0,0,1,5.48,4.56A10.11,10.11,0,0,1,421.68,52.06Z"/></svg>