<svg id="Layer_1" data-name="Layer 1" xmlns="http://www.w3.org/2000/svg" viewBox="0 0 800 800"><defs><style>.cls-1{fill:#212529;}.cls-2{fill:#29abe2;}</style></defs><g id="syncbeds_logo" data-name="syncbeds logo"><circle class="cls-1" cx="400" cy="400" r="325"/><path class="cls-2" d="M401.28,550c-58.68,0-99.8-25-115.77-70.46a32.41,32.41,0,0,1,4-28.94,31.86,31.86,0,0,1,56.29,8.78c4.79,15.57,16.17,36.33,57.69,36.33,22.55,0,48.9-7.59,48.9-29.34,0-14.17-4.59-26.95-62.08-39.72h-.2c-30.14-7.39-51.49-16-66.86-27.15-21.16-15.37-31.94-35.93-31.94-61.28,0-51.89,44.31-88.22,107.79-88.22,52.29,0,91.61,23.95,107.78,65.67A31.74,31.74,0,0,1,477.33,359h-.6a31.51,31.51,0,0,1-29.94-21c-7.79-22.55-24-33.13-50.3-33.13-9.58,0-40.92,2.2-40.92,30.14,0,14.57,9,25,54.29,35.53,52.5,12,106.39,32.33,106.39,93.61C515.85,516.27,470.94,550,401.28,550Z"/></g></svg>