<?xml version="1.0" encoding="utf-8"?>
<!-- Generator: Adobe Illustrator 25.2.1, SVG Export Plug-In . SVG Version: 6.00 Build 0)  -->
<svg version="1.1" id="Layer_1" xmlns="http://www.w3.org/2000/svg" xmlns:xlink="http://www.w3.org/1999/xlink" x="0px" y="0px"
	 viewBox="0 0 32 32" style="enable-background:new 0 0 32 32;" xml:space="preserve">
<g>
	<path d="M20.11,23.15c-1.18,0.38-1.78,0.48-2.99,0.48c-2.7,0-4.26-0.38-4.26-3.4c0-1.52,0.16-3.08,0.16-4.61
		c0-0.95,0.03-2.03-1.18-2.03c-1.33,0-1.52,1.72-1.52,2.7c0,0.99-0.03,2-0.03,2.99c0,1.37-0.03,2.67,0.22,4
		c-1.05,0.19-2.06,0.35-3.15,0.35c-2.29,0-3.65-0.79-3.65-3.24c0-1.4,0.13-2.83,0.13-4.23c0-2.1-0.03-4.38-0.79-6.35
		c1.11-0.29,2.26-0.6,3.43-0.6c1.81,0,3.4,0.41,3.69,2.45c1.33-1.68,2.95-2.45,5.11-2.45c4.83,0,4.16,3.81,4.16,7.24
		C19.45,18.67,19.64,20.96,20.11,23.15z"/>
	<path d="M28.85,17.87v3.34c0,4.48-1.65,9.63-6.99,9.63c-3.08,0-3.08-1.53-3.08-4.16c0.54,0.25,0.99,0.41,1.59,0.41
		c1.84,0,2.26-1.49,2.35-3.05c0.09-1.59,0.09-3.15,0.09-4.73c0-3.15,0.06-6.39-0.89-9.41c1.14-0.35,2.32-0.6,3.53-0.6
		c2.67,0,3.49,1.18,3.49,3.75C28.95,14.67,28.85,16.25,28.85,17.87z M27.42,7.77c-2.29,0-4.89-1.05-4.89-3.72
		c0-1.81,1.33-2.89,3.08-2.89c1.65,0,2.77,0.6,2.77,2.42c0,0.67-0.06,1.37-0.06,2.03c0,0.83,0.22,1.33,0.6,2.03
		C28.41,7.71,27.93,7.77,27.42,7.77z"/>
</g>
</svg>
