<?xml version="1.0" encoding="utf-8"?>
<!-- Generator: Adobe Illustrator 25.2.1, SVG Export Plug-In . SVG Version: 6.00 Build 0)  -->
<svg version="1.1" id="Layer_1" xmlns="http://www.w3.org/2000/svg" xmlns:xlink="http://www.w3.org/1999/xlink" x="0px" y="0px"
	 viewBox="0 0 153.44 42" style="enable-background:new 0 0 153.44 42;" xml:space="preserve">
<g>
	<path d="M21.57,31.95c-1.42,0.46-2.15,0.58-3.61,0.58c-3.26,0-5.14-0.46-5.14-4.13c0-1.86,0.19-3.75,0.19-5.61
		c0-1.16,0.04-2.47-1.42-2.47c-1.61,0-1.84,2.09-1.84,3.29c0,1.2-0.04,2.44-0.04,3.63c0,1.66-0.04,3.25,0.27,4.87
		c-1.27,0.23-2.49,0.42-3.8,0.42c-2.76,0-4.41-0.97-4.41-3.94c0-1.7,0.15-3.44,0.15-5.14c0-2.55-0.04-5.33-0.96-7.73
		c1.34-0.35,2.72-0.73,4.14-0.73c2.19,0,4.11,0.5,4.45,2.98c1.61-2.05,3.57-2.98,6.18-2.98c5.83,0,5.03,4.64,5.03,8.81
		C20.76,26.5,20.99,29.28,21.57,31.95z"/>
	<path d="M32.12,25.53v4.06c0,5.45-2,11.71-8.44,11.71c-3.72,0-3.72-1.86-3.72-5.06c0.65,0.31,1.19,0.5,1.92,0.5
		c2.23,0,2.72-1.82,2.84-3.71c0.12-1.93,0.12-3.83,0.12-5.76c0-3.83,0.08-7.77-1.08-11.44c1.38-0.42,2.8-0.73,4.26-0.73
		c3.22,0,4.22,1.43,4.22,4.56C32.24,21.63,32.12,23.56,32.12,25.53z M30.4,13.24c-2.76,0-5.91-1.28-5.91-4.52
		c0-2.2,1.61-3.52,3.72-3.52c2,0,3.34,0.73,3.34,2.94c0,0.81-0.08,1.66-0.08,2.47c0,1,0.27,1.62,0.73,2.47
		C31.59,13.16,31.01,13.24,30.4,13.24z"/>
	<path d="M54.77,25.03c0,2.32,0.19,4.6,0.92,6.84c-1.54,0.5-2.57,0.7-4.18,0.7c-2.23,0-4.11-0.39-4.41-2.94
		c-1.46,1.97-3.88,2.94-6.29,2.94c-2.92,0-4.95-2.01-4.95-5.06v-5.49c0-2.24-0.23-4.21-0.77-6.38c1.54-0.5,2.34-0.62,3.95-0.62
		c2.99,0,4.76,0.77,4.76,4.06c0,1.43-0.15,2.86-0.15,4.29c0,1.28-0.38,3.79,1.46,3.79c2.38,0,1.92-4.25,1.92-5.8
		c0-1.97,0-3.83-0.46-5.76c1.3-0.31,2.53-0.54,3.88-0.54c3.42,0,4.53,1.24,4.53,4.64C54.96,21.47,54.77,23.25,54.77,25.03z"/>
	<path d="M65.51,32.91c-2.23,0-8.25,0.08-8.25-3.32c0-0.97,0.5-1.86,0.96-2.67c1.23,1.16,2.84,2.01,4.57,2.01
		c0.77,0,1.92-0.08,1.92-1.12c0-1.97-6.79-1.93-6.79-7.34c0-4.6,4.41-5.57,8.21-5.57c2.15,0,7.25,0.15,7.25,3.32
		c0,0.89-0.5,1.66-1.04,2.36c-1.34-0.89-2.61-1.62-4.26-1.62c-0.69,0-1.38,0.31-1.38,1.12c0,2.09,6.83,1.74,6.83,7.07
		C73.54,31.45,69.12,32.91,65.51,32.91z M62.1,13.47c-1.04-1.43-2.03-2.55-3.38-3.71c0.88-0.89,1.88-1.62,3.18-1.62
		c1.65,0,3.3,2.09,4.18,3.29c0.84-1.04,2.46-3.29,3.99-3.29c0.96,0,1.65,0.39,2.3,1.08c-1.38,1.2-2.49,2.63-3.42,4.25H62.1z"/>
	<path d="M83.63,26c0,2.4,0,3.63,0.23,6.03c-1.27,0.35-2.38,0.58-3.68,0.58c-2.38,0-4.53-1.35-4.53-4.06c0-2.9,0.35-5.41,0.35-8.35
		v-7.11c0-2.44-0.27-4.91-0.65-7.27c1.38-0.39,2.65-0.62,4.07-0.62c2.61,0,4.68,0.97,4.68,3.87c0,3.4-0.46,7.07-0.46,11.56
		c1.54-0.35,4.61-1.74,4.61-3.67c0-0.35-0.08-0.66-0.12-1c1.3-0.39,2.65-0.73,4.03-0.73c1.46,0,2.99,0.46,2.99,2.2
		c0,1.82-2.65,3.4-3.99,4.14c1.04,1.78,2.99,4.87,4.68,6.07c0.65,0.46,1.15,0.58,1.96,0.58c-0.34,2.86-1.92,4.6-4.87,4.6
		c-1.46,0-2.96-0.54-4.03-1.59c-2.03-1.97-3.88-4.87-5.26-7.34V26z"/>
	<path d="M109.65,15.02c3.57,0,5.07,0.23,8.37,1.62c-0.61,2.74-0.58,5.72-0.58,8.5c0,2.59,0.19,4.14,1.61,6.34
		c-1.73,0.93-3.76,1.28-5.72,1.28c-1.54,0-2.34-0.5-2.96-1.93c-1.65,1.39-3.53,1.89-5.64,1.89c-4.38,0-6.37-2.71-6.37-6.96
		C98.37,18.73,102.71,15.02,109.65,15.02z M110.15,19.19c-0.31-0.08-0.61-0.15-0.92-0.15c-2.57,0-2.96,3.59-2.96,5.49
		c0,1.24-0.04,3.59,1.69,3.59c1.96,0,2.23-3.25,2.23-4.68C110.19,21.86,110.15,20.78,110.15,19.19z"/>
	<path d="M121.24,12.78c-0.04-2.44,0-4.72-0.69-7.03c1.38-0.31,2.72-0.58,4.14-0.58c3.3,0,4.49,1.35,4.49,4.64
		c0,0.89-0.04,1.82-0.11,2.71c-0.35,4.17-0.27,8.43-0.27,12.64c0,2.36,0.04,4.48,0.58,6.77c-1.46,0.46-2.53,0.66-4.07,0.66
		c-2.88,0-4.14-1.16-4.14-4.1c0-2.67,0.19-5.37,0.19-8.04C121.36,17.88,121.28,15.33,121.24,12.78z"/>
	<path d="M142.04,32.91c-5.76,0-10.28-1.86-10.28-8.27c0-6.65,4.45-9.74,10.51-9.74c5.83,0,10.17,2.09,10.17,8.54
		C152.45,29.98,148.15,32.91,142.04,32.91z M142.16,19.04c-2.23,0-2.11,3.79-2.11,5.33c0,1.62-0.19,4.44,2.11,4.44
		c2.11,0,2-3.25,2-4.71C144.16,22.52,144.35,19.04,142.16,19.04z"/>
</g>
</svg>
