<svg id="view" xmlns="http://www.w3.org/2000/svg" width="22.117" height="14.096" viewBox="0 0 22.117 14.096">
  <g id="Group_2" data-name="Group 2" transform="translate(0 0)">
    <g id="Group_1" data-name="Group 1">
      <path id="Path_1" data-name="Path 1" d="M21.976,145.871c-.2-.27-4.905-6.618-10.918-6.618S.338,145.6.14,145.871a.73.73,0,0,0,0,.861c.2.27,4.905,6.618,10.918,6.618s10.72-6.348,10.918-6.618A.729.729,0,0,0,21.976,145.871Zm-10.918,6.02c-4.429,0-8.265-4.213-9.4-5.59,1.134-1.379,4.962-5.589,9.4-5.589s8.264,4.212,9.4,5.59C19.324,147.68,15.5,151.891,11.058,151.891Z" transform="translate(0 -139.253)" fill="#aaa"/>
    </g>
  </g>
  <g id="Group_4" data-name="Group 4" transform="translate(6.683 2.673)">
    <g id="Group_3" data-name="Group 3">
      <path id="Path_2" data-name="Path 2" d="M236.458,232.088a4.375,4.375,0,1,0,4.375,4.375A4.38,4.38,0,0,0,236.458,232.088Zm0,7.291a2.916,2.916,0,1,1,2.916-2.916A2.92,2.92,0,0,1,236.458,239.379Z" transform="translate(-232.084 -232.088)" fill="#aaa"/>
    </g>
  </g>
</svg>
