<?xml version="1.0" encoding="utf-8"?>
<!-- Generator: Adobe Illustrator 28.0.0, SVG Export Plug-In . SVG Version: 6.00 Build 0)  -->
<svg version="1.1" id="Layer_1" xmlns="http://www.w3.org/2000/svg" xmlns:xlink="http://www.w3.org/1999/xlink" x="0px" y="0px"
	 viewBox="0 0 64 64" style="enable-background:new 0 0 64 64;" xml:space="preserve">
<style type="text/css">
	.st0{fill:#0277BA;}
	.st1{stroke:#FFFFFF;stroke-width:0.2433;stroke-linecap:round;}
	.st2{fill:#FFFFFF;stroke:#000000;stroke-width:0.3649;stroke-linecap:round;}
	.st3{stroke:#000000;stroke-width:0.2433;stroke-linecap:round;}
	.st4{stroke:#F5DF03;stroke-width:0.3649;stroke-linecap:round;}
	.st5{fill:none;stroke:#000000;stroke-width:0.1216;stroke-linecap:round;}
	.st6{fill:#FFFFFF;stroke:#000000;stroke-width:0.2433;stroke-linecap:round;}
	.st7{fill:none;stroke:#000000;stroke-width:0.2433;stroke-linecap:round;}
	.st8{fill:#F5DF03;stroke:#000000;stroke-width:0.2433;stroke-linecap:round;}
	.st9{fill:#FFFFFF;stroke:#000000;stroke-width:0.3649;}
	.st10{stroke:#000000;stroke-width:0.4865;stroke-linecap:round;}
	.st11{fill:none;stroke:#000000;stroke-width:0.1825;stroke-linecap:round;}
	.st12{fill:none;stroke:#000000;stroke-width:0.3649;stroke-linecap:round;}
	.st13{stroke:#000000;stroke-width:0.5839;stroke-linecap:round;stroke-miterlimit:4.8;}
	
		.st14{clip-path:url(#SVGID_00000033360463724584172870000005762618387809782663_);fill:#49B132;stroke:#000000;stroke-width:0.5;stroke-miterlimit:10;}
	.st15{fill:#49B132;}
</style>
<path class="st0" d="M57.329,15.678L39.183,2.982c-4.946-3.465-12.538-3.276-17.295,0.41L6.104,15.709
	c-3.15,2.457-5.639,7.498-5.639,11.467v21.738c0,8.033,6.521,14.586,14.555,14.586H48.98c8.033,0,14.555-6.521,14.555-14.555V27.586
	C63.535,23.333,60.794,18.103,57.329,15.678z"/>
<g>
	<path class="st0" d="M15.02,63.25c-7.888,0-14.305-6.431-14.305-14.336V27.176c0-3.895,2.435-8.846,5.543-11.27L22.041,3.588
		c2.362-1.831,5.492-2.838,8.813-2.838c3.035,0,5.942,0.865,8.185,2.436l18.146,12.697c3.421,2.394,6.1,7.535,6.1,11.703v21.359
		c0,7.888-6.417,14.305-14.305,14.305H15.02z"/>
	<path d="M30.855,1c2.985,0,5.84,0.849,8.041,2.391l18.146,12.696c3.361,2.352,5.993,7.403,5.993,11.499v21.359
		C63.035,56.695,56.73,63,48.98,63H15.02C7.27,63,0.965,56.681,0.965,48.914V27.176c0-3.827,2.392-8.691,5.447-11.073L22.194,3.786
		C24.513,1.99,27.589,1,30.855,1 M30.855,0.5c-3.242,0-6.489,0.971-8.967,2.891L6.104,15.709c-3.15,2.457-5.639,7.498-5.639,11.467
		v21.738c0,8.033,6.521,14.586,14.555,14.586H48.98c8.033,0,14.555-6.521,14.555-14.555V27.586c0-4.253-2.741-9.482-6.206-11.908
		L39.183,2.982C36.813,1.322,33.836,0.5,30.855,0.5L30.855,0.5z"/>
</g>
<g>
	<path class="st0" d="M10.592,13.955h42.816v29.923c0,11.823-9.585,18.392-21.408,18.392s-21.408-6.569-21.408-18.392V13.955z"/>
	<path class="st1" d="M32,19.064v19.705"/>
	<g transform="matrix(-1 0 0 1 356-1.155e-5)">
		<g id="e">
			<path class="st2" d="M32,20.037h5.109 M36.136,21.375H32 M32,19.064h0.73v-1.703h1.46v1.703h1.46v-1.703h1.46v2.676l-0.973,1.338
				l0.73,15.691h9.123v13.623l2.311,6.69H32.122"/>
			<path class="st3" d="M31.878,53.73h4.622V40.593l-4.622-2.676"/>
			<path class="st4" d="M35.163,39.499v4.622 M33.581,39.499v4.622 M36.622,41.202H32 M36.622,42.905H32 M32,39.499v4.622"/>
			<path class="st2" d="M44.893,24.537h-7.298 M43.677,25.511h-4.865 M44.893,22.226v2.311l-1.216,0.973l0.365,11.555h-5.595
				l0.365-11.555l-1.216-0.973v-2.311h1.46v1.46h1.46v-1.46h1.46v1.46h1.46v-1.46H44.893z"/>
			<path class="st5" d="M34.798,32.322h-1.703 M39.42,39.012v1.946 M43.799,39.012v1.946 M41.609,37.066v1.946 M37.23,39.012v-1.946
				 M45.988,40.958h-9.001 M45.988,39.012H34.798 M43.799,42.905v1.946 M41.609,42.905v-1.946 M45.988,44.851h-5.474 M45.988,42.905
				h-5.474 M43.799,46.797v1.946 M41.609,46.797v-1.946 M45.988,48.743h-5.474 M45.988,46.797h-5.474 M41.609,50.689v-1.946
				 M33.946,21.375v2.189 M36.136,23.564H32 M33.946,25.754v2.189 M33.946,30.133v2.189 M32,30.133v-2.189 M36.501,30.133H32
				 M36.379,27.943H32 M36.379,25.754H32 M41.244,30.619v1.703 M42.582,28.916v1.703 M39.906,30.619v-1.703 M42.582,25.511v1.703
				 M39.906,27.213v-1.703 M42.096,32.322h-1.703 M43.799,30.619H38.69 M43.738,28.916h-4.987 M43.677,27.213h-4.865"/>
			<path id="c" class="st6" d="M31.878,39.499c2.687,0,4.865,2.178,4.865,4.865h1.825c0-3.695-2.995-6.69-6.69-6.69"/>
			<path class="st7" d="M31.878,39.742c2.461-0.003,4.493,1.922,4.622,4.379"/>
			<path class="st8" d="M40.028,39.864v13.623 M40.515,53.487V39.985l-0.487-0.243c-2.068,0.365-3.892,2.676-3.892,4.379v9.366
				H40.515z"/>
			<path class="st9" d="M45.988,50.689h-5.474 M46.84,35.12H31.878 M31.878,32.322h1.216v1.825h1.703v-1.825h1.946v1.825h1.703
				v-1.825h1.946v1.825h1.703v-1.825h1.946v1.825h1.703v-1.825h1.095v2.798l-0.851,1.946h-14.11"/>
			<g id="d">
				<circle cx="41.244" cy="28.916" r="0.73"/>
				<path class="st10" d="M41.244,28.916v-2.433"/>
			</g>
			<g id="f">
				<g id="a">
					<path id="b" class="st11" d="M39.177,44.972c0-0.243-0.243-0.487-0.487-0.487c0-0.73-0.973-0.73-0.973,0h-1.581"/>
					<g transform="matrix(1, 0, 0, -1, 0, 514)">
						<path id="b_00000016070095447807145930000003238537823145864343_" class="st11" d="M39.177,44.972
							c0,0.243-0.243,0.487-0.487,0.487c0,0.73-0.973,0.73-0.973,0h-1.581"/>
					</g>
				</g>
				<circle class="st11" cx="36.744" cy="44.972" r="0.122"/>
				<circle class="st11" cx="38.203" cy="44.972" r="0.146"/>
			</g>
			<g transform="translate(0, 36)">
				<g id="f_00000166637412991339202420000001822881658829440186_">
					<g id="a_00000078734475401991095170000006268877439828622729_">
						<path id="b_00000086669147672054347240000015655198313355075495_" class="st11" d="M39.177,49.351
							c0-0.243-0.243-0.487-0.487-0.487c0-0.73-0.973-0.73-0.973,0h-1.581"/>
						<g transform="matrix(1, 0, 0, -1, 0, 514)">
							<path id="b_00000100360418425890245830000016673633102731913877_" class="st11" d="M39.177,49.351
								c0,0.243-0.243,0.487-0.487,0.487c0,0.73-0.973,0.73-0.973,0h-1.581"/>
						</g>
					</g>
					<circle class="st11" cx="36.744" cy="49.351" r="0.122"/>
					<circle class="st11" cx="38.203" cy="49.351" r="0.146"/>
				</g>
			</g>
		</g>
	</g>
	<path class="st8" d="M11.808,21.618l2.068-2.189l-2.068-2.311l3.041,0.73l0.851-3.041l0.851,3.041l3.163-0.73l-2.068,2.311
		l2.068,2.189l-3.041-0.608l-0.973,2.919l-0.973-2.919L11.808,21.618z"/>
	<path class="st6" d="M45.988,16.023c1.679-0.48,3.43,0.493,3.91,2.172s-0.493,3.43-2.172,3.91c-0.568,0.162-1.17,0.162-1.737,0
		c1.679,1.342,4.129,1.068,5.471-0.611c1.342-1.679,1.068-4.129-0.611-5.471C49.427,14.888,47.409,14.888,45.988,16.023"/>
	<g id="e_00000046305576938121203210000005281621764705915568_">
		<path class="st2" d="M32,20.037h-5.109 M27.864,21.375H32 M32,19.064h-0.73v-1.703h-1.46v1.703h-1.46v-1.703h-1.46v2.676
			l0.973,1.338l-0.73,15.691h-9.123v13.623l-2.311,6.69h16.178"/>
		<path class="st3" d="M32.122,53.73h-4.622V40.593l4.622-2.676"/>
		<path class="st4" d="M28.837,39.499v4.622 M30.419,39.499v4.622 M27.378,41.202H32 M27.378,42.905H32 M32,39.499v4.622"/>
		<path class="st2" d="M19.107,24.537h7.298 M20.323,25.511h4.865 M19.107,22.226v2.311l1.216,0.973l-0.365,11.555h5.595
			l-0.365-11.555l1.216-0.973v-2.311h-1.46v1.46h-1.46v-1.46h-1.46v1.46h-1.46v-1.46H19.107z"/>
		<path class="st5" d="M29.202,32.322h1.703 M24.58,39.012v1.946 M20.201,39.012v1.946 M22.391,37.066v1.946 M26.77,39.012v-1.946
			 M18.012,40.958h9.001 M18.012,39.012h11.191 M20.201,42.905v1.946 M22.391,42.905v-1.946 M18.012,44.851h5.474 M18.012,42.905
			h5.474 M20.201,46.797v1.946 M22.391,46.797v-1.946 M18.012,48.743h5.474 M18.012,46.797h5.474 M22.391,50.689v-1.946
			 M30.054,21.375v2.189 M27.864,23.564H32 M30.054,25.754v2.189 M30.054,30.133v2.189 M32,30.133v-2.189 M27.499,30.133H32
			 M27.621,27.943H32 M27.621,25.754H32 M22.756,30.619v1.703 M21.418,28.916v1.703 M24.094,30.619v-1.703 M21.418,25.511v1.703
			 M24.094,27.213v-1.703 M21.904,32.322h1.703 M20.201,30.619h5.109 M20.262,28.916h4.987 M20.323,27.213h4.865"/>
		<path id="c_00000134949187014113010440000011391006974473144241_" class="st6" d="M32.122,39.499
			c-2.687,0-4.865,2.178-4.865,4.865h-1.825c0-3.695,2.995-6.69,6.69-6.69"/>
		<path class="st7" d="M32.122,39.742c-2.461-0.003-4.493,1.922-4.622,4.379"/>
		<path class="st8" d="M23.972,39.864v13.623 M23.485,53.487V39.985l0.487-0.243c2.068,0.365,3.892,2.676,3.892,4.379v9.366H23.485z
			"/>
		<path class="st9" d="M18.012,50.689h5.474 M17.16,35.12h14.961 M32.122,32.322h-1.216v1.825h-1.703v-1.825h-1.946v1.825h-1.703
			v-1.825h-1.946v1.825h-1.703v-1.825h-1.946v1.825h-1.703v-1.825H17.16v2.798l0.851,1.946h14.11"/>
		<g id="d_00000098187768389463281100000017056892447163305382_">
			<circle cx="22.756" cy="28.916" r="0.73"/>
			<path class="st10" d="M22.756,28.916v-2.433"/>
		</g>
		<g id="f_00000018919665815955052880000003504365448830988205_">
			<g id="a_00000001641359776228300510000017051338753575175097_">
				<path id="b_00000077291224411651452050000016087501966410883466_" class="st11" d="M24.823,44.972
					c0-0.243,0.243-0.487,0.487-0.487c0-0.73,0.973-0.73,0.973,0h1.581"/>
				<g transform="matrix(1, 0, 0, -1, 0, 514)">
					<path id="b_00000109740613783710776850000002232123302110939542_" class="st11" d="M24.823,44.972
						c0,0.243,0.243,0.487,0.487,0.487c0,0.73,0.973,0.73,0.973,0h1.581"/>
				</g>
			</g>
			<circle class="st11" cx="27.256" cy="44.972" r="0.122"/>
			<circle class="st11" cx="25.797" cy="44.972" r="0.146"/>
		</g>
		<g transform="translate(0, 36)">
			<g id="f_00000057832174792171500050000017985643481430290310_">
				<g id="a_00000079472272447264184600000014363789430696749184_">
					<path id="b_00000160179220924435196820000005841892283810857098_" class="st11" d="M24.823,49.351
						c0-0.243,0.243-0.487,0.487-0.487c0-0.73,0.973-0.73,0.973,0h1.581"/>
					<g transform="matrix(1, 0, 0, -1, 0, 514)">
						<path id="b_00000166636784724227040650000006812281335268640137_" class="st11" d="M24.823,49.351
							c0,0.243,0.243,0.487,0.487,0.487c0,0.73,0.973,0.73,0.973,0h1.581"/>
					</g>
				</g>
				<circle class="st11" cx="27.256" cy="49.351" r="0.122"/>
				<circle class="st11" cx="25.797" cy="49.351" r="0.146"/>
			</g>
		</g>
	</g>
	<path class="st12" d="M15.628,57.489c2.713-3.223,9.171-5.425,16.372-5.425v0.012c7.201,0,13.672,2.202,16.384,5.425"/>
	<g transform="matrix(1.2, 0, 0, 1.2, 96.4, 23.4)">
		<g id="d_00000126294288399658199650000011609688640179192455_">
			<circle cx="32" cy="25.754" r="0.876"/>
			<path class="st13" d="M32,25.754v-2.919"/>
		</g>
	</g>
	<path class="st6" d="M30.54,37.248l0.487,2.372c0.608-0.122,1.46-0.122,1.946,0l0.487-2.372"/>
</g>
<g>
	<defs>
		<path id="SVGID_1_" d="M57.329,15.678L39.183,2.982c-4.946-3.465-12.538-3.276-17.295,0.41L6.104,15.709
			c-3.15,2.457-5.639,7.498-5.639,11.467v21.738c0,8.033,6.521,14.586,14.555,14.586H48.98c8.033,0,14.555-6.521,14.555-14.555
			V27.586C63.535,23.333,60.794,18.103,57.329,15.678z"/>
	</defs>
	<clipPath id="SVGID_00000032608435325693240110000012329657275214611107_">
		<use xlink:href="#SVGID_1_"  style="overflow:visible;"/>
	</clipPath>
	
		<circle style="clip-path:url(#SVGID_00000032608435325693240110000012329657275214611107_);fill:#49B132;stroke:#000000;stroke-width:0.5;stroke-miterlimit:10;" cx="32" cy="79.397" r="27.333"/>
</g>
<g>
	<path class="st15" d="M15.019,63.25c-1.442,0-2.883-0.226-4.287-0.672c3.98-6.306,12.67-10.686,21.268-10.686
		c8.729,0,17.229,4.283,21.27,10.688c-1.405,0.444-2.847,0.669-4.289,0.669H15.019z"/>
	<path d="M31.999,52.143c8.52,0,16.815,4.114,20.88,10.295C51.598,62.811,50.289,63,48.979,63H15.019
		c-1.309,0-2.617-0.189-3.898-0.564C15.135,56.347,23.609,52.143,31.999,52.143 M31.999,51.643c-8.814,0-17.713,4.571-21.647,11.074
		c1.467,0.5,3.033,0.783,4.667,0.783h33.961c1.635,0,3.201-0.282,4.669-0.78C49.548,55.952,40.814,51.643,31.999,51.643
		L31.999,51.643z"/>
</g>
</svg>
