<svg id="Layer_1" data-name="Layer 1" xmlns="http://www.w3.org/2000/svg" viewBox="0 0 2964.21 1107.89"><path d="M1078.73,460.66a69.15,69.15,0,0,1-5.49-4.43c-22.39-22.37-45.75-43.87-66.89-67.37-43.17-48-53.84-103.89-29.41-163.25,24.55-59.64,71.74-92.07,136.4-95.61s122.63,34.17,148.55,93.85c24.71,56.87,11.45,125.07-33.21,169.71Q1097,525.21,965.07,656.63c-40.5,40.14-65.82,87.43-70.23,144.5C888.21,887,920,956.61,989.75,1006.5c88.78,63.51,206.4,53.41,286.43-21.94,79.2-74.55,92.32-201.39,29.76-290.27-26.56-37.74-63.25-66-93.69-99.73l-50.56,50.71c.77.87,1.81,2.14,3,3.29q31.55,31.55,63.12,63.08c27.69,27.67,43.11,61,45.92,100.06,4.64,64.31-32.85,126.09-92.15,151.76-60.49,26.18-131,11.62-175-36.13-57.25-62.18-55.3-155.63,4.64-215.58,90-90,180.41-179.74,270.13-270.09,63.23-63.68,81.54-160.84,47.15-243.64C1268.42,53.42,1084.29,11.88,968,116.7,877.82,198.05,867.9,336.17,946.64,429c20.27,23.89,43.63,45.15,65.61,67.58,5,5.14,10.23,10.13,15.21,15.06ZM582.52,667.28a15.09,15.09,0,0,1,3-.88c41.59.07,83.21-.69,124.77.61,23,.72,43.22,10.59,54.08,32.06,5.59,11.07,8.51,24,10.05,36.46,1.91,15.4,1.87,31.28-6.22,45.6C758,799.2,741,808.24,721.89,812c-20.5,4-41.53,5.68-62.42,7.26-19.17,1.45-33.79,14.71-36.56,35.1-2.59,19,7.58,36.16,25.72,41.17,26.19,7.24,47.88,21.8,65.36,41.71C728.7,954,741.32,972.63,754,991c19.72,28.58,45,47.12,80.81,49.29,29.27,1.77,50.3-24.18,41.81-52.45-4.47-14.89-16.16-25-31.58-24.89-14.37.11-22.54-7.64-29.41-18.54-6.66-10.57-13-21.38-20.41-31.44-8.75-11.93-18.45-23.16-27.78-34.75.13-.18.32-.69.69-.89,1.66-.89,3.37-1.68,5.05-2.52,34.29-17.06,57.6-43.51,69.26-80.19,8.41-26.46,9.1-53.41,5.77-80.64-8.9-72.92-67.77-125-141.26-125.17q-78.35-.14-156.69-.14c-4.46,0-9.07,0-13.35,1.09-18.39,4.54-29.15,20.16-29.19,41.73q-.25,162.72-.49,325.43c0,17-.38,34,.43,51,.79,16.53,13.82,29.73,30.49,32.56,15.81,2.69,33.05-5.86,38.85-20.82a72.54,72.54,0,0,0,4.91-25.37c.46-91.7.46-183.39.57-275.09C582.54,702,582.52,684.79,582.52,667.28ZM764.77,351.86c.47-.69.64-1.23,1-1.41,2.32-1.14,4.7-2.18,7-3.31C804,332.08,827.17,309.19,840,276.62c11.1-28.25,11.77-57.58,8.27-87.26-8.49-72.16-67.86-125-140.55-125.15q-79-.15-158.07-.26c-26,0-40.44,14.34-40.49,40.24q-.28,148.5-.55,297c0,24.58-.18,49.15-.07,73.72.07,15,6.63,26.5,20,33.34,12.79,6.54,25.65,5.81,37.57-2.38,12.19-8.38,16.14-20.54,16.14-35q0-162,.43-323.94c0-2.94.28-5.88.43-8.89,43.41,0,86-.94,128.41.3,33.75,1,57.41,23.32,62.79,56.6a158.58,158.58,0,0,1,1.8,30.33c-1,30.08-15.07,48.64-43.31,59-22.78,8.32-46.49,10.11-70.41,10.48-20.84.32-36,12.9-38.56,32.18-2.63,20.12,8.5,35.19,29.2,41.54a137,137,0,0,1,28.31,12.5c25.49,14.79,43.58,37.27,60.58,60.67,9.69,13.34,18,27.88,28.93,40.1,19.71,22.05,45.44,31.89,74.95,29.54,19.27-1.54,33.24-18.87,32.64-38.18-.59-18.81-14.57-34.79-32.52-34.68-15.29.1-23.5-8.06-31-19.57C804.15,402.23,792.79,386,781.15,370,776.37,363.43,770.23,357.84,764.77,351.86Zm1072.31,86.55V324.21h7.64q90.73.09,181.46.16c10.88,0,21.34-1.49,29.08-10.25,11-12.46,13.92-26.48,7.37-42s-18.23-21.92-35.16-21.85c-61,.23-121.92-.24-182.87-.45-2.5,0-5,0-7.51,0v-112h10.83q102.07.14,204.14.21c4.9,0,10.05-.21,14.66-1.66,17.91-5.61,28-22.26,25.37-40.72s-17.52-31.14-37.17-31.19q-125.82-.31-251.63-.34c-25,0-40.07,15-40.13,40.18q-.11,50-.12,99.94-.16,135-.28,270.06c0,21.53,15.31,37.12,36.76,37.6,8.26.19,16.53,0,24.8.06q116.61.19,233.2.47c11.14,0,21-2.62,29.09-10.56a37.23,37.23,0,0,0,8.37-39.93c-6.12-14.93-18.64-23.27-35.53-23.29q-105.25-.17-210.52-.19ZM446.5,888.83h.13c0-19.85.12-39.69-.09-59.54a55.35,55.35,0,0,0-1.88-15.37c-5.33-17.62-22.28-27.76-40.89-25a35.9,35.9,0,0,0-30.71,35.33c-.27,38.51-.13,77-.28,115.54,0,2.44-.16,5.74-1.65,7.18-4.69,4.54-9.51,9.52-15.25,12.33-51.28,25.1-102.55,24.26-151.8-4.39C103.86,896.57,93.43,759,192.56,689c53.77-38,127-40.09,182.74-.39a36.83,36.83,0,0,0,52-9.17c11.68-17.19,7.43-39.74-10.39-51.6C342,578,263,571.94,182.13,610.16,81.59,657.69,30.33,766.87,56.37,872.61c29.72,120.66,151.16,197.92,273.12,173.3,31.26-6.32,60.66-17.25,85.55-38.5,21.86-18.67,34-40.83,31.68-70.4C445.49,921,446.5,904.9,446.5,888.83ZM1914.2,669.19a11.87,11.87,0,0,1,2.41-.88c47.26,0,94.54-.74,141.78.43,33.32.82,57.13,21.73,63.23,54.47,2.55,13.69,2.62,28.23,1.38,42.16-2,22.45-15.26,37.74-35.86,46.1-9.32,3.78-19.23,7.21-29.14,8.2-19.68,2-39.53,2.34-59.32,3-21.77.73-38.72,17.14-38.77,38a38.2,38.2,0,0,0,37.81,38.14c34.4.38,68.48-2.82,101.52-12.94,43.61-13.36,75.69-39.82,91.42-83.63,9-25,8.91-51,6.15-77.06-9-85.24-71.29-127.72-136.59-130-61.14-2.12-122.4-.74-183.61-.36-6.44,0-13.52,2.6-19.17,5.93-13.37,7.87-17,20.87-17,35.77q.09,135.06-.26,270.12c0,32.61-.31,65.22-.06,97.83.18,22.86,16,38.61,37.6,38.28,21.26-.33,35.92-16.3,36-39q.24-163.77.55-327.54ZM160.36,137.8a30.06,30.06,0,0,1,3.34-.51c46.56,0,93.12-.39,139.66.31,30.19.45,53.94,18.65,62.71,46.47,5.35,17,6.12,34.41,3.32,51.9-2.84,17.8-12,31.64-27.85,40.51-19.65,11-41.22,14.6-63.4,15.17-11.81.31-23.65-.2-35.44.37-20.64,1-36.75,18-36.52,37.85a38,38,0,0,0,37.27,37.84c33.23.69,66.12-2.54,98.16-11.62,44.57-12.63,78-38.6,94.72-83,10.05-26.74,9.5-54.68,6.38-82.6C434.5,117,375.48,64,301.44,63.8c-57.42-.17-114.86.42-172.27-.54C101.7,62.8,86.24,81.75,86.5,105.68c.71,65.69.1,131.39,0,197.09-.05,56.48,0,113-.17,169.44,0,10.38,2.41,19.61,9.4,27.4a36.86,36.86,0,0,0,40.78,9.83c14.89-5.66,23.39-18.66,23.42-36.11q.22-149.94.39-299.89C160.37,161.68,160.36,149.92,160.36,137.8ZM1393.9,754.22c0,36.39-.27,72.78.08,109.17.32,34.15,5.76,67.23,22.8,97.56,18.55,33,44.55,58.16,79.89,72.07,44.93,17.69,91.58,20,138.68,10.76,49.27-9.68,88.23-34.77,113.44-79.21,17.58-31,24.81-64.72,25-99.93.36-76.8.13-153.59.11-230.39a70.67,70.67,0,0,0-.48-8.48,36.48,36.48,0,0,0-44.91-30.91c-17.38,4.29-28.2,18.77-28.22,38.32-.07,75.15.08,150.29-.16,225.43a196.25,196.25,0,0,1-2.78,33.11c-7.19,41.07-29.78,68.7-71.35,78.61a181,181,0,0,1-82.21.4c-35.16-7.84-59.35-28.54-69.51-63.39a156.38,156.38,0,0,1-6.43-41.78c-.65-75.85-.34-151.7-.51-227.55,0-6.32-.15-13-2-18.9-5.39-17.5-22.35-27.56-40.34-24.88a36.64,36.64,0,0,0-31,35.93C1393.76,671.51,1393.89,712.87,1393.9,754.22Zm967-696.8c-25.9.25-51.74,2.48-76.15,11.1-65,23-114.56,63.84-142.58,128.08-24.95,57.21-27.09,115.65-4.73,173.88,57.42,149.5,241.79,199.33,365,99.21,16.88-13.71,20.15-36.26,7.58-52.22-13.22-16.78-35.87-18.91-53.46-5-66.23,52.28-155.65,47.45-214.69-13.32-45.44-46.79-58.47-103-35.29-164,23.08-60.76,69.61-95.24,134.34-102.68,40.78-4.7,78.06,6.79,111.38,30.83,14.76,10.64,34.53,9.58,47.58-2.55,17.12-15.91,15.11-43.53-4.5-58.83C2455.85,71,2410.77,56.87,2360.87,57.42Zm406.51,83.2h9c33.55,0,67.1.23,100.65.07,22.31-.11,38.15-16.52,37.51-38.26-.6-20.52-16.52-35.35-38.33-35.38q-114.47-.17-228.93-.2c-21.5,0-43-.17-64.49-.06-13.6.06-24.15,6.13-31.17,17.69-15.09,24.86,2.52,55.47,32.32,55.8,33.55.37,67.1.15,100.64.19h9.2c0,24.34,0,47.48,0,70.61-.08,88.83-.36,177.66,0,266.49a46.18,46.18,0,0,0,7.07,23.79c8.16,12.54,26.72,16.9,41.46,11.91,18.32-6.19,24.66-14.77,24.69-33.9q.22-136.08.36-272.16C2767.4,185.48,2767.38,163.76,2767.38,140.62Zm-1275.95-1.77c.15,3.49.35,5.81.35,8.13q-.24,156.65-.5,313.3c0,7.79,0,15.61.61,23.37.72,10,4.95,18,13.84,23.34,14.75,8.8,29.41,8.8,44.25.18,12.91-7.5,14.81-19.74,14.83-33q.26-161.62.59-323.24c0-3.7,0-7.41,0-11.5,2.92-.19,5-.44,7-.44,33.79,0,67.58.24,101.37,0a45.66,45.66,0,0,0,17.17-3.31c16-6.83,24.22-24.16,20.55-41.61a36.15,36.15,0,0,0-35.15-28.49c-26.69-.28-53.4-.14-80.1-.17q-106.32-.11-212.65-.26c-9.55,0-18.3,1.92-25.78,8-11.83,9.66-16.61,26.17-11.81,40.29,5.33,15.71,18.16,25.15,35.51,25.31,25.76.25,51.51.07,77.27.07Z"/></svg>