<svg id="Layer_1" data-name="Layer 1" xmlns="http://www.w3.org/2000/svg" xmlns:xlink="http://www.w3.org/1999/xlink" viewBox="0 0 131.52 137.76"><defs><style>.cls-1{fill:url(#linear-gradient);}.cls-2{fill:url(#linear-gradient-2);}.cls-3{fill:url(#linear-gradient-3);}</style><linearGradient id="linear-gradient" x1="75.26" y1="83.84" x2="97.46" y2="125.13" gradientUnits="userSpaceOnUse"><stop offset="0" stop-color="#824394"/><stop offset="1" stop-color="#5a2c6d"/></linearGradient><linearGradient id="linear-gradient-2" x1="102.7" y1="72.25" x2="82.06" y2="43.09" xlink:href="#linear-gradient"/><linearGradient id="linear-gradient-3" x1="33.48" y1="72.99" x2="70.29" y2="72.99" xlink:href="#linear-gradient"/></defs><path class="cls-1" d="M115,88A50.13,50.13,0,1,1,68.66,18.52,49.68,49.68,0,0,1,104.53,33.8l12.93-12.45A67.58,67.58,0,0,0,68.66.52C31.21.52.73,31.19.73,68.88s30.48,68.36,67.93,68.36a68,68,0,0,0,59.82-35.93Z"/><path class="cls-2" d="M130.79,41.22,116.73,54.78,70.29,99.55V66.81l34.24-33,12.93-12.45,0,0A68.7,68.7,0,0,1,129.6,38.66C130,39.5,130.42,40.36,130.79,41.22Z"/><polygon class="cls-3" points="70.3 66.81 70.3 99.55 33.48 62.74 49.73 46.44 70.3 66.81"/></svg>