<svg id="Layer_1" data-name="Layer 1" xmlns="http://www.w3.org/2000/svg" viewBox="0 0 204.95 86.19"><defs><style>.cls-1{fill:#f79432;}</style></defs><path d="M72.72,80.08c-3.57,0-6.36-1.78-6.47-5.14h4.3a1.89,1.89,0,0,0,2,1.89c1.18,0,1.93-.59,1.93-1.56,0-3.08-8.28-1.42-8.24-7.32,0-3.15,2.58-4.9,6-4.9s6,1.8,6.21,5H74.18a1.79,1.79,0,0,0-1.91-1.73,1.46,1.46,0,0,0-1.7,1.5c0,2.89,8.19,1.59,8.19,7.17C78.76,77.76,76.59,80.08,72.72,80.08Z"/><path d="M81.88,70.06H80.27V66.69h1.61V63.47h4v3.22h2.64v3.37H85.92v5.3c0,.79.33,1.12,1.22,1.12h1.44v3.43h-2c-2.74,0-4.65-1.16-4.65-4.59Z"/><path d="M95.84,66.5a4.57,4.57,0,0,1,4.06,2.06V66.69h4V79.91h-4V78a4.64,4.64,0,0,1-4.08,2.06c-3.21,0-5.79-2.65-5.79-6.82S92.6,66.5,95.84,66.5ZM97,70a2.94,2.94,0,0,0-2.88,3.25c0,2.12,1.36,3.29,2.87,3.29a3,3,0,0,0,2.88-3.27C99.89,71.19,98.55,70,97,70Z"/><path d="M116,66.69h4.37l-8.26,19.5h-4.35l3-6.73-5.36-12.77h4.51L112.93,75Z"/><path d="M130.64,66.79c3.52,0,6.14,2.58,6.14,6.63s-2.63,6.68-6.14,6.68a5.49,5.49,0,0,1-5.12-3v9h-1.63V67h1.62v2.84A5.48,5.48,0,0,1,130.64,66.79Zm-.33,1.44c-2.63,0-4.79,2-4.79,5.22s2.17,5.21,4.79,5.21,4.79-2,4.79-5.24-2.07-5.19-4.79-5.19Z"/><path d="M139.45,63.3a1.21,1.21,0,1,1,1.2,1.21,1.21,1.21,0,0,1-1.2-1.21Zm.37,3.68h1.66V79.91h-1.66Z"/><path d="M150.73,66.79c3.24,0,5.34,1.73,5.93,4.4h-1.77a3.94,3.94,0,0,0-4.16-3c-2.52,0-4.58,1.73-4.58,5.24s2.06,5.26,4.58,5.26a3.92,3.92,0,0,0,4.16-3h1.77a5.66,5.66,0,0,1-5.93,4.41c-3.63,0-6.25-2.56-6.25-6.66S147.1,66.79,150.73,66.79Z"/><path d="M159.71,62.38h1.65V72.76L166.55,67h2.32l-6.12,6.44,6.17,6.49h-2.26l-5.3-5.79v5.8h-1.65Z"/><path d="M176.61,80.1c-3.66,0-6.33-2.55-6.33-6.65s2.63-6.66,6.33-6.66a5.81,5.81,0,0,1,6.1,6c0,.44,0,.87-.05,1.31H172a4.52,4.52,0,0,0,4.66,4.62,4,4,0,0,0,4.15-2.89h1.75C181.93,78.26,179.85,80.1,176.61,80.1ZM172,72.74H181a4.22,4.22,0,0,0-4.49-4.53A4.46,4.46,0,0,0,172,72.74Z"/><path d="M187.38,79.91h-1.65V67h1.65v2.3a4.45,4.45,0,0,1,4.42-2.54v1.72h-.45c-2.15,0-4,1-4,4.22Z"/><path class="cls-1" d="M16.13,74.72a10.31,10.31,0,0,1-4.89-1.26,14.56,14.56,0,0,1-3.65-2.88,31.47,31.47,0,0,1-7.21-13A11.14,11.14,0,0,1,0,54.7v-.06q0-.3,0-.63a6.13,6.13,0,0,1,3.3-5.24,12.91,12.91,0,0,1,2.33-1,16.57,16.57,0,0,1,2.42-.53c2.36-.37,4.76-.69,7.14-1,3.78-.42,7.63-.82,11.44-1.19,1.33-.13,2.68-.24,4-.33.64,0,1.27-.08,1.89-.14a2.25,2.25,0,0,0,.58-.07,1.53,1.53,0,0,0,.14-.41c.24-.9.47-1.77.69-2.64,1.53-6.72,2.76-13.6,3.65-20.44.6-4.26,1.08-8.59,1.43-12.88.09-1.33.15-2.7.19-4,0-.61,0-1.22.08-1.83V2.05a5.44,5.44,0,0,1,0-.57A1.57,1.57,0,0,1,39.81.35,1.65,1.65,0,0,1,40.94,0h.13a1.5,1.5,0,0,1,1,.33,1.52,1.52,0,0,1,.43,1.2V7c.07,3.48.27,7.11.58,10.78.34,4.12.81,8.28,1.37,12.38.58,4.26,1.36,8.54,2.31,12.72a4.71,4.71,0,0,0,.12.54,2.74,2.74,0,0,1,.11.37l0,0h.09l2.4-.06h.22a2.38,2.38,0,0,1,1.17.31h0l0,0a1.09,1.09,0,0,1,.44.9v.11a.87.87,0,0,1-.36.57.91.91,0,0,1-.55.18c-.35,0-.74,0-1.15,0l-.58,0h-.31c-.31,0-.62,0-.93,0h0V46c.07.3.15.61.24.91v0c.27,1.23.58,2.47.93,3.67.44,1.61.92,3.23,1.42,4.82a42.47,42.47,0,0,0,1.8,4.62,1.92,1.92,0,0,1,.18.65,1,1,0,0,1-.71,1.1,2.11,2.11,0,0,1-.74.14,1.75,1.75,0,0,1-1.57-1c-.26-.48-.51-1-.74-1.49-.51-1.21-1-2.43-1.36-3.67s-.76-2.47-1.1-3.71c-.29-1.09-.58-2.19-.85-3.27-.18-.78-.37-1.55-.57-2.32a2.4,2.4,0,0,0-.12-.38l-.24,0H44l-3.74.23-3.92.19a.57.57,0,0,0-.33.09,1,1,0,0,0-.2.43c-.81,3-1.77,6.1-2.85,9.07-.74,2-1.56,3.92-2.45,5.81a45.22,45.22,0,0,1-3.07,5.53,20.72,20.72,0,0,1-3.77,4.32,11.47,11.47,0,0,1-5,2.62A11.61,11.61,0,0,1,16.13,74.72ZM32.51,46.86c-1.55.11-3.09.25-4.6.41l-.87.08c-3.4.33-6.84.7-10.25,1.08-2.52.3-5.07.63-7.58,1A12.21,12.21,0,0,0,6,50.3a4.2,4.2,0,0,0-2.83,4.33,13.15,13.15,0,0,0,.26,2.27,19.43,19.43,0,0,0,.9,2.8c.36.92.78,1.83,1.23,2.72a26.93,26.93,0,0,0,4.56,6.72,12.8,12.8,0,0,0,3.24,2.57,6.15,6.15,0,0,0,2.88.75h0a6.18,6.18,0,0,0,3-.81,11.68,11.68,0,0,0,3.23-2.53,26.6,26.6,0,0,0,3.67-5.25,71.73,71.73,0,0,0,5.18-12.64c.44-1.4.86-2.83,1.27-4.26l0-.12Zm4.07-2.6.69,0c.3,0,.63,0,1,0,1.11,0,2.26-.08,3.4-.15.84,0,1.54-.11,2.08-.17-1.41-6.76-2.49-13.65-3.23-20.54-.13.91-.27,1.82-.42,2.71-.31,2.11-.66,4.25-1.05,6.34-.22,1.17-.45,2.36-.69,3.55-.18.89-.35,1.8-.52,2.72s-.4,1.84-.64,2.73-.44,1.87-.62,2.81Z"/><path class="cls-1" d="M68.89,44.91a7.1,7.1,0,0,0,2.29-1.24c.93-.68,1.36-.69,1.28,0s-.59,1.2-1.53,1.64a14.81,14.81,0,0,1-2.58,1,1.93,1.93,0,0,0-.6.32,1.07,1.07,0,0,0-.38.53,6.64,6.64,0,0,1-.85,2.3,4.25,4.25,0,0,1-4.71,2,2,2,0,0,1-1.52-1.17,2.08,2.08,0,0,1,.34-1.94A5.74,5.74,0,0,1,63,46.48a6.26,6.26,0,0,1,.93-.38l.51-.17A1.28,1.28,0,0,0,65,44.76a3.48,3.48,0,0,0-.4-1.74,2.43,2.43,0,0,0-1.23-1.2c-.53-.21-1.15,0-1.89.58a6.39,6.39,0,0,0-1.61,2.3,19.79,19.79,0,0,0-1.74,5.53c-.57,3.4-1,6.8-1.19,10.21-.08,1.59-.24,3.16-.46,4.72-.09.65-.16,1.32-.22,2a3.2,3.2,0,0,1-.16.68.77.77,0,0,1-.94.56c-.54,0-.82-.27-.85-.73a11.53,11.53,0,0,1,0-1.44v-.3l.09-1.79c0-1.08,0-2.14.08-3.19q.09-6.47-.08-13c0-1.65-.06-3.27-.09-4.85v-.51a5.42,5.42,0,0,1,.09-1.66A1.13,1.13,0,0,1,55.45,40a1,1,0,0,1,1.15.86V41c.19,1.22.38,2.82.55,4.8a9.87,9.87,0,0,1,1.69-3.21,6.35,6.35,0,0,1,2.42-1.81,4.71,4.71,0,0,1,2.37-.41,3.78,3.78,0,0,1,2.23,1,4.92,4.92,0,0,1,1.38,2.69c.12.51.27.81.47.91A2,2,0,0,0,68.89,44.91Zm-5.77,5.27a3.12,3.12,0,0,0,1.19-1.12,2.69,2.69,0,0,0,.45-1.24c0-.35-.14-.49-.45-.4a3.19,3.19,0,0,0-1.63,1.21,1.65,1.65,0,0,0-.3,1.28C62.48,50.26,62.73,50.35,63.12,50.18Z"/><path class="cls-1" d="M93.12,44.48A13.55,13.55,0,0,1,91,48.21a6.93,6.93,0,0,1-3.92,2.7A6.11,6.11,0,0,1,83,50.74c-1.14-.51-1.77-1.88-1.89-4.09-1.3,2.53-2.53,4.14-3.71,4.85a5.48,5.48,0,0,1-3.66.81,3.83,3.83,0,0,1-2.93-1.68,4.67,4.67,0,0,1-.51-3.08,11.14,11.14,0,0,1,1.07-3.37A8.17,8.17,0,0,1,73.16,42a9.71,9.71,0,0,1,2.35-1.61,6.32,6.32,0,0,1,3.07-.73,7.22,7.22,0,0,1,3.29,1s0,0,0-.08a1.57,1.57,0,0,1,.09-.43.85.85,0,0,1,.29-.43,2.36,2.36,0,0,1,1.38-.42,1.31,1.31,0,0,1,1.21.81,9.74,9.74,0,0,1-.21,2.59q-.63,3.5,0,5a2.1,2.1,0,0,0,2.25,1.42q1.6-.1,4.17-3.19C92.8,43.88,93.48,43.4,93.12,44.48Zm-19,5.45a1.63,1.63,0,0,0,2-.17,9.77,9.77,0,0,0,2.21-2.3,21.33,21.33,0,0,0,1.78-3A8.15,8.15,0,0,0,81,42.27a4,4,0,0,0-3.71-.39,5.49,5.49,0,0,0-2.46,2.49,9.36,9.36,0,0,0-1.09,3.36,2.63,2.63,0,0,0,.43,2.2Z"/><path class="cls-1" d="M104,45.16c.26-.51.42-.74.51-.7s.1.25.06.62a10.25,10.25,0,0,1-.23,1.23,15.4,15.4,0,0,1-.87,2.47,17.41,17.41,0,0,1-1.38,2.55,7.24,7.24,0,0,1-2.76,2.39,4,4,0,0,1-3,.4c-.89-.27-1.4-1.11-1.55-2.53a22.45,22.45,0,0,1,.31-3.92c.08-.59.17-1.17.25-1.74a.67.67,0,0,0-.15-.47.42.42,0,0,0-.4-.13h-.38a6,6,0,0,1-2.16,0A1.9,1.9,0,0,1,90.77,44a6.29,6.29,0,0,1,0-2.4A2.34,2.34,0,0,1,91.6,40a2,2,0,0,1,1.54-.44c.82.08,1.22.4,1.19,1a4.7,4.7,0,0,1-.47,1.76,3.63,3.63,0,0,0-.4,1.34c0,.35.29.47.91.36a4.12,4.12,0,0,0,.47-.13,6.41,6.41,0,0,1,.78-.23,4.17,4.17,0,0,1,1.17-.07,1.15,1.15,0,0,1,1.12.79,4.94,4.94,0,0,1,.24,1.87,19.13,19.13,0,0,1-.22,2.28A17.31,17.31,0,0,0,97.72,51c0,.7.2,1.1.6,1.21s1.32-.34,2.37-1.44A21.25,21.25,0,0,0,104,45.16Z"/><path class="cls-1" d="M117.69,45.12c.71-.68,1-.85.92-.51a7.61,7.61,0,0,1-1.17,1.85,32.11,32.11,0,0,1-2.55,2.92,21.46,21.46,0,0,1-3.22,2.72,6.46,6.46,0,0,1-3.22,1.23,4.1,4.1,0,0,1-3-1.1,6.26,6.26,0,0,1-1.61-2.94,13.18,13.18,0,0,1-.41-4c.06-1.59.12-3.17.17-4.76q0-1.2.09-2.34c0-1.28.1-2.55.13-3.83a1.72,1.72,0,0,0-.2-1,1,1,0,0,0-.82-.45c-.45,0-1,0-1.7,0H99.59a1.65,1.65,0,0,1-1.19-.47c-.2-.26,0-.51.47-.76a3.66,3.66,0,0,1,1.31-.24c.51,0,1,0,1.49,0,.31,0,.58,0,.81,0,.76,0,1.23-.12,1.4-.36a2.81,2.81,0,0,0,.29-1.42c.06-.74.1-1.49.13-2.26l.09-1.19a2.91,2.91,0,0,1,.46-1.62,1.19,1.19,0,0,1,1.28-.51,1,1,0,0,1,.76.86c0,.74,0,1.49,0,2.25a9.11,9.11,0,0,1,0,1.28c0,.46,0,.93,0,1.41,0,.68,0,1.1.23,1.28a2.21,2.21,0,0,0,1.33.25H112c.51,0,2,0,4.57-.1s3.91.13,4.12.61-1.42.77-4.84.86c-2.06.11-3.66.17-4.78.17-.77,0-1.45,0-2,0q-1.53,0-1.89.54a4.08,4.08,0,0,0-.31,2.15c0,.91-.08,2-.13,3.32-.17,2.66-.26,5.39-.26,8.17.06,1.9.4,3.13,1,3.7a2.24,2.24,0,0,0,2.42.32,11.64,11.64,0,0,0,3.2-1.9q1.71-1.35,3.41-2.93a6.88,6.88,0,0,1,.89-.9Z"/><path class="cls-1" d="M141.06,47.29v0c.1-.12.38-.37.82-.77s.91-.77,1.39-1.13a2.44,2.44,0,0,1,1-.55c.22,0,.17.31-.14,1-.06.09-.14.19-.24.32l-.27.36-.09.09A37.36,37.36,0,0,1,138.92,51a5.09,5.09,0,0,1-3.33,1.15,2.65,2.65,0,0,1-2.29-1.32,5.86,5.86,0,0,1-.57-2.8,25.37,25.37,0,0,1,.27-3.37,17.63,17.63,0,0,0,.22-3c0-.84-.32-1.33-.85-1.47s-1,.39-1.55,1.25a23,23,0,0,0-1.51,3c-.48,1.15-.87,2.17-1.18,3q-.25.72-.39,1a1.64,1.64,0,0,1-1,.89,1.93,1.93,0,0,1-1.36-.08,1.07,1.07,0,0,1-.51-.73,13.75,13.75,0,0,1-.08-2.13,10.9,10.9,0,0,0,0-1.4V43.93a3.05,3.05,0,0,0-.06-.6c-.05-.17-.14-.25-.28-.25s-.5.23-.81.79a21,21,0,0,0-1,2c-.33.77-.62,1.46-.87,2.09s-.39.91-.47,1.11a.85.85,0,0,1-.13.25l-.76,1.53a1.45,1.45,0,0,1-1.1.77c-1,.17-1.62-.26-1.7-1.28q-.14-4-.22-7.92c0-.68.43-.92,1.28-.72s1.32.64,1.4,1.32c.08,1.11.21,1.67.38,1.68s.52-.48,1.06-1.47c.29-.48.58-1,.89-1.45a5.79,5.79,0,0,1,1.49-1.7,2.21,2.21,0,0,1,1.87-.39,2.32,2.32,0,0,1,1.4,1.37q.21.47.42.51a.46.46,0,0,0,.43-.19,3.88,3.88,0,0,0,.42-.58,3.35,3.35,0,0,1,.39-.59,6.16,6.16,0,0,1,2.83-1.82,4.25,4.25,0,0,1,3,0,2.68,2.68,0,0,1,1.54,2.42,22.71,22.71,0,0,1-.29,4.59c-.12.74-.2,1.45-.26,2.13-.06,1.45.21,2.24.79,2.38a2.66,2.66,0,0,0,2.12-.68A28.16,28.16,0,0,0,141.06,47.29Z"/><path class="cls-1" d="M162.47,43.21q-2,2.59-3.52,4.29a13,13,0,0,1-4.24,3.28,19.07,19.07,0,0,1-3.5,1.21,9.54,9.54,0,0,1-3.65.19,6.05,6.05,0,0,1-3.28-1.61,5.66,5.66,0,0,1-1.87-5.11,7.46,7.46,0,0,1,1.87-4.06,7.65,7.65,0,0,1,3.86-2.28A10,10,0,0,1,152,39a3.92,3.92,0,0,1,1.61.59,1.61,1.61,0,0,1,.21,2.56A5.15,5.15,0,0,1,151,43.5a32.5,32.5,0,0,1-3.69.39,1.67,1.67,0,0,0-1.21.36,2.12,2.12,0,0,0-.44,1.25,4.28,4.28,0,0,0,1.57,4,3.7,3.7,0,0,0,2.73.77,11.87,11.87,0,0,0,3.48-.88,13.7,13.7,0,0,0,4.26-3.17,35.62,35.62,0,0,0,3.33-3.76c.69-1,1.12-1.57,1.29-1.85a2,2,0,0,1,.51-.6,2.29,2.29,0,0,1,.93-.17,1.45,1.45,0,0,1,.81.24,1.22,1.22,0,0,1,.47,1c0,.17.06.44.1.81s.06.65.07,1a3,3,0,0,0,.08.88q.09.23.36,0a6.82,6.82,0,0,0,.91-1.19,10.84,10.84,0,0,1,2.72-2.89,4.64,4.64,0,0,1,3.26-.89,2.27,2.27,0,0,1,2,1.61,5.22,5.22,0,0,1,.21,1.47,12.62,12.62,0,0,1-.09,1.51c0,.51-.07,1-.12,1.58l-.09.51a8.62,8.62,0,0,0,.17,3.7.94.94,0,0,0,1.29.62c.58-.22,1.37-1.11,2.36-2.69a31.8,31.8,0,0,0,1.76-3c.18-.43.33-.41.44.06s-.2,1.52-.95,3.15A10.12,10.12,0,0,1,176.8,51a3.62,3.62,0,0,1-3.1,1,2.86,2.86,0,0,1-2-2,9.34,9.34,0,0,1-.36-4.17.78.78,0,0,1,0-.21q0-.42.15-1.26c.07-.55.12-1.12.14-1.72a6,6,0,0,0-.06-1.47c-.07-.38-.25-.51-.53-.4a5.76,5.76,0,0,0-2,2.19,29.84,29.84,0,0,0-1.76,3.42,27.55,27.55,0,0,0-1.12,2.9c-.09.22-.17.46-.26.72s-.24.68-.38,1a1.52,1.52,0,0,1-2,1.11,1.07,1.07,0,0,1-.89-.94c0-.4,0-.78,0-1.15,0-.21,0-.43,0-.64C162.57,47.29,162.52,45.25,162.47,43.21Zm-14.59-1.58s0,0,0,0h0l-.21.19a1.7,1.7,0,0,0-.24.22c-.07.07-.1.12-.1.14s.26.11.7.07a12,12,0,0,0,1.44-.24,4.58,4.58,0,0,0,1.29-.44c.34-.19.46-.41.34-.66a.8.8,0,0,0-.23-.22,1.24,1.24,0,0,0-.32-.12,3.1,3.1,0,0,0-1.4.3A7.6,7.6,0,0,0,147.88,41.63Z"/><path class="cls-1" d="M193.5,45.12c.71-.68,1-.85.92-.51a8.33,8.33,0,0,1-1.17,1.85,32.11,32.11,0,0,1-2.55,2.92,20.89,20.89,0,0,1-3.22,2.72,6.46,6.46,0,0,1-3.22,1.23,4.1,4.1,0,0,1-3-1.1,6.26,6.26,0,0,1-1.61-2.94,13.18,13.18,0,0,1-.41-4c.06-1.59.12-3.17.17-4.76q0-1.2.09-2.34c.05-1.28.1-2.55.13-3.83a1.72,1.72,0,0,0-.2-1,1,1,0,0,0-.82-.45c-.45,0-1,0-1.7,0h-1.53a1.67,1.67,0,0,1-1.19-.47c-.19-.26,0-.51.47-.76a3.7,3.7,0,0,1,1.31-.24c.51,0,1,0,1.49,0,.31,0,.58,0,.8,0,.77,0,1.23-.12,1.4-.36a2.9,2.9,0,0,0,.3-1.42c.06-.74.1-1.49.13-2.26,0-.4.05-.79.08-1.19a2.89,2.89,0,0,1,.48-1.61,1.14,1.14,0,0,1,1.27-.51.92.92,0,0,1,.76.85c0,.74.05,1.49.05,2.25a9.26,9.26,0,0,1,0,1.29c0,.45,0,.92,0,1.4,0,.68.05,1.11.23,1.28a2.23,2.23,0,0,0,1.34.26h3.43c.51,0,2,0,4.58-.11s3.91.13,4.11.62-1.42.76-4.84.85c-2.06.11-3.65.17-4.78.17-.77,0-1.44,0-2,0-1,0-1.64.17-1.88.53a4.07,4.07,0,0,0-.32,2.15c0,.91-.07,2-.13,3.32-.17,2.66-.25,5.39-.25,8.17.05,1.9.39,3.13,1,3.7a2.24,2.24,0,0,0,2.42.32,11.84,11.84,0,0,0,3.2-1.89q1.71-1.37,3.41-2.94a6.8,6.8,0,0,1,.89-.89A3.4,3.4,0,0,1,193.5,45.12Z"/><path class="cls-1" d="M205,43.87c0,.3-.62.82-1.86,1.57s-2.17,1.32-2.76,1.7-.89.62-.89.7a7.37,7.37,0,0,1,.36,1.3,8.23,8.23,0,0,1,.15,2,3.23,3.23,0,0,1-.68,1.89,2.91,2.91,0,0,1-2.12,1,4.92,4.92,0,0,1-2.65-.44A2.64,2.64,0,0,1,193,51.91a3.05,3.05,0,0,1,.72-2.53A7,7,0,0,1,195.37,48c.23-.14.45-.3.68-.47-.76-.82-1.48-1.66-2.16-2.53a7.21,7.21,0,0,1-1.32-2.32,2.68,2.68,0,0,1,.4-2.23,3.09,3.09,0,0,1,2.44-1.21,5,5,0,0,1,1.59.08,3.11,3.11,0,0,1,1.39.73.81.81,0,0,1,.19.29.54.54,0,0,1-.06.43.69.69,0,0,1-.64.38,2.47,2.47,0,0,1-.6-.08l-.55-.26-.34-.17a.76.76,0,0,0-.85.07,1.06,1.06,0,0,0-.29.83,4,4,0,0,0,.8,2.1q.76,1.13,1.53,2.07c.19.22.36.44.51.64s.51.12,1.12-.07a22.86,22.86,0,0,0,3.33-1.55C204.15,43.85,205,43.57,205,43.87Zm-8.6,8.7a.78.78,0,0,0,.72-.62,3.67,3.67,0,0,0,.12-1.28c0-.46-.05-.81-.08-1a.47.47,0,0,0-.59-.28l-.05,0a2.94,2.94,0,0,0-.93,1.27,1.5,1.5,0,0,0,0,1.36,1.26,1.26,0,0,0,.32.37,1,1,0,0,0,.45.19Z"/></svg>