<svg id="Layer_1" data-name="Layer 1" xmlns="http://www.w3.org/2000/svg" viewBox="0 0 1400 400"><defs><style>.cls-1{fill:#212529;}.cls-2{fill:#29abe2;}</style></defs><path class="cls-1" d="M159.4,275.24c-29.66,0-50.43-12.63-58.5-35.58a16,16,0,1,1,30.38-10.11c2.45,7.87,8.13,18.33,29.18,18.33,11.38,0,24.67-3.87,24.67-14.78,0-7.15-2.36-13.61-31.39-20.09l-.14,0c-15.25-3.7-26-8-33.76-13.66-10.72-7.75-16.15-18.16-16.15-30.95,0-26.25,22.36-44.58,54.38-44.58,26.42,0,46.25,12.07,54.4,33.11a16,16,0,0,1-14.91,21.86h-.3a15.94,15.94,0,0,1-15.1-10.62c-4-11.42-12-16.75-25.41-16.75-4.86,0-20.69,1.11-20.69,15.27,0,7.34,4.49,12.62,27.45,17.91,26.55,6,53.72,16.34,53.72,47.32C217.23,258.22,194.53,275.24,159.4,275.24Z"/><path class="cls-1" d="M254.39,323.13c-1.84,0-3.44,0-4.93-.05a14,14,0,0,1,.4-28.06h2.68c7.38,0,15.33-1.72,24.24-22.24l1.63-3.82L227.82,146.6a14,14,0,0,1,13-19.4h4.74a14.12,14.12,0,0,1,13.1,9l36.6,95.19,36.37-95.17a14.12,14.12,0,0,1,13.11-9h4.19a14,14,0,0,1,13,19.4L309.26,273.91C294.42,309.34,279,323.13,254.39,323.13Z"/><path class="cls-1" d="M601.21,275.24c-20.12,0-37.33-6.6-49.75-19.09-13.27-13.34-20.28-32.88-20.28-56.52,0-22.42,7.5-41.65,21.7-55.6,13.29-13.06,31.49-20.25,51.25-20.25,30.22,0,53.63,15,62.63,40a15.74,15.74,0,0,1-14.82,21h-.81a15.77,15.77,0,0,1-15-11c-4.94-15.28-15.58-22.71-32.53-22.71-19.41,0-39,14.62-39,47.27,0,36.48,19.46,49.47,37.67,49.47,16.1,0,27.75-7.57,32.79-21.31a15.88,15.88,0,0,1,14.81-10.45,15.74,15.74,0,0,1,14.42,22C654,261.73,631,275.24,601.21,275.24Z"/><path class="cls-2" d="M931.78,275.28c-20.1,0-37.31-6.64-49.76-19.19-13.26-13.37-20.27-32.88-20.27-56.42,0-22.11,7.21-41.14,20.87-55,13.18-13.41,31.58-20.8,51.81-20.8,20.87,0,38.3,7.45,50.41,21.55,11.11,12.94,17,30.45,17,50.64a15.73,15.73,0,0,1-15.71,15.75H896a.23.23,0,0,0-.21.1.41.41,0,0,0-.09.35c4.35,29.51,22.59,35.71,37.12,35.71,15.93,0,28.42-8.23,33.41-22A15.65,15.65,0,0,1,981,215.67h.29a15.72,15.72,0,0,1,14.34,22.14C985.15,261.27,961.29,275.28,931.78,275.28Zm2.12-123.86c-14.86,0-32.59,8.54-37.77,32.51a.43.43,0,0,0,.07.37.25.25,0,0,0,.22.1h72.06a.31.31,0,0,0,.26-.12.21.21,0,0,0,.07-.21C965.26,162.71,953.19,151.42,933.9,151.42Z"/><path class="cls-2" d="M1242.17,275.24c-29.66,0-50.43-12.63-58.5-35.58a16,16,0,1,1,30.38-10.1c2.45,7.86,8.13,18.32,29.18,18.32,11.38,0,24.67-3.87,24.67-14.78,0-7.15-2.37-13.61-31.39-20.09l-.14,0c-15.25-3.7-26-8-33.76-13.66-10.72-7.75-16.15-18.16-16.15-30.95,0-26.25,22.36-44.58,54.38-44.58,26.42,0,46.25,12.07,54.4,33.11a16,16,0,0,1-14.91,21.86H1280a15.94,15.94,0,0,1-15.09-10.62c-4-11.42-12-16.75-25.41-16.75-4.86,0-20.7,1.11-20.7,15.27,0,7.34,4.5,12.62,27.46,17.91,26.55,6,53.72,16.34,53.72,47.32C1300,258.22,1277.3,275.24,1242.17,275.24Z"/><path class="cls-1" d="M495.56,271.82a15,15,0,0,1-15-15V193.53c0-7.3,0-12.59-.49-18.83-1.68-15.52-11-23.07-28.42-23.07-23.26,0-36.07,17.13-36.07,48.25V256.8a15,15,0,0,1-15,15h-1.8a15,15,0,0,1-15-15V142.22a15,15,0,0,1,15-15h1.8a15,15,0,0,1,13.9,9.33c11.2-8.68,24.16-12.75,40.38-12.75,32.5,0,53.8,17,57,45.44l0,.24c.55,6.9.55,11.74.55,22.36v65a15,15,0,0,1-15,15Z"/><path class="cls-2" d="M768.21,275.24c-15,0-28.92-4.13-38.68-11.4a14.52,14.52,0,0,1-13,8h-2.83a14.51,14.51,0,0,1-14.5-14.5V91.37a14.52,14.52,0,0,1,14.5-14.5h2.83a14.52,14.52,0,0,1,14.5,14.5V136c10.71-8,24.93-12.25,41.39-12.25,42,0,70.3,29.8,70.3,74.14,0,24.09-7.79,44.15-22.52,58C807,268.39,788.52,275.24,768.21,275.24Zm1.86-123.86c-17.79,0-39,7.82-39,45.08v9.77c0,38.65,28.43,41.65,37.14,41.65,25,0,41.12-18.84,41.12-48C809.33,176.43,799,151.38,770.07,151.38Z"/><path class="cls-2" d="M1091.22,275.24c-42,0-70.3-29.79-70.3-74.14,0-24.09,7.79-44.15,22.52-58,13.24-12.45,31.71-19.31,52-19.31,14.27,0,27.53,3.78,37.13,10.47V91.37a14.51,14.51,0,0,1,14.49-14.5H1150a14.51,14.51,0,0,1,14.49,14.5v166A14.51,14.51,0,0,1,1150,271.82h-2.86a14.52,14.52,0,0,1-13.59-9.46C1122.79,270.91,1108.59,275.24,1091.22,275.24Zm4.25-123.86c-25,0-41.12,18.75-41.12,47.77,0,22.48,10.28,48.73,39.26,48.73,17.79,0,39-7.86,39-45.32v-9.77C1132.6,154.37,1104.18,151.38,1095.47,151.38Z"/></svg>