<svg id="Layer_1" data-name="Layer 1" xmlns="http://www.w3.org/2000/svg" xmlns:xlink="http://www.w3.org/1999/xlink" viewBox="0 0 64.67 64.67"><defs><style>.cls-1{fill:url(#linear-gradient);}.cls-2{fill:#fff;}.cls-3{fill:#f79432;}</style><linearGradient id="linear-gradient" x1="53.87" y1="2.85" x2="12.69" y2="59.22" gradientUnits="userSpaceOnUse"><stop offset="0" stop-color="#353535"/><stop offset="1"/></linearGradient></defs><circle class="cls-1" cx="32.33" cy="32.33" r="32.26"/><path class="cls-2" d="M24.41,42.73c-1,0-1.7-.48-1.73-1.37h1.15a.5.5,0,0,0,.54.5c.32,0,.52-.15.52-.41,0-.82-2.21-.38-2.2-2,0-.83.69-1.3,1.61-1.3s1.62.48,1.66,1.32H24.8a.47.47,0,0,0-.51-.45.39.39,0,0,0-.46.4c0,.76,2.19.42,2.19,1.9A1.42,1.42,0,0,1,24.41,42.73Z"/><path class="cls-2" d="M26.85,40.06h-.43v-.89h.43v-.86h1.07v.86h.71v.89h-.71v1.41c0,.21.09.3.33.3h.38v.91h-.54a1.09,1.09,0,0,1-1.24-1.22Z"/><path class="cls-2" d="M30.57,39.12a1.22,1.22,0,0,1,1.08.55v-.5h1.08v3.51H31.65v-.5a1.25,1.25,0,0,1-1.09.55,1.83,1.83,0,0,1,0-3.61Zm.31.94a.78.78,0,0,0-.77.86.78.78,0,1,0,1.54,0,.78.78,0,0,0-.77-.86Z"/><path class="cls-2" d="M35.93,39.17h1.16l-2.2,5.18H33.73l.8-1.79-1.42-3.39h1.2l.81,2.2Z"/><path class="cls-2" d="M39.84,39.2A1.61,1.61,0,0,1,41.47,41a1.63,1.63,0,0,1-1.63,1.77,1.48,1.48,0,0,1-1.37-.8V44.3H38v-5h.43V40A1.46,1.46,0,0,1,39.84,39.2Zm-.09.38a1.39,1.39,0,0,0,0,2.77,1.39,1.39,0,0,0,0-2.77Z"/><path class="cls-2" d="M42.19,38.27a.32.32,0,0,1,.32-.32.32.32,0,0,1,0,.64.32.32,0,0,1-.32-.32Zm.1,1h.44v3.43h-.44Z"/><path class="cls-2" d="M45.19,39.2a1.49,1.49,0,0,1,1.58,1.17H46.3a1.05,1.05,0,0,0-1.11-.8,1.41,1.41,0,0,0,0,2.79,1.05,1.05,0,0,0,1.11-.8h.47a1.51,1.51,0,0,1-1.58,1.17,1.77,1.77,0,0,1,0-3.53Z"/><path class="cls-2" d="M47.58,38H48v2.75l1.39-1.53H50L48.39,41,50,42.68h-.6L48,41.14v1.54h-.44Z"/><path class="cls-2" d="M52.09,42.73a1.77,1.77,0,0,1,0-3.53,1.54,1.54,0,0,1,1.62,1.59c0,.11,0,.23,0,.34H50.85a1.19,1.19,0,0,0,1.24,1.23,1.06,1.06,0,0,0,1.1-.77h.47A1.51,1.51,0,0,1,52.09,42.73Zm-1.24-1.95h2.41a1.12,1.12,0,0,0-1.19-1.21,1.19,1.19,0,0,0-1.22,1.21Z"/><path class="cls-2" d="M55,42.68h-.44V39.25H55v.61a1.17,1.17,0,0,1,1.17-.68v.46H56c-.57,0-1,.26-1,1.12Z"/><path class="cls-3" d="M9.33,41.3A2.79,2.79,0,0,1,8,41a3.67,3.67,0,0,1-1-.77,8.46,8.46,0,0,1-1.92-3.45A2.84,2.84,0,0,1,5,36v0a1,1,0,0,1,0-.17,1.64,1.64,0,0,1,.88-1.39,3.38,3.38,0,0,1,.62-.26A4.56,4.56,0,0,1,7.18,34c.63-.1,1.27-.18,1.91-.26l3-.31,1.07-.09.51,0a.39.39,0,0,0,.15,0,.36.36,0,0,0,0-.11l.18-.7c.41-1.78.74-3.61,1-5.42.16-1.13.29-2.28.38-3.42q0-.54.06-1.08c0-.16,0-.32,0-.48V22a.76.76,0,0,1,0-.15.35.35,0,0,1,.12-.3.4.4,0,0,1,.3-.1h0a.41.41,0,0,1,.28.09.44.44,0,0,1,.11.32v1.46c0,.92.07,1.89.16,2.86s.21,2.2.36,3.29.36,2.27.62,3.38a.7.7,0,0,0,0,.14l0,.1h.73a.65.65,0,0,1,.31.08h0a.29.29,0,0,1,.11.24v0h0a.2.2,0,0,1-.1.15.24.24,0,0,1-.14,0h-.8v0c0,.07,0,.16.07.24h0c.07.32.16.65.25,1s.24.86.38,1.28a9.21,9.21,0,0,0,.48,1.23.84.84,0,0,1,.05.17.26.26,0,0,1-.19.29.48.48,0,0,1-.62-.22c-.07-.13-.14-.26-.2-.4-.13-.32-.25-.65-.36-1s-.2-.66-.29-1-.16-.58-.23-.87l-.15-.61,0-.1h-.11l-1,.06-1.05,0a.11.11,0,0,0-.08,0,.24.24,0,0,0-.06.11c-.21.81-.47,1.62-.76,2.41-.2.52-.41,1-.65,1.54a11.73,11.73,0,0,1-.82,1.47,5.78,5.78,0,0,1-1,1.15,3.07,3.07,0,0,1-1.34.69A3,3,0,0,1,9.33,41.3Zm4.36-7.4L12.47,34l-.24,0c-.9.08-1.82.18-2.73.28-.67.08-1.35.17-2,.27a3,3,0,0,0-.86.23A1.12,1.12,0,0,0,5.86,36a4.09,4.09,0,0,0,.07.6c.07.25.15.5.24.74s.21.49.33.73a7,7,0,0,0,1.22,1.78,3.36,3.36,0,0,0,.86.68,1.61,1.61,0,0,0,.77.2h0a1.67,1.67,0,0,0,.79-.21,3.11,3.11,0,0,0,.86-.68,7.11,7.11,0,0,0,1-1.39,19.2,19.2,0,0,0,1.38-3.35c.11-.38.23-.76.33-1.14v0Zm1.09-.68h.45l.9,0,.56,0a52.37,52.37,0,0,1-.86-5.45c0,.24-.08.48-.11.72-.09.56-.18,1.12-.28,1.68-.06.31-.12.63-.19.94s-.09.48-.14.72-.1.49-.17.73-.12.49-.16.75Z"/><path class="cls-3" d="M23.39,33.39a2.08,2.08,0,0,0,.61-.33c.24-.18.36-.19.34,0a.61.61,0,0,1-.41.43,3.38,3.38,0,0,1-.69.26.48.48,0,0,0-.16.08A.33.33,0,0,0,23,34a1.61,1.61,0,0,1-.23.61,1.14,1.14,0,0,1-1.25.55.5.5,0,0,1-.32-.83,1.5,1.5,0,0,1,.63-.48,1,1,0,0,1,.24-.11l.14,0a.34.34,0,0,0,.16-.31,1,1,0,0,0-.11-.47.62.62,0,0,0-.33-.31c-.14-.06-.31,0-.5.15a1.74,1.74,0,0,0-.43.61,5,5,0,0,0-.46,1.47c-.15.9-.26,1.81-.32,2.71,0,.42-.06.84-.12,1.25a4.69,4.69,0,0,0-.06.54.61.61,0,0,1-.05.18.19.19,0,0,1-.24.14c-.15,0-.22-.07-.23-.19a2.41,2.41,0,0,1,0-.38V39c0-.16,0-.32,0-.48s0-.57,0-.84c0-1.15,0-2.3,0-3.46,0-.44,0-.87,0-1.29v-.13a1.36,1.36,0,0,1,0-.45.3.3,0,0,1,.29-.24.25.25,0,0,1,.3.22v.05c.05.32.1.75.15,1.27a2.72,2.72,0,0,1,.45-.85,1.69,1.69,0,0,1,.64-.48,1.28,1.28,0,0,1,.64-.11,1,1,0,0,1,.59.27,1.27,1.27,0,0,1,.37.71q0,.21.12.24A.58.58,0,0,0,23.39,33.39Zm-1.54,1.4a.92.92,0,0,0,.32-.3.75.75,0,0,0,.11-.33c0-.09,0-.13-.11-.11a.87.87,0,0,0-.44.33.46.46,0,0,0-.08.34C21.68,34.81,21.74,34.83,21.85,34.79Z"/><path class="cls-3" d="M29.84,33.27a3.41,3.41,0,0,1-.56,1,1.79,1.79,0,0,1-1,.72,1.6,1.6,0,0,1-1.09,0c-.3-.13-.47-.49-.5-1.08a3.32,3.32,0,0,1-1,1.29,1.42,1.42,0,0,1-1,.21,1,1,0,0,1-.78-.44,1.25,1.25,0,0,1-.14-.82,3.24,3.24,0,0,1,.28-.9,2,2,0,0,1,.47-.58,2.43,2.43,0,0,1,.63-.43A1.65,1.65,0,0,1,26,32a1.72,1.72,0,0,1,.87.27s0,0,0,0a.23.23,0,0,1,0-.11A.21.21,0,0,1,27,32a.59.59,0,0,1,.37-.12.38.38,0,0,1,.32.22,3.1,3.1,0,0,1-.06.69,2.62,2.62,0,0,0,0,1.33.56.56,0,0,0,.6.38c.29,0,.66-.3,1.11-.85S29.94,33,29.84,33.27Zm-5.05,1.45a.43.43,0,0,0,.54,0,2.46,2.46,0,0,0,.59-.61,4.84,4.84,0,0,0,.47-.79,2.32,2.32,0,0,0,.22-.58,1.07,1.07,0,0,0-1-.11,1.5,1.5,0,0,0-.66.66,2.55,2.55,0,0,0-.29.9.67.67,0,0,0,.12.58Z"/><path class="cls-3" d="M32.75,33.45c.07-.13.11-.19.14-.18s0,.06,0,.16a1.91,1.91,0,0,1-.06.33,3.87,3.87,0,0,1-.23.65,4,4,0,0,1-.37.68,2,2,0,0,1-.73.64,1.11,1.11,0,0,1-.8.1c-.24-.07-.37-.29-.41-.67a5.15,5.15,0,0,1,.08-1c0-.16,0-.31.07-.46a.2.2,0,0,0,0-.13.11.11,0,0,0-.11,0h-.1a1.62,1.62,0,0,1-.58,0c-.23-.07-.37-.18-.4-.35a1.49,1.49,0,0,1,0-.63.61.61,0,0,1,.21-.43.59.59,0,0,1,.41-.12c.22,0,.32.11.31.26a1.31,1.31,0,0,1-.12.47,1.05,1.05,0,0,0-.11.35c0,.1.08.13.24.1l.13,0,.21-.06a1.62,1.62,0,0,1,.31,0,.32.32,0,0,1,.3.21,1.27,1.27,0,0,1,.06.5c0,.2,0,.4-.06.61a4.65,4.65,0,0,0-.05.66c0,.18.05.29.16.32s.35-.09.63-.39A5.26,5.26,0,0,0,32.75,33.45Z"/><path class="cls-3" d="M36.39,33.44c.19-.18.27-.22.24-.13a1.9,1.9,0,0,1-.31.49,8.32,8.32,0,0,1-.68.77,5.45,5.45,0,0,1-.86.73,1.67,1.67,0,0,1-.85.32,1.07,1.07,0,0,1-.8-.29,1.74,1.74,0,0,1-.43-.78,3.72,3.72,0,0,1-.11-1c0-.42,0-.84,0-1.27,0-.21,0-.41,0-.62s0-.67,0-1a.41.41,0,0,0,0-.27.26.26,0,0,0-.22-.12h-.85a.46.46,0,0,1-.32-.12q-.08-.1.12-.21a1.07,1.07,0,0,1,.35-.06h.62c.2,0,.32,0,.37-.1a.86.86,0,0,0,.08-.38q0-.29,0-.6c0-.1,0-.21,0-.31A.75.75,0,0,1,33,28a.32.32,0,0,1,.34-.14.24.24,0,0,1,.2.23c0,.2,0,.4,0,.6a1.93,1.93,0,0,1,0,.34c0,.12,0,.24,0,.37s0,.3.07.34.16.07.35.07h.92l1.22,0c.67,0,1,0,1.09.17s-.38.2-1.29.22c-.55,0-1,.05-1.27.05h-.54c-.28,0-.44,0-.51.14a1.09,1.09,0,0,0-.08.57c0,.24,0,.53,0,.88,0,.71-.06,1.43-.06,2.17a1.38,1.38,0,0,0,.27,1,.6.6,0,0,0,.64.09,3.13,3.13,0,0,0,.85-.51c.31-.24.61-.5.91-.78a2.61,2.61,0,0,1,.24-.23Z"/><path class="cls-3" d="M42.61,34h0l.22-.21.37-.29a.58.58,0,0,1,.28-.15c.06,0,0,.08,0,.25a.7.7,0,0,0-.06.09l-.08.09,0,0A10.51,10.51,0,0,1,42,35a1.37,1.37,0,0,1-.88.31.71.71,0,0,1-.61-.35,1.48,1.48,0,0,1-.15-.75,5.26,5.26,0,0,1,.07-.89,5.29,5.29,0,0,0,.06-.8c0-.22-.09-.35-.23-.39s-.27.11-.41.34a4.6,4.6,0,0,0-.4.8c-.13.3-.24.57-.32.81s-.08.21-.1.27a.45.45,0,0,1-.26.23.5.5,0,0,1-.36,0,.25.25,0,0,1-.14-.19,3.62,3.62,0,0,1,0-.57,2.28,2.28,0,0,0,0-.37v-.29a.78.78,0,0,0,0-.16s0-.07-.07-.07-.13.06-.22.21a5.12,5.12,0,0,0-.25.53c-.09.2-.17.38-.23.55l-.13.29,0,.07-.21.41a.37.37,0,0,1-.29.2c-.28.05-.43-.07-.45-.34l-.06-2.1c0-.18.11-.25.34-.19s.35.17.37.35.06.44.11.44.13-.12.28-.39c.07-.12.15-.25.24-.38a1.41,1.41,0,0,1,.39-.45.6.6,0,0,1,.5-.11.61.61,0,0,1,.37.37c0,.08.08.12.12.13s.07,0,.11-.05l.11-.15a.86.86,0,0,1,.1-.16,1.7,1.7,0,0,1,.76-.48,1.12,1.12,0,0,1,.79,0,.72.72,0,0,1,.42.64,6.21,6.21,0,0,1-.08,1.22c0,.2,0,.39-.07.57,0,.38.05.59.21.63a.7.7,0,0,0,.56-.18A6.73,6.73,0,0,0,42.61,34Z"/><path class="cls-3" d="M48.32,32.93c-.35.46-.67.84-.94,1.15a3.58,3.58,0,0,1-1.13.87,6,6,0,0,1-.93.32,2.65,2.65,0,0,1-1,0,1.69,1.69,0,0,1-.88-.43A1.49,1.49,0,0,1,43,33.53a2,2,0,0,1,.49-1.08,2.14,2.14,0,0,1,1-.6,2.8,2.8,0,0,1,1,0A1,1,0,0,1,46,32a.44.44,0,0,1,.2.32.47.47,0,0,1-.14.35,1.3,1.3,0,0,1-.76.35,8.16,8.16,0,0,1-1,.11.5.5,0,0,0-.33.09.56.56,0,0,0-.11.33,1.15,1.15,0,0,0,.41,1.06,1.05,1.05,0,0,0,.73.2,3.16,3.16,0,0,0,.93-.23,4,4,0,0,0,1.13-.84,9.92,9.92,0,0,0,.89-1c.19-.26.3-.42.35-.5a.47.47,0,0,1,.13-.15.53.53,0,0,1,.25,0,.37.37,0,0,1,.21.06.34.34,0,0,1,.13.26,2.06,2.06,0,0,1,0,.21,2.35,2.35,0,0,1,0,.26.56.56,0,0,0,0,.23c0,.05,0,0,.09,0a2.75,2.75,0,0,0,.25-.32,2.78,2.78,0,0,1,.72-.77,1.23,1.23,0,0,1,.87-.23.6.6,0,0,1,.54.43,1.23,1.23,0,0,1,.06.39,2.8,2.8,0,0,1,0,.4,2.93,2.93,0,0,1,0,.41l0,.14a2.28,2.28,0,0,0,0,1,.26.26,0,0,0,.35.17,2,2,0,0,0,.63-.71,7.11,7.11,0,0,0,.46-.8c.05-.11.09-.11.12,0a1.76,1.76,0,0,1-.25.83,2.64,2.64,0,0,1-.74,1,1,1,0,0,1-.83.26.79.79,0,0,1-.55-.53,2.55,2.55,0,0,1-.09-1.11.09.09,0,0,1,0,0c0-.08,0-.19,0-.34s0-.3,0-.45a1.7,1.7,0,0,0,0-.39c0-.11-.06-.14-.14-.11a1.52,1.52,0,0,0-.53.58,7.83,7.83,0,0,0-.47.91c-.11.25-.21.51-.3.77,0,.06,0,.12-.07.19s-.06.18-.1.27a.41.41,0,0,1-.52.3.29.29,0,0,1-.23-.25c0-.11,0-.21,0-.31a1,1,0,0,0,0-.17C48.35,34,48.33,33.48,48.32,32.93Zm-3.89-.41h0l-.05,0-.07.05,0,0s.07,0,.19,0l.39-.06a1.06,1.06,0,0,0,.34-.12c.09,0,.12-.11.09-.17a.17.17,0,0,0-.06-.06l-.09,0a1,1,0,0,0-.37.08A2.9,2.9,0,0,0,44.43,32.52Z"/><path class="cls-3" d="M56.59,33.44c.19-.18.27-.22.24-.13a2.24,2.24,0,0,1-.31.49,8.32,8.32,0,0,1-.68.77,5.45,5.45,0,0,1-.86.73,1.66,1.66,0,0,1-.86.32,1.06,1.06,0,0,1-.79-.29,1.74,1.74,0,0,1-.43-.78,3.38,3.38,0,0,1-.11-1c0-.42,0-.84.05-1.27,0-.21,0-.41,0-.62s0-.67,0-1a.41.41,0,0,0,0-.27.26.26,0,0,0-.22-.12h-.86a.43.43,0,0,1-.31-.12q-.09-.1.12-.21a1,1,0,0,1,.35-.06h.61c.2,0,.33,0,.37-.1a.65.65,0,0,0,.08-.38c0-.19,0-.39,0-.6s0-.21,0-.31a.75.75,0,0,1,.13-.43.32.32,0,0,1,.34-.14.26.26,0,0,1,.2.23c0,.2,0,.4,0,.6a1.93,1.93,0,0,1,0,.34c0,.12,0,.24,0,.37s0,.3.06.34a.57.57,0,0,0,.36.07h.91l1.22,0c.68,0,1,0,1.1.17s-.38.2-1.29.22c-.55,0-1,.05-1.27.05h-.55c-.27,0-.44,0-.5.14a1.09,1.09,0,0,0-.08.57c0,.24,0,.53,0,.88,0,.71-.07,1.43-.07,2.17a1.48,1.48,0,0,0,.27,1,.62.62,0,0,0,.65.09,3.29,3.29,0,0,0,.85-.51c.31-.24.61-.5.91-.78a1.75,1.75,0,0,1,.24-.23Z"/><path class="cls-3" d="M59.64,33.11c0,.08-.17.22-.5.42l-.73.45c-.16.1-.24.16-.24.19a1.91,1.91,0,0,1,.1.34,2.32,2.32,0,0,1,0,.53.92.92,0,0,1-.18.5.81.81,0,0,1-.57.26,1.29,1.29,0,0,1-.71-.11.71.71,0,0,1-.38-.44.8.8,0,0,1,.19-.68,1.91,1.91,0,0,1,.43-.37l.18-.12c-.21-.22-.4-.45-.58-.68a1.87,1.87,0,0,1-.35-.61.71.71,0,0,1,.11-.6.83.83,0,0,1,.65-.32,1.19,1.19,0,0,1,.42,0,.77.77,0,0,1,.37.19.22.22,0,0,1,0,.08.11.11,0,0,1,0,.11.18.18,0,0,1-.17.1l-.15,0-.15-.07-.09,0c-.1,0-.18,0-.23,0a.31.31,0,0,0-.08.22,1.08,1.08,0,0,0,.22.56c.13.2.27.38.4.55a1.77,1.77,0,0,1,.14.17s.14,0,.3,0a6,6,0,0,0,.89-.41C59.42,33.1,59.64,33,59.64,33.11Zm-2.29,2.31a.21.21,0,0,0,.19-.16,1,1,0,0,0,0-.34c0-.13,0-.22,0-.28a.12.12,0,0,0-.16-.07h0a.84.84,0,0,0-.25.34.41.41,0,0,0,0,.36.28.28,0,0,0,.09.1.22.22,0,0,0,.12.05Z"/></svg>