<svg id="Layer_1" data-name="Layer 1" xmlns="http://www.w3.org/2000/svg" xmlns:xlink="http://www.w3.org/1999/xlink" viewBox="0 0 64.67 64.67"><defs><style>.cls-1{fill:url(#linear-gradient);}.cls-2{fill:#f79432;}</style><linearGradient id="linear-gradient" x1="56.25" y1="8.42" x2="9.12" y2="55.55" gradientUnits="userSpaceOnUse"><stop offset="0" stop-color="#fff"/><stop offset="1" stop-color="#bcbcbc"/></linearGradient></defs><circle class="cls-1" cx="32.33" cy="32.33" r="32.26"/><path d="M24.41,41.5c-1,0-1.7-.47-1.73-1.37h1.15a.51.51,0,0,0,.54.51c.32,0,.52-.16.52-.42,0-.82-2.21-.38-2.2-1.94,0-.84.69-1.3,1.61-1.3s1.62.47,1.66,1.32H24.8a.47.47,0,0,0-.51-.46.39.39,0,0,0-.46.4c0,.77,2.19.42,2.19,1.9A1.42,1.42,0,0,1,24.41,41.5Z"/><path d="M26.85,38.84h-.43v-.9h.43v-.85h1.07v.85h.71v.9h-.71v1.41c0,.2.09.29.33.29h.38v.91h-.54a1.08,1.08,0,0,1-1.24-1.22Z"/><path d="M30.57,37.89a1.22,1.22,0,0,1,1.08.55v-.5h1.08v3.51H31.65V41a1.24,1.24,0,0,1-1.09.54,1.83,1.83,0,0,1,0-3.61Zm.31.94a.78.78,0,0,0-.77.86.8.8,0,0,0,.77.88.88.88,0,0,0,0-1.74Z"/><path d="M35.93,37.94h1.16l-2.2,5.18H33.73l.8-1.79-1.42-3.39h1.2l.81,2.2Z"/><path d="M39.84,38a1.77,1.77,0,0,1,0,3.53,1.46,1.46,0,0,1-1.37-.8v2.38H38V38h.43v.75A1.46,1.46,0,0,1,39.84,38Zm-.09.38a1.39,1.39,0,0,0,0,2.77,1.39,1.39,0,0,0,0-2.77Z"/><path d="M42.19,37a.32.32,0,0,1,.32-.32.33.33,0,0,1,.32.32.32.32,0,0,1-.32.32.32.32,0,0,1-.32-.32Zm.1,1h.44v3.43h-.44Z"/><path d="M45.19,38a1.49,1.49,0,0,1,1.58,1.17H46.3a1,1,0,0,0-1.11-.79,1.4,1.4,0,0,0,0,2.78,1,1,0,0,0,1.11-.8h.47a1.51,1.51,0,0,1-1.58,1.17,1.77,1.77,0,0,1,0-3.53Z"/><path d="M47.58,36.8H48v2.75L49.41,38H50l-1.63,1.71L50,41.45h-.6L48,39.92v1.54h-.44Z"/><path d="M52.09,41.5a1.77,1.77,0,0,1,0-3.53,1.54,1.54,0,0,1,1.62,1.59c0,.12,0,.23,0,.35H50.85a1.19,1.19,0,0,0,1.24,1.22,1,1,0,0,0,1.1-.76h.47A1.5,1.5,0,0,1,52.09,41.5Zm-1.24-2h2.41a1.12,1.12,0,0,0-1.19-1.2,1.18,1.18,0,0,0-1.22,1.2Z"/><path d="M55,41.45h-.44V38H55v.61A1.18,1.18,0,0,1,56.13,38v.45H56c-.57,0-1,.26-1,1.12Z"/><path class="cls-2" d="M9.33,40.07A2.67,2.67,0,0,1,8,39.74a3.67,3.67,0,0,1-1-.77,8.46,8.46,0,0,1-1.92-3.45,2.78,2.78,0,0,1-.1-.76H5a.91.91,0,0,1,0-.17,1.61,1.61,0,0,1,.88-1.39,2.81,2.81,0,0,1,.62-.26,4.58,4.58,0,0,1,.64-.15c.63-.09,1.27-.18,1.91-.25l3-.32,1.07-.09.51,0,.15,0a.49.49,0,0,0,0-.11l.18-.7c.41-1.79.74-3.61,1-5.43.16-1.13.29-2.28.38-3.42,0-.35.05-.72.06-1.07,0-.16,0-.33,0-.49v-.07a.76.76,0,0,1,0-.15.38.38,0,0,1,.12-.3.45.45,0,0,1,.3-.09h0a.47.47,0,0,1,.28.08.44.44,0,0,1,.11.32V22.1c0,.93.07,1.89.16,2.87s.21,2.19.36,3.28.36,2.27.62,3.38a.58.58,0,0,0,0,.14l0,.1h.73a.55.55,0,0,1,.31.08h0a.26.26,0,0,1,.11.23v0h0a.21.21,0,0,1-.1.16.23.23,0,0,1-.14,0h-.8a2.17,2.17,0,0,0,.07.24h0c.07.33.16.66.25,1s.24.86.38,1.28a9.21,9.21,0,0,0,.48,1.23,1.09,1.09,0,0,1,.05.17.27.27,0,0,1-.19.3.69.69,0,0,1-.2,0,.46.46,0,0,1-.42-.26c-.07-.13-.14-.26-.2-.4-.13-.32-.25-.64-.36-1s-.2-.66-.29-1-.16-.58-.23-.86l-.15-.62,0-.1h-.11l-1,0-1.05.06a.08.08,0,0,0-.08,0,.24.24,0,0,0-.06.11c-.21.81-.47,1.62-.76,2.41-.2.52-.41,1-.65,1.54a11.73,11.73,0,0,1-.82,1.47,5.51,5.51,0,0,1-1,1.15A3.09,3.09,0,0,1,10,40,3,3,0,0,1,9.33,40.07Zm4.36-7.39c-.41,0-.82.06-1.22.11l-.24,0c-.9.09-1.82.18-2.73.29-.67.07-1.35.16-2,.26a3.78,3.78,0,0,0-.86.23,1.12,1.12,0,0,0-.76,1.15,3.93,3.93,0,0,0,.07.6q.11.39.24.75t.33.72a7,7,0,0,0,1.22,1.78,3,3,0,0,0,.86.68,1.74,1.74,0,0,0,.77.21h0a1.69,1.69,0,0,0,.79-.22,3.27,3.27,0,0,0,.86-.67,7.43,7.43,0,0,0,1-1.39,19.62,19.62,0,0,0,1.38-3.36c.11-.37.23-.75.33-1.13v0ZM14.78,32h.45l.9,0,.56-.05a52.37,52.37,0,0,1-.86-5.45c0,.24-.08.48-.11.72-.09.56-.18,1.13-.28,1.68-.06.31-.12.63-.19.94s-.09.48-.14.73-.1.48-.17.72-.12.5-.16.75Z"/><path class="cls-2" d="M23.39,32.16a2.08,2.08,0,0,0,.61-.33c.24-.18.36-.18.34,0a.64.64,0,0,1-.41.44,4,4,0,0,1-.69.25.51.51,0,0,0-.16.09.24.24,0,0,0-.1.14,1.74,1.74,0,0,1-.23.61,1.12,1.12,0,0,1-1.25.54.55.55,0,0,1-.41-.31.57.57,0,0,1,.09-.52,1.5,1.5,0,0,1,.63-.48,1,1,0,0,1,.24-.1l.14,0a.34.34,0,0,0,.16-.31.92.92,0,0,0-.11-.46.64.64,0,0,0-.33-.32c-.14-.06-.31,0-.5.15a1.74,1.74,0,0,0-.43.61,5.13,5.13,0,0,0-.46,1.47c-.15.91-.26,1.81-.32,2.71,0,.43-.06.84-.12,1.26a4.52,4.52,0,0,0-.06.53.61.61,0,0,1-.05.18.2.2,0,0,1-.24.15c-.15,0-.22-.08-.23-.2a2.41,2.41,0,0,1,0-.38v-.08c0-.16,0-.32,0-.47s0-.57,0-.85c0-1.15,0-2.3,0-3.46,0-.44,0-.86,0-1.29v-.13a1.29,1.29,0,0,1,0-.44.31.31,0,0,1,.29-.25.25.25,0,0,1,.3.23v0c.05.33.1.75.15,1.28a2.67,2.67,0,0,1,.45-.86,1.69,1.69,0,0,1,.64-.48A1.27,1.27,0,0,1,22,31a1,1,0,0,1,.59.26,1.3,1.3,0,0,1,.37.71c0,.14.07.22.12.25A.61.61,0,0,0,23.39,32.16Zm-1.54,1.4a.84.84,0,0,0,.32-.3.68.68,0,0,0,.11-.33c0-.09,0-.13-.11-.1a.86.86,0,0,0-.44.32.46.46,0,0,0-.08.34C21.68,33.58,21.74,33.61,21.85,33.56Z"/><path class="cls-2" d="M29.84,32.05a3.68,3.68,0,0,1-.56,1,1.78,1.78,0,0,1-1,.71,1.66,1.66,0,0,1-1.09,0c-.3-.14-.47-.5-.5-1.09a3.32,3.32,0,0,1-1,1.29,1.48,1.48,0,0,1-1,.22,1,1,0,0,1-.78-.45,1.25,1.25,0,0,1-.14-.82,3.08,3.08,0,0,1,.28-.89,2.22,2.22,0,0,1,.47-.59,2.7,2.7,0,0,1,.63-.43,1.65,1.65,0,0,1,.82-.19,1.94,1.94,0,0,1,.87.27s0,0,0,0a.25.25,0,0,1,0-.12.21.21,0,0,1,.08-.11.53.53,0,0,1,.37-.11.36.36,0,0,1,.32.21,3.1,3.1,0,0,1-.06.69,2.62,2.62,0,0,0,0,1.33.56.56,0,0,0,.6.38c.29,0,.66-.3,1.11-.85S29.94,31.76,29.84,32.05Zm-5.05,1.44a.43.43,0,0,0,.54,0,2.87,2.87,0,0,0,.59-.61,5.3,5.3,0,0,0,.47-.79,2.35,2.35,0,0,0,.22-.59,1.06,1.06,0,0,0-1-.1A1.41,1.41,0,0,0,25,32a2.44,2.44,0,0,0-.29.89.67.67,0,0,0,.12.58Z"/><path class="cls-2" d="M32.75,32.23c.07-.14.11-.2.14-.19s0,.07,0,.17a1.8,1.8,0,0,1-.06.32,3.68,3.68,0,0,1-.23.66,5,5,0,0,1-.37.68,1.94,1.94,0,0,1-.73.63,1.12,1.12,0,0,1-.8.11c-.24-.08-.37-.3-.41-.68a5.27,5.27,0,0,1,.08-1c0-.15,0-.31.07-.46a.17.17,0,0,0,0-.12.12.12,0,0,0-.11,0h-.1a1.62,1.62,0,0,1-.58,0c-.23-.07-.37-.18-.4-.34a1.54,1.54,0,0,1,0-.64.57.57,0,0,1,.21-.42.5.5,0,0,1,.41-.12c.22,0,.32.1.31.25a1.31,1.31,0,0,1-.12.47,1.05,1.05,0,0,0-.11.35c0,.1.08.13.24.1l.13,0,.21-.07a1.08,1.08,0,0,1,.31,0,.32.32,0,0,1,.3.21,1.2,1.2,0,0,1,.06.49,6,6,0,0,1-.06.61,4.89,4.89,0,0,0-.05.66c0,.18.05.29.16.32s.35-.09.63-.38A5.58,5.58,0,0,0,32.75,32.23Z"/><path class="cls-2" d="M36.39,32.22c.19-.18.27-.23.24-.14a1.74,1.74,0,0,1-.31.49,10,10,0,0,1-.68.78,5.38,5.38,0,0,1-.86.72,1.79,1.79,0,0,1-.85.33,1.07,1.07,0,0,1-.8-.3,1.64,1.64,0,0,1-.43-.78,3.68,3.68,0,0,1-.11-1c0-.42,0-.84,0-1.26,0-.21,0-.42,0-.62s0-.68,0-1a.44.44,0,0,0,0-.27.23.23,0,0,0-.22-.11L32,29h-.4a.42.42,0,0,1-.32-.12c-.05-.07,0-.14.12-.2a1.45,1.45,0,0,1,.35-.07h.62c.2,0,.32,0,.37-.09a.9.9,0,0,0,.08-.38l0-.6c0-.11,0-.21,0-.32a.75.75,0,0,1,.13-.43.31.31,0,0,1,.34-.13.23.23,0,0,1,.2.22c0,.2,0,.4,0,.6a1.93,1.93,0,0,1,0,.34c0,.12,0,.25,0,.38a.52.52,0,0,0,.07.34.63.63,0,0,0,.35.06h.92l1.22,0c.67,0,1,0,1.09.17s-.38.2-1.29.23c-.55,0-1,0-1.27,0h-.54c-.28,0-.44.05-.51.14a1.13,1.13,0,0,0-.08.57c0,.24,0,.54,0,.88,0,.71-.06,1.43-.06,2.17a1.36,1.36,0,0,0,.27,1,.58.58,0,0,0,.64.09,3.08,3.08,0,0,0,.85-.5c.31-.24.61-.5.91-.78a1.81,1.81,0,0,1,.24-.24Z"/><path class="cls-2" d="M42.61,32.79h0l.22-.2c.12-.11.25-.21.37-.3a.69.69,0,0,1,.28-.15c.06,0,0,.08,0,.26l-.06.08-.08.1,0,0A10,10,0,0,1,42,33.77a1.36,1.36,0,0,1-.88.3.71.71,0,0,1-.61-.35A1.44,1.44,0,0,1,40.4,33a5.42,5.42,0,0,1,.07-.89,5.25,5.25,0,0,0,.06-.79c0-.23-.09-.36-.23-.39s-.27.1-.41.33a5,5,0,0,0-.4.8c-.13.31-.24.58-.32.81l-.1.27a.47.47,0,0,1-.26.24.5.5,0,0,1-.36,0,.25.25,0,0,1-.14-.19,3.46,3.46,0,0,1,0-.56,2.41,2.41,0,0,0,0-.38V31.9a.88.88,0,0,0,0-.16s0-.07-.07-.07-.13.07-.22.21a5.12,5.12,0,0,0-.25.53c-.09.2-.17.39-.23.55s-.11.24-.13.3l0,.06-.21.41a.35.35,0,0,1-.29.2c-.28,0-.43-.06-.45-.34l-.06-2.1c0-.18.11-.24.34-.19s.35.17.37.35.06.44.11.45.13-.13.28-.39a4.11,4.11,0,0,1,.24-.39,1.53,1.53,0,0,1,.39-.45.59.59,0,0,1,.5-.1.57.57,0,0,1,.37.36c0,.08.08.13.12.14a.14.14,0,0,0,.11-.06.58.58,0,0,0,.11-.15,1.4,1.4,0,0,1,.1-.16,1.79,1.79,0,0,1,.76-.48,1.12,1.12,0,0,1,.79,0,.72.72,0,0,1,.42.65,6.16,6.16,0,0,1-.08,1.21c0,.2,0,.39-.07.57,0,.38.05.59.21.63a.7.7,0,0,0,.56-.18A5.49,5.49,0,0,0,42.61,32.79Z"/><path class="cls-2" d="M48.32,31.71c-.35.46-.67.84-.94,1.14a3.58,3.58,0,0,1-1.13.87,5.11,5.11,0,0,1-.93.32,2.45,2.45,0,0,1-1,.05,1.62,1.62,0,0,1-.88-.43A1.48,1.48,0,0,1,43,32.31a2,2,0,0,1,.49-1.08,2.08,2.08,0,0,1,1-.61,2.8,2.8,0,0,1,1,0,1.12,1.12,0,0,1,.43.16.45.45,0,0,1,.2.32.49.49,0,0,1-.14.36,1.44,1.44,0,0,1-.76.35c-.33.05-.65.08-1,.1A.5.5,0,0,0,44,32a.57.57,0,0,0-.11.34,1.13,1.13,0,0,0,.41,1,1,1,0,0,0,.73.2,3.16,3.16,0,0,0,.93-.23,3.61,3.61,0,0,0,1.13-.84,8.93,8.93,0,0,0,.89-1c.19-.25.3-.42.35-.49a.51.51,0,0,1,.13-.16.7.7,0,0,1,.25-.05.38.38,0,0,1,.21.07.32.32,0,0,1,.13.25c0,.05,0,.12,0,.22a2.17,2.17,0,0,1,0,.26.6.6,0,0,0,0,.23s0,0,.09,0a2.37,2.37,0,0,0,.25-.31,2.78,2.78,0,0,1,.72-.77A1.23,1.23,0,0,1,51,30.5a.6.6,0,0,1,.54.43,1.32,1.32,0,0,1,.06.39,2.69,2.69,0,0,1,0,.4,3,3,0,0,1,0,.42l0,.13a2.35,2.35,0,0,0,0,1,.26.26,0,0,0,.35.16,1.89,1.89,0,0,0,.63-.71,6.28,6.28,0,0,0,.46-.8c.05-.11.09-.11.12,0a1.81,1.81,0,0,1-.25.84,2.81,2.81,0,0,1-.74,1,1,1,0,0,1-.83.25.77.77,0,0,1-.55-.53,2.52,2.52,0,0,1-.09-1.1.13.13,0,0,1,0-.06c0-.07,0-.19,0-.33s0-.3,0-.46a1.7,1.7,0,0,0,0-.39c0-.1-.06-.14-.14-.11a1.52,1.52,0,0,0-.53.58,8.72,8.72,0,0,0-.47.91c-.11.25-.21.51-.3.77a1.46,1.46,0,0,1-.07.19c0,.09-.06.18-.1.27a.41.41,0,0,1-.52.3.28.28,0,0,1-.23-.25c0-.11,0-.21,0-.31a1,1,0,0,0,0-.17C48.35,32.79,48.33,32.25,48.32,31.71Zm-3.89-.42a0,0,0,0,1,0,0h0l-.05.05-.07.06,0,0s.07,0,.19,0a2.63,2.63,0,0,0,.39-.06,1.06,1.06,0,0,0,.34-.12c.09-.05.12-.1.09-.17l-.06-.06-.09,0a.8.8,0,0,0-.37.08A2.79,2.79,0,0,0,44.43,31.29Z"/><path class="cls-2" d="M56.59,32.22c.19-.18.27-.23.24-.14a2,2,0,0,1-.31.49,10,10,0,0,1-.68.78,5.38,5.38,0,0,1-.86.72,1.78,1.78,0,0,1-.86.33,1.06,1.06,0,0,1-.79-.3,1.64,1.64,0,0,1-.43-.78,3.35,3.35,0,0,1-.11-1c0-.42,0-.84.05-1.26,0-.21,0-.42,0-.62s0-.68,0-1a.44.44,0,0,0,0-.27.23.23,0,0,0-.22-.11l-.45,0h-.41a.39.39,0,0,1-.31-.12c-.06-.07,0-.14.12-.2a1.36,1.36,0,0,1,.35-.07h.61c.2,0,.33,0,.37-.09a.67.67,0,0,0,.08-.38c0-.2,0-.4,0-.6s0-.21,0-.32a.75.75,0,0,1,.13-.43.31.31,0,0,1,.34-.13.24.24,0,0,1,.2.22c0,.2,0,.4,0,.6a1.93,1.93,0,0,1,0,.34c0,.12,0,.25,0,.38s0,.29.06.34a.67.67,0,0,0,.36.06h.91l1.22,0c.68,0,1,0,1.1.16s-.38.2-1.29.23c-.55,0-1,0-1.27,0h-.55c-.27,0-.44.05-.5.14a1.13,1.13,0,0,0-.08.57c0,.24,0,.54,0,.88,0,.71-.07,1.43-.07,2.17a1.46,1.46,0,0,0,.27,1,.6.6,0,0,0,.65.09,3,3,0,0,0,.85-.5c.31-.24.61-.5.91-.78a1.36,1.36,0,0,1,.24-.24Z"/><path class="cls-2" d="M59.64,31.88c0,.08-.17.22-.5.42l-.73.45c-.16.1-.24.17-.24.19a2.19,2.19,0,0,1,.1.34,2.37,2.37,0,0,1,0,.53.89.89,0,0,1-.18.5.81.81,0,0,1-.57.27,1.39,1.39,0,0,1-.71-.12.69.69,0,0,1-.38-.44.78.78,0,0,1,.19-.67,2,2,0,0,1,.43-.38l.18-.12c-.21-.22-.4-.44-.58-.67a1.9,1.9,0,0,1-.35-.62.69.69,0,0,1,.11-.59.8.8,0,0,1,.65-.32,1.19,1.19,0,0,1,.42,0,.87.87,0,0,1,.37.19.22.22,0,0,1,0,.08.11.11,0,0,1,0,.11.18.18,0,0,1-.17.11.4.4,0,0,1-.15,0,.52.52,0,0,1-.15-.07l-.09,0a.2.2,0,0,0-.23,0,.29.29,0,0,0-.08.22,1.11,1.11,0,0,0,.22.56,6.32,6.32,0,0,0,.4.54,1.77,1.77,0,0,1,.14.17s.14,0,.3,0A6.39,6.39,0,0,0,59,32.1C59.42,31.88,59.64,31.8,59.64,31.88Zm-2.29,2.31a.2.2,0,0,0,.19-.16,1,1,0,0,0,0-.34c0-.12,0-.22,0-.28a.13.13,0,0,0-.16-.07h0a.72.72,0,0,0-.25.34.41.41,0,0,0,0,.36.26.26,0,0,0,.09.09.17.17,0,0,0,.12,0Z"/></svg>