<svg id="Layer_1" data-name="Layer 1" xmlns="http://www.w3.org/2000/svg" xmlns:xlink="http://www.w3.org/1999/xlink" viewBox="0 0 64.67 64.67"><defs><style>.cls-1{fill:url(#linear-gradient);}.cls-2{fill:#fff;}</style><linearGradient id="linear-gradient" x1="55.06" y1="9.41" x2="9.99" y2="54.87" gradientUnits="userSpaceOnUse"><stop offset="0" stop-color="#f9a55a"/><stop offset="1" stop-color="#f79432"/></linearGradient></defs><circle class="cls-1" cx="32.33" cy="32.33" r="32.21"/><path d="M24.42,41.48c-1,0-1.69-.47-1.72-1.36h1.14a.5.5,0,0,0,.55.5c.31,0,.51-.15.51-.41,0-.82-2.2-.38-2.19-1.94,0-.84.68-1.3,1.61-1.3s1.61.48,1.65,1.32H24.81a.48.48,0,0,0-.51-.46.39.39,0,0,0-.45.4c0,.77,2.18.42,2.18,1.9C26,40.87,25.45,41.48,24.42,41.48Z"/><path d="M26.85,38.83h-.42v-.89h.42v-.86h1.08v.86h.7v.89h-.7v1.4c0,.21.09.3.33.3h.38v.91h-.55a1.09,1.09,0,0,1-1.24-1.22Z"/><path d="M30.57,37.89a1.21,1.21,0,0,1,1.08.54v-.49h1.07v3.5H31.65v-.5a1.24,1.24,0,0,1-1.09.55,1.82,1.82,0,0,1,0-3.6Zm.31.93a.78.78,0,0,0-.76.86.77.77,0,1,0,.76-.86Z"/><path d="M35.92,37.94h1.16l-2.2,5.17H33.73l.8-1.79-1.42-3.38H34.3l.82,2.19Z"/><path d="M39.83,38a1.77,1.77,0,0,1,0,3.53,1.49,1.49,0,0,1-1.37-.8v2.37H38V38h.43v.75A1.46,1.46,0,0,1,39.83,38Zm-.09.38a1.39,1.39,0,0,0,0,2.77,1.39,1.39,0,0,0,0-2.77Z"/><path d="M42.17,37a.32.32,0,0,1,.64,0,.32.32,0,0,1-.64,0Zm.1,1h.44v3.43h-.44Z"/><path d="M45.17,38a1.49,1.49,0,0,1,1.58,1.17h-.47a1,1,0,0,0-1.11-.79,1.4,1.4,0,0,0,0,2.78,1,1,0,0,0,1.11-.8h.47a1.51,1.51,0,0,1-1.58,1.17,1.77,1.77,0,0,1,0-3.53Z"/><path d="M47.56,36.79H48v2.75L49.38,38H50l-1.63,1.71L50,41.44h-.6L48,39.9v1.54h-.44Z"/><path d="M52.06,41.49a1.77,1.77,0,0,1,0-3.53,1.55,1.55,0,0,1,1.62,1.59c0,.12,0,.23,0,.35H50.82a1.2,1.2,0,0,0,1.24,1.22,1.06,1.06,0,0,0,1.1-.77h.47A1.51,1.51,0,0,1,52.06,41.49Zm-1.24-2h2.41A1.12,1.12,0,0,0,52,38.34a1.18,1.18,0,0,0-1.22,1.2Z"/><path d="M54.92,41.44h-.44V38h.44v.61A1.19,1.19,0,0,1,56.1,38v.45H56c-.57,0-1.06.26-1.06,1.12Z"/><path class="cls-2" d="M9.36,40.06a2.7,2.7,0,0,1-1.3-.33,4,4,0,0,1-1-.76,8.48,8.48,0,0,1-1.92-3.45,2.84,2.84,0,0,1-.1-.76v0a1,1,0,0,1,0-.17A1.64,1.64,0,0,1,6,33.18a3.09,3.09,0,0,1,.62-.25,3.5,3.5,0,0,1,.64-.15c.63-.09,1.27-.18,1.9-.25l3-.32,1.07-.09.5,0,.16,0a.23.23,0,0,0,0-.11c.07-.24.13-.47.19-.7.4-1.78.73-3.61,1-5.42.16-1.13.29-2.28.38-3.41,0-.36,0-.72,0-1.08,0-.16,0-.32,0-.48V20.8a.76.76,0,0,1,0-.15.42.42,0,0,1,.12-.3.47.47,0,0,1,.3-.1h0a.38.38,0,0,1,.27.09.41.41,0,0,1,.12.32v1.46c0,.92.07,1.88.15,2.86s.21,2.19.37,3.28.36,2.26.61,3.37l0,.14,0,.1h.73a.55.55,0,0,1,.31.08h0a.26.26,0,0,1,.11.23v0h0a.21.21,0,0,1-.1.16.23.23,0,0,1-.14,0h-.79a2.1,2.1,0,0,0,.06.24h0c.07.33.16.65.25,1s.24.86.38,1.28a9.21,9.21,0,0,0,.48,1.23.84.84,0,0,1,.05.17.26.26,0,0,1-.19.29.71.71,0,0,1-.2,0,.48.48,0,0,1-.42-.27c-.07-.12-.13-.25-.2-.39-.13-.32-.25-.65-.36-1s-.2-.66-.29-1-.15-.58-.23-.87-.1-.41-.15-.61l0-.1h-.1l-1,0-1,.06a.1.1,0,0,0-.09,0,.22.22,0,0,0-.05.11c-.22.81-.47,1.62-.76,2.41-.2.52-.42,1-.65,1.54a11,11,0,0,1-.82,1.46,5.51,5.51,0,0,1-1,1.15A3,3,0,0,1,10,40,2.39,2.39,0,0,1,9.36,40.06Zm4.36-7.38c-.41,0-.82.06-1.22.11l-.24,0-2.72.28c-.67.08-1.35.17-2,.27a3.12,3.12,0,0,0-.86.23,1.12,1.12,0,0,0-.76,1.15,4.09,4.09,0,0,0,.07.6,4.91,4.91,0,0,0,.24.74,7.89,7.89,0,0,0,.33.72,7.23,7.23,0,0,0,1.21,1.79,3.27,3.27,0,0,0,.86.67,1.61,1.61,0,0,0,.77.2h0a1.67,1.67,0,0,0,.79-.21,3,3,0,0,0,.86-.67,7.11,7.11,0,0,0,1-1.39,20,20,0,0,0,1.38-3.35l.33-1.13v0ZM14.8,32h.45l.91,0,.55-.05c-.37-1.79-.66-3.62-.86-5.44,0,.24-.07.48-.11.72-.08.56-.18,1.12-.28,1.68l-.18.94c0,.23-.1.48-.14.72S15,31,15,31.24s-.12.5-.17.75Z"/><path class="cls-2" d="M23.4,32.16a2,2,0,0,0,.61-.33c.25-.18.36-.18.34,0s-.16.32-.41.44a4,4,0,0,1-.69.25.46.46,0,0,0-.15.09.26.26,0,0,0-.11.14,1.72,1.72,0,0,1-.22.61,1.12,1.12,0,0,1-1.25.54.55.55,0,0,1-.41-.31.57.57,0,0,1,.09-.52,1.47,1.47,0,0,1,.62-.48,1.09,1.09,0,0,1,.25-.1l.13,0a.34.34,0,0,0,.16-.31.83.83,0,0,0-.11-.46.59.59,0,0,0-.32-.32.52.52,0,0,0-.5.16,1.51,1.51,0,0,0-.43.6,5.48,5.48,0,0,0-.47,1.47c-.15.9-.25,1.81-.31,2.71,0,.42-.07.84-.13,1.25,0,.17,0,.35-.05.53a1.21,1.21,0,0,1-.05.18c0,.11-.11.16-.25.15s-.21-.07-.22-.19a2.54,2.54,0,0,1,0-.39v-.08c0-.15,0-.31,0-.47s0-.57,0-.85c0-1.14,0-2.29,0-3.45,0-.44,0-.86,0-1.29v-.13a1.29,1.29,0,0,1,0-.44.3.3,0,0,1,.28-.25.27.27,0,0,1,.31.23v0c.05.33.1.75.14,1.28a2.7,2.7,0,0,1,.46-.85,1.59,1.59,0,0,1,.64-.48A1.24,1.24,0,0,1,22,31a1,1,0,0,1,.59.26,1.3,1.3,0,0,1,.37.71c0,.14.07.22.13.25A.57.57,0,0,0,23.4,32.16Zm-1.54,1.4a.84.84,0,0,0,.32-.3.61.61,0,0,0,.12-.33c0-.09,0-.13-.12-.1a.83.83,0,0,0-.43.32.42.42,0,0,0-.08.34C21.69,33.58,21.76,33.6,21.86,33.56Z"/><path class="cls-2" d="M29.85,32.05a3.78,3.78,0,0,1-.56,1,1.8,1.8,0,0,1-1.05.72,1.64,1.64,0,0,1-1.08,0c-.3-.14-.47-.5-.5-1.09a3.32,3.32,0,0,1-1,1.29,1.41,1.41,0,0,1-1,.21,1,1,0,0,1-.78-.44,1.25,1.25,0,0,1-.14-.82,2.82,2.82,0,0,1,.29-.89,2.4,2.4,0,0,1,.46-.59,3,3,0,0,1,.63-.43,1.77,1.77,0,0,1,.82-.19,2,2,0,0,1,.87.27s0,0,0,0a.35.35,0,0,1,0-.11.24.24,0,0,1,.07-.12.7.7,0,0,1,.37-.11.34.34,0,0,1,.32.21,2.53,2.53,0,0,1,0,.69,2.41,2.41,0,0,0,0,1.33.56.56,0,0,0,.6.38c.28,0,.65-.3,1.11-.85S29.94,31.76,29.85,32.05ZM24.8,33.49a.44.44,0,0,0,.54,0,2.87,2.87,0,0,0,.59-.61,6.32,6.32,0,0,0,.47-.79,1.91,1.91,0,0,0,.21-.59,1,1,0,0,0-1-.1A1.45,1.45,0,0,0,25,32a2.42,2.42,0,0,0-.28.89c0,.29,0,.48.11.58Z"/><path class="cls-2" d="M32.75,32.23c.07-.14.11-.2.14-.19s0,.07,0,.17a1.8,1.8,0,0,1-.06.32,3.68,3.68,0,0,1-.23.66,4.38,4.38,0,0,1-.37.67,2,2,0,0,1-.73.64,1.1,1.1,0,0,1-.8.1c-.23-.07-.37-.29-.41-.67a6.07,6.07,0,0,1,.08-1c0-.15.05-.31.07-.46a.17.17,0,0,0,0-.12.12.12,0,0,0-.11,0h-.1a1.56,1.56,0,0,1-.57,0c-.24-.07-.37-.18-.41-.34a1.73,1.73,0,0,1,0-.64.57.57,0,0,1,.21-.42.52.52,0,0,1,.41-.12c.22,0,.33.11.32.25a1.27,1.27,0,0,1-.13.47.82.82,0,0,0-.1.36q0,.13.24.09l.12,0a.83.83,0,0,1,.21-.06,1.08,1.08,0,0,1,.31,0,.32.32,0,0,1,.3.21,1.2,1.2,0,0,1,.06.49,6,6,0,0,1-.05.61,3.68,3.68,0,0,0-.06.66c0,.18.05.29.16.32s.35-.09.63-.38A5.58,5.58,0,0,0,32.75,32.23Z"/><path class="cls-2" d="M36.38,32.22c.19-.18.27-.23.25-.14a1.86,1.86,0,0,1-.32.49,8.21,8.21,0,0,1-.67.77,5.45,5.45,0,0,1-.86.73,1.7,1.7,0,0,1-.86.32,1.06,1.06,0,0,1-.79-.29,1.69,1.69,0,0,1-.43-.78,3.35,3.35,0,0,1-.11-1c0-.42,0-.84,0-1.26,0-.21,0-.42,0-.62s0-.68,0-1a.4.4,0,0,0,0-.26.26.26,0,0,0-.22-.12h-.85a.51.51,0,0,1-.32-.12q-.08-.11.12-.21a1.12,1.12,0,0,1,.35-.06h.62a.49.49,0,0,0,.37-.1.86.86,0,0,0,.08-.38l0-.59c0-.11,0-.22,0-.32a.75.75,0,0,1,.13-.43.31.31,0,0,1,.34-.13.24.24,0,0,1,.2.22c0,.2,0,.4,0,.6a1.93,1.93,0,0,1,0,.34c0,.12,0,.24,0,.37s0,.29.06.34a.57.57,0,0,0,.36.07h.91l1.22,0c.68,0,1,0,1.09.16s-.37.21-1.28.23c-.55,0-1,.05-1.28.05l-.54,0c-.27,0-.43.05-.5.15a1.09,1.09,0,0,0-.08.57c0,.24,0,.53,0,.87,0,.71-.07,1.43-.07,2.17a1.42,1.42,0,0,0,.28,1,.6.6,0,0,0,.64.09,3.23,3.23,0,0,0,.85-.5c.3-.25.61-.5.91-.78a1.36,1.36,0,0,1,.24-.24Z"/><path class="cls-2" d="M42.6,32.79h0l.22-.2a3.47,3.47,0,0,1,.37-.3.68.68,0,0,1,.27-.15c.06,0,0,.08,0,.26l-.06.08-.07.1,0,0A9.71,9.71,0,0,1,42,33.76a1.4,1.4,0,0,1-.89.31.69.69,0,0,1-.6-.35,1.54,1.54,0,0,1-.16-.75,6.84,6.84,0,0,1,.08-.89,4.2,4.2,0,0,0,0-.79c0-.22-.08-.35-.22-.39s-.28.1-.41.33a6.71,6.71,0,0,0-.41.8c-.12.31-.23.58-.31.81l-.1.27a.47.47,0,0,1-.26.24.5.5,0,0,1-.36,0,.3.3,0,0,1-.14-.19,3.5,3.5,0,0,1,0-.56,2.28,2.28,0,0,0,0-.37v-.3a.88.88,0,0,0,0-.16.07.07,0,0,0-.07-.06c-.06,0-.13.06-.22.2a5.12,5.12,0,0,0-.25.53c-.09.2-.16.39-.23.55s-.1.24-.13.29a.15.15,0,0,1,0,.07l-.2.41a.38.38,0,0,1-.3.2.34.34,0,0,1-.45-.34l-.06-2.1c0-.18.12-.24.34-.19a.43.43,0,0,1,.38.35c0,.3.05.44.1.45s.14-.13.28-.39l.24-.39a1.53,1.53,0,0,1,.39-.45.59.59,0,0,1,.5-.1.62.62,0,0,1,.37.36c0,.08.08.13.12.14a.15.15,0,0,0,.11-.05.91.91,0,0,0,.11-.16.78.78,0,0,1,.1-.15,1.72,1.72,0,0,1,.76-.49,1.18,1.18,0,0,1,.79,0,.71.71,0,0,1,.41.65,5.47,5.47,0,0,1-.08,1.21q0,.3-.06.57,0,.57.21.63a.7.7,0,0,0,.56-.18A6.44,6.44,0,0,0,42.6,32.79Z"/><path class="cls-2" d="M48.3,31.71c-.36.46-.67.84-.94,1.14a3.58,3.58,0,0,1-1.13.87,6,6,0,0,1-.93.32,2.65,2.65,0,0,1-1,.05,1.63,1.63,0,0,1-.87-.43,1.48,1.48,0,0,1-.5-1.35,2,2,0,0,1,.5-1.08,2,2,0,0,1,1-.6,2.6,2.6,0,0,1,1,0,1.12,1.12,0,0,1,.43.16.45.45,0,0,1,.2.32.47.47,0,0,1-.14.36,1.44,1.44,0,0,1-.76.35c-.32.05-.65.08-1,.1A.41.41,0,0,0,44,32a.46.46,0,0,0-.12.33,1.11,1.11,0,0,0,.42,1,1,1,0,0,0,.72.2,3.16,3.16,0,0,0,.93-.23A3.61,3.61,0,0,0,47,32.5a10.09,10.09,0,0,0,.89-1c.18-.25.3-.42.34-.49a.54.54,0,0,1,.14-.16.53.53,0,0,1,.25,0,.39.39,0,0,1,.21.06.3.3,0,0,1,.12.25c0,.05,0,.12,0,.22a2.11,2.11,0,0,1,0,.26,1.06,1.06,0,0,0,0,.23s.05,0,.1,0a1.85,1.85,0,0,0,.24-.31,2.94,2.94,0,0,1,.72-.77A1.28,1.28,0,0,1,51,30.5a.61.61,0,0,1,.54.43,1.32,1.32,0,0,1,.06.39c0,.13,0,.27,0,.4s0,.28,0,.42l0,.13a2.35,2.35,0,0,0,0,1,.26.26,0,0,0,.35.16,1.89,1.89,0,0,0,.63-.71,8,8,0,0,0,.46-.8c.05-.11.09-.1.12,0a1.76,1.76,0,0,1-.25.83,2.64,2.64,0,0,1-.74,1,1,1,0,0,1-.83.26.76.76,0,0,1-.54-.53,2.51,2.51,0,0,1-.1-1.1s0,0,0-.06,0-.19,0-.33,0-.3,0-.46a1.28,1.28,0,0,0,0-.39c0-.1-.06-.14-.14-.11a1.69,1.69,0,0,0-.53.58,8.63,8.63,0,0,0-.46.91,5.57,5.57,0,0,0-.3.77,1.07,1.07,0,0,0-.07.19c0,.09-.06.18-.1.27a.41.41,0,0,1-.52.3.29.29,0,0,1-.24-.25c0-.11,0-.21,0-.31a1,1,0,0,0,0-.17Zm-3.89-.42s0,0,0,0h0s0,0,0,.05a.17.17,0,0,0-.06.06l0,0s.07,0,.18,0l.39-.07a1.35,1.35,0,0,0,.34-.11q.13-.08.09-.18l-.06-.06-.09,0a1,1,0,0,0-.37.08A2.79,2.79,0,0,0,44.41,31.29Z"/><path class="cls-2" d="M56.55,32.22c.19-.18.27-.23.25-.14a2.19,2.19,0,0,1-.32.49,8.21,8.21,0,0,1-.67.77,5.45,5.45,0,0,1-.86.73,1.7,1.7,0,0,1-.86.32,1.06,1.06,0,0,1-.79-.29,1.69,1.69,0,0,1-.43-.78,3.35,3.35,0,0,1-.11-1c0-.42,0-.84.05-1.26,0-.21,0-.42,0-.62s0-.68,0-1a.4.4,0,0,0,0-.26.26.26,0,0,0-.22-.12h-.86a.5.5,0,0,1-.31-.12q-.08-.11.12-.21a1,1,0,0,1,.35-.06h.61c.2,0,.33,0,.37-.1a.74.74,0,0,0,.08-.38c0-.19,0-.39,0-.59s0-.22,0-.32a.82.82,0,0,1,.12-.43.31.31,0,0,1,.34-.13.25.25,0,0,1,.21.22c0,.2,0,.4,0,.6a1.93,1.93,0,0,1,0,.34c0,.12,0,.24,0,.37s0,.3.06.34a.57.57,0,0,0,.36.07H55l1.22,0c.67,0,1,0,1.09.16s-.38.21-1.28.23c-.55,0-1,.05-1.28.05l-.54,0c-.27,0-.44.05-.5.15a1.06,1.06,0,0,0-.09.57c0,.24,0,.53,0,.88,0,.7-.07,1.42-.07,2.16a1.46,1.46,0,0,0,.27,1,.62.62,0,0,0,.65.09,3.39,3.39,0,0,0,.85-.5c.3-.24.6-.5.91-.78a1.75,1.75,0,0,1,.23-.24Z"/><path class="cls-2" d="M59.6,31.89c0,.07-.17.21-.5.41l-.73.45c-.16.1-.24.17-.24.19a1.46,1.46,0,0,1,.1.34,2.37,2.37,0,0,1,0,.53.89.89,0,0,1-.18.5.79.79,0,0,1-.57.26,1.25,1.25,0,0,1-.7-.11.7.7,0,0,1-.39-.44.84.84,0,0,1,.19-.68,1.91,1.91,0,0,1,.43-.37l.18-.12c-.2-.22-.39-.44-.58-.67a2.1,2.1,0,0,1-.35-.62.73.73,0,0,1,.11-.59.83.83,0,0,1,.65-.32,1.19,1.19,0,0,1,.42,0,.82.82,0,0,1,.37.19.35.35,0,0,1,0,.08.17.17,0,0,1,0,.12.21.21,0,0,1-.17.1.41.41,0,0,1-.16,0l-.15-.06L57.32,31a.21.21,0,0,0-.23,0,.29.29,0,0,0-.07.22,1,1,0,0,0,.21.56,6.33,6.33,0,0,0,.41.54l.13.17s.14,0,.3,0A6.39,6.39,0,0,0,59,32.1C59.38,31.88,59.6,31.81,59.6,31.89Zm-2.29,2.3A.2.2,0,0,0,57.5,34a1,1,0,0,0,0-.34,1.7,1.7,0,0,0,0-.28.12.12,0,0,0-.15-.07h0a.84.84,0,0,0-.25.34.38.38,0,0,0,0,.36.39.39,0,0,0,.08.1.26.26,0,0,0,.12,0Z"/></svg>