<svg id="Layer_1" data-name="Layer 1" xmlns="http://www.w3.org/2000/svg" viewBox="0 0 1454 542.42"><defs><style>.cls-1{fill:#27bdbe;}.cls-2{fill:#316d79;}</style></defs><path class="cls-1" d="M60.53,153.74V305.28H0V165.86C0,98.21,34.05,64.57,101.77,64.57c30.49,0,53.81,6.72,70.85,20.19,17-13,40.33-19.28,70.81-19.28,67.69,0,101.33,33.61,100.89,101.3V306.2H313.39c-19.72-1.33-29.6-10.8-29.6-29.6V154.66C282.44,130,269,117.9,242.55,117.9S202.66,130,202.19,154.66V305.28H142.1V153.74C140.74,129.1,127.3,117,100.86,117S61,129.1,60.53,153.74Z"/><path class="cls-2" d="M970.43,310.68c-71.73-2.24-107.61-43.93-107.61-124.62S899.14,65,971.31,64.57c75.33,0,110.74,46.16,106.26,139H924.23c2.27,36.33,18,54.69,47.08,54.69,13.89,0,26.92-5.8,38.53-17,5.4-5.84,12.16-8.52,20.2-8.52H1074C1061,282.88,1028.72,310.68,970.43,310.68ZM925.15,160.94h89.21c-3.57-31.37-18.4-47.52-43.93-47.52S929.63,129.57,925.15,160.94Z"/><path class="cls-2" d="M1277.07,305.28c-19.72-1.36-29.57-10.76-29.57-29.6V153.74c-1.35-24.64-14.8-36.76-41.24-36.76s-39.92,12.08-40.36,36.76V305.28h-60.53V165.86c0-67.69,34.05-101.29,101.77-101.29S1308,98.17,1307.55,165.86V305.28Z"/><path class="cls-2" d="M1424.4,110.29h-20.71V241.67c0,9.87,5.84,15.24,17.48,15.24H1454v45.28c-19.28,1.8-54.76,1.8-77.19-.47s-33.2-16.13-32.73-42.57V0H1375c15.68,0,28.68,14.36,28.68,30V67.72H1454v13C1454,97.73,1441,110.29,1424.4,110.29Z"/><path class="cls-1" d="M560.83,110.05c-17.38-26.41-44.1-45.14-89.18-45.52-55.5-.44-96,31.61-102.41,78.22-5,36.42,9.26,80.62,28.92,111.75,32,50.82,30.76,59.71,29.19,82.86-4.17,62-70.61,98.17-70.61,98.17,60.4-9.64,96.65-48.17,113.39-66.23,66.36-71.49,91.82-132.66,101-171.8C578.38,166.47,576.48,133.82,560.83,110.05ZM474.54,281.52l-5.19,4-4.93-4.31c-29.6-25.8-62.63-80.21-62.53-114.4C402,126.62,430.44,98.58,471,98.58c42,0,69.19,29.64,69.19,75.46C540.19,200.45,511.51,253.14,474.54,281.52Z"/><path class="cls-2" d="M471.21,98.58c-40.6,0-69,28.07-69.18,68.23a72.14,72.14,0,0,0,1.56,14.26,66.16,66.16,0,0,1-1.26-12.19c.11-37.54,25.7-62.32,63.25-62.32,39.71,0,64.6,27.8,63.27,69.76-.84,27.36-27.9,76.34-64.63,104.55.1.11.24.21.34.31l6.08,6.31,5.19-4c37-28.38,66.43-77.43,68.44-108.53C547.25,128.45,513.24,98.58,471.21,98.58Z"/><path class="cls-1" d="M498,178.46a28.74,28.74,0,1,1-19.49-35.68A28.74,28.74,0,0,1,498,178.46Z"/><path class="cls-2" d="M612.7,36.22c0-22.47,13.41-32.72,39-32.72h78.45c66.23,0,102.93,44.94,102.93,91.86,0,30-14.6,60.32-46.54,80.82l34.86,68.1c11.34,25.12,24.75,46.23,34.69,66.37h-53c-13,0-21.83-15-21.83-15L729,192.34H675.77V310.65h-63.1V36.22ZM675.81,66.6v63.08H733c22.07,0,35.48-17.76,35.48-34.29,0-14.6-10.66-28.79-35.48-28.79Z"/><path class="cls-1" d="M57.38,540.93H47.84l-13.4-31.45H13.63v31.45H5.11V468.29H33.75q11.66,0,17.27,6.36a20.61,20.61,0,0,1,5.61,13.91,21.54,21.54,0,0,1-3.14,11.13Q50.36,505,43.11,507.3ZM13.63,502.08h19q7.5,0,11.2-4a13.72,13.72,0,0,0,3.7-9.72,10.89,10.89,0,0,0-3.91-8.94,15.1,15.1,0,0,0-9.87-3.19H13.63Z"/><path class="cls-1" d="M118.9,533v8h-47V468.29h46v8H81v23.1h29.27v7.4H81V533Z"/><path class="cls-1" d="M185.11,540.93h-8.83L138.7,477.6l.11,4.79c.11,1.81.16,3.34.16,4.58v54h-7.35V468.29H143l35.13,59.2-.11-5c-.07-2-.1-3.74-.1-5.27V468.29h7.18Z"/><path class="cls-1" d="M225.19,540.93h-9.1V476.27H195.28v-8h50.77v8H225.19Z"/><path class="cls-1" d="M298.54,540.93h-9.29l-7.31-21.23H255l-6.5,21.23h-7.61l23.6-72.64h10.3Zm-18.53-28L268.75,478l-11.24,34.92Z"/><path class="cls-1" d="M350.9,533v8H308V468.29h9.32V533Z"/><path class="cls-1" d="M458.78,540.93H450V477.49l-23.58,63.44h-6.18l-23.84-63.44v63.44h-7.71V468.29h13.47l21.95,58.1,21.42-58.1h13.3Z"/><path class="cls-1" d="M525.86,540.93h-9.3l-7.3-21.23h-27l-6.5,21.23h-7.61l23.61-72.64h10.29Zm-18.54-28L496.07,478l-11.24,34.92Z"/><path class="cls-1" d="M588.81,540.93H580L542.4,477.6l.1,4.79c.11,1.81.16,3.34.16,4.58v54h-7.34V468.29h11.39l35.13,59.2-.11-5c-.07-2-.11-3.74-.11-5.27V468.29h7.19Z"/><path class="cls-1" d="M655.88,540.93h-9.29l-7.31-21.23h-27l-6.5,21.23h-7.61l23.61-72.64h10.3Zm-18.54-28L626.09,478l-11.24,34.92Z"/><path class="cls-1" d="M716.33,504.32V542h-5.56l-2.51-9.11q-6.71,9.58-20,9.58-14.38,0-22.37-10.81t-8-26.25q0-16.51,8.47-27.54t23-11q20.05,0,26.18,21.07L707,490q-1.86-8.1-7-11.77a18.8,18.8,0,0,0-11.18-3.67q-10.75,0-15.86,8.68T667.84,505q0,14.12,5.72,22.08a18.19,18.19,0,0,0,15.57,8,17.43,17.43,0,0,0,12.8-5.1q5.15-5.08,5.14-14c0-1.11,0-2.42-.11-3.95H689v-7.61Z"/><path class="cls-1" d="M780,533v8H733V468.29h46v8H742.14v23.1h29.27v7.4H742.14V533Z"/><path class="cls-1" d="M862.9,540.93h-8.83V477.49l-23.58,63.44h-6.18l-23.84-63.44v63.44h-7.71V468.29h13.47l21.95,58.1,21.42-58.1h13.3Z"/><path class="cls-1" d="M928.05,533v8h-47V468.29h46v8H890.15v23.1h29.28v7.4H890.15V533Z"/><path class="cls-1" d="M994.26,540.93h-8.84L947.85,477.6l.1,4.79c.11,1.81.16,3.34.16,4.58v54h-7.34V468.29h11.39l35.13,59.2-.11-5c-.07-2-.11-3.74-.11-5.27V468.29h7.19Z"/><path class="cls-1" d="M1034.33,540.93h-9.1V476.27h-20.81v-8h50.78v8h-20.87Z"/><path class="cls-1" d="M1084.58,521.72l8.19-1.86q4.95,14.85,21.45,14.85,8.63,0,13-3.66a12.14,12.14,0,0,0,4.36-9.8,9.36,9.36,0,0,0-3.32-7.48,18.42,18.42,0,0,0-7.69-3.9L1106,506.29a37.43,37.43,0,0,1-9.23-3.49,16.87,16.87,0,0,1-6.09-6.32,18.87,18.87,0,0,1-2.51-9.75,17.51,17.51,0,0,1,6.87-14.52q6.87-5.41,17.62-5.41,19.8,0,26,17.93l-8.25,2.45a14.57,14.57,0,0,0-6.76-9.66,21.25,21.25,0,0,0-11.33-3.27,18.49,18.49,0,0,0-10.62,3.15,10.15,10.15,0,0,0-4.66,8.93q0,8.07,11.81,10.91l13.58,3.18q18.63,4.49,18.63,20.07a20.17,20.17,0,0,1-7,15.68q-7,6.26-19.72,6.25Q1091.82,542.42,1084.58,521.72Z"/><path class="cls-1" d="M1199.48,468.29l-24.32,42.09v30.55h-9.1V510.38l-24.32-42.09h10.76l19.28,33.37,19.4-33.37Z"/><path class="cls-1" d="M1198.31,521.72l8.2-1.86q5,14.85,21.45,14.85,8.63,0,13-3.66a12.15,12.15,0,0,0,4.37-9.8,9.34,9.34,0,0,0-3.33-7.48,18.32,18.32,0,0,0-7.68-3.9l-14.54-3.58a37.28,37.28,0,0,1-9.23-3.49,16.89,16.89,0,0,1-6.1-6.32,19,19,0,0,1-2.5-9.75,17.51,17.51,0,0,1,6.87-14.52q6.87-5.41,17.61-5.41,19.8,0,26,17.93l-8.25,2.45a14.6,14.6,0,0,0-6.76-9.66,21.3,21.3,0,0,0-11.33-3.27,18.49,18.49,0,0,0-10.62,3.15,10.15,10.15,0,0,0-4.66,8.93q0,8.07,11.8,10.91l13.59,3.18q18.63,4.49,18.63,20.07a20.17,20.17,0,0,1-7,15.68q-7,6.26-19.72,6.25Q1205.55,542.42,1198.31,521.72Z"/><path class="cls-1" d="M1288.1,540.93H1279V476.27h-20.81v-8H1309v8H1288.1Z"/><path class="cls-1" d="M1366.07,533v8h-47V468.29h46v8h-36.88v23.1h29.27v7.4h-29.27V533Z"/><path class="cls-1" d="M1448.94,540.93h-8.84V477.49l-23.58,63.44h-6.17l-23.84-63.44v63.44h-7.72V468.29h13.47l22,58.1,21.43-58.1h13.3Z"/></svg>