<svg id="Layer_1" data-name="Layer 1" xmlns="http://www.w3.org/2000/svg" viewBox="0 0 42.42 42.42"><defs><style>.cls-1{fill:#1ebab9;}.cls-2{fill:#fff;}</style></defs><polygon class="cls-1" points="35.51 37.04 31.26 36.63 29.92 40.68 26 38.98 23.47 42.42 20.28 39.59 16.81 42.08 14.64 38.41 10.57 39.7 9.65 35.53 5.38 35.51 5.79 31.26 1.74 29.92 3.44 26 0 23.47 2.83 20.28 0.34 16.81 4.02 14.64 2.72 10.57 6.89 9.65 6.91 5.38 11.16 5.79 12.5 1.74 16.42 3.44 18.95 0 22.14 2.83 25.61 0.34 27.78 4.02 31.85 2.72 32.77 6.89 37.04 6.91 36.63 11.16 40.68 12.5 38.98 16.42 42.42 18.95 39.59 22.14 42.08 25.61 38.41 27.78 39.7 31.85 35.53 32.77 35.51 37.04"/><path class="cls-2" d="M10.67,28.17H8.73V16.4l-2,1.21v-2l2-1.32h1.94Z"/><path class="cls-2" d="M14.83,27.27a4,4,0,0,1-1-2.9V18.05a4,4,0,0,1,1-2.91,3.94,3.94,0,0,1,2.95-1,4,4,0,0,1,3,1,4,4,0,0,1,1,2.91v6.32a4,4,0,0,1-1,2.91,3.94,3.94,0,0,1-2.95,1A3.93,3.93,0,0,1,14.83,27.27Zm4.48-1.35a2.22,2.22,0,0,0,.5-1.55V18.05a2.27,2.27,0,0,0-.49-1.55A2,2,0,0,0,17.79,16a2,2,0,0,0-1.53.54,2.27,2.27,0,0,0-.48,1.55v6.32a2.22,2.22,0,0,0,.49,1.55,2,2,0,0,0,1.52.54A1.94,1.94,0,0,0,19.31,25.92Z"/><path class="cls-2" d="M24.75,19.59a2.5,2.5,0,0,1-.61-1.8v-1.2a2.5,2.5,0,0,1,.61-1.8,2.22,2.22,0,0,1,1.71-.64,2.21,2.21,0,0,1,1.7.64,2.54,2.54,0,0,1,.61,1.82v1.18a2.55,2.55,0,0,1-.61,1.8,2.21,2.21,0,0,1-1.7.64A2.22,2.22,0,0,1,24.75,19.59Zm8-5.31h1.71L26.93,28.17H25.22ZM27,18.5a.9.9,0,0,0,.19-.62v-1.4a.81.81,0,0,0-.19-.59.64.64,0,0,0-.52-.21.67.67,0,0,0-.54.21.88.88,0,0,0-.18.6v1.39a.92.92,0,0,0,.18.62.7.7,0,0,0,.54.21A.67.67,0,0,0,27,18.5Zm4.67,9.17a2.54,2.54,0,0,1-.6-1.8v-1.2a2.54,2.54,0,0,1,.6-1.8,2.6,2.6,0,0,1,3.42,0,2.58,2.58,0,0,1,.6,1.82v1.18a2.53,2.53,0,0,1-.6,1.8,2.25,2.25,0,0,1-1.71.64A2.22,2.22,0,0,1,31.65,27.67Zm2.24-1.09a.94.94,0,0,0,.19-.62v-1.4a.87.87,0,0,0-.19-.59.69.69,0,0,0-.53-.21.68.68,0,0,0-.53.21.9.9,0,0,0-.18.6V26a.92.92,0,0,0,.18.62.68.68,0,0,0,.53.21A.69.69,0,0,0,33.89,26.58Z"/></svg>