<svg width="42.42" height="42.42" xmlns="http://www.w3.org/2000/svg" data-name="Layer 1">

 <g>
  <title>Layer 1</title>
  <polygon id="svg_1" fill="#1ebab9" points="35.51 37.04 31.26 36.63 29.92 40.68 26 38.98 23.47 42.42 20.28 39.59 16.81 42.08 14.64 38.41 10.57 39.7 9.65 35.53 5.38 35.51 5.79 31.26 1.74 29.92 3.44 26 0 23.47 2.83 20.28 0.34 16.81 4.02 14.64 2.72 10.57 6.89 9.65 6.91 5.38 11.16 5.79 12.5 1.74 16.42 3.44 18.95 0 22.14 2.83 25.61 0.34 27.78 4.02 31.85 2.72 32.77 6.89 37.04 6.91 36.63 11.16 40.68 12.5 38.98 16.42 42.42 18.95 39.59 22.14 42.08 25.61 38.41 27.78 39.7 31.85 35.53 32.77 35.51 37.04" class="cls-1"/>
 </g>
</svg>