<svg id="Layer_1" data-name="Layer 1" xmlns="http://www.w3.org/2000/svg" viewBox="0 0 1597.68 1831.87"><defs><style>.cls-1,.cls-5{fill:#9cbe43;}.cls-2{fill:#888f94;}.cls-3{fill:#c5c5c9;}.cls-4{fill:#fbfbfb;}.cls-5{font-size:573.91px;font-family:Roboto-Bold, Roboto;font-weight:700;}.cls-6{fill:#fff;}</style></defs><path d="M335.72,1705.72l-.17.08-.08,0h0Z"/><path class="cls-1" d="M1485.22,949.71c-1.12,37-2.46,73.64-4,109.42-8.13,183.45-192.65,345.75-346,449.59-162.05,109.72-324.39,179-335.75,183.81l-.35.15-1.12-.47c-16.45-7-175.86-75.75-335-183.49-153.37-103.84-337.89-266.14-346-449.59-1.59-35.78-2.92-72.43-4-109.42Z"/><path class="cls-1" d="M335.72,1705.72l-.17.08-.08,0h0Z"/><path class="cls-2" d="M798.17,1691.71l-.23.5,1.12.47.35-.15Zm0,0-.23.5,1.12.47.35-.15Zm0,0-.23.5,1.12.47.35-.15Zm0,0-.23.5,1.12.47.35-.15Zm0,0-.23.5,1.12.47.35-.15Zm8.3,14.11h0l.08,0,.17-.08Zm0,0h0l.08,0,.17-.08Zm-8.3-14.11-.23.5,1.12.47.35-.15Zm0,0-.23.5,1.12.47.35-.15Zm8.3,14.11h0l.08,0,.17-.08Zm0,0h0l.08,0,.17-.08Zm-8.3-14.11-.23.5,1.12.47.35-.15Zm0,0-.23.5,1.12.47.35-.15Zm8.3,14.11h0l.08,0,.17-.08Zm0,0h0l.08,0,.17-.08Zm-8.3-14.11-.23.5,1.12.47.35-.15Zm0,0-.23.5,1.12.47.35-.15Zm8.3,14.11h0l.08,0,.17-.08Zm0,0h0l.08,0,.17-.08Zm-8.3-14.11-.23.5,1.12.47.35-.15Zm8.3,14.11h0l.08,0,.17-.08Zm-8.3-14.11-.23.5,1.12.47.35-.15Zm0,0-.23.5,1.12.47.35-.15Zm8.3,14.11h0l.08,0,.17-.08Zm0,0h0l.08,0,.17-.08Zm-8.3-14.11-.23.5,1.12.47.35-.15Zm0,0-.23.5,1.12.47.35-.15Zm8.3,14.11h0l.08,0,.17-.08Zm0,0h0l.08,0,.17-.08Zm-8.3-14.11-.23.5,1.12.47.35-.15Zm0,0-.23.5,1.12.47.35-.15Zm8.3,14.11h0l.08,0,.17-.08Zm0,0h0l.08,0,.17-.08Zm-8.3-14.11-.23.5,1.12.47.35-.15Zm0,0-.23.5,1.12.47.35-.15Zm8.3,14.11h0l.08,0,.17-.08Zm0,0h0l.08,0,.17-.08Zm-8.3-14.11-.23.5,1.12.47.35-.15Zm0,0-.23.5,1.12.47.35-.15Zm0,0-.23.5,1.12.47.35-.15Zm0,0-.23.5,1.12.47.35-.15Zm0,0-.23.5,1.12.47.35-.15Z"/><path class="cls-2" d="M801.17,2.24h0l.94.53Zm-5.46.56,1-.56h0Z"/><path class="cls-3" d="M1595.67,1007.09V150.71l.65-44.11-9.8,2.92c-1,.3-100.08,29.43-245.64,30.79-3.38,0-6.78,0-10.24,0-134.06,0-331.2-24.47-527.74-137.11l-.76-.44,0,0-.94-.53L798.93,1,796.7,2.24l-1,.56-.77.44q-3.87,2.22-7.75,4.4l-.4.22C592.94,116.56,399.41,140.35,267.2,140.35c-3.45,0-6.87,0-10.24,0C111.4,139,12.3,109.82,11.32,109.52l-9.8-2.92.65,44.11v856.38c-.72,4.74-4.44,33.14,1.42,78.83C9.36,1130.91,26,1202,72.5,1285.35,124.56,1378.65,202.75,1468,304.89,1551c125,101.51,286.43,193.72,480,274.14l3.78,1.57,8.5,3.5,1.74.71,1.72-.71,8.51-3.5,2.85-1.18C1006,1745,1167.77,1652.68,1293,1551c102.14-83,180.33-172.35,232.39-265.65,46.5-83.31,63.14-154.44,68.91-199.43C1600.11,1040.23,1596.39,1011.83,1595.67,1007.09ZM806.55,1705.8l-.08,0h0l.25-.1Zm678.67-756.09c-1.12,37-2.46,73.64-4,109.42-8.13,183.45-192.65,345.75-346,449.59-162.05,109.72-324.39,179-335.75,183.81l-.35.15-1.12-.47c-16.45-7-175.86-75.75-335-183.49-153.37-103.84-337.89-266.14-346-449.59-1.59-35.78-2.92-72.43-4-109.42-9.23-303.36-4.12-629.42-3.11-686.27,24.92,3.78,101.33,13.3,206.37,7.34a1230.65,1230.65,0,0,0,224-33.6,1189.81,1189.81,0,0,0,258.92-96.62A1189.29,1189.29,0,0,0,1058,237.18a1230.42,1230.42,0,0,0,224,33.6c105.06,6,181.46-3.56,206.37-7.34C1489.34,320.29,1494.45,646.33,1485.22,949.71Z"/><path class="cls-4" d="M1485.22,949.71H112.89c-9.23-303.36-4.12-629.42-3.11-686.27,24.92,3.78,101.33,13.3,206.37,7.34a1230.65,1230.65,0,0,0,224-33.6,1189.81,1189.81,0,0,0,258.92-96.62A1189.29,1189.29,0,0,0,1058,237.18a1230.42,1230.42,0,0,0,224,33.6c105.06,6,181.46-3.56,206.37-7.34C1489.34,320.29,1494.45,646.33,1485.22,949.71Z"/><text class="cls-5" transform="translate(290.78 792.15)">SSL</text><path class="cls-6" d="M946.55,1223.75v-50a144,144,0,0,0-288,0v50h-5.13a40.87,40.87,0,0,0-40.87,40.87v208.26a40.87,40.87,0,0,0,40.87,40.87H944.68a40.87,40.87,0,0,0,40.87-40.87V1264.58A40.88,40.88,0,0,0,946.55,1223.75Zm-226-50a82,82,0,0,1,164,0v50h-164Z"/><path class="cls-1" d="M838.55,1348.71a37,37,0,0,1-19.5,32.6v52.9a17.5,17.5,0,0,1-35,0v-52.9a37,37,0,1,1,54.5-32.6Z"/></svg>