<svg id="Layer_1" data-name="Layer 1" xmlns="http://www.w3.org/2000/svg" xmlns:xlink="http://www.w3.org/1999/xlink" viewBox="0 0 89.03 52.9"><defs><style>.cls-1{fill:none;}.cls-2{clip-path:url(#clip-path);}.cls-3{fill:#246ea9;}.cls-4{clip-path:url(#clip-path-2);}.cls-5{fill:#fffffe;}.cls-6{clip-path:url(#clip-path-3);}</style><clipPath id="clip-path"><rect class="cls-1" x="13.11" y="6.82" width="62.82" height="39.26" rx="2.94"/></clipPath><clipPath id="clip-path-2"><path class="cls-1" d="M75.24,31H72.1a1,1,0,0,0-.69.14.62.62,0,0,0,.15,1.08,2.38,2.38,0,0,0,.63.1h.94a2.93,2.93,0,0,1,2,.59.69.69,0,0,1,.15.2V31Zm0,4.76a2.68,2.68,0,0,1-2.36.93H69.54V35.14h3.34a.88.88,0,0,0,.69-.2.64.64,0,0,0,.2-.49.74.74,0,0,0-.2-.49,1,1,0,0,0-.59-.15c-1.62-.05-3.63,0-3.63-2.25A2.17,2.17,0,0,1,71.8,29.4h3.44V28H72.05a3.68,3.68,0,0,0-2.16.59V28H65.18a3.42,3.42,0,0,0-2.06.59V28H54.67v.59a4.44,4.44,0,0,0-2.3-.59h-5.6v.59A4.14,4.14,0,0,0,44.32,28H38.14l-1.43,1.62-1.32-1.52H26.06V38.13h9.13l1.47-1.57L38,38.13h5.64V35.78h.54a5.89,5.89,0,0,0,2.41-.35v2.7h4.66v-2.6h.24c.3,0,.3,0,.3.3v2.3H65.91a4.24,4.24,0,0,0,2.36-.64v.64h4.46a7.08,7.08,0,0,0,2.56-.44V35.78Zm-6.92-2.9a2,2,0,0,1,.54,1.52c0,1.57-1,2.26-2.7,2.26H62.77V35.14h3.34a.89.89,0,0,0,.69-.2.68.68,0,0,0,.19-.49A.78.78,0,0,0,66.8,34a1,1,0,0,0-.64-.15c-1.62-.05-3.63,0-3.63-2.25A2.14,2.14,0,0,1,65,29.4h3.44v1.52H65.28c-.35,0-.54,0-.69.14a.54.54,0,0,0-.25.54.52.52,0,0,0,.4.54,2.45,2.45,0,0,0,.68.1h.93A3.1,3.1,0,0,1,68.32,32.88Zm-15.56-.44a1.54,1.54,0,0,1-.83.15H49.82V31h2.11a1.57,1.57,0,0,1,.83.14.62.62,0,0,1,.34.64A.65.65,0,0,1,52.76,32.44Zm1.08.88a1.87,1.87,0,0,1,.83.59,2,2,0,0,1,.3,1.33v1.42H53.25v-.88c0-.45,0-1.08-.29-1.43A1.77,1.77,0,0,0,51.68,34H49.82v2.65H48.1V29.49h4a4.11,4.11,0,0,1,2.06.35A1.72,1.72,0,0,1,55,31.46,1.9,1.9,0,0,1,53.84,33.32ZM56,29.49h5.74V31h-4v1.32h3.92v1.47H57.72v1.43h4v1.52H56ZM44.37,32.83H42.11V31h2.26c.64,0,1,.24,1,.88S45,32.83,44.37,32.83Zm-4,3.24-2.65-2.94,2.65-2.85Zm-6.82-.88H29.35V33.76h3.78V32.29H29.35V31h4.32l1.87,2.11Zm13.69-3.34c0,2-1.47,2.4-3,2.4H42.11v2.41H38.77l-2.11-2.41-2.2,2.41H27.63V29.49h6.92l2.11,2.36,2.21-2.36h5.5C45.74,29.49,47.26,29.89,47.26,31.85Z"/></clipPath><clipPath id="clip-path-3"><path class="cls-1" d="M19.39,21.15l-1.18-2.89L17,21.15ZM45.4,20a1.56,1.56,0,0,1-.83.15H42.45V18.55h2.12a1.48,1.48,0,0,1,.83.15.63.63,0,0,1,.34.64A.72.72,0,0,1,45.4,20Zm15,1.13-1.18-2.89L58,21.15ZM32.49,24.29H30.73V18.65l-2.51,5.64H26.7l-2.5-5.64v5.64H20.71L20,22.67H16.44l-.68,1.62H13.89L17,17.08h2.56l2.94,6.82V17.08h2.8L27.54,22l2.06-4.91h2.84v7.21Zm7,0H33.77V17.08h5.74V18.6h-4v1.28h3.92v1.47H35.49v1.42h4ZM47.66,19a2,2,0,0,1-1.23,1.92,1.86,1.86,0,0,1,.83.58,2,2,0,0,1,.3,1.33v1.42H45.84v-.93c0-.44,0-1.08-.29-1.42s-.64-.3-1.28-.3H42.41v2.6H40.69V17.08h4a4.59,4.59,0,0,1,2.11.34A1.66,1.66,0,0,1,47.66,19Zm1,5.3h1.77V17.08H48.64Zm22.18,0H68.37l-3.29-5.4v5.4H61.55l-.69-1.62H57.32l-.63,1.62h-2a3.72,3.72,0,0,1-2.5-.78,3.72,3.72,0,0,1-.93-2.75,3.78,3.78,0,0,1,.93-2.8,3.4,3.4,0,0,1,2.6-.83h1.67v1.52H54.82a1.61,1.61,0,0,0-1.32.44A2.32,2.32,0,0,0,53,20.71a2.47,2.47,0,0,0,.49,1.72,1.56,1.56,0,0,0,1.17.39h.79l2.45-5.69h2.6L63.41,24V17.08h2.65l3,5v-5h1.77v7.21Zm-57,1.43h2.95l.69-1.62H19l.64,1.62h5.84V24.49L26,25.72h3l.49-1.23v1.23H43.88V23.07h.29c.2,0,.25,0,.25.34v2.31h7.46v-.64a5.56,5.56,0,0,0,2.75.64h3.14l.68-1.62h1.48l.63,1.62h6V24.19l.93,1.53h4.86V15.65H67.58v1.18l-.69-1.18H62v1.18l-.64-1.18H54.72a5.88,5.88,0,0,0-2.89.59v-.59H47.26v.59a2.84,2.84,0,0,0-2-.59H28.57l-1.13,2.61-1.13-2.61H21v1.18l-.59-1.18H15.9l-2.06,4.77Z"/></clipPath></defs><g class="cls-2"><path class="cls-3" d="M13.11,9.77a3,3,0,0,1,2.94-2.95H73a3,3,0,0,1,2.94,2.95V43.14A2.94,2.94,0,0,1,73,46.08H16.05a2.94,2.94,0,0,1-2.94-2.94Z"/></g><g class="cls-4"><rect class="cls-5" x="23.61" y="25.62" width="54.08" height="14.97"/></g><g class="cls-6"><rect class="cls-5" x="11.39" y="13.2" width="63.41" height="14.97"/></g><rect class="cls-3" x="48.64" y="17.08" width="1.77" height="7.21"/></svg>