<svg id="Layer_1" data-name="Layer 1" xmlns="http://www.w3.org/2000/svg" viewBox="0 0 89.03 52.9"><defs><style>.cls-1{isolation:isolate;}.cls-2{fill:#005bac;}.cls-2,.cls-3{fill-rule:evenodd;}.cls-3{fill:#f6ac1d;}</style></defs><g id="形状_1" data-name="形状 1" class="cls-1"><g id="形状_1-2" data-name="形状 1"><path class="cls-2" d="M37.73,15.38,34.12,37.53h5.77l3.6-22.15Zm-8.46,0-5.5,15.24-.65-3.28h0L23,26.6a18.42,18.42,0,0,0-5.12-6.48,23.34,23.34,0,0,0-2.56-1.78l5,19.19h6l9.18-22.15Zm22.51,6.15c0-2.5,5.61-2.18,8.08-.82L60.68,16a16.72,16.72,0,0,0-5.18-1c-2.87,0-9.66,1.25-9.66,7.33,0,5.72,8,5.79,8,8.8s-7.16,2.47-9.52.57l-.86,5A16.09,16.09,0,0,0,50,37.92c3.94,0,9.87-2,9.87-7.59C59.82,24.57,51.78,24,51.78,21.53Zm23.53-6.15H70.67A2.65,2.65,0,0,0,68,17l-8.6,20.5h6l1.2-3.29H74l.68,3.29h5.3Zm-7,14.32,3-8.29L73,29.7Z"/></g></g><g id="形状_1-3" data-name="形状 1" class="cls-1"><g id="形状_1-4" data-name="形状 1"><path class="cls-3" d="M21.26,17.47s-.24-2-2.79-2H9.21l-.1.38a22.85,22.85,0,0,1,8.72,4.3,17.3,17.3,0,0,1,5.41,7.3Z"/></g></g></svg>