<?xml version="1.0" encoding="utf-8"?>
<!-- Generator: Adobe Illustrator 24.3.0, SVG Export Plug-In . SVG Version: 6.00 Build 0)  -->
<svg version="1.1" id="Layer_1" xmlns="http://www.w3.org/2000/svg" xmlns:xlink="http://www.w3.org/1999/xlink" x="0px" y="0px"
	 viewBox="0 0 428.3 128.3" style="enable-background:new 0 0 428.3 128.3;" xml:space="preserve">
<style type="text/css">
	.st0{fill:#FFFFFF;}
</style>
<g>
	<path class="st0" d="M17.8,45.3v44.6H0V48.9C0,28.9,10,19,30,19c9,0,15.9,2,20.9,6c5-3.8,11.9-5.7,20.9-5.7
		c19.9,0,29.8,9.9,29.7,29.8v41.1h-9.1c-5.8-0.4-8.7-3.2-8.7-8.7V45.6c-0.4-7.3-4.4-10.8-12.2-10.8s-11.8,3.6-11.9,10.8v44.4H41.9
		V45.3c-0.4-7.3-4.4-10.8-12.1-10.8C21.9,34.5,18,38,17.8,45.3z"/>
	<path class="st0" d="M285.9,91.5c-21.1-0.7-31.7-12.9-31.7-36.7c0-23.8,10.7-35.7,32-35.8c22.2,0,32.6,13.6,31.3,40.9h-45.2
		c0.7,10.7,5.3,16.1,13.9,16.1c4.1,0,7.9-1.7,11.4-5c1.6-1.7,3.6-2.5,6-2.5h12.9C312.5,83.3,303,91.5,285.9,91.5z M272.5,47.4h26.3
		c-1-9.2-5.4-14-12.9-14C278.3,33.4,273.9,38.2,272.5,47.4z"/>
	<path class="st0" d="M376.2,89.9c-5.8-0.4-8.7-3.2-8.7-8.7V45.3c-0.4-7.3-4.4-10.8-12.1-10.8c-7.8,0-11.8,3.6-11.9,10.8v44.6h-17.8
		V48.9c0-19.9,10-29.8,30-29.8c19.9,0,29.7,9.9,29.6,29.8v41.1H376.2z"/>
	<path class="st0" d="M419.6,32.5h-6.1v38.7c0,2.9,1.7,4.5,5.1,4.5h9.7V89c-5.7,0.5-16.1,0.5-22.7-0.1c-6.6-0.7-9.8-4.8-9.6-12.5V0
		h9.1c4.6,0,8.5,4.2,8.5,8.9V20h14.8v3.8C428.3,28.8,424.5,32.5,419.6,32.5z"/>
	<path class="st0" d="M165.2,32.4c-5.1-7.8-13-13.3-26.3-13.4c-16.3-0.1-28.3,9.3-30.2,23c-1.5,10.7,2.7,23.8,8.5,32.9
		c9.4,15,9.1,17.6,8.6,24.4c-1.2,18.3-20.8,28.9-20.8,28.9c17.8-2.8,28.5-14.2,33.4-19.5c19.6-21.1,27.1-39.1,29.8-50.6
		C170.4,49,169.8,39.4,165.2,32.4z M139.8,82.9l-1.5,1.2l-1.4-1.3c-8.7-7.6-18.4-23.6-18.4-33.7c0-11.8,8.4-20.1,20.4-20.1
		c12.4,0,20.4,8.7,20.4,22.2C159.1,59,150.7,74.6,139.8,82.9z"/>
	<path class="st0" d="M138.8,29c-12,0-20.3,8.3-20.4,20.1c0,1.3,0.2,2.7,0.5,4.2c-0.2-1.3-0.4-2.5-0.4-3.6
		c0-11.1,7.6-18.4,18.6-18.4c11.7,0,19,8.2,18.6,20.5c-0.2,8.1-8.2,22.5-19,30.8c0,0,0.1,0.1,0.1,0.1l1.8,1.9l1.5-1.2
		c10.9-8.4,19.6-22.8,20.2-32C161.2,37.8,151.2,29,138.8,29z"/>
	<path class="st0" d="M146.7,52.6c-1.3,4.5-6,7.1-10.5,5.7c-4.5-1.3-7.1-6-5.7-10.5s6-7.1,10.5-5.7C145.4,43.4,148,48.1,146.7,52.6z
		"/>
	<g>
		<path class="st0" d="M180.5,10.7c0-6.6,3.9-9.6,11.5-9.6h23.1c19.5,0,30.3,13.2,30.3,27.1c0,8.8-4.3,17.8-13.7,23.8L242,72
			c3.3,7.4,7.3,13.6,10.2,19.5c0,0-9.6,0-15.6,0c-3.8,0-6.4-4.4-6.4-4.4l-15.4-30.4h-15.7v34.8c0,0-3,0-9.2,0c-6.3,0-9.4,0-9.4,0
			L180.5,10.7L180.5,10.7z M199.1,19.6v18.6h16.8c6.5,0,10.4-5.2,10.4-10.1c0-4.3-3.1-8.5-10.4-8.5H199.1z"/>
	</g>
</g>
</svg>
