<svg id="Layer_1" data-name="Layer 1" xmlns="http://www.w3.org/2000/svg" viewBox="0 0 916 300.5"><defs><style>.cls-1{fill:#77bc1f;}.cls-2{fill:#fff;}.cls-3{fill:#313c3f;}.cls-4{fill:#a0a2a2;}</style></defs><path class="cls-1" d="M202.69,101.84H188.5V73a73,73,0,0,0-146,0v28.84H27.31A27.39,27.39,0,0,0,0,129.15v144A27.39,27.39,0,0,0,27.31,300.5H202.69A27.39,27.39,0,0,0,230,273.19v-144A27.39,27.39,0,0,0,202.69,101.84ZM71.5,73a44,44,0,0,1,88,0v28.84h-88Z"/><polygon class="cls-2" points="90.5 247.61 50.7 207.8 61.3 197.2 90.5 226.39 166.2 150.7 176.8 161.3 90.5 247.61"/><path class="cls-3" d="M341.41,169.09a38.41,38.41,0,0,1-11.9,28.5c-7.9,7.51-18.61,11.29-31.88,11.29-16.91,0-31.39-5.82-43.06-17.3l-3.94-3.88,17-22.74,5.19,5.08c6.73,6.58,16.61,10.83,25.17,10.83,3.35,0,14.28-.75,14.28-10.45,0-6.82-8.81-11.88-16.2-14.93l-.76-.3c-16-6.5-40.17-16.31-39.77-41.61,0-11.53,4.4-21.12,13.09-28.39,8.5-7,19.15-10.47,31.69-10.47,15,0,27.47,4.61,37.13,13.71l3.6,3.38L327.2,116.68l-5.93-5.49a34.21,34.21,0,0,0-21.65-8.63c-7.35,0-14.77,3.18-14.77,10.29,0,6.7,7.46,10.26,19.65,15.53,1.61.7,3.24,1.4,4.87,2.13a136.37,136.37,0,0,1,14.26,7.31A35.43,35.43,0,0,1,341.41,169.09Z"/><polygon class="cls-3" points="444.92 179.87 444.92 206.88 361.01 206.88 361.01 76.72 442.09 76.72 442.09 103.73 390.18 103.73 390.18 127.8 432.27 127.8 432.27 154.81 390.18 154.81 390.18 179.87 444.92 179.87"/><path class="cls-3" d="M573.74,184.5l-3.89,3.88c-13.59,13.6-30.39,20.5-49.91,20.5s-35.84-6.54-48.18-19.43-18.4-29.19-18.4-48.31c0-18.71,6.26-34.64,18.6-47.35s28.44-19.07,47.48-19.07c19.41,0,35.33,5.8,47.31,17.23l3.89,3.7-15.42,22.82-5.43-4.9c-7.51-6.79-19.16-11.17-29.68-11.17-11.57,0-20.43,3.52-27.11,10.76S483,129.69,483,141c0,11.47,3.4,20.87,10.38,28.72,6.79,7.64,15.63,11.35,27,11.35a45.87,45.87,0,0,0,31.62-13.45l5.18-5.19Z"/><path class="cls-3" d="M690.52,76.72v82.22c0,14.9-4.93,27.09-14.64,36.23s-22.32,13.71-37.63,13.71c-15.53,0-28.3-4.61-38-13.71-9.83-9.24-14.81-21.44-14.81-36.23V76.72h29.17v82.05c0,14.15,8.54,22.27,23.43,22.27s23.27-8,23.27-22.44V76.72Z"/><path class="cls-3" d="M788.69,152.07C799.88,145.23,807,132,807,117c0-16.85-8.15-30.18-22.31-36.54-5.43-2.52-13.44-3.75-24.47-3.75H716.6V206.88h29.18V160.13h15l24.79,46.75h33.17Zm-25.64-18.95H745.78V103.73h13.11c7.23,0,10.35.91,11.63,1.47,3.33,1.44,7.15,4.18,7.15,12.64C777.67,127.55,772.34,133.12,763.05,133.12Z"/><polygon class="cls-3" points="916 179.87 916 206.88 832.09 206.88 832.09 76.72 913.17 76.72 913.17 103.73 861.26 103.73 861.26 127.8 903.36 127.8 903.36 154.81 861.26 154.81 861.26 179.87 916 179.87"/><path class="cls-4" d="M298.79,274.75a17.64,17.64,0,0,1-5.47,13.09c-3.63,3.45-8.55,5.18-14.64,5.18A27.12,27.12,0,0,1,259,285.09l-1.87-1.83L265,272.72l2.45,2.39A17.33,17.33,0,0,0,278.84,280c1.5,0,6.42-.34,6.42-4.67,0-3.07-4-5.35-7.34-6.73l-.34-.14c-7.33-3-18.42-7.47-18.24-19.1a16.31,16.31,0,0,1,6-13,22.25,22.25,0,0,1,14.54-4.81c6.87,0,12.6,2.12,17,6.29l1.7,1.6L292.22,251l-2.8-2.6a15.54,15.54,0,0,0-9.82-3.91c-3.31,0-6.66,1.42-6.66,4.6,0,3,3.39,4.61,8.92,7,.74.32,1.48.64,2.23,1a58.91,58.91,0,0,1,6.55,3.36A16.25,16.25,0,0,1,298.79,274.75Z"/><path class="cls-4" d="M345.21,274.75a17.64,17.64,0,0,1-5.47,13.09c-3.63,3.45-8.55,5.18-14.64,5.18a27.12,27.12,0,0,1-19.73-7.93l-1.87-1.83,7.88-10.54,2.45,2.39A17.33,17.33,0,0,0,325.26,280c1.5,0,6.42-.34,6.42-4.67,0-3.07-4-5.35-7.34-6.73l-.34-.14c-7.33-3-18.42-7.47-18.24-19.1a16.31,16.31,0,0,1,6-13,22.25,22.25,0,0,1,14.54-4.81c6.87,0,12.6,2.12,17,6.29l1.7,1.6L338.64,251l-2.8-2.6a15.54,15.54,0,0,0-9.82-3.91c-3.31,0-6.66,1.42-6.66,4.6,0,3,3.39,4.61,8.92,7,.74.32,1.48.64,2.23,1a58.91,58.91,0,0,1,6.55,3.36A16.25,16.25,0,0,1,345.21,274.75Z"/><polygon class="cls-4" points="391.46 279.58 391.46 292.11 353.84 292.11 353.84 232.45 367.37 232.45 367.37 279.58 391.46 279.58"/><polygon class="cls-4" points="453.22 279.58 453.22 292.11 414.69 292.11 414.69 232.45 451.93 232.45 451.93 244.99 428.21 244.99 428.21 255.79 447.44 255.79 447.44 268.32 428.21 268.32 428.21 279.58 453.22 279.58"/><polygon class="cls-4" points="509.5 232.45 509.5 292.11 497.55 292.11 474.08 257.99 474.08 292.11 460.55 292.11 460.55 232.45 472.58 232.45 496.05 266.58 496.05 232.45 509.5 232.45"/><path class="cls-4" d="M571.66,281.8l-1.84,1.83A31.21,31.21,0,0,1,547,293c-9,0-16.42-3-22.08-8.9s-8.43-13.38-8.43-22.14a30.1,30.1,0,0,1,8.52-21.7c5.72-5.8,13-8.74,21.76-8.74,8.9,0,16.19,2.66,21.68,7.9l1.84,1.75-7.16,10.59-2.56-2.32A21.21,21.21,0,0,0,547,244.38c-5.26,0-9.28,1.6-12.31,4.89s-4.53,7.51-4.53,12.63A18.79,18.79,0,0,0,534.9,275c3.08,3.46,7.1,5.15,12.28,5.15A20.87,20.87,0,0,0,561.55,274l2.45-2.46Z"/><path class="cls-4" d="M610.36,267c5.09-3.16,8.33-9.2,8.33-16,0-7.63-3.84-13.91-10.25-16.78-2.5-1.16-6.17-1.73-11.22-1.73h-20v59.66h13.52V270.76h6.67l11.33,21.35H624.1Zm-19.64-8.79V245h5.89c3.29,0,4.7.41,5.27.67,1.5.64,3.21,1.87,3.21,5.68,0,4.37-2.4,6.88-6.58,6.88Z"/><polygon class="cls-4" points="647.71 232.45 647.32 233.12 647.32 232.45 647.71 232.45"/><path class="cls-4" d="M674.32,232.45v.67L654.48,267.2v24.91H641V267.2L620.8,232.45h15.49l10.79,19.25.64,1.34c.26-.49.51-1,.76-1.41l10.74-19.18Z"/><path class="cls-4" d="M647.32,232.45v.67l.39-.67Zm40.13,9.8V245h1.2A16.36,16.36,0,0,0,687.45,242.25Z"/><path class="cls-4" d="M720.65,245h-1.2v-2.74a17.83,17.83,0,0,0-3.24-4.28,19.31,19.31,0,0,0-14.2-5.52h-22.3l-.39.67v59h13.53V272.28H702a19.33,19.33,0,0,0,14.2-5.6c3.71-3.71,5.59-8.56,5.59-14.43A21.81,21.81,0,0,0,720.65,245Zm-19.86,14.75h-7.94V245h8c4.73,0,7.33,2.58,7.33,7.26S705.5,259.74,700.79,259.74Z"/><path class="cls-4" d="M688.65,245h-1.2v-2.74A16.36,16.36,0,0,1,688.65,245Z"/><path class="cls-4" d="M770.83,232.45V245H752.37v47.12H738.92V245H721.65a16.36,16.36,0,0,0-1.2-2.74v-9.8Z"/><rect class="cls-4" x="777.12" y="232.45" width="13.52" height="59.66"/><path class="cls-4" d="M849.9,240.33a31.54,31.54,0,0,0-43.69,0,29.42,29.42,0,0,0-8.7,21.57,30.71,30.71,0,0,0,8.67,22.16c5.78,5.95,13.16,9,21.92,9a29.3,29.3,0,0,0,21.83-9c5.76-5.93,8.68-13.38,8.68-22.16A29.39,29.39,0,0,0,849.9,240.33Zm-21.8,39.78a15.7,15.7,0,0,1-12-5.12,18.59,18.59,0,0,1-4.83-13.09,17.21,17.21,0,0,1,4.81-12.53,16.9,16.9,0,0,1,24,0,17.2,17.2,0,0,1,4.79,12.51A18.63,18.63,0,0,1,840,275,15.44,15.44,0,0,1,828.1,280.11Z"/><polygon class="cls-4" points="915.34 232.45 915.34 292.11 903.39 292.11 879.92 257.99 879.92 292.11 866.4 292.11 866.4 232.45 878.42 232.45 901.89 266.58 901.89 232.45 915.34 232.45"/></svg>