<svg id="Layer_1" data-name="Layer 1" xmlns="http://www.w3.org/2000/svg" viewBox="0 0 861.48 328.97"><defs><style>.cls-1{fill:#225e63;}.cls-2{fill:#2bbc5d;}</style></defs><path class="cls-1" d="M76.92,100.89V230.08l-.94.25C50.73,161.49,25.49,92.65,0,23.14c2.09-.31,3.78-.68,5.49-.78q50.61-2.94,101.22-5.81,37.15-2.12,74.3-4.19c27.59-1.58,55.18-3.25,82.77-4.82q37.65-2.14,75.3-4.17C359.7,2.26,380.32,1.29,400.93,0c3.4-.21,5,.82,6.39,3.84q25.59,57.36,51.42,114.6c1.25,2.79,1.56,5-.46,7.79-12.7,17.51-25.21,35.16-37.79,52.76-.45.63-1,1.2-2.22,2.63V101.22H367.43V209.35c-6.74-2.64-13-4.82-18.9-7.63-1.35-.64-1.67-3.48-2.17-4.64-11,1.84-21.82,4.43-32.8,5.31-16.19,1.29-31-3.47-39.84-17.72-11.79-19-4.79-49.1,26.26-53.37,14.26-2,27.8.26,40.45,7.35a23.93,23.93,0,0,0,3.55,1.19V113.47c0-9.91.07-10.25-9.63-12.22-26.51-5.37-52.82-4.6-77.89,6.11-22,9.42-36.83,25.91-39.79,50.41-2.77,22.88,2.64,43.46,21.8,58.42,13.52,10.56,29.4,15.29,46.15,17,9.08.94,18.28.95,27.42,1,3.08,0,4,1.05,5.08,3.9,2.81,7.6,6.32,14.93,9.83,23L112.12,329c-11.64-31.76-23.21-63.35-35-95.45,2.21-.11,3.8-.25,5.39-.25,13.17,0,26.34-.18,39.5.08,4.48.09,6.2-1,6-5.81-.34-9.66,0-19.34-.17-29-.09-3.78,1.28-4.89,4.91-4.85,14.4.16,28.6-1.31,42.18-6.42,15.94-6,28.44-15.48,31.14-33.65,3.28-22.09-8.53-40.5-29.88-47.5a103.81,103.81,0,0,0-33.83-5.3c-19.83.24-39.67.07-59.5.07ZM361.79,59.18c0,16.49,13.85,29.89,31,29.93,16.66,0,31.31-13.69,31.22-29.25-.1-16.3-14.23-29.65-31.38-29.67C376,30.17,361.81,43.5,361.79,59.18Z"/><path class="cls-1" d="M565.48,149V48.52c1.78-.09,3.54-.24,5.3-.25q22,0,44,0c24.61.07,41,14.74,43,39.3a126.52,126.52,0,0,1-.37,26.82c-2.15,16-13.57,33.15-36.87,34.42C602.41,149.8,584.23,149,565.48,149ZM596,127.49c6-.32,11.17-.49,16.27-.9,7.64-.62,12.15-5.23,13.84-12.3a62.4,62.4,0,0,0-.35-31c-2-7.27-7.38-10.86-14.36-12.12-3.57-.64-7.3-.33-10.94-.62s-4.56,1.3-4.51,4.68c.15,11.48.06,23,0,34.44Z"/><path class="cls-1" d="M859.2,75.93c-10.55.71-19.47,1.4-28.41,1.78-.85,0-2.2-1.71-2.62-2.88C824.45,64.41,816,64,808.27,65.29a7.36,7.36,0,0,0-6.44,7.27c-.22,4.92,3.65,6.46,7.33,7.53,9.88,2.87,20,5.07,29.75,8.23s17.54,8.72,21,19c6,18.22-5.5,37.54-25.91,42.28a80.38,80.38,0,0,1-41.47-1.16c-13.23-3.91-22.6-16.87-22.91-31.87,9-.47,18.06-1.08,27.12-1.21,1,0,2.49,2.55,3,4.17,3.45,10.05,12.67,14.89,22.92,11.84,4.67-1.39,8.11-4.14,8.6-9.21s-2.36-8.75-7-10.34c-6.58-2.27-13.42-3.77-20.06-5.89a109.78,109.78,0,0,1-14.88-5.65c-10.6-5.21-16.84-13.61-16-25.82.78-11.76,7.39-19.89,18.1-24.12,13.89-5.49,28.29-5.28,42.7-2.06,7.2,1.6,13.79,4.71,17.72,11.12C854.77,64.19,856.5,69.73,859.2,75.93Z"/><path class="cls-1" d="M668.46,116.57l28.91-1.6c1.91,8.2,5.08,15.25,14,16.52a30.88,30.88,0,0,0,12.12-1c4.06-1.1,6.55-4.37,6.72-8.91a9.15,9.15,0,0,0-6.11-9.4c-5.55-2.14-11.49-3.26-17.1-5.29-7.62-2.74-15.68-4.92-22.47-9.11a25.7,25.7,0,0,1,.18-44.27C690.61,50,697.9,48,704.79,47c11.74-1.81,23.62-1.31,34.81,3.47C750.5,55.1,755.25,64.13,756.93,76c-9.26.63-18.17,1.32-27.09,1.7-.86,0-2.17-1.67-2.66-2.82-3.53-8.28-11.31-12.22-19.88-9.67-3.49,1-6.39,3-6.51,7.24-.12,4,2.32,6.06,5.82,7.05,10.53,3,21.19,5.55,31.59,8.92,9.51,3.07,17.2,8.67,20.61,18.7,6.24,18.34-5.6,37.92-26.13,42.58a83,83,0,0,1-38.11-.37C679.09,145.62,669.61,133.57,668.46,116.57Z"/><path class="cls-1" d="M127.23,163.87V129.58c6.85.7,13.54.6,19.78,2.22,7.66,2,10.67,7.32,10.3,15.06-.38,8-5.06,13.94-12.7,15.92a28.89,28.89,0,0,1-5.88,1C135.1,164,131.45,163.87,127.23,163.87Z"/><path class="cls-1" d="M471.91,214c5.57-8.57,11.14-17.13,17.47-26.88l9,20-25.47,8Z"/><path class="cls-1" d="M580.9,201.92a15.23,15.23,0,0,1-7.89-2,13.58,13.58,0,0,1-5.32-6,26.57,26.57,0,0,1,0-19.76,13.51,13.51,0,0,1,5.32-6,15.18,15.18,0,0,1,7.9-2q6.48,0,9.87,3.06a12.53,12.53,0,0,1,4,7.93l-8.67,1.51a9,9,0,0,0-1.85-3.64,4.27,4.27,0,0,0-3.38-1.44,5.21,5.21,0,0,0-3.33,1.14,7.23,7.23,0,0,0-2.23,3.45,18.59,18.59,0,0,0-.79,5.92,17.59,17.59,0,0,0,.82,5.83,7.31,7.31,0,0,0,2.25,3.43,5.25,5.25,0,0,0,3.28,1.12,5.17,5.17,0,0,0,3.93-1.39,4.8,4.8,0,0,0,1.3-3.38h8.62a13,13,0,0,1-1.6,6.69,10.08,10.08,0,0,1-4.68,4.16A18.14,18.14,0,0,1,580.9,201.92Z"/><path class="cls-1" d="M615.35,201.92a17,17,0,0,1-8.5-2,13.87,13.87,0,0,1-5.65-6.07,25.49,25.49,0,0,1,0-19.89,13.2,13.2,0,0,1,5.65-5.86,17.8,17.8,0,0,1,8.5-1.93,17.44,17.44,0,0,1,8.58,2,13.77,13.77,0,0,1,5.68,6,21.49,21.49,0,0,1,2,9.8,22.21,22.21,0,0,1-2,10,13.6,13.6,0,0,1-5.68,6A17.55,17.55,0,0,1,615.35,201.92Zm0-7.31a6.8,6.8,0,0,0,5.71-2.82q2.15-2.82,2.14-7.95a12.2,12.2,0,0,0-2.14-7.61,6.83,6.83,0,0,0-5.71-2.79,6.75,6.75,0,0,0-5.61,2.79q-2.15,2.79-2.14,7.67,0,5.07,2.14,7.89A6.72,6.72,0,0,0,615.35,194.61Z"/><path class="cls-1" d="M638.1,166.89h11.68l7.57,18.26h-.64l7.58-18.26h11.22v34.22h-8.22V176.76h1.13l-8.8,21.16h-5.28l-8.75-21.11h.67v24.3H638.1Z"/><path class="cls-1" d="M684,201.11V166.89H697.1q5.92,0,9.39,2.84t3.47,8.4q0,5.53-3.47,8.4t-9.39,2.87h-4.92v11.71Zm8.21-18.85h4.92a4.36,4.36,0,0,0,3.36-1.23,4.18,4.18,0,0,0,1.13-2.9,4.24,4.24,0,0,0-1.13-2.93A4.33,4.33,0,0,0,697.1,174h-4.92Z"/><path class="cls-1" d="M723.39,166.89V194h12.93v7.14H715.23V166.89Z"/><path class="cls-1" d="M741.85,201.11V166.89H750v34.22Z"/><path class="cls-1" d="M755.29,201.11l11.53-34.22H777.2l10.89,34.22h-8.6l-1.86-6H765.82l-1.86,6Zm12.6-12.06h7.88l-3.88-12.52Z"/><path class="cls-1" d="M793.16,166.89h8.52l13.74,20.7h-.56v-20.7H823v34.22h-7.88L800,178.36h1.35v22.75h-8.16Z"/><path class="cls-1" d="M827.64,174v-7.06h28.17V174H844l1.83-1.84v29h-8.16v-29l1.84,1.84Z"/><path class="cls-2" d="M392,253.13c-23.94-25.59-33-34-43-36-5-1-11.68,1.68-16,6a16.48,16.48,0,0,0-2,19c5,9,35.33,46.4,43,51,10,6,27,9,36-2s43-72,49-83c6.65-12.2,35.8-58.35,47-73,13-17,32-36,40-41,6.17-3.86,1-6-3-6-6,0-16,1-23,4s-27,15-39,29-44,59-48,65S392,253.13,392,253.13Z"/></svg>