<svg id="Layer_1" data-name="Layer 1" xmlns="http://www.w3.org/2000/svg" viewBox="0 0 1140.58 482"><defs><style>.cls-1{fill:#4a4e4f;}.cls-2{fill:#fcd218;}.cls-3{fill:#7f8a8d;}.cls-4{font-size:67.08px;font-family:Michroma;}</style></defs><path class="cls-1" d="M1095.49,161h-48c0-59-49.57-107-110.5-107s-110.5,48-110.5,107h-48c0-85.47,71.1-155,158.5-155S1095.49,75.53,1095.49,161Z"/><path class="cls-1" d="M777.18,161h321.62a40.69,40.69,0,0,1,40.69,40.69V209a0,0,0,0,1,0,0h-403a0,0,0,0,1,0,0v-7.31A40.69,40.69,0,0,1,777.18,161Z"/><path class="cls-1" d="M777.18,434h321.62a40.69,40.69,0,0,1,40.69,40.69V482a0,0,0,0,1,0,0h-403a0,0,0,0,1,0,0v-7.31A40.69,40.69,0,0,1,777.18,434Z" transform="translate(1875.97 916) rotate(180)"/><path class="cls-2" d="M849.78,354.73q0,13.29-13.32,20.22t-39.78,6.92H770.61v29.57H740.35v-84h56.33Q849.78,327.48,849.78,354.73Zm-36.16-9.36q-5.52-2.94-16.94-2.94H770.61V366.8h26.07q11.24,0,16.75-2.93a10.07,10.07,0,0,0,5.71-9.14A9.87,9.87,0,0,0,813.62,345.37Z"/><path class="cls-2" d="M958.83,392.5h-56.9l-11.42,18.94H860.06l51.38-85h37.68l51.58,85H970.25Zm-9.13-15.17L930.28,345l-19.41,32.35Z"/><path class="cls-2" d="M1090.34,379v32.45h-29.69V379l-50.05-51.51h30.45l34.44,36.11,34.64-36.11h30.45Z"/><path d="M1013.86,314.47q-14.82,0-25.36-6T978,293.91v-7.28H1014v.89c0,1.59.3,6.56.91,6.91s2.29.52,5.07.52h70.08c2.77,0,4.46-.17,5.07-.52s.91-1.32.91-2.91v-7c0-1.59-.31-2.56-.91-2.91s-2.3-.52-5.07-.52h-76.24q-14.82,0-25.36-6.11T978,260.53V248.61q0-8.49,10.53-14.53t25.36-6h81.4q14.82,0,25.48,6t10.67,14.53v6.28h-39.33V254c0-1.58-.31-5.55-.91-5.9s-2.3-.52-5.07-.52H1020c-2.78,0-4.47.17-5.07.52s-.91,1.32-.91,2.9v7c0,1.59.3,2.56.91,2.9s2.29.52,5.07.52h75.24q14.82,0,25.48,6.11T1131.41,282v11.92q0,8.49-10.67,14.52t-25.48,6Z"/><path class="cls-3" d="M771.18,429h321.62a40.69,40.69,0,0,1,40.69,40.69V477a0,0,0,0,1,0,0h-403a0,0,0,0,1,0,0v-7.31A40.69,40.69,0,0,1,771.18,429Z" transform="translate(1863.97 906) rotate(180)"/><path d="M772.49,314l-36.57-85H763.6l28.08,63.12,6.81-.12,22.67-63h27.09l24.24,63,7.22.41L905.8,229h27.69l-34,85h-43L834.9,252l-18.41,62Z"/><text class="cls-4" transform="translate(0 268.55)">WEB SECURE</text><text class="cls-4" transform="translate(139.25 351.55)">PAYMENT</text><text class="cls-4" transform="translate(120.38 433.55)">GATEWAY</text><path class="cls-3" d="M1089.49,155h-48c0-59-49.57-107-110.5-107s-110.5,48-110.5,107h-48c0-85.47,71.1-155,158.5-155S1089.49,69.53,1089.49,155Z"/><path class="cls-3" d="M771.18,155h321.62a40.69,40.69,0,0,1,40.69,40.69V203a0,0,0,0,1,0,0h-403a0,0,0,0,1,0,0v-7.31A40.69,40.69,0,0,1,771.18,155Z"/></svg>