<?xml version="1.0" encoding="utf-8"?>
<!-- Generator: Adobe Illustrator 24.3.0, SVG Export Plug-In . SVG Version: 6.00 Build 0)  -->
<svg version="1.1" id="Layer_1" xmlns="http://www.w3.org/2000/svg" xmlns:xlink="http://www.w3.org/1999/xlink" x="0px" y="0px"
	 viewBox="0 0 32 32" style="enable-background:new 0 0 32 32;" xml:space="preserve">
<style type="text/css">
	.st0{fill:#0FC9F4;}
	.st1{fill:#FFFFFF;}
</style>
<circle class="st0" cx="16" cy="16" r="15"/>
<g>
	<path class="st1" d="M15.542,23.343c-0.14,0-0.213-0.168-0.116-0.27l4.286-4.53c0,0,2.71-2.739,3.643-4.078
		c1.601-3.081-3.098-4.287-3.45-0.964c-0.009,0.081-0.074,0.146-0.155,0.146h-2.904c-0.09,0-0.166-0.076-0.165-0.166
		c0.043-3.694,4.035-5.555,7.241-4.556c1.176,0.359,2.263,1.071,2.77,2.204c0.522,0.909,0.551,2.304,0.252,3.337
		c-0.287,1.06-1.593,2.358-2.33,3.148l-2.418,2.821c-0.089,0.104-0.015,0.264,0.122,0.264h4.653c0.088,0,0.16,0.072,0.16,0.16v2.324
		c0,0.088-0.072,0.16-0.16,0.16L15.542,23.343z"/>
	<path class="st1" d="M13.337,15.68c0,0-0.099,0-0.099-0.07s0.099-0.085,0.099-0.085c1.393-0.38,2.422-1.64,2.422-3.153v0
		c0-2.051-1.663-3.714-3.714-3.714h-7.02c-0.088,0-0.16,0.072-0.16,0.16v6.836v7.531c0,0.088,0.072,0.16,0.16,0.16l6.349,0
		c1.613,0,3.178-0.711,4.138-2.006C17.47,18.695,15.774,15.879,13.337,15.68z M8.561,11.444l2.302,0
		c0.836,0,1.563,0.687,1.508,1.521c-0.055,0.83-0.746,1.486-1.59,1.486h-2.22c-0.088,0-0.16-0.072-0.16-0.16v-2.687
		C8.401,11.516,8.473,11.444,8.561,11.444z M10.932,20.484l-2.37,0c-0.088,0-0.16-0.072-0.16-0.16v-3.053
		c0-0.088,0.072-0.16,0.16-0.16h2.709c1.057,0,1.872,1.033,1.491,2.144C12.502,20.015,11.734,20.484,10.932,20.484z"/>
</g>
</svg>
