<?xml version="1.0" encoding="utf-8"?>
<!-- Generator: Adobe Illustrator 28.0.0, SVG Export Plug-In . SVG Version: 6.00 Build 0)  -->
<svg version="1.1" id="Layer_1" xmlns="http://www.w3.org/2000/svg" xmlns:xlink="http://www.w3.org/1999/xlink" x="0px" y="0px"
	 viewBox="0 0 32 32" style="enable-background:new 0 0 32 32;" xml:space="preserve">
<style type="text/css">
	.st0{fill:#214E3C;}
	.st1{fill-rule:evenodd;clip-rule:evenodd;fill:#AAC89B;}
	.st2{fill-rule:evenodd;clip-rule:evenodd;fill:#9DE9E5;}
	.st3{fill-rule:evenodd;clip-rule:evenodd;fill:#214E3C;}
	.st4{fill-rule:evenodd;clip-rule:evenodd;fill:#B1A89C;}
	.st5{fill-rule:evenodd;clip-rule:evenodd;fill:#00B875;}
	.st6{fill-rule:evenodd;clip-rule:evenodd;fill:#FFFFFF;}
</style>
<circle class="st0" cx="16" cy="16" r="15"/>
<g>
	<g id="g34">
		<g id="g30">
			<g id="g28">
				<path id="path24" class="st1" d="M22.3,8.8c-2.7-1.2-6.5,1.2-8.4,5.4c-1.9,4.2-1.3,8.6,1.5,9.8c2.7,1.2,6.5-1.2,8.4-5.4
					C25.7,14.4,25.1,10,22.3,8.8L22.3,8.8z"/>
				<path id="path26" class="st2" d="M9.1,8.3c2.8-1.8,7.2,0.2,10,4.5c2.8,4.3,2.8,9.2,0.1,10.9c-2.8,1.8-7.2-0.2-10-4.5
					C6.3,14.9,6.3,10,9.1,8.3L9.1,8.3z"/>
			</g>
		</g>
		<path id="path32" class="st3" d="M16.9,10.2c1,0.8,1.9,1.9,2.7,3.1c2.6,4.2,2.4,8.9-0.5,10.5c-0.3,0.2-0.6,0.3-0.9,0.4
			c-0.4,0.1-0.9,0.2-1.3,0.2c-0.4,0-0.8-0.1-1.3-0.2c-0.3-0.1-0.6-0.2-0.9-0.4c-2.9-1.6-3.1-6.3-0.5-10.5C15,12.1,15.9,11,16.9,10.2
			L16.9,10.2z"/>
	</g>
	<g id="g46">
		<g id="g42">
			<g id="g40">
				<path id="path36" class="st4" d="M22.4,8.8c-2.7-1.2-6.5,1.2-8.5,5.4c-1.9,4.2-1.3,8.7,1.5,9.9c2.7,1.2,6.5-1.2,8.5-5.4
					C25.8,14.4,25.2,10,22.4,8.8z"/>
				<path id="path38" class="st5" d="M9.1,8.3c2.8-1.8,7.3,0.2,10.1,4.5c2.8,4.3,2.8,9.2,0.1,11c-2.8,1.8-7.3-0.2-10.1-4.5
					C6.3,15,6.3,10,9.1,8.3L9.1,8.3z"/>
			</g>
		</g>
		<path id="path44" class="st3" d="M16.9,10.2c1,0.8,1.9,1.9,2.7,3.2c2.6,4.3,2.4,9-0.5,10.5c-0.3,0.2-0.6,0.3-0.9,0.4
			c-0.4,0.1-0.9,0.2-1.3,0.2c-0.4,0-0.8-0.1-1.3-0.2c-0.3-0.1-0.6-0.2-0.9-0.4c-2.9-1.6-3.1-6.3-0.5-10.5C15,12.1,15.9,11,16.9,10.2
			z"/>
	</g>
	<g id="g46_00000088099182937506193100000002915209345223749821_">
		<g id="g42_00000152248523027941607270000018421644220696361108_">
			<g id="g40_00000121985242702009535400000008615218731895596449_">
				<path id="path36_00000090289970806049866640000015635680882297054136_" class="st4" d="M22.4,8.8c-2.7-1.2-6.5,1.2-8.5,5.4
					c-1.9,4.2-1.3,8.7,1.5,9.9c2.7,1.2,6.5-1.2,8.5-5.4C25.8,14.4,25.2,10,22.4,8.8z"/>
				<path id="path38_00000041975472351746585940000012330279388239371196_" class="st5" d="M9.1,8.3c2.8-1.8,7.3,0.2,10.1,4.5
					c2.8,4.3,2.8,9.2,0.1,11c-2.8,1.8-7.3-0.2-10.1-4.5C6.3,15,6.3,10,9.1,8.3L9.1,8.3z"/>
			</g>
		</g>
		<path id="path44_00000027581227063028643770000012714407640630949052_" class="st6" d="M16.9,10.2c1,0.8,1.9,1.9,2.7,3.2
			c2.6,4.3,2.4,9-0.5,10.5c-0.3,0.2-0.6,0.3-0.9,0.4c-0.4,0.1-0.9,0.2-1.3,0.2c-0.4,0-0.8-0.1-1.3-0.2c-0.3-0.1-0.6-0.2-0.9-0.4
			c-2.9-1.6-3.1-6.3-0.5-10.5C15,12.1,15.9,11,16.9,10.2z"/>
	</g>
</g>
</svg>
