<?xml version="1.0" encoding="utf-8"?>
<!-- Generator: Adobe Illustrator 23.0.3, SVG Export Plug-In . SVG Version: 6.00 Build 0)  -->
<svg version="1.2" baseProfile="tiny" id="Layer_1" xmlns="http://www.w3.org/2000/svg" xmlns:xlink="http://www.w3.org/1999/xlink"
	 x="0px" y="0px" viewBox="0 0 32 32" xml:space="preserve">
<circle fill="#42538C" cx="16" cy="16" r="15"/>
<g>
	<path fill="#F7F7F7" d="M18.5,9.1c2,0,3.7,0.6,5.3,1.9c0.2,0.2,0.2,0.3,0.1,0.5c-0.8,1-1.5,2-2.2,3.1c-0.1,0.2-0.2,0.2-0.4,0
		c-1-1.1-2.3-1.3-3.7-0.9c-1.3,0.3-2.1,1.4-2.4,2.7c-0.3,1.1-0.2,2.1,0.3,3.2c0.7,1.4,2.2,2.1,3.7,1.9c0.8-0.1,1.5-0.5,2.1-1.1
		c0.1-0.2,0.2-0.1,0.3,0c0.8,1,1.5,2.1,2.3,3.1c0.1,0.2,0.1,0.3-0.1,0.4c-1.2,1-2.6,1.7-4.2,1.9c-2.5,0.3-4.7-0.3-6.6-2
		c-1.7-1.5-2.6-3.4-2.7-5.6c-0.2-3.2,1-5.8,3.7-7.6C15.4,9.4,16.9,9.1,18.5,9.1z"/>
	<path fill="#F4B918" d="M11.7,9.3c0,1.6-1.3,2.9-2.9,2.9C7.3,12.2,6,10.9,6,9.3c0-1.6,1.3-2.9,2.9-2.9C10.4,6.4,11.7,7.7,11.7,9.3z
		"/>
</g>
</svg>
