<?xml version="1.0" encoding="utf-8"?>
<!-- Generator: Adobe Illustrator 25.2.1, SVG Export Plug-In . SVG Version: 6.00 Build 0)  -->
<svg version="1.1" id="Layer_1" xmlns="http://www.w3.org/2000/svg" xmlns:xlink="http://www.w3.org/1999/xlink" x="0px" y="0px"
	 viewBox="0 0 32 32" style="enable-background:new 0 0 32 32;" xml:space="preserve">
<style type="text/css">
	.st0{fill:#EEEEEE;}
	.st1{fill:#053875;}
	.st2{fill:#00A8E8;}
	.st3{fill:#007EA7;}
</style>
<circle class="st0" cx="16" cy="16" r="15"/>
<g>
	<path class="st1" d="M10.05,12.92c-0.31,0.03-0.6-0.02-0.85-0.26c-1.1-1.02-2.2-2.03-3.3-3.05C5.42,9.18,5.4,8.55,5.87,8.14
		c1.25-1.07,2.53-2.12,3.8-3.16c0.28-0.23,0.65-0.23,0.97-0.15c2.14,0.53,4.27,1.07,6.4,1.65c0.94,0.25,1.07,0.66,0.65,1.54
		c-0.5,1.05-1.02,2.1-1.44,3.19c-0.31,0.79-0.9,0.92-1.62,1.02c-1.44,0.2-2.88,0.47-4.32,0.7C10.24,12.94,10.15,12.92,10.05,12.92z"
		/>
	<path class="st1" d="M23.35,14.37c0.25-0.02,0.44,0.11,0.62,0.25c0.8,0.63,1.62,1.25,2.4,1.9c0.37,0.31,0.69,0.65,0.9,1.12
		c0.48,1.04,1.02,2.05,1.53,3.08c0.32,0.65,0.24,0.99-0.42,1.4c-0.9,0.56-1.82,1.1-2.72,1.66c-0.69,0.42-1.38,0.86-2.08,1.28
		c-0.55,0.34-1.02,0.21-1.32-0.38c-1.2-2.35-2.39-4.7-3.57-7.05c-0.39-0.77-0.28-1.11,0.51-1.47c1.26-0.58,2.53-1.12,3.79-1.7
		C23.11,14.4,23.22,14.37,23.35,14.37z"/>
	<path class="st2" d="M26.49,11.11c-0.05,0.48-0.19,0.78-0.56,0.96c-2.5,1.25-4.99,2.51-7.49,3.75c-0.51,0.25-1,0.24-1.3-0.37
		c-0.02-0.04-0.05-0.07-0.08-0.1c-1.67-1.91-1.25-1.27-0.48-3.53c0.07-0.2,0.17-0.38,0.22-0.58c0.25-1.04,1.23-1.28,1.98-1.74
		c1.23-0.77,2.51-1.47,3.75-2.23c0.48-0.29,0.92-0.22,1.23,0.17c0.87,1.06,1.7,2.16,2.52,3.26C26.39,10.83,26.51,11.01,26.49,11.11z
		"/>
	<path class="st1" d="M9.55,25.43c-0.78,0.23-1.1-0.61-1.67-0.98c-0.38-0.25-0.67-0.63-1.05-0.91c-0.57-0.42-0.62-0.78-0.29-1.42
		c0.59-1.15,1.18-2.29,1.78-3.43c0.27-0.51,0.81-0.68,1.32-0.38c1.45,0.88,2.89,1.78,4.34,2.67c0.26,0.16,0.4,0.4,0.38,0.67
		c-0.08,0.87-0.2,1.74-0.31,2.61c-0.08,0.65-0.59,0.83-1.12,0.88C11.84,25.27,10.75,25.34,9.55,25.43z"/>
	<path class="st3" d="M17.67,17.82c0.03,0.49-0.2,0.76-0.66,0.85c-1.11,0.24-2.23,0.48-3.34,0.74c-0.19,0.04-0.33-0.04-0.47-0.11
		c-1.08-0.55-2.15-1.1-3.22-1.67C9.3,17.25,9.18,16.67,9.61,16c0.01-0.02,0.04-0.03,0.04-0.05c0.55-1.85,2.26-2.19,3.72-2.86
		c0.15-0.07,0.31-0.11,0.46-0.18c0.59-0.28,1.06-0.18,1.38,0.35c0.8,1.33,1.58,2.68,2.38,4.01C17.7,17.47,17.64,17.65,17.67,17.82z"
		/>
	<path class="st2" d="M3.02,13.87c0-1.08,0.45-1.4,1.22-1.27c1.15,0.2,2.3,0.33,3.46,0.49c0.33,0.05,0.66,0.07,0.98,0.16
		c0.55,0.15,0.82,0.81,0.54,1.46C8.73,15.83,8.45,17.02,8,18.16c-0.26,0.66-0.64,0.86-1.25,0.53c-1-0.54-1.98-1.13-2.95-1.72
		c-0.41-0.25-0.36-0.71-0.42-1.13C3.26,15.08,3.1,14.33,3.02,13.87z"/>
	<path class="st3" d="M14.49,25.33c0-0.23,0.02-0.47,0-0.7c-0.1-0.85,0.3-1.16,1.16-1.11c1.36,0.09,2.43,0.89,2.88,2.21
		c0.14,0.42-0.13,1-0.57,1.09c-0.86,0.16-1.72,0.31-2.58,0.39c-0.58,0.06-0.88-0.28-0.88-0.87C14.48,26.01,14.49,25.67,14.49,25.33z
		"/>
	<path class="st2" d="M19.07,20.37c0.21,0.54-0.25,0.87-0.64,1.17c-0.45,0.35-0.86,0.74-1.25,1.15c-0.5,0.53-1.01,0.35-1.52,0.04
		c-0.65-0.39-0.67-0.74-0.62-1.38c0.13-1.8,1.47-1.93,2.77-2.14C18.81,19.05,19.07,19.28,19.07,20.37z"/>
	<path class="st3" d="M27.1,13.96c0.01,0.71-0.47,1.42-0.96,1.41c-0.5,0-1.33-0.82-1.33-1.31c-0.01-0.61,0.64-1.37,1.15-1.35
		C26.46,12.74,27.1,13.43,27.1,13.96z"/>
	<path class="st2" d="M18.71,23.85c-0.13-0.74,0.39-0.79,0.85-0.95c0.61-0.22,1.08-0.08,1.39,0.46c0.25,0.46,0.22,0.92-0.25,1.27
		c-0.52,0.38-1.06,0.09-1.56-0.03C18.84,24.53,18.55,24.24,18.71,23.85z"/>
</g>
</svg>
