<?xml version="1.0" encoding="utf-8"?>
<!-- Generator: Adobe Illustrator 23.1.0, SVG Export Plug-In . SVG Version: 6.00 Build 0)  -->
<svg version="1.1" id="Layer_1" xmlns="http://www.w3.org/2000/svg" xmlns:xlink="http://www.w3.org/1999/xlink" x="0px" y="0px"
	 viewBox="0 0 32 32" style="enable-background:new 0 0 32 32;" xml:space="preserve">
<style type="text/css">
	.st0{fill:#ED1163;}
	.st1{fill:#FFFFFF;}
</style>
<g>
	<circle class="st0" cx="16" cy="16" r="15"/>
	<g>
		<path class="st1" d="M16,14.033c-1.2,0-2.176,0.976-2.176,2.176c0,1.01,1.184,2.485,2.193,3.463
			c0.891-0.822,2.158-2.257,2.158-3.463C18.176,15.009,17.2,14.033,16,14.033z"/>
		<path class="st1" d="M22.23,7v3.051h-2.289V7h-2.797v3.051h-2.289V7h-2.797v3.051H9.77V7H7.1c0,0.096,0,0.933,0,6.8
			C7.1,21.2,16,27,16,27s8.9-5,8.9-13.2c0-5.076,0-6.472,0-6.8H22.23z M16.545,21.56l-0.567,0.439l-0.549-0.461
			c-0.346-0.29-3.384-2.908-3.384-5.33c0-2.181,1.774-3.956,3.956-3.956s3.956,1.774,3.956,3.956
			C19.956,18.844,16.894,21.29,16.545,21.56z"/>
	</g>
</g>
</svg>
