<?xml version="1.0" encoding="utf-8"?>
<!-- Generator: Adobe Illustrator 23.0.3, SVG Export Plug-In . SVG Version: 6.00 Build 0)  -->
<svg version="1.2" baseProfile="tiny" id="Layer_1" xmlns="http://www.w3.org/2000/svg" xmlns:xlink="http://www.w3.org/1999/xlink"
	 x="0px" y="0px" viewBox="0 0 32 32" xml:space="preserve">
<circle fill="#CA7A28" cx="16" cy="16" r="15"/>
<g>
	<path fill="#FFFFFF" d="M25.5,15.9c0,1.1,0,2.3,0,3.4c0.1,1.1-0.4,1.7-1.1,2.1c-1.3,0.8-2.8,1-4.2,1.1c-3.2,0.3-6.4,0.4-9.6-0.1
		c-0.5-0.1-0.9-0.2-1.3-0.3c-2.2-0.7-2.7-1.4-2.7-4.2c0-1.6,0-3.3,0-4.9c0-1.3,0.5-2,1.4-2.6c1.1-0.6,2.2-0.8,3.4-0.9
		C15.1,9.1,19,9,22.8,9.9c0.6,0.1,1.1,0.4,1.7,0.6c0.7,0.3,1.1,0.9,1.1,1.9C25.5,13.6,25.5,14.8,25.5,15.9z M19.1,16.3
		c1.2,0,2.3-0.1,3.5,0c0.8,0.1,0.9-0.3,0.9-1.1c-0.1-0.6,0-1.2,0-1.8c0.1-1-0.3-1.5-1-1.8c-0.4-0.2-0.7-0.3-1.1-0.4
		c-2.7-0.7-5.4-0.7-8.1-0.5c-1.1,0.1-2.3,0.2-3.3,0.7c-1.1,0.5-1.4,1.1-1.4,2.5c0,1.4,0,2.8,0,4.2c0,1.2,0.4,1.9,1.3,2.4
		c1.1,0.6,2.3,0.7,3.5,0.8c2.1,0.1,4.2,0.2,6.3-0.1c1-0.1,1.9-0.3,2.8-0.7c0.8-0.3,1.2-1,1.2-2.1c0-0.8-0.2-0.9-0.8-0.9
		c-1.6,0-3.1,0.1-4.7,0c-0.8,0-1.1,0.2-1,1.1c0.1,0.7-0.1,1.1-0.8,1c-1.5-0.1-1.5,0-1.5-1.8c0-0.3,0-0.5,0-0.8
		c0-0.5,0.1-0.7,0.5-0.7C16.6,16.3,17.8,16.3,19.1,16.3z"/>
	<path fill="#FFFFFF" d="M15.8,14.7c-0.3-0.1-0.8,0.2-1-0.2c-0.2-0.5-0.2-1.3,0-1.8c0.3-0.6,1.1-0.5,1.6-0.5c0.4,0,0.6,0.3,0.6,0.8
		c0,0.1,0,0.2,0,0.3C17.1,14.7,17.1,14.7,15.8,14.7z"/>
</g>
</svg>
