<?xml version="1.0" encoding="utf-8"?>
<!-- Generator: Adobe Illustrator 24.3.0, SVG Export Plug-In . SVG Version: 6.00 Build 0)  -->
<svg version="1.1" id="Layer_1" xmlns="http://www.w3.org/2000/svg" xmlns:xlink="http://www.w3.org/1999/xlink" x="0px" y="0px"
	 viewBox="0 0 32 32" style="enable-background:new 0 0 32 32;" xml:space="preserve">
<style type="text/css">
	.st0{fill:#3973B9;}
	.st1{fill:#FFFFFF;}
</style>
<circle class="st0" cx="16" cy="16" r="15"/>
<g>
	<path class="st0" d="M28.44,13.06c0-0.08-0.03-0.15-0.1-0.21c-0.05-0.05-0.11-0.09-0.16-0.12c-0.12-0.07-0.25-0.11-0.35-0.21
		c-0.01-0.01-0.03-0.02-0.04-0.02c-0.07-0.03-0.13-0.08-0.17-0.14c-0.05-0.07-0.11-0.14-0.17-0.2c-0.12-0.13-0.24-0.26-0.33-0.42
		c-0.05-0.1-0.13-0.18-0.22-0.24c-0.07-0.05-0.13-0.11-0.19-0.17c-0.11-0.13-0.24-0.22-0.36-0.34c-0.12-0.12-0.26-0.18-0.41-0.22
		l-0.08-0.03c-0.03-0.01-0.06-0.03-0.08-0.05c-0.04-0.04-0.1-0.07-0.15-0.08c-0.11-0.03-0.22-0.08-0.31-0.15
		c-0.12-0.1-0.25-0.19-0.37-0.28c-0.12-0.1-0.25-0.2-0.36-0.32c-0.04-0.04-0.08-0.07-0.13-0.09c-0.17-0.06-0.29-0.18-0.4-0.31
		c-0.05-0.07-0.1-0.12-0.17-0.17c-0.08-0.06-0.16-0.13-0.23-0.21c-0.12-0.13-0.27-0.22-0.41-0.33c-0.02-0.01-0.04-0.02-0.06-0.03
		c-0.08-0.05-0.19-0.07-0.25-0.15c-0.11-0.11-0.22-0.22-0.35-0.3c-0.04-0.03-0.06-0.07-0.11-0.08c-0.07-0.02-0.12-0.07-0.17-0.12
		c-0.04-0.04-0.08-0.08-0.12-0.11c-0.08-0.07-0.16-0.14-0.23-0.22c-0.06-0.07-0.12-0.15-0.2-0.2c-0.16-0.1-0.29-0.24-0.4-0.38
		C21.23,7,21.05,6.93,20.9,6.81c-0.06-0.05-0.12-0.08-0.17-0.14c-0.1-0.12-0.22-0.22-0.34-0.32c-0.07-0.05-0.13-0.1-0.18-0.16
		c-0.08-0.1-0.19-0.18-0.26-0.29c-0.05-0.1-0.13-0.18-0.23-0.24c-0.19-0.11-0.35-0.26-0.51-0.41c-0.08-0.07-0.16-0.14-0.26-0.16
		c-0.02,0-0.04-0.01-0.06-0.03c-0.12-0.14-0.28-0.21-0.43-0.29c-0.02-0.01-0.04-0.03-0.05-0.05c-0.13-0.22-0.28-0.43-0.45-0.62
		c-0.01-0.01-0.03-0.03-0.03-0.04c-0.01-0.08-0.05-0.13-0.12-0.16c-0.02-0.01-0.04-0.03-0.05-0.05c-0.13-0.12-0.24-0.26-0.37-0.37
		c-0.05-0.04-0.09-0.09-0.13-0.13c-0.11-0.09-0.2-0.2-0.31-0.3l-0.28-0.23c-0.14-0.11-0.28-0.12-0.43-0.07
		c-0.09,0.03-0.18,0.08-0.27,0.12c-0.14,0.06-0.27,0.16-0.42,0.22c-0.08,0.03-0.15,0.08-0.22,0.15c-0.07,0.08-0.15,0.14-0.23,0.2
		c-0.06,0.04-0.1,0.09-0.14,0.15c-0.03,0.05-0.07,0.09-0.12,0.12c-0.12,0.08-0.23,0.18-0.33,0.29c-0.07,0.09-0.16,0.17-0.26,0.23
		L13.2,5.03l-0.14,0.12l-0.35,0.31c-0.1,0.09-0.21,0.17-0.32,0.24c-0.11,0.07-0.2,0.16-0.3,0.25c-0.12,0.1-0.24,0.19-0.35,0.31
		c-0.12,0.13-0.27,0.23-0.41,0.34c0,0-0.01,0-0.02,0l-0.02-0.11l-0.16-0.55c-0.01-0.03-0.03-0.07-0.04-0.1
		c-0.05-0.1-0.1-0.2-0.14-0.31c-0.05-0.17-0.2-0.29-0.38-0.3l-0.19,0c-0.11,0-0.22,0.02-0.32-0.01C9.89,5.18,9.71,5.15,9.52,5.17
		L8.91,5.18c-0.21,0.01-0.41,0-0.62,0c-0.08,0-0.16,0.01-0.23,0.02C7.89,5.22,7.73,5.29,7.57,5.33C7.42,5.36,7.31,5.45,7.21,5.54
		c-0.06,0.05-0.1,0.12-0.13,0.19C7.05,5.84,7,5.95,6.95,6.05C6.85,6.24,6.8,6.45,6.79,6.66c-0.02,0.31,0,0.61,0,0.92
		c0,0.14,0.02,0.28,0.06,0.42c0.02,0.09,0.03,0.18,0.03,0.27L6.87,8.85l0.01,1.39l0,0.22c0,0.04-0.01,0.07-0.04,0.09
		c-0.06,0.04-0.11,0.09-0.16,0.14c-0.13,0.13-0.27,0.26-0.45,0.33c-0.07,0.03-0.13,0.06-0.18,0.11c-0.07,0.06-0.14,0.1-0.22,0.14
		c-0.06,0.02-0.11,0.05-0.16,0.1c-0.08,0.06-0.15,0.12-0.22,0.19c-0.03,0.03-0.06,0.05-0.09,0.07c-0.06,0.04-0.12,0.08-0.16,0.14
		l-0.32,0.42c-0.05,0.07-0.12,0.12-0.19,0.16c-0.09,0.04-0.18,0.1-0.25,0.18c-0.12,0.13-0.26,0.25-0.41,0.35
		c-0.18,0.12-0.3,0.28-0.42,0.45c-0.01,0.02-0.02,0.05-0.03,0.07c-0.03,0.12-0.04,0.24-0.01,0.35l0.1,0.36
		c0.07,0.18,0.2,0.29,0.41,0.28c0.06,0,0.13,0,0.19,0.01c0.14,0.01,0.29,0.01,0.43,0.04c0.2,0.04,0.4,0.06,0.6,0.06l0.38,0
		c0.23,0.01,0.45,0,0.68-0.03c0.03-0.01,0.06,0.01,0.07,0.04c0.02,0.03,0.03,0.07,0.03,0.11c0,0.16,0.01,0.32,0.03,0.47
		c0.03,0.18,0.01,0.36,0.01,0.54c0,0.19,0.01,0.39,0.04,0.58c0.03,0.16,0.04,0.33,0.04,0.49c0,0.06,0,0.12,0.01,0.18
		c0.01,0.07,0.01,0.14,0,0.21c-0.02,0.17-0.04,0.35-0.02,0.52c0.03,0.24,0.03,0.47,0.03,0.71l0,0.08l0.03,0.9c0,0.01,0,0.03,0,0.04
		c0.03,0.23,0.03,0.46,0.02,0.7l-0.01,0.31l0,0.48l0.01,0.57c0.01,0.14,0.01,0.27,0,0.41L6.6,22.36l0.02,0.71
		c0,0.11,0.01,0.22,0.05,0.33c0.08,0.22,0.07,0.45,0.06,0.68L6.7,24.4c-0.01,0.16,0.02,0.32,0.02,0.48v1.7
		c0,0.2,0.03,0.39,0.09,0.58c0.03,0.09,0.07,0.17,0.14,0.23c0.07,0.07,0.15,0.14,0.23,0.2c0.22,0.17,0.45,0.32,0.69,0.45
		c0.08,0.05,0.17,0.07,0.26,0.07c0.22,0,0.44,0,0.66,0.05c0.05,0.01,0.1,0.02,0.14,0.01c0.14-0.01,0.29,0.01,0.43-0.05
		c0.01,0,0.02,0,0.03,0h0.47c0.28-0.01,0.56,0.01,0.84,0.03l0.31,0.03c0.19,0.01,0.38,0.01,0.57,0.06c0.07,0.02,0.15,0.02,0.22,0
		c0.15-0.05,0.3-0.05,0.45-0.06c0.23-0.02,0.46-0.03,0.69-0.02c0.14,0,0.28,0.02,0.42,0.05c0.09,0.02,0.18,0.03,0.27,0.03
		c0.04,0,0.08-0.01,0.12,0.01c0.12,0.07,0.24,0.04,0.37,0.03c0.11-0.01,0.22-0.01,0.33,0c0.04,0,0.08,0,0.12,0
		c0.33-0.06,0.66-0.03,0.99,0l0.57,0.02h0.22l0.45,0.02l0.27,0.02c0.2,0.01,0.4-0.02,0.6-0.02l1.12,0c0.18,0.01,0.36,0.01,0.54,0.04
		c0.17,0.04,0.34,0.05,0.51,0.05c0.06,0,0.13,0,0.19,0c0.06,0,0.13-0.01,0.19-0.02c0.09-0.03,0.18-0.04,0.27-0.04
		c0.02,0,0.04-0.01,0.06-0.01c0.08,0,0.16-0.04,0.24-0.05c0.22-0.03,0.45-0.03,0.68-0.04c0.33-0.01,0.65-0.08,0.97-0.15
		c0.19-0.04,0.38-0.1,0.58-0.11c0.02,0,0.04,0,0.05-0.01c0.07-0.03,0.15-0.04,0.22-0.03c0.27,0.02,0.53-0.02,0.79-0.05
		c0.19-0.02,0.37-0.07,0.55-0.1c0.02,0,0.03-0.01,0.05-0.02c0.06-0.04,0.13-0.07,0.2-0.1c0.09-0.05,0.17-0.1,0.24-0.18l0.24-0.28
		c0.05-0.06,0.08-0.12,0.1-0.2l0.1-0.31c0.06-0.18,0.05-0.36,0.05-0.54c-0.01-0.14-0.01-0.28,0.02-0.42
		c0.04-0.19,0.07-0.39,0.05-0.59c-0.02-0.14-0.03-0.28-0.03-0.43c0.03-0.29,0.03-0.58,0-0.87c-0.02-0.25-0.02-0.51,0-0.77
		c0.01-0.17,0.01-0.33,0.01-0.49c0-0.19-0.04-0.37-0.04-0.56c0-0.1,0.02-0.19-0.03-0.29c0-0.02-0.01-0.03,0-0.05l-0.01-0.9
		l0.01-0.91c0.01-0.2,0-0.39-0.01-0.59l-0.01-2.01c0-0.03,0-0.06-0.01-0.09c-0.02-0.09-0.02-0.17,0-0.26
		c0.05-0.3,0.02-0.61,0.05-0.91c0.02-0.19-0.01-0.39-0.02-0.58c-0.01-0.31,0-0.61,0.03-0.91c0-0.04,0.02-0.05,0.05-0.05
		c0.07,0,0.14,0.01,0.21,0.04c0.12,0.04,0.25,0.05,0.37,0.1c0.03,0.01,0.06,0.02,0.09,0.01c0.2-0.01,0.39,0.02,0.58,0.03l0.33,0
		c0.13,0,0.25-0.03,0.36-0.1c0.03-0.02,0.06-0.04,0.09-0.05c0.08-0.02,0.15-0.06,0.21-0.12c0.14-0.12,0.28-0.23,0.43-0.32
		c0.04-0.03,0.07-0.07,0.08-0.12l0.02-0.1c0.03-0.28,0.01-0.57,0.01-0.85L28.44,13.06z"/>
	<g>
		<path class="st1" d="M10.63,17.79c-0.02,0.09-0.04,0.18-0.04,0.28c-0.01,0.24,0,0.48,0,0.72c0,0.1,0,0.21,0.02,0.31
			c0.03,0.12,0.05,0.24,0.06,0.37c0.03,0.33,0.14,0.65,0.31,0.93c0.05,0.08,0.1,0.15,0.17,0.21c0.17,0.15,0.36,0.25,0.57,0.32
			c0.05,0.02,0.1,0.01,0.14-0.01c0.12-0.05,0.18-0.18,0.16-0.3c-0.06-0.28-0.13-0.56-0.14-0.85l-0.05-1.9l0-0.55l-0.03-0.89
			l-0.03-0.93c0-0.15-0.03-0.29-0.11-0.42c-0.11-0.18-0.27-0.25-0.48-0.19c-0.18,0.05-0.34,0.14-0.48,0.26
			c-0.1,0.08-0.17,0.18-0.22,0.29c-0.01,0.02-0.02,0.04-0.03,0.06c-0.12,0.14-0.2,0.3-0.28,0.46c-0.19,0.42-0.36,0.84-0.51,1.28
			c-0.09,0.26-0.15,0.52-0.2,0.79C9.44,18.01,9.44,18,9.44,17.99l0.05-1.1c0-0.02,0-0.04,0-0.06c0.01-0.09,0.01-0.17-0.02-0.26
			c-0.01-0.03-0.02-0.06-0.01-0.1l0.04-0.27c0.04-0.18,0.05-0.37,0.04-0.56l-0.03-1.26c0-0.12,0.02-0.23,0.05-0.34
			c0.03-0.08,0.06-0.17,0.06-0.26l0.02-1.2c0-0.06-0.01-0.12-0.04-0.18c-0.02-0.06-0.08-0.11-0.15-0.1
			c-0.14,0.01-0.28,0.02-0.41,0.12c-0.12,0.1-0.22,0.22-0.28,0.37C8.73,12.86,8.73,12.93,8.71,13l-0.16,0.8
			c-0.05,0.29-0.04,0.59-0.07,0.88l-0.03,0.45L8.4,15.65l-0.05,0.8l-0.03,1.22c-0.02,0.17,0,0.35,0,0.52c0,0.28,0.03,0.56,0.07,0.84
			c0.01,0.05,0.02,0.11,0.02,0.16c0.01,0.36,0.08,0.72,0.19,1.07c0.03,0.11,0.12,0.2,0.22,0.24c0.11,0.04,0.23,0.04,0.33-0.02
			c0.11-0.06,0.2-0.14,0.27-0.23c0.02-0.02,0.03-0.05,0.03-0.08c0.01-0.32,0.09-0.62,0.21-0.91l0.11-0.31l0.32-1.25
			c0.1-0.38,0.23-0.75,0.39-1.11c0.04-0.07,0.08-0.14,0.14-0.2c0.02,0.01,0.02,0.02,0.02,0.03l-0.01,1.22
			C10.65,17.71,10.64,17.75,10.63,17.79L10.63,17.79z M7.93,14.22c0.04,0,0.08-0.01,0.12-0.02c0.13-0.02,0.2-0.1,0.24-0.22
			c0.02-0.07,0.03-0.14,0.04-0.21l0.08-0.53c0.01-0.16,0.05-0.31,0.11-0.46l0.1-0.29c0.05-0.13,0.08-0.27,0.09-0.42l0.02-0.52
			l0.03-1.08l0.01-0.09c0-0.05,0.02-0.07,0.07-0.07c0.09,0,0.18,0.01,0.27,0.02c0.17,0.01,0.34-0.02,0.51-0.03
			c0.06,0,0.13-0.03,0.17-0.08c0.05-0.05,0.08-0.13,0.08-0.2c0.02-0.11,0-0.23-0.01-0.34C9.85,9.56,9.79,9.5,9.67,9.51l-0.3,0.03
			L8.88,9.59C8.79,9.6,8.79,9.6,8.79,9.5l0-0.11l-0.07-1.4C8.71,7.71,8.71,7.42,8.66,7.12c0.12-0.01,0.24,0.01,0.35,0.02l0.82,0.05
			c0.12,0.01,0.24,0.01,0.36-0.06c0.14-0.07,0.21-0.18,0.22-0.33c0-0.11-0.01-0.22-0.03-0.33c-0.03-0.15-0.13-0.23-0.28-0.23l-0.1,0
			L8.84,6.3l-0.66,0c-0.07,0-0.14,0.01-0.21,0.03c-0.2,0.06-0.29,0.2-0.23,0.41c0.01,0.02,0.01,0.05,0.01,0.07L7.73,7.76l-0.05,1.1
			l-0.06,3.8c-0.01,0.11,0,0.22,0,0.33c0.01,0.22,0.05,0.43,0.08,0.64c0.02,0.15,0,0.31,0.06,0.46c0.04,0.1,0.08,0.14,0.18,0.14
			L7.93,14.22z"/>
		<path class="st1" d="M10.32,9.79l-0.28,0.81c-0.07,0.24-0.13,0.48-0.11,0.73c0,0.02,0,0.05,0,0.07c-0.05,0.28-0.05,0.55-0.06,0.9
			c-0.01,0.36,0.05,0.79,0.18,1.2c0.05,0.19,0.15,0.37,0.28,0.52c0.13,0.16,0.33,0.26,0.54,0.26l0.27,0.01
			c0.34,0.02,0.68-0.08,0.95-0.28c0.23-0.17,0.39-0.4,0.54-0.64c0.03-0.04,0.04-0.09,0.05-0.14c0.02-0.1-0.03-0.16-0.12-0.18
			c-0.09-0.02-0.18,0.01-0.26,0.06c-0.12,0.08-0.23,0.19-0.32,0.31c-0.07,0.1-0.18,0.18-0.3,0.22c-0.1,0.03-0.18-0.01-0.26-0.03
			c-0.11-0.02-0.2-0.1-0.24-0.21c-0.14-0.37-0.22-0.74-0.19-1.13c0-0.03,0.01-0.06,0.01-0.1c0-0.05,0.04-0.09,0.08-0.09
			c0.06-0.01,0.11-0.03,0.17-0.05c0.24-0.12,0.48-0.25,0.7-0.4c0.05-0.03,0.09-0.07,0.12-0.12c0.12-0.19,0.22-0.39,0.3-0.6
			c0.1-0.26,0.16-0.53,0.15-0.82c-0.01-0.14-0.03-0.28-0.07-0.42c-0.04-0.15-0.08-0.29-0.19-0.4c-0.08-0.08-0.16-0.16-0.27-0.19
			c-0.21-0.06-0.41-0.12-0.64-0.06c-0.17,0.04-0.35,0.06-0.51,0.13c-0.04,0.02-0.07,0.04-0.1,0.07L10.37,9.7
			C10.35,9.72,10.33,9.75,10.32,9.79L10.32,9.79z M11.08,11.32c0.03-0.14,0.04-0.27,0.05-0.41c0.04-0.47,0.2-0.9,0.4-1.32
			c0.01-0.04,0.05-0.06,0.09-0.05c0.03,0,0.05,0.01,0.08,0.01c0.03,0,0.06,0.02,0.07,0.05c0.04,0.08,0.06,0.16,0.07,0.25l0,0.49
			c0,0.32-0.12,0.62-0.33,0.86l-0.16,0.18c-0.08,0.08-0.18,0.13-0.29,0.17C11.06,11.47,11.07,11.39,11.08,11.32L11.08,11.32z
			 M15.29,21.3c0-0.07-0.03-0.14-0.08-0.19c-0.03-0.03-0.07-0.07-0.09-0.11c-0.07-0.1-0.18-0.17-0.3-0.17l-0.28-0.02
			c-0.18-0.01-0.32,0.06-0.46,0.17c-0.07,0.06-0.11,0.14-0.12,0.23c-0.02,0.12-0.02,0.23,0,0.35c0.02,0.17,0.11,0.32,0.24,0.41
			c0.23,0.17,0.49,0.17,0.75,0.11c0.04-0.01,0.07-0.02,0.09-0.05c0.15-0.17,0.28-0.34,0.24-0.61L15.29,21.3L15.29,21.3z"/>
		<path class="st1" d="M13.3,26.03c-0.09-0.2-0.12-0.43-0.1-0.64c0.01-0.05-0.03-0.11-0.02-0.16l0.04-0.41l0.04-0.58
			c0-0.21-0.02-0.42-0.03-0.63l-0.04-1.05c-0.01-0.19-0.04-0.38-0.08-0.57c-0.03-0.12-0.07-0.24-0.14-0.34
			c-0.07-0.11-0.15-0.18-0.28-0.2c-0.09-0.01-0.18,0-0.27,0.04c-0.12,0.06-0.24,0.12-0.33,0.21c-0.17,0.15-0.29,0.35-0.35,0.57
			l-0.11,0.41c-0.05,0.2-0.11,0.4-0.2,0.59c-0.05,0.11-0.1,0.23-0.13,0.35L11.17,24c-0.01,0.04-0.03,0.07-0.05,0.1
			c-0.03-0.02-0.02-0.05-0.02-0.07l0-0.84c0-0.11,0.01-0.22,0.03-0.33c0.03-0.16,0.04-0.33,0.01-0.49
			c-0.05-0.34-0.09-0.69-0.21-1.01c-0.04-0.11-0.11-0.2-0.22-0.24c-0.1-0.05-0.21-0.08-0.31-0.1C10.29,21,10.17,21,10.07,21.06
			c-0.19,0.11-0.34,0.29-0.4,0.51L9.59,21.9c-0.07,0.26-0.15,0.52-0.16,0.8c0,0.16-0.01,0.33-0.12,0.47
			c-0.01,0.01-0.01,0.04-0.01,0.06c-0.03,0.2-0.08,0.39-0.15,0.57c-0.01,0.02-0.01,0.05-0.04,0.05c-0.01-0.01-0.01-0.03-0.01-0.05
			c0.01-0.2-0.01-0.41,0-0.61c0-0.1-0.05-0.18-0.06-0.27l-0.05-0.37c-0.02-0.13-0.03-0.27-0.08-0.4c-0.02-0.06-0.04-0.13-0.04-0.2
			c-0.02-0.19-0.05-0.39-0.13-0.56c-0.02-0.06-0.05-0.12-0.1-0.16c-0.14-0.13-0.32-0.2-0.5-0.2c-0.1,0-0.2,0.04-0.26,0.12
			c-0.1,0.12-0.15,0.27-0.16,0.42c-0.01,0.27,0.01,0.54,0.06,0.8c0.03,0.15,0.04,0.3,0.04,0.46c-0.01,0.28,0.01,0.56,0.02,0.85
			l0.02,0.71c0.01,0.23,0.04,0.47,0.01,0.7c-0.03,0.33,0.01,0.66,0.04,0.99c0.01,0.07,0,0.14,0.03,0.2
			c0.05,0.11,0.11,0.21,0.19,0.29c0.14,0.14,0.3,0.16,0.47,0.06c0.18-0.1,0.31-0.27,0.38-0.47l0.26-0.84l0.12-0.41
			c0.09-0.39,0.2-0.77,0.37-1.13c0.01-0.03,0.02-0.06,0.02-0.09c0.01-0.11,0.01-0.22,0.06-0.31c0.04-0.07,0.06-0.15,0.08-0.23
			c0.04-0.2,0.07-0.4,0.07-0.6c0-0.04,0-0.07,0.02-0.11c0.01,0.01,0.01,0.02,0.01,0.04c0.02,0.17,0.03,0.34,0.03,0.5l0,1.61
			c0,0.05-0.01,0.11-0.01,0.16c-0.04,0.24-0.07,0.49-0.06,0.73l0.02,0.59c0,0.2,0.06,0.37,0.14,0.54c0.13,0.27,0.42,0.31,0.66,0.09
			c0.01-0.01,0.01-0.01,0.02-0.02c0.04-0.13,0.11-0.24,0.13-0.37c0.07-0.38,0.17-0.75,0.36-1.09c0.01-0.02,0.02-0.04,0.02-0.06
			c0.03-0.16,0.08-0.31,0.14-0.45l0.43-1.18c0-0.01,0.01-0.03,0.03-0.02c0,0.01,0,0.02,0.01,0.03l0.03,0.73
			c0.01,0.14,0,0.28,0.04,0.42c0.02,0.08,0.03,0.16,0.03,0.24l0.06,1.3c0,0.11,0.04,0.22,0.1,0.32l0.09,0.13
			c0.04,0.06,0.1,0.12,0.16,0.17c0.07,0.05,0.14,0.08,0.22,0.07c0.03-0.01,0.06,0,0.08,0.02c0.15,0.1,0.38,0.06,0.49-0.09
			c0.12-0.17,0.21-0.36,0.15-0.58C13.34,26.18,13.31,26.11,13.3,26.03L13.3,26.03z M14.29,20.28c0.12-0.18,0.2-0.39,0.29-0.58
			l0.3-0.71c0.01,0.03,0.02,0.06,0.02,0.09c0.03,0.28,0.12,0.55,0.2,0.82c0.07,0.21,0.17,0.4,0.31,0.57
			c0.1,0.14,0.25,0.23,0.42,0.24l0.24,0.03c0.2,0.02,0.34-0.1,0.37-0.3l0-0.08c0-0.09-0.01-0.18-0.04-0.27l-0.25-0.79
			c0,0,0-0.01,0-0.01c-0.02-0.04-0.03-0.07-0.02-0.11l0.02-0.33l-0.02-0.71c-0.03-0.52-0.01-1.05,0-1.57c0-0.14,0.04-0.27,0.03-0.41
			c-0.01-0.27,0-0.53,0.05-0.79c0.03-0.14,0.04-0.29,0.03-0.44c-0.01-0.16-0.09-0.26-0.25-0.31c-0.08-0.02-0.16-0.02-0.24,0
			c-0.14,0.04-0.27,0.11-0.38,0.21c-0.09,0.08-0.17,0.16-0.24,0.25c-0.02,0.03-0.04,0.03-0.07,0c-0.02-0.02-0.03-0.03-0.05-0.05
			c-0.25-0.23-0.54-0.3-0.87-0.26c-0.24,0.04-0.48,0.13-0.68,0.27c-0.09,0.06-0.16,0.14-0.22,0.23l-0.35,0.69
			c-0.07,0.14-0.13,0.29-0.17,0.44c-0.13,0.41-0.2,0.84-0.27,1.26c-0.02,0.11-0.03,0.23-0.03,0.35l0.03,0.73l0.08,1.14
			c0.02,0.15,0.05,0.3,0.1,0.44c0.01,0.04,0.03,0.08,0.06,0.11c0.05,0.04,0.09,0.08,0.12,0.13c0.1,0.13,0.25,0.2,0.4,0.2l0.34,0
			c0.08,0,0.17-0.02,0.24-0.05C14,20.63,14.17,20.48,14.29,20.28L14.29,20.28z M13.8,18.56l0.02-0.31c0.01-0.08,0.02-0.15,0.05-0.23
			c0.04-0.1,0.05-0.2,0.06-0.3c0.02-0.15,0.03-0.3,0.03-0.45c0-0.22,0.03-0.43,0.08-0.64l0.17-0.73c0.03-0.12,0.07-0.23,0.13-0.33
			c0.03-0.05,0.06-0.09,0.1-0.12c0.04-0.04,0.11-0.05,0.16-0.03c0.08,0.03,0.16,0.06,0.23,0.11c0.06,0.04,0.09,0.11,0.07,0.17
			c-0.04,0.21-0.04,0.43-0.05,0.65l-0.07,1.03c-0.03,0.26-0.12,0.51-0.22,0.76l-0.62,1.54c-0.02,0.04-0.03,0.09-0.08,0.12
			c-0.02-0.05-0.03-0.1-0.03-0.15L13.8,18.56L13.8,18.56z M17.82,13.9c0.13,0.16,0.32,0.26,0.52,0.28c0.1,0.01,0.21,0.01,0.33,0.01
			h0.19c0.28,0,0.55-0.1,0.76-0.28c0.23-0.18,0.39-0.42,0.51-0.69c0.01-0.03,0.02-0.05,0.03-0.08c0.03-0.11-0.03-0.18-0.14-0.19
			c-0.09,0-0.17,0.03-0.23,0.08c-0.11,0.08-0.21,0.18-0.29,0.3c-0.11,0.16-0.28,0.3-0.55,0.21c-0.12-0.04-0.2-0.09-0.25-0.22
			c-0.13-0.3-0.23-0.61-0.22-0.95l0.01-0.16c0-0.05,0.04-0.09,0.09-0.1c0.06-0.01,0.12-0.04,0.18-0.07
			c0.19-0.11,0.38-0.23,0.56-0.36c0.08-0.06,0.16-0.11,0.21-0.2c0.12-0.2,0.21-0.41,0.29-0.62c0.14-0.42,0.19-0.84,0.03-1.26
			c-0.04-0.11-0.08-0.22-0.18-0.3c-0.07-0.06-0.14-0.12-0.24-0.14c-0.22-0.05-0.43-0.09-0.64,0.01c-0.02,0.01-0.04,0.01-0.06,0.01
			c-0.16,0.04-0.32,0.09-0.46,0.17c-0.05,0.03-0.09,0.06-0.12,0.11l-0.33,0.49c-0.02,0.03-0.04,0.07-0.05,0.1l-0.28,0.86
			c-0.04,0.14-0.09,0.27-0.08,0.42c0,0.16-0.01,0.32-0.03,0.48c-0.05,0.54-0.02,1.07,0.17,1.59C17.59,13.58,17.69,13.75,17.82,13.9
			L17.82,13.9z M18.58,11.29c0.01-0.03,0.01-0.06,0.01-0.09c-0.01-0.36,0.08-0.7,0.19-1.03l0.18-0.45c0.02-0.05,0.05-0.07,0.1-0.07
			c0.02,0,0.05,0,0.07,0c0.03-0.01,0.06,0.01,0.07,0.04c0.04,0.07,0.06,0.14,0.07,0.22l0.01,0.49c0.01,0.32-0.11,0.61-0.31,0.86
			c-0.08,0.1-0.15,0.21-0.25,0.28c-0.05,0.04-0.12,0.08-0.18,0.1C18.55,11.52,18.56,11.4,18.58,11.29L18.58,11.29z M19.92,14.55
			c-0.08,0-0.16,0.03-0.23,0.08c-0.1,0.07-0.18,0.17-0.24,0.28c-0.15,0.26-0.24,0.54-0.32,0.82c0,0.01-0.01,0.03-0.01,0.04
			l-0.04,0.5l-0.11,1.39c-0.05,0.57-0.18,1.13-0.34,1.68c-0.07,0.23-0.16,0.45-0.3,0.64c-0.03,0.03-0.05,0.09-0.1,0.08
			c-0.05-0.01-0.05-0.07-0.06-0.11c-0.05-0.27-0.08-0.54-0.09-0.82c-0.01-0.18,0.01-0.37,0.01-0.55l0.03-0.94l0.05-0.6l0.08-0.65
			l0.1-0.97c0.03-0.34-0.15-0.59-0.42-0.68c-0.13-0.04-0.26-0.06-0.4-0.06c-0.21-0.01-0.35,0.1-0.43,0.28l-0.12,0.3
			c-0.16,0.51-0.27,1.02-0.28,1.55l-0.03,0.92c0,0.08-0.01,0.16-0.01,0.24l0.08,1.06c0.01,0.12,0,0.25,0.05,0.36
			c0.04,0.09,0.07,0.18,0.09,0.27c0.02,0.09,0.05,0.18,0.09,0.27c0.02,0.04,0.03,0.08,0.03,0.12c0.02,0.16,0.08,0.32,0.18,0.45
			c0.1,0.14,0.21,0.26,0.38,0.32c0.14,0.05,0.58,0.05,0.71,0c0.22-0.09,0.4-0.24,0.52-0.45c0.13-0.23,0.24-0.46,0.34-0.71l0.16-0.38
			c0.04,0.07,0.04,0.13,0.06,0.18c0.14,0.4,0.39,0.73,0.67,1.04c0.02,0.02,0.04,0.03,0.05,0.04c0.16,0.08,0.32,0.14,0.49,0.18
			c0.09,0.02,0.18,0.03,0.27,0.02c0.14-0.01,0.26-0.11,0.29-0.25c0.02-0.06,0.01-0.13-0.03-0.18c-0.1-0.12-0.18-0.24-0.26-0.37
			c-0.05-0.07-0.08-0.15-0.1-0.23l-0.13-0.63c-0.03-0.08-0.04-0.16-0.06-0.24l-0.04-0.75c-0.02-0.58,0.01-1.16,0.04-1.75
			c0.01-0.08,0-0.16-0.04-0.24c-0.03-0.05-0.03-0.1-0.02-0.15c0.02-0.08,0.03-0.17,0.03-0.25l0.04-0.45
			c0.01-0.12,0.04-0.24,0.03-0.37c0-0.1-0.06-0.19-0.15-0.24c-0.04-0.02-0.09-0.04-0.13-0.06C20.19,14.52,20.05,14.55,19.92,14.55
			L19.92,14.55z"/>
		<path class="st1" d="M15.84,8.79c0.05,0.16,0.16,0.29,0.3,0.36c0.17,0.08,0.35,0.11,0.53,0.1c0.18,0,0.35-0.1,0.44-0.27
			c0.06-0.1,0.1-0.2,0.09-0.32l-0.02-0.23c0-0.06-0.03-0.12-0.08-0.16c-0.04-0.04-0.08-0.09-0.11-0.14
			c-0.09-0.13-0.2-0.21-0.37-0.21c-0.09,0-0.18,0-0.27-0.01c-0.14-0.02-0.25,0.04-0.36,0.11c-0.15,0.1-0.23,0.24-0.21,0.42
			C15.78,8.55,15.8,8.67,15.84,8.79L15.84,8.79z M12.89,11.07l0.01,1.17c0,0.05,0,0.1-0.01,0.16c-0.01,0.09-0.01,0.19-0.01,0.28
			c0,0.37,0.03,0.73,0.08,1.09c0.01,0.07,0.01,0.14,0.05,0.2c0.05,0.07,0.1,0.14,0.16,0.21c0.05,0.07,0.13,0.12,0.22,0.11
			c0.09,0,0.18-0.01,0.23-0.1c0.01-0.02,0.03-0.04,0.05-0.06c0.06-0.07,0.11-0.15,0.1-0.25c0-0.08,0-0.16,0.01-0.24
			c0.01-0.08,0-0.16,0.03-0.24c0.02-0.06,0.03-0.13,0.03-0.19l0.01-0.15c0.01-0.22,0.05-0.43,0.03-0.65c0-0.04,0-0.08,0.01-0.13
			l0.05-0.48c0.02-0.35,0.07-0.7,0.13-1.05c0.02-0.15,0.08-0.29,0.1-0.43c0.02-0.09,0.07-0.18,0.13-0.25l0.01,0.2
			c0.01,0.15,0.05,0.29,0.06,0.44c0.01,0.16,0.06,0.29,0.2,0.39c0.22,0.16,0.45,0.16,0.7,0.12c0.02,0,0.03-0.01,0.04-0.02
			c0.05-0.02,0.08-0.07,0.09-0.12c0.01-0.05-0.02-0.11-0.06-0.14c-0.03-0.02-0.05-0.04-0.08-0.05c-0.02-0.01-0.04-0.02-0.05-0.05
			c-0.04-0.12-0.09-0.24-0.08-0.37c0.01-0.3-0.01-0.6-0.06-0.89c-0.02-0.1-0.02-0.22-0.05-0.31c-0.04-0.12-0.12-0.2-0.28-0.2
			c-0.05,0-0.09,0-0.14-0.01c-0.03,0-0.05,0-0.08,0.01c-0.16,0.07-0.31,0.17-0.4,0.32c-0.08,0.12-0.14,0.24-0.2,0.38
			c-0.04,0.12-0.07,0.23-0.1,0.35l-0.12,0.59l-0.07-0.77c-0.02-0.25-0.09-0.48-0.21-0.7c-0.03-0.06-0.07-0.12-0.11-0.17
			c-0.02-0.04-0.06-0.06-0.1-0.07C13.17,8.99,13.1,9,13.03,9.03c-0.05,0.02-0.09,0.07-0.1,0.13c-0.02,0.1-0.03,0.19-0.03,0.29
			c-0.01,0.3,0.03,0.6,0.02,0.9L12.89,11.07L12.89,11.07z M15.69,11.15l0.03,0.4l0.12,1.2c0.05,0.33,0.14,0.65,0.29,0.95
			c0.15,0.31,0.41,0.48,0.75,0.51c0.11,0.01,0.22-0.02,0.3-0.1c0.1-0.11,0.11-0.23-0.03-0.31c-0.05-0.03-0.09-0.08-0.11-0.14
			c-0.12-0.32-0.14-0.66-0.21-0.98c-0.03-0.17-0.03-0.34-0.01-0.5c0-0.04,0-0.08,0-0.13c-0.03-0.29-0.02-0.58,0.04-0.86
			c0.06-0.32,0.09-0.65,0.1-0.98c0-0.14-0.01-0.17-0.07-0.34c-0.08-0.19-0.26-0.31-0.47-0.3c-0.16,0.01-0.32,0.04-0.47,0.09
			c-0.07,0.02-0.12,0.07-0.15,0.14c-0.03,0.08-0.06,0.16-0.07,0.24c-0.04,0.2-0.03,0.4-0.03,0.6c0,0.15,0.01,0.3-0.01,0.46
			C15.69,11.1,15.69,11.13,15.69,11.15L15.69,11.15z M21.29,24.72c0.05-0.01,0.09-0.03,0.14-0.05c0.22-0.13,0.44-0.27,0.63-0.44
			c0.04-0.03,0.07-0.07,0.09-0.11c0.11-0.21,0.19-0.42,0.26-0.65c0.06-0.2,0.09-0.4,0.09-0.6c-0.01-0.2-0.06-0.4-0.13-0.59
			c-0.06-0.18-0.21-0.31-0.39-0.37c-0.09-0.03-0.18-0.04-0.28-0.05c-0.15-0.02-0.28,0.03-0.42,0.05c-0.11,0.02-0.22,0.05-0.32,0.1
			c-0.05,0.02-0.09,0.06-0.12,0.1l-0.27,0.4c-0.03,0.04-0.05,0.08-0.06,0.13l-0.19,0.63c-0.07,0.25-0.12,0.5-0.09,0.77
			c0,0.03,0,0.06,0,0.09c-0.03,0.17-0.02,0.34-0.02,0.49c0,0.18,0.01,0.36,0.02,0.54c0.03,0.27,0.09,0.53,0.18,0.78
			c0.07,0.18,0.16,0.34,0.27,0.49c0.07,0.1,0.16,0.19,0.27,0.25c0.14,0.08,0.3,0.11,0.47,0.1c0.23-0.01,0.45-0.07,0.65-0.19
			c0.09-0.05,0.18-0.11,0.25-0.18c0.05-0.04,0.07-0.1,0.08-0.16c0-0.05,0-0.1-0.05-0.13c-0.05-0.03-0.09-0.01-0.13,0.02
			c-0.1,0.06-0.2,0.1-0.31,0.13c-0.21,0.04-0.41-0.03-0.48-0.24l-0.05-0.14c-0.06-0.16-0.07-0.32-0.1-0.48
			c-0.03-0.18-0.04-0.35-0.04-0.53l0-0.06C21.2,24.77,21.24,24.72,21.29,24.72L21.29,24.72z M21.24,24.01
			c0.03-0.18,0.02-0.36,0.03-0.54c0.03-0.38,0.14-0.75,0.3-1.1c0.01-0.03,0.03-0.06,0.07-0.05c0.05,0.01,0.11-0.02,0.15,0.04
			c0.04,0.06,0.06,0.12,0.07,0.19l0.03,0.48c0.01,0.28-0.07,0.55-0.24,0.77c-0.06,0.08-0.11,0.18-0.19,0.25
			c-0.06,0.06-0.14,0.11-0.22,0.15C21.24,24.14,21.24,24.07,21.24,24.01L21.24,24.01z"/>
		<path class="st1" d="M23.76,14.6c-0.08-0.07-0.18-0.11-0.29-0.13c-0.2-0.04-0.4-0.06-0.6-0.06c-0.09,0-0.19-0.02-0.3,0.02
			c-0.26,0.1-0.5,0.25-0.71,0.43c-0.21,0.2-0.37,0.44-0.51,0.69c-0.03,0.06-0.05,0.12-0.06,0.19l-0.08,0.8
			c-0.01,0.07-0.01,0.14,0,0.2L21.24,17c0.05,0.46,0.2,0.9,0.43,1.3l0.37,0.6l0.6,0.97c0.18,0.32,0.32,0.66,0.43,1.02
			c0.04,0.14-0.03,0.27-0.16,0.31c-0.24,0.06-0.48,0.04-0.67-0.18c-0.14-0.16-0.22-0.35-0.2-0.57c0.01-0.12-0.04-0.2-0.12-0.27
			c-0.13-0.12-0.39-0.09-0.5,0.05c-0.03,0.04-0.05,0.09-0.05,0.14c0,0.07,0.01,0.15,0.02,0.22c0.05,0.38,0.2,0.71,0.49,0.98
			c0.07,0.07,0.15,0.12,0.24,0.15c0.18,0.06,0.35,0.1,0.53,0.14c0.14,0.04,0.28,0.03,0.42-0.02c0.04-0.01,0.08-0.02,0.12-0.03
			c0.19-0.02,0.38-0.07,0.55-0.16c0.04-0.01,0.07-0.04,0.1-0.06c0.14-0.19,0.28-0.37,0.37-0.59c0.03-0.07,0.05-0.15,0.04-0.23
			l-0.03-0.41c-0.01-0.36-0.1-0.71-0.25-1.04l-0.36-0.78l-0.32-0.62c-0.15-0.23-0.27-0.46-0.39-0.71c-0.1-0.21-0.18-0.43-0.21-0.67
			c-0.03-0.27-0.02-0.53-0.01-0.8c0-0.02,0-0.03,0.01-0.05c0-0.02,0.01-0.04,0.03-0.06c0.07-0.07,0.12-0.16,0.21-0.21l0.23-0.12
			c0.1-0.05,0.22-0.04,0.31,0.01c0.1,0.06,0.16,0.15,0.17,0.26l0.05,0.47c0,0.13,0.13,0.25,0.25,0.28c0.13,0.03,0.27-0.02,0.35-0.13
			c0.08-0.11,0.12-0.24,0.13-0.38c0.01-0.4-0.15-0.74-0.4-1.04c-0.05-0.07-0.13-0.11-0.21-0.14C23.8,14.63,23.78,14.62,23.76,14.6
			L23.76,14.6z M20.46,13.14c0,0.08,0.02,0.16,0.04,0.24c0.05,0.12,0.08,0.24,0.12,0.36c0.01,0.05,0.04,0.09,0.07,0.12
			c0.06,0.07,0.14,0.12,0.22,0.15c0.13,0.04,0.26,0.05,0.39,0.04c0.13,0,0.25-0.06,0.33-0.15c0.16-0.2,0.29-0.43,0.36-0.67
			c0.07-0.25,0.19-0.49,0.27-0.74l0.14-0.43c0.03-0.12,0.06-0.23,0.11-0.34l0.12-0.28c0.06-0.11,0.12-0.23,0.17-0.35
			c0,0,0.01-0.01,0.03-0.01c0.03,0.12,0.05,0.24,0.05,0.36c0.01,0.23-0.04,0.46-0.05,0.7c-0.01,0.2-0.04,0.39,0.01,0.59l0.11,0.53
			c0.05,0.2,0.15,0.37,0.24,0.55c0.1,0.2,0.26,0.31,0.47,0.36c0.16,0.04,0.28-0.07,0.24-0.24c-0.02-0.06-0.03-0.11-0.05-0.17
			c-0.05-0.11-0.08-0.22-0.1-0.33l-0.04-0.43c-0.01-0.22-0.04-0.43-0.01-0.65c0.02-0.17,0.03-0.34,0.01-0.5
			c-0.02-0.19,0-0.37,0.02-0.55c0.02-0.18,0.02-0.37-0.01-0.55l-0.06-0.36c-0.05-0.19-0.15-0.35-0.36-0.39l-0.14-0.03
			c-0.18-0.03-0.34,0.02-0.45,0.17c-0.18,0.23-0.32,0.48-0.44,0.74c-0.18,0.39-0.31,0.8-0.44,1.2c-0.06,0.2-0.12,0.4-0.25,0.58
			c-0.02,0.03-0.04,0.06-0.07,0.08l0-0.33c0.02-0.16,0.02-0.32-0.01-0.48c-0.03-0.15-0.06-0.29-0.06-0.44l-0.04-1.61
			c0-0.06-0.01-0.11-0.03-0.16c-0.01-0.03-0.02-0.07-0.02-0.1c-0.03-0.14-0.08-0.27-0.22-0.34c-0.08-0.04-0.16-0.07-0.24-0.09
			c-0.13-0.04-0.26,0.03-0.3,0.15c-0.02,0.05-0.04,0.1-0.05,0.15c-0.09,0.37-0.14,0.76-0.14,1.14l0.03,0.89L20.46,13.14L20.46,13.14
			z M22.71,25.78c-0.1,0-0.22,0.11-0.22,0.21c0,0.1,0.08,0.19,0.18,0.2c0.13,0,0.23-0.09,0.22-0.22
			C22.89,25.89,22.79,25.79,22.71,25.78L22.71,25.78z M24.74,24.68c0-0.02-0.02-0.04-0.04-0.05c-0.02-0.01-0.05,0-0.06,0.01
			c-0.02,0.02-0.03,0.04-0.04,0.07c-0.01,0.04-0.02,0.08-0.04,0.11c-0.02,0.04-0.05,0.06-0.09,0.07s-0.08,0-0.11-0.03
			c-0.1-0.07-0.18-0.16-0.23-0.27c-0.02-0.03-0.02-0.07,0-0.1c0.06-0.09,0.1-0.19,0.13-0.29c0.01-0.04,0.02-0.08,0.02-0.11
			l-0.03-0.25c-0.03-0.14-0.08-0.27-0.19-0.36c-0.08-0.07-0.14-0.08-0.24-0.03c-0.17,0.1-0.3,0.24-0.29,0.46c0,0.05,0,0.11,0,0.16
			c0.04,0.24,0.13,0.46,0.25,0.67c0.04,0.07,0.08,0.15,0.14,0.21c0.07,0.08,0.14,0.17,0.24,0.22c0.07,0.04,0.14,0.07,0.22,0.03
			c0.16-0.07,0.29-0.17,0.35-0.34c0.03-0.06,0.03-0.13,0.01-0.19L24.74,24.68z M24.03,24.37c-0.11-0.22-0.2-0.42-0.21-0.64
			c0-0.01,0-0.01,0-0.02c-0.01-0.03,0.01-0.06,0.04-0.07c0.03-0.01,0.05,0.01,0.06,0.03c0.04,0.06,0.08,0.12,0.11,0.18
			C24.11,24.02,24.1,24.19,24.03,24.37L24.03,24.37z"/>
		<path class="st1" d="M15.3,26.34c-0.05-0.04-0.1-0.09-0.13-0.15c-0.15-0.32-0.17-0.67-0.27-1c-0.03-0.13-0.04-0.26-0.02-0.4
			c0.01-0.07,0.01-0.15,0-0.22c-0.04-0.27-0.03-0.55,0.04-0.82c0.05-0.25,0.08-0.5,0.09-0.76c0.01-0.19-0.14-0.42-0.31-0.48
			c-0.07-0.03-0.14-0.05-0.22-0.06c-0.2-0.01-0.4,0-0.6,0.03c-0.13,0.02-0.2,0.1-0.24,0.21l-0.02,0.06
			c-0.05,0.16-0.04,0.32-0.03,0.48c0.01,0.11,0.02,0.21,0.01,0.32c-0.01,0.13,0.01,0.25,0.02,0.38l0.16,1.18
			c0.05,0.33,0.16,0.65,0.32,0.94c0.17,0.34,0.45,0.55,0.82,0.63c0.09,0.02,0.17,0.03,0.26,0.02c0.09,0,0.16-0.05,0.22-0.12
			c0.05-0.07,0.05-0.12,0-0.19C15.37,26.38,15.34,26.36,15.3,26.34L15.3,26.34z M24.07,25.29c-0.11-0.07-0.19-0.16-0.26-0.27
			l-0.22-0.4l-0.18-0.4l-0.37-0.87c-0.02-0.08-0.05-0.15-0.09-0.22c-0.05-0.09-0.14-0.09-0.2-0.01c-0.02,0.03-0.03,0.06-0.03,0.09
			c0,0.16-0.01,0.32,0.05,0.47c0.03,0.1,0.07,0.2,0.11,0.29c0.03,0.07,0.03,0.08-0.05,0.1c-0.06,0.02-0.13,0.05-0.18,0.09
			c-0.08,0.04-0.14,0.12-0.16,0.21c-0.03,0.11-0.03,0.23,0,0.34c0.03,0.1,0.06,0.2,0.09,0.3c0.03,0.12,0.07,0.24,0.13,0.35
			l0.23,0.44c0.02,0.03,0.04,0.06,0.06,0.09c0.09,0.09,0.2,0.1,0.33,0.05c0.12-0.05,0.16-0.12,0.14-0.26l-0.03-0.24
			c-0.01-0.1-0.04-0.2-0.01-0.31l0.08,0.15c0.05,0.1,0.13,0.18,0.22,0.24c0.1,0.07,0.22,0.07,0.32,0
			C24.15,25.44,24.16,25.35,24.07,25.29L24.07,25.29z M23.26,25.59l-0.12-0.27c-0.08-0.21-0.15-0.42-0.22-0.63
			c-0.03-0.12-0.04-0.24-0.05-0.36c0-0.04,0.01-0.07,0.05-0.08c0.04-0.01,0.07,0.01,0.09,0.05c0.13,0.22,0.2,0.47,0.21,0.72
			c0,0.16,0.02,0.33,0.05,0.49C23.29,25.53,23.28,25.57,23.26,25.59L23.26,25.59z"/>
		<path class="st1" d="M20.2,26.36c-0.14-0.01-0.28-0.05-0.41-0.11c-0.05-0.03-0.11-0.05-0.14-0.1c-0.1-0.16-0.18-0.32-0.21-0.5
			c-0.02-0.14-0.04-0.28-0.04-0.41c-0.01-0.75-0.01-1.49,0.11-2.23c0.01-0.04-0.01-0.08,0.01-0.1c0.03-0.03,0.07-0.01,0.11-0.01
			c0.13-0.01,0.26-0.03,0.38-0.07c0.14-0.04,0.2-0.13,0.21-0.26c0-0.11-0.06-0.18-0.18-0.18c-0.05,0-0.1,0.01-0.14,0.03
			c-0.12,0.05-0.25,0.03-0.37,0.05c0-0.01,0-0.03,0-0.04c0.07-0.42,0.07-0.84,0.08-1.26c0-0.02,0-0.05-0.01-0.07
			c-0.02-0.13-0.08-0.25-0.13-0.36c-0.05-0.11-0.21-0.17-0.32-0.12c-0.05,0.02-0.09,0.05-0.14,0.06c-0.07,0.02-0.13,0.08-0.16,0.14
			c-0.06,0.12-0.12,0.24-0.15,0.37c-0.12,0.41-0.2,0.84-0.23,1.27c0,0.05-0.02,0.07-0.07,0.07c-0.07,0.01-0.13,0.03-0.2,0.03
			c-0.12,0.02-0.19,0.1-0.26,0.19c-0.01,0.01-0.01,0.03-0.02,0.05c0,0.1,0.06,0.2,0.15,0.24c0.06,0.02,0.13,0.04,0.2,0.03
			c0.04,0,0.06,0.01,0.05,0.06c0,0.02-0.01,0.05-0.01,0.07c-0.03,0.16-0.04,0.33-0.04,0.49l0.02,0.91c0.01,0.39-0.01,0.78,0.08,1.17
			c0.02,0.13,0.08,0.25,0.15,0.36l0.1,0.15c0.1,0.17,0.24,0.31,0.42,0.39c0.3,0.15,0.65,0.2,0.98,0.14
			c0.09-0.01,0.18-0.04,0.26-0.08c0.06-0.04,0.11-0.09,0.1-0.16C20.38,26.45,20.3,26.37,20.2,26.36L20.2,26.36z M17.96,25.39
			c-0.08-0.01-0.17,0.01-0.24,0.06c-0.12,0.08-0.22,0.18-0.3,0.3c-0.07,0.11-0.17,0.19-0.29,0.24C17.11,26,17.08,26,17.05,26
			c-0.12-0.02-0.23-0.05-0.33-0.11c-0.04-0.02-0.07-0.05-0.09-0.1c-0.1-0.22-0.18-0.44-0.23-0.68c-0.04-0.2-0.05-0.41-0.04-0.61
			c0-0.07,0.03-0.11,0.1-0.12c0.11-0.02,0.2-0.07,0.29-0.13l0.57-0.37c0.04-0.03,0.08-0.07,0.1-0.12c0.11-0.19,0.2-0.4,0.28-0.61
			c0.14-0.39,0.18-0.78,0.03-1.18c-0.05-0.12-0.09-0.24-0.2-0.33c-0.07-0.06-0.15-0.11-0.24-0.15c-0.11-0.04-0.23-0.06-0.34-0.06
			c-0.08,0-0.17-0.03-0.25,0c-0.07,0.02-0.14,0.04-0.21,0.05c-0.13,0.02-0.27,0.06-0.39,0.11c-0.05,0.02-0.1,0.05-0.13,0.1
			l-0.32,0.44c-0.02,0.03-0.04,0.05-0.05,0.08l-0.27,0.82c-0.05,0.18-0.09,0.36-0.08,0.55c0.01,0.05,0.01,0.11,0.01,0.16
			c-0.04,0.2-0.03,0.41-0.04,0.7c-0.02,0.41,0.08,0.89,0.24,1.36c0.08,0.24,0.21,0.45,0.4,0.61c0.13,0.11,0.29,0.18,0.46,0.19
			l0.4,0.02c0.24,0.02,0.48-0.04,0.69-0.16c0.33-0.19,0.52-0.49,0.68-0.83c0.01-0.03,0.02-0.06,0.02-0.1
			C18.1,25.45,18.06,25.39,17.96,25.39L17.96,25.39z M16.43,23.52c0.01-0.03,0.01-0.06,0.01-0.09c-0.01-0.47,0.11-0.91,0.3-1.33
			l0.06-0.13c0.01-0.03,0.05-0.06,0.08-0.05c0.14,0.01,0.16,0.02,0.21,0.15c0.01,0.02,0.02,0.05,0.02,0.07l0.02,0.5
			c0,0.24-0.06,0.47-0.18,0.67c-0.07,0.12-0.16,0.23-0.25,0.33c-0.08,0.09-0.18,0.16-0.3,0.2C16.4,23.75,16.41,23.63,16.43,23.52
			L16.43,23.52z"/>
	</g>
</g>
</svg>
