<?xml version="1.0" encoding="utf-8"?>
<!-- Generator: Adobe Illustrator 24.3.0, SVG Export Plug-In . SVG Version: 6.00 Build 0)  -->
<svg version="1.1" id="Layer_1" xmlns="http://www.w3.org/2000/svg" xmlns:xlink="http://www.w3.org/1999/xlink" x="0px" y="0px"
	 viewBox="0 0 32 32" style="enable-background:new 0 0 32 32;" xml:space="preserve">
<style type="text/css">
	.st0{fill:#0F6FEE;}
	.st1{fill:#FFFFFF;}
</style>
<circle class="st0" cx="16" cy="16" r="15"/>
<path class="st1" d="M25.5,18.503c-1.058,0-1.918,0.86-1.918,1.918c0,0.337,0.088,0.653,0.241,0.929
	c-1.811,1.187-3.871,1.564-6.152,1.124c2.5-1.131,4.207-2.642,4.284-2.71c0.111-0.099,0.174-0.241,0.174-0.389v-6.509
	c0-0.168-0.081-0.326-0.217-0.424l-5.607-4.028c-0.182-0.131-0.427-0.131-0.609,0l-5.607,4.028
	c-0.136,0.098-0.217,0.256-0.217,0.424v6.509c0,0.149,0.063,0.29,0.174,0.389c0.076,0.068,1.784,1.578,4.284,2.71
	c-2.281,0.44-4.341,0.063-6.152-1.124c0.153-0.275,0.241-0.592,0.241-0.929c0-1.058-0.86-1.918-1.918-1.918
	c-1.058,0-1.918,0.86-1.918,1.918c0,1.058,0.86,1.918,1.918,1.918c0.335,0,0.649-0.087,0.923-0.238
	c2.449,1.682,5.388,2.028,8.576,1.017c1.192,0.378,2.349,0.567,3.458,0.567c1.859,0,3.585-0.529,5.119-1.583
	c0.274,0.151,0.588,0.237,0.923,0.237c1.058,0,1.918-0.86,1.918-1.918C27.418,19.363,26.557,18.503,25.5,18.503z M5.626,20.421
	c0-0.482,0.392-0.875,0.875-0.875s0.875,0.392,0.875,0.875c0,0.482-0.392,0.875-0.875,0.875S5.626,20.903,5.626,20.421z M16,22.019
	c-0.235-0.082-0.473-0.172-0.713-0.269c-2.173-0.886-3.846-2.183-4.373-2.617v-6L16,9.48l5.085,3.653v6
	c-0.527,0.434-2.2,1.731-4.372,2.617C16.473,21.848,16.235,21.937,16,22.019z M25.5,21.296c-0.482,0-0.875-0.392-0.875-0.875
	c0-0.482,0.392-0.875,0.875-0.875c0.482,0,0.875,0.392,0.875,0.875C26.374,20.903,25.982,21.296,25.5,21.296z"/>
</svg>
