<?xml version="1.0" encoding="utf-8"?>
<!-- Generator: Adobe Illustrator 23.0.3, SVG Export Plug-In . SVG Version: 6.00 Build 0)  -->
<svg version="1.2" baseProfile="tiny" id="Layer_1" xmlns="http://www.w3.org/2000/svg" xmlns:xlink="http://www.w3.org/1999/xlink"
	 x="0px" y="0px" viewBox="0 0 32 32" xml:space="preserve">
<circle fill="#BA0E20" cx="16" cy="16" r="15"/>
<g>
	<g>
		<path fill="#FFFFFF" d="M20.1,10.8c0-0.6,0.2-1.1,0.5-1.6c-1.7,0.9-3.3,2-4.8,3.3c-1.2,1.1-2.3,2.3-3.2,3.7
			c-0.4,0.6-0.8,1.2-0.8,1.2s1.6-6.2,2.4-9.3c-0.9,0-1.8,0-2.6,0c-0.6,0-0.7,0-0.8,0.6c-0.6,2.6-1.2,5.2-1.9,7.8
			c-0.6,2.4-1.2,5-1.8,7.4c-0.1,0.3,0,0.3,0.3,0.3c0.9,0,1.7,0,2.6,0c0.2,0,0.3-0.1,0.4-0.3c0.2-0.8,1.1-4.4,1.1-4.4
			s0.8,2.9,1.1,4.4c0,0.2,0.2,0.3,0.4,0.3c0.9,0,1.9,0,2.8,0c0.4,0,0.4,0,0.3-0.4c-0.5-1.8-1.5-5.6-1.5-5.6s1-2.5,4.4-4.9
			c0.5-0.4,1.1-0.7,1.7-1.1C20.3,11.8,20.1,11.3,20.1,10.8z"/>
	</g>
	<path fill="#F7C201" d="M20.8,10.6c0-1.4,1.1-2.4,2.5-2.4c1.3,0,2.3,1.1,2.3,2.4c0,1.4-1.2,2.4-2.5,2.4
		C21.9,13,20.8,11.9,20.8,10.6z"/>
</g>
<g>
	<path fill="#FFFFFF" d="M21.9,18.1c0-0.1,0.1-0.1,0.2-0.1c0.3,0,0.6,0,0.9,0c-0.1,0.5-0.2,1-0.3,1.4c-0.2,1.1-0.5,2.1-0.7,3.1
		c-0.1,0.5-0.3,1.6-0.3,1.6h-1.1l0.1-0.6c0,0-0.4,0.4-0.6,0.5c-0.4,0.2-0.8,0.1-1.1-0.4c-0.2-0.4-0.2-0.9-0.1-1.4s0.2-0.9,0.5-1.4
		c0.2-0.3,0.4-0.6,0.8-0.8c0.4-0.2,0.9,0,1.1,0.4C21.5,20,21.7,18.9,21.9,18.1z M20,23c0.1,0.2,0.3,0.3,0.5,0.2
		c0.5-0.3,0.6-1.1,0.6-1.6c0-0.1,0-0.3-0.2-0.4c-0.1-0.1-0.3,0-0.5,0.2C20.1,21.6,19.8,22.4,20,23z"/>
	<path fill="#FFFFFF" d="M25.5,22.9c-0.2,0.4-0.4,0.9-0.9,1.1c-0.5,0.2-1,0.3-1.4,0.1c-0.5-0.2-0.7-0.6-0.7-1.1
		c0-0.9,0.2-1.6,0.8-2.3c0.4-0.5,1-0.7,1.7-0.6c0.5,0.1,0.7,0.4,0.8,0.9c0.1,0.3,0,0.9-0.1,1.4c0,0.1-0.1,0.1-0.1,0.1
		c-0.6,0-1.2,0-1.7,0c-0.1,0-0.3,0-0.3,0.1c0,0.2,0,0.3,0,0.5c0.1,0.3,0.4,0.4,0.7,0.2c0.2-0.1,0.2-0.2,0.3-0.3
		C24.8,22.9,25.2,22.9,25.5,22.9z M24.4,21.8c0.4,0,0.4,0,0.4-0.4l0,0c0-0.2-0.2-0.3-0.4-0.3c-0.4,0-0.6,0.4-0.7,0.7
		C23.8,21.8,24.3,21.8,24.4,21.8z"/>
	<circle fill="#FFFFFF" cx="17.9" cy="23.6" r="0.6"/>
</g>
</svg>
