<?xml version="1.0" encoding="utf-8"?>
<!-- Generator: Adobe Illustrator 23.0.3, SVG Export Plug-In . SVG Version: 6.00 Build 0)  -->
<svg version="1.2" baseProfile="tiny" id="Layer_1" xmlns="http://www.w3.org/2000/svg" xmlns:xlink="http://www.w3.org/1999/xlink"
	 x="0px" y="0px" viewBox="0 0 32 32" xml:space="preserve">
<circle cx="16" cy="16" r="15"/>
<path fill="#F2F2F2" d="M23.8,23c-0.8,0-1.5-0.5-2-1.1c-0.9-1-1.8-2.1-2.6-3.2c-0.2-0.2-0.1-0.3,0.1-0.5c0.5-0.4,0.9-0.9,1.2-1.5
	c0.8-1.6,0.1-3.3-1.7-3.7C18.4,13,18,13,17.7,13c-1.4,0-2.8,0-4.2,0c-0.1,0-0.3,0-0.4,0.1c0.1,0.1,0.2,0.1,0.3,0.1
	c0.9,0.1,1,0.2,1,1.1c0,1,0,2,0,3c0,0.8-0.5,1-0.8,1c-0.3,0-1.2,0-1.7,0c-0.7,0-0.8-0.3-0.9-0.9c0-0.4,0-5.7,0-7.5
	c0-0.5,0.2-0.8,0.7-0.8c0.2,0,0.4,0.1,0.5-0.2c-1.5,0-2.9,0-4.3,0c0.1,0.2,0.2,0.2,0.3,0.2c0.9,0.1,1,0.2,1,1.1c0,2.5,0,5.1,0,7.6
	c0,0.9-0.1,1-1,1.1c0,0-0.2,0.2,0.4,0.2c0.8,0,1.5,0,2.3,0c0.8,0,2.6,0,3,0c0.4,0,0.6,0.1,0.6,0.5c0,0.8,0,1.7-0.1,2.5
	c0,0.9-0.1,0.9-1,1.1c-0.1,0-0.1,0.1-0.1,0.2c0.4,0,3.8,0,4.2,0c0,0,0-0.1-0.1-0.1c-0.1,0-0.2,0-0.3,0c-0.8-0.1-0.9-0.2-1-1
	c0-0.9,0-1.8,0-2.7c0-0.1,0-0.3,0.1-0.3c0.2-0.1,1.3-0.1,1.6,0.4c0.7,0.9,1.3,1.7,1.9,2.6c1,1.5,2.6,1.4,4.1,1.2
	C24.2,23.2,23.8,23,23.8,23z M16.3,18.1c-0.2-0.1-0.2-0.2-0.2-0.4c0-0.6,0-1.1,0-1.7c0-0.6,0-1.3,0-1.9c0-0.3,0.1-0.4,0.4-0.5
	c1.7-0.1,2.8,1.2,2.5,3.1C18.9,17.8,17.8,18.4,16.3,18.1z"/>
</svg>
