<?xml version="1.0" encoding="utf-8"?>
<!-- Generator: Adobe Illustrator 23.0.3, SVG Export Plug-In . SVG Version: 6.00 Build 0)  -->
<svg version="1.2" baseProfile="tiny" id="Layer_1" xmlns="http://www.w3.org/2000/svg" xmlns:xlink="http://www.w3.org/1999/xlink"
	 x="0px" y="0px" viewBox="0 0 32 32" xml:space="preserve">
<circle fill="#20BABA" cx="16" cy="16" r="15"/>
<g>
	<path fill="#FFFFFF" d="M20.4,24.9c-1.5,0-2.7-1.2-2.7-2.7v-1.1c0-0.4,0.3-0.7,0.7-0.7h3.7c0.4,0,0.7,0.3,0.7,0.6
		c0.1,0.4,0.1,0.7,0.1,1.1c0.1,0.7-0.2,1.5-0.7,2C21.8,24.6,21.1,24.9,20.4,24.9z M18.4,21.1C18.4,21.1,18.4,21.1,18.4,21.1l0,1.1
		c0,1.2,1,1.9,2,1.9c0.5,0,1-0.2,1.4-0.6c0.4-0.4,0.6-0.9,0.5-1.5c0-0.3-0.1-0.6-0.1-1L18.4,21.1z"/>
	<path fill="#FFFFFF" d="M22.8,21c-0.1-0.3-0.3-0.5-0.6-0.5h-3.7c-0.4,0-0.6,0.3-0.6,0.6v1.1c0,1.4,1.2,2.6,2.6,2.6
		c1.5,0,2.7-1.3,2.6-2.8C22.9,21.8,22.9,21.4,22.8,21L22.8,21z M21.9,23.7c-1.3,1.4-3.5,0.5-3.5-1.4v-1.1c0-0.1,0.1-0.1,0.1-0.1h3.7
		c0.1,0,0.1,0,0.1,0.1c0.1,0.4,0.1,0.7,0.1,1C22.5,22.7,22.3,23.2,21.9,23.7L21.9,23.7z"/>
	<path fill="#FFFFFF" d="M11.6,24.9c-0.7,0-1.4-0.3-1.9-0.8c-0.5-0.5-0.8-1.3-0.7-2C9,21.7,9,21.4,9.1,21c0.1-0.4,0.4-0.6,0.7-0.6
		h3.7c0.4,0,0.7,0.3,0.7,0.7v1.1c0,0.8-0.3,1.4-0.8,1.9C13,24.7,12.3,24.9,11.6,24.9L11.6,24.9z M9.8,21.1
		C9.8,21.1,9.8,21.1,9.8,21.1c-0.1,0.4-0.1,0.7-0.1,1c0,0.5,0.1,1.1,0.5,1.5c0.4,0.4,0.9,0.6,1.4,0.6c1,0,2-0.7,2-1.9v-1.1L9.8,21.1
		z"/>
	<path fill="#FFFFFF" d="M13.6,20.5H9.8c-0.3,0-0.6,0.2-0.6,0.5c-0.1,0.4-0.1,0.7-0.1,1.1C9,22.8,9.3,23.5,9.8,24
		c1.6,1.7,4.4,0.6,4.4-1.8v-1.1C14.2,20.8,13.9,20.5,13.6,20.5L13.6,20.5z M13.7,22.3c0,1.9-2.3,2.8-3.5,1.4c-0.4-0.4-0.6-1-0.5-1.5
		c0-0.3,0.1-0.6,0.1-1c0-0.1,0.1-0.1,0.1-0.1h3.7c0.1,0,0.1,0.1,0.1,0.1L13.7,22.3z"/>
	<path fill="#FFFFFF" d="M19.2,20.2c-0.4,0-0.8-0.2-1.1-0.5c-0.3-0.3-0.5-0.7-0.5-1.2c0-1.7-0.3-2.7-0.6-3.6
		c-0.1-0.3-0.2-0.6-0.2-0.8c-0.2-1-0.3-2.1-0.3-3.1c0-0.2,0.2-0.3,0.4-0.3c0.1,0,0.2,0.1,0.3,0.1c0.1,0.1,0.1,0.2,0.1,0.3
		c-0.1,1,0,2,0.2,2.9c0.1,0.2,0.1,0.5,0.2,0.8c0.3,0.8,0.6,2,0.6,3.8c0,0.2,0.1,0.5,0.3,0.6c0.2,0.2,0.4,0.3,0.6,0.3h2.3
		c0.5,0,0.9-0.4,0.9-0.8c0.1-1,0.3-1.8,0.4-2.5c0.2-1,0.4-1.8,0.3-2.8c-0.3-1.8-0.8-3.3-1.6-4.6c-0.4-0.6-1.1-1-1.8-1
		c-0.9,0-1.9,0.5-2.2,1.7c0,0.2-0.1,0.4-0.1,0.6c0,0.2-0.2,0.3-0.4,0.3c-0.3,0-0.4-0.2-0.4-0.4c0-0.2,0.1-0.5,0.1-0.7
		C17,8,18.2,7.1,19.6,7.1c1,0,1.9,0.5,2.4,1.3c0.9,1.3,1.4,2.9,1.7,4.9c0.1,1.1-0.1,2-0.3,3.1c-0.2,0.7-0.3,1.5-0.4,2.4
		c-0.1,0.8-0.8,1.5-1.6,1.5H19.2z"/>
	<path fill="#FFFFFF" d="M23.6,13.3c-0.3-1.9-0.8-3.5-1.7-4.8c-1.4-2.1-4.6-1.5-5.1,0.9c-0.1,0.2-0.1,0.4-0.1,0.7
		c0,0.1,0.1,0.3,0.2,0.3c0.1,0,0.3-0.1,0.3-0.2c0-0.2,0.1-0.4,0.1-0.6c0.5-2,3.1-2.4,4.2-0.7c0.8,1.2,1.4,2.8,1.6,4.6
		c0.2,1.8-0.5,3-0.7,5.3c0,0.5-0.5,0.9-1,0.9h-2.3c-0.6,0-1-0.5-1-1c0-2.4-0.6-3.6-0.9-4.5c-0.2-1-0.3-2-0.2-2.9
		c0-0.1-0.1-0.3-0.2-0.3c-0.1,0-0.3,0.1-0.3,0.2c-0.1,1,0,2.1,0.2,3.1c0.2,1,0.9,2.2,0.9,4.4c0,0.8,0.7,1.5,1.5,1.5h2.3
		c0.8,0,1.4-0.6,1.5-1.4C23.1,16.4,23.9,15.1,23.6,13.3L23.6,13.3z"/>
	<path fill="#FFFFFF" d="M10.6,20.2c-0.8,0-1.5-0.7-1.6-1.5c-0.1-0.9-0.2-1.7-0.4-2.4c-0.2-1-0.4-1.9-0.3-3.1
		c0.1-0.6,0.3-1.7,0.7-2.8c0.1-0.1,0.2-0.2,0.3-0.2c0,0,0.1,0,0.1,0c0.2,0.1,0.3,0.3,0.2,0.5c-0.3,0.8-0.5,1.7-0.6,2.6
		c-0.1,1,0.1,1.9,0.3,2.8c0.2,0.7,0.3,1.5,0.4,2.5c0,0.5,0.4,0.8,0.9,0.8h2.3c0.2,0,0.5-0.1,0.6-0.3c0.2-0.2,0.3-0.4,0.3-0.6
		c0-1.8,0.4-2.9,0.6-3.8c0.1-0.3,0.2-0.5,0.2-0.8c0.3-1.5,0.3-3,0-4.5c-0.3-1.2-1.3-1.7-2.2-1.7c-0.8,0-1.4,0.4-1.8,1
		c-0.2,0.3-0.4,0.7-0.6,1C9.9,9.9,9.8,10,9.7,10c-0.1,0-0.1,0-0.2,0C9.3,9.9,9.3,9.7,9.3,9.5C9.5,9.1,9.7,8.7,10,8.4
		c0.6-0.8,1.4-1.3,2.4-1.3c1.4,0,2.6,0.9,2.9,2.3c0.4,1.6,0.4,3.2,0,4.8c-0.1,0.3-0.1,0.5-0.2,0.8c-0.3,0.9-0.6,1.9-0.6,3.6
		c0,0.4-0.2,0.8-0.5,1.2c-0.3,0.3-0.7,0.5-1.1,0.5H10.6z"/>
	<path fill="#FFFFFF" d="M10.1,8.4C9.8,8.8,9.6,9.1,9.4,9.5c-0.1,0.1,0,0.3,0.1,0.3c0.1,0.1,0.3,0,0.3-0.1c0.2-0.4,0.4-0.7,0.6-1
		c1.1-1.7,3.7-1.2,4.2,0.7c0.4,1.5,0.4,3,0,4.5c-0.2,1-0.9,2.2-0.9,4.5c0,0.6-0.4,1-1,1h-2.3c-0.5,0-1-0.4-1-0.9
		c-0.2-2.3-0.9-3.5-0.7-5.3c0.1-0.9,0.3-1.8,0.6-2.6c0-0.1,0-0.3-0.2-0.3c-0.1,0-0.3,0-0.3,0.2c-0.3,0.9-0.6,2-0.7,2.7
		c-0.2,2,0.5,3.1,0.7,5.4c0.1,0.8,0.7,1.4,1.5,1.4h2.3c0.8,0,1.5-0.7,1.5-1.5c0-2.3,0.6-3.4,0.9-4.4c0.4-1.6,0.4-3.2,0-4.8
		C14.6,7,11.4,6.3,10.1,8.4L10.1,8.4z"/>
</g>
</svg>
