<?xml version="1.0" encoding="utf-8"?>
<!-- Generator: Adobe Illustrator 23.0.3, SVG Export Plug-In . SVG Version: 6.00 Build 0)  -->
<svg version="1.1" id="Layer_1" xmlns="http://www.w3.org/2000/svg" xmlns:xlink="http://www.w3.org/1999/xlink" x="0px" y="0px"
	 viewBox="0 0 32 32" style="enable-background:new 0 0 32 32;" xml:space="preserve">
<style type="text/css">
	.st0{fill:#20BABA;}
	.st1{fill:#FFFFFF;}
</style>
<circle class="st0" cx="16" cy="16" r="15"/>
<g>
	<g>
		<g>
			<path class="st1" d="M19.4,16.6h-2.2c-0.6,0-1.1,0.5-1.1,1.1v1.7c0,0.6,0.5,1.1,1.1,1.1h2.2c0.6,0,1.1-0.5,1.1-1.1v-1.7
				C20.4,17.1,20,16.6,19.4,16.6z M19.7,19.4c0,0.2-0.1,0.3-0.3,0.3h-2.2c-0.2,0-0.3-0.1-0.3-0.3v-1.7c0-0.2,0.1-0.3,0.3-0.3h2.2
				c0.2,0,0.3,0.1,0.3,0.3V19.4z"/>
			<path class="st1" d="M24,13.6c0-0.1,0-0.1-0.1-0.2l-2.4-4.2C21.5,9.1,21.4,9,21.2,9H10.8c-0.1,0-0.3,0.1-0.3,0.2l-2.4,4.2
				C8,13.5,8,13.5,8,13.6c0,0.9,0.6,1.7,1.4,2.1v6.9c0,0.2,0.2,0.4,0.4,0.4h2.2c0,0,0,0,0,0h3c0,0,0,0,0,0h7.2
				c0.2,0,0.4-0.2,0.4-0.4v-6.9c0,0,0,0,0,0C23.4,15.3,24,14.5,24,13.6z M11,9.8h10l1.9,3.3H9.1L11,9.8z M19.4,13.9
				c-0.1,0.7-0.7,1.2-1.5,1.2c-0.7,0-1.4-0.5-1.5-1.2H19.4z M15.6,13.9c-0.1,0.7-0.7,1.2-1.5,1.2s-1.4-0.5-1.5-1.2H15.6z M8.8,13.9
				h3c-0.1,0.7-0.7,1.2-1.5,1.2C9.6,15.1,8.9,14.6,8.8,13.9z M14.6,22.2h-2.3V18c0-0.3,0.2-0.6,0.6-0.6H14c0.3,0,0.6,0.2,0.6,0.6
				L14.6,22.2L14.6,22.2z M21.8,22.2h-6.5V18c0-0.7-0.6-1.3-1.3-1.3h-1.1c-0.7,0-1.3,0.6-1.3,1.3v4.2h-1.4v-6.3c0,0,0.1,0,0.1,0
				c0.8,0,1.5-0.4,1.9-1c0.4,0.6,1.1,1,1.9,1c0.8,0,1.5-0.4,1.9-1c0.4,0.6,1.1,1,1.9,1c0.8,0,1.5-0.4,1.9-1c0.4,0.6,1.1,1,1.9,1
				c0,0,0.1,0,0.1,0L21.8,22.2L21.8,22.2z M21.7,15.1c-0.7,0-1.4-0.5-1.5-1.2h3C23.1,14.6,22.4,15.1,21.7,15.1z"/>
		</g>
	</g>
	<g>
	</g>
	<g>
	</g>
	<g>
	</g>
	<g>
	</g>
	<g>
	</g>
	<g>
	</g>
	<g>
	</g>
	<g>
	</g>
	<g>
	</g>
	<g>
	</g>
	<g>
	</g>
	<g>
	</g>
	<g>
	</g>
	<g>
	</g>
	<g>
	</g>
</g>
</svg>
