<?xml version="1.0" encoding="utf-8"?>
<!-- Generator: Adobe Illustrator 25.2.1, SVG Export Plug-In . SVG Version: 6.00 Build 0)  -->
<svg version="1.1" id="Layer_1" xmlns="http://www.w3.org/2000/svg" xmlns:xlink="http://www.w3.org/1999/xlink" x="0px" y="0px"
	 viewBox="0 0 32 32" style="enable-background:new 0 0 32 32;" xml:space="preserve">
<style type="text/css">
	.st0{fill:#F9D300;}
</style>
<circle class="st0" cx="16" cy="16" r="15"/>
<g>
	<path d="M18.24,21.46c-0.85,0.28-1.29,0.34-2.16,0.34c-1.95,0-3.08-0.28-3.08-2.46c0-1.1,0.11-2.23,0.11-3.33
		c0-0.69,0.02-1.47-0.85-1.47c-0.96,0-1.1,1.24-1.1,1.95c0,0.71-0.02,1.45-0.02,2.16c0,0.99-0.02,1.93,0.16,2.89
		c-0.76,0.14-1.49,0.25-2.27,0.25c-1.65,0-2.64-0.57-2.64-2.34c0-1.01,0.09-2.04,0.09-3.05c0-1.52-0.02-3.17-0.57-4.59
		c0.8-0.21,1.63-0.44,2.48-0.44c1.31,0,2.46,0.3,2.66,1.77c0.96-1.22,2.13-1.77,3.7-1.77c3.49,0,3.01,2.75,3.01,5.23
		C17.76,18.23,17.89,19.88,18.24,21.46z"/>
	<path d="M24.55,17.65v2.41c0,3.24-1.19,6.96-5.05,6.96c-2.23,0-2.23-1.1-2.23-3.01c0.39,0.18,0.71,0.3,1.15,0.3
		c1.33,0,1.63-1.08,1.7-2.2c0.07-1.15,0.07-2.27,0.07-3.42c0-2.27,0.05-4.62-0.64-6.8c0.83-0.25,1.68-0.44,2.55-0.44
		c1.93,0,2.53,0.85,2.53,2.71C24.62,15.33,24.55,16.48,24.55,17.65z M23.52,10.35c-1.65,0-3.54-0.76-3.54-2.69
		c0-1.31,0.96-2.09,2.23-2.09c1.19,0,2,0.44,2,1.75c0,0.48-0.05,0.99-0.05,1.47c0,0.6,0.16,0.96,0.44,1.47
		C24.23,10.31,23.89,10.35,23.52,10.35z"/>
</g>
</svg>
