<?xml version="1.0" encoding="utf-8"?>
<!-- Generator: Adobe Illustrator 24.3.0, SVG Export Plug-In . SVG Version: 6.00 Build 0)  -->
<svg version="1.1" id="Layer_1" xmlns="http://www.w3.org/2000/svg" xmlns:xlink="http://www.w3.org/1999/xlink" x="0px" y="0px"
	 viewBox="0 0 32 32" style="enable-background:new 0 0 32 32;" xml:space="preserve">
<style type="text/css">
	.st0{fill:#2E2E37;}
	.st1{fill:#FFFFFF;}
</style>
<circle class="st0" cx="16" cy="16" r="15"/>
<g>
	<g>
		<path class="st1" d="M16.54,15.97c-0.02,1.55-0.32,3.02-1.34,4.24c-1.4,1.67-3.26,2.09-5.33,1.83c-2.5-0.32-4.22-2.11-4.59-4.69
			c-0.16-1.16-0.13-2.31,0.18-3.45c0.71-2.62,2.92-4.15,5.71-4.01c2.2,0.12,3.89,1,4.8,3.09C16.34,13.81,16.54,14.89,16.54,15.97z
			 M7.33,16.09c0.01,1.14,0.16,2.28,0.76,3.31c0.59,1.02,1.46,1.59,2.65,1.61c1.49,0.03,2.56-0.67,3.14-2.13
			c0.78-1.95,0.76-3.92-0.01-5.87c-0.52-1.33-1.5-2.06-2.96-2.06c-1.46-0.01-2.45,0.72-3.04,2.03C7.44,13.96,7.34,15,7.33,16.09z"/>
		<path class="st1" d="M22.99,16.06c0,1.37,0,2.74,0,4.11c0,0.63,0.06,0.69,0.64,0.92c0.13,0.05,0.28,0.23,0.28,0.34
			c-0.01,0.12-0.19,0.23-0.31,0.33c-0.03,0.02-0.08,0.02-0.12,0.02c-0.96,0-1.92,0.02-2.88-0.01c-0.15,0-0.3-0.22-0.45-0.33
			c0.13-0.12,0.24-0.33,0.38-0.36c0.47-0.07,0.61-0.37,0.61-0.78c0-2.84,0.01-5.68-0.01-8.52c0-0.66-0.15-0.74-0.82-0.8
			c-0.96-0.08-1.69,0.23-2.16,1.09c-0.15,0.27-0.36,0.42-0.66,0.25c-0.31-0.17-0.21-0.43-0.11-0.67c0.17-0.42,0.33-0.85,0.55-1.24
			c0.09-0.16,0.33-0.33,0.51-0.33c2.43-0.02,4.86-0.02,7.29,0c0.17,0,0.42,0.18,0.51,0.34c0.23,0.44,0.41,0.9,0.56,1.37
			c0.05,0.15-0.03,0.45-0.13,0.5c-0.15,0.07-0.43,0.04-0.56-0.07c-0.22-0.18-0.37-0.46-0.56-0.69c-0.42-0.5-1.72-0.79-2.27-0.45
			c-0.16,0.1-0.26,0.39-0.28,0.61c-0.04,0.51-0.02,1.02-0.02,1.53C22.98,14.16,22.98,15.11,22.99,16.06z"/>
	</g>
</g>
</svg>
