<svg xmlns="http://www.w3.org/2000/svg" viewBox="0 0 158.33 190"><defs><style>.cls-1{fill:#333;}</style></defs><title>ra-logo-fill</title><g id="Layer_2" data-name="Layer 2"><g id="Layer_1-2" data-name="Layer 1"><path class="cls-1" d="M130.26,48.35A94.59,94.59,0,0,0,114.58,22h0A94.43,94.43,0,0,0,88,0,94.44,94.44,0,0,0,39.51,90C57.28,59.81,93.28,42.74,127.92,48,128.66,48.06,130.26,48.35,130.26,48.35Z"/><path class="cls-1" d="M93.43,168a94.82,94.82,0,0,0,64.9,5.7,99.69,99.69,0,0,0-37.47-31.43,100.26,100.26,0,0,1-28.38,25.27Z"/><path class="cls-1" d="M129.22,52.09c-41,19.33-60.29,72-41.29,113.13h0c39.71-21.16,59-72,43.33-114.13C130.61,51.41,129.92,51.74,129.22,52.09Z"/><path class="cls-1" d="M0,123.42a99.82,99.82,0,0,0,11.58,1A106.77,106.77,0,0,1,8.13,112,100.28,100.28,0,0,0,0,123.42Z"/><path class="cls-1" d="M83.52,167.63c-24.17-14.09-41.47-38.82-46.88-66.22a25.17,25.17,0,0,0-24.94,6.53C21.64,172.3,97.85,210,155,179A99.17,99.17,0,0,1,83.52,167.63Z"/><path class="cls-1" d="M40.71,99.41a94.65,94.65,0,0,0,41.11,62.1C66.52,121.39,84,72.9,121.23,51.56,88.1,49,55.18,67.58,40.37,97.35,40.47,98,40.59,98.73,40.71,99.41Z"/></g></g></svg>