<?xml version="1.0" encoding="utf-8"?>
<!-- Generator: Adobe Illustrator 23.0.3, SVG Export Plug-In . SVG Version: 6.00 Build 0)  -->
<svg version="1.1" id="Layer_1" xmlns="http://www.w3.org/2000/svg" xmlns:xlink="http://www.w3.org/1999/xlink" x="0px" y="0px"
	 viewBox="0 0 32 32" style="enable-background:new 0 0 32 32;" xml:space="preserve">
<style type="text/css">
	.st0{fill:#008BCE;}
	.st1{fill:#FFFFFF;}
</style>
<g>
	<circle class="st0" cx="16" cy="16" r="15"/>
</g>
<g>
	<path class="st1" d="M19.605,7.404c-3.438,0-6.457,2.097-7.799,5.032c-0.587-0.168-1.174-0.252-1.761-0.252
		c-3.438,0-6.206,2.767-6.206,6.206s2.767,6.206,6.206,6.206l0,0h9.476l0,0h0.084c4.78,0,8.554-3.858,8.554-8.554
		C28.243,11.262,24.385,7.404,19.605,7.404z"/>
	<path class="st0" d="M21.046,18.158l-2.916-2.916c-0.029-0.034-0.053-0.07-0.085-0.103l-0.755-0.755
		c-0.338-0.338-0.761-0.505-1.183-0.502c-0.422-0.002-0.845,0.164-1.183,0.502l-0.755,0.755c-0.032,0.032-0.056,0.069-0.085,0.102
		l-2.917,2.917c-0.671,0.671-0.671,1.677,0,2.348l0.571,0.571v2.177c0,0.741,0.601,1.342,1.342,1.342h2.229v-1.949
		c0-0.414,0.336-0.75,0.75-0.75c0.414,0,0.75,0.336,0.75,0.75v1.949h2.26c0.741,0,1.342-0.601,1.342-1.342V21.14l0.634-0.634
		C21.633,19.919,21.633,18.828,21.046,18.158z"/>
</g>
</svg>
