<svg id="Layer_1" data-name="Layer 1" xmlns="http://www.w3.org/2000/svg" xmlns:xlink="http://www.w3.org/1999/xlink" viewBox="0 0 64.36 64.36"><defs><style>.cls-1{fill:url(#linear-gradient);}.cls-2{fill:#fff;}</style><linearGradient id="linear-gradient" x1="55.94" y1="8.42" x2="9.12" y2="55.24" gradientUnits="userSpaceOnUse"><stop offset="0" stop-color="#5bcdf4"/><stop offset="1" stop-color="#29abe2"/></linearGradient></defs><circle class="cls-1" cx="32.18" cy="32.18" r="32.05"/><path d="M22.3,46.51c-.94,0-1.68-.47-1.71-1.36h1.14a.5.5,0,0,0,.54.5c.31,0,.51-.15.51-.41,0-.81-2.19-.37-2.18-1.93,0-.83.68-1.29,1.6-1.29s1.6.47,1.64,1.31H22.69a.48.48,0,0,0-.51-.46.4.4,0,0,0-.45.4c0,.76,2.17.42,2.17,1.89A1.41,1.41,0,0,1,22.3,46.51Z"/><path d="M24.73,43.87H24.3V43h.43v-.85h1.06V43h.7v.89h-.7v1.4c0,.2.09.29.33.29h.38v.91H26a1.08,1.08,0,0,1-1.23-1.22Z"/><path d="M28.42,42.93a1.24,1.24,0,0,1,1.08.54V43h1.07v3.49H29.5V46a1.25,1.25,0,0,1-1.08.55,1.82,1.82,0,0,1,0-3.59Zm.31.93a.87.87,0,1,0,.76.86.77.77,0,0,0-.76-.86Z"/><path d="M33.74,43H34.9l-2.19,5.14H31.56l.8-1.77L30.94,43h1.2L33,45.16Z"/><path d="M37.63,43a1.61,1.61,0,0,1,1.63,1.75,1.63,1.63,0,0,1-1.63,1.77,1.45,1.45,0,0,1-1.35-.81v2.37h-.44v-5h.44v.75A1.43,1.43,0,0,1,37.63,43Zm-.08.38a1.38,1.38,0,0,0,0,2.75,1.38,1.38,0,0,0,0-2.75Z"/><path d="M40,42.08a.32.32,0,0,1,.32-.31.32.32,0,1,1,0,.63.32.32,0,0,1-.32-.32Zm.1,1h.44v3.42h-.44Z"/><path d="M43,43a1.48,1.48,0,0,1,1.57,1.17h-.47a1,1,0,0,0-1.1-.79,1.21,1.21,0,0,0-1.21,1.38A1.22,1.22,0,0,0,43,46.15a1,1,0,0,0,1.1-.8h.47A1.5,1.5,0,0,1,43,46.51,1.76,1.76,0,0,1,43,43Z"/><path d="M45.33,41.84h.43v2.74l1.38-1.53h.61l-1.62,1.7,1.63,1.72h-.59l-1.41-1.53v1.53h-.43Z"/><path d="M49.8,46.52a1.76,1.76,0,0,1,0-3.52,1.54,1.54,0,0,1,1.61,1.58,2,2,0,0,1,0,.35H48.57a1.19,1.19,0,0,0,1.23,1.22,1.06,1.06,0,0,0,1.1-.77h.46A1.49,1.49,0,0,1,49.8,46.52Zm-1.23-2H51a1.12,1.12,0,0,0-1.19-1.19,1.17,1.17,0,0,0-1.21,1.19Z"/><path d="M52.65,46.47h-.44V43.05h.44v.61A1.18,1.18,0,0,1,53.82,43v.45H53.7c-.57,0-1.05.26-1.05,1.12Z"/><path class="cls-2" d="M28.08,16.13c.29.08.38.25.25.5a83.27,83.27,0,0,0-5.13,10.1Q21,32,19.13,37.35c-.81,2.36-1.55,4.73-2.24,7.12l-.51,1.75c-.11.36-.23.71-.35,1.06l-.12.38a.82.82,0,0,1-1,.59.82.82,0,0,1-.78-.54,6,6,0,0,1-.32-1.15c-.28-1.4-.52-2.81-.75-4.22Q12.26,37,11.44,31.58c-.17-1.16-.33-2.32-.49-3.47l-.54-3.69c-.16-1-.32-2-.49-2.93l-.24-1.37a2.56,2.56,0,0,1,0-.27.49.49,0,0,0,0-.12h0a2,2,0,0,1,0-.23c0-.19,0-.37-.05-.55a.35.35,0,0,1,.36-.37.7.7,0,0,1,.87.63v0q.35,1.44.6,2.88.44,2.79.86,5.57l0,.2q.4,2.71.81,5.4l.39,2.64c.05.31.09.63.14,1,.14.92.29,1.85.42,2.77.23,1.41.45,2.83.68,4.25l.2,1.32,0,.1a.3.3,0,0,0,0,.1c0,.09.06.13.14.12l.09,0a.1.1,0,0,0,.06,0c.1-.31.2-.61.29-.92A151.92,151.92,0,0,1,21.41,27.7C22.2,25.82,23.06,24,24,22.17s1.93-3.58,3-5.33c.1-.16.2-.31.31-.46A.74.74,0,0,1,28.08,16.13Z"/><path class="cls-2" d="M27.39,37.38a5.4,5.4,0,0,1-.95,1.27,3,3,0,0,1-1.51.89A1.7,1.7,0,0,1,23.32,39a2.16,2.16,0,0,1-.44-.78,2.36,2.36,0,0,1-.1-.88V37c0-.3,0-.65,0-1A4.88,4.88,0,0,1,23,34.88c.09-.32.23-.52.43-.58.57-.15.87.05.93.59,0,.17,0,.34,0,.51a1.06,1.06,0,0,0,0,.25c0,.25,0,.5,0,.75s0,.39,0,.59c0,.87.18,1.38.58,1.54s.85,0,1.36-.52a4.6,4.6,0,0,0,1-1.27c.16-.35.28-.42.35-.22A1.2,1.2,0,0,1,27.39,37.38Zm-3.15-4.93a.58.58,0,0,1-.29.12.29.29,0,0,1-.41-.23,1.55,1.55,0,0,1,0-.31.19.19,0,0,1,0-.07,1.67,1.67,0,0,1,.08-.32.66.66,0,0,1,.75-.39.38.38,0,0,1,.3.15.33.33,0,0,1,.05.32A1.68,1.68,0,0,1,24.24,32.45Z"/><path class="cls-2" d="M39.24,37q.36-1.14.51-1.08t0,.66a11.58,11.58,0,0,1-.39,1.28,2.58,2.58,0,0,1-.92,1.19,2.64,2.64,0,0,1-1.3.55,3.1,3.1,0,0,1-1.76-.23,2.53,2.53,0,0,1-1.05-1A4.64,4.64,0,0,1,33.8,37a11.18,11.18,0,0,1-.8,1.63,4.07,4.07,0,0,1-1.21,1.3,2.55,2.55,0,0,1-1.75.37,2.65,2.65,0,0,1-1.65-.86,4.15,4.15,0,0,1-.87-1.58,8.62,8.62,0,0,1-.35-1.75c-.11-.93-.19-2.15-.24-3.67s0-3.11.05-4.79a28.64,28.64,0,0,1,.6-4.7A8.31,8.31,0,0,1,29,19.59,1.6,1.6,0,0,1,30.23,19a1.65,1.65,0,0,1,1.26.54,3.17,3.17,0,0,1,.81,1.84,11,11,0,0,1-.15,3.54,23.38,23.38,0,0,1-1,3.77c-.45,1.24-.92,2.36-1.39,3.38s-.89,1.83-1.23,2.43a13.85,13.85,0,0,0,.15,1.58,10.41,10.41,0,0,0,.45,1.83,3.56,3.56,0,0,0,.83,1.42,1,1,0,0,0,1.32,0,5.38,5.38,0,0,0,1.35-1.49,11,11,0,0,0,1-2c-.09-.81-.16-1.88-.21-3.2s0-2.72.06-4.18A25.64,25.64,0,0,1,34,24.44a7.25,7.25,0,0,1,1.25-2.93,1.52,1.52,0,0,1,2.22,0,2.92,2.92,0,0,1,.73,1.62,10.83,10.83,0,0,1-.38,4.19,28.81,28.81,0,0,1-1.52,4.23c-.59,1.32-1.1,2.33-1.5,3a13.25,13.25,0,0,0,.13,1.4,8.15,8.15,0,0,0,.4,1.6,3.21,3.21,0,0,0,.75,1.25,1.55,1.55,0,0,0,1.89,0A3.4,3.4,0,0,0,39.24,37Zm-10.5-9.09c0,.35-.07.87-.11,1.56s-.06,1.4-.09,2.13-.07,1.41-.1,1.87A21.38,21.38,0,0,0,29.59,31a29.92,29.92,0,0,0,1.18-3.86,27,27,0,0,0,.7-4.82A4.33,4.33,0,0,0,31,20.25c-.25-.36-.52-.39-.82-.09A3.81,3.81,0,0,0,29.49,22q-.42,2.36-.63,4.74C28.82,27.15,28.78,27.53,28.74,27.93Zm6.27.88-.09,1.36c0,.6-.06,1.22-.08,1.85s-.06,1.24-.08,1.65a20.7,20.7,0,0,0,1-2.2,25.2,25.2,0,0,0,1.06-3.38,22.78,22.78,0,0,0,.62-4.19A3.79,3.79,0,0,0,37,22.09c-.22-.32-.47-.34-.73-.08a3.36,3.36,0,0,0-.63,1.65c-.25,1.36-.43,2.74-.55,4.13l-.12,1Z"/><path class="cls-2" d="M49.51,34.32a1.53,1.53,0,0,1,.88-.34,2.35,2.35,0,0,1,.75,0,1.51,1.51,0,0,1,.64.33.42.42,0,0,1,.09.14.24.24,0,0,1,0,.2.3.3,0,0,1-.29.17,1.27,1.27,0,0,1-.28,0L51,34.71l-.16-.08a.33.33,0,0,0-.39,0,.46.46,0,0,0-.14.38,2,2,0,0,0,.37,1c.24.34.47.66.71.95l.24.29c.06.07.24.06.52,0a10.64,10.64,0,0,0,1.54-.71c.75-.4,1.12-.52,1.12-.39s-.29.38-.86.73-1,.61-1.28.79-.41.28-.41.32a3.33,3.33,0,0,1,.16.6,3.54,3.54,0,0,1,.07.92,1.53,1.53,0,0,1-.31.87,1.37,1.37,0,0,1-1,.46,2.37,2.37,0,0,1-1.23-.2,1.2,1.2,0,0,1-.67-.77,1.4,1.4,0,0,1,.33-1.17,3.34,3.34,0,0,1,.75-.65l.31-.22c-.35-.38-.69-.77-1-1.18a4,4,0,0,1-.31-.45,12.87,12.87,0,0,1-1.18,1.73,4.55,4.55,0,0,1-1.77,1.47,2.11,2.11,0,0,1-1.6-.07c-.52-.24-.81-.87-.88-1.89a5.55,5.55,0,0,1-1.72,2.24,2.55,2.55,0,0,1-1.68.38,1.78,1.78,0,0,1-1.37-.78A2.26,2.26,0,0,1,39,37.83a5,5,0,0,1,.5-1.55,4,4,0,0,1,.8-1,4.29,4.29,0,0,1,1.1-.75,2.87,2.87,0,0,1,1.41-.33,3.29,3.29,0,0,1,1.52.47s0,0,0,0a.71.71,0,0,1,0-.2.43.43,0,0,1,.14-.19,1,1,0,0,1,.65-.2.61.61,0,0,1,.57.37,3.91,3.91,0,0,1-.12,1.2,4.39,4.39,0,0,0,0,2.32c.2.48.6.5,1.22.08a10.31,10.31,0,0,0,2.34-3.2A2.35,2.35,0,0,1,49.51,34.32Zm-8.78,4.62a.76.76,0,0,0,.94-.08,4.72,4.72,0,0,0,1-1.06,9.78,9.78,0,0,0,.84-1.38,3.91,3.91,0,0,0,.37-1,1.84,1.84,0,0,0-1.73-.18A2.49,2.49,0,0,0,41,36.37a4.45,4.45,0,0,0-.5,1.55A1.19,1.19,0,0,0,40.73,38.94Zm10.11,1.21a.36.36,0,0,0,.34-.28,1.47,1.47,0,0,0,.07-.59,2,2,0,0,0-.06-.48.16.16,0,0,0-.11-.13.22.22,0,0,0-.18,0,1.46,1.46,0,0,0-.42.59.64.64,0,0,0,0,.63.7.7,0,0,0,.13.17.5.5,0,0,0,.2.08Z"/></svg>