<?xml version="1.0" encoding="utf-8"?>
<!-- Generator: Adobe Illustrator 25.0.1, SVG Export Plug-In . SVG Version: 6.00 Build 0)  -->
<svg version="1.1" id="Layer_1" xmlns="http://www.w3.org/2000/svg" xmlns:xlink="http://www.w3.org/1999/xlink" x="0px" y="0px"
	 viewBox="0 0 32 32" style="enable-background:new 0 0 32 32;" xml:space="preserve">
<style type="text/css">
	.st0{fill:#D20000;}
	.st1{fill:#FFFFFF;}
</style>
<circle class="st0" cx="16" cy="16" r="15"/>
<g>
	<g>
		<path class="st1" d="M17.37,25.44l-2.6-7.35h-1.41l-1.16,7.35H9l2.97-18.87h6.12c1.86,0,3.2,0.53,4.01,1.6
			c0.81,1.07,1.08,2.48,0.8,4.22c-0.22,1.43-0.75,2.62-1.58,3.58c-0.83,0.96-1.9,1.6-3.22,1.92l2.82,7.54H17.37z M13.77,15.49h2.64
			c1.83,0,2.9-0.95,3.2-2.86c0.14-0.91,0.03-1.62-0.34-2.13C18.9,10,18.25,9.74,17.31,9.74h-2.64L13.77,15.49z"/>
	</g>
</g>
</svg>
