<?xml version="1.0" encoding="utf-8"?>
<!-- Generator: Adobe Illustrator 23.0.3, SVG Export Plug-In . SVG Version: 6.00 Build 0)  -->
<svg version="1.2" baseProfile="tiny" id="Layer_1" xmlns="http://www.w3.org/2000/svg" xmlns:xlink="http://www.w3.org/1999/xlink"
	 x="0px" y="0px" viewBox="0 0 32 32" xml:space="preserve">
<circle fill="#E6E6E6" cx="16" cy="16" r="15"/>
<g>
	<path fill="#64B5E6" d="M10.5,18c-0.6-0.3-1-0.6-1.4-1.1C8.2,16,7.7,15,7.6,13.8c-0.2-1.5,0.1-2.8,1-4c0.9-1.2,2.1-1.9,3.5-2.2
		c0.2,0,0.4-0.1,0.6-0.1c0.3,0,0.5,0,0.8,0c0,0,0.1,0,0.1,0c0.3,0,0.6,0.1,0.8,0.1C15,7.8,15.5,8,16,8.3c0,0,0,0,0,0
		c0,0-0.1,0-0.1,0.1c-0.8,0.5-1.5,1.2-1.9,2.1c-0.4,0.7-0.6,1.5-0.6,2.3c0,0.2,0,0.5,0,0.7c0,0.2,0,0.4,0.1,0.6
		c-0.8,0.4-1.4,1-1.9,1.7C11,16.4,10.7,17.2,10.5,18z"/>
	<path fill="#FCC300" d="M16,8.4C16,8.3,16,8.3,16,8.4c0.6-0.4,1.2-0.6,1.9-0.7c0.2,0,0.4-0.1,0.6-0.1c0.3,0,0.6,0,0.8,0
		c0.2,0,0.4,0.1,0.7,0.1c2.3,0.5,3.8,1.9,4.3,4.2c0.5,2-0.1,3.8-1.5,5.2c-0.3,0.3-0.7,0.6-1.1,0.9c0,0-0.1,0-0.1,0.1
		c0-0.1-0.1-0.3-0.1-0.4c-0.3-1.1-0.9-2.1-1.7-2.8c-0.3-0.3-0.7-0.6-1.1-0.7c0-0.1,0-0.3,0-0.4c0-0.5,0-1-0.1-1.4
		c-0.2-1.3-0.8-2.4-1.9-3.3C16.5,8.7,16.3,8.5,16,8.4z"/>
	<path fill="#E35F75" d="M21.5,18c0.3,1.7-0.2,3.2-1.3,4.6c-0.9,1-2,1.7-3.3,1.9c-1.9,0.3-3.5-0.3-4.8-1.6c-0.8-0.8-1.3-1.9-1.5-3
		c-0.1-0.6-0.1-1.2,0-1.7c0,0,0.1,0,0.1,0c1.2,0.6,2.4,0.7,3.7,0.4c0.6-0.1,1.1-0.3,1.6-0.7c0,0,0,0,0.1,0c0.1,0.1,0.2,0.2,0.3,0.2
		c0.7,0.3,1.4,0.5,2.2,0.6c0.5,0,1,0,1.6-0.1C20.6,18.4,21,18.2,21.5,18z"/>
	<path fill="#E54111" d="M21.5,18c-0.4,0.2-0.9,0.4-1.4,0.5c-0.5,0.1-1,0.2-1.6,0.1c-0.8-0.1-1.5-0.3-2.2-0.6
		c-0.1-0.1-0.3-0.1-0.3-0.2c0,0,0.1-0.1,0.1-0.1c1.1-0.7,1.8-1.7,2.2-2.9c0.1-0.3,0.1-0.5,0.2-0.8c0.4,0.2,0.8,0.4,1.1,0.7
		c0.9,0.8,1.5,1.7,1.7,2.8C21.4,17.7,21.5,17.9,21.5,18C21.5,18,21.5,18,21.5,18z"/>
	<path fill="#694669" d="M16,17.8c-0.5,0.3-1.1,0.5-1.6,0.7c-1.3,0.3-2.5,0.1-3.7-0.4c0,0-0.1,0-0.1,0c0,0,0,0,0,0
		c0.2-0.8,0.5-1.6,1-2.3c0.5-0.7,1.1-1.3,1.9-1.7c0.1,0.7,0.4,1.4,0.8,2C14.6,16.8,15.2,17.4,16,17.8z"/>
	<path fill="#FEFEFD" d="M16,17.8c-0.7-0.5-1.3-1.1-1.8-1.8c-0.4-0.6-0.6-1.3-0.8-2c0-0.2,0-0.4-0.1-0.6c0,0,0-0.1,0-0.1
		c0.1-0.6,0.6-1,1.1-1.1c0.6-0.1,1.2,0.2,1.4,0.8c0,0,0,0.1,0.1,0.2c0,0,0-0.1,0-0.1c0.3-0.7,1.1-1,1.8-0.7c0.5,0.2,0.8,0.7,0.8,1.2
		c0,0.1,0,0.3,0,0.4c-0.1,0.3-0.1,0.5-0.2,0.8C18,16,17.2,17,16.1,17.7C16.1,17.8,16.1,17.8,16,17.8C16,17.8,16,17.8,16,17.8z"/>
	<path fill="#75912C" d="M18.6,13.6c0-0.6-0.3-1-0.8-1.2c-0.7-0.3-1.5,0-1.8,0.7c0,0,0,0.1,0,0.1c0-0.1,0-0.1-0.1-0.2
		c-0.2-0.5-0.8-0.8-1.4-0.8c-0.5,0.1-1,0.5-1.1,1.1c0,0,0,0.1,0,0.1c0-0.2,0-0.5,0-0.7c0-0.8,0.3-1.6,0.6-2.3
		c0.5-0.9,1.1-1.6,1.9-2.1c0,0,0.1-0.1,0.1-0.1c0.3,0.1,0.5,0.3,0.7,0.5c1,0.9,1.6,2,1.9,3.3C18.7,12.6,18.7,13.1,18.6,13.6z"/>
</g>
</svg>
