<?xml version="1.0" encoding="utf-8"?>
<!-- Generator: Adobe Illustrator 23.0.3, SVG Export Plug-In . SVG Version: 6.00 Build 0)  -->
<svg version="1.2" baseProfile="tiny" id="Layer_1" xmlns="http://www.w3.org/2000/svg" xmlns:xlink="http://www.w3.org/1999/xlink"
	 x="0px" y="0px" viewBox="0 0 32 32" xml:space="preserve">
<circle fill="#00B087" cx="16" cy="16" r="15"/>
<g>
	<path fill="#050404" d="M5.3,11.7c1,0,1.9,0,2.8,0c0.4,0,0.7-0.1,1-0.3c1.4-0.8,2.9-1.3,4.5-1.5c2.1-0.3,4.2-0.2,6.3,0.4
		c1.1,0.3,2.1,0.7,3,1.4c0.1,0.1,0.2,0.1,0.3,0.1c1.1,0,2.2,0,3.3,0c0,0.1,0,0.1-0.1,0.1c-0.4,0.6-0.7,1.2-0.9,1.8
		c0,0.1,0,0.2,0,0.3c2.2,3.2,0.3,7.6-3.5,8.3c-1.9,0.3-3.5-0.3-4.8-1.7c-0.1-0.1-0.2-0.1-0.3,0c-0.3,0.5-0.7,1-1.1,1.5
		c-0.3-0.5-0.6-0.9-1-1.4c-0.2-0.3-0.2-0.3-0.4,0c-1.5,1.5-3.3,2.1-5.3,1.5c-2-0.6-3.3-1.9-3.8-4c-0.4-1.5-0.1-2.9,0.8-4.2
		c0.1-0.1,0.1-0.1,0-0.2c-0.2-0.7-0.5-1.3-0.9-1.8C5.4,11.8,5.4,11.8,5.3,11.7z M10.7,21.2c2.3,0,4.3-1.9,4.3-4.2
		c0-2.4-1.9-4.3-4.3-4.3c-2.4,0-4.3,1.9-4.3,4.3C6.4,19.3,8.3,21.2,10.7,21.2z M21.3,21.2c2.4,0,4.3-1.9,4.3-4.3
		c0-2.3-1.9-4.3-4.3-4.3c-2.3,0-4.3,1.9-4.3,4.2C17,19.3,18.9,21.2,21.3,21.2z M21.1,11.6c-3.4-1.3-6.8-1.3-10.2,0
		c2.9,0.3,4.6,1.9,5.2,4.8C16.3,13.8,18.4,11.8,21.1,11.6z"/>
	<path fill="#FCFBFC" d="M10.7,21.2c-2.4,0-4.3-1.9-4.3-4.3c0-2.4,1.9-4.3,4.3-4.3c2.4,0,4.3,1.9,4.3,4.3C15,19.3,13,21.2,10.7,21.2
		z M10.6,19.5c1.4,0,2.6-1.2,2.6-2.6c0-1.4-1.2-2.6-2.6-2.6c-1.5,0-2.6,1.1-2.6,2.6C8.1,18.4,9.2,19.5,10.6,19.5z"/>
	<path fill="#FCFBFC" d="M21.3,21.2c-2.4,0-4.3-1.9-4.3-4.4c0-2.3,2-4.2,4.3-4.2c2.3,0,4.3,1.9,4.3,4.3
		C25.6,19.3,23.7,21.2,21.3,21.2z M23.9,16.9c0-1.4-1.2-2.6-2.6-2.6c-1.4,0-2.6,1.2-2.6,2.6c0,1.4,1.1,2.6,2.6,2.6
		C22.8,19.5,23.9,18.4,23.9,16.9z"/>
	<path fill="#FCC40F" d="M21.1,11.6c-2.6,0.2-4.8,2.2-5,4.8c-0.5-2.9-2.3-4.5-5.2-4.8C14.3,10.3,17.7,10.3,21.1,11.6z"/>
	<path fill="#050404" d="M10.6,19.5c-1.4,0-2.6-1.1-2.6-2.6c0-1.5,1.1-2.6,2.6-2.6c1.4,0,2.6,1.1,2.6,2.6
		C13.2,18.3,12.1,19.5,10.6,19.5z M10.7,15.2c-1,0-1.8,0.8-1.8,1.8c0,1,0.8,1.8,1.8,1.8c1,0,1.8-0.8,1.8-1.8
		C12.4,16,11.6,15.2,10.7,15.2z"/>
	<path fill="#050404" d="M23.9,16.9c0,1.4-1.2,2.6-2.6,2.6c-1.4,0-2.6-1.2-2.6-2.6c0-1.4,1.1-2.6,2.6-2.6
		C22.8,14.3,23.9,15.5,23.9,16.9z M19.6,16.9c0,1,0.8,1.8,1.8,1.8c1,0,1.8-0.8,1.8-1.8c0-1-0.8-1.8-1.8-1.8
		C20.4,15.1,19.6,15.9,19.6,16.9z"/>
	<path fill="#FCFBFC" d="M10.7,15.2c1,0,1.8,0.8,1.8,1.8c0,1-0.8,1.8-1.8,1.8c-1,0-1.8-0.8-1.8-1.8C8.9,15.9,9.7,15.2,10.7,15.2z
		 M10.5,17.8c0.5,0,0.9-0.4,0.9-0.9c0-0.5-0.4-0.9-0.9-0.9c-0.5,0-0.9,0.4-0.9,0.9C9.6,17.4,10,17.8,10.5,17.8z"/>
	<path fill="#FCFBFC" d="M19.6,16.9c0-1,0.8-1.8,1.8-1.8c1,0,1.8,0.8,1.8,1.8c0,1-0.8,1.8-1.8,1.8C20.3,18.7,19.5,17.9,19.6,16.9z
		 M21.2,16.1c-0.5,0-0.9,0.4-0.9,0.9c0,0.5,0.4,0.9,0.9,0.9c0.5,0,0.9-0.4,0.9-0.9C22.1,16.4,21.7,16.1,21.2,16.1z"/>
	<path fill="#EF6A45" d="M10.5,17.8c-0.5,0-0.9-0.4-0.9-0.9c0-0.5,0.4-0.9,0.9-0.9c0.5,0,0.9,0.4,0.9,0.9
		C11.4,17.4,11,17.8,10.5,17.8z"/>
	<path fill="#00B087" d="M21.2,16.1c0.5,0,0.9,0.4,0.9,0.9c0,0.5-0.4,0.9-0.9,0.9c-0.5,0-0.9-0.4-0.9-0.9
		C20.3,16.4,20.7,16.1,21.2,16.1z"/>
</g>
</svg>
