<?xml version="1.0" encoding="utf-8"?>
<!-- Generator: Adobe Illustrator 28.0.0, SVG Export Plug-In . SVG Version: 6.00 Build 0)  -->
<svg version="1.1" id="Layer_1" xmlns="http://www.w3.org/2000/svg" xmlns:xlink="http://www.w3.org/1999/xlink" x="0px" y="0px"
	 viewBox="0 0 32 32" style="enable-background:new 0 0 32 32;" xml:space="preserve">
<style type="text/css">
	.st0{fill:#0277BA;}
	.st1{stroke:#FFFFFF;stroke-width:0.1422;stroke-linecap:round;}
	.st2{fill:#FFFFFF;stroke:#000000;stroke-width:0.2133;stroke-linecap:round;}
	.st3{stroke:#000000;stroke-width:0.1422;stroke-linecap:round;}
	.st4{stroke:#F5DF03;stroke-width:0.2133;stroke-linecap:round;}
	.st5{fill:none;stroke:#000000;stroke-width:7.109573e-02;stroke-linecap:round;}
	.st6{fill:#FFFFFF;stroke:#000000;stroke-width:0.1422;stroke-linecap:round;}
	.st7{fill:none;stroke:#000000;stroke-width:0.1422;stroke-linecap:round;}
	.st8{fill:#F5DF03;stroke:#000000;stroke-width:0.1422;stroke-linecap:round;}
	.st9{fill:#FFFFFF;stroke:#000000;stroke-width:0.2133;}
	.st10{stroke:#000000;stroke-width:0.2844;stroke-linecap:round;}
	.st11{fill:none;stroke:#000000;stroke-width:0.1066;stroke-linecap:round;}
	.st12{fill:#49B132;}
	.st13{fill:none;stroke:#000000;stroke-width:0.2133;stroke-linecap:round;}
	.st14{stroke:#000000;stroke-width:0.3413;stroke-linecap:round;stroke-miterlimit:4.8;}
</style>
<g>
	<path class="st0" d="M3.5,1h25v17.5C28.5,25.4,22.9,31,16,31S3.5,25.4,3.5,18.5V1z"/>
	<path class="st1" d="M16,4v11.5"/>
	<g transform="matrix(-1 0 0 1 356-1.155e-5)">
		<g id="e">
			<path class="st2" d="M16,4.6h3 M18.4,5.3H16 M16,4h0.4V3h0.9v1h0.9V3H19v1.6l-0.6,0.8l0.4,9.2h5.3v8l1.4,3.9h-9.5"/>
			<path class="st3" d="M15.9,24.2h2.7v-7.7L15.9,15"/>
			<path class="st4" d="M17.8,15.9v2.7 M16.9,15.9v2.7 M18.7,16.9H16 M18.7,17.9H16 M16,15.9v2.7"/>
			<path class="st2" d="M23.5,7.2h-4.3 M22.8,7.8H20 M23.5,5.8v1.4l-0.7,0.6l0.2,6.8h-3.3L20,7.8l-0.7-0.6V5.8h0.9v0.9H21V5.8h0.9
				v0.9h0.9V5.8H23.5z"/>
			<path class="st5" d="M17.6,11.7h-1 M20.3,15.6v1.1 M22.9,15.6v1.1 M21.6,14.5v1.1 M19.1,15.6v-1.1 M24.2,16.8h-5.3 M24.2,15.6
				h-6.5 M22.9,17.9v1.1 M21.6,17.9v-1.1 M24.2,19.1H21 M24.2,17.9H21 M22.9,20.2v1.1 M21.6,20.2v-1.1 M24.2,21.3H21 M24.2,20.2H21
				 M21.6,22.5v-1.1 M17.1,5.3v1.3 M18.4,6.6H16 M17.1,7.9v1.3 M17.1,10.5v1.3 M16,10.5V9.2 M18.6,10.5H16 M18.6,9.2H16 M18.6,7.9
				H16 M21.4,10.7v1 M22.2,9.7v1 M20.6,10.7v-1 M22.2,7.8v1 M20.6,8.7v-1 M21.9,11.7h-1 M22.9,10.7h-3 M22.9,9.7h-2.9 M22.8,8.7H20"
				/>
			<path id="c" class="st6" d="M15.9,15.9c1.6,0,2.8,1.3,2.8,2.8h1.1c0-2.2-1.8-3.9-3.9-3.9"/>
			<path class="st7" d="M15.9,16.1c1.4,0,2.6,1.1,2.7,2.6"/>
			<path class="st8" d="M20.7,16.1v8 M21,24.1v-7.9l-0.3-0.1c-1.2,0.2-2.3,1.6-2.3,2.6v5.5H21z"/>
			<path class="st9" d="M24.2,22.5H21 M24.7,13.4h-8.7 M15.9,11.7h0.7v1.1h1v-1.1h1.1v1.1h1v-1.1h1.1v1.1h1v-1.1H23v1.1h1v-1.1h0.6
				v1.6l-0.5,1.1h-8.2"/>
			<g id="d">
				<circle cx="21.4" cy="9.7" r="0.4"/>
				<path class="st10" d="M21.4,9.7V8.3"/>
			</g>
			<g id="f">
				<g id="a">
					<path id="b" class="st11" d="M20.2,19.1c0-0.1-0.1-0.3-0.3-0.3c0-0.4-0.6-0.4-0.6,0h-0.9"/>
					<g transform="matrix(1, 0, 0, -1, 0, 514)">
						<path id="b_00000016070095447807145930000003238537823145864343_" class="st11" d="M20.2,19.1c0,0.1-0.1,0.3-0.3,0.3
							c0,0.4-0.6,0.4-0.6,0h-0.9"/>
					</g>
				</g>
				<circle class="st11" cx="18.8" cy="19.1" r="0.1"/>
				<circle class="st11" cx="19.6" cy="19.1" r="0.1"/>
			</g>
			<g transform="translate(0, 36)">
				<g id="f_00000166637412991339202420000001822881658829440186_">
					<g id="a_00000078734475401991095170000006268877439828622729_">
						<path id="b_00000086669147672054347240000015655198313355075495_" class="st11" d="M20.2,21.7c0-0.1-0.1-0.3-0.3-0.3
							c0-0.4-0.6-0.4-0.6,0h-0.9"/>
						<g transform="matrix(1, 0, 0, -1, 0, 514)">
							<path id="b_00000100360418425890245830000016673633102731913877_" class="st11" d="M20.2,21.7c0,0.1-0.1,0.3-0.3,0.3
								c0,0.4-0.6,0.4-0.6,0h-0.9"/>
						</g>
					</g>
					<circle class="st11" cx="18.8" cy="21.7" r="0.1"/>
					<circle class="st11" cx="19.6" cy="21.7" r="0.1"/>
				</g>
			</g>
		</g>
	</g>
	<path class="st8" d="M4.2,5.5l1.2-1.3L4.2,2.8L6,3.3l0.5-1.8L7,3.3l1.8-0.4L7.6,4.2l1.2,1.3L7,5.1L6.5,6.8L5.9,5.1L4.2,5.5z"/>
	<path class="st6" d="M24.2,2.2c1-0.3,2,0.3,2.3,1.3c0.3,1-0.3,2-1.3,2.3c-0.3,0.1-0.7,0.1-1,0c1,0.8,2.4,0.6,3.2-0.4S28,3,27,2.2
		C26.2,1.5,25,1.5,24.2,2.2"/>
	<g id="e_00000046305576938121203210000005281621764705915568_">
		<path class="st2" d="M16,4.6h-3 M13.6,5.3H16 M16,4h-0.4V3h-0.9v1h-0.9V3H13v1.6l0.6,0.8l-0.4,9.2H7.8v8l-1.4,3.9h9.5"/>
		<path class="st3" d="M16.1,24.2h-2.7v-7.7l2.7-1.6"/>
		<path class="st4" d="M14.2,15.9v2.7 M15.1,15.9v2.7 M13.3,16.9H16 M13.3,17.9H16 M16,15.9v2.7"/>
		<path class="st2" d="M8.5,7.2h4.3 M9.2,7.8H12 M8.5,5.8v1.4l0.7,0.6L9,14.5h3.3L12,7.8l0.7-0.6V5.8h-0.9v0.9H11V5.8h-0.9v0.9H9.3
			V5.8H8.5z"/>
		<path class="st5" d="M14.4,11.7h1 M11.7,15.6v1.1 M9.1,15.6v1.1 M10.4,14.5v1.1 M12.9,15.6v-1.1 M7.8,16.8h5.3 M7.8,15.6h6.5
			 M9.1,17.9v1.1 M10.4,17.9v-1.1 M7.8,19.1H11 M7.8,17.9H11 M9.1,20.2v1.1 M10.4,20.2v-1.1 M7.8,21.3H11 M7.8,20.2H11 M10.4,22.5
			v-1.1 M14.9,5.3v1.3 M13.6,6.6H16 M14.9,7.9v1.3 M14.9,10.5v1.3 M16,10.5V9.2 M13.4,10.5H16 M13.4,9.2H16 M13.4,7.9H16 M10.6,10.7
			v1 M9.8,9.7v1 M11.4,10.7v-1 M9.8,7.8v1 M11.4,8.7v-1 M10.1,11.7h1 M9.1,10.7h3 M9.1,9.7h2.9 M9.2,8.7H12"/>
		<path id="c_00000134949187014113010440000011391006974473144241_" class="st6" d="M16.1,15.9c-1.6,0-2.8,1.3-2.8,2.8h-1.1
			c0-2.2,1.8-3.9,3.9-3.9"/>
		<path class="st7" d="M16.1,16.1c-1.4,0-2.6,1.1-2.7,2.6"/>
		<path class="st8" d="M11.3,16.1v8 M11,24.1v-7.9l0.3-0.1c1.2,0.2,2.3,1.6,2.3,2.6v5.5H11z"/>
		<path class="st9" d="M7.8,22.5H11 M7.3,13.4h8.7 M16.1,11.7h-0.7v1.1h-1v-1.1h-1.1v1.1h-1v-1.1h-1.1v1.1h-1v-1.1H9v1.1H8v-1.1H7.3
			v1.6l0.5,1.1h8.2"/>
		<g id="d_00000098187768389463281100000017056892447163305382_">
			<circle cx="10.6" cy="9.7" r="0.4"/>
			<path class="st10" d="M10.6,9.7V8.3"/>
		</g>
		<g id="f_00000018919665815955052880000003504365448830988205_">
			<g id="a_00000001641359776228300510000017051338753575175097_">
				<path id="b_00000077291224411651452050000016087501966410883466_" class="st11" d="M11.8,19.1c0-0.1,0.1-0.3,0.3-0.3
					c0-0.4,0.6-0.4,0.6,0h0.9"/>
				<g transform="matrix(1, 0, 0, -1, 0, 514)">
					<path id="b_00000109740613783710776850000002232123302110939542_" class="st11" d="M11.8,19.1c0,0.1,0.1,0.3,0.3,0.3
						c0,0.4,0.6,0.4,0.6,0h0.9"/>
				</g>
			</g>
			<circle class="st11" cx="13.2" cy="19.1" r="0.1"/>
			<circle class="st11" cx="12.4" cy="19.1" r="0.1"/>
		</g>
		<g transform="translate(0, 36)">
			<g id="f_00000057832174792171500050000017985643481430290310_">
				<g id="a_00000079472272447264184600000014363789430696749184_">
					<path id="b_00000160179220924435196820000005841892283810857098_" class="st11" d="M11.8,21.7c0-0.1,0.1-0.3,0.3-0.3
						c0-0.4,0.6-0.4,0.6,0h0.9"/>
					<g transform="matrix(1, 0, 0, -1, 0, 514)">
						<path id="b_00000166636784724227040650000006812281335268640137_" class="st11" d="M11.8,21.7c0,0.1,0.1,0.3,0.3,0.3
							c0,0.4,0.6,0.4,0.6,0h0.9"/>
					</g>
				</g>
				<circle class="st11" cx="13.2" cy="21.7" r="0.1"/>
				<circle class="st11" cx="12.4" cy="21.7" r="0.1"/>
			</g>
		</g>
	</g>
	<path class="st12" d="M16,23.3c4.2,0,8,1.3,9.6,3.2c-2.4,2.8-5.9,4.5-9.6,4.5s-7.2-1.6-9.6-4.5C8,24.6,11.8,23.3,16,23.3L16,23.3z"
		/>
	<path class="st13" d="M6.4,26.4c1.6-1.9,5.4-3.2,9.6-3.2l0,0c4.2,0,8,1.3,9.6,3.2"/>
	<g transform="matrix(1.2, 0, 0, 1.2, 96.4, 23.4)">
		<g id="d_00000126294288399658199650000011609688640179192455_">
			<circle cx="16" cy="7.9" r="0.5"/>
			<path class="st14" d="M16,7.9V6.2"/>
		</g>
	</g>
	<path class="st6" d="M15.1,14.6l0.3,1.4c0.4-0.1,0.9-0.1,1.1,0l0.3-1.4"/>
</g>
</svg>
