<svg id="Layer_1" data-name="Layer 1" xmlns="http://www.w3.org/2000/svg" xmlns:xlink="http://www.w3.org/1999/xlink" viewBox="0 0 64.67 64.67"><defs><style>.cls-1{fill:url(#linear-gradient);}.cls-2{fill:#fff;}</style><linearGradient id="linear-gradient" x1="54.65" y1="9.15" x2="8.13" y2="57.48" gradientUnits="userSpaceOnUse"><stop offset="0" stop-color="#ff808f"/><stop offset="1" stop-color="#f05d64"/></linearGradient></defs><circle class="cls-1" cx="32.33" cy="32.33" r="32.18"/><path class="cls-2" d="M32.35,45.55c-.82.75-1.59,1.52-2.43,2.2a10.76,10.76,0,0,1-5.5,2.61,7.7,7.7,0,0,1-7.23-2.64,7.24,7.24,0,0,1-1.32-7.83c1.15-2.78,2.45-5.5,3.77-8.21q2.81-5.76,5.77-11.46a19.39,19.39,0,0,1,2.43-3.91,6.06,6.06,0,0,1,9.7.77,61,61,0,0,1,3,5.56Q44,29.4,47.26,36.23a29.44,29.44,0,0,1,1.85,4.47,7.69,7.69,0,0,1-7.35,9.73A10.39,10.39,0,0,1,35,47.91C34.08,47.18,33.24,46.35,32.35,45.55ZM30.7,43.73c-.38-.5-.73-.94-1.06-1.4a18.46,18.46,0,0,1-3.37-6.69c-.88-3.77.82-6.88,4.29-7.91A6.35,6.35,0,0,1,38,30.79a7.06,7.06,0,0,1,.28,5.52,21,21,0,0,1-4,7c-.22.27-.26.44,0,.68.85.76,1.64,1.6,2.54,2.29A7.18,7.18,0,0,0,42.62,48a5.22,5.22,0,0,0,4-7.13q-1.39-3.3-3-6.52C41.78,30.61,39.9,26.85,38,23.1a48.47,48.47,0,0,0-2.51-4.59,3.68,3.68,0,0,0-6.31,0,20.21,20.21,0,0,0-1.39,2.44c-1.87,3.66-3.75,7.32-5.56,11q-2.09,4.29-4,8.64a5.35,5.35,0,0,0,5.56,7.53C26.76,47.75,28.75,45.78,30.7,43.73Zm1.65-1.94a18.21,18.21,0,0,0,3.43-6,8,8,0,0,0,.33-2.28,3.54,3.54,0,0,0-3.63-3.63,3.7,3.7,0,0,0-3.86,4.57C29,37.29,30.64,39.51,32.35,41.79Z"/></svg>