<svg id="Layer_1" data-name="Layer 1" xmlns="http://www.w3.org/2000/svg" xmlns:xlink="http://www.w3.org/1999/xlink" viewBox="0 0 64.67 64.67"><defs><style>.cls-1{fill:url(#linear-gradient);}.cls-2{fill:none;}.cls-3{fill:#e12e39;}.cls-3,.cls-4,.cls-5,.cls-6,.cls-7,.cls-8,.cls-9{fill-rule:evenodd;}.cls-4{fill:#ffca35;}.cls-5{fill:#2694cd;}.cls-6{fill:#9f4e92;}.cls-7{fill:#f58020;}.cls-8{fill:#97c93d;}.cls-9{fill:#f6c4c3;}</style><linearGradient id="linear-gradient" x1="32.33" y1="64.84" x2="32.33" y2="-0.07" gradientUnits="userSpaceOnUse"><stop offset="0" stop-color="#267ba0"/><stop offset="1" stop-color="#449cd2"/></linearGradient></defs><circle class="cls-1" cx="32.33" cy="32.33" r="32.18"/><circle class="cls-2" cx="32.33" cy="32.33" r="32.18"/><path class="cls-3" d="M27.48,23.83c.65,1.06,5.37,1.82,6.53,2.63l-3.59,9.75v.21c1.21.24,5.09,3.1,6.63,3.82.05,0,.05-.14.05-.11l-.47-1,3-2.57C41,35.39,43,33.34,44.8,32.11c1.3,1,1.72,2.54,3.17,3.32l6.49-10.91c-.79-.76-12.93-7.95-14.94-9.17a43.51,43.51,0,0,0-5.13-3c-1.54,3.15-5.65,8.74-6.91,11.52"/><path class="cls-4" d="M23.79,41.05l-1.4,7.84c3,.46,18.49,3.6,19.89,3.47l.74-4.2c.19-.9,0-.6.66-1.07-.75-.11-.47,0-.94-.59L38.4,41.37l-1.35-1.13c-1.54-.72-5.42-3.58-6.63-3.82L28,42.57Z"/><path class="cls-5" d="M13.57,32.7l3.78,1.1-1.21,4.47,7.65,2.78L28,42.57l2.47-6.15v-.21l-7.79-4.63c.84-1.95,4-6.11,4.43-7.55l-9-3.26Z"/><path class="cls-6" d="M27.06,24c-.47,1.43-3.59,5.59-4.43,7.54l7.79,4.63L34,26.46c-1.16-.81-5.88-1.57-6.53-2.63Z"/><path class="cls-7" d="M37.05,40.24l1.35,1.13c1.36.46,3.27,2.23,4.44,2.37,1-1.34,1.72-2.79,2.52-4.09a46.32,46.32,0,0,0,2.56-4.17l0,0c-1.45-.78-1.87-2.3-3.17-3.32C43,33.34,41,35.39,39.62,36.53l-3,2.57.47,1s0,.07-.05.11"/><path class="cls-8" d="M38.4,41.37l4.34,5.13c.47.57.19.48.94.59l8.17-6.88a42.37,42.37,0,0,0-3.93-4.73,46.32,46.32,0,0,1-2.56,4.17c-.8,1.3-1.54,2.75-2.52,4.09-1.17-.14-3.08-1.91-4.44-2.37"/><path class="cls-8" d="M16.14,38.27l1.21-4.47-3.78-1.1-1.73-.49-1.63,5.52,5.37,1.56a3.1,3.1,0,0,0,.56-1"/><polygon class="cls-9" points="38.82 30.69 40.83 30.69 41.72 30.67 41.72 27.82 38.82 27.8 38.82 30.69"/><polygon class="cls-9" points="38.82 24.69 38.82 27.13 41.72 27.13 41.72 24.5 40.83 24.47 40.18 24.48 38.82 24.48 38.82 24.69"/><polygon class="cls-9" points="35.27 30.67 36.16 30.69 37.94 30.69 37.94 27.8 35.27 27.82 35.27 30.67"/><polygon class="cls-9" points="35.27 27.13 37.94 27.13 37.94 24.69 37.94 24.48 35.27 24.48 35.27 27.13"/></svg>