<?xml version="1.0" encoding="utf-8"?>
<!-- Generator: Adobe Illustrator 23.0.3, SVG Export Plug-In . SVG Version: 6.00 Build 0)  -->
<svg version="1.1" id="Ebene_1" xmlns="http://www.w3.org/2000/svg" xmlns:xlink="http://www.w3.org/1999/xlink" x="0px" y="0px"
	 width="1049.678px" height="693.599px" viewBox="0 0 1049.678 693.599" enable-background="new 0 0 1049.678 693.599"
	 xml:space="preserve">
<g>
	<path fill="#FF0000" d="M452.454,585.321c0,12.359,9.778,18.423,29.357,18.423c6.332,0,11.222-0.305,17.548-1.45v-41.16
		C467.701,561.421,452.454,569.194,452.454,585.321z"/>
	<path fill="#FF0000" d="M92.972,585.321c0,12.359,9.786,18.423,29.351,18.423c6.335,0,11.225-0.305,17.56-1.45v-41.16
		C108.225,561.421,92.972,569.194,92.972,585.321z"/>
	<path fill="#FF0000" d="M779.699,513.931c-15.543,0-25.333,12.945-26.484,35.114h51.81v-2.871
		C805.026,526.595,795.24,513.931,779.699,513.931z"/>
	<path fill="#FF0000" d="M926.192,517.389c-17.554,0-29.648,16.409-29.648,40.004c0,23.883,12.39,40.862,30.226,40.862
		c17.272,0,28.5-16.099,28.5-40.58C955.271,533.211,943.752,517.389,926.192,517.389z"/>
	<path fill="#FF0000" d="M1049.626,423.953c-9.054,0.537-18.103,1.447-27.162,1.53c-16.944,0.155-33.909,0.146-50.84-0.379
		c-18.314-0.568-36.645-1.4-54.885-2.848c-23.973-1.903-47.899-4.295-71.781-6.888c-30.289-3.288-60.301-7.981-90.233-13.053
		c-58.477-9.909-120.429-24.097-205.669-46.007c-23.989-6.166-48.808-11.786-73.788-16.896
		c-0.002-50.594-0.004-101.188,0.062-151.782c0.004-3.259-0.794-5.452-3.505-7.529C423.18,142.835,374.6,105.484,326.084,68.05
		c-3.036-2.343-4.962-2.84-8.391-0.245c-50.325,38.083-100.778,75.996-151.283,113.84c-2.598,1.947-3.381,3.937-3.372,7.038
		c0.101,35.329,0.064,70.659,0.064,105.989c0,0.473-0.001,0.945-0.001,1.418c-7.115-0.578-11.211-0.865-11.716-0.888
		c-15.338-0.698-30.673-1.548-46.024-1.9c-17.124-0.392-34.269-0.598-51.394-0.344c-17.625,0.261-36.348,1.038-53.965,1.667
		L0,693.599h1049.678L1049.626,423.953z M176.447,624.174c-16.124,3.734-36.845,6.036-56.422,6.036
		c-43.171,0-64.186-13.532-64.186-40.862c0-30.517,29.938-49.791,77.425-49.791h6.62v-5.195c0-14.096-8.055-20.724-25.039-20.724
		c-15.541,0-33.385,4.315-48.35,12.083v-27.329c15.543-7.773,36.552-12.388,55.26-12.388c21.587,0,37.133,6.047,46.336,17.56
		c6.05,7.767,8.357,18.422,8.357,36.552V624.174z M287.821,627.034c-9.787,2.031-16.697,2.6-25.9,2.6
		c-36.267,0-52.095-15.535-52.095-50.942V467.3l38.278-22.157v44.607h37.987v29.653h-37.987v53.248
		c0,19.557,6.038,26.184,23.592,26.184c5.768,0,9.795-0.288,16.125-1.726V627.034z M404.668,526.014
		c-6.904-3.165-11.217-4.028-18.124-4.028c-21.872,0-35.404,16.409-35.404,42.892v62.155H312.86v-137.86h36.84v31.385
		c4.891-21.012,20.724-33.399,42.594-33.399c3.742,0,7.493,0.57,12.375,1.45V526.014z M535.923,624.174
		c-16.124,3.734-36.845,6.036-56.419,6.036c-43.171,0-64.18-13.532-64.18-40.862c0-30.517,29.935-49.791,77.416-49.791h6.619v-5.195
		c0-14.096-8.058-20.724-25.034-20.724c-15.543,0-33.39,4.315-48.355,12.083v-27.329c15.544-7.773,36.552-12.388,55.263-12.388
		c21.587,0,37.13,6.047,46.333,17.56c6.058,7.767,8.357,18.422,8.357,36.552V624.174z M681.55,545.593
		c-8.63,25.609-26.184,67.92-33.103,81.441h-39.146c-10.935-24.447-22.45-50.366-31.656-76.833l-21.009-61.027h43.177
		l28.488,103.908l29.358-103.908h43.171L681.55,545.593z M837.557,569.78h-83.762c2.019,20.431,18.417,32.22,43.744,32.22
		c13.524,0,23.028-1.433,35.974-6.036v27.916c-13.803,4.31-26.179,6.329-40.864,6.329c-18.711,0-32.513-2.882-44.331-9.787
		c-21.579-12.376-34.234-36.259-34.234-64.186c0-41.149,27.044-70.233,65.038-70.233c36.267,0,61.309,25.327,61.309,62.454
		C840.43,555.955,839.852,560.276,837.557,569.78z M927.061,630.791c-42.3,0-69.071-28.497-69.071-73.397
		c0-40.873,27.338-71.953,68.202-71.953c42.892,0,67.647,30.217,67.647,72.523C993.839,600.568,966.202,630.791,927.061,630.791z"/>
</g>
</svg>
