<svg id="Layer_1" data-name="Layer 1" xmlns="http://www.w3.org/2000/svg" xmlns:xlink="http://www.w3.org/1999/xlink" viewBox="0 0 64.67 64.67"><defs><style>.cls-1{fill:url(#linear-gradient);}.cls-2{fill:#fff;}</style><linearGradient id="linear-gradient" x1="54.72" y1="9.08" x2="8.19" y2="57.42" gradientUnits="userSpaceOnUse"><stop offset="0" stop-color="#3657ba"/><stop offset="1" stop-color="#253b7c"/></linearGradient></defs><circle class="cls-1" cx="32.33" cy="32.33" r="32.18"/><path class="cls-2" d="M19.81,33.45V20.11a3.53,3.53,0,0,1,3.84-3.86c2.85,0,5.7-.05,8.54.1,3.47.19,6.42,1.48,8,4.85a8,8,0,0,1-1.89,9.25c-.51.48-.74.85,0,1.34,3.35,2.16,4.38,5.34,3.6,9.08s-3.43,5.9-7,6.82a18.7,18.7,0,0,1-4.24.37c-3.28,0-6.57,0-9.85,0-.74,0-.95-.25-.95-1C19.83,42.58,19.82,38,19.81,33.45ZM26,38.9c0,1.05,0,2.1,0,3.14,0,.24.35.65.55.66,1.89,0,3.79.1,5.67-.05,2.17-.18,3.56-2,3.54-4.34a4,4,0,0,0-3.74-4.18c-1.39-.1-2.79-.08-4.18-.05A1.74,1.74,0,0,0,26,36C26,37,26,37.94,26,38.9Zm0-13c0,.87,0,1.75,0,2.61a.87.87,0,0,0,.58.61c1.56,0,3.13.08,4.7,0,2-.12,3.12-1.51,3.25-3.73a3.29,3.29,0,0,0-2.69-3.72,19.78,19.78,0,0,0-4.07-.11c-1.27.07-1.77.72-1.8,2C26,24.3,26,25.09,26,25.87Z"/><path class="cls-2" d="M52.91,44.64a3.79,3.79,0,0,1-3.74,3.79,3.73,3.73,0,0,1-3.88-3.72,3.77,3.77,0,0,1,3.77-3.85A3.82,3.82,0,0,1,52.91,44.64Z"/></svg>