<svg id="Layer_1" data-name="Layer 1" xmlns="http://www.w3.org/2000/svg" xmlns:xlink="http://www.w3.org/1999/xlink" viewBox="0 0 64.67 64.67"><defs><style>.cls-1{fill:url(#linear-gradient);}.cls-2{fill:#fff;}.cls-3{fill:#eeb417;}</style><linearGradient id="linear-gradient" x1="54.65" y1="9.15" x2="10.02" y2="55.52" gradientUnits="userSpaceOnUse"><stop offset="0" stop-color="#5065a0"/><stop offset="1" stop-color="#42538c"/></linearGradient></defs><circle class="cls-1" cx="32.33" cy="32.33" r="32.18"/><path class="cls-2" d="M42.19,40.42a.24.24,0,0,0-.4,0,6.77,6.77,0,0,1-5.41,2.36c-4.29,0-7.16-3.26-7.16-7.65a8.32,8.32,0,0,1,2-5.53,6.48,6.48,0,0,1,5.21-2.11,6.57,6.57,0,0,1,5.27,2.21.27.27,0,0,0,.4,0l4.8-6.45a.26.26,0,0,0,0-.35,16.51,16.51,0,0,0-10.73-3.85A16.05,16.05,0,1,0,47,47.18a.26.26,0,0,0,0-.35Z"/><circle class="cls-3" cx="17.74" cy="19.05" r="5.53"/></svg>