<svg id="Layer_1" data-name="Layer 1" xmlns="http://www.w3.org/2000/svg" xmlns:xlink="http://www.w3.org/1999/xlink" viewBox="0 0 64.67 64.67"><defs><style>.cls-1{fill:url(#linear-gradient);}.cls-2{fill:#fff;}</style><linearGradient id="linear-gradient" x1="54.23" y1="9.59" x2="11.13" y2="54.36" gradientUnits="userSpaceOnUse"><stop offset="0" stop-color="#f79432"/><stop offset="1" stop-color="#441149"/></linearGradient></defs><circle class="cls-1" cx="32.33" cy="32.33" r="32.18"/><path class="cls-2" d="M51.45,39.64a6.27,6.27,0,0,1-.37,1A20.92,20.92,0,0,1,32.9,53.2c-.32,0-.62,0-.94,0a21,21,0,0,1-4.81-.56h0a20.71,20.71,0,0,1-6.84-3,21,21,0,0,1-6.88-7.72,22.13,22.13,0,0,1-1.55-3.85,21.16,21.16,0,0,1-.8-5.77,3.24,3.24,0,0,1,0-.44c0-.24,0-.48,0-.75A21,21,0,0,1,24.11,13c.64-.26,1.29-.48,1.95-.68a21.19,21.19,0,0,1,5.9-.85c.38,0,.78,0,1.18,0a19.09,19.09,0,0,1,2.72.35A20.93,20.93,0,0,1,50.1,22,9.32,9.32,0,0,1,51,24.12c.65,2.39.24,4.9-2,6.09l-.1.06a5.79,5.79,0,0,1-4,.28,2.84,2.84,0,0,1-.44-.1,1.57,1.57,0,0,0-.29-.08,10.45,10.45,0,0,1-4.56-2.82,10.64,10.64,0,0,0-1.33-1.62,8.37,8.37,0,0,0-1.47-1.21A8.54,8.54,0,0,0,32,23.29a1.67,1.67,0,0,0-.33,0,8.09,8.09,0,0,0-2.11.32l-.1,0a9.06,9.06,0,0,0-6.52,8.69A7.32,7.32,0,0,0,23,33.75c0,.1,0,.22.06.34A9,9,0,0,0,24.19,37l.1.16.22.34c.2.3.47.58.69.87a9.06,9.06,0,0,0,6.76,3,8.67,8.67,0,0,0,1.91-.22,11.06,11.06,0,0,0,6.55-5.21,4.73,4.73,0,0,1,.83-.9,8,8,0,0,1,1.51-1c.3-.16.62-.3.94-.44l.3-.1a7,7,0,0,1,2.09-.42,5.3,5.3,0,0,1,2.3.36A5.4,5.4,0,0,1,50.6,35.2,5.22,5.22,0,0,1,51.45,39.64Z"/></svg>