<svg id="Layer_1" data-name="Layer 1" xmlns="http://www.w3.org/2000/svg" xmlns:xlink="http://www.w3.org/1999/xlink" viewBox="0 0 64.67 64.67"><defs><style>.cls-1,.cls-3{fill:#fff;}.cls-2{fill:url(#linear-gradient);}.cls-3{opacity:0.5;isolation:isolate;}</style><linearGradient id="linear-gradient" x1="54.65" y1="9.15" x2="10.02" y2="55.52" gradientUnits="userSpaceOnUse"><stop offset="0" stop-color="#8f4294"/><stop offset="1" stop-color="#622567"/></linearGradient></defs><circle class="cls-1" cx="32.33" cy="32.33" r="32.18"/><circle class="cls-2" cx="32.33" cy="32.33" r="32.18"/><polygon class="cls-3" points="32.69 31.83 32.69 41.52 21.75 30.58 26.57 25.55 32.69 31.83"/><path class="cls-1" d="M50.34,42.11A20.59,20.59,0,1,1,47,18l-3.78,3.65A15.31,15.31,0,1,0,46.4,38.17Z"/><polygon class="cls-3" points="32.69 31.83 32.69 41.52 21.75 30.58 26.57 25.55 32.69 31.83"/><path class="cls-1" d="M51,23.83,32.69,41.52V31.83L43.22,21.65,47,18a20.76,20.76,0,0,1,3.27,4.41C50.52,22.88,50.76,23.35,51,23.83Z"/><polygon class="cls-1" points="32.69 31.83 32.69 41.52 21.75 30.58 26.57 25.55 32.69 31.83"/></svg>