<svg id="Layer_1" data-name="Layer 1" xmlns="http://www.w3.org/2000/svg" xmlns:xlink="http://www.w3.org/1999/xlink" viewBox="0 0 64.67 64.67"><defs><style>.cls-1{fill:url(#linear-gradient);}.cls-2{fill:#20314a;}.cls-3{fill:#f7c504;}</style><linearGradient id="linear-gradient" x1="53.97" y1="8.76" x2="10.7" y2="55.91" gradientUnits="userSpaceOnUse"><stop offset="0" stop-color="#f9d562"/><stop offset="1" stop-color="#f7c504"/></linearGradient></defs><circle class="cls-1" cx="32.33" cy="32.33" r="32"/><path class="cls-2" d="M54.79,32.33a22.05,22.05,0,0,1-43.63,4.53c-.1-.49-.19-1-.26-1.51a21.38,21.38,0,0,1-.2-3,22,22,0,0,1,41.89-9.61,23.07,23.07,0,0,1,1,2.41A22,22,0,0,1,54.79,32.33Z"/><path class="cls-3" d="M53.59,25.13a23.93,23.93,0,0,1-3.7,1.74c-1.69.57-6,.75-6.78,2.64-.51,1.26-3.26,10.41-4.31,13.91A2.6,2.6,0,0,1,37,45.17h0a.18.18,0,0,1-.18-.19l.64-12.66a1.53,1.53,0,0,0-1.88-1.5l-24.41,6c-.1-.49-.19-1-.26-1.51l24.7-8.12a.85.85,0,0,0,.43-1.3L28.17,15a.17.17,0,0,1,.08-.27l.27-.1a1.81,1.81,0,0,1,1.84.33L41.48,24.6a2.2,2.2,0,0,0,2,.48l9.11-2.36A23.07,23.07,0,0,1,53.59,25.13Z"/></svg>