<svg id="Layer_1" data-name="Layer 1" xmlns="http://www.w3.org/2000/svg" xmlns:xlink="http://www.w3.org/1999/xlink" viewBox="0 0 64.67 64.67"><defs><style>.cls-1{fill:url(#linear-gradient);}.cls-2{fill:#fff;}</style><linearGradient id="linear-gradient" x1="54.65" y1="9.15" x2="10.02" y2="55.52" gradientUnits="userSpaceOnUse"><stop offset="0" stop-color="#5597d8"/><stop offset="1" stop-color="#3973b9"/></linearGradient></defs><circle class="cls-1" cx="32.33" cy="32.33" r="32.18"/><path class="cls-2" d="M25.81,23.35a.91.91,0,0,0-.1-.4.13.13,0,0,0-.11-.08h-.12a.12.12,0,0,0-.15.08A6,6,0,0,0,24.71,25a4.64,4.64,0,0,1-.07.64c0,.12,0,.24,0,.36a1.29,1.29,0,0,0,.45-.27l.25-.29a2,2,0,0,0,.52-1.35Zm0,0a.91.91,0,0,0-.1-.4.13.13,0,0,0-.11-.08h-.12a.12.12,0,0,0-.15.08A6,6,0,0,0,24.71,25a4.64,4.64,0,0,1-.07.64c0,.12,0,.24,0,.36a1.29,1.29,0,0,0,.45-.27l.25-.29a2,2,0,0,0,.52-1.35Zm0,0a.91.91,0,0,0-.1-.4.13.13,0,0,0-.11-.08h-.12a.12.12,0,0,0-.15.08A6,6,0,0,0,24.71,25a4.64,4.64,0,0,1-.07.64c0,.12,0,.24,0,.36a1.29,1.29,0,0,0,.45-.27l.25-.29a2,2,0,0,0,.52-1.35Zm0,0a.91.91,0,0,0-.1-.4.13.13,0,0,0-.11-.08h-.12a.12.12,0,0,0-.15.08A6,6,0,0,0,24.71,25a4.64,4.64,0,0,1-.07.64c0,.12,0,.24,0,.36a1.29,1.29,0,0,0,.45-.27l.25-.29a2,2,0,0,0,.52-1.35Zm0,0a.91.91,0,0,0-.1-.4.13.13,0,0,0-.11-.08h-.12a.12.12,0,0,0-.15.08A6,6,0,0,0,24.71,25a4.64,4.64,0,0,1-.07.64c0,.12,0,.24,0,.36a1.29,1.29,0,0,0,.45-.27l.25-.29a2,2,0,0,0,.52-1.35Zm0,0a.91.91,0,0,0-.1-.4.13.13,0,0,0-.11-.08h-.12a.12.12,0,0,0-.15.08A6,6,0,0,0,24.71,25a4.64,4.64,0,0,1-.07.64c0,.12,0,.24,0,.36a1.29,1.29,0,0,0,.45-.27l.25-.29a2,2,0,0,0,.52-1.35Zm0,0a.91.91,0,0,0-.1-.4.13.13,0,0,0-.11-.08h-.12a.12.12,0,0,0-.15.08A6,6,0,0,0,24.71,25a4.64,4.64,0,0,1-.07.64c0,.12,0,.24,0,.36a1.29,1.29,0,0,0,.45-.27l.25-.29a2,2,0,0,0,.52-1.35Zm11.65.1a.79.79,0,0,0-.1-.34.1.1,0,0,0-.12-.06h-.1a.14.14,0,0,0-.16.1l-.28.71a4.7,4.7,0,0,0-.3,1.62.59.59,0,0,1,0,.13,2.48,2.48,0,0,0-.06.54A.78.78,0,0,0,36.6,26a1.81,1.81,0,0,0,.4-.43,2.09,2.09,0,0,0,.48-1.35Zm-11.65-.1a.91.91,0,0,0-.1-.4.13.13,0,0,0-.11-.08h-.12a.12.12,0,0,0-.15.08A6,6,0,0,0,24.71,25a4.64,4.64,0,0,1-.07.64c0,.12,0,.24,0,.36a1.29,1.29,0,0,0,.45-.27l.25-.29a2,2,0,0,0,.52-1.35Zm11.65.1a.79.79,0,0,0-.1-.34.1.1,0,0,0-.12-.06h-.1a.14.14,0,0,0-.16.1l-.28.71a4.7,4.7,0,0,0-.3,1.62.59.59,0,0,1,0,.13,2.48,2.48,0,0,0-.06.54A.78.78,0,0,0,36.6,26a1.81,1.81,0,0,0,.4-.43,2.09,2.09,0,0,0,.48-1.35Zm-11.65-.1a.91.91,0,0,0-.1-.4.13.13,0,0,0-.11-.08h-.12a.12.12,0,0,0-.15.08A6,6,0,0,0,24.71,25a4.64,4.64,0,0,1-.07.64c0,.12,0,.24,0,.36a1.29,1.29,0,0,0,.45-.27l.25-.29a2,2,0,0,0,.52-1.35Zm11.65.1a.79.79,0,0,0-.1-.34.1.1,0,0,0-.12-.06h-.1a.14.14,0,0,0-.16.1l-.28.71a4.7,4.7,0,0,0-.3,1.62.59.59,0,0,1,0,.13,2.48,2.48,0,0,0-.06.54A.78.78,0,0,0,36.6,26a1.81,1.81,0,0,0,.4-.43,2.09,2.09,0,0,0,.48-1.35Zm-11.65-.1a.91.91,0,0,0-.1-.4.13.13,0,0,0-.11-.08h-.12a.12.12,0,0,0-.15.08A6,6,0,0,0,24.71,25a4.64,4.64,0,0,1-.07.64c0,.12,0,.24,0,.36a1.29,1.29,0,0,0,.45-.27l.25-.29a2,2,0,0,0,.52-1.35Zm11.65.1a.79.79,0,0,0-.1-.34.1.1,0,0,0-.12-.06h-.1a.14.14,0,0,0-.16.1l-.28.71a4.7,4.7,0,0,0-.3,1.62.59.59,0,0,1,0,.13,2.48,2.48,0,0,0-.06.54A.78.78,0,0,0,36.6,26a1.81,1.81,0,0,0,.4-.43,2.09,2.09,0,0,0,.48-1.35Zm-11.65-.1a.91.91,0,0,0-.1-.4.13.13,0,0,0-.11-.08h-.12a.12.12,0,0,0-.15.08A6,6,0,0,0,24.71,25a4.64,4.64,0,0,1-.07.64c0,.12,0,.24,0,.36a1.29,1.29,0,0,0,.45-.27l.25-.29a2,2,0,0,0,.52-1.35Zm4.7,8.9a1.89,1.89,0,0,0-.36-.16.25.25,0,0,0-.26,0,.9.9,0,0,0-.15.19,1.67,1.67,0,0,0-.21.52L29.27,34a3.46,3.46,0,0,0-.13,1,5.49,5.49,0,0,1-.05.7,1.85,1.85,0,0,1-.08.47,1.05,1.05,0,0,0-.08.35l0,.49h0l0,1.7a.45.45,0,0,0,0,.23c.09,0,.1-.12.13-.19l1-2.41a4.41,4.41,0,0,0,.35-1.19l.12-1.6a7,7,0,0,1,.08-1A.25.25,0,0,0,30.51,32.25Zm7-8.8a.79.79,0,0,0-.1-.34.1.1,0,0,0-.12-.06h-.1a.14.14,0,0,0-.16.1l-.28.71a4.7,4.7,0,0,0-.3,1.62.59.59,0,0,1,0,.13,2.48,2.48,0,0,0-.06.54A.78.78,0,0,0,36.6,26a1.81,1.81,0,0,0,.4-.43,2.09,2.09,0,0,0,.48-1.35Zm-6.95,8.8a1.89,1.89,0,0,0-.36-.16.25.25,0,0,0-.26,0,.9.9,0,0,0-.15.19,1.67,1.67,0,0,0-.21.52L29.27,34a3.46,3.46,0,0,0-.13,1,5.49,5.49,0,0,1-.05.7,1.85,1.85,0,0,1-.08.47,1.05,1.05,0,0,0-.08.35l0,.49h0l0,1.7a.45.45,0,0,0,0,.23c.09,0,.1-.12.13-.19l1-2.41a4.41,4.41,0,0,0,.35-1.19l.12-1.6a7,7,0,0,1,.08-1A.25.25,0,0,0,30.51,32.25Zm-4.7-8.9a.91.91,0,0,0-.1-.4.13.13,0,0,0-.11-.08h-.12a.12.12,0,0,0-.15.08A6,6,0,0,0,24.71,25a4.64,4.64,0,0,1-.07.64c0,.12,0,.24,0,.36a1.29,1.29,0,0,0,.45-.27l.25-.29a2,2,0,0,0,.52-1.35Zm11.65.1a.79.79,0,0,0-.1-.34.1.1,0,0,0-.12-.06h-.1a.14.14,0,0,0-.16.1l-.28.71a4.7,4.7,0,0,0-.3,1.62.59.59,0,0,1,0,.13,2.48,2.48,0,0,0-.06.54A.78.78,0,0,0,36.6,26a1.81,1.81,0,0,0,.4-.43,2.09,2.09,0,0,0,.48-1.35Zm-11.65-.1a.91.91,0,0,0-.1-.4.13.13,0,0,0-.11-.08h-.12a.12.12,0,0,0-.15.08A6,6,0,0,0,24.71,25a4.64,4.64,0,0,1-.07.64c0,.12,0,.24,0,.36a1.29,1.29,0,0,0,.45-.27l.25-.29a2,2,0,0,0,.52-1.35Zm4.7,8.9a1.89,1.89,0,0,0-.36-.16.25.25,0,0,0-.26,0,.9.9,0,0,0-.15.19,1.67,1.67,0,0,0-.21.52L29.27,34a3.46,3.46,0,0,0-.13,1,5.49,5.49,0,0,1-.05.7,1.85,1.85,0,0,1-.08.47,1.05,1.05,0,0,0-.08.35l0,.49h0l0,1.7a.45.45,0,0,0,0,.23c.09,0,.1-.12.13-.19l1-2.41a4.41,4.41,0,0,0,.35-1.19l.12-1.6a7,7,0,0,1,.08-1A.25.25,0,0,0,30.51,32.25Zm7-8.8a.79.79,0,0,0-.1-.34.1.1,0,0,0-.12-.06h-.1a.14.14,0,0,0-.16.1l-.28.71a4.7,4.7,0,0,0-.3,1.62.59.59,0,0,1,0,.13,2.48,2.48,0,0,0-.06.54A.78.78,0,0,0,36.6,26a1.81,1.81,0,0,0,.4-.43,2.09,2.09,0,0,0,.48-1.35Zm-6.95,8.8a1.89,1.89,0,0,0-.36-.16.25.25,0,0,0-.26,0,.9.9,0,0,0-.15.19,1.67,1.67,0,0,0-.21.52L29.27,34a3.46,3.46,0,0,0-.13,1,5.49,5.49,0,0,1-.05.7,1.85,1.85,0,0,1-.08.47,1.05,1.05,0,0,0-.08.35l0,.49h0l0,1.7a.45.45,0,0,0,0,.23c.09,0,.1-.12.13-.19l1-2.41a4.41,4.41,0,0,0,.35-1.19l.12-1.6a7,7,0,0,1,.08-1A.25.25,0,0,0,30.51,32.25Zm-4.7-8.9a.91.91,0,0,0-.1-.4.13.13,0,0,0-.11-.08h-.12a.12.12,0,0,0-.15.08A6,6,0,0,0,24.71,25a4.64,4.64,0,0,1-.07.64c0,.12,0,.24,0,.36a1.29,1.29,0,0,0,.45-.27l.25-.29a2,2,0,0,0,.52-1.35Zm11.65.1a.79.79,0,0,0-.1-.34.1.1,0,0,0-.12-.06h-.1a.14.14,0,0,0-.16.1l-.28.71a4.7,4.7,0,0,0-.3,1.62.59.59,0,0,1,0,.13,2.48,2.48,0,0,0-.06.54A.78.78,0,0,0,36.6,26a1.81,1.81,0,0,0,.4-.43,2.09,2.09,0,0,0,.48-1.35Zm-11.65-.1a.91.91,0,0,0-.1-.4.13.13,0,0,0-.11-.08h-.12a.12.12,0,0,0-.15.08A6,6,0,0,0,24.71,25a4.64,4.64,0,0,1-.07.64c0,.12,0,.24,0,.36a1.29,1.29,0,0,0,.45-.27l.25-.29a2,2,0,0,0,.52-1.35Zm4.7,8.9a1.89,1.89,0,0,0-.36-.16.25.25,0,0,0-.26,0,.9.9,0,0,0-.15.19,1.67,1.67,0,0,0-.21.52L29.27,34a3.46,3.46,0,0,0-.13,1,5.49,5.49,0,0,1-.05.7,1.85,1.85,0,0,1-.08.47,1.05,1.05,0,0,0-.08.35l0,.49h0l0,1.7a.45.45,0,0,0,0,.23c.09,0,.1-.12.13-.19l1-2.41a4.41,4.41,0,0,0,.35-1.19l.12-1.6a7,7,0,0,1,.08-1A.25.25,0,0,0,30.51,32.25Zm3.58,10.36,0-.12c-.08-.21-.11-.23-.33-.24a.11.11,0,0,0-.13.07l-.1.21A4.57,4.57,0,0,0,33,44.62a.59.59,0,0,1,0,.13,2,2,0,0,0,0,.55,1.27,1.27,0,0,0,.47-.32,6.41,6.41,0,0,0,.39-.52,1.91,1.91,0,0,0,.29-1.06Zm3.37-19.16a.79.79,0,0,0-.1-.34.1.1,0,0,0-.12-.06h-.1a.14.14,0,0,0-.16.1l-.28.71a4.7,4.7,0,0,0-.3,1.62.59.59,0,0,1,0,.13,2.48,2.48,0,0,0-.06.54A.78.78,0,0,0,36.6,26a1.81,1.81,0,0,0,.4-.43,2.09,2.09,0,0,0,.48-1.35ZM34.09,42.61l0-.12c-.08-.21-.11-.23-.33-.24a.11.11,0,0,0-.13.07l-.1.21A4.57,4.57,0,0,0,33,44.62a.59.59,0,0,1,0,.13,2,2,0,0,0,0,.55,1.27,1.27,0,0,0,.47-.32,6.41,6.41,0,0,0,.39-.52,1.91,1.91,0,0,0,.29-1.06ZM30.51,32.25a1.89,1.89,0,0,0-.36-.16.25.25,0,0,0-.26,0,.9.9,0,0,0-.15.19,1.67,1.67,0,0,0-.21.52L29.27,34a3.46,3.46,0,0,0-.13,1,5.49,5.49,0,0,1-.05.7,1.85,1.85,0,0,1-.08.47,1.05,1.05,0,0,0-.08.35l0,.49h0l0,1.7a.45.45,0,0,0,0,.23c.09,0,.1-.12.13-.19l1-2.41a4.41,4.41,0,0,0,.35-1.19l.12-1.6a7,7,0,0,1,.08-1A.25.25,0,0,0,30.51,32.25Zm-4.7-8.9a.91.91,0,0,0-.1-.4.13.13,0,0,0-.11-.08h-.12a.12.12,0,0,0-.15.08A6,6,0,0,0,24.71,25a4.64,4.64,0,0,1-.07.64c0,.12,0,.24,0,.36a1.29,1.29,0,0,0,.45-.27l.25-.29a2,2,0,0,0,.52-1.35Zm11.65.1a.79.79,0,0,0-.1-.34.1.1,0,0,0-.12-.06h-.1a.14.14,0,0,0-.16.1l-.28.71a4.7,4.7,0,0,0-.3,1.62.59.59,0,0,1,0,.13,2.48,2.48,0,0,0-.06.54A.78.78,0,0,0,36.6,26a1.81,1.81,0,0,0,.4-.43,2.09,2.09,0,0,0,.48-1.35Zm-11.65-.1a.91.91,0,0,0-.1-.4.13.13,0,0,0-.11-.08h-.12a.12.12,0,0,0-.15.08A6,6,0,0,0,24.71,25a4.64,4.64,0,0,1-.07.64c0,.12,0,.24,0,.36a1.29,1.29,0,0,0,.45-.27l.25-.29a2,2,0,0,0,.52-1.35Zm4.7,8.9a1.89,1.89,0,0,0-.36-.16.25.25,0,0,0-.26,0,.9.9,0,0,0-.15.19,1.67,1.67,0,0,0-.21.52L29.27,34a3.46,3.46,0,0,0-.13,1,5.49,5.49,0,0,1-.05.7,1.85,1.85,0,0,1-.08.47,1.05,1.05,0,0,0-.08.35l0,.49h0l0,1.7a.45.45,0,0,0,0,.23c.09,0,.1-.12.13-.19l1-2.41a4.41,4.41,0,0,0,.35-1.19l.12-1.6a7,7,0,0,1,.08-1A.25.25,0,0,0,30.51,32.25Zm3.58,10.36,0-.12c-.08-.21-.11-.23-.33-.24a.11.11,0,0,0-.13.07l-.1.21A4.57,4.57,0,0,0,33,44.62a.59.59,0,0,1,0,.13,2,2,0,0,0,0,.55,1.27,1.27,0,0,0,.47-.32,6.41,6.41,0,0,0,.39-.52,1.91,1.91,0,0,0,.29-1.06Zm3.37-19.16a.79.79,0,0,0-.1-.34.1.1,0,0,0-.12-.06h-.1a.14.14,0,0,0-.16.1l-.28.71a4.7,4.7,0,0,0-.3,1.62.59.59,0,0,1,0,.13,2.48,2.48,0,0,0-.06.54A.78.78,0,0,0,36.6,26a1.81,1.81,0,0,0,.4-.43,2.09,2.09,0,0,0,.48-1.35Zm4,19.79a.76.76,0,0,0-.1-.3c0-.1-.15,0-.23-.07s-.09,0-.11.09a5.45,5.45,0,0,0-.47,1.71c0,.29,0,.57,0,.85,0,.11,0,.21,0,.31a1.16,1.16,0,0,0,.34-.24,2.12,2.12,0,0,0,.29-.38A2,2,0,0,0,41.54,44Zm0,0a.76.76,0,0,0-.1-.3c0-.1-.15,0-.23-.07s-.09,0-.11.09a5.45,5.45,0,0,0-.47,1.71c0,.29,0,.57,0,.85,0,.11,0,.21,0,.31a1.16,1.16,0,0,0,.34-.24,2.12,2.12,0,0,0,.29-.38A2,2,0,0,0,41.54,44Zm-7.41-.63,0-.12c-.08-.21-.11-.23-.33-.24a.11.11,0,0,0-.13.07l-.1.21A4.57,4.57,0,0,0,33,44.62a.59.59,0,0,1,0,.13,2,2,0,0,0,0,.55,1.27,1.27,0,0,0,.47-.32,6.41,6.41,0,0,0,.39-.52,1.91,1.91,0,0,0,.29-1.06ZM30.51,32.25a1.89,1.89,0,0,0-.36-.16.25.25,0,0,0-.26,0,.9.9,0,0,0-.15.19,1.67,1.67,0,0,0-.21.52L29.27,34a3.46,3.46,0,0,0-.13,1,5.49,5.49,0,0,1-.05.7,1.85,1.85,0,0,1-.08.47,1.05,1.05,0,0,0-.08.35l0,.49h0l0,1.7a.45.45,0,0,0,0,.23c.09,0,.1-.12.13-.19l1-2.41a4.41,4.41,0,0,0,.35-1.19l.12-1.6a7,7,0,0,1,.08-1A.25.25,0,0,0,30.51,32.25Zm-4.7-8.9a.91.91,0,0,0-.1-.4.13.13,0,0,0-.11-.08h-.12a.12.12,0,0,0-.15.08A6,6,0,0,0,24.71,25a4.64,4.64,0,0,1-.07.64c0,.12,0,.24,0,.36a1.29,1.29,0,0,0,.45-.27l.25-.29a2,2,0,0,0,.52-1.35Zm11.65.1a.79.79,0,0,0-.1-.34.1.1,0,0,0-.12-.06h-.1a.14.14,0,0,0-.16.1l-.28.71a4.7,4.7,0,0,0-.3,1.62.59.59,0,0,1,0,.13,2.48,2.48,0,0,0-.06.54A.78.78,0,0,0,36.6,26a1.81,1.81,0,0,0,.4-.43,2.09,2.09,0,0,0,.48-1.35Zm-11.65-.1a.91.91,0,0,0-.1-.4.13.13,0,0,0-.11-.08h-.12a.12.12,0,0,0-.15.08A6,6,0,0,0,24.71,25a4.64,4.64,0,0,1-.07.64c0,.12,0,.24,0,.36a1.29,1.29,0,0,0,.45-.27l.25-.29a2,2,0,0,0,.52-1.35Zm4.7,8.9a1.89,1.89,0,0,0-.36-.16.25.25,0,0,0-.26,0,.9.9,0,0,0-.15.19,1.67,1.67,0,0,0-.21.52L29.27,34a3.46,3.46,0,0,0-.13,1,5.49,5.49,0,0,1-.05.7,1.85,1.85,0,0,1-.08.47,1.05,1.05,0,0,0-.08.35l0,.49h0l0,1.7a.45.45,0,0,0,0,.23c.09,0,.1-.12.13-.19l1-2.41a4.41,4.41,0,0,0,.35-1.19l.12-1.6a7,7,0,0,1,.08-1A.25.25,0,0,0,30.51,32.25Zm3.58,10.36,0-.12c-.08-.21-.11-.23-.33-.24a.11.11,0,0,0-.13.07l-.1.21A4.57,4.57,0,0,0,33,44.62a.59.59,0,0,1,0,.13,2,2,0,0,0,0,.55,1.27,1.27,0,0,0,.47-.32,6.41,6.41,0,0,0,.39-.52,1.91,1.91,0,0,0,.29-1.06Zm3.37-19.16a.79.79,0,0,0-.1-.34.1.1,0,0,0-.12-.06h-.1a.14.14,0,0,0-.16.1l-.28.71a4.7,4.7,0,0,0-.3,1.62.59.59,0,0,1,0,.13,2.48,2.48,0,0,0-.06.54A.78.78,0,0,0,36.6,26a1.81,1.81,0,0,0,.4-.43,2.09,2.09,0,0,0,.48-1.35Zm4,19.79a.76.76,0,0,0-.1-.3c0-.1-.15,0-.23-.07s-.09,0-.11.09a5.45,5.45,0,0,0-.47,1.71c0,.29,0,.57,0,.85,0,.11,0,.21,0,.31a1.16,1.16,0,0,0,.34-.24,2.12,2.12,0,0,0,.29-.38A2,2,0,0,0,41.54,44Zm2.22,4.62a4.91,4.91,0,0,1-.09-.77A2.42,2.42,0,0,0,43.31,46a.12.12,0,0,0-.15-.08.11.11,0,0,0-.07.13,3.4,3.4,0,0,0,.08.57c.1.34.21.67.34,1l.19.42A.14.14,0,0,0,43.72,47.86Zm1.19-2.57a1.69,1.69,0,0,0-.17-.29.08.08,0,0,0-.1,0,.09.09,0,0,0-.06.11v0a2.41,2.41,0,0,0,.33,1A1.05,1.05,0,0,0,44.91,45.29Zm0,0a1.69,1.69,0,0,0-.17-.29.08.08,0,0,0-.1,0,.09.09,0,0,0-.06.11v0a2.41,2.41,0,0,0,.33,1A1.05,1.05,0,0,0,44.91,45.29Zm-1.19,2.57a4.91,4.91,0,0,1-.09-.77A2.42,2.42,0,0,0,43.31,46a.12.12,0,0,0-.15-.08.11.11,0,0,0-.07.13,3.4,3.4,0,0,0,.08.57c.1.34.21.67.34,1l.19.42A.14.14,0,0,0,43.72,47.86ZM41.5,43.24a.76.76,0,0,0-.1-.3c0-.1-.15,0-.23-.07s-.09,0-.11.09a5.45,5.45,0,0,0-.47,1.71c0,.29,0,.57,0,.85,0,.11,0,.21,0,.31a1.16,1.16,0,0,0,.34-.24,2.12,2.12,0,0,0,.29-.38A2,2,0,0,0,41.54,44Zm-7.41-.63,0-.12c-.08-.21-.11-.23-.33-.24a.11.11,0,0,0-.13.07l-.1.21A4.57,4.57,0,0,0,33,44.62a.59.59,0,0,1,0,.13,2,2,0,0,0,0,.55,1.27,1.27,0,0,0,.47-.32,6.41,6.41,0,0,0,.39-.52,1.91,1.91,0,0,0,.29-1.06ZM30.51,32.25a1.89,1.89,0,0,0-.36-.16.25.25,0,0,0-.26,0,.9.9,0,0,0-.15.19,1.67,1.67,0,0,0-.21.52L29.27,34a3.46,3.46,0,0,0-.13,1,5.49,5.49,0,0,1-.05.7,1.85,1.85,0,0,1-.08.47,1.05,1.05,0,0,0-.08.35l0,.49h0l0,1.7a.45.45,0,0,0,0,.23c.09,0,.1-.12.13-.19l1-2.41a4.41,4.41,0,0,0,.35-1.19l.12-1.6a7,7,0,0,1,.08-1A.25.25,0,0,0,30.51,32.25Zm-4.7-8.9a.91.91,0,0,0-.1-.4.13.13,0,0,0-.11-.08h-.12a.12.12,0,0,0-.15.08A6,6,0,0,0,24.71,25a4.64,4.64,0,0,1-.07.64c0,.12,0,.24,0,.36a1.29,1.29,0,0,0,.45-.27l.25-.29a2,2,0,0,0,.52-1.35Zm11.65.1a.79.79,0,0,0-.1-.34.1.1,0,0,0-.12-.06h-.1a.14.14,0,0,0-.16.1l-.28.71a4.7,4.7,0,0,0-.3,1.62.59.59,0,0,1,0,.13,2.48,2.48,0,0,0-.06.54A.78.78,0,0,0,36.6,26a1.81,1.81,0,0,0,.4-.43,2.09,2.09,0,0,0,.48-1.35Zm14.35,4.92a.42.42,0,0,0-.15-.3,1.74,1.74,0,0,0-.26-.19,2.37,2.37,0,0,1-.53-.33l-.07,0a.73.73,0,0,1-.27-.22,2,2,0,0,0-.27-.31,4,4,0,0,1-.52-.65A1.12,1.12,0,0,0,49.4,26a2.44,2.44,0,0,1-.29-.27c-.17-.2-.38-.35-.56-.53a1.65,1.65,0,0,0-.65-.35l-.13,0a.46.46,0,0,1-.13-.08.5.5,0,0,0-.24-.12,1.09,1.09,0,0,1-.48-.24c-.18-.16-.39-.29-.58-.45a3.85,3.85,0,0,1-.56-.51.49.49,0,0,0-.21-.14,1.38,1.38,0,0,1-.62-.5,1.38,1.38,0,0,0-.27-.27,1.56,1.56,0,0,1-.35-.33,8,8,0,0,0-.64-.51.31.31,0,0,0-.1-.05,1.74,1.74,0,0,1-.39-.23,3.1,3.1,0,0,0-.55-.47c-.06,0-.1-.11-.17-.13a.58.58,0,0,1-.26-.18,1.54,1.54,0,0,0-.19-.17,2.9,2.9,0,0,1-.36-.34,1.57,1.57,0,0,0-.32-.31,2.53,2.53,0,0,1-.63-.59A3.44,3.44,0,0,0,40,18.6a1.86,1.86,0,0,1-.27-.22,3.5,3.5,0,0,0-.53-.49,1.39,1.39,0,0,1-.28-.26,2.49,2.49,0,0,1-.41-.45.94.94,0,0,0-.36-.38,3.76,3.76,0,0,1-.79-.64,1,1,0,0,0-.41-.25.13.13,0,0,1-.09-.05,2.63,2.63,0,0,0-.68-.46s-.06,0-.08-.08a5.19,5.19,0,0,0-.71-1l0-.06a.27.27,0,0,0-.19-.25s-.07-.06-.08-.09c-.2-.19-.38-.4-.59-.57s-.14-.14-.21-.2-.31-.32-.48-.46l-.43-.36a.68.68,0,0,0-.67-.1c-.15.05-.28.13-.42.19s-.43.25-.65.35a.89.89,0,0,0-.34.23,2.3,2.3,0,0,1-.37.32.77.77,0,0,0-.21.23,1.14,1.14,0,0,1-.19.19,2,2,0,0,0-.52.45,2,2,0,0,1-.4.36L28,15.82l-.21.19-.55.48a6,6,0,0,1-.5.38,3.39,3.39,0,0,0-.46.39,6.3,6.3,0,0,0-.55.48,4.61,4.61,0,0,1-.63.54h0l0-.17-.25-.86a1,1,0,0,0-.07-.15,2.62,2.62,0,0,1-.22-.48.65.65,0,0,0-.6-.47h-.3a1.68,1.68,0,0,1-.5,0,2.21,2.21,0,0,0-.85-.1l-1,0c-.32,0-.65,0-1,0l-.36,0c-.27.05-.52.15-.78.21a1.39,1.39,0,0,0-.56.33.65.65,0,0,0-.19.31,5.32,5.32,0,0,1-.21.5,2.36,2.36,0,0,0-.26.94c0,.49,0,1,0,1.45a3.74,3.74,0,0,0,.09.66,2,2,0,0,1,0,.42l0,.91,0,2.17v.34a.15.15,0,0,1-.07.15,1.26,1.26,0,0,0-.24.22,2.11,2.11,0,0,1-.71.51,1,1,0,0,0-.28.18,1.13,1.13,0,0,1-.35.21,1.28,1.28,0,0,0-.25.15,3.17,3.17,0,0,0-.34.3.4.4,0,0,1-.15.1,1.31,1.31,0,0,0-.25.22l-.5.67a.91.91,0,0,1-.3.25,1.21,1.21,0,0,0-.39.28,3.11,3.11,0,0,1-.65.55,2.45,2.45,0,0,0-.65.71.42.42,0,0,0,0,.12,1,1,0,0,0,0,.55l.15.57a.62.62,0,0,0,.64.44H14a5.05,5.05,0,0,1,.68.07,4.9,4.9,0,0,0,.94.08h.59a7.45,7.45,0,0,0,1.06-.05.1.1,0,0,1,.11.06.34.34,0,0,1,0,.17,4.53,4.53,0,0,0,0,.74,6,6,0,0,1,0,.85,5.49,5.49,0,0,0,.07.91,4.9,4.9,0,0,1,.06.77,2.81,2.81,0,0,0,0,.29.91.91,0,0,1,0,.33,4.5,4.5,0,0,0,0,.82,8.24,8.24,0,0,1,0,1.11v.12l.05,1.41v.07a6.59,6.59,0,0,1,0,1.09l0,.48v1.64a3.42,3.42,0,0,1,0,.64l-.06.84,0,1.1a1.7,1.7,0,0,0,.06.51,2.77,2.77,0,0,1,.1,1.07l0,.5c0,.26,0,.51,0,.76v2.66a2.64,2.64,0,0,0,.14.92,1,1,0,0,0,.21.36,3.65,3.65,0,0,0,.36.31,8.75,8.75,0,0,0,1.08.71A.8.8,0,0,0,20,52,3.56,3.56,0,0,1,21,52a.58.58,0,0,0,.23,0,2.55,2.55,0,0,0,.67-.07h.79a9.65,9.65,0,0,1,1.31.06l.48,0a5.37,5.37,0,0,1,.89.09.59.59,0,0,0,.35,0,2.75,2.75,0,0,1,.7-.1,9.74,9.74,0,0,1,1.08,0,3.7,3.7,0,0,1,.66.07,1.51,1.51,0,0,0,.42,0,.61.61,0,0,1,.19,0,.86.86,0,0,0,.57.06,4.56,4.56,0,0,1,.52,0h.18a5.75,5.75,0,0,1,1.55,0l.89,0h.35l.7,0,.42,0c.32,0,.63,0,.94,0h1.75a4.8,4.8,0,0,1,.85.07,2.68,2.68,0,0,0,.8.07h.3a.63.63,0,0,0,.3,0,1.47,1.47,0,0,1,.42-.06s.06,0,.09,0a2.45,2.45,0,0,0,.37-.08c.35,0,.7,0,1.06,0A8.6,8.6,0,0,0,42.39,52a5.42,5.42,0,0,1,.91-.17h.08a.7.7,0,0,1,.35,0A7.31,7.31,0,0,0,45,51.68c.29,0,.58-.11.87-.16a.11.11,0,0,0,.07,0c.09-.06.21-.1.31-.16a1.1,1.1,0,0,0,.37-.28l.37-.44a.92.92,0,0,0,.16-.31l.16-.47a2.45,2.45,0,0,0,.07-.85,2.44,2.44,0,0,1,0-.66,2.82,2.82,0,0,0,.07-.92,4.87,4.87,0,0,1,0-.66,9,9,0,0,0,0-1.37,6.87,6.87,0,0,1,0-1.2c0-.26,0-.51,0-.77s-.06-.59-.06-.88a1,1,0,0,0,0-.45s0,0,0-.07V39.15c0-.3,0-.62,0-.93l0-3.14a.66.66,0,0,0,0-.14,1.13,1.13,0,0,1,0-.41c.07-.47,0-1,.08-1.42a6.91,6.91,0,0,0,0-.91,9.72,9.72,0,0,1,0-1.43c0-.06,0-.08.09-.08a.87.87,0,0,1,.32.06c.19.07.4.08.59.16a.3.3,0,0,0,.13,0c.31,0,.61,0,.91,0h.52a.94.94,0,0,0,.56-.16.27.27,0,0,1,.14-.07.78.78,0,0,0,.33-.19c.22-.18.44-.35.68-.51a.24.24,0,0,0,.13-.18l0-.15A12,12,0,0,0,51.81,28.37ZM44.9,31.06a2.37,2.37,0,0,1,.63,1.64,1.16,1.16,0,0,1-.2.59.53.53,0,0,1-.55.2.51.51,0,0,1-.4-.43l-.07-.73a.52.52,0,0,0-.26-.42.54.54,0,0,0-.48,0l-.37.19c-.14.07-.22.22-.33.33a.3.3,0,0,0,0,.1.15.15,0,0,0,0,.07,10.59,10.59,0,0,0,0,1.26,3.22,3.22,0,0,0,.33,1,9,9,0,0,0,.6,1.1l.5,1,.57,1.23a4.15,4.15,0,0,1,.39,1.63l.05.63a.92.92,0,0,1-.07.36,4.45,4.45,0,0,1-.58.92.31.31,0,0,1-.15.1,2.53,2.53,0,0,1-.85.25.71.71,0,0,0-.2,0,1.2,1.2,0,0,1-.65,0c-.29-.07-.57-.14-.84-.23a1.29,1.29,0,0,1-.39-.23,2.52,2.52,0,0,1-.76-1.53,2.07,2.07,0,0,1,0-.35.39.39,0,0,1,.07-.23.58.58,0,0,1,.78-.08.47.47,0,0,1,.19.42,1.13,1.13,0,0,0,.31.89.93.93,0,0,0,1,.29.36.36,0,0,0,.25-.48A7.15,7.15,0,0,0,42.73,39l-.93-1.51-.59-.94a5.09,5.09,0,0,1-.68-2l0-.4a1.61,1.61,0,0,1,0-.31l.13-1.26a.86.86,0,0,1,.09-.3,4.73,4.73,0,0,1,.8-1.08,3.73,3.73,0,0,1,1.11-.68,1.23,1.23,0,0,1,.46,0,3.7,3.7,0,0,1,.94.09.94.94,0,0,1,.45.21h0a.2.2,0,0,0,.09.05A.72.72,0,0,1,44.9,31.06Zm-5.5-8.31a2.09,2.09,0,0,1,.08-.23.39.39,0,0,1,.47-.24,2.5,2.5,0,0,1,.38.15.64.64,0,0,1,.34.52l0,.17a1,1,0,0,1,.06.25l.06,2.52a4.1,4.1,0,0,0,.1.69,3.22,3.22,0,0,1,0,.76v.51a.29.29,0,0,0,.1-.12,3,3,0,0,0,.39-.9A15.06,15.06,0,0,1,42.11,25a5.67,5.67,0,0,1,.68-1.17.74.74,0,0,1,.71-.26l.22.05a.72.72,0,0,1,.57.6l.09.57a3.09,3.09,0,0,1,0,.86,4.15,4.15,0,0,0,0,.86,4.15,4.15,0,0,1,0,.79,5.79,5.79,0,0,0,0,1l.07.68a3.13,3.13,0,0,0,.16.52l.09.26a.29.29,0,0,1-.37.37,1,1,0,0,1-.73-.57,4.65,4.65,0,0,1-.37-.86L43,27.83a3.15,3.15,0,0,1,0-.92c0-.36.09-.72.08-1.09a3.43,3.43,0,0,0-.08-.56s-.05,0-.05,0a3.94,3.94,0,0,1-.26.55l-.19.44a3.68,3.68,0,0,0-.16.54l-.22.68c-.12.39-.3.76-.41,1.15a3.07,3.07,0,0,1-.57,1.05.64.64,0,0,1-.52.24,1.81,1.81,0,0,1-.61-.06.86.86,0,0,1-.35-.23.51.51,0,0,1-.12-.2,5.22,5.22,0,0,0-.18-.56,1.61,1.61,0,0,1-.07-.37h0l-.1-2.58,0-1.4A7.76,7.76,0,0,1,39.4,22.75Zm-.31,8a.67.67,0,0,1,.21.09.46.46,0,0,1,.23.37,2.78,2.78,0,0,1,0,.58l-.06.71a1.29,1.29,0,0,1,0,.39.39.39,0,0,0,0,.24.67.67,0,0,1,0,.37c0,.91-.09,1.82-.06,2.73l.07,1.17a1.66,1.66,0,0,0,.09.37l.21,1a.87.87,0,0,0,.15.36,4.7,4.7,0,0,0,.4.59.26.26,0,0,1,.05.28.52.52,0,0,1-.46.39,1.2,1.2,0,0,1-.42,0,4.49,4.49,0,0,1-.77-.29.16.16,0,0,1-.08-.06,4.72,4.72,0,0,1-1-1.62,1.43,1.43,0,0,0-.1-.29l-.25.6a9.51,9.51,0,0,1-.54,1.11,1.61,1.61,0,0,1-.82.7,2.45,2.45,0,0,1-1.11,0,1.22,1.22,0,0,1-.59-.51,1.49,1.49,0,0,1-.29-.71.45.45,0,0,0,0-.19c-.05-.13-.1-.27-.14-.41a3.38,3.38,0,0,0-.13-.42,1.5,1.5,0,0,1-.09-.56L33.37,36c0-.12,0-.25,0-.38l0-1.44a8.75,8.75,0,0,1,.44-2.43l.19-.46a.67.67,0,0,1,.68-.44,2.16,2.16,0,0,1,.62.09A1,1,0,0,1,36,32l-.16,1.53-.13,1-.07.94,0,1.47c0,.29,0,.58,0,.87a6.87,6.87,0,0,0,.14,1.28c0,.07,0,.16.09.18s.12-.07.16-.12a2.82,2.82,0,0,0,.47-1A13.93,13.93,0,0,0,37,35.58l.18-2.19.07-.78v-.06a5.31,5.31,0,0,1,.5-1.29,1.57,1.57,0,0,1,.38-.43.77.77,0,0,1,.36-.12h0A1.66,1.66,0,0,1,39.09,30.74Zm-4.62-4.31a6.33,6.33,0,0,0,.05-.76,2.07,2.07,0,0,1,.12-.65l.45-1.34a1.3,1.3,0,0,1,.08-.17l.52-.77a.46.46,0,0,1,.18-.16,3.21,3.21,0,0,1,.73-.27l.09,0a1.59,1.59,0,0,1,1,0,.89.89,0,0,1,.37.22,1.11,1.11,0,0,1,.28.48,2.9,2.9,0,0,1-.05,2,5.84,5.84,0,0,1-.46,1,1.18,1.18,0,0,1-.32.31,9.4,9.4,0,0,1-.88.57,1,1,0,0,1-.29.11.15.15,0,0,0-.13.16v.24a3.28,3.28,0,0,0,.34,1.48.55.55,0,0,0,.39.34.69.69,0,0,0,.86-.33,2.45,2.45,0,0,1,.45-.46.54.54,0,0,1,.37-.13.22.22,0,0,1,.22.3.65.65,0,0,1,0,.13,3,3,0,0,1-.8,1.07,2,2,0,0,1-1.2.44h-.29c-.2,0-.36,0-.52,0a1.26,1.26,0,0,1-.81-.44h0a2.57,2.57,0,0,1-.44-.77A5.68,5.68,0,0,1,34.47,26.43Zm-2.15-5.95a.76.76,0,0,1,.56-.17l.43,0a.65.65,0,0,1,.58.32,1.24,1.24,0,0,0,.18.22.42.42,0,0,1,.12.26l0,.36a.83.83,0,0,1-.13.51.79.79,0,0,1-.69.42,1.7,1.7,0,0,1-.83-.15.94.94,0,0,1-.48-.57h0a1.71,1.71,0,0,1-.09-.55A.65.65,0,0,1,32.32,20.48Zm-.47,4.8a4.19,4.19,0,0,0,0-.71,4.8,4.8,0,0,1,0-.93,2.4,2.4,0,0,1,.12-.38.43.43,0,0,1,.24-.22A2.62,2.62,0,0,1,33,22.9a.74.74,0,0,1,.73.47.91.91,0,0,1,.11.53,9.93,9.93,0,0,1-.16,1.54,4.69,4.69,0,0,0,0,1.35.61.61,0,0,1,0,.19,2.33,2.33,0,0,0,0,.79A10.31,10.31,0,0,0,34,29.31a.34.34,0,0,0,.17.22c.22.13.2.32,0,.5a.57.57,0,0,1-.47.16,1.39,1.39,0,0,1-1.17-.8,5.22,5.22,0,0,1-.46-1.5L31.9,26l0-.62h0Zm-4.38,0h0l0-1.12c0-.48,0-.95,0-1.42a3.44,3.44,0,0,1,.05-.45.27.27,0,0,1,.17-.2A.65.65,0,0,1,28,22a.25.25,0,0,1,.16.1,2,2,0,0,1,.17.27,2.65,2.65,0,0,1,.33,1.1l.11,1.2.19-.92a4.94,4.94,0,0,1,.15-.55,3.66,3.66,0,0,1,.31-.59,1.37,1.37,0,0,1,.63-.51.25.25,0,0,1,.12,0h.21a.42.42,0,0,1,.44.31,2.74,2.74,0,0,1,.08.5A6.46,6.46,0,0,1,31,24.31a1.79,1.79,0,0,0,.13.58.16.16,0,0,0,.07.07l.12.08a.25.25,0,0,1-.05.42l-.07,0a1.32,1.32,0,0,1-1.09-.18.8.8,0,0,1-.31-.62c0-.23-.08-.45-.09-.69l0-.3a.72.72,0,0,0-.21.38c0,.23-.12.45-.16.68-.08.55-.16,1.09-.19,1.64l-.08.76a.67.67,0,0,0,0,.2,6.84,6.84,0,0,1,0,1l0,.25a1,1,0,0,1,0,.29,1.58,1.58,0,0,0-.05.38,2.36,2.36,0,0,0,0,.38.55.55,0,0,1-.16.39l-.08.09a.37.37,0,0,1-.37.16.4.4,0,0,1-.35-.17l-.24-.33a.59.59,0,0,1-.08-.32,10.85,10.85,0,0,1-.13-1.71,2.2,2.2,0,0,1,0-.44,1.93,1.93,0,0,0,0-.24Zm-3.4-2.9a.38.38,0,0,1,.16-.12A5.22,5.22,0,0,1,25,22a1.85,1.85,0,0,1,1,.1,1,1,0,0,1,.44.3,1.37,1.37,0,0,1,.3.63,3.55,3.55,0,0,1,.12.65A3.1,3.1,0,0,1,26.64,25a5.45,5.45,0,0,1-.46.94.86.86,0,0,1-.19.19,7.46,7.46,0,0,1-1.1.63.72.72,0,0,1-.26.08.16.16,0,0,0-.13.14.78.78,0,0,1,0,.16,4.08,4.08,0,0,0,.29,1.76.51.51,0,0,0,.38.33.68.68,0,0,0,.42.06,1,1,0,0,0,.46-.35,1.9,1.9,0,0,1,.5-.48.53.53,0,0,1,.4-.1.21.21,0,0,1,.19.27.58.58,0,0,1-.08.22,3.41,3.41,0,0,1-.84,1,2.18,2.18,0,0,1-1.48.44H24.3a1.08,1.08,0,0,1-.85-.41,2.07,2.07,0,0,1-.44-.81,6.15,6.15,0,0,1-.27-1.88,8.49,8.49,0,0,1,.1-1.41.41.41,0,0,0,0-.11A3.24,3.24,0,0,1,23,24.52l.44-1.26h0a.64.64,0,0,1,.08-.14Zm-.14,13.42a1.36,1.36,0,0,0,0-.2l0-1.91a.05.05,0,0,0,0,0,1.34,1.34,0,0,0-.22.31,12.27,12.27,0,0,0-.61,1.73l-.51,2-.17.49a4.13,4.13,0,0,0-.32,1.43.18.18,0,0,1-.05.12,1.36,1.36,0,0,1-.43.36.62.62,0,0,1-.87-.36A6.29,6.29,0,0,1,20.47,38l0-.25a9.81,9.81,0,0,1-.12-1.32,7.48,7.48,0,0,1,0-.82l.05-1.91.07-1.26.08-.81,0-.71c.05-.46,0-.92.12-1.38l.25-1.25c0-.1,0-.22.07-.32a1.78,1.78,0,0,1,.44-.57,1.15,1.15,0,0,1,.64-.2.23.23,0,0,1,.24.16.67.67,0,0,1,.06.28l0,1.88a1.27,1.27,0,0,1-.09.42,1.6,1.6,0,0,0-.09.53l0,2a3.24,3.24,0,0,1-.06.88l-.06.42a.39.39,0,0,0,0,.15.91.91,0,0,1,0,.4s0,.06,0,.1l-.07,1.71s0,0,0,0a9,9,0,0,1,.31-1.24,20.26,20.26,0,0,1,.79-2,3,3,0,0,1,.45-.72.93.93,0,0,0,.05-.1,1.37,1.37,0,0,1,.34-.45,1.86,1.86,0,0,1,.76-.4.62.62,0,0,1,.75.3,1.38,1.38,0,0,1,.17.66l0,1.45,0,1.4v.87l.08,3a6.72,6.72,0,0,0,.22,1.33.44.44,0,0,1-.24.47.26.26,0,0,1-.23,0,2.38,2.38,0,0,1-.89-.5,1.18,1.18,0,0,1-.27-.32A3.52,3.52,0,0,1,24,38.42a5.4,5.4,0,0,0-.09-.58,2,2,0,0,1,0-.49c0-.37,0-.75,0-1.12a1.61,1.61,0,0,1,.06-.44Zm-4.72-7.53c0-.18,0-.35,0-.52l.09-5.94.08-1.72,0-1.47a.5.5,0,0,0,0-.12.47.47,0,0,1,.36-.64,1.24,1.24,0,0,1,.33,0h1l1.82-.07h.15a.41.41,0,0,1,.44.36,2.29,2.29,0,0,1,0,.52.63.63,0,0,1-.34.52,1,1,0,0,1-.56.08l-1.29-.08a3.26,3.26,0,0,0-.55,0,10.63,10.63,0,0,1,.1,1.36l.1,2.19v.17c0,.15,0,.16.15.14l.77-.07.46-.05a.24.24,0,0,1,.29.25,2.36,2.36,0,0,1,0,.53.61.61,0,0,1-.13.32.38.38,0,0,1-.26.13,7.19,7.19,0,0,1-.81.05c-.14,0-.28,0-.42,0s-.11,0-.11.11v.13L21,26l0,.82a2.21,2.21,0,0,1-.13.66l-.16.45a2.29,2.29,0,0,0-.17.72l-.13.83a1.91,1.91,0,0,1-.06.33.44.44,0,0,1-.37.35,1.38,1.38,0,0,1-.2,0c-.15,0-.21-.07-.26-.21a3,3,0,0,1-.1-.72C19.3,28.93,19.23,28.6,19.21,28.26ZM28,50a.61.61,0,0,1-.78.13.13.13,0,0,0-.12,0,.43.43,0,0,1-.35-.1,1.27,1.27,0,0,1-.25-.27l-.13-.2a.91.91,0,0,1-.17-.5l-.09-2a1.73,1.73,0,0,0-.05-.38,2.89,2.89,0,0,1-.05-.66l0-1.14a.08.08,0,0,1,0,0s0,0-.05,0L25.2,46.6a2.92,2.92,0,0,0-.22.71.3.3,0,0,1,0,.1,5.72,5.72,0,0,0-.56,1.71,5.71,5.71,0,0,1-.21.58.05.05,0,0,1,0,0,.61.61,0,0,1-1-.13,1.92,1.92,0,0,1-.22-.85l0-.93a5.53,5.53,0,0,1,.1-1.15,2.11,2.11,0,0,0,0-.25V43.9a7,7,0,0,0,0-.79s0,0,0,0a.25.25,0,0,0,0,.17,5.92,5.92,0,0,1-.12.93,1.12,1.12,0,0,1-.12.35,1.71,1.71,0,0,0-.1.49.37.37,0,0,1,0,.15A8.59,8.59,0,0,0,22,46.93l-.19.64-.41,1.31a1.4,1.4,0,0,1-.59.74.57.57,0,0,1-.74-.09,1.52,1.52,0,0,1-.3-.46,1.06,1.06,0,0,1,0-.31,10,10,0,0,1-.06-1.55,10.1,10.1,0,0,0,0-1.1l0-1.11c0-.44,0-.88,0-1.32a3.51,3.51,0,0,0-.07-.72,5.9,5.9,0,0,1-.09-1.26,1.07,1.07,0,0,1,.24-.66.53.53,0,0,1,.41-.19,1.19,1.19,0,0,1,.79.32.82.82,0,0,1,.16.25,2.69,2.69,0,0,1,.21.89,1.13,1.13,0,0,0,.06.31,3.25,3.25,0,0,1,.13.62l.08.59a2.84,2.84,0,0,1,.09.42c0,.32,0,.64,0,1,0,0,0,0,0,.07s0-.05.05-.08a3.52,3.52,0,0,0,.24-.9s0-.06,0-.08a1.29,1.29,0,0,0,.18-.74,5.23,5.23,0,0,1,.25-1.25l.13-.53a1.31,1.31,0,0,1,.63-.79.78.78,0,0,1,.5-.07,1.66,1.66,0,0,1,.49.16.63.63,0,0,1,.35.38A7.77,7.77,0,0,1,24.72,43a2.21,2.21,0,0,1,0,.77,2.29,2.29,0,0,0-.05.52v1.31s0,.08,0,.11a.34.34,0,0,0,.09-.15l.21-.61c.06-.18.13-.37.21-.55a5,5,0,0,0,.31-.92l.17-.65a1.81,1.81,0,0,1,.55-.89,2.55,2.55,0,0,1,.52-.33.64.64,0,0,1,.41-.06.6.6,0,0,1,.45.3,1.78,1.78,0,0,1,.21.54,5.34,5.34,0,0,1,.13.88L28,44.88c0,.33,0,.66,0,1l-.06.91-.06.65c0,.09,0,.18,0,.26a2.06,2.06,0,0,0,.14,1h0a3.57,3.57,0,0,1,.1.35A1.07,1.07,0,0,1,28,50Zm0-9.5a.78.78,0,0,1-.63-.31.9.9,0,0,0-.19-.2.35.35,0,0,1-.09-.17,3.29,3.29,0,0,1-.16-.69l-.12-1.79-.05-1.14a1.94,1.94,0,0,1,.05-.54,13.41,13.41,0,0,1,.42-2,4.12,4.12,0,0,1,.27-.69L28,31.87a1.09,1.09,0,0,1,.34-.37,2.42,2.42,0,0,1,1.06-.41,1.6,1.6,0,0,1,1.37.4l.08.07c0,.05.07,0,.11,0a2.79,2.79,0,0,1,.38-.39,1.5,1.5,0,0,1,.59-.33.67.67,0,0,1,.37,0,.47.47,0,0,1,.39.48,3.88,3.88,0,0,1,0,.68,5.71,5.71,0,0,0-.08,1.24c0,.21,0,.42,0,.64,0,.82,0,1.64,0,2.46l0,1.11,0,.51a.29.29,0,0,0,0,.18h0L33,39.39a1.52,1.52,0,0,1,.06.42v.12a.51.51,0,0,1-.58.48l-.38,0a.89.89,0,0,1-.66-.38,2.66,2.66,0,0,1-.48-.89,7.05,7.05,0,0,1-.32-1.28l0-.14-.47,1.11a7.69,7.69,0,0,1-.45.91h0a1.62,1.62,0,0,1-.79.67.88.88,0,0,1-.39.08Zm2.89,2a.28.28,0,0,1-.15.08,1.39,1.39,0,0,1-1.17-.17.87.87,0,0,1-.38-.65,1.63,1.63,0,0,1,0-.54.52.52,0,0,1,.19-.36,1,1,0,0,1,.71-.27l.44,0a.61.61,0,0,1,.47.27,1.15,1.15,0,0,0,.14.17.39.39,0,0,1,.13.3h0v.2A1.1,1.1,0,0,1,30.84,42.42Zm.55,7.15a.42.42,0,0,1-.34.18,1.15,1.15,0,0,1-.41,0,1.81,1.81,0,0,1-1.27-1,4.14,4.14,0,0,1-.5-1.47l-.26-1.86a2.32,2.32,0,0,1,0-.59,2.68,2.68,0,0,0,0-.49,2.43,2.43,0,0,1,0-.76l0-.1a.46.46,0,0,1,.37-.33,4.24,4.24,0,0,1,.94,0,1.31,1.31,0,0,1,.34.09.81.81,0,0,1,.49.75,7.9,7.9,0,0,1-.15,1.19,3.67,3.67,0,0,0-.06,1.28,1.37,1.37,0,0,1,0,.35,1.61,1.61,0,0,0,0,.62A11.55,11.55,0,0,0,31,48.93a.53.53,0,0,0,.2.24.4.4,0,0,1,.14.11A.2.2,0,0,1,31.39,49.57Zm4.2-1.48a2.63,2.63,0,0,1-1.06,1.29,1.94,1.94,0,0,1-1.08.25l-.62,0a1.19,1.19,0,0,1-.72-.3,2.21,2.21,0,0,1-.63-1,6.22,6.22,0,0,1-.38-2.12,7,7,0,0,1,.06-1.1,1,1,0,0,0,0-.25,2.32,2.32,0,0,1,.12-.87l.42-1.28a1,1,0,0,1,.08-.14l.51-.68a.43.43,0,0,1,.2-.15,2.64,2.64,0,0,1,.61-.17l.33-.07a1,1,0,0,1,.39,0,2.05,2.05,0,0,1,.54.1,1.1,1.1,0,0,1,.37.23,1.12,1.12,0,0,1,.31.52,2.59,2.59,0,0,1,0,1.84,6.31,6.31,0,0,1-.44.95.74.74,0,0,1-.16.19l-.88.58a1.43,1.43,0,0,1-.46.2c-.12,0-.15.09-.16.19a3.77,3.77,0,0,0,.06.95,4.93,4.93,0,0,0,.37,1.06.26.26,0,0,0,.14.15,1.34,1.34,0,0,0,.51.17.22.22,0,0,0,.14,0,1,1,0,0,0,.45-.37,1.75,1.75,0,0,1,.46-.48.52.52,0,0,1,.38-.09h0a.22.22,0,0,1,.22.27A.4.4,0,0,1,35.59,48.09Zm3.46,1.67a.94.94,0,0,1-.4.13,2.4,2.4,0,0,1-1.54-.22,1.58,1.58,0,0,1-.66-.62l-.15-.22a1.58,1.58,0,0,1-.24-.57,10.23,10.23,0,0,1-.12-1.83l0-1.43a3.29,3.29,0,0,1,.06-.77.41.41,0,0,1,0-.11c0-.07,0-.09-.09-.09a.84.84,0,0,1-.31-.05.39.39,0,0,1-.24-.37.09.09,0,0,1,0-.07.58.58,0,0,1,.4-.3l.31-.05c.08,0,.11,0,.11-.11a9.67,9.67,0,0,1,.36-2,4.87,4.87,0,0,1,.24-.57.49.49,0,0,1,.26-.23l.22-.09a.42.42,0,0,1,.51.19A2.14,2.14,0,0,1,38,41a.34.34,0,0,1,0,.1,11.79,11.79,0,0,1-.13,2s0,0,0,.06a2.2,2.2,0,0,0,.58-.08.57.57,0,0,1,.22,0,.26.26,0,0,1,.28.29.4.4,0,0,1-.33.4,2.35,2.35,0,0,1-.6.1c-.06,0-.13,0-.17,0s0,.1,0,.16a18.52,18.52,0,0,0-.17,3.49,3.66,3.66,0,0,0,.06.65,2.14,2.14,0,0,0,.33.78c0,.08.13.11.21.16a2.08,2.08,0,0,0,.65.17h0a.33.33,0,0,1,.29.31A.23.23,0,0,1,39.05,49.76Zm3.3-5.09a5.58,5.58,0,0,1-.41,1,.52.52,0,0,1-.13.17,5.66,5.66,0,0,1-1,.69.5.5,0,0,1-.2.08.15.15,0,0,0-.13.16v.1a5.9,5.9,0,0,0,.06.83,3.83,3.83,0,0,0,.15.75l.08.22a.62.62,0,0,0,.76.37,1.74,1.74,0,0,0,.49-.2.18.18,0,0,1,.21,0c.08.05.08.13.08.21a.37.37,0,0,1-.12.26,1.55,1.55,0,0,1-.39.28,2.15,2.15,0,0,1-1,.29,1.36,1.36,0,0,1-.74-.16,1.2,1.2,0,0,1-.42-.39,3.36,3.36,0,0,1-.42-.77,5,5,0,0,1-.27-1.22,8.06,8.06,0,0,1,0-.85,6.74,6.74,0,0,1,0-.77v-.14a3.24,3.24,0,0,1,.13-1.2l.3-1a.68.68,0,0,1,.1-.21l.42-.63a.4.4,0,0,1,.2-.16,2.24,2.24,0,0,1,.5-.16,2.44,2.44,0,0,1,.66-.08,3.25,3.25,0,0,1,.43.08.91.91,0,0,1,.6.58,2.66,2.66,0,0,1,.08,1.87Zm.43,4.27a.3.3,0,0,1-.29-.31.38.38,0,0,1,.34-.33.35.35,0,0,1,.29.31A.31.31,0,0,1,42.78,48.94ZM45,47.85a.45.45,0,0,1-.51,0,1.13,1.13,0,0,1-.35-.37L44,47.24a1.11,1.11,0,0,0,0,.48l0,.38a.33.33,0,0,1-.22.4.43.43,0,0,1-.52-.07,1.13,1.13,0,0,1-.1-.13l-.36-.69a2.06,2.06,0,0,1-.2-.54c0-.15-.11-.3-.15-.46a1.51,1.51,0,0,1,0-.52.45.45,0,0,1,.25-.33,1.11,1.11,0,0,1,.29-.14c.11,0,.12,0,.07-.16s-.12-.3-.17-.45a2.05,2.05,0,0,1-.07-.74.24.24,0,0,1,0-.14c.09-.14.22-.13.31,0a1.51,1.51,0,0,1,.14.35l.58,1.37.28.62.34.63a1.34,1.34,0,0,0,.4.42h0A.18.18,0,0,1,45,47.85Zm1-1a.9.9,0,0,1-.55.53.33.33,0,0,1-.33,0,1.44,1.44,0,0,1-.39-.35,1.85,1.85,0,0,1-.21-.33,3,3,0,0,1-.38-1,1,1,0,0,1,.44-1,.29.29,0,0,1,.37,0,1,1,0,0,1,.3.57l0,.39a.38.38,0,0,1,0,.18,2.28,2.28,0,0,1-.2.45.14.14,0,0,0,0,.16,1.12,1.12,0,0,0,.36.42.19.19,0,0,0,.18,0,.18.18,0,0,0,.14-.11.49.49,0,0,0,.06-.17.14.14,0,0,1,.06-.11.1.1,0,0,1,.09,0,.11.11,0,0,1,.07.08h0A.51.51,0,0,1,46,46.88ZM44.74,45a.08.08,0,0,0-.1,0,.09.09,0,0,0-.06.11v0a2.41,2.41,0,0,0,.33,1,1.05,1.05,0,0,0,0-.8A1.69,1.69,0,0,0,44.74,45Zm-1.11,2.09A2.42,2.42,0,0,0,43.31,46a.12.12,0,0,0-.15-.08.11.11,0,0,0-.07.13,3.4,3.4,0,0,0,.08.57c.1.34.21.67.34,1l.19.42a.14.14,0,0,0,0-.14A4.91,4.91,0,0,1,43.63,47.09ZM41.4,42.94c0-.1-.15,0-.23-.07s-.09,0-.11.09a5.45,5.45,0,0,0-.47,1.71c0,.29,0,.57,0,.85,0,.11,0,.21,0,.31a1.16,1.16,0,0,0,.34-.24,2.12,2.12,0,0,0,.29-.38A2,2,0,0,0,41.54,44l0-.76A.76.76,0,0,0,41.4,42.94ZM37,25.56a2.09,2.09,0,0,0,.48-1.35l0-.76a.79.79,0,0,0-.1-.34.1.1,0,0,0-.12-.06h-.1a.14.14,0,0,0-.16.1l-.28.71a4.7,4.7,0,0,0-.3,1.62.59.59,0,0,1,0,.13,2.48,2.48,0,0,0-.06.54A.78.78,0,0,0,36.6,26,1.81,1.81,0,0,0,37,25.56ZM33.44,45a6.41,6.41,0,0,0,.39-.52,1.91,1.91,0,0,0,.29-1.06l0-.79,0-.12c-.08-.21-.11-.23-.33-.24a.11.11,0,0,0-.13.07l-.1.21A4.57,4.57,0,0,0,33,44.62a.59.59,0,0,1,0,.13,2,2,0,0,0,0,.55A1.27,1.27,0,0,0,33.44,45Zm-4.5-6.28a.45.45,0,0,0,0,.23c.09,0,.1-.12.13-.19l1-2.41a4.41,4.41,0,0,0,.35-1.19l.12-1.6a7,7,0,0,1,.08-1,.25.25,0,0,0-.11-.27,1.89,1.89,0,0,0-.36-.16.25.25,0,0,0-.26,0,.9.9,0,0,0-.15.19,1.67,1.67,0,0,0-.21.52L29.27,34a3.46,3.46,0,0,0-.13,1,5.49,5.49,0,0,1-.05.7,1.85,1.85,0,0,1-.08.47,1.05,1.05,0,0,0-.08.35l0,.49h0ZM25.3,25.45a2,2,0,0,0,.52-1.35v-.75a.91.91,0,0,0-.1-.4.13.13,0,0,0-.11-.08h-.12a.12.12,0,0,0-.15.08A6,6,0,0,0,24.71,25a4.64,4.64,0,0,1-.07.64c0,.12,0,.24,0,.36a1.29,1.29,0,0,0,.45-.27Zm12.16-2a.79.79,0,0,0-.1-.34.1.1,0,0,0-.12-.06h-.1a.14.14,0,0,0-.16.1l-.28.71a4.7,4.7,0,0,0-.3,1.62.59.59,0,0,1,0,.13,2.48,2.48,0,0,0-.06.54A.78.78,0,0,0,36.6,26a1.81,1.81,0,0,0,.4-.43,2.09,2.09,0,0,0,.48-1.35Zm-11.65-.1a.91.91,0,0,0-.1-.4.13.13,0,0,0-.11-.08h-.12a.12.12,0,0,0-.15.08A6,6,0,0,0,24.71,25a4.64,4.64,0,0,1-.07.64c0,.12,0,.24,0,.36a1.29,1.29,0,0,0,.45-.27l.25-.29a2,2,0,0,0,.52-1.35Zm4.7,8.9a1.89,1.89,0,0,0-.36-.16.25.25,0,0,0-.26,0,.9.9,0,0,0-.15.19,1.67,1.67,0,0,0-.21.52L29.27,34a3.46,3.46,0,0,0-.13,1,5.49,5.49,0,0,1-.05.7,1.85,1.85,0,0,1-.08.47,1.05,1.05,0,0,0-.08.35l0,.49h0l0,1.7a.45.45,0,0,0,0,.23c.09,0,.1-.12.13-.19l1-2.41a4.41,4.41,0,0,0,.35-1.19l.12-1.6a7,7,0,0,1,.08-1A.25.25,0,0,0,30.51,32.25Zm3.58,10.36,0-.12c-.08-.21-.11-.23-.33-.24a.11.11,0,0,0-.13.07l-.1.21A4.57,4.57,0,0,0,33,44.62a.59.59,0,0,1,0,.13,2,2,0,0,0,0,.55,1.27,1.27,0,0,0,.47-.32,6.41,6.41,0,0,0,.39-.52,1.91,1.91,0,0,0,.29-1.06Zm7.41.63a.76.76,0,0,0-.1-.3c0-.1-.15,0-.23-.07s-.09,0-.11.09a5.45,5.45,0,0,0-.47,1.71c0,.29,0,.57,0,.85,0,.11,0,.21,0,.31a1.16,1.16,0,0,0,.34-.24,2.12,2.12,0,0,0,.29-.38A2,2,0,0,0,41.54,44Zm2.22,4.62a4.91,4.91,0,0,1-.09-.77A2.42,2.42,0,0,0,43.31,46a.12.12,0,0,0-.15-.08.11.11,0,0,0-.07.13,3.4,3.4,0,0,0,.08.57c.1.34.21.67.34,1l.19.42A.14.14,0,0,0,43.72,47.86Zm0,0a4.91,4.91,0,0,1-.09-.77A2.42,2.42,0,0,0,43.31,46a.12.12,0,0,0-.15-.08.11.11,0,0,0-.07.13,3.4,3.4,0,0,0,.08.57c.1.34.21.67.34,1l.19.42A.14.14,0,0,0,43.72,47.86ZM41.5,43.24a.76.76,0,0,0-.1-.3c0-.1-.15,0-.23-.07s-.09,0-.11.09a5.45,5.45,0,0,0-.47,1.71c0,.29,0,.57,0,.85,0,.11,0,.21,0,.31a1.16,1.16,0,0,0,.34-.24,2.12,2.12,0,0,0,.29-.38A2,2,0,0,0,41.54,44Zm-4-19.79a.79.79,0,0,0-.1-.34.1.1,0,0,0-.12-.06h-.1a.14.14,0,0,0-.16.1l-.28.71a4.7,4.7,0,0,0-.3,1.62.59.59,0,0,1,0,.13,2.48,2.48,0,0,0-.06.54A.78.78,0,0,0,36.6,26a1.81,1.81,0,0,0,.4-.43,2.09,2.09,0,0,0,.48-1.35ZM34.09,42.61l0-.12c-.08-.21-.11-.23-.33-.24a.11.11,0,0,0-.13.07l-.1.21A4.57,4.57,0,0,0,33,44.62a.59.59,0,0,1,0,.13,2,2,0,0,0,0,.55,1.27,1.27,0,0,0,.47-.32,6.41,6.41,0,0,0,.39-.52,1.91,1.91,0,0,0,.29-1.06ZM30.51,32.25a1.89,1.89,0,0,0-.36-.16.25.25,0,0,0-.26,0,.9.9,0,0,0-.15.19,1.67,1.67,0,0,0-.21.52L29.27,34a3.46,3.46,0,0,0-.13,1,5.49,5.49,0,0,1-.05.7,1.85,1.85,0,0,1-.08.47,1.05,1.05,0,0,0-.08.35l0,.49h0l0,1.7a.45.45,0,0,0,0,.23c.09,0,.1-.12.13-.19l1-2.41a4.41,4.41,0,0,0,.35-1.19l.12-1.6a7,7,0,0,1,.08-1A.25.25,0,0,0,30.51,32.25Zm-4.7-8.9a.91.91,0,0,0-.1-.4.13.13,0,0,0-.11-.08h-.12a.12.12,0,0,0-.15.08A6,6,0,0,0,24.71,25a4.64,4.64,0,0,1-.07.64c0,.12,0,.24,0,.36a1.29,1.29,0,0,0,.45-.27l.25-.29a2,2,0,0,0,.52-1.35Zm11.65.1a.79.79,0,0,0-.1-.34.1.1,0,0,0-.12-.06h-.1a.14.14,0,0,0-.16.1l-.28.71a4.7,4.7,0,0,0-.3,1.62.59.59,0,0,1,0,.13,2.48,2.48,0,0,0-.06.54A.78.78,0,0,0,36.6,26a1.81,1.81,0,0,0,.4-.43,2.09,2.09,0,0,0,.48-1.35Zm-11.65-.1a.91.91,0,0,0-.1-.4.13.13,0,0,0-.11-.08h-.12a.12.12,0,0,0-.15.08A6,6,0,0,0,24.71,25a4.64,4.64,0,0,1-.07.64c0,.12,0,.24,0,.36a1.29,1.29,0,0,0,.45-.27l.25-.29a2,2,0,0,0,.52-1.35Zm4.7,8.9a1.89,1.89,0,0,0-.36-.16.25.25,0,0,0-.26,0,.9.9,0,0,0-.15.19,1.67,1.67,0,0,0-.21.52L29.27,34a3.46,3.46,0,0,0-.13,1,5.49,5.49,0,0,1-.05.7,1.85,1.85,0,0,1-.08.47,1.05,1.05,0,0,0-.08.35l0,.49h0l0,1.7a.45.45,0,0,0,0,.23c.09,0,.1-.12.13-.19l1-2.41a4.41,4.41,0,0,0,.35-1.19l.12-1.6a7,7,0,0,1,.08-1A.25.25,0,0,0,30.51,32.25Zm3.58,10.36,0-.12c-.08-.21-.11-.23-.33-.24a.11.11,0,0,0-.13.07l-.1.21A4.57,4.57,0,0,0,33,44.62a.59.59,0,0,1,0,.13,2,2,0,0,0,0,.55,1.27,1.27,0,0,0,.47-.32,6.41,6.41,0,0,0,.39-.52,1.91,1.91,0,0,0,.29-1.06Zm3.37-19.16a.79.79,0,0,0-.1-.34.1.1,0,0,0-.12-.06h-.1a.14.14,0,0,0-.16.1l-.28.71a4.7,4.7,0,0,0-.3,1.62.59.59,0,0,1,0,.13,2.48,2.48,0,0,0-.06.54A.78.78,0,0,0,36.6,26a1.81,1.81,0,0,0,.4-.43,2.09,2.09,0,0,0,.48-1.35ZM34.09,42.61l0-.12c-.08-.21-.11-.23-.33-.24a.11.11,0,0,0-.13.07l-.1.21A4.57,4.57,0,0,0,33,44.62a.59.59,0,0,1,0,.13,2,2,0,0,0,0,.55,1.27,1.27,0,0,0,.47-.32,6.41,6.41,0,0,0,.39-.52,1.91,1.91,0,0,0,.29-1.06ZM30.51,32.25a1.89,1.89,0,0,0-.36-.16.25.25,0,0,0-.26,0,.9.9,0,0,0-.15.19,1.67,1.67,0,0,0-.21.52L29.27,34a3.46,3.46,0,0,0-.13,1,5.49,5.49,0,0,1-.05.7,1.85,1.85,0,0,1-.08.47,1.05,1.05,0,0,0-.08.35l0,.49h0l0,1.7a.45.45,0,0,0,0,.23c.09,0,.1-.12.13-.19l1-2.41a4.41,4.41,0,0,0,.35-1.19l.12-1.6a7,7,0,0,1,.08-1A.25.25,0,0,0,30.51,32.25Zm-4.7-8.9a.91.91,0,0,0-.1-.4.13.13,0,0,0-.11-.08h-.12a.12.12,0,0,0-.15.08A6,6,0,0,0,24.71,25a4.64,4.64,0,0,1-.07.64c0,.12,0,.24,0,.36a1.29,1.29,0,0,0,.45-.27l.25-.29a2,2,0,0,0,.52-1.35Zm11.65.1a.79.79,0,0,0-.1-.34.1.1,0,0,0-.12-.06h-.1a.14.14,0,0,0-.16.1l-.28.71a4.7,4.7,0,0,0-.3,1.62.59.59,0,0,1,0,.13,2.48,2.48,0,0,0-.06.54A.78.78,0,0,0,36.6,26a1.81,1.81,0,0,0,.4-.43,2.09,2.09,0,0,0,.48-1.35Zm-11.65-.1a.91.91,0,0,0-.1-.4.13.13,0,0,0-.11-.08h-.12a.12.12,0,0,0-.15.08A6,6,0,0,0,24.71,25a4.64,4.64,0,0,1-.07.64c0,.12,0,.24,0,.36a1.29,1.29,0,0,0,.45-.27l.25-.29a2,2,0,0,0,.52-1.35Zm4.7,8.9a1.89,1.89,0,0,0-.36-.16.25.25,0,0,0-.26,0,.9.9,0,0,0-.15.19,1.67,1.67,0,0,0-.21.52L29.27,34a3.46,3.46,0,0,0-.13,1,5.49,5.49,0,0,1-.05.7,1.85,1.85,0,0,1-.08.47,1.05,1.05,0,0,0-.08.35l0,.49h0l0,1.7a.45.45,0,0,0,0,.23c.09,0,.1-.12.13-.19l1-2.41a4.41,4.41,0,0,0,.35-1.19l.12-1.6a7,7,0,0,1,.08-1A.25.25,0,0,0,30.51,32.25Zm7-8.8a.79.79,0,0,0-.1-.34.1.1,0,0,0-.12-.06h-.1a.14.14,0,0,0-.16.1l-.28.71a4.7,4.7,0,0,0-.3,1.62.59.59,0,0,1,0,.13,2.48,2.48,0,0,0-.06.54A.78.78,0,0,0,36.6,26a1.81,1.81,0,0,0,.4-.43,2.09,2.09,0,0,0,.48-1.35Zm-6.95,8.8a1.89,1.89,0,0,0-.36-.16.25.25,0,0,0-.26,0,.9.9,0,0,0-.15.19,1.67,1.67,0,0,0-.21.52L29.27,34a3.46,3.46,0,0,0-.13,1,5.49,5.49,0,0,1-.05.7,1.85,1.85,0,0,1-.08.47,1.05,1.05,0,0,0-.08.35l0,.49h0l0,1.7a.45.45,0,0,0,0,.23c.09,0,.1-.12.13-.19l1-2.41a4.41,4.41,0,0,0,.35-1.19l.12-1.6a7,7,0,0,1,.08-1A.25.25,0,0,0,30.51,32.25Zm-4.7-8.9a.91.91,0,0,0-.1-.4.13.13,0,0,0-.11-.08h-.12a.12.12,0,0,0-.15.08A6,6,0,0,0,24.71,25a4.64,4.64,0,0,1-.07.64c0,.12,0,.24,0,.36a1.29,1.29,0,0,0,.45-.27l.25-.29a2,2,0,0,0,.52-1.35Zm11.65.1a.79.79,0,0,0-.1-.34.1.1,0,0,0-.12-.06h-.1a.14.14,0,0,0-.16.1l-.28.71a4.7,4.7,0,0,0-.3,1.62.59.59,0,0,1,0,.13,2.48,2.48,0,0,0-.06.54A.78.78,0,0,0,36.6,26a1.81,1.81,0,0,0,.4-.43,2.09,2.09,0,0,0,.48-1.35Zm-11.65-.1a.91.91,0,0,0-.1-.4.13.13,0,0,0-.11-.08h-.12a.12.12,0,0,0-.15.08A6,6,0,0,0,24.71,25a4.64,4.64,0,0,1-.07.64c0,.12,0,.24,0,.36a1.29,1.29,0,0,0,.45-.27l.25-.29a2,2,0,0,0,.52-1.35Zm4.7,8.9a1.89,1.89,0,0,0-.36-.16.25.25,0,0,0-.26,0,.9.9,0,0,0-.15.19,1.67,1.67,0,0,0-.21.52L29.27,34a3.46,3.46,0,0,0-.13,1,5.49,5.49,0,0,1-.05.7,1.85,1.85,0,0,1-.08.47,1.05,1.05,0,0,0-.08.35l0,.49h0l0,1.7a.45.45,0,0,0,0,.23c.09,0,.1-.12.13-.19l1-2.41a4.41,4.41,0,0,0,.35-1.19l.12-1.6a7,7,0,0,1,.08-1A.25.25,0,0,0,30.51,32.25Zm7-8.8a.79.79,0,0,0-.1-.34.1.1,0,0,0-.12-.06h-.1a.14.14,0,0,0-.16.1l-.28.71a4.7,4.7,0,0,0-.3,1.62.59.59,0,0,1,0,.13,2.48,2.48,0,0,0-.06.54A.78.78,0,0,0,36.6,26a1.81,1.81,0,0,0,.4-.43,2.09,2.09,0,0,0,.48-1.35Zm-6.95,8.8a1.89,1.89,0,0,0-.36-.16.25.25,0,0,0-.26,0,.9.9,0,0,0-.15.19,1.67,1.67,0,0,0-.21.52L29.27,34a3.46,3.46,0,0,0-.13,1,5.49,5.49,0,0,1-.05.7,1.85,1.85,0,0,1-.08.47,1.05,1.05,0,0,0-.08.35l0,.49h0l0,1.7a.45.45,0,0,0,0,.23c.09,0,.1-.12.13-.19l1-2.41a4.41,4.41,0,0,0,.35-1.19l.12-1.6a7,7,0,0,1,.08-1A.25.25,0,0,0,30.51,32.25Zm-4.7-8.9a.91.91,0,0,0-.1-.4.13.13,0,0,0-.11-.08h-.12a.12.12,0,0,0-.15.08A6,6,0,0,0,24.71,25a4.64,4.64,0,0,1-.07.64c0,.12,0,.24,0,.36a1.29,1.29,0,0,0,.45-.27l.25-.29a2,2,0,0,0,.52-1.35Zm11.65.1a.79.79,0,0,0-.1-.34.1.1,0,0,0-.12-.06h-.1a.14.14,0,0,0-.16.1l-.28.71a4.7,4.7,0,0,0-.3,1.62.59.59,0,0,1,0,.13,2.48,2.48,0,0,0-.06.54A.78.78,0,0,0,36.6,26a1.81,1.81,0,0,0,.4-.43,2.09,2.09,0,0,0,.48-1.35Zm-11.65-.1a.91.91,0,0,0-.1-.4.13.13,0,0,0-.11-.08h-.12a.12.12,0,0,0-.15.08A6,6,0,0,0,24.71,25a4.64,4.64,0,0,1-.07.64c0,.12,0,.24,0,.36a1.29,1.29,0,0,0,.45-.27l.25-.29a2,2,0,0,0,.52-1.35Zm11.65.1a.79.79,0,0,0-.1-.34.1.1,0,0,0-.12-.06h-.1a.14.14,0,0,0-.16.1l-.28.71a4.7,4.7,0,0,0-.3,1.62.59.59,0,0,1,0,.13,2.48,2.48,0,0,0-.06.54A.78.78,0,0,0,36.6,26a1.81,1.81,0,0,0,.4-.43,2.09,2.09,0,0,0,.48-1.35Zm-11.65-.1a.91.91,0,0,0-.1-.4.13.13,0,0,0-.11-.08h-.12a.12.12,0,0,0-.15.08A6,6,0,0,0,24.71,25a4.64,4.64,0,0,1-.07.64c0,.12,0,.24,0,.36a1.29,1.29,0,0,0,.45-.27l.25-.29a2,2,0,0,0,.52-1.35Zm11.65.1a.79.79,0,0,0-.1-.34.1.1,0,0,0-.12-.06h-.1a.14.14,0,0,0-.16.1l-.28.71a4.7,4.7,0,0,0-.3,1.62.59.59,0,0,1,0,.13,2.48,2.48,0,0,0-.06.54A.78.78,0,0,0,36.6,26a1.81,1.81,0,0,0,.4-.43,2.09,2.09,0,0,0,.48-1.35Zm-11.65-.1a.91.91,0,0,0-.1-.4.13.13,0,0,0-.11-.08h-.12a.12.12,0,0,0-.15.08A6,6,0,0,0,24.71,25a4.64,4.64,0,0,1-.07.64c0,.12,0,.24,0,.36a1.29,1.29,0,0,0,.45-.27l.25-.29a2,2,0,0,0,.52-1.35Zm11.65.1a.79.79,0,0,0-.1-.34.1.1,0,0,0-.12-.06h-.1a.14.14,0,0,0-.16.1l-.28.71a4.7,4.7,0,0,0-.3,1.62.59.59,0,0,1,0,.13,2.48,2.48,0,0,0-.06.54A.78.78,0,0,0,36.6,26a1.81,1.81,0,0,0,.4-.43,2.09,2.09,0,0,0,.48-1.35Zm-11.65-.1a.91.91,0,0,0-.1-.4.13.13,0,0,0-.11-.08h-.12a.12.12,0,0,0-.15.08A6,6,0,0,0,24.71,25a4.64,4.64,0,0,1-.07.64c0,.12,0,.24,0,.36a1.29,1.29,0,0,0,.45-.27l.25-.29a2,2,0,0,0,.52-1.35Zm0,0a.91.91,0,0,0-.1-.4.13.13,0,0,0-.11-.08h-.12a.12.12,0,0,0-.15.08A6,6,0,0,0,24.71,25a4.64,4.64,0,0,1-.07.64c0,.12,0,.24,0,.36a1.29,1.29,0,0,0,.45-.27l.25-.29a2,2,0,0,0,.52-1.35Zm0,0a.91.91,0,0,0-.1-.4.13.13,0,0,0-.11-.08h-.12a.12.12,0,0,0-.15.08A6,6,0,0,0,24.71,25a4.64,4.64,0,0,1-.07.64c0,.12,0,.24,0,.36a1.29,1.29,0,0,0,.45-.27l.25-.29a2,2,0,0,0,.52-1.35Zm0,0a.91.91,0,0,0-.1-.4.13.13,0,0,0-.11-.08h-.12a.12.12,0,0,0-.15.08A6,6,0,0,0,24.71,25a4.64,4.64,0,0,1-.07.64c0,.12,0,.24,0,.36a1.29,1.29,0,0,0,.45-.27l.25-.29a2,2,0,0,0,.52-1.35Zm0,0a.91.91,0,0,0-.1-.4.13.13,0,0,0-.11-.08h-.12a.12.12,0,0,0-.15.08A6,6,0,0,0,24.71,25a4.64,4.64,0,0,1-.07.64c0,.12,0,.24,0,.36a1.29,1.29,0,0,0,.45-.27l.25-.29a2,2,0,0,0,.52-1.35Zm0,0a.91.91,0,0,0-.1-.4.13.13,0,0,0-.11-.08h-.12a.12.12,0,0,0-.15.08A6,6,0,0,0,24.71,25a4.64,4.64,0,0,1-.07.64c0,.12,0,.24,0,.36a1.29,1.29,0,0,0,.45-.27l.25-.29a2,2,0,0,0,.52-1.35Zm0,0a.91.91,0,0,0-.1-.4.13.13,0,0,0-.11-.08h-.12a.12.12,0,0,0-.15.08A6,6,0,0,0,24.71,25a4.64,4.64,0,0,1-.07.64c0,.12,0,.24,0,.36a1.29,1.29,0,0,0,.45-.27l.25-.29a2,2,0,0,0,.52-1.35Z"/></svg>