<svg id="Layer_1" data-name="Layer 1" xmlns="http://www.w3.org/2000/svg" viewBox="0 0 64.67 64.67"><defs><style>.cls-1{fill:none;}.cls-2{fill:#fff;}</style></defs><circle class="cls-1" cx="31.38" cy="31.23" r="32.18"/><circle class="cls-2" cx="32.33" cy="32.33" r="32.18"/><path d="M22.84,36V32.11c0-6.92,0-13.84,0-20.77,0-2.42,1.17-4,3.26-4.55a4.18,4.18,0,0,1,5.21,3.74c.11,2,0,4.08.05,6.12,0,.36,0,.72,0,.84a12.66,12.66,0,0,1,3.65.24c1,.38,1.85,1.39,2.91,2.25a4.37,4.37,0,0,1,3.35-.27A4.47,4.47,0,0,1,44,22.24a12.7,12.7,0,0,1,1.74-.53,4.17,4.17,0,0,1,4.91,4.14c0,6.49.11,13,0,19.46-.15,6-5.5,11.69-11.51,12.52A16.15,16.15,0,0,1,24.88,53c-4.5-4.44-8.94-8.93-13.4-13.4a4.14,4.14,0,0,1-1-5.19,4.06,4.06,0,0,1,4.91-1.9,31.89,31.89,0,0,1,4.3,1.86C20.72,34.87,21.69,35.39,22.84,36ZM25,24.25V36.9c0,1.9-.55,2.25-2.22,1.42-2.15-1.08-4.29-2.18-6.46-3.22a6.93,6.93,0,0,0-1.9-.56,1.8,1.8,0,0,0-2,1.09,1.91,1.91,0,0,0,.48,2.29c4.81,4.79,9.55,9.66,14.46,14.35a13,13,0,0,0,11.21,3.46c6-.88,10-5.73,10.05-11.92,0-5.79,0-11.58,0-17.36a4.31,4.31,0,0,0-.14-1.19,2,2,0,0,0-2.05-1.47,2,2,0,0,0-1.95,1.46,4.3,4.3,0,0,0-.15,1.29c0,1.57,0,3.14,0,4.71,0,.67-.44,1.17-1.07,1-.39-.09-.72-.63-1-1-.12-.18,0-.52,0-.79,0-2.1,0-4.21,0-6.32,0-1.55-.84-2.47-2.16-2.47s-2.13.94-2.14,2.49c0,2.08,0,4.15,0,6.22,0,.27,0,.54,0,.81a1,1,0,0,1-1,1.12c-.67,0-1-.41-1.06-1.08,0-.26,0-.53,0-.8,0-2.78,0-5.55,0-8.33a3.63,3.63,0,0,0-.7-2,1.78,1.78,0,0,0-2.2-.44,2.18,2.18,0,0,0-1.37,2.24c0,2.84,0,5.69,0,8.53,0,.3.1.68,0,.88-.27.39-.66.89-1,.94s-.73-.52-1-.9-.06-.65-.06-1q0-9.33,0-18.66a6.23,6.23,0,0,0-.11-1.3,2.1,2.1,0,0,0-4.08,0A5.58,5.58,0,0,0,25,11.7Q24.95,18,25,24.25Z"/></svg>