<svg id="Layer_1" data-name="Layer 1" xmlns="http://www.w3.org/2000/svg" xmlns:xlink="http://www.w3.org/1999/xlink" viewBox="0 0 64.67 64.67"><defs><style>.cls-1{fill:url(#linear-gradient);}.cls-2{fill:#fff;}</style><linearGradient id="linear-gradient" x1="54.57" y1="9.22" x2="8.08" y2="57.55" gradientUnits="userSpaceOnUse"><stop offset="0" stop-color="#349fff"/><stop offset="1" stop-color="#314eff"/></linearGradient></defs><circle class="cls-1" cx="32.33" cy="32.33" r="32.18"/><path class="cls-2" d="M50.19,36.58a4.43,4.43,0,0,0-2.87,2.59A4.74,4.74,0,0,0,47.08,42a26.88,26.88,0,0,1-8.61,2,19.19,19.19,0,0,0,5.21-4l.31-.38V27.74a1,1,0,0,0-.33-.73L33.29,18.25a1.31,1.31,0,0,0-1.67,0L21,27a1,1,0,0,0-.35.74V39.6L21,40a20.4,20.4,0,0,0,5.43,4,28.14,28.14,0,0,1-8.82-2,4.79,4.79,0,0,0,.11-1.37,4.59,4.59,0,1,0-4.84,4.88,4.54,4.54,0,0,0,3.32-1.16,30.33,30.33,0,0,0,11.26,2.34h.11a24.43,24.43,0,0,0,4.94-.53,24.15,24.15,0,0,0,5,.5,29.15,29.15,0,0,0,11-2.34,4.59,4.59,0,1,0,1.73-7.78ZM15,41.13a1.88,1.88,0,1,1-2-2A1.88,1.88,0,0,1,15,41.13Zm20.34,1.35a20.84,20.84,0,0,1-2.86,1,21,21,0,0,1-2.82-.9,19.72,19.72,0,0,1-6.3-4v-10l9.09-7.47,8.85,7.48v10A18.33,18.33,0,0,1,35.33,42.48Zm18.1-1.35a1.88,1.88,0,1,1-2-2A1.88,1.88,0,0,1,53.43,41.13Z"/></svg>