<svg id="Layer_1" data-name="Layer 1" xmlns="http://www.w3.org/2000/svg" xmlns:xlink="http://www.w3.org/1999/xlink" viewBox="0 0 64.67 64.67"><defs><style>.cls-1{fill:url(#linear-gradient);}.cls-2{fill:#fff;}</style><linearGradient id="linear-gradient" x1="54.65" y1="9.15" x2="10.02" y2="55.52" gradientUnits="userSpaceOnUse"><stop offset="0" stop-color="#438cc9"/><stop offset="1" stop-color="#2a6ebb"/></linearGradient></defs><circle class="cls-1" cx="32.33" cy="32.33" r="32.18"/><path class="cls-2" d="M41.78,13.69H22.71L11.56,26.88l3.95-.24V40.91l-3,.48a1.37,1.37,0,0,0-1.07,1.8,1.56,1.56,0,0,0,1.43,1.08l2.64-.48v3.84L34.34,51l14.87-3.35V26.88l4.08-.36ZM37.94,29.4,42,29v5.39l-4.2.6.12-5.63ZM16.83,46.67v-3L25,42.35a1.33,1.33,0,0,0,1.32-1.56,1.3,1.3,0,0,0-1.56-1.2l-7.92,1.2V26.28l8.28-9.84,9.11,10.32V49.9C34.34,49.78,16.83,46.67,16.83,46.67Zm21-4.2V36.83l4.2-.6v5.4Zm9.24-1.68-3.36.6V36l3.48-.48v5.28ZM43.7,34.31V28.92l3.48-.36v5.27Z"/><path class="cls-2" d="M29.07,27.12a5,5,0,0,0-3.72-1.8h-.24a5.07,5.07,0,0,0-3.6,2,7.46,7.46,0,0,0-1.44,4.32v.47a7.34,7.34,0,0,0,1.68,4.32,5,5,0,0,0,3.72,1.8h.24a5.07,5.07,0,0,0,3.6-2,7.52,7.52,0,0,0,1.43-4.32v-.47a7.39,7.39,0,0,0-1.67-4.32Zm-.6,8.51a3.49,3.49,0,0,1-2.76,1.56h-.12a4,4,0,0,1-2.88-1.44A6.43,6.43,0,0,1,21.27,32v-.35A6.26,6.26,0,0,1,22.47,28a3.49,3.49,0,0,1,2.76-1.56h.12a4,4,0,0,1,2.88,1.44,6.43,6.43,0,0,1,1.44,3.72v.35A6.26,6.26,0,0,1,28.47,35.63Zm-4.92-3.72c-.12-1.79.48-3.47,1.44-4.07-1.56.12-2.76,1.92-2.64,4.19s1.44,4,3.12,3.84c-1.08-.6-1.8-2.16-1.92-4Z"/></svg>