<svg id="Layer_1" data-name="Layer 1" xmlns="http://www.w3.org/2000/svg" xmlns:xlink="http://www.w3.org/1999/xlink" viewBox="0 0 64.67 64.67"><defs><style>.cls-1{fill:url(#linear-gradient);}.cls-2{fill:#fff;}</style><linearGradient id="linear-gradient" x1="54.65" y1="9.15" x2="10.02" y2="55.52" gradientUnits="userSpaceOnUse"><stop offset="0" stop-color="#ff9c85"/><stop offset="1" stop-color="#f47853"/></linearGradient></defs><circle class="cls-1" cx="32.33" cy="32.33" r="32.18"/><path class="cls-2" d="M45.4,14.23H19.27a5,5,0,0,0-5,5V45.4a5,5,0,0,0,5,5H45.4a5,5,0,0,0,5-5V19.27A5,5,0,0,0,45.4,14.23ZM31.91,32.54l-4.62,4.71a.18.18,0,0,0-.09.16.23.23,0,0,0,.2.25h.82v6.48a.51.51,0,0,1-.5.5H20.47a.51.51,0,0,1-.49-.5V20.42a.51.51,0,0,1,.49-.5h7.25a.51.51,0,0,1,.5.5V26.9H27.4c-.11.06-.2.14-.2.25a.21.21,0,0,0,.09.16l4.62,4.63a.37.37,0,0,1,.11.3A.41.41,0,0,1,31.91,32.54ZM44.69,44.22a.51.51,0,0,1-.49.5H37a.51.51,0,0,1-.5-.5V37.74h.82c.11-.06.2-.14.2-.25a.17.17,0,0,0,0-.11l-4.65-4.73a.35.35,0,0,1-.11-.3.38.38,0,0,1,.11-.3l4.65-4.74s0-.08,0-.11a.22.22,0,0,0-.2-.24h-.82V20.47A.51.51,0,0,1,37,20H44.2a.52.52,0,0,1,.49.52Z"/></svg>