<svg id="Layer_1" data-name="Layer 1" xmlns="http://www.w3.org/2000/svg" xmlns:xlink="http://www.w3.org/1999/xlink" viewBox="0 0 64.67 64.67"><defs><style>.cls-1,.cls-3{fill:#fff;}.cls-2{fill:url(#linear-gradient);}.cls-3{opacity:0.8;}</style><linearGradient id="linear-gradient" x1="54.65" y1="9.15" x2="10.02" y2="55.52" gradientUnits="userSpaceOnUse"><stop offset="0" stop-color="#ff954d"/><stop offset="1" stop-color="#f67c13"/></linearGradient></defs><circle class="cls-1" cx="32.33" cy="32.33" r="32.18"/><circle class="cls-2" cx="32.33" cy="32.33" r="32.18"/><g id="layer1"><rect class="cls-1" x="35.62" y="35.04" width="8.59" height="17.98"/><rect class="cls-1" x="20.46" y="35.04" width="8.37" height="17.98"/></g><path class="cls-3" d="M44.21,28.29V35H35.62V29.23a4.67,4.67,0,0,0-.72-2.91,2.81,2.81,0,0,0-2.33-.9,3.06,3.06,0,0,0-3,1.79A12.59,12.59,0,0,0,28.83,33V35H20.46V14.92l8.37-3.27v11.5a9.66,9.66,0,0,1,7.94-3.52A6.75,6.75,0,0,1,42.16,22,9.32,9.32,0,0,1,44.21,28.29Z"/></svg>