<svg id="Layer_1" data-name="Layer 1" xmlns="http://www.w3.org/2000/svg" xmlns:xlink="http://www.w3.org/1999/xlink" viewBox="0 0 64.67 64.67"><defs><style>.cls-1{fill:url(#linear-gradient);}.cls-2{fill:#fff;}</style><linearGradient id="linear-gradient" x1="54.65" y1="9.15" x2="10.02" y2="55.52" gradientUnits="userSpaceOnUse"><stop offset="0" stop-color="#f94e6b"/><stop offset="1" stop-color="#ee2841"/></linearGradient></defs><circle class="cls-1" cx="32.33" cy="32.33" r="32.18"/><g id="layer1"><g id="g5994"><path id="path3017" class="cls-2" d="M37.5,21a5.15,5.15,0,0,1,.9-2.92,4.13,4.13,0,0,0-3,4v3.3l2.07.11Z"/><path id="path3021" class="cls-2" d="M35.43,43.69a4.12,4.12,0,0,0,3,4,5,5,0,0,1-.91-2.91v-6.2H35.43Z"/><path id="path3025" class="cls-2" d="M40.6,38.53H38.53v6.2a4.12,4.12,0,0,0,3,3.94,5.12,5.12,0,0,1-.9-2.91Z"/><path id="path3029" class="cls-2" d="M40.6,19.94A5.12,5.12,0,0,1,41.5,17a4.13,4.13,0,0,0-3,3.95v4.49l2.07.1Z"/><path id="path3033" class="cls-2" d="M17.31,18.62A5.15,5.15,0,0,0,14.78,23V42.66a5.13,5.13,0,0,0,2.53,4.42,6.12,6.12,0,0,1-.46-2.35V21a6.17,6.17,0,0,1,.46-2.36"/><path id="path3037" class="cls-2" d="M19.94,18.91a6.12,6.12,0,0,1,.47-2.35A5.13,5.13,0,0,0,17.88,21V44.73a5.15,5.15,0,0,0,3.37,4.82,6.19,6.19,0,0,1-1.31-3.79Z"/><path id="path3041" class="cls-2" d="M45.76,15.81a4.13,4.13,0,0,0-4.13,4.13v6.72L31.3,26.14V18.91a5.16,5.16,0,1,0-10.32,0V45.76a5.16,5.16,0,1,0,10.32,0V37.5H41.63v8.26a4.13,4.13,0,0,0,8.26,0V19.94a4.13,4.13,0,0,0-4.13-4.13"/></g></g></svg>