<svg id="Layer_1" data-name="Layer 1" xmlns="http://www.w3.org/2000/svg" xmlns:xlink="http://www.w3.org/1999/xlink" viewBox="0 0 64.67 64.67"><defs><style>.cls-1{fill:url(#linear-gradient);}.cls-2{fill:#fff;fill-rule:evenodd;}</style><linearGradient id="linear-gradient" x1="54.65" y1="9.15" x2="10.02" y2="55.52" gradientUnits="userSpaceOnUse"><stop offset="0" stop-color="#e22b57"/><stop offset="1" stop-color="#cc092f"/></linearGradient></defs><circle class="cls-1" cx="32.33" cy="32.33" r="32.18"/><g id="HRS_Bild-Wortmarke" data-name="HRS Bild-Wortmarke"><path class="cls-2" d="M32.33,11.56A20.78,20.78,0,1,0,52.89,32.33,20.67,20.67,0,0,0,32.33,11.56ZM27.57,27.74l.09,0,15,2.95a.84.84,0,0,1,.75.8v1.16l-7.69,3.6v-.84c0-1-.67-1.68-2.05-2L19.62,30Zm19.27,9.68c-1,0-1.08-.56-1.08-.65v-.34L33.56,43.3v1.51s.07.73-1,.73c-1.25,0-1.19-.73-1.19-.73V43.52l-13.7-4.83v.61s.09.71-.95.71-1.1-.71-1.1-.71V31.39s0-.71.84-.48l16.23,4.27a1.38,1.38,0,0,1,.9,1.46c0,.18,0,3,0,3l12.05-6.06V30.63a1.16,1.16,0,0,0-.93-1.31L29.86,26.6V21c0-.39.21-.5.49-.45.09,0,16.49,1.94,16.49,1.94.88.06.9.36.9,1.35V36.77S47.81,37.42,46.84,37.42Z"/></g></svg>