<svg id="Layer_1" data-name="Layer 1" xmlns="http://www.w3.org/2000/svg" xmlns:xlink="http://www.w3.org/1999/xlink" viewBox="0 0 64.67 64.67"><defs><style>.cls-1{fill:url(#linear-gradient);}.cls-2{opacity:0.5;}.cls-3{fill:#353535;}.cls-4{fill:#cc5656;}.cls-5{fill:#fff;}</style><linearGradient id="linear-gradient" x1="46.26" y1="-1.52" x2="17.03" y2="69.53" gradientUnits="userSpaceOnUse"><stop offset="0" stop-color="#fff"/><stop offset="1" stop-color="#e2e2e2"/></linearGradient></defs><path class="cls-1" d="M64.33,32.33a32,32,0,1,1-4.28-16A32,32,0,0,1,64.33,32.33Z"/><g class="cls-2"><path class="cls-3" d="M24.33,51.53a.65.65,0,0,1,.18-.46.68.68,0,0,1,.5-.18.69.69,0,0,1,.51.18.65.65,0,0,1,.18.46.62.62,0,0,1-.18.46.69.69,0,0,1-.51.18.68.68,0,0,1-.5-.18A.62.62,0,0,1,24.33,51.53Zm1.28,6.76h-1.2V52.93h1.2Z"/><path class="cls-3" d="M32.55,55.94a2.61,2.61,0,0,1-.85,1.81,2.93,2.93,0,0,1-2,.64A2.77,2.77,0,0,1,28.2,58a2.61,2.61,0,0,1-1-1.16,4.14,4.14,0,0,1-.38-1.75V54.4a4.11,4.11,0,0,1,.37-1.8,2.66,2.66,0,0,1,1-1.2A2.81,2.81,0,0,1,29.78,51a2.77,2.77,0,0,1,1.92.65,2.68,2.68,0,0,1,.85,1.83H31.3a1.79,1.79,0,0,0-.45-1.12,1.73,1.73,0,0,0-2.33.25,3.06,3.06,0,0,0-.45,1.76V55a3.18,3.18,0,0,0,.42,1.79,1.39,1.39,0,0,0,1.23.61,1.64,1.64,0,0,0,1.11-.33,1.69,1.69,0,0,0,.47-1.11Z"/><path class="cls-3" d="M36.76,58.29a1.84,1.84,0,0,1-.14-.5,1.86,1.86,0,0,1-1.4.6,1.88,1.88,0,0,1-1.32-.46,1.48,1.48,0,0,1-.51-1.14A1.54,1.54,0,0,1,34,55.47,3.17,3.17,0,0,1,35.85,55h.74v-.36a.85.85,0,0,0-1-.91A1,1,0,0,0,35,54a.63.63,0,0,0-.26.53H33.5a1.37,1.37,0,0,1,.29-.83,1.88,1.88,0,0,1,.8-.6,2.7,2.7,0,0,1,1.12-.22,2.31,2.31,0,0,1,1.51.47,1.7,1.7,0,0,1,.57,1.33v2.42a2.85,2.85,0,0,0,.2,1.16v.08Zm-1.32-.86a1.32,1.32,0,0,0,.67-.18,1.18,1.18,0,0,0,.48-.46v-1h-.65a1.73,1.73,0,0,0-1,.24.73.73,0,0,0-.34.66.72.72,0,0,0,.23.55A.9.9,0,0,0,35.44,57.43Z"/><path class="cls-3" d="M40.33,58.29h-1.2V50.68h1.2Z"/></g><path class="cls-4" d="M60.05,16.33H4.61a32,32,0,0,1,55.44,0Z"/><path class="cls-3" d="M24.24,23h2.85v20.9H23.31V27.53a9,9,0,0,1-1.66.59,6.57,6.57,0,0,1-1.63.21V24.72a8.55,8.55,0,0,0,2.11-.51A9.3,9.3,0,0,0,24.24,23Z"/><path class="cls-3" d="M31.49,43.92,41,26.8H30.85V23.15H45.44v3.62L36.58,43.92Z"/><path class="cls-5" d="M22.91,11.8v-1a4.14,4.14,0,0,0,.89.45,2.69,2.69,0,0,0,.86.15A1.08,1.08,0,0,0,25.6,11a1.89,1.89,0,0,0,.28-1.09V4.33h1V9.91a3.25,3.25,0,0,1-.26,1.39,1.61,1.61,0,0,1-.74.78,2.33,2.33,0,0,1-1.13.25,3,3,0,0,1-.95-.15A5.49,5.49,0,0,1,22.91,11.8Z"/><path class="cls-5" d="M28.94,4.33h1v5a2,2,0,0,0,.55,1.59,2.13,2.13,0,0,0,1.46.49,2.09,2.09,0,0,0,1.45-.49,2,2,0,0,0,.55-1.59v-5h1v5A3.41,3.41,0,0,1,34.54,11a2.37,2.37,0,0,1-1,1,3.95,3.95,0,0,1-3.16,0,2.44,2.44,0,0,1-1-1,3.41,3.41,0,0,1-.37-1.65Z"/><path class="cls-5" d="M38.26,4.33v7h3.5v.85H37.28V4.33Z"/></svg>