<svg id="Layer_1" data-name="Layer 1" xmlns="http://www.w3.org/2000/svg" viewBox="0 0 64.67 64.67"><defs><style>.cls-1{fill:none;}.cls-2{fill:#fff;}</style></defs><circle class="cls-1" cx="35.79" cy="31.23" r="32.18"/><circle class="cls-2" cx="32.33" cy="32.33" r="32.18"/><path d="M50.59,52.28H14.08c-.35,0-1,0-1.23,0s-.37-.41-.37-.76V27.61c0-.17.26-.35.42-.48l5.93-4.61a.58.58,0,0,0,.26-.51c0-1.53,0-3.07,0-4.6a2.78,2.78,0,0,1,.09-.76,2,2,0,0,1,2-1.44h5.69a4.53,4.53,0,0,0,1.38,0,5.68,5.68,0,0,0,1.12-.81A20.94,20.94,0,0,1,32,12.5c.42-.16.43-.12.68,0a10.26,10.26,0,0,1,1.08.68c.8.59,1.58,1.21,2.37,1.83a.82.82,0,0,0,.56.2h6.71a2.13,2.13,0,0,1,1.36.42,2,2,0,0,1,.79,1.72c0,1.54,0,3.08,0,4.62a.68.68,0,0,0,.3.6c2,1.49,3.89,3,5.82,4.51.19.15.51.37.5.54V51.5c0,.3-.13.76-.4.76ZM14.46,27.61l.22.18L25.19,36c.12.1.24.2.35.31a.64.64,0,0,1,0,.83.65.65,0,0,1-.81.19,1.57,1.57,0,0,1-.3-.2L14.08,29a1.8,1.8,0,0,0-.25-.17v21l.27-.19L31,36.56a2,2,0,0,1,2.67,0l16.9,13.13c.07.06.16.11.27.19v-21l-.28.2L40.17,37.11a1.38,1.38,0,0,1-.33.2.59.59,0,0,1-.69-.12.55.55,0,0,1-.17-.68,1.59,1.59,0,0,1,.43-.5Q44.68,31.9,50,27.81l.24-.21L45.58,24v4.84a1.61,1.61,0,0,1,0,.44.65.65,0,0,1-1.26-.05,3.71,3.71,0,0,1,0-.47V17.53a3.15,3.15,0,0,0,0-.44.56.56,0,0,0-.48-.51,2,2,0,0,0-.43,0H21a.65.65,0,0,0-.6.61c0,.13,0,.26,0,.38V28.76a2.63,2.63,0,0,1,0,.49.63.63,0,0,1-.8.49c-.34-.09-.5-.35-.5-.8,0-1.52,0-3,0-4.55V24Zm.22,23.31H50l-.35-.28L35.1,39.36l-2.29-1.78a.66.66,0,0,0-1,0l-.21.16L16.1,49.81ZM34.12,15.19l0-.06L32.68,14a.6.6,0,0,0-.75,0l-.57.44-.9.71Z"/><path class="cls-2" d="M32.4,19.84H26a2.17,2.17,0,0,0-.36,0,.65.65,0,0,0-.45,1,.77.77,0,0,0,.7.3h12.9a1.2,1.2,0,0,0,.38-.05.61.61,0,0,0,.45-.55.58.58,0,0,0-.3-.61,1.29,1.29,0,0,0-.55-.11Zm0,5.3h6.72a.68.68,0,0,0,.55-.6.64.64,0,0,0-.43-.66,1.21,1.21,0,0,0-.43-.06H26a1.37,1.37,0,0,0-.4.05.62.62,0,0,0-.45.58.58.58,0,0,0,.35.61,1.39,1.39,0,0,0,.5.09Zm3.62,4h2.76a1.88,1.88,0,0,0,.34,0,.65.65,0,0,0,.44-1,.8.8,0,0,0-.73-.31H33.24a1.4,1.4,0,0,0-.41,0,.62.62,0,0,0-.44.55.58.58,0,0,0,.31.61,1.14,1.14,0,0,0,.52.12C34.15,29.12,35.08,29.11,36,29.11Z"/><path d="M32.4,19.84h6.41a1.29,1.29,0,0,1,.55.11.58.58,0,0,1,.3.61.61.61,0,0,1-.45.55,1.2,1.2,0,0,1-.38.05H25.93a.77.77,0,0,1-.7-.3.65.65,0,0,1,.45-1,2.17,2.17,0,0,1,.36,0Z"/><path d="M32.39,25.14H26a1.39,1.39,0,0,1-.5-.09.58.58,0,0,1-.35-.61.62.62,0,0,1,.45-.58,1.37,1.37,0,0,1,.4-.05H38.8a1.21,1.21,0,0,1,.43.06.64.64,0,0,1,.43.66.68.68,0,0,1-.55.6H32.39Z"/><path d="M36,29.11c-.93,0-1.86,0-2.79,0A1.14,1.14,0,0,1,32.7,29a.58.58,0,0,1-.31-.61.62.62,0,0,1,.44-.55,1.4,1.4,0,0,1,.41,0h5.58a.8.8,0,0,1,.73.31.65.65,0,0,1-.44,1,1.88,1.88,0,0,1-.34,0Z"/></svg>