<svg id="Layer_1" data-name="Layer 1" xmlns="http://www.w3.org/2000/svg" viewBox="0 0 64.67 64.67"><defs><style>.cls-1{fill:#fff;}</style></defs><circle class="cls-1" cx="32.33" cy="32.33" r="32.18"/><path d="M43.31,53.43a9.69,9.69,0,0,1-4.6-1.1A60.57,60.57,0,0,1,12.3,25.89,10.4,10.4,0,0,1,17.36,11.8a8.23,8.23,0,0,1,2.46-.56,2.48,2.48,0,0,1,2.22,1c2.27,2.9,4.54,5.8,6.78,8.72a2.72,2.72,0,0,1-.24,3.67c-.67.69-1.37,1.35-2,2a1.92,1.92,0,0,0,0,2.91c1.21,1.38,2.29,2.89,3.6,4.17,1.64,1.61,3.45,3.06,5.22,4.54a1.78,1.78,0,0,0,2.47-.18c.7-.66,1.36-1.36,2-2a2.79,2.79,0,0,1,3.87-.24Q47.78,39,51.8,42.17c1.63,1.27,2,2.36,1.34,4.31-1.34,3.81-4.18,5.92-8,6.81a8,8,0,0,1-1,.14C43.86,53.45,43.58,53.43,43.31,53.43Zm-.64-1.85c4-.18,6.56-1.71,8.24-4.68A4.64,4.64,0,0,0,51.44,45a1.49,1.49,0,0,0-.5-1.1c-2.74-2.17-5.51-4.28-8.26-6.44a1,1,0,0,0-1.57.12c-.59.65-1.21,1.28-1.86,1.88a3.82,3.82,0,0,1-4.91.43,41,41,0,0,1-9.55-9.49A3.77,3.77,0,0,1,25,25.58c.6-.67,1.27-1.29,1.9-1.94s.76-1,.1-1.81c-2-2.56-4-5.12-6-7.68-.83-1.08-1.25-1.24-2.52-.76a8.27,8.27,0,0,0-1.87,1,8.45,8.45,0,0,0-2.5,11A58.25,58.25,0,0,0,39.24,50.44,19.2,19.2,0,0,0,42.67,51.58Z"/></svg>