<svg id="Layer_1" data-name="Layer 1" xmlns="http://www.w3.org/2000/svg" viewBox="0 0 64.67 64.67"><defs><style>.cls-1{fill:#fff;}</style></defs><circle class="cls-1" cx="32.33" cy="32.33" r="32.18"/><path d="M32.34,51.28H16.58c-2.12,0-2.87-.75-2.87-2.89,0-5.61,0-11.22,0-16.83a3.44,3.44,0,0,0-.54-1.66,4.94,4.94,0,0,1-.83-3.72c.46-2.23.91-4.46,1.42-6.69.07-.31.43-.57.66-.85s.49-.41.58-.67c.35-.95.62-1.92.94-2.88a2.09,2.09,0,0,1,2.31-1.68h27.6a2.08,2.08,0,0,1,2.32,1.66c.31.93.61,1.86.88,2.8.15.48.34.81.93.76s.9.35,1,.94c.44,2.21.92,4.4,1.37,6.6a4.92,4.92,0,0,1-.88,3.8A2.87,2.87,0,0,0,51,31.45c0,5.67,0,11.35,0,17,0,2-.78,2.8-2.77,2.8Zm-2.45-1.7c.41,0,.69.05,1,.05H48.1c1.17,0,1.25-.09,1.25-1.32V32.56c0-.3,0-.61-.06-1a4.71,4.71,0,0,1-5.39-1.72,5,5,0,0,1-3.86,2,4.85,4.85,0,0,1-3.86-1.92c-2.47,2.6-5.14,2.59-7.67,0-2.12,2.39-5.13,2.69-7.79,0a4.69,4.69,0,0,1-5.4,1.66V35c0,4.5,0,9,0,13.51,0,.39.35,1.09.58,1.11,1.28.11,2.58,0,3.93,0V48.33c0-3.36,0-6.72,0-10.08,0-1.4.59-2,2-2H28.1a1.58,1.58,0,0,1,1.63,1,4,4,0,0,1,.15,1.35C29.89,42.23,29.89,45.85,29.89,49.58ZM16.56,18.5h31c-.27-.86-.55-1.59-.72-2.35S46.18,15,45.24,15c-5.83,0-11.67,0-17.51,0-3.07,0-6.13,0-9.2,0a1.31,1.31,0,0,0-1,.5C17.14,16.45,16.9,17.43,16.56,18.5Zm5,31.07h6.6V38h-6.6Zm8-29.28c-.09,2.38-.27,4.71-.25,7.05a3,3,0,0,0,6.05,0c0-2.34-.16-4.67-.25-7Zm-7.19,0c-.28,2.3-.61,4.49-.78,6.7a3,3,0,0,0,2.8,3.19,2.86,2.86,0,0,0,3.17-2.44c.22-2.45.25-4.93.36-7.45Zm14.67,0c0,2.41,0,4.72,0,7a3,3,0,0,0,3,2.9,3,3,0,0,0,3.06-3.05c-.15-2.3-.51-4.58-.78-6.88Zm-16.31,0c-.86,0-1.67,0-2.48,0-1,0-2.27-.27-2.92.22s-.55,1.79-.74,2.74a28.11,28.11,0,0,0-.66,4,3,3,0,0,0,2.95,3,2.77,2.77,0,0,0,2.89-2.38C20.12,25.33,20.41,22.84,20.73,20.24Zm23.2,0c.33,2.61.62,5.07,1,7.53a2.76,2.76,0,0,0,3.53,2.3,3.08,3.08,0,0,0,2.31-3.66c-.33-1.9-.76-3.77-1.19-5.64a.79.79,0,0,0-.54-.51C47.35,20.22,45.69,20.24,43.93,20.24Z"/><path d="M40,34.92c1.37,0,2.74,0,4.11,0a1.56,1.56,0,0,1,1.75,1.75q0,3.12,0,6.26a1.58,1.58,0,0,1-1.76,1.75q-4.17,0-8.32,0A1.56,1.56,0,0,1,34,42.91c0-2.08,0-4.17,0-6.25,0-1.18.59-1.72,1.77-1.74C37.17,34.91,38.57,34.92,40,34.92ZM35.7,36.57V43h8.43V36.57Z"/></svg>