<svg id="Layer_1" data-name="Layer 1" xmlns="http://www.w3.org/2000/svg" viewBox="0 0 64.67 64.67"><defs><style>.cls-1{fill:#fff;}</style></defs><circle class="cls-1" cx="32.33" cy="32.33" r="32.18"/><path d="M51.36,29.81a18.77,18.77,0,0,1-2.07,8Q47.73,40.92,46.16,44c-.47.93-.93,1.1-1.95.75L36.28,42c-.75-.26-1.22-.72-1.1-1.55.46-3.29-.07-6.54-.37-9.81a16.23,16.23,0,0,1,.86-8.08,7.72,7.72,0,0,1,5-4.79,6,6,0,0,1,4.78.71c3.17,1.78,4.77,4.66,5.51,8.1C51.17,27.65,51.22,28.74,51.36,29.81ZM44.88,43.48c1.3-2.69,2.62-5.27,3.8-7.9a13.83,13.83,0,0,0,.94-8.23c-.57-3.16-1.91-5.87-4.8-7.54a4.7,4.7,0,0,0-6.36,1A9.37,9.37,0,0,0,37,23.16a12.73,12.73,0,0,0-.87,6.08c.2,3.61,1,7.19.53,10.85a.81.81,0,0,0,.44.65C39.65,41.67,42.19,42.54,44.88,43.48Z"/><path d="M29.73,14.38a12.39,12.39,0,0,0-1.1-2.84C26.56,7.83,22.89,6.85,19.19,9,14,11.89,12.78,18.6,13.5,23l.06.34c.32,1.39.79,3,.9,3.37l0,.09a2.49,2.49,0,0,0,.11.29l2.88,7a1.27,1.27,0,0,0,1.69.82l8.3-2.23a1.44,1.44,0,0,0,1.17-1.5c.24-2.79.49-5.58.87-8.34S30.47,17.2,29.73,14.38Zm-1.24,5.53c-.44,3.6-1.52,7.12-1.31,10.8a.78.78,0,0,1-.41.61c-2.63.73-5.26,1.43-8,2.16-.95-2.3-1.89-4.56-2.81-6.82,0,0,0-.06,0-.08a15.35,15.35,0,0,1-1.06-3.89,12.83,12.83,0,0,1,2.58-10.37A9.94,9.94,0,0,1,20.25,10c2.68-1.49,5.26-.76,6.93,1.84S28.83,17.12,28.49,19.91Z"/><path d="M13.56,23.34a.24.24,0,0,0,0-.08c0-.1,0-.19,0-.26Z"/><path d="M30.56,41.59a5.4,5.4,0,0,1-4.24,5.63,5.23,5.23,0,0,1-5.93-3.4c-.56-1.66-1-3.34-1.52-5-.31-1.07,0-1.63,1.11-1.89,2.62-.65,5.25-1.3,7.87-1.93,1.2-.28,1.72.09,1.91,1.3ZM20.21,38.33c.57,1.83,1,3.58,1.67,5.27A3.65,3.65,0,0,0,26,45.81a3.7,3.7,0,0,0,3.12-3.69c-.12-1.91-.5-3.81-.77-5.78Z"/><path d="M43.57,46.86c-1.08-.39-2.17-.73-3.26-1.07l-.09,0-.08,0-3.71-1.22-.21-.07c-.17-.06-.37-.09-.55-.14-1.14-.34-1.68,0-2,1.09-.4,1.74-.81,3.47-1.16,5.22a5.2,5.2,0,0,0,3.52,5.93,5.13,5.13,0,0,0,6.28-2.63c.79-1.73,1.43-3.54,2.08-5.33A1.21,1.21,0,0,0,43.57,46.86Zm-.64,1.62c-.54,1.43-1.07,2.86-1.63,4.28a3.78,3.78,0,0,1-4.75,2.42A3.85,3.85,0,0,1,34,50.55c.27-1.25.57-2.49.85-3.73.09-.38.18-.75.29-1.17l.61.21.11,0,3.82,1.2h0l.14.06,3.09,1A1.61,1.61,0,0,1,42.93,48.48Z"/></svg>