<svg id="Layer_1" data-name="Layer 1" xmlns="http://www.w3.org/2000/svg" xmlns:xlink="http://www.w3.org/1999/xlink" viewBox="0 0 64.67 64.67"><defs><style>.cls-1{fill:url(#linear-gradient);}.cls-2{fill:#fff;}</style><linearGradient id="linear-gradient" x1="54.23" y1="9.59" x2="11.13" y2="54.36" gradientUnits="userSpaceOnUse"><stop offset="0" stop-color="#49eae2"/><stop offset="1" stop-color="#20baba"/></linearGradient></defs><circle class="cls-1" cx="32.33" cy="32.33" r="32.18"/><path class="cls-2" d="M42.86,16.84c-1.92-2.94-4.89-5-9.89-5-6.13,0-10.65,3.5-11.36,8.65-.57,4,1,9,3.2,12.37C28.34,38.47,28.23,39.44,28,42c-.45,6.88-7.82,10.87-7.82,10.87,6.69-1,10.72-5.34,12.56-7.33C40.15,37.6,43,30.83,44,26.5,44.82,23.08,44.59,19.47,42.86,16.84Zm-9.55,19-.57.45-.52-.48c-3.28-2.86-6.92-8.88-6.92-12.68A7.29,7.29,0,0,1,33,15.56c4.66,0,7.67,3.27,7.67,8.35C40.57,26.84,37.41,32.71,33.31,35.83Z"/><path class="cls-2" d="M35.9,24.44a3.18,3.18,0,1,1-2.14-4A3.2,3.2,0,0,1,35.9,24.44Z"/></svg>