<svg id="Layer_1" data-name="Layer 1" xmlns="http://www.w3.org/2000/svg" xmlns:xlink="http://www.w3.org/1999/xlink" viewBox="0 0 64.67 64.67"><defs><style>.cls-1{fill:#fff;}.cls-2{fill:url(#linear-gradient);}</style><linearGradient id="linear-gradient" x1="54.65" y1="9.15" x2="10.02" y2="55.52" gradientUnits="userSpaceOnUse"><stop offset="0" stop-color="#4fd3d0"/><stop offset="1" stop-color="#00b0b9"/></linearGradient></defs><circle class="cls-1" cx="32.33" cy="32.33" r="32.18"/><circle class="cls-2" cx="32.33" cy="32.33" r="32.18"/><path class="cls-1" d="M15.48,47.76V47c1-3.63,4.27-4.56,7.16-5.78-1.27-1.34-2.62-2.63-3.81-4.06a14.07,14.07,0,0,1-2.56-5.06l.13.07c.13.18.25.36.39.53a6.49,6.49,0,0,0,4.66,2.6A6.73,6.73,0,1,0,19,22.66a7.14,7.14,0,0,0-3.51,4.56v-.73c.11-.74.21-1.49.35-2.22A16.75,16.75,0,0,1,35,10.7,16.38,16.38,0,0,1,47.56,20a16.21,16.21,0,0,1,1.63,6.31C47,21.65,42.35,21,39.35,22.83A6.7,6.7,0,0,0,37,32.08a6.45,6.45,0,0,0,5.42,3.25,7,7,0,0,0,5.8-2.62,16.82,16.82,0,0,1-6.4,8.48l.92.32A12.32,12.32,0,0,1,48.3,45a3.63,3.63,0,0,1-.37,5.14c-.41-2.18-1.88-3.48-3.71-4.55a5.56,5.56,0,0,1-.93,5.08,11.65,11.65,0,0,1-4.16,3.46c1-3.23.39-5.93-2.11-8.06a6.77,6.77,0,0,0-7.68-.77c-3.45,2-4.43,5-3.3,8.94-3.22-2.11-6.1-4.23-5.06-8.8-2,1.29-3.5,2.66-3.82,5a2,2,0,0,1-.39-.36C16.33,49.31,15.91,48.53,15.48,47.76Z"/><path d="M49,28.59a3,3,0,1,0-3,3.12A3.11,3.11,0,0,0,49,28.59Z"/><path class="cls-1" d="M49,28.59a3,3,0,1,1-3-3.07A3.1,3.1,0,0,1,49,28.59Z"/><path class="cls-1" d="M28.51,28.72a3,3,0,1,1-6.07-.2,3,3,0,1,1,6.07.2Z"/></svg>