<svg id="Layer_1" data-name="Layer 1" xmlns="http://www.w3.org/2000/svg" xmlns:xlink="http://www.w3.org/1999/xlink" viewBox="0 0 64.67 64.67"><defs><style>.cls-1{fill:url(#linear-gradient);}.cls-2{fill:#fff;}</style><linearGradient id="linear-gradient" x1="54.65" y1="9.15" x2="10.02" y2="55.52" gradientUnits="userSpaceOnUse"><stop offset="0" stop-color="#2e8ccc"/><stop offset="1" stop-color="#1a6cb1"/></linearGradient></defs><circle class="cls-1" cx="32.33" cy="32.33" r="32.18"/><path class="cls-2" d="M19.19,40.5c2-.35,3.86-.73,5.77-1,2.91-.47,5.84-.84,8.74-1.35a8.93,8.93,0,0,0,7.55-10,9.18,9.18,0,0,0-8.87-7.8,9,9,0,0,0-9.06,8.55,12.11,12.11,0,0,0,1.09,4.67c.5,1.3.1,1.82-1.07,2a29.65,29.65,0,0,1-5.89.78c-.78,0-1.95-1.23-2.23-2.12-2.89-9.23,2.69-19.24,12.13-22A17.9,17.9,0,0,1,50.21,29.43c-.07,4.08-1.16,8-4.07,11C41.55,45,36.62,49.25,32.33,53.2Z"/></svg>