<svg id="Layer_1" data-name="Layer 1" xmlns="http://www.w3.org/2000/svg" viewBox="0 0 64.67 64.67"><defs><style>.cls-1{fill:#fff;}</style></defs><circle class="cls-1" cx="32.33" cy="32.33" r="32.18"/><path d="M32.18,34h.29a8.38,8.38,0,0,0,6.37-2.76c3.47-3.92,2.9-10.64,2.83-11.28-.22-4.82-2.5-7.12-4.38-8.2a10,10,0,0,0-4.86-1.27h-.15a10,10,0,0,0-4.87,1.24C25.52,12.83,23.2,15.14,23,20c-.07.64-.64,7.36,2.84,11.28A8.31,8.31,0,0,0,32.18,34ZM25.39,20.21s0-.05,0-.07c.3-6.48,4.9-7.17,6.87-7.17h.11c2.44,0,6.58,1,6.86,7.17,0,0,0,.06,0,.07s.64,6.21-2.23,9.45a5.94,5.94,0,0,1-4.65,1.93h-.09a5.93,5.93,0,0,1-4.65-1.93C24.77,26.44,25.38,20.27,25.39,20.21Z"/><path d="M50.89,45.18v0c0-.07,0-.14,0-.22-.05-1.79-.17-6-4.09-7.31l-.09,0a25.79,25.79,0,0,1-7.5-3.42,1.22,1.22,0,0,0-1.4,2,28.12,28.12,0,0,0,8.25,3.77c2.1.75,2.34,3,2.4,5.06a1.55,1.55,0,0,0,0,.22,16.88,16.88,0,0,1-.19,2.8,33.27,33.27,0,0,1-15.93,3.7A33.48,33.48,0,0,1,16.4,48a15.82,15.82,0,0,1-.19-2.79c0-.08,0-.15,0-.23.06-2.06.3-4.31,2.4-5.06a28.41,28.41,0,0,0,8.25-3.77,1.22,1.22,0,1,0-1.4-2A25.48,25.48,0,0,1,18,37.58l-.09,0c-3.92,1.34-4,5.53-4.09,7.31a1.55,1.55,0,0,1,0,.22v0a13.76,13.76,0,0,0,.46,4.09,1.1,1.1,0,0,0,.47.57c.27.18,6.77,4.32,17.64,4.32S49.71,50,50,49.83a1.2,1.2,0,0,0,.47-.57A14.51,14.51,0,0,0,50.89,45.18Z"/></svg>