<svg id="Layer_1" data-name="Layer 1" xmlns="http://www.w3.org/2000/svg" viewBox="0 0 64.67 64.67"><defs><style>.cls-1{fill:#fff;}</style></defs><circle class="cls-1" cx="32.33" cy="32.33" r="32.18"/><path d="M19.28,21.67c1.22,0,2.16,0,3.1,0a5.44,5.44,0,0,1,5.23,5.22c.05,1.11.05,2.23,0,3.33A1.15,1.15,0,0,1,27,31a22.08,22.08,0,0,1-17.62,0,.83.83,0,0,1-.62-.92c0-1,0-2.1,0-3.14a5.44,5.44,0,0,1,5.31-5.34c.91,0,1.83,0,2.8-.08A5.58,5.58,0,0,1,14,19a4.57,4.57,0,0,1-.12-3.89,4.66,4.66,0,0,1,5-2.86,4.71,4.71,0,0,1,4,3.87C23.27,18.36,22.16,20.17,19.28,21.67ZM26,29.73c0-1,.05-1.95,0-2.89a3.8,3.8,0,0,0-3.72-3.59q-4.11-.08-8.22,0a3.8,3.8,0,0,0-3.7,3.51c-.07,1,0,1.95,0,3l2.35.8V25.65H14.3v5.21a15.79,15.79,0,0,0,7.87-.11V25.62H23.7v4.91ZM18.25,13.82a3.12,3.12,0,0,0-3.18,3,3.14,3.14,0,1,0,6.27.09A3.09,3.09,0,0,0,18.25,13.82Z"/><path d="M45.25,21.66c-3.1-2-4-3.65-3.31-6a4.71,4.71,0,0,1,9,0c.68,2.39-.21,4-3.31,6,1.07,0,2,0,2.93,0A5.44,5.44,0,0,1,55.87,27c0,1.08,0,2.16,0,3.23,0,.53-.22.72-.66.9a22.24,22.24,0,0,1-17.53,0,.88.88,0,0,1-.67-1c0-1,0-2,0-3a5.45,5.45,0,0,1,5.36-5.4C43.31,21.64,44.2,21.66,45.25,21.66Zm-2.73,9.17a16,16,0,0,0,7.89,0V25.65H52v4.76c2.35-.34,2.36-.35,2.36-2.55,0-.27,0-.53,0-.79a3.83,3.83,0,0,0-3.8-3.82q-4.06-.08-8.13,0a3.81,3.81,0,0,0-3.74,3.67c-.05.91,0,1.83,0,2.81l2.4.8V25.64h1.5Zm7.07-13.89a3.13,3.13,0,0,0-6.26-.07,3.13,3.13,0,1,0,6.26.07Z"/><path d="M31.16,45.21c-3.05-1.83-4-3.58-3.36-6a4.63,4.63,0,0,1,4.35-3.47A4.69,4.69,0,0,1,36.81,39c.78,2.38-.11,4.11-3.24,6.21,1,0,2,0,2.92,0a5.44,5.44,0,0,1,5.25,5.29c0,1.08,0,2.16,0,3.24a1.15,1.15,0,0,1-.56.82,21.84,21.84,0,0,1-17.69,0,1.15,1.15,0,0,1-.54-.83c-.06-1,0-2.09,0-3.14a5.43,5.43,0,0,1,5.29-5.36C29.13,45.18,30,45.21,31.16,45.21ZM28.4,54.42a18.17,18.17,0,0,0,7.87,0V49.19h1.58V54c2.33-.49,2.33-.49,2.33-2.66v-.48a3.9,3.9,0,0,0-4.07-4.07c-2,0-4,.1-6,0-4.65-.29-5.95,1.82-5.65,5.93,0,.5,1.74,1.49,2.21,1.28a.6.6,0,0,1,.18-.07V49.17H28.4Zm4-17.06a3.12,3.12,0,0,0-3.17,3,3.14,3.14,0,1,0,6.27.08A3.12,3.12,0,0,0,32.37,37.36Z"/><path d="M51.11,34.23l1.56.09a20.66,20.66,0,0,1-9.22,15.45c-.18-.23-.34-.42-.48-.62s-.24-.39-.41-.68a19.11,19.11,0,0,0,8.55-14.24Z"/><path d="M12,34.3l.79-.06h.77a19.67,19.67,0,0,0,2.55,8,19,19,0,0,0,5.71,6.07l-.88,1.31A20.47,20.47,0,0,1,12,34.3Z"/><path d="M24.81,15.33l-.56-1.27c3.63-2.19,11.09-2.56,16-.17l-.57,1.36A19.29,19.29,0,0,0,24.81,15.33Z"/></svg>