<svg id="Layer_1" data-name="Layer 1" xmlns="http://www.w3.org/2000/svg" xmlns:xlink="http://www.w3.org/1999/xlink" viewBox="0 0 64.67 64.67"><defs><style>.cls-1{fill:#fff;}.cls-2{fill:url(#linear-gradient);}.cls-3{fill:#ff8700;}.cls-4{fill:#fe8701;}.cls-5{fill:#fd8802;}.cls-6{fill:#fd8803;}.cls-7{fill:#fc8804;}.cls-8{fill:#fb8905;}.cls-9{fill:#fa8906;}.cls-10{fill:#f98907;}.cls-11{fill:#f98a08;}.cls-12{fill:#f88a09;}.cls-13{fill:#f78a0a;}.cls-14{fill:#f68b0b;}.cls-15{fill:#f68b0c;}.cls-16{fill:#f58b0d;}.cls-17{fill:#f48c0e;}.cls-18{fill:#f38c0f;}.cls-19{fill:#f28c10;}.cls-20{fill:#f28d11;}.cls-21{fill:#f18d12;}.cls-22{fill:#f08d13;}.cls-23{fill:#ef8e14;}.cls-24{fill:#ee8e15;}.cls-25{fill:#ee8e16;}.cls-26{fill:#ed8f17;}.cls-27{fill:#ec8f18;}.cls-28{fill:#eb8f19;}.cls-29{fill:#eb901a;}.cls-30{fill:#ea901b;}.cls-31{fill:#e9901c;}.cls-32{fill:#e8911d;}.cls-33{fill:#e7911e;}.cls-34{fill:#e7911f;}.cls-35{fill:#e69220;}.cls-36{fill:#e59221;}.cls-37{fill:#e49222;}.cls-38{fill:#e39323;}.cls-39{fill:#e39324;}.cls-40{fill:#e29325;}.cls-41{fill:#e19426;}.cls-42{fill:#e09427;}.cls-43{fill:#e09428;}.cls-44{fill:#df9529;}.cls-45{fill:#de952a;}.cls-46{fill:#dd962b;}.cls-47{fill:#dc962c;}.cls-48{fill:#dc962d;}.cls-49{fill:#db972e;}.cls-50{fill:#da972f;}.cls-51{fill:#d99730;}.cls-52{fill:#d89831;}.cls-53{fill:#d89832;}.cls-54{fill:#d79833;}.cls-55{fill:#d69934;}.cls-56{fill:#d59935;}.cls-57{fill:#d59936;}.cls-58{fill:#d49a37;}.cls-59{fill:#d39a38;}.cls-60{fill:#d29a39;}.cls-61{fill:#d19b3a;}.cls-62{fill:#d19b3b;}.cls-63{fill:#d09b3c;}.cls-64{fill:#cf9c3d;}.cls-65{fill:#ce9c3e;}.cls-66{fill:#cd9c3f;}.cls-67{fill:#cd9d40;}.cls-68{fill:#cc9d41;}.cls-69{fill:#cb9d42;}.cls-70{fill:#ca9e43;}.cls-71{fill:#ca9e44;}.cls-72{fill:#c99e45;}.cls-73{fill:#c89f46;}.cls-74{fill:#c79f47;}.cls-75{fill:#c69f48;}.cls-76{fill:#c6a049;}.cls-77{fill:#c5a04a;}.cls-78{fill:#c4a04b;}.cls-79{fill:#c3a14c;}.cls-80{fill:#c2a14d;}.cls-81{fill:#c2a14e;}.cls-82{fill:#c1a24f;}.cls-83{fill:#c0a250;}.cls-84{fill:#bfa251;}.cls-85{fill:#bfa352;}.cls-86{fill:#bea353;}.cls-87{fill:#bda354;}.cls-88{fill:#bca455;}.cls-89{fill:#bba456;}.cls-90{fill:#bba457;}.cls-91{fill:#baa558;}.cls-92{fill:#b9a559;}.cls-93{fill:#b8a55a;}.cls-94{fill:#b7a65b;}.cls-95{fill:#b7a65c;}.cls-96{fill:#b6a65d;}.cls-97{fill:#b5a75e;}.cls-98{fill:#b4a75f;}.cls-99{fill:#b4a760;}.cls-100{fill:#b3a861;}.cls-101{fill:#b2a862;}.cls-102{fill:#b1a863;}.cls-103{fill:#b0a964;}.cls-104{fill:#b0a965;}.cls-105{fill:#afa966;}.cls-106{fill:#aeaa67;}.cls-107{fill:#adaa68;}.cls-108{fill:#acaa69;}.cls-109{fill:#acab6a;}.cls-110{fill:#abab6b;}.cls-111{fill:#aaab6c;}.cls-112{fill:#a9ac6d;}.cls-113{fill:#a9ac6e;}.cls-114{fill:#a8ac6f;}.cls-115{fill:#a7ad70;}.cls-116{fill:#a6ad71;}.cls-117{fill:#a5ad72;}.cls-118{fill:#a5ae73;}.cls-119{fill:#a4ae74;}.cls-120{fill:#a3ae75;}.cls-121{fill:#a2af76;}.cls-122{fill:#a1af77;}.cls-123{fill:#a1af78;}.cls-124{fill:#a0b079;}.cls-125{fill:#9fb07a;}.cls-126{fill:#9eb17b;}.cls-127{fill:#9eb17c;}.cls-128{fill:#9db17d;}.cls-129{fill:#9cb27e;}.cls-130{fill:#9bb27f;}.cls-131{fill:#9ab280;}.cls-132{fill:#9ab381;}.cls-133{fill:#99b382;}.cls-134{fill:#98b383;}.cls-135{fill:#97b484;}.cls-136{fill:#96b485;}.cls-137{fill:#96b486;}.cls-138{fill:#95b587;}.cls-139{fill:#94b588;}.cls-140{fill:#93b589;}.cls-141{fill:#93b68a;}.cls-142{fill:#92b68b;}.cls-143{fill:#91b68c;}.cls-144{fill:#90b78d;}.cls-145{fill:#8fb78e;}.cls-146{fill:#8fb78f;}.cls-147{fill:#8eb890;}.cls-148{fill:#8db891;}.cls-149{fill:#8cb892;}.cls-150{fill:#8bb993;}.cls-151{fill:#8bb994;}.cls-152{fill:#8ab995;}.cls-153{fill:#89ba96;}.cls-154{fill:#88ba97;}.cls-155{fill:#88ba98;}.cls-156{fill:#87bb99;}.cls-157{fill:#86bb9a;}.cls-158{fill:#85bb9b;}.cls-159{fill:#84bc9c;}.cls-160{fill:#84bc9d;}.cls-161{fill:#83bc9e;}.cls-162{fill:#82bd9f;}.cls-163{fill:#81bda0;}.cls-164{fill:#80bda1;}.cls-165{fill:#80bea2;}.cls-166{fill:#7fbea3;}.cls-167{fill:#7ebea4;}.cls-168{fill:#7dbfa5;}.cls-169{fill:#7dbfa6;}.cls-170{fill:#7cbfa7;}.cls-171{fill:#7bc0a8;}.cls-172{fill:#7ac0a9;}.cls-173{fill:#79c0aa;}.cls-174{fill:#79c1ab;}.cls-175{fill:#78c1ac;}.cls-176{fill:#77c1ad;}.cls-177{fill:#76c2ae;}.cls-178{fill:#75c2af;}.cls-179{fill:#75c2b0;}.cls-180{fill:#74c3b1;}.cls-181{fill:#73c3b2;}.cls-182{fill:#72c3b3;}.cls-183{fill:#72c4b4;}.cls-184{fill:#71c4b5;}.cls-185{fill:#70c4b6;}.cls-186{fill:#6fc5b7;}.cls-187{fill:#6ec5b8;}.cls-188{fill:#6ec5b9;}.cls-189{fill:#6dc6ba;}.cls-190{fill:#6cc6bb;}.cls-191{fill:#6bc6bc;}.cls-192{fill:#6ac7bd;}.cls-193{fill:#6ac7be;}.cls-194{fill:#69c7bf;}.cls-195{fill:#68c8c0;}.cls-196{fill:#67c8c1;}.cls-197{fill:#67c8c2;}.cls-198{fill:#66c9c3;}.cls-199{fill:#65c9c4;}.cls-200{fill:#64c9c5;}.cls-201{fill:#63cac6;}.cls-202{fill:#63cac7;}.cls-203{fill:#62cac8;}.cls-204{fill:#61cbc9;}.cls-205{fill:#60cbca;}.cls-206{fill:#5fcccb;}.cls-207{fill:#5fcccc;}.cls-208{fill:#5ecccd;}.cls-209{fill:#5dcdce;}.cls-210{fill:#5ccdcf;}.cls-211{fill:#5ccdd0;}.cls-212{fill:#5bced1;}.cls-213{fill:#5aced2;}.cls-214{fill:#59ced3;}.cls-215{fill:#58cfd4;}.cls-216{fill:#58cfd5;}.cls-217{fill:#57cfd6;}.cls-218{fill:#56d0d7;}.cls-219{fill:#55d0d8;}.cls-220{fill:#54d0d9;}.cls-221{fill:#54d1da;}.cls-222{fill:#53d1db;}.cls-223{fill:#52d1dc;}.cls-224{fill:#51d2dd;}.cls-225{fill:#51d2de;}.cls-226{fill:#50d2df;}.cls-227{fill:#4fd3e0;}.cls-228{fill:#4ed3e1;}.cls-229{fill:#4dd3e2;}.cls-230{fill:#4dd4e3;}.cls-231{fill:#4cd4e4;}.cls-232{fill:#4bd4e5;}.cls-233{fill:#4ad5e6;}.cls-234{fill:#49d5e7;}.cls-235{fill:#49d5e8;}.cls-236{fill:#48d6e9;}.cls-237{fill:#47d6ea;}.cls-238{fill:#46d6eb;}.cls-239{fill:#46d7ec;}.cls-240{fill:#45d7ed;}.cls-241{fill:#44d7ee;}.cls-242{fill:#43d8ef;}.cls-243{fill:#42d8f0;}.cls-244{fill:#42d8f1;}.cls-245{fill:#41d9f2;}.cls-246{fill:#40d9f3;}</style><linearGradient id="linear-gradient" x1="54.65" y1="9.15" x2="10.02" y2="55.52" gradientUnits="userSpaceOnUse"><stop offset="0" stop-color="#2c314c"/><stop offset="1" stop-color="#181b30"/></linearGradient></defs><circle class="cls-1" cx="32.33" cy="32.33" r="32.18"/><circle class="cls-2" cx="32.33" cy="32.33" r="32.18"/><g id="logo-ru-squiggle_dark" data-name="logo-ru-squiggle dark"><g id="squiggle"><path id="Fill-3" class="cls-3" d="M18.7,37.81A5.51,5.51,0,1,1,19.05,30a5.51,5.51,0,0,1-.35,7.78"/><path id="Fill-5" class="cls-4" d="M18.69,37.46A5.5,5.5,0,1,1,19,29.69a5.49,5.49,0,0,1-.35,7.77"/><path id="Fill-7" class="cls-5" d="M18.7,37.12a5.5,5.5,0,1,1,.35-7.77,5.51,5.51,0,0,1-.35,7.77"/><path id="Fill-9" class="cls-6" d="M18.71,36.78A5.5,5.5,0,1,1,19.06,29a5.48,5.48,0,0,1-.35,7.77"/><path id="Fill-11" class="cls-7" d="M18.73,36.45a5.5,5.5,0,1,1,.35-7.77,5.5,5.5,0,0,1-.35,7.77"/><path id="Fill-13" class="cls-8" d="M18.75,36.13a5.5,5.5,0,1,1,.35-7.78,5.5,5.5,0,0,1-.35,7.78"/><path id="Fill-15" class="cls-9" d="M18.79,35.81A5.51,5.51,0,1,1,19.14,28a5.51,5.51,0,0,1-.35,7.78"/><path id="Fill-17" class="cls-10" d="M18.82,35.49a5.5,5.5,0,1,1,.35-7.78,5.5,5.5,0,0,1-.35,7.78"/><path id="Fill-19" class="cls-11" d="M18.87,35.18a5.51,5.51,0,1,1,.35-7.78,5.51,5.51,0,0,1-.35,7.78"/><path id="Fill-21" class="cls-12" d="M18.92,34.87a5.5,5.5,0,1,1,.35-7.77,5.5,5.5,0,0,1-.35,7.77"/><path id="Fill-23" class="cls-13" d="M19,34.57a5.5,5.5,0,1,1,.35-7.77A5.49,5.49,0,0,1,19,34.57"/><path id="Fill-25" class="cls-14" d="M19,34.28a5.51,5.51,0,1,1,.35-7.78A5.51,5.51,0,0,1,19,34.28"/><path id="Fill-27" class="cls-15" d="M19.11,34a5.51,5.51,0,1,1,.35-7.78A5.51,5.51,0,0,1,19.11,34"/><path id="Fill-29" class="cls-16" d="M19.18,33.7a5.5,5.5,0,1,1,.35-7.77,5.5,5.5,0,0,1-.35,7.77"/><path id="Fill-31" class="cls-17" d="M19.26,33.42a5.5,5.5,0,1,1,.35-7.77,5.5,5.5,0,0,1-.35,7.77"/><path id="Fill-33" class="cls-18" d="M19.35,33.15a5.51,5.51,0,1,1,.35-7.78,5.51,5.51,0,0,1-.35,7.78"/><path id="Fill-35" class="cls-19" d="M19.44,32.88a5.51,5.51,0,1,1,.35-7.78,5.51,5.51,0,0,1-.35,7.78"/><path id="Fill-37" class="cls-20" d="M19.53,32.61a5.5,5.5,0,1,1,.35-7.77,5.49,5.49,0,0,1-.35,7.77"/><path id="Fill-39" class="cls-21" d="M19.63,32.35A5.5,5.5,0,1,1,20,24.58a5.49,5.49,0,0,1-.35,7.77"/><path id="Fill-41" class="cls-22" d="M19.74,32.1a5.5,5.5,0,1,1,.35-7.77,5.5,5.5,0,0,1-.35,7.77"/><path id="Fill-43" class="cls-23" d="M19.85,31.85a5.5,5.5,0,1,1,.35-7.77,5.49,5.49,0,0,1-.35,7.77"/><path id="Fill-45" class="cls-24" d="M20,31.61a5.51,5.51,0,1,1,.35-7.78A5.51,5.51,0,0,1,20,31.61"/><path id="Fill-47" class="cls-25" d="M20.09,31.37a5.51,5.51,0,1,1,.35-7.78,5.51,5.51,0,0,1-.35,7.78"/><path id="Fill-49" class="cls-26" d="M20.22,31.14a5.51,5.51,0,1,1,.34-7.78,5.51,5.51,0,0,1-.34,7.78"/><path id="Fill-51" class="cls-27" d="M20.34,30.91a5.5,5.5,0,1,1,.35-7.78,5.5,5.5,0,0,1-.35,7.78"/><path id="Fill-53" class="cls-28" d="M20.48,30.69a5.51,5.51,0,1,1,.35-7.78,5.51,5.51,0,0,1-.35,7.78"/><path id="Fill-55" class="cls-29" d="M20.62,30.47A5.5,5.5,0,1,1,21,22.7a5.51,5.51,0,0,1-.35,7.77"/><path id="Fill-57" class="cls-30" d="M20.76,30.26a5.5,5.5,0,1,1,.35-7.78,5.5,5.5,0,0,1-.35,7.78"/><path id="Fill-59" class="cls-31" d="M20.91,30.05a5.5,5.5,0,1,1,.35-7.77,5.5,5.5,0,0,1-.35,7.77"/><path id="Fill-61" class="cls-32" d="M21.06,29.85a5.5,5.5,0,1,1,.35-7.77,5.5,5.5,0,0,1-.35,7.77"/><path id="Fill-63" class="cls-33" d="M21.21,29.66a5.5,5.5,0,1,1,.35-7.78,5.5,5.5,0,0,1-.35,7.78"/><path id="Fill-65" class="cls-34" d="M21.37,29.47a5.5,5.5,0,1,1,.35-7.78,5.5,5.5,0,0,1-.35,7.78"/><path id="Fill-67" class="cls-35" d="M21.53,29.28a5.5,5.5,0,1,1,.35-7.77,5.49,5.49,0,0,1-.35,7.77"/><path id="Fill-69" class="cls-36" d="M21.7,29.1a5.5,5.5,0,1,1,.35-7.77,5.5,5.5,0,0,1-.35,7.77"/><path id="Fill-71" class="cls-37" d="M21.87,28.93a5.51,5.51,0,1,1,.35-7.78,5.51,5.51,0,0,1-.35,7.78"/><path id="Fill-73" class="cls-38" d="M22,28.76A5.5,5.5,0,1,1,22.39,21,5.5,5.5,0,0,1,22,28.76"/><path id="Fill-75" class="cls-39" d="M22.22,28.6a5.51,5.51,0,1,1,.35-7.78,5.51,5.51,0,0,1-.35,7.78"/><path id="Fill-77" class="cls-40" d="M22.39,28.44a5.5,5.5,0,1,1,.35-7.78,5.5,5.5,0,0,1-.35,7.78"/><path id="Fill-79" class="cls-41" d="M22.58,28.29a5.51,5.51,0,1,1,.34-7.78,5.51,5.51,0,0,1-.34,7.78"/><path id="Fill-81" class="cls-42" d="M22.76,28.14a5.5,5.5,0,1,1,.35-7.77,5.5,5.5,0,0,1-.35,7.77"/><path id="Fill-83" class="cls-43" d="M23,28a5.5,5.5,0,1,1,.35-7.77A5.51,5.51,0,0,1,23,28"/><path id="Fill-85" class="cls-44" d="M23.13,27.87a5.5,5.5,0,1,1,.35-7.78,5.5,5.5,0,0,1-.35,7.78"/><path id="Fill-87" class="cls-45" d="M23.33,27.74A5.51,5.51,0,1,1,23.68,20a5.51,5.51,0,0,1-.35,7.78"/><path id="Fill-89" class="cls-46" d="M23.52,27.61a5.5,5.5,0,1,1,.35-7.77,5.51,5.51,0,0,1-.35,7.77"/><path id="Fill-91" class="cls-47" d="M23.72,27.49a5.5,5.5,0,1,1,.35-7.77,5.5,5.5,0,0,1-.35,7.77"/><path id="Fill-93" class="cls-48" d="M23.91,27.38a5.5,5.5,0,1,1,.35-7.78,5.5,5.5,0,0,1-.35,7.78"/><path id="Fill-95" class="cls-49" d="M24.11,27.27a5.5,5.5,0,1,1,.35-7.77,5.5,5.5,0,0,1-.35,7.77"/><path id="Fill-97" class="cls-50" d="M24.32,27.17a5.51,5.51,0,1,1,.35-7.78,5.51,5.51,0,0,1-.35,7.78"/><path id="Fill-99" class="cls-51" d="M24.52,27.07a5.5,5.5,0,1,1,.35-7.77,5.5,5.5,0,0,1-.35,7.77"/><path id="Fill-101" class="cls-52" d="M24.73,27a5.5,5.5,0,1,1,.35-7.77A5.51,5.51,0,0,1,24.73,27"/><path id="Fill-103" class="cls-53" d="M24.93,26.9a5.5,5.5,0,1,1,.35-7.78,5.5,5.5,0,0,1-.35,7.78"/><path id="Fill-105" class="cls-54" d="M25.14,26.82A5.5,5.5,0,1,1,25.49,19a5.5,5.5,0,0,1-.35,7.78"/><path id="Fill-107" class="cls-55" d="M25.35,26.74A5.5,5.5,0,1,1,25.7,19a5.49,5.49,0,0,1-.35,7.77"/><path id="Fill-109" class="cls-56" d="M25.56,26.67a5.5,5.5,0,1,1,.35-7.77,5.49,5.49,0,0,1-.35,7.77"/><path id="Fill-111" class="cls-57" d="M25.77,26.61a5.5,5.5,0,1,1,.35-7.78,5.5,5.5,0,0,1-.35,7.78"/><path id="Fill-113" class="cls-58" d="M26,26.55a5.5,5.5,0,1,1,.35-7.77A5.5,5.5,0,0,1,26,26.55"/><path id="Fill-115" class="cls-59" d="M26.2,26.5a5.5,5.5,0,1,1,.35-7.77,5.5,5.5,0,0,1-.35,7.77"/><path id="Fill-117" class="cls-60" d="M26.41,26.46a5.5,5.5,0,1,1,.35-7.78,5.5,5.5,0,0,1-.35,7.78"/><path id="Fill-119" class="cls-61" d="M26.63,26.42A5.51,5.51,0,1,1,27,18.64a5.51,5.51,0,0,1-.35,7.78"/><path id="Fill-121" class="cls-62" d="M26.84,26.38a5.5,5.5,0,1,1,.35-7.77,5.49,5.49,0,0,1-.35,7.77"/><path id="Fill-123" class="cls-63" d="M27.06,26.35a5.5,5.5,0,1,1,.35-7.77,5.49,5.49,0,0,1-.35,7.77"/><path id="Fill-125" class="cls-64" d="M27.28,26.33a5.51,5.51,0,1,1,.35-7.78,5.51,5.51,0,0,1-.35,7.78"/><path id="Fill-127" class="cls-65" d="M27.49,26.31a5.5,5.5,0,1,1,.35-7.77,5.49,5.49,0,0,1-.35,7.77"/><path id="Fill-129" class="cls-66" d="M27.71,26.3a5.5,5.5,0,1,1,.35-7.77,5.5,5.5,0,0,1-.35,7.77"/><path id="Fill-131" class="cls-67" d="M27.93,26.3a5.51,5.51,0,1,1,.35-7.78,5.51,5.51,0,0,1-.35,7.78"/><path id="Fill-133" class="cls-68" d="M28.14,26.3a5.5,5.5,0,1,1,.35-7.78,5.5,5.5,0,0,1-.35,7.78"/><path id="Fill-135" class="cls-69" d="M28.36,26.3a5.5,5.5,0,1,1,.35-7.77,5.5,5.5,0,0,1-.35,7.77"/><path id="Fill-137" class="cls-70" d="M28.57,26.31a5.5,5.5,0,1,1,.35-7.77,5.49,5.49,0,0,1-.35,7.77"/><path id="Fill-139" class="cls-71" d="M28.79,26.33a5.5,5.5,0,1,1,.35-7.77,5.5,5.5,0,0,1-.35,7.77"/><path id="Fill-141" class="cls-72" d="M29,26.36a5.5,5.5,0,1,1,.35-7.78A5.5,5.5,0,0,1,29,26.36"/><path id="Fill-143" class="cls-73" d="M29.22,26.39a5.51,5.51,0,1,1,.34-7.78,5.51,5.51,0,0,1-.34,7.78"/><path id="Fill-145" class="cls-74" d="M29.43,26.42a5.5,5.5,0,1,1,.35-7.77,5.51,5.51,0,0,1-.35,7.77"/><path id="Fill-147" class="cls-75" d="M29.64,26.46A5.5,5.5,0,1,1,30,18.69a5.5,5.5,0,0,1-.35,7.77"/><path id="Fill-149" class="cls-76" d="M29.85,26.51a5.51,5.51,0,1,1,.35-7.78,5.51,5.51,0,0,1-.35,7.78"/><path id="Fill-151" class="cls-77" d="M30.06,26.56a5.5,5.5,0,1,1,.35-7.77,5.5,5.5,0,0,1-.35,7.77"/><path id="Fill-153" class="cls-78" d="M30.27,26.62a5.5,5.5,0,1,1,.35-7.77,5.5,5.5,0,0,1-.35,7.77"/><path id="Fill-155" class="cls-79" d="M30.47,26.69a5.5,5.5,0,1,1,.35-7.78,5.5,5.5,0,0,1-.35,7.78"/><path id="Fill-157" class="cls-80" d="M30.68,26.76A5.51,5.51,0,1,1,31,19a5.51,5.51,0,0,1-.35,7.78"/><path id="Fill-159" class="cls-81" d="M30.88,26.83a5.5,5.5,0,1,1,.35-7.77,5.5,5.5,0,0,1-.35,7.77"/><path id="Fill-161" class="cls-82" d="M31.08,26.92a5.5,5.5,0,1,1,.35-7.78,5.5,5.5,0,0,1-.35,7.78"/><path id="Fill-163" class="cls-83" d="M31.28,27a5.5,5.5,0,1,1,.35-7.78A5.5,5.5,0,0,1,31.28,27"/><path id="Fill-165" class="cls-84" d="M31.48,27.1a5.5,5.5,0,1,1,.35-7.77,5.51,5.51,0,0,1-.35,7.77"/><path id="Fill-167" class="cls-85" d="M31.67,27.2A5.5,5.5,0,1,1,32,19.43a5.49,5.49,0,0,1-.35,7.77"/><path id="Fill-169" class="cls-86" d="M31.87,27.31a5.51,5.51,0,1,1,.35-7.78,5.51,5.51,0,0,1-.35,7.78"/><path id="Fill-171" class="cls-87" d="M32.06,27.42a5.5,5.5,0,1,1,.35-7.77,5.5,5.5,0,0,1-.35,7.77"/><path id="Fill-173" class="cls-88" d="M32.25,27.54a5.5,5.5,0,1,1,.34-7.78,5.51,5.51,0,0,1-.34,7.78"/><path id="Fill-175" class="cls-89" d="M32.43,27.67a5.51,5.51,0,1,1,.35-7.78,5.5,5.5,0,0,1-.35,7.78"/><path id="Fill-177" class="cls-90" d="M32.61,27.8A5.5,5.5,0,1,1,33,20a5.5,5.5,0,0,1-.35,7.78"/><path id="Fill-179" class="cls-91" d="M32.79,27.93a5.5,5.5,0,1,1,.35-7.77,5.49,5.49,0,0,1-.35,7.77"/><path id="Fill-181" class="cls-92" d="M33,28.08a5.51,5.51,0,1,1,.35-7.78A5.5,5.5,0,0,1,33,28.08"/><path id="Fill-183" class="cls-93" d="M33.14,28.23a5.5,5.5,0,1,1,.35-7.78,5.5,5.5,0,0,1-.35,7.78"/><path id="Fill-185" class="cls-94" d="M33.32,28.38a5.5,5.5,0,1,1,.34-7.77,5.5,5.5,0,0,1-.34,7.77"/><path id="Fill-187" class="cls-95" d="M33.48,28.54a5.5,5.5,0,1,1,.35-7.77,5.49,5.49,0,0,1-.35,7.77"/><path id="Fill-189" class="cls-96" d="M33.65,28.71A5.5,5.5,0,1,1,34,20.94a5.51,5.51,0,0,1-.35,7.77"/><path id="Fill-191" class="cls-97" d="M33.81,28.88a5.5,5.5,0,1,1,.35-7.77,5.5,5.5,0,0,1-.35,7.77"/><path id="Fill-193" class="cls-98" d="M34,29.06a5.5,5.5,0,1,1,.35-7.77A5.49,5.49,0,0,1,34,29.06"/><path id="Fill-195" class="cls-99" d="M34.12,29.25a5.5,5.5,0,1,1,.35-7.77,5.5,5.5,0,0,1-.35,7.77"/><path id="Fill-197" class="cls-100" d="M34.27,29.44a5.5,5.5,0,1,1,.35-7.77,5.5,5.5,0,0,1-.35,7.77"/><path id="Fill-199" class="cls-101" d="M34.41,29.64a5.5,5.5,0,1,1,.35-7.77,5.49,5.49,0,0,1-.35,7.77"/><path id="Fill-201" class="cls-102" d="M34.55,29.85a5.5,5.5,0,1,1,.35-7.78,5.5,5.5,0,0,1-.35,7.78"/><path id="Fill-203" class="cls-103" d="M34.69,30.06A5.51,5.51,0,1,1,35,22.28a5.51,5.51,0,0,1-.35,7.78"/><path id="Fill-205" class="cls-104" d="M34.82,30.28a5.5,5.5,0,1,1,.35-7.78,5.5,5.5,0,0,1-.35,7.78"/><path id="Fill-207" class="cls-105" d="M35,30.5a5.5,5.5,0,1,1,.35-7.78A5.5,5.5,0,0,1,35,30.5"/><path id="Fill-209" class="cls-106" d="M35.08,30.73A5.51,5.51,0,1,1,35.42,23a5.51,5.51,0,0,1-.34,7.78"/><path id="Fill-211" class="cls-107" d="M35.19,31a5.5,5.5,0,1,1,.35-7.78A5.5,5.5,0,0,1,35.19,31"/><path id="Fill-213" class="cls-108" d="M35.31,31.21a5.51,5.51,0,1,1,.35-7.78,5.51,5.51,0,0,1-.35,7.78"/><path id="Fill-215" class="cls-109" d="M35.42,31.46a5.51,5.51,0,1,1,.35-7.78,5.51,5.51,0,0,1-.35,7.78"/><path id="Fill-217" class="cls-110" d="M35.52,31.71a5.5,5.5,0,1,1,.35-7.77,5.49,5.49,0,0,1-.35,7.77"/><path id="Fill-219" class="cls-111" d="M35.62,32A5.5,5.5,0,1,1,36,24.2,5.49,5.49,0,0,1,35.62,32"/><path id="Fill-221" class="cls-112" d="M35.72,32.24a5.5,5.5,0,1,1,.35-7.78,5.51,5.51,0,0,1-.35,7.78"/><path id="Fill-223" class="cls-113" d="M35.8,32.51a5.5,5.5,0,1,1,.35-7.77,5.48,5.48,0,0,1-.35,7.77"/><path id="Fill-225" class="cls-114" d="M35.89,32.79A5.5,5.5,0,1,1,36.24,25a5.5,5.5,0,0,1-.35,7.77"/><path id="Fill-227" class="cls-115" d="M36,33.08a5.5,5.5,0,1,1,.35-7.77A5.5,5.5,0,0,1,36,33.08"/><path id="Fill-229" class="cls-116" d="M36,33.37a5.5,5.5,0,1,1,.35-7.77A5.5,5.5,0,0,1,36,33.37"/><path id="Fill-231" class="cls-117" d="M36.1,33.67a5.5,5.5,0,1,1,.35-7.77,5.49,5.49,0,0,1-.35,7.77"/><path id="Fill-233" class="cls-118" d="M36.16,34a5.5,5.5,0,1,1,.35-7.77A5.5,5.5,0,0,1,36.16,34"/><path id="Fill-235" class="cls-119" d="M36.22,34.29a5.5,5.5,0,1,1,.35-7.77,5.5,5.5,0,0,1-.35,7.77"/><path id="Fill-237" class="cls-120" d="M36.27,34.61a5.5,5.5,0,1,1,.35-7.77,5.5,5.5,0,0,1-.35,7.77"/><path id="Fill-239" class="cls-121" d="M36.31,34.94a5.51,5.51,0,1,1,.35-7.78,5.51,5.51,0,0,1-.35,7.78"/><path id="Fill-241" class="cls-122" d="M36.34,35.27a5.5,5.5,0,1,1,.35-7.78,5.5,5.5,0,0,1-.35,7.78"/><path id="Fill-243" class="cls-123" d="M36.37,35.61a5.5,5.5,0,1,1,.35-7.78,5.5,5.5,0,0,1-.35,7.78"/><path id="Fill-245" class="cls-124" d="M36.39,36a5.5,5.5,0,1,1,.35-7.77A5.49,5.49,0,0,1,36.39,36"/><path id="Fill-247" class="cls-125" d="M36.42,36.31a5.51,5.51,0,1,1,.35-7.78,5.51,5.51,0,0,1-.35,7.78"/><path id="Fill-249" class="cls-126" d="M36.44,36.66a5.5,5.5,0,1,1,.35-7.78,5.5,5.5,0,0,1-.35,7.78"/><path id="Fill-251" class="cls-127" d="M36.48,37a5.5,5.5,0,1,1,.35-7.77A5.5,5.5,0,0,1,36.48,37"/><path id="Fill-253" class="cls-128" d="M36.52,37.34a5.5,5.5,0,1,1,.35-7.77,5.5,5.5,0,0,1-.35,7.77"/><path id="Fill-255" class="cls-129" d="M36.57,37.67a5.5,5.5,0,1,1,.35-7.77,5.5,5.5,0,0,1-.35,7.77"/><path id="Fill-257" class="cls-130" d="M36.62,38A5.51,5.51,0,1,1,37,30.22,5.51,5.51,0,0,1,36.62,38"/><path id="Fill-259" class="cls-131" d="M36.68,38.32A5.51,5.51,0,1,1,37,30.54a5.51,5.51,0,0,1-.35,7.78"/><path id="Fill-261" class="cls-132" d="M36.74,38.63a5.5,5.5,0,1,1,.35-7.77,5.49,5.49,0,0,1-.35,7.77"/><path id="Fill-263" class="cls-133" d="M36.81,38.94a5.5,5.5,0,1,1,.35-7.78,5.5,5.5,0,0,1-.35,7.78"/><path id="Fill-265" class="cls-134" d="M36.89,39.24a5.5,5.5,0,1,1,.35-7.78,5.51,5.51,0,0,1-.35,7.78"/><path id="Fill-267" class="cls-135" d="M37,39.54a5.5,5.5,0,1,1,.35-7.78A5.5,5.5,0,0,1,37,39.54"/><path id="Fill-269" class="cls-136" d="M37.06,39.82a5.5,5.5,0,1,1,.35-7.77,5.5,5.5,0,0,1-.35,7.77"/><path id="Fill-271" class="cls-137" d="M37.15,40.11a5.51,5.51,0,1,1,.35-7.78,5.51,5.51,0,0,1-.35,7.78"/><path id="Fill-273" class="cls-138" d="M37.25,40.38a5.5,5.5,0,1,1,.35-7.77,5.5,5.5,0,0,1-.35,7.77"/><path id="Fill-275" class="cls-139" d="M37.35,40.65a5.5,5.5,0,1,1,.35-7.77,5.5,5.5,0,0,1-.35,7.77"/><path id="Fill-277" class="cls-140" d="M37.46,40.92a5.51,5.51,0,1,1,.34-7.78,5.51,5.51,0,0,1-.34,7.78"/><path id="Fill-279" class="cls-141" d="M37.57,41.17a5.5,5.5,0,1,1,.35-7.77,5.5,5.5,0,0,1-.35,7.77"/><path id="Fill-281" class="cls-142" d="M37.68,41.42A5.5,5.5,0,1,1,38,33.65a5.49,5.49,0,0,1-.35,7.77"/><path id="Fill-283" class="cls-143" d="M37.8,41.67a5.5,5.5,0,1,1,.35-7.78,5.5,5.5,0,0,1-.35,7.78"/><path id="Fill-285" class="cls-144" d="M37.93,41.91a5.51,5.51,0,1,1,.35-7.78,5.51,5.51,0,0,1-.35,7.78"/><path id="Fill-287" class="cls-145" d="M38.06,42.14a5.5,5.5,0,1,1,.35-7.77,5.5,5.5,0,0,1-.35,7.77"/><path id="Fill-289" class="cls-146" d="M38.19,42.37a5.5,5.5,0,1,1,.35-7.78,5.5,5.5,0,0,1-.35,7.78"/><path id="Fill-291" class="cls-147" d="M38.33,42.59a5.51,5.51,0,1,1,.35-7.78,5.51,5.51,0,0,1-.35,7.78"/><path id="Fill-293" class="cls-148" d="M38.47,42.8A5.5,5.5,0,1,1,38.82,35a5.5,5.5,0,0,1-.35,7.77"/><path id="Fill-295" class="cls-149" d="M38.62,43A5.5,5.5,0,1,1,39,35.24,5.5,5.5,0,0,1,38.62,43"/><path id="Fill-297" class="cls-150" d="M38.76,43.21a5.5,5.5,0,1,1,.35-7.77,5.48,5.48,0,0,1-.35,7.77"/><path id="Fill-299" class="cls-151" d="M38.92,43.41a5.5,5.5,0,1,1,.35-7.77,5.51,5.51,0,0,1-.35,7.77"/><path id="Fill-301" class="cls-152" d="M39.07,43.6a5.5,5.5,0,1,1,.35-7.77,5.5,5.5,0,0,1-.35,7.77"/><path id="Fill-303" class="cls-153" d="M39.23,43.78A5.5,5.5,0,1,1,39.58,36a5.48,5.48,0,0,1-.35,7.77"/><path id="Fill-305" class="cls-154" d="M39.4,44a5.5,5.5,0,1,1,.35-7.77A5.5,5.5,0,0,1,39.4,44"/><path id="Fill-307" class="cls-155" d="M39.56,44.13a5.5,5.5,0,1,1,.35-7.77,5.49,5.49,0,0,1-.35,7.77"/><path id="Fill-309" class="cls-156" d="M39.73,44.3a5.5,5.5,0,1,1,.35-7.78,5.5,5.5,0,0,1-.35,7.78"/><path id="Fill-311" class="cls-157" d="M39.9,44.46a5.5,5.5,0,1,1,.35-7.78,5.5,5.5,0,0,1-.35,7.78"/><path id="Fill-313" class="cls-158" d="M40.08,44.61a5.5,5.5,0,1,1,.35-7.77,5.5,5.5,0,0,1-.35,7.77"/><path id="Fill-315" class="cls-159" d="M40.26,44.76A5.5,5.5,0,1,1,40.61,37a5.51,5.51,0,0,1-.35,7.77"/><path id="Fill-317" class="cls-160" d="M40.44,44.9a5.5,5.5,0,1,1,.35-7.77,5.5,5.5,0,0,1-.35,7.77"/><path id="Fill-319" class="cls-161" d="M40.62,45A5.51,5.51,0,1,1,41,37.26,5.51,5.51,0,0,1,40.62,45"/><path id="Fill-321" class="cls-162" d="M40.8,45.17a5.5,5.5,0,1,1,.35-7.78,5.5,5.5,0,0,1-.35,7.78"/><path id="Fill-323" class="cls-163" d="M41,45.29a5.5,5.5,0,1,1,.35-7.78A5.5,5.5,0,0,1,41,45.29"/><path id="Fill-325" class="cls-164" d="M41.18,45.41a5.5,5.5,0,1,1,.35-7.78,5.5,5.5,0,0,1-.35,7.78"/><path id="Fill-327" class="cls-165" d="M41.37,45.52a5.5,5.5,0,1,1,.35-7.78,5.5,5.5,0,0,1-.35,7.78"/><path id="Fill-329" class="cls-166" d="M41.57,45.62a5.5,5.5,0,1,1,.35-7.77,5.5,5.5,0,0,1-.35,7.77"/><path id="Fill-331" class="cls-167" d="M41.76,45.72A5.5,5.5,0,1,1,42.11,38a5.49,5.49,0,0,1-.35,7.77"/><path id="Fill-333" class="cls-168" d="M42,45.82A5.51,5.51,0,1,1,42.31,38,5.51,5.51,0,0,1,42,45.82"/><path id="Fill-335" class="cls-169" d="M42.16,45.9a5.5,5.5,0,1,1,.35-7.77,5.5,5.5,0,0,1-.35,7.77"/><path id="Fill-337" class="cls-170" d="M42.36,46a5.51,5.51,0,1,1,.35-7.78A5.51,5.51,0,0,1,42.36,46"/><path id="Fill-339" class="cls-171" d="M42.56,46.06a5.5,5.5,0,1,1,.35-7.77,5.51,5.51,0,0,1-.35,7.77"/><path id="Fill-341" class="cls-172" d="M42.76,46.13a5.5,5.5,0,1,1,.35-7.78,5.5,5.5,0,0,1-.35,7.78"/><path id="Fill-343" class="cls-173" d="M43,46.19a5.5,5.5,0,1,1,.35-7.77A5.5,5.5,0,0,1,43,46.19"/><path id="Fill-345" class="cls-174" d="M43.17,46.25a5.5,5.5,0,1,1,.35-7.78,5.5,5.5,0,0,1-.35,7.78"/><path id="Fill-347" class="cls-175" d="M43.38,46.3a5.5,5.5,0,1,1,.35-7.77,5.5,5.5,0,0,1-.35,7.77"/><path id="Fill-349" class="cls-176" d="M43.58,46.35a5.5,5.5,0,1,1,.35-7.78,5.5,5.5,0,0,1-.35,7.78"/><path id="Fill-351" class="cls-177" d="M43.79,46.39a5.51,5.51,0,1,1,.35-7.78,5.5,5.5,0,0,1-.35,7.78"/><path id="Fill-353" class="cls-178" d="M44,46.42a5.51,5.51,0,1,1,.35-7.78A5.51,5.51,0,0,1,44,46.42"/><path id="Fill-355" class="cls-179" d="M44.21,46.45a5.51,5.51,0,1,1,.35-7.78,5.51,5.51,0,0,1-.35,7.78"/><path id="Fill-357" class="cls-180" d="M44.42,46.47a5.51,5.51,0,1,1,.35-7.78,5.51,5.51,0,0,1-.35,7.78"/><path id="Fill-359" class="cls-181" d="M44.63,46.48A5.5,5.5,0,1,1,45,38.71a5.5,5.5,0,0,1-.35,7.77"/><path id="Fill-361" class="cls-182" d="M44.83,46.49a5.5,5.5,0,1,1,.35-7.77,5.49,5.49,0,0,1-.35,7.77"/><path id="Fill-363" class="cls-183" d="M45,46.5a5.5,5.5,0,1,1,.35-7.78A5.5,5.5,0,0,1,45,46.5"/><path id="Fill-365" class="cls-184" d="M45.25,46.5a5.5,5.5,0,1,1,.35-7.78,5.5,5.5,0,0,1-.35,7.78"/><path id="Fill-367" class="cls-185" d="M45.46,46.49a5.5,5.5,0,1,1,.35-7.78,5.5,5.5,0,0,1-.35,7.78"/><path id="Fill-369" class="cls-186" d="M45.67,46.47A5.5,5.5,0,1,1,46,38.7a5.48,5.48,0,0,1-.35,7.77"/><path id="Fill-371" class="cls-187" d="M45.88,46.45a5.5,5.5,0,1,1,.35-7.77,5.5,5.5,0,0,1-.35,7.77"/><path id="Fill-373" class="cls-188" d="M46.09,46.43a5.51,5.51,0,1,1,.35-7.78,5.51,5.51,0,0,1-.35,7.78"/><path id="Fill-375" class="cls-189" d="M46.29,46.4a5.5,5.5,0,1,1,.35-7.78,5.5,5.5,0,0,1-.35,7.78"/><path id="Fill-377" class="cls-190" d="M46.5,46.36a5.51,5.51,0,1,1,.35-7.78,5.5,5.5,0,0,1-.35,7.78"/><path id="Fill-379" class="cls-191" d="M46.71,46.32a5.51,5.51,0,1,1,.35-7.78,5.51,5.51,0,0,1-.35,7.78"/><path id="Fill-381" class="cls-192" d="M46.91,46.27a5.51,5.51,0,1,1,.35-7.78,5.51,5.51,0,0,1-.35,7.78"/><path id="Fill-383" class="cls-193" d="M47.11,46.21a5.5,5.5,0,1,1,.35-7.77,5.49,5.49,0,0,1-.35,7.77"/><path id="Fill-385" class="cls-194" d="M47.32,46.15a5.5,5.5,0,1,1,.35-7.77,5.5,5.5,0,0,1-.35,7.77"/><path id="Fill-387" class="cls-195" d="M47.52,46.09a5.51,5.51,0,1,1,.35-7.78,5.51,5.51,0,0,1-.35,7.78"/><path id="Fill-389" class="cls-196" d="M47.72,46a5.5,5.5,0,1,1,.35-7.77A5.5,5.5,0,0,1,47.72,46"/><path id="Fill-391" class="cls-197" d="M47.91,45.93a5.5,5.5,0,1,1,.35-7.77,5.49,5.49,0,0,1-.35,7.77"/><path id="Fill-393" class="cls-198" d="M48.11,45.85a5.51,5.51,0,1,1,.35-7.78,5.51,5.51,0,0,1-.35,7.78"/><path id="Fill-395" class="cls-199" d="M48.3,45.76A5.5,5.5,0,1,1,48.65,38a5.5,5.5,0,0,1-.35,7.78"/><path id="Fill-397" class="cls-200" d="M48.5,45.66a5.5,5.5,0,1,1,.35-7.77,5.5,5.5,0,0,1-.35,7.77"/><path id="Fill-399" class="cls-201" d="M48.69,45.56A5.5,5.5,0,1,1,49,37.79a5.5,5.5,0,0,1-.35,7.77"/><path id="Fill-401" class="cls-202" d="M48.88,45.45a5.5,5.5,0,1,1,.35-7.77,5.5,5.5,0,0,1-.35,7.77"/><path id="Fill-403" class="cls-203" d="M49.06,45.34a5.5,5.5,0,1,1,.35-7.77,5.49,5.49,0,0,1-.35,7.77"/><path id="Fill-405" class="cls-204" d="M49.25,45.22a5.5,5.5,0,1,1,.35-7.77,5.5,5.5,0,0,1-.35,7.77"/><path id="Fill-407" class="cls-205" d="M49.43,45.1a5.51,5.51,0,1,1,.35-7.78,5.51,5.51,0,0,1-.35,7.78"/><path id="Fill-409" class="cls-206" d="M49.61,45A5.51,5.51,0,1,1,50,37.19,5.51,5.51,0,0,1,49.61,45"/><path id="Fill-411" class="cls-207" d="M49.78,44.83a5.5,5.5,0,1,1,.35-7.77,5.5,5.5,0,0,1-.35,7.77"/><path id="Fill-413" class="cls-208" d="M50,44.69a5.51,5.51,0,1,1,.35-7.78A5.51,5.51,0,0,1,50,44.69"/><path id="Fill-415" class="cls-209" d="M50.13,44.54a5.5,5.5,0,1,1,.35-7.77,5.51,5.51,0,0,1-.35,7.77"/><path id="Fill-417" class="cls-210" d="M50.29,44.39a5.5,5.5,0,1,1,.35-7.78,5.5,5.5,0,0,1-.35,7.78"/><path id="Fill-419" class="cls-211" d="M50.46,44.23a5.51,5.51,0,1,1,.35-7.78,5.51,5.51,0,0,1-.35,7.78"/><path id="Fill-421" class="cls-212" d="M50.62,44.06A5.5,5.5,0,1,1,51,36.29a5.5,5.5,0,0,1-.35,7.77"/><path id="Fill-423" class="cls-213" d="M50.78,43.89a5.5,5.5,0,1,1,.35-7.77,5.5,5.5,0,0,1-.35,7.77"/><path id="Fill-425" class="cls-214" d="M50.93,43.71a5.5,5.5,0,1,1,.35-7.77,5.48,5.48,0,0,1-.35,7.77"/><path id="Fill-427" class="cls-215" d="M51.08,43.53a5.5,5.5,0,1,1,.35-7.77,5.49,5.49,0,0,1-.35,7.77"/><path id="Fill-429" class="cls-216" d="M51.23,43.34a5.5,5.5,0,1,1,.35-7.77,5.5,5.5,0,0,1-.35,7.77"/><path id="Fill-431" class="cls-217" d="M51.37,43.15a5.5,5.5,0,1,1,.35-7.78,5.5,5.5,0,0,1-.35,7.78"/><path id="Fill-433" class="cls-218" d="M51.51,43a5.5,5.5,0,1,1,.35-7.77A5.5,5.5,0,0,1,51.51,43"/><path id="Fill-435" class="cls-219" d="M51.65,42.75A5.51,5.51,0,1,1,52,35a5.51,5.51,0,0,1-.35,7.78"/><path id="Fill-437" class="cls-220" d="M51.78,42.53a5.5,5.5,0,1,1,.35-7.77,5.5,5.5,0,0,1-.35,7.77"/><path id="Fill-439" class="cls-221" d="M51.91,42.32a5.51,5.51,0,1,1,.35-7.78,5.51,5.51,0,0,1-.35,7.78"/><path id="Fill-441" class="cls-222" d="M52,42.1a5.51,5.51,0,1,1,.35-7.78A5.51,5.51,0,0,1,52,42.1"/><path id="Fill-443" class="cls-223" d="M52.15,41.87a5.51,5.51,0,1,1,.35-7.78,5.51,5.51,0,0,1-.35,7.78"/><path id="Fill-445" class="cls-224" d="M52.26,41.63a5.5,5.5,0,1,1,.35-7.77,5.49,5.49,0,0,1-.35,7.77"/><path id="Fill-447" class="cls-225" d="M52.37,41.39a5.5,5.5,0,1,1,.35-7.77,5.5,5.5,0,0,1-.35,7.77"/><path id="Fill-449" class="cls-226" d="M52.47,41.15a5.5,5.5,0,1,1,.35-7.78,5.5,5.5,0,0,1-.35,7.78"/><path id="Fill-451" class="cls-227" d="M52.57,40.9a5.5,5.5,0,1,1,.35-7.78,5.5,5.5,0,0,1-.35,7.78"/><path id="Fill-453" class="cls-228" d="M52.67,40.64A5.5,5.5,0,1,1,53,32.87a5.5,5.5,0,0,1-.35,7.77"/><path id="Fill-455" class="cls-229" d="M52.76,40.38a5.5,5.5,0,1,1,.35-7.77,5.51,5.51,0,0,1-.35,7.77"/><path id="Fill-457" class="cls-230" d="M52.84,40.11a5.5,5.5,0,1,1,.35-7.77,5.49,5.49,0,0,1-.35,7.77"/><path id="Fill-459" class="cls-231" d="M52.92,39.84a5.51,5.51,0,1,1,.35-7.78,5.51,5.51,0,0,1-.35,7.78"/><path id="Fill-461" class="cls-232" d="M53,39.56a5.5,5.5,0,1,1,.35-7.77A5.49,5.49,0,0,1,53,39.56"/><path id="Fill-463" class="cls-233" d="M53.06,39.28a5.51,5.51,0,1,1,.35-7.78,5.51,5.51,0,0,1-.35,7.78"/><path id="Fill-465" class="cls-234" d="M53.12,39a5.5,5.5,0,1,1,.35-7.78A5.5,5.5,0,0,1,53.12,39"/><path id="Fill-467" class="cls-235" d="M53.18,38.69a5.5,5.5,0,1,1,.35-7.77,5.51,5.51,0,0,1-.35,7.77"/><path id="Fill-469" class="cls-236" d="M53.23,38.39a5.51,5.51,0,1,1,.35-7.78,5.51,5.51,0,0,1-.35,7.78"/><path id="Fill-471" class="cls-237" d="M53.27,38.08a5.5,5.5,0,1,1,.35-7.77,5.49,5.49,0,0,1-.35,7.77"/><path id="Fill-473" class="cls-238" d="M53.31,37.77A5.5,5.5,0,1,1,53.66,30a5.51,5.51,0,0,1-.35,7.78"/><path id="Fill-475" class="cls-239" d="M53.34,37.45a5.5,5.5,0,1,1,.35-7.77,5.5,5.5,0,0,1-.35,7.77"/><path id="Fill-477" class="cls-240" d="M53.36,37.13a5.5,5.5,0,1,1,.35-7.78,5.5,5.5,0,0,1-.35,7.78"/><path id="Fill-479" class="cls-241" d="M53.38,36.8A5.5,5.5,0,1,1,53.73,29a5.5,5.5,0,0,1-.35,7.78"/><path id="Fill-481" class="cls-242" d="M53.4,36.46a5.5,5.5,0,1,1,.35-7.77,5.5,5.5,0,0,1-.35,7.77"/><path id="Fill-483" class="cls-243" d="M53.4,36.12a5.5,5.5,0,1,1,.35-7.77,5.48,5.48,0,0,1-.35,7.77"/><path id="Fill-485" class="cls-244" d="M53.4,35.78A5.51,5.51,0,1,1,53.75,28a5.51,5.51,0,0,1-.35,7.78"/><path id="Fill-487" class="cls-245" d="M53.39,35.43a5.51,5.51,0,1,1,.35-7.78,5.5,5.5,0,0,1-.35,7.78"/><path id="Fill-489" class="cls-246" d="M53.38,35.07a5.5,5.5,0,1,1,.34-7.78,5.51,5.51,0,0,1-.34,7.78"/></g></g></svg>