<svg id="Layer_1" data-name="Layer 1" xmlns="http://www.w3.org/2000/svg" xmlns:xlink="http://www.w3.org/1999/xlink" viewBox="0 0 64.67 64.67"><defs><style>.cls-1{fill:url(#linear-gradient);}.cls-2{fill:#fff;}</style><linearGradient id="linear-gradient" x1="54.14" y1="9.69" x2="11.22" y2="54.27" gradientUnits="userSpaceOnUse"><stop offset="0" stop-color="#ea5a47"/><stop offset="1" stop-color="#d20"/></linearGradient></defs><circle class="cls-1" cx="32.33" cy="32.33" r="32.05"/><path id="path4141" class="cls-2" d="M18.08,50.78h6.24l2.88-15.1h3.1c3.37,0,5.05,1.68,5.32,6.35a70.66,70.66,0,0,0,1,8.75h6.52c-.6-1.47-.87-5.71-1.31-10.27-.32-3.48-1.35-6-3.74-6.95l0-.17c4.67-1.41,8.47-5.1,8.47-10.48a7.78,7.78,0,0,0-3.47-6.63c-2.28-1.68-5.65-2.39-9.18-2.39a43.63,43.63,0,0,0-9,.87l-6.84,36ZM30.35,19.27A12.54,12.54,0,0,1,33.72,19C37.3,19,40,20.47,40,23.83c0,4-3.32,7-8.26,7H28.13l2.22-11.57Z"/></svg>