<svg id="Layer_1" data-name="Layer 1" xmlns="http://www.w3.org/2000/svg" xmlns:xlink="http://www.w3.org/1999/xlink" viewBox="0 0 64.67 64.67"><defs><style>.cls-1{fill:#fff;}.cls-2{fill:url(#linear-gradient);}.cls-3{fill:#f9ec23;}.cls-4{fill:#7ec247;}.cls-5{fill:#54a3da;}</style><linearGradient id="linear-gradient" x1="54.65" y1="9.15" x2="10.02" y2="55.52" gradientUnits="userSpaceOnUse"><stop offset="0" stop-color="#d5dde0"/><stop offset="1" stop-color="#bbcbd3"/></linearGradient></defs><circle class="cls-1" cx="32.33" cy="32.33" r="32.18"/><circle class="cls-2" cx="32.33" cy="32.33" r="32.18"/><g id="Layer_2" data-name="Layer 2"><g id="Layer_1-2" data-name="Layer 1-2"><path class="cls-3" d="M43.1,22.52A20.11,20.11,0,0,0,39.78,17h0a19.63,19.63,0,0,0-5.6-4.61A19.86,19.86,0,0,0,24,31.29a18.66,18.66,0,0,1,18.6-8.85Z"/><path class="cls-1" d="M35.34,47.71A20,20,0,0,0,49,48.91a21,21,0,0,0-7.88-6.62,21.08,21.08,0,0,1-6,5.32Z"/><path class="cls-4" d="M42.86,23.31a18.44,18.44,0,0,0-8.68,23.8h0a20,20,0,0,0,9.12-24Z"/><path class="cls-1" d="M15.68,38.32a22.1,22.1,0,0,0,2.44.21,21.5,21.5,0,0,1-.73-2.61A21.31,21.31,0,0,0,15.68,38.32Z"/><path class="cls-1" d="M33.26,47.61a20.92,20.92,0,0,1-9.87-13.93,5.29,5.29,0,0,0-5.25,1.38C20.23,48.59,36.26,56.52,48.3,50A20.81,20.81,0,0,1,33.26,47.61Z"/><path class="cls-5" d="M24.25,33.26a19.9,19.9,0,0,0,8.64,13.06,19.35,19.35,0,0,1,8.3-23.13,17.77,17.77,0,0,0-17,9.64C24.2,33,24.22,33.12,24.25,33.26Z"/></g></g></svg>