<svg id="Layer_1" data-name="Layer 1" xmlns="http://www.w3.org/2000/svg" xmlns:xlink="http://www.w3.org/1999/xlink" viewBox="0 0 64.67 64.67"><defs><style>.cls-1{fill:url(#linear-gradient);}.cls-2{fill:#fff;}</style><linearGradient id="linear-gradient" x1="54.65" y1="9.15" x2="10.02" y2="55.52" gradientUnits="userSpaceOnUse"><stop offset="0" stop-color="#18b2ef"/><stop offset="1" stop-color="#008bce"/></linearGradient></defs><circle class="cls-1" cx="32.33" cy="32.33" r="32.18"/><path class="cls-2" d="M34.51,45.29v3l-2.74,0v-3a1.42,1.42,0,0,1,1.29-1.43,1.15,1.15,0,0,1,.58.1,1.11,1.11,0,0,1,.44.28.9.9,0,0,1,.19.2s0,0,0,0A1.44,1.44,0,0,1,34.51,45.29Z"/><path class="cls-2" d="M55,32.33a16,16,0,0,1-14.6,16h-.14v0a2.72,2.72,0,0,0,.24-.24,2.12,2.12,0,0,0,.34-.4,3.22,3.22,0,0,0,.47-1.09,2.94,2.94,0,0,0,.08-.72V41.47a3.63,3.63,0,0,0,1.38-1.61,3.37,3.37,0,0,0-.74-3.7h0l-6.5-6.42a3.36,3.36,0,0,0-4.76,0l-6.5,6.42a3.41,3.41,0,0,0-.18,4.62,3.11,3.11,0,0,0,.8.69v4a3.69,3.69,0,0,0,.22,1.25,3.13,3.13,0,0,0,.39.72,3.44,3.44,0,0,0,.82.88H21.23a11.6,11.6,0,0,1,0-23.19,11.68,11.68,0,0,1,3.26.49A16,16,0,0,1,55,32.33Z"/><path class="cls-2" d="M24.27,36.16a3.41,3.41,0,0,0-.18,4.62,3.4,3.4,0,0,1-.58-.92,3.35,3.35,0,0,1,.74-3.7Z"/></svg>