<svg id="Layer_1" data-name="Layer 1" xmlns="http://www.w3.org/2000/svg" viewBox="0 0 64.67 64.67"><defs><style>.cls-1{fill:#212529;}.cls-2{fill:#29abe2;}</style></defs><g id="syncbeds_logo" data-name="syncbeds logo"><circle class="cls-1" cx="32.33" cy="32.33" r="32.21"/><path class="cls-2" d="M32.46,47.2c-5.81,0-9.89-2.48-11.47-7a3.21,3.21,0,0,1,.39-2.87,3.17,3.17,0,0,1,4.41-.74A3.21,3.21,0,0,1,27,38.22c.48,1.54,1.61,3.6,5.72,3.6,2.24,0,4.85-.75,4.85-2.91,0-1.4-.46-2.67-6.16-3.93h0a19.13,19.13,0,0,1-6.62-2.69,7.2,7.2,0,0,1-3.17-6.08c0-5.14,4.39-8.74,10.69-8.74,5.18,0,9.08,2.37,10.68,6.51a3.14,3.14,0,0,1-1.78,4.07,3.05,3.05,0,0,1-1.15.22h-.06a3.13,3.13,0,0,1-3-2.08c-.77-2.24-2.38-3.28-5-3.28-.95,0-4.06.21-4.06,3,0,1.45.89,2.48,5.38,3.52,5.21,1.19,10.55,3.21,10.55,9.28C43.82,43.86,39.37,47.2,32.46,47.2Z"/></g></svg>