<svg id="Layer_1" data-name="Layer 1" xmlns="http://www.w3.org/2000/svg" xmlns:xlink="http://www.w3.org/1999/xlink" viewBox="0 0 64.67 64.67"><defs><style>.cls-1{fill:url(#linear-gradient);}.cls-2,.cls-3{fill:#fff;}.cls-3,.cls-7{opacity:0.5;}.cls-4{fill:#67b5e4;}.cls-5,.cls-7{fill:#fac310;}.cls-6{fill:#769227;}.cls-8{fill:#e36076;}.cls-9{fill:#694469;}.cls-10{fill:#e73f09;}</style><linearGradient id="linear-gradient" x1="54.65" y1="9.15" x2="10.02" y2="55.52" gradientUnits="userSpaceOnUse"><stop offset="0" stop-color="#fff"/><stop offset="1" stop-color="#eee9e9"/></linearGradient></defs><circle class="cls-1" cx="32.33" cy="32.33" r="32.18"/><circle class="cls-2" cx="32.33" cy="31.79" r="11.69"/><path class="cls-3" d="M38.61,28.28c0,.41-.07.82-.13,1.22,0,.11,0,.21,0,.32a13.23,13.23,0,0,1-6.1,8.91,13.25,13.25,0,0,1-6.09-8.91c0-.09,0-.18,0-.27a10.72,10.72,0,0,1-.14-1.27,3.23,3.23,0,0,1,6.27-.62,3.23,3.23,0,0,1,6.28.62Z"/><path class="cls-2" d="M38.61,28.28c0,.41-.07.82-.13,1.22,0,.11,0,.21,0,.32a13.23,13.23,0,0,1-6.1,8.91,13.25,13.25,0,0,1-6.09-8.91c0-.09,0-.18,0-.27a10.72,10.72,0,0,1-.14-1.27,3.23,3.23,0,0,1,6.27-.62,3.23,3.23,0,0,1,6.28.62Z"/><path class="cls-4" d="M32.33,16.21A13.26,13.26,0,0,0,26,27.47q0,.41,0,.81a10.72,10.72,0,0,0,.14,1.27l0,0a12.88,12.88,0,0,0-2.82,2,13.19,13.19,0,0,0-4,7.58,13.21,13.21,0,1,1,13-23Z"/><path class="cls-4" d="M32.33,38.73a13.21,13.21,0,0,1-13,.46,13.19,13.19,0,0,1,4-7.58,12.88,12.88,0,0,1,2.82-2l0,0c0,.09,0,.18,0,.27A13.25,13.25,0,0,0,32.33,38.73Z"/><path class="cls-5" d="M52.45,27.47a13.23,13.23,0,0,1-7,11.67,13.25,13.25,0,0,0-5.38-8.68,14.85,14.85,0,0,0-1.53-.93l0,0c.06-.4.11-.81.13-1.22s0-.54,0-.81a13.24,13.24,0,0,0-6.31-11.26A13.21,13.21,0,0,1,52.45,27.47Z"/><path class="cls-6" d="M38.64,27.47q0,.41,0,.81a3.23,3.23,0,0,0-6.28-.62,3.23,3.23,0,0,0-6.27.62q0-.41,0-.81a13.26,13.26,0,0,1,6.3-11.26,13.24,13.24,0,0,1,6.31,11.26Z"/><path class="cls-7" d="M45.43,39.14a13.06,13.06,0,0,1-5.38,1.51q-.4,0-.81,0a13.21,13.21,0,0,1-6.91-2,13.23,13.23,0,0,0,6.1-8.91c0-.11,0-.21,0-.32l0,0a14.85,14.85,0,0,1,1.53.93A13.25,13.25,0,0,1,45.43,39.14Z"/><path class="cls-8" d="M45.6,41.22a13.21,13.21,0,0,1-26.42,0,13.56,13.56,0,0,1,.16-2,13.26,13.26,0,0,0,4,1.32,13.13,13.13,0,0,0,9-1.78,13.21,13.21,0,0,0,6.91,2q.4,0,.81,0a13.06,13.06,0,0,0,5.38-1.51A13,13,0,0,1,45.6,41.22Z"/><path class="cls-9" d="M32.33,38.73a13.21,13.21,0,0,1-13,.46,13.19,13.19,0,0,1,4-7.58,12.88,12.88,0,0,1,2.82-2l0,0c0,.09,0,.18,0,.27A13.25,13.25,0,0,0,32.33,38.73Z"/><path class="cls-10" d="M45.43,39.14a13.06,13.06,0,0,1-5.38,1.51q-.4,0-.81,0a13.21,13.21,0,0,1-6.91-2,13.23,13.23,0,0,0,6.1-8.91c0-.11,0-.21,0-.32l0,0a14.85,14.85,0,0,1,1.53.93A13.25,13.25,0,0,1,45.43,39.14Z"/></svg>