<svg id="Layer_1" data-name="Layer 1" xmlns="http://www.w3.org/2000/svg" xmlns:xlink="http://www.w3.org/1999/xlink" viewBox="0 0 64.67 64.67"><defs><style>.cls-1{fill:url(#linear-gradient);}</style><linearGradient id="linear-gradient" x1="54.65" y1="9.15" x2="10.02" y2="55.52" gradientUnits="userSpaceOnUse"><stop offset="0" stop-color="#7bffc6"/><stop offset="1" stop-color="#34e0a1"/></linearGradient></defs><circle class="cls-1" cx="32.33" cy="32.33" r="32.18"/><path d="M51.44,26.21l3.73-4.06H46.89a25.85,25.85,0,0,0-29.09,0H9.5l3.73,4.06A11.41,11.41,0,1,0,28.67,43l3.66,4L36,43A11.42,11.42,0,1,0,51.44,26.21ZM20.92,42.37a7.72,7.72,0,1,1,7.72-7.72A7.72,7.72,0,0,1,20.92,42.37Zm11.41-7.95c0-5.08-3.69-9.44-8.57-11.3a22.21,22.21,0,0,1,17.14,0C36,25,32.33,29.34,32.33,34.42Zm11.41,7.95a7.72,7.72,0,1,1,7.72-7.72A7.72,7.72,0,0,1,43.74,42.37Zm0-11.77a4,4,0,1,0,4,4A4,4,0,0,0,43.74,30.6ZM25,34.65a4,4,0,1,1-4-4A4,4,0,0,1,25,34.65Z"/></svg>