<svg id="Layer_1" data-name="Layer 1" xmlns="http://www.w3.org/2000/svg" xmlns:xlink="http://www.w3.org/1999/xlink" viewBox="0 0 64.67 64.67"><defs><style>.cls-1{fill:url(#linear-gradient);}.cls-2{fill:#29abe2;}</style><linearGradient id="linear-gradient" x1="56.18" y1="8.49" x2="9.19" y2="55.48" gradientUnits="userSpaceOnUse"><stop offset="0" stop-color="#fff"/><stop offset="1" stop-color="#bcbcbc"/></linearGradient></defs><circle class="cls-1" cx="32.33" cy="32.33" r="32.16"/><path d="M22.42,46.71c-1,0-1.69-.47-1.72-1.36h1.14a.51.51,0,0,0,.55.51c.31,0,.51-.16.51-.42,0-.81-2.2-.37-2.19-1.94,0-.83.69-1.29,1.61-1.29s1.6.47,1.65,1.31H22.81a.47.47,0,0,0-.51-.45c-.26,0-.45.12-.45.39,0,.77,2.17.43,2.17,1.9A1.41,1.41,0,0,1,22.42,46.71Z"/><path d="M24.85,44.06h-.42v-.89h.42v-.85h1.08v.85h.7v.89h-.7v1.41c0,.2.08.29.32.29h.38v.91h-.54a1.09,1.09,0,0,1-1.24-1.22Z"/><path d="M28.56,43.12a1.22,1.22,0,0,1,1.08.55v-.5h1.07v3.5H29.64v-.49a1.24,1.24,0,0,1-1.08.54,1.82,1.82,0,0,1,0-3.6Zm.32.94a.77.77,0,0,0-.77.85.77.77,0,1,0,.76-.85Z"/><path d="M33.9,43.17h1.16l-2.19,5.16H31.72l.8-1.78-1.43-3.38h1.2l.81,2.19Z"/><path d="M37.81,43.2A1.61,1.61,0,0,1,39.44,45a1.63,1.63,0,0,1-1.63,1.77,1.46,1.46,0,0,1-1.36-.8v2.37H36v-5h.43V44A1.46,1.46,0,0,1,37.81,43.2Zm-.09.38a1.38,1.38,0,0,0,0,2.76,1.38,1.38,0,0,0,0-2.76Z"/><path d="M40.15,42.27a.32.32,0,0,1,.32-.32.33.33,0,0,1,.32.32.32.32,0,0,1-.32.32.32.32,0,0,1-.32-.32Zm.1,1h.44v3.42h-.44Z"/><path d="M43.14,43.2a1.48,1.48,0,0,1,1.58,1.16h-.47a1,1,0,0,0-1.11-.79c-.67,0-1.21.46-1.21,1.39s.54,1.39,1.21,1.39a1,1,0,0,0,1.11-.8h.47a1.51,1.51,0,0,1-1.58,1.17,1.76,1.76,0,0,1,0-3.52Z"/><path d="M45.53,42H46v2.75l1.38-1.53H48L46.34,45,48,46.67h-.59L46,45.14v1.53h-.44Z"/><path d="M50,46.72a1.76,1.76,0,0,1,0-3.52,1.54,1.54,0,0,1,1.62,1.58c0,.12,0,.23,0,.35H48.78A1.2,1.2,0,0,0,50,46.35a1.06,1.06,0,0,0,1.1-.76h.47A1.51,1.51,0,0,1,50,46.72Zm-1.24-1.95h2.41A1.12,1.12,0,0,0,50,43.57a1.18,1.18,0,0,0-1.22,1.2Z"/><path d="M52.88,46.67h-.44V43.25h.44v.6a1.18,1.18,0,0,1,1.17-.67v.46h-.12c-.57,0-1,.26-1,1.12Z"/><path class="cls-2" d="M28.22,16.22c.29.08.38.25.25.51a83.8,83.8,0,0,0-5.15,10.13q-2.24,5.25-4.09,10.66Q18,41.08,17,44.67l-.51,1.75c-.11.36-.23.72-.36,1.07a2.78,2.78,0,0,1-.12.38.81.81,0,0,1-1,.59.81.81,0,0,1-.78-.54,5.9,5.9,0,0,1-.33-1.16q-.4-2.1-.75-4.23-.84-5.4-1.66-10.8c-.17-1.17-.33-2.33-.49-3.48l-.55-3.7c-.16-1-.32-2-.49-2.94q-.12-.7-.24-1.38c0-.09,0-.18-.05-.27a.49.49,0,0,0,0-.12h0a1.94,1.94,0,0,1,0-.24c0-.18,0-.36-.05-.54a.35.35,0,0,1,.36-.37.7.7,0,0,1,.88.63v0c.23,1,.43,1.92.6,2.89q.44,2.81.86,5.58l0,.21q.42,2.71.82,5.42c.12.88.25,1.76.39,2.65,0,.31.09.63.13.95.15.93.29,1.85.43,2.78.23,1.42.45,2.84.68,4.27l.2,1.32a.42.42,0,0,0,0,.1.31.31,0,0,0,0,.1c0,.1.06.13.14.12l.09,0a.1.1,0,0,0,.06-.05c.1-.31.2-.61.29-.92a153,153,0,0,1,5.91-16.9c.8-1.89,1.66-3.74,2.6-5.55s1.95-3.6,3-5.35a2.85,2.85,0,0,1,.31-.46A.74.74,0,0,1,28.22,16.22Z"/><path class="cls-2" d="M27.52,37.55a5,5,0,0,1-.95,1.28,3,3,0,0,1-1.51.89,1.7,1.7,0,0,1-1.62-.59,2.12,2.12,0,0,1-.44-.77,2.41,2.41,0,0,1-.1-.88v-.3c0-.3,0-.65,0-1A5.07,5.07,0,0,1,23.12,35a.77.77,0,0,1,.43-.58c.57-.15.88,0,.93.59,0,.17,0,.34,0,.51a2.28,2.28,0,0,0,0,.26c0,.25,0,.5,0,.75a5.82,5.82,0,0,1,0,.59c0,.87.18,1.39.58,1.55s.86,0,1.38-.52a5,5,0,0,0,1-1.28c.16-.35.27-.42.35-.22A1.17,1.17,0,0,1,27.52,37.55ZM24.36,32.6a.6.6,0,0,1-.28.13.48.48,0,0,1-.29,0,.42.42,0,0,1-.13-.21,1.53,1.53,0,0,1,0-.3.19.19,0,0,1,0-.08,1.67,1.67,0,0,1,.08-.32.66.66,0,0,1,.75-.39.4.4,0,0,1,.31.16.31.31,0,0,1,.05.31A1.56,1.56,0,0,1,24.36,32.6Z"/><path class="cls-2" d="M39.42,37.19c.24-.76.41-1.12.51-1.09s.11.26,0,.67a11.73,11.73,0,0,1-.39,1.29,2.65,2.65,0,0,1-.93,1.19,2.71,2.71,0,0,1-1.3.56,3.24,3.24,0,0,1-1.77-.24,2.59,2.59,0,0,1-1-1A4.6,4.6,0,0,1,34,37.18a11.29,11.29,0,0,1-.8,1.64,4.2,4.2,0,0,1-1.22,1.3,2.52,2.52,0,0,1-1.76.37,2.65,2.65,0,0,1-1.65-.86,4.23,4.23,0,0,1-.87-1.58,8.87,8.87,0,0,1-.36-1.76c-.1-.94-.18-2.16-.23-3.68s0-3.13.05-4.82a28.76,28.76,0,0,1,.6-4.71,8.33,8.33,0,0,1,1.42-3.39,1.64,1.64,0,0,1,1.23-.58,1.79,1.79,0,0,1,1.28.54,3.39,3.39,0,0,1,.81,1.86,11.36,11.36,0,0,1-.15,3.55,24.61,24.61,0,0,1-1.05,3.78c-.45,1.24-.92,2.37-1.4,3.39s-.89,1.84-1.23,2.44a14.24,14.24,0,0,0,.15,1.59,11.37,11.37,0,0,0,.45,1.83,3.5,3.5,0,0,0,.84,1.43,1,1,0,0,0,1.32,0A5.38,5.38,0,0,0,32.74,38a11.14,11.14,0,0,0,1-2c-.1-.81-.16-1.89-.21-3.21s0-2.73.06-4.2a25.61,25.61,0,0,1,.55-4.09,7.16,7.16,0,0,1,1.26-2.94,1.47,1.47,0,0,1,1.1-.5,1.52,1.52,0,0,1,1.13.46,3,3,0,0,1,.73,1.62A11,11,0,0,1,38,27.42a27.82,27.82,0,0,1-1.52,4.24C35.87,33,35.37,34,35,34.71a13,13,0,0,0,.14,1.4,8.79,8.79,0,0,0,.39,1.61A3.52,3.52,0,0,0,36.24,39a1.57,1.57,0,0,0,1.91,0A3.39,3.39,0,0,0,39.42,37.19ZM28.88,28.07c0,.35-.07.87-.11,1.56s-.06,1.41-.08,2.14-.08,1.42-.1,1.88a23.82,23.82,0,0,0,1.14-2.52,30.51,30.51,0,0,0,1.19-3.87,27.22,27.22,0,0,0,.7-4.84,4.38,4.38,0,0,0-.47-2.06c-.25-.36-.52-.39-.82-.09a3.85,3.85,0,0,0-.7,1.88c-.28,1.57-.49,3.16-.63,4.75Zm6.3.88c0,.3-.06.76-.09,1.36S35,31.54,35,32.17s0,1.25-.08,1.66a20.73,20.73,0,0,0,1-2.21A24.92,24.92,0,0,0,37,28.23,22.17,22.17,0,0,0,37.62,24a3.79,3.79,0,0,0-.41-1.81c-.22-.32-.47-.35-.73-.08a3.36,3.36,0,0,0-.63,1.65,41,41,0,0,0-.55,4.15l-.12,1Z"/><path class="cls-2" d="M49.73,34.49a1.47,1.47,0,0,1,.88-.35,2.43,2.43,0,0,1,.76,0,1.42,1.42,0,0,1,.64.34.3.3,0,0,1,.09.13.28.28,0,0,1,0,.2.34.34,0,0,1-.3.18.84.84,0,0,1-.27,0l-.26-.12-.16-.08a.33.33,0,0,0-.39,0,.49.49,0,0,0-.14.39,1.93,1.93,0,0,0,.37,1c.24.35.48.67.71,1a2.86,2.86,0,0,1,.24.3c.07.06.24.05.52,0a12.39,12.39,0,0,0,1.55-.72c.75-.4,1.13-.53,1.13-.39s-.29.38-.87.73-1,.61-1.28.79-.42.29-.42.33a3,3,0,0,1,.17.6,4,4,0,0,1,.07.92,1.45,1.45,0,0,1-.32.87,1.33,1.33,0,0,1-1,.47,2.3,2.3,0,0,1-1.24-.21,1.2,1.2,0,0,1-.68-.77,1.42,1.42,0,0,1,.34-1.17,3.15,3.15,0,0,1,.75-.66,2.82,2.82,0,0,0,.31-.21c-.35-.38-.69-.78-1-1.19a5.45,5.45,0,0,1-.32-.45,12.67,12.67,0,0,1-1.18,1.74,4.5,4.5,0,0,1-1.78,1.47,2.11,2.11,0,0,1-1.6-.07c-.52-.24-.82-.87-.88-1.9a5.53,5.53,0,0,1-1.73,2.25,2.53,2.53,0,0,1-1.69.38,1.78,1.78,0,0,1-1.37-.78A2.27,2.27,0,0,1,39.14,38a5.08,5.08,0,0,1,.5-1.56,4.2,4.2,0,0,1,.8-1,4.43,4.43,0,0,1,1.11-.75A2.87,2.87,0,0,1,43,34.34a3.32,3.32,0,0,1,1.53.47s0,0,0,0a.71.71,0,0,1,0-.2.37.37,0,0,1,.14-.19,1,1,0,0,1,.65-.2.63.63,0,0,1,.57.37,4,4,0,0,1-.12,1.21,4.66,4.66,0,0,0,0,2.33c.2.47.61.5,1.23.08A10.33,10.33,0,0,0,49.36,35,1.83,1.83,0,0,1,49.73,34.49Zm-8.81,4.62a.76.76,0,0,0,.94-.07,4.58,4.58,0,0,0,1-1.07,9.78,9.78,0,0,0,.84-1.38,3.6,3.6,0,0,0,.38-1,1.91,1.91,0,0,0-1.74-.18,2.51,2.51,0,0,0-1.14,1.16,4.46,4.46,0,0,0-.51,1.56C40.66,38.6,40.72,38.94,40.92,39.11Zm10.14,1.23a.39.39,0,0,0,.35-.29,1.68,1.68,0,0,0,.07-.59,3.93,3.93,0,0,0-.06-.48.15.15,0,0,0-.12-.13.23.23,0,0,0-.18,0,1.46,1.46,0,0,0-.42.59.64.64,0,0,0,0,.63.7.7,0,0,0,.13.17.4.4,0,0,0,.2.09Z"/></svg>