<svg id="Layer_1" data-name="Layer 1" xmlns="http://www.w3.org/2000/svg" xmlns:xlink="http://www.w3.org/1999/xlink" viewBox="0 0 64.67 64.67"><defs><style>.cls-1{fill:url(#linear-gradient);}.cls-2{fill:#fff;}.cls-3{fill:#7ec247;}.cls-4{fill:#54a3da;}.cls-5{fill:#f2d927;}.cls-6{fill:none;}</style><linearGradient id="linear-gradient" x1="2.37" y1="22.03" x2="60.08" y2="41.88" gradientUnits="userSpaceOnUse"><stop offset="0.01" stop-color="#7ec247"/><stop offset="0.5" stop-color="#54a3da"/><stop offset="1" stop-color="#f2d927"/></linearGradient></defs><circle class="cls-1" cx="32.33" cy="32.33" r="32.18"/><circle class="cls-2" cx="32.33" cy="32.33" r="28.16"/><path class="cls-3" d="M33.81,40.74l0,.09c.39,1.43.75,2.67,1.09,3.71a2.29,2.29,0,0,0,1.54,1.38,8.6,8.6,0,0,0,3.11.49,10.75,10.75,0,0,0,2.73-.35,4.4,4.4,0,0,0,1.92-.9,17.92,17.92,0,0,0,.84-2.44c.29-1,.59-2.23.87-3.53s.56-2.67.82-4.1.49-2.8.69-4.1c0-.24.06-.46.1-.69a18.66,18.66,0,0,0-7.24,2.91L40,35.65c-.18,1.45-.39,3-.63,4.55h-.19c-.21-.91-.42-1.78-.65-2.62s-.43-1.61-.65-2.43A19,19,0,0,0,33.81,40.74Z"/><path class="cls-4" d="M47.65,29.56c.11-.75.19-1.45.27-2.11.11-1.05.17-1.86.17-2.44A2.26,2.26,0,0,0,47,22.9a4.88,4.88,0,0,0-2.5-.62,6.16,6.16,0,0,0-3.09.82c-.15,1.4-.31,2.79-.46,4.16s-.32,2.74-.47,4.14c0,.29-.07.59-.11.89A19.41,19.41,0,0,1,47.65,29.56Z"/><path class="cls-4" d="M28.64,46.06a4.25,4.25,0,0,0,1.76-.9c.31-1.12.66-2.48,1.06-4.1s.76-3.26,1.13-5c.33,1.28.64,2.48.94,3.6a19.75,19.75,0,0,1,4.14-5.33c-.18-.63-.35-1.28-.53-2-.25-.92-.52-1.92-.8-3A2.15,2.15,0,0,0,35,28a6.63,6.63,0,0,0-2.73-.49,6.9,6.9,0,0,0-1.86.26,10.39,10.39,0,0,0-1.35.45c-.26,1.32-.5,2.5-.74,3.53s-.46,2-.68,2.89-.44,1.79-.65,2.67c-.14.6-.29,1.25-.44,1.92a18.64,18.64,0,0,0,2.05,6.84Z"/><path class="cls-5" d="M25.75,37.55q-.09-.64-.21-1.47l-.66-4.35c-.28-1.77-.62-4-1-6.64a3,3,0,0,0-1.19-2.17,4.28,4.28,0,0,0-2.44-.64,5.11,5.11,0,0,0-2.11.43,5.45,5.45,0,0,0-1.52.94c.1,1.09.26,2.29.47,3.61s.43,2.66.68,4,.52,2.76.82,4.14.59,2.66.88,3.85.56,2.24.84,3.16A12.87,12.87,0,0,0,21,44.54a3,3,0,0,0,1.85,1.39,10,10,0,0,0,3.19.48,9.61,9.61,0,0,0,1.82-.17A19.38,19.38,0,0,1,25.75,37.55Z"/><circle class="cls-6" cx="32.33" cy="32.33" r="32.18"/></svg>